<svg xmlns="http://www.w3.org/2000/svg" viewBox="0 0 1000 1000">
  <path fill="#464b4b" stroke="#464b4b" stroke-width=".094" d="M0 0h1000v1000H0V0Z"/>
  <path stroke="#000" stroke-width=".094" d="M572.35 167.42c47.61-18.62 99.99-24.57 150.62-17.72 3.37-.23 6.55 4.23 3.55 6.77-4.06 2.19-8.81 2.54-13.14 4-28.12 8.18-56.44 16.72-82.33 30.68-2.93 1.61-6.26 2.77-8.6 5.22-1.33 1.44-.33 3.78 1.55 4.02 2.39.05 4.74-.55 7.08-1.03 25.85-5.86 52.52-7.68 78.96-6.47 35.02 1.92 70.24 10.38 100.62 28.36 12.25 7.32 23.78 16.08 33.45 26.61 2.31 1.93 1.15 6.34-2.08 6.13-3.36-.52-6.19-2.59-9.3-3.82-17.35-7.25-36.01-10.86-54.69-12.45-20.65-1.89-41.53-.89-61.98 2.41-2.08.37-4.66 1.34-4.76 3.83.35 1.66 1.83 2.77 3.44 3.09 26.85 4.8 52.73 14.19 77.33 25.86 31.72 15.25 61.36 34.92 87.54 58.48 21.09 19.16 40.24 40.87 54.4 65.7 2.37 3.03-1.32 8.42-4.82 5.72-5.58-4.4-10.59-9.47-16.13-13.92-49.74-41.93-108.78-74.3-172.99-86.91-46.32-9.17-95.04-7.52-140.17 6.74-3.9 1.19-8.41 3.16-9.42 7.56-1.64 7.45-.94 15.17-.79 22.73.28 4.98.6 11.06 5.24 14.09 4.77 3.01 9.99 5.2 14.86 8.06 2.94 1.45 6.67 3.84 9.82 1.52 6.23-4.37 9.32-12.37 16.46-15.61 5.49-1.19 9.43 3.89 14.05 5.89 1.68 1.03 3.71.47 5.3-.44 4.32-2.6 7.02-7.1 11.15-9.93 1.96-1.32 4.5-.67 6.36.53 6.24 3.96 11.28 9.63 17.84 13.14 3.8 1.96 7.94-.16 11.31-2.04 8.54-4.91 17.81-8.46 27.34-10.92 1.43 5.71 2.73 11.45 4.13 17.17-9.68 2.56-19 6.48-27.43 11.89 5.22 5.31 10.32 10.74 15.11 16.45 1.48 1.85 3.41 4.24 2.18 6.74-3.55 5.35-9.83 8.52-12.68 14.38.15 4.23 3.76 7.18 5.98 10.48 2.26 2.87 4.64 7.1 2.14 10.57-4.03 5.18-10.25 8.77-12.72 15.11-1.55 3.93.64 7.9 2.48 11.3 6.16 10.85 11.89 21.97 16.63 33.53 16.46 39.62 23.02 83.3 18.96 126.01-1.82 20.21-5.37 40.32-11.65 59.64-1.89 6.16-4.33 12.12-6.42 18.21 1.56-.92 3.16-1.82 4.75-2.72 2.49 5.34 4.94 10.7 7.4 16.06-7.41 4.49-15.11 8.48-22.87 12.34-1.84.78-3.04 2.4-3.95 4.11-29.03 51.67-76.29 92.74-131.36 114.6-30.47 12.12-63.3 18.53-96.12 18.08-39.49-.42-79.12-8.38-114.94-25.26-53.23-24.65-97.69-67.6-124.13-119.96-6.36-12.52-11.74-25.54-15.99-38.92-.88-3.1-3.39-5.24-5.55-7.45a232.229 232.229 0 0 1-14.72-16.49c3.65-3.79 8.4-6.68 11.38-11.02-1.67-12.33-3.47-24.7-3.65-37.17-1.63-43.77 8.18-87.8 27.48-127.07 26.49-54.07 70.96-99.95 126.08-124.87 2.87-1.37 5.79-3.55 6.29-6.92.93-5.32.54-10.77.6-16.15-.09-3.88-.31-8.59-3.81-11.05-5.53-3.81-12.34-4.92-18.76-6.34-42.06-8.36-85.89-3.56-126.62 8.94-52.72 16.42-101.71 46.27-138.37 87.78-2.37 3.44-8.02.47-7.47-3.28.58-1.7 1.53-3.22 2.44-4.74 17.37-28.92 38.82-55.56 64.35-77.68 26.85-23.24 56.76-44.01 90.79-55.13 2.78-1.05 5.9-1.82 8.02-4.04 1.64-1.73.41-4.39-1.59-5.12-3.13-1.24-6.54-1.32-9.84-1.68-35.67-3.29-72.07-2.84-107.06 5.43-2.28.81-5.62-.18-5.65-3.01-.29-2.58 2.48-3.65 4.34-4.58 51.11-22.78 106.69-34.69 162.44-37.77 24.71-1.24 49.51.39 73.93 4.21 2.72.37 7.45.96 7.84-2.86-.55-3.57-4.16-5.25-6.76-7.2-16.38-11.12-34.4-19.84-53.31-25.72-23.59-7.74-48.05-12.44-72.62-15.74-2.2-.46-5.79-.48-6.07-3.42-.57-2.48 1.85-3.97 3.99-4.12 43.72-7.33 89.08-2.86 131.08 11.04 31.21 10.52 61.15 25.45 87.11 45.85 4.97 3.74 9.44 8.93 15.86 10.04 5.11.8 9.12-3.03 12.8-5.93 26.52-21.94 56.32-40.02 88.46-52.43Z"/>
  <path fill="#959898" stroke="#959898" stroke-width=".094" d="M668.05 157.99c8.05-.57 16.12-.17 24.18-.41-36.09 7.82-71.39 22.01-100.24 45.47-13.47 10.91-25.61 23.78-34.19 38.93-4.36 7.53-7.08 16.18-13.31 22.49-4.75 4.48-11.19 6.33-16.96 9.06-5.67 2.34-11.14 6.06-17.48 5.98-6.21-.76-10.08-6.3-13.54-10.92-6.12-8.87-12.51-17.58-19.83-25.5 9.35-10.83 20.48-19.94 31.87-28.52 26.51-19.49 56.17-34.92 87.86-43.95 23.3-6.92 47.37-11.34 71.64-12.63Z"/>
  <path fill="#959898" stroke="#959898" stroke-width=".094" d="M286.79 166.24c63.93 1.43 126.75 26.99 174.19 69.73 9.98 9.11 18.98 19.28 26.65 30.42 6.41 9.34 12.58 18.96 16.92 29.47-11.62-.91-23.29-1.38-34.93-.49-13.78-12.83-29.91-23.1-47.24-30.43-6.06-15.71-15.3-30.17-26.96-42.3-21.31-22.09-48.76-37.43-77.46-47.74-10.17-3.6-20.55-6.67-31.17-8.66Z"/>
  <path fill="#959898" stroke="#959898" stroke-width=".094" d="M590.62 221.55c40.65-14.29 84.36-20.63 127.36-16.63 19.71 1.78 39.31 5.55 58.02 12.08 11.48 3.99 22.51 9.17 33.22 14.92-43.53-10.72-90.55-8.86-132.29 8.01-5.84 2.11-11.09 5.68-16.97 7.58-28.84.39-57.75 3.54-85.74 10.67-4.08.93-8.91 1.65-12.54-.92-2.23-2.32-.79-5.69.34-8.18 6.29-11.83 15.44-23.17 28.6-27.53Z"/>
  <path fill="#959898" stroke="#959898" stroke-width=".094" d="M186.58 242.37c40.18-9.6 81.04-17.64 122.46-18.66 23.99-.23 48.32 1.63 71.27 9.03 11.19 3.7 23.19 9.01 29.22 19.75.91 1.71 2.43 5.23-.6 5.66-6.42.43-12.73-1.48-19.04-2.4-17.42-3.49-35.22-4.34-52.94-4.38-12.01.27-24.04.79-35.94 2.55-4.47.93-8.74-1.01-13.03-1.93-33.12-8-67.38-10.93-101.4-9.62Z"/>
  <path fill="#959898" stroke="#959898" stroke-width=".094" d="M624.91 255.48c49.64-5.41 100.7.87 147.09 19.57 49.65 20.17 92.36 54.35 128.91 93.04-25.32-19.57-52.44-36.88-81.34-50.67-35.49-17.2-74.18-28.07-113.59-30.58-25.06-1.49-50.29-.44-75.1 3.44-16.98 2.71-34.06 6.34-49.63 13.88-4.16 1.96-8.55 3.79-13.22 3.76-6.81-.03-13.26-2.44-19.76-4.17-12.11-3.41-24.54-5.53-37-7.23-1.04-2.47-2.08-4.94-3.12-7.4 36.48-18.11 76.16-29.88 116.76-33.64Z"/>
  <path fill="#959898" stroke="#959898" stroke-width=".094" d="M319.98 258.03c26.41-1.46 53.18-.48 78.97 5.77 22.99 5.3 44.37 16.75 62.24 32.06-16.76 1.59-33.4 4.72-49.4 9.97-4.81 1.5-9.62 3.46-14.73 3.41-6.14-.39-11.78-3.09-17.6-4.85-33.15-11.1-68.83-12.88-103.37-8.79-36.38 4.44-71.65 16.34-104.12 33.19-14.81 7.63-28.78 16.78-42.24 26.58 20.89-22.51 44.05-43.15 70.13-59.5 36.08-22.35 77.81-35.19 120.12-37.84Z"/>
  <path fill="#464b4b" stroke="#464b4b" stroke-width=".094" d="M449.95 303.23c23.57-3.3 47.59-2.89 71.1.62-.84-.11-2.54-.34-3.39-.46-.05 11.82 0 23.64-.03 35.46-43.04-6.91-87.73-1.78-128.45 13.6.02-10.12 0-20.23 0-30.35 18.79-10.17 39.71-15.88 60.77-18.87Z"/>
  <path fill="#959898" stroke="#959898" stroke-width=".094" d="M517.66 303.39c.85.12 2.55.35 3.39.46 2.03.28 4.05.66 6.07 1.06.06 11.86.05 23.71 0 35.57-.52-.08-1.58-.25-2.11-.34-2.47-.39-4.93-.83-7.38-1.29.03-11.82-.02-23.64.03-35.46Z"/>
  <path fill="#464b4b" stroke="#464b4b" stroke-width=".094" d="M527.12 304.91c2.96.7 5.93 1.33 8.92 1.91-.05 11.84.03 23.68-.05 35.52-3.64-.85-7.3-1.59-10.98-2.2.53.09 1.59.26 2.11.34.05-11.86.06-23.71 0-35.57Z"/>
  <path fill="#959898" stroke="#959898" stroke-width=".094" d="M536.04 306.82c6.9 1.57 13.7 3.57 20.37 5.95 0 11.73.04 23.46-.02 35.18-.62-.18-1.84-.54-2.46-.72-5.92-1.82-11.94-3.34-17.94-4.89.08-11.84 0-23.68.05-35.52Z"/>
  <path fill="#464b4b" stroke="#464b4b" stroke-width=".094" d="M556.41 312.77c6.85 2.64 13.64 5.47 20.15 8.88.07 11.18.04 22.35.02 33.53-7.47-2.86-14.93-5.79-22.65-7.95.62.18 1.84.54 2.46.72.06-11.72.02-23.45.02-35.18Z"/>
  <path stroke="#000" stroke-width=".094" d="M737.06 341.87c27.68-4.09 56.36 5.2 77.96 22.59-3.57 4.67-7.04 9.4-10.62 14.05-17.63-14.09-40.65-22.13-63.29-19.45-1.37-5.73-2.73-11.45-4.05-17.19Z"/>
  <path fill="#464b4b" stroke="#464b4b" stroke-width=".094" d="M458.39 343.08c12.99-1.81 26.21-1.27 39.26-.48-6.62 2-13.19 4.26-19.87 5.96-6.57-1.24-13.16-2.99-19.39-5.48Z"/>
  <path fill="#464b4b" stroke="#464b4b" stroke-width=".094" d="M513.35 345.5c5.23-.85 10.47.35 15.59 1.41 28.36 5.8 55.68 16.6 80.36 31.72 2.87 1.81 5.93 3.42 8.36 5.82 1.35 1.33 2.26 3.55 1.05 5.28-1.9 3.04-5.64 4-8.83 5.05-4.21 1.15-8.43 2.67-12.84 2.74-5.65-.49-10.81-3.13-15.67-5.87-24.33-13.96-50.1-25.39-76.68-34.35-2.22-.92-4.94-1.54-6.27-3.72-1.14-1.67.78-3.18 1.98-4.07 3.89-2.4 8.51-3.21 12.95-4.01Z"/>
  <path fill="#464b4b" stroke="#464b4b" stroke-width=".094" d="M425.26 348.31c7.89-1.27 15.98-1.22 23.87-.01 2.78.48 5.79 1.62 7.27 4.19 1.19 2.11-.86 4.26-2.48 5.41-4.42 2.91-9.51 4.53-14.25 6.81-13.71 6.49-26.85 14.13-39.69 22.19-4.33 2.78-8.73 5.76-13.85 6.83-5.9 1.26-11.88-.46-17.54-2.06-4.76-1.52-9.72-2.77-14.03-5.39-1.73-1.06-3.82-3.05-2.75-5.27 2.37-5.89 8.62-8.57 13.86-11.36 18.83-9.55 38.73-17.62 59.59-21.34Z"/>
  <path fill="#464b4b" stroke="#464b4b" stroke-width=".094" d="M669.32 354.23c8.44 6.01 16.17 12.93 23.84 19.87-4.29 4.05-8.37 8.31-12.45 12.57-7.23-7.13-15.04-13.64-22.99-19.94 3.8-4.23 7.72-8.35 11.6-12.5Z"/>
  <path fill="#464b4b" stroke="#464b4b" stroke-width=".094" d="M474.36 358.53c12.22-1.86 23.91 3.15 35.23 6.98 19.77 7.03 39.06 15.45 57.58 25.33 3.56 2.01 7.39 3.74 10.35 6.62 1.52 1.47 2.78 4.32.7 5.9-3.12 2.46-7.52 1.44-11 .37-11.23-4.13-22.18-9.12-33.78-12.2-38.27-10.8-80.24-7.83-116.58 8.33-3.46 1.48-7.01 3.43-10.91 3.04-2.96-.27-6.12-1.57-7.7-4.21-.23-3.08 2.88-4.87 4.99-6.52 12.37-8.27 25.44-15.47 38.8-22 10.35-4.9 20.89-9.92 32.32-11.64Z"/>
  <path fill="#959898" stroke="#959898" stroke-width=".094" d="M620.95 378.96c5.65-6.4 11.4-12.7 17.07-19.08 20.09 13.47 38.33 29.61 54.79 47.3 5.09 6.2 9.96 12.62 14.43 19.29-6.2 6.15-12.39 12.31-18.59 18.47-4.57-6.53-9.5-12.78-14.93-18.6-15.01-18.4-33.09-34.15-52.77-47.38Z"/>
  <path stroke="#000" stroke-width=".094" d="M810.21 383.61c3.52-4.76 7.09-9.49 10.67-14.21 24.19 22.09 38.12 53.44 44.19 85.19-5.69.99-11.27 2.56-16.99 3.32-2.25-7.49-3.54-15.3-6.31-22.67-6.52-19.24-16.66-37.6-31.56-51.63Z"/>
  <path fill="#959898" stroke="#959898" stroke-width=".094" d="M680.71 386.67c4.08-4.26 8.16-8.52 12.45-12.57 3.53 3.39 7.04 6.81 10.38 10.4-4.07 4.27-8.2 8.48-12.35 12.67a798.13 798.13 0 0 0-10.48-10.5Z"/>
  <path fill="#464b4b" stroke="#464b4b" stroke-width=".094" d="M703.54 384.5c2.74 3.01 5.47 6.03 8.1 9.14-4.19 4.04-8.3 8.16-12.47 12.23-2.6-2.96-5.23-5.89-7.98-8.7 4.15-4.19 8.28-8.4 12.35-12.67Z"/>
  <path fill="#464b4b" stroke="#464b4b" stroke-width=".094" d="M336.19 391.21c8.27-1.6 16.2 2.21 23.93 4.58 3.94 1.51 9.21 2.78 10.62 7.33-.02 4.57-4.19 7.57-7.11 10.55-17.11 15.19-33.59 31.21-47.63 49.32-3.31 3.98-6.27 8.69-11.09 10.98-2.52 1.27-5.17-.71-5.98-3.08-1.85-4.81-2.55-9.96-3.77-14.94-1.46-7.54-3.72-15.27-2.19-22.97 1.24-6.38 5.3-11.74 9.73-16.3 6.74-6.95 13.8-13.62 21.54-19.45 3.58-2.69 7.52-5.08 11.95-6.02Z"/>
  <path fill="#464b4b" stroke="#464b4b" stroke-width=".094" d="M470.19 392.3c34.78-3.42 70.53 4.2 100.77 21.74 30.27 17.37 54.62 45.17 66.92 77.9 12.6 32.85 12.39 70.42-.86 103.03-11.77 29.56-33.72 54.7-60.84 71.18-32.34 19.84-71.74 27.45-109.21 21.97-32.5-4.61-63.61-19.02-87.8-41.27C353.89 623.8 336.46 592 331.86 558c-4.9-34.14 3.46-69.86 22.74-98.42 17.17-25.66 42.5-45.66 71.27-56.79 14.2-5.53 29.17-8.99 44.32-10.49Z"/>
  <path fill="#464b4b" stroke="#464b4b" stroke-width=".094" d="M621.15 398.33c7.47-1.71 15.83-.29 21.66 4.89 14.49 12.52 27.58 26.7 38.78 42.23 4.74 6.13 2.79 14.86-1.34 20.76-1.26 1.85-3.72 4.01-6.03 2.54-3.84-2.39-6.44-6.24-9.48-9.49-13.27-14.77-27.53-28.69-43.21-40.89-3.81-3.16-8.21-5.71-11.34-9.59-2.05-2.35-1.68-6.83 1.5-7.97 3.05-1.16 6.27-1.8 9.46-2.48Z"/>
  <path stroke="#000" stroke-width=".094" d="M490.4 402.41c6.38-1.55 13.33 3.91 13.05 10.56.22 6.7-7.01 12.28-13.41 10.19-5.93-1.44-9.47-8.51-7.07-14.12 1.25-3.21 4.1-5.73 7.43-6.63Z"/>
  <path fill="#464b4b" stroke="#464b4b" stroke-width=".094" d="M374.75 412.7c5.24-3.96 12.74-8.21 18.99-3.85-3.19 5.4-8.78 8.52-13.55 12.33-27.02 20.37-48.06 48.63-59.49 80.51-1.36 3.09-2.36 7.01-5.59 8.66-3 .42-4.7-2.53-5.51-4.93-2.32-7.24-4.03-15.72.14-22.65 7.32-12.57 16.85-23.7 26.6-34.45 11.91-12.78 24.67-24.82 38.41-35.62Z"/>
  <path fill="#959898" stroke="#959898" stroke-width=".094" d="M491.35 408.57c2.91-1.13 6.37 1.28 6.16 4.44.11 3.52-4.34 5.84-7.19 3.8-3.23-1.81-2.69-7.39 1.03-8.24Z"/>
  <path fill="#464b4b" stroke="#464b4b" stroke-width=".094" d="M582.84 411.95c.56-3.19 4.37-4.35 7.18-4.51 5.88.15 10.87 3.72 15.59 6.86a295.373 295.373 0 0 1 55.11 50.05c4.22 5.29 9.14 10.52 10.8 17.28 1.42 6.92-1.45 13.68-3.95 19.99-2.45 5.43-4.2 11.41-8.53 15.72-2.78-2.25-4.69-5.27-5.75-8.65-4.11-11.95-8.93-23.7-15.12-34.72-12.2-21.86-29.24-40.99-49.47-55.73-2.24-1.76-4.85-3.48-5.86-6.29Z"/>
  <path stroke="#000" stroke-width=".094" d="M575.28 431.33c7.61-1.62 14.97 6.6 12.13 13.98-2.17 7.35-12.63 9.76-17.72 3.98-5.87-5.61-2.33-16.57 5.59-17.96Z"/>
  <path stroke="#000" stroke-width=".094" d="M393.36 432.45c6.81-3.09 15.39 3.17 14.56 10.61-.07 7.8-10.03 12.93-16.36 8.25-7.17-4.2-5.89-15.98 1.8-18.86Z"/>
  <path fill="#959898" stroke="#959898" stroke-width=".094" d="M575.52 437.68c2.96-1.36 6.78 1 6.46 4.36.12 3.4-4.11 5.71-6.95 3.91-3.29-1.63-3.09-7.14.49-8.27Z"/>
  <path fill="#959898" stroke="#959898" stroke-width=".094" d="M395.16 438.31c2.8-1.5 6.72.4 6.81 3.68.51 3.46-3.61 6.28-6.66 4.59-3.38-1.39-3.55-6.82-.15-8.27Z"/>
  <path stroke="#000" stroke-width=".094" d="M481.42 443.53c17.39-1.67 35.37 2.54 50.02 12.11 14.07 9.1 24.96 23.22 29.59 39.38 4.63 16.58 3.48 34.01 2.75 50.99-.54 15.44-6.28 30.66-16.35 42.4-11.41 13.54-27.87 22.52-45.31 25.34-18.05 3-37.14-.55-52.8-10.06-14.07-8.46-25.28-21.78-30.62-37.35-4.21-11.94-4.37-24.77-4.49-37.28.53-11.24.13-22.71 3.25-33.64 4.43-15.95 14.94-29.98 28.66-39.16 10.47-7.12 22.76-11.32 35.3-12.73Z"/>
  <path fill="#464b4b" stroke="#464b4b" stroke-width=".094" d="M280.39 446.22c1.88-1.33 4.75-.36 5.87 1.54 1.4 2.25 1.91 4.9 2.55 7.45 1.78 8.26 3.94 16.46 5.39 24.8.7 4.22 1.11 8.68-.25 12.83-1.92 5.99-5.4 11.31-8.36 16.81a428.14 428.14 0 0 0-27.03 59.69c-1.81 4.37-3.05 9.47-6.86 12.59-1.74 1.6-3.94-.17-4.77-1.85-1.66-3.28-2.51-6.89-3.45-10.42-2.61-10.75-4.36-21.92-2.81-32.97 2.09-15.22 7.65-29.65 12.99-43.96 4.7-12.1 9.74-24.21 17.15-34.94 2.88-4.07 5.4-8.66 9.58-11.57Z"/>
  <path fill="#ff002c" stroke="#ff002c" stroke-width=".094" d="M483.31 449.52c18.02-1.66 36.64 3.92 50.68 15.37 10.69 8.65 18.64 20.75 21.91 34.14 3.34 13.25 1.93 27.6-3.8 39.99-5.68 12.48-15.59 22.9-27.52 29.61-14.01 7.93-30.77 10.88-46.65 8.23-18.13-2.8-35.19-12.93-45.69-28.07-8.12-11.48-12.18-25.8-11.08-39.84.88-12.71 5.97-25.03 14.07-34.84 11.75-14.33 29.64-23.3 48.08-24.59Z"/>
  <path stroke="#000" stroke-width=".094" d="M849.18 465.68c5.77-1.15 11.52-2.36 17.29-3.52 4.43 28.48 2.84 57.76-3.93 85.75-5.74-1.41-11.49-2.73-17.2-4.23 6.25-25.45 7.52-52.07 3.84-78Z"/>
  <path stroke="#000" stroke-width=".094" d="M432.42 506.87c1.61-18.32 12.87-35.31 28.79-44.43 5.34 6.52 9.99 13.57 15.04 20.33 2.82 4.12 6.17 7.9 8.56 12.31-2.17 2.17-5.15 3.3-7.29 5.49-3.3 3.23-4.44 7.85-6.27 11.94-11.43-.86-22.79-2.33-34.22-3.17-1.64-.27-4.66-.12-4.61-2.47Z"/>
  <path stroke="#000" stroke-width=".094" d="M516.14 466.03c.9-1.01 2.14-3.32 3.74-2.02 15.39 9.22 25.99 26.15 27.48 44.04.39 1.86-1.95 2.38-3.32 2.37-12.03.53-24.05 1.52-36.08 1.85-1.85-1.23-1.59-4-2.49-5.87-1.6-5.15-6.77-7.59-10.98-10.27 6.99-10.19 14.49-20.02 21.65-30.1Z"/>
  <path fill="#464b4b" stroke="#464b4b" stroke-width=".094" d="M687.86 469.88c.94-1.83 2.79-4.17 5.14-3.27 3.46 1.53 5.12 5.23 7.02 8.28 9.17 16.69 16.11 34.58 21.19 52.92 1.32 5.04 3.28 10.25 1.82 15.49-1.91-.78-3.57-2.01-4.37-3.96-7.61-15.31-16.3-30.07-25.77-44.3-2.22-3.45-4.74-6.73-6.49-10.45-2.29-4.72-.71-10.25 1.46-14.71Z"/>
  <path stroke="#000" stroke-width=".094" d="M154.23 476.28c3.27-4.33 10.66-5.03 14.2-.68 2.93 3.27 2.28 7.93 1.89 11.94-1.11 8.63-1.46 17.33-1.37 26.02-5.82 1.36-11.62 2.8-17.44 4.15-.92-7.87-1.21-15.8-1.44-23.72.03-6.05.32-12.71 4.16-17.71Z"/>
  <path fill="#959898" stroke="#959898" stroke-width=".094" d="M323.81 610.2c-12.87-40.79-9-86.44 10.29-124.59-1.78 6.05-4.01 11.96-5.4 18.13-7.84 31.64-4.53 65.8 8.81 95.51-4.55 3.67-9.02 7.45-13.7 10.95Z"/>
  <path stroke="#000" stroke-width=".094" d="M580.23 491.39c9.59-.61 19.28-.31 28.89-.16 2.66-.21 3.49 2.65 3.34 4.8.03 27.33-.02 54.67.02 82.01-.05 3.27.3 6.6-.43 9.82-1.08 2.82-4.69 2.1-7.06 2.33-8.04-.26-16.1.32-24.11-.27-3.17 0-2.71-3.73-2.84-5.89.08-29.34.01-58.68.04-88.02.09-1.68.01-4.24 2.15-4.62Z"/>
  <path fill="#464b4b" stroke="#464b4b" stroke-width=".094" d="M679.42 497.51c1.88-1.48 4.2.1 5.81 1.23 5.47 4.29 9.21 10.3 12.92 16.08 8.24 13.84 16.12 28.01 21.87 43.1 4.28 11.45 3.16 24.09-.5 35.54-5.84 18.35-13.26 36.18-21.63 53.51-3.77 7.58-7.52 15.36-13.2 21.73-1.52 1.64-4.12 3.85-6.33 2.09-2.27-2.04-3.25-5.06-4.49-7.75-4.15-10.27-8.74-20.36-13.52-30.35-2.19-4.72-4.65-9.45-5.37-14.67-1.36-8.77.91-17.5 2.27-26.12 1.75-9.88 2.41-19.9 2.7-29.91.27-9.54.1-19.24 2.64-28.52 1.79-7.21 5.29-13.8 8.21-20.58 2.53-5.26 4.29-11.26 8.62-15.38Z"/>
  <path stroke="#000" stroke-width=".094" d="M485.44 500.68c6.81-2.6 15.23 1.94 16.34 9.24 1.7 7.19-4.26 14.94-11.72 14.79-6.95.56-13.31-5.76-12.8-12.71.01-5 3.4-9.78 8.18-11.32Z"/>
  <path fill="#464b4b" stroke="#464b4b" stroke-width=".094" d="M295.37 509.53c3.31-1.66 6.86.71 8.64 3.48 3.77 5.59 5.39 12.34 6.07 18.97 1.25 13.64-.51 27.35.63 41 .84 12.74 3.4 25.31 6.78 37.61 1.88 7.65 4.65 15.35 3.97 23.36-.28 3.67-1.26 7.28-2.89 10.6-4.81 9.7-9.03 19.67-13.42 29.56-1.77 3.45-3.88 7.8-8.17 8.41-3.8-.75-6.21-4.13-8.51-6.94-6.36-8.63-11.51-18.08-16.47-27.56-4.65-9.08-8.98-18.37-12.02-28.12-2.24-7.1-4.2-14.5-3.6-22.01.38-5.91 2.56-11.48 4.44-17.03 7.3-21.38 16.16-42.24 26.73-62.21 1.97-3.47 4.1-7.28 7.82-9.12Z"/>
  <path stroke="#000" stroke-width=".094" d="M152.5 525.54c5.74-1.6 11.56-2.9 17.36-4.27 2.83 19.79 8.49 39.11 16.25 57.51-5.42 2.29-10.86 4.55-16.29 6.81-8.25-19.2-13.96-39.44-17.32-60.05Z"/>
  <path stroke="#000" stroke-width=".094" d="M475.88 528.9c.66-1.18 1.18-3.33 3.01-2.82 3.33 1.05 6.44 3.1 10.07 2.96 4.35.4 8.09-2.08 12.01-3.5 1.04 1.21 1.71 2.68 2.36 4.13 4.75 10.94 9.73 21.77 14.5 32.71-10.98 7.09-24.89 8.95-37.66 6.95-6.67-1.29-13.48-3.05-19.15-6.94 4.88-11.2 9.94-22.31 14.86-33.49Z"/>
  <path stroke="#000" stroke-width=".094" d="M346.27 530.33c7.56-1.6 14.9 6.48 12.18 13.84-2.07 7.44-12.64 9.95-17.76 4.12-5.87-5.61-2.33-16.56 5.58-17.96Z"/>
  <path stroke="#000" stroke-width=".094" d="M627.23 531.29c6.42-2.55 14.25 2.85 14.21 9.75.52 6.85-6.85 12.76-13.4 10.63-5.02-1.29-8.55-6.59-7.7-11.72.47-3.87 3.3-7.25 6.89-8.66Z"/>
  <path fill="#959898" stroke="#959898" stroke-width=".094" d="M346.52 536.68c2.94-1.35 6.74.97 6.46 4.31.16 3.4-4.04 5.76-6.9 3.98-3.34-1.59-3.16-7.15.44-8.29Z"/>
  <path fill="#959898" stroke="#959898" stroke-width=".094" d="M628.34 537.49c2.47-1.49 6.18-.44 6.96 2.49 1.32 3.52-2.67 7.32-6.1 5.76-3.53-1.07-4.13-6.5-.86-8.25Z"/>
  <path fill="#959898" stroke="#959898" stroke-width=".094" d="M420.96 541.38c3.41 6.76 7.55 13.16 12.71 18.72-1.93 4.11-3.92 8.2-5.91 12.28-4.94-9.52-7.13-20.3-6.8-31Z"/>
  <path fill="#959898" stroke="#959898" stroke-width=".094" d="M547.33 557.67a86.031 86.031 0 0 0 10.41-16.32c.25 9.71-1.48 19.45-5.41 28.35-1.67-4.01-3.32-8.02-5-12.03Z"/>
  <path fill="#959898" stroke="#959898" stroke-width=".094" d="M653.5 546.51c2.35 32.42-5.22 65.46-21.27 93.72-2.52-3.56-5.03-7.12-7.53-10.68 11.16-15.46 19.47-32.99 24.09-51.5 2.79-10.31 3.6-20.97 4.71-31.54Z"/>
  <path stroke="#000" stroke-width=".094" d="M805.63 628.1c17.52-22.82 30.08-49.24 37.84-76.89 5.73 1.4 11.48 2.72 17.19 4.23-8.48 30.14-22.02 59.13-41.44 83.8-4.52-3.73-9.09-7.4-13.59-11.14Z"/>
  <path fill="#959898" stroke="#959898" stroke-width=".094" d="M527.56 573.88a84.207 84.207 0 0 0 15.29-11.46c1.91 4.67 3.77 9.36 5.89 13.95-4.24 7.08-9.97 13.16-16.43 18.27-1.65-6.91-3.13-13.85-4.75-20.76Z"/>
  <path fill="#959898" stroke="#959898" stroke-width=".094" d="M438.22 564.54c5.2 4.56 10.99 8.4 17.17 11.51-1.49 7.24-3.01 14.48-4.31 21.76a70.08 70.08 0 0 1-19.66-19.09c2.24-4.74 4.47-9.48 6.8-14.18Z"/>
  <path fill="#464b4b" stroke="#464b4b" stroke-width=".094" d="M233.39 575.27c.16-2.35.31-4.8 1.57-6.85 2.52.55 2.47 3.52 3.19 5.49 1.75 8.13 4.26 16.07 6.05 24.18 1.89 8.32-.34 16.78-2.14 24.9-.56 2.74-1.69 5.31-2.92 7.81-1.74-.97-3.23-2.43-3.36-4.51-2.74-16.85-3.07-34-2.39-51.02Z"/>
  <path fill="#959898" stroke="#959898" stroke-width=".094" d="M493.92 583.76c9.73-.74 19.33-3.05 28.22-7.1 1.34 7.25 3.78 14.36 4.54 21.69-9.85 6.26-21.41 9.5-32.99 10.39.28-8.32.2-16.65.23-24.98Z"/>
  <path fill="#959898" stroke="#959898" stroke-width=".094" d="M461.01 578.51c8.58 3.22 17.65 5.08 26.82 5.3-.07 8.35.17 16.71-.17 25.06-10.81-.46-21.5-3.07-31.17-7.95 1.6-7.45 2.89-14.97 4.52-22.41Z"/>
  <path stroke="#000" stroke-width=".094" d="M173 592.52c5.42-2.18 10.8-4.45 16.18-6.7 7.71 16.01 16.87 31.34 27.73 45.42-4.32 4.03-8.71 7.98-13.08 11.95-12.13-15.66-22.7-32.6-30.83-50.67Z"/>
  <path fill="#464b4b" stroke="#464b4b" stroke-width=".094" d="M726.23 595.23c3.12-2.21 3.99 2.49 3.71 4.7-.54 39.65-11.21 79.06-30.12 113.87-1.23 2.62-4.25 5.11-7.22 3.57-3.37-4.77-3.9-10.89-5.74-16.31-2.31-6.7-2.83-14.24.57-20.67 6.06-11.9 12.78-23.49 18.35-35.65 6.87-14.52 12.89-29.44 18.24-44.59.63-1.68 1.21-3.41 2.21-4.92Z"/>
  <path fill="#959898" stroke="#959898" stroke-width=".094" d="M325.78 616.24c4.91-3.61 9.55-7.57 14.32-11.36 13.74 27.62 35.76 50.83 62.18 66.67-4.87 8.54-9.68 17.1-14.53 25.65-28.47-19.62-50.43-48.38-61.97-80.96Z"/>
  <path fill="#464b4b" stroke="#464b4b" stroke-width=".094" d="M250.35 623.29c1.01-1.23 2.7.13 3.31 1.12 2.76 4.15 4.38 8.91 6.58 13.36 7.25 15.61 15.76 30.59 24.83 45.21 3.58 5.78 7.11 11.97 7.57 18.92.58 6.14-2.32 11.79-4.11 17.49-1.66 4.37-2.58 9.11-5.1 13.11-1.33 2.04-4.37 1.47-5.87-.07-2.06-2.04-3.46-4.6-5.02-7.01-11.11-17.59-20.29-36.49-26.48-56.39-3.41-11.23-4.02-23.42-.79-34.76 1.13-3.83 1.72-8.38 5.08-10.98Z"/>
  <path stroke="#000" stroke-width=".094" d="M395.31 628.32c7.34-1.51 14.58 6.1 12.28 13.38-1.75 7.73-12.66 10.59-17.91 4.58-5.86-5.62-2.3-16.58 5.63-17.96Z"/>
  <path stroke="#000" stroke-width=".094" d="M577.36 628.42c6.41-1.6 13.4 3.91 13.09 10.59.19 6.69-7.05 12.25-13.45 10.14-5.92-1.46-9.43-8.52-7.03-14.12 1.26-3.19 4.08-5.7 7.39-6.61Z"/>
  <path fill="#464b4b" stroke="#464b4b" stroke-width=".094" d="M645.37 630.23c1.7-1.47 4.28-.93 5.75.59 2.62 2.57 4.16 5.97 5.83 9.19 5.17 10.81 10.02 21.8 14.01 33.11 1.99 5.32 3 11.36.78 16.78-2.9 7.17-8.01 13.13-12.47 19.36-14.07 19.04-30.83 35.94-49 51.08-6.58 5.29-13.19 11.4-21.72 13.18-7.11.94-13.89-2.25-20.44-4.55-19.25-8.04-37.65-17.99-55.69-28.42-2.64-1.39-5.73-4.12-4.35-7.43 1.61-2.15 4.57-2.28 6.97-2.93 29.99-5.4 58.51-18.75 81.87-38.32 18.53-15.42 33.81-34.72 44.57-56.3 1.06-1.92 2.08-4.01 3.89-5.34Z"/>
  <path fill="#959898" stroke="#959898" stroke-width=".094" d="M395.45 634.7c2.96-1.41 6.82.93 6.53 4.3.15 3.39-4.03 5.73-6.9 3.98-3.31-1.58-3.17-7.08.37-8.28Z"/>
  <path fill="#959898" stroke="#959898" stroke-width=".094" d="M578.38 634.56c3.31-1.31 7.01 2.04 6.01 5.47-.69 3.37-5.33 4.7-7.74 2.27-2.56-2.17-1.65-6.99 1.73-7.74Z"/>
  <path stroke="#000" stroke-width=".094" d="M800.7 634.14c4.71 3.55 9.17 7.41 13.8 11.06-19.43 23.62-43.58 43-69.53 58.99-2.57-5.35-5.01-10.76-7.48-16.15 23.53-14.75 45.47-32.43 63.21-53.9Z"/>
  <path fill="#959898" stroke="#959898" stroke-width=".094" d="M571.27 675.89c19.09-10.29 36.16-24.35 49.65-41.34 2.65 3.79 5.29 7.6 8.05 11.33-12.33 19.94-28.78 37.29-48.02 50.69-3.24-6.89-6.47-13.78-9.68-20.68Z"/>
  <path fill="#464b4b" stroke="#464b4b" stroke-width=".094" d="M326.25 645.34c4.07-1.82 7.24 2.19 9.07 5.27 15.56 24.55 36.86 45.59 62.29 59.82 18.86 10.68 39.76 17.82 61.23 20.81 2.29.47 4.87.52 6.79 2.02 1.2 1.45.37 3.39-.95 4.44-2.46 1.98-5.38 3.29-8.13 4.82-17.47 9.38-35.65 17.46-54.47 23.75-6.64 2.17-13.62 4.39-20.69 3.27-6.77-1.08-12.44-5.24-17.84-9.18-13-9.41-24.47-20.74-35.47-32.38-6.79-7.4-13.9-14.92-17.87-24.3-2.79-6.87-2.57-14.68-.24-21.64 3.1-9.59 6.84-18.97 11.04-28.12 1.54-2.95 2.59-6.44 5.24-8.58Z"/>
  <path stroke="#000" stroke-width=".094" d="M490.28 661.44c6.44-1.66 13.49 3.87 13.17 10.58.18 6.71-7.08 12.25-13.47 10.12-5.9-1.47-9.41-8.51-7.01-14.1 1.24-3.18 4.04-5.67 7.31-6.6Z"/>
  <path fill="#959898" stroke="#959898" stroke-width=".094" d="M491.43 667.55c3.31-1.27 6.95 2.08 5.96 5.49-.7 3.35-5.31 4.69-7.72 2.27-2.6-2.17-1.66-7.05 1.76-7.76Z"/>
  <path fill="#959898" stroke="#959898" stroke-width=".094" d="M407.39 674.47c24.69 13.52 52.66 20.96 80.81 21.35-.46 10.42-1.18 20.83-1.51 31.26-33.02.48-66.12-8.68-93.94-26.51 4.73-8.78 9.81-17.37 14.64-26.1Z"/>
  <path fill="#959898" stroke="#959898" stroke-width=".094" d="M494.52 695.8c24.68-.47 49.24-6.37 71.43-17.19 3.32 7.1 6.64 14.21 9.97 21.31-24.69 15.88-53.49 25.17-82.79 26.9.4-10.35.94-20.68 1.39-31.02Z"/>
  <path fill="#464b4b" stroke="#464b4b" stroke-width=".094" d="M674.14 703.27c3.95-1.74 7.77 1.65 8.29 5.5 1.84 8.54 6.41 17.61 2.61 26.26-5.07 11.46-13.91 20.63-22.22 29.8-6.83 7.18-14.03 14.04-21.67 20.37-3.1 2.62-6.95 4.46-11.05 4.68-6.26.41-12.16-2.12-17.97-4.08-3.5-1.34-7.19-2.43-10.24-4.66-1.64-1.05-2.21-3.51-.8-4.97 3.48-4.22 8.34-6.95 12.42-10.53 19.21-16.07 37.07-33.9 52.21-53.88 2.48-3.09 4.44-7.12 8.42-8.49Z"/>
  <path fill="#464b4b" stroke="#464b4b" stroke-width=".094" d="M300.41 708.45c3.26-.33 5.26 2.87 7.16 5.01 16 19.85 34.23 37.89 54.17 53.78 2.5 2.22 6.78 5.88 3.9 9.38-4.4 2.61-9.73 2.91-14.6 4.23-6.99 1.27-13.96 3.58-21.14 3.02-7.48-.86-13.29-6.23-18.54-11.16-6.8-6.57-13.37-13.4-19.34-20.73-2.89-3.49-5.02-8.09-3.68-12.68 2.33-8.63 5.64-16.95 8.44-25.43.89-1.92 1.32-4.74 3.63-5.42Z"/>
  <path fill="#464b4b" stroke="#464b4b" stroke-width=".094" d="M482.43 737.45c7.14-1.45 14.5.75 20.6 4.47 21.25 12.68 43.11 24.5 66.01 33.96 2.83 1.4 6.77 3.23 6.7 6.94-.57 3.83-4.47 5.67-7.36 7.62-17.2 10.5-35.29 19.54-53.98 27.07-5.59 2.21-11.35 4.25-17.39 4.7-8.07.63-16.05-1.27-23.73-3.53-25.1-7.08-48.55-18.93-71.13-31.77-3.29-1.97-8.42-4.83-6.58-9.48 2.48-3.19 6.77-4.06 10.3-5.64 20.86-7.45 40.98-16.83 60.45-27.38 5.15-2.77 10.34-5.71 16.11-6.96Z"/>
  <path fill="#464b4b" stroke="#464b4b" stroke-width=".094" d="M367.43 783.6c5.13-.76 10.48-.91 15.49.62 6.25 1.78 11.75 5.34 17.34 8.52 21.55 12.46 44.25 22.9 67.63 31.43 2.05 1.02 5.63 1.88 5.11 4.84-1.07 1.75-3.25 2.14-5.06 2.71-16.13 3.86-33.2 5.7-49.49 1.66-26.49-7.24-51.72-18.94-74.47-34.3-2.45-1.92-6.48-3.4-6.39-7.07.78-2.84 4.16-2.85 6.49-3.48 7.84-1.36 15.52-3.5 23.35-4.93Z"/>
  <path fill="#464b4b" stroke="#464b4b" stroke-width=".094" d="M587.22 786.36c2.72-1.1 5.79-1.32 8.54-.15 6.4 2.36 12.81 4.69 19.26 6.9 2.2.88 4.88 1.64 6 3.96.31 3.26-3.07 5.01-5.29 6.69-22.03 13.98-46.26 24.65-71.62 30.86-10.4 2.73-21.1.27-31.24-2.34-1.69-.45-3.52-1.36-3.64-3.34.28-2.92 3.39-4.06 5.66-5.16 23.86-8.96 46.39-21.21 67.74-35.08 1.46-.9 2.96-1.75 4.59-2.34Z"/>
  <path fill="#464b4b" stroke="#464b4b" stroke-width=".094" d="M488.06 833.1c1.94-.63 4.04-.94 6.01-.22 7.98 2.41 15.99 4.76 24.07 6.84-20.24 2.81-40.93 3.5-61.2.71 10.47-2 20.9-4.28 31.12-7.33Z"/>
</svg>
