<svg
  width="100%"
  height="100%"
  viewBox="0 0 1000 1000"
  version="1.1"
  xmlns="http://www.w3.org/2000/svg"
>
  <path
    fill="#464b4b"
    stroke="#464b4b"
    stroke-width="0.09375"
    opacity="1.00"
    d=" M 0.00 0.00 L 1000.00 0.00 L 1000.00 1000.00 L 0.00 1000.00 L 0.00 0.00 Z"
  />
  <path
    fill="#000000"
    stroke="#000000"
    stroke-width="0.09375"
    opacity="1.00"
    d=" M 572.35 167.42 C 619.96 148.80 672.34 142.85 722.97 149.70 C 726.34 149.47 729.52 153.93 726.52 156.47 C 722.46 158.66 717.71 159.01 713.38 160.47 C 685.26 168.65 656.94 177.19 631.05 191.15 C 628.12 192.76 624.79 193.92 622.45 196.37 C 621.12 197.81 622.12 200.15 624.00 200.39 C 626.39 200.44 628.74 199.84 631.08 199.36 C 656.93 193.50 683.60 191.68 710.04 192.89 C 745.06 194.81 780.28 203.27 810.66 221.25 C 822.91 228.57 834.44 237.33 844.11 247.86 C 846.42 249.79 845.26 254.20 842.03 253.99 C 838.67 253.47 835.84 251.40 832.73 250.17 C 815.38 242.92 796.72 239.31 778.04 237.72 C 757.39 235.83 736.51 236.83 716.06 240.13 C 713.98 240.50 711.40 241.47 711.30 243.96 C 711.65 245.62 713.13 246.73 714.74 247.05 C 741.59 251.85 767.47 261.24 792.07 272.91 C 823.79 288.16 853.43 307.83 879.61 331.39 C 900.70 350.55 919.85 372.26 934.01 397.09 C 936.38 400.12 932.69 405.51 929.19 402.81 C 923.61 398.41 918.60 393.34 913.06 388.89 C 863.32 346.96 804.28 314.59 740.07 301.98 C 693.75 292.81 645.03 294.46 599.90 308.72 C 596.00 309.91 591.49 311.88 590.48 316.28 C 588.84 323.73 589.54 331.45 589.69 339.01 C 589.97 343.99 590.29 350.07 594.93 353.10 C 599.70 356.11 604.92 358.30 609.79 361.16 C 612.73 362.61 616.46 365.00 619.61 362.68 C 625.84 358.31 628.93 350.31 636.07 347.07 C 641.56 345.88 645.50 350.96 650.12 352.96 C 651.80 353.99 653.83 353.43 655.42 352.52 C 659.74 349.92 662.44 345.42 666.57 342.59 C 668.53 341.27 671.07 341.92 672.93 343.12 C 679.17 347.08 684.21 352.75 690.77 356.26 C 694.57 358.22 698.71 356.10 702.08 354.22 C 710.62 349.31 719.89 345.76 729.42 343.30 C 730.85 349.01 732.15 354.75 733.55 360.47 C 723.87 363.03 714.55 366.95 706.12 372.36 C 711.34 377.67 716.44 383.10 721.23 388.81 C 722.71 390.66 724.64 393.05 723.41 395.55 C 719.86 400.90 713.58 404.07 710.73 409.93 C 710.88 414.16 714.49 417.11 716.71 420.41 C 718.97 423.28 721.35 427.51 718.85 430.98 C 714.82 436.16 708.60 439.75 706.13 446.09 C 704.58 450.02 706.77 453.99 708.61 457.39 C 714.77 468.24 720.50 479.36 725.24 490.92 C 741.70 530.54 748.26 574.22 744.20 616.93 C 742.38 637.14 738.83 657.25 732.55 676.57 C 730.66 682.73 728.22 688.69 726.13 694.78 C 727.69 693.86 729.29 692.96 730.88 692.06 C 733.37 697.40 735.82 702.76 738.28 708.12 C 730.87 712.61 723.17 716.60 715.41 720.46 C 713.57 721.24 712.37 722.86 711.46 724.57 C 682.43 776.24 635.17 817.31 580.10 839.17 C 549.63 851.29 516.80 857.70 483.98 857.25 C 444.49 856.83 404.86 848.87 369.04 831.99 C 315.81 807.34 271.35 764.39 244.91 712.03 C 238.55 699.51 233.17 686.49 228.92 673.11 C 228.04 670.01 225.53 667.87 223.37 665.66 C 218.20 660.40 213.29 654.89 208.65 649.17 C 212.30 645.38 217.05 642.49 220.03 638.15 C 218.36 625.82 216.56 613.45 216.38 600.98 C 214.75 557.21 224.56 513.18 243.86 473.91 C 270.35 419.84 314.82 373.96 369.94 349.04 C 372.81 347.67 375.73 345.49 376.23 342.12 C 377.16 336.80 376.77 331.35 376.83 325.97 C 376.74 322.09 376.52 317.38 373.02 314.92 C 367.49 311.11 360.68 310.00 354.26 308.58 C 312.20 300.22 268.37 305.02 227.64 317.52 C 174.92 333.94 125.93 363.79 89.27 405.30 C 86.90 408.74 81.25 405.77 81.80 402.02 C 82.38 400.32 83.33 398.80 84.24 397.28 C 101.61 368.36 123.06 341.72 148.59 319.60 C 175.44 296.36 205.35 275.59 239.38 264.47 C 242.16 263.42 245.28 262.65 247.40 260.43 C 249.04 258.70 247.81 256.04 245.81 255.31 C 242.68 254.07 239.27 253.99 235.97 253.63 C 200.30 250.34 163.90 250.79 128.91 259.06 C 126.63 259.87 123.29 258.88 123.26 256.05 C 122.97 253.47 125.74 252.40 127.60 251.47 C 178.71 228.69 234.29 216.78 290.04 213.70 C 314.75 212.46 339.55 214.09 363.97 217.91 C 366.69 218.28 371.42 218.87 371.81 215.05 C 371.26 211.48 367.65 209.80 365.05 207.85 C 348.67 196.73 330.65 188.01 311.74 182.13 C 288.15 174.39 263.69 169.69 239.12 166.39 C 236.92 165.93 233.33 165.91 233.05 162.97 C 232.48 160.49 234.90 159.00 237.04 158.85 C 280.76 151.52 326.12 155.99 368.12 169.89 C 399.33 180.41 429.27 195.34 455.23 215.74 C 460.20 219.48 464.67 224.67 471.09 225.78 C 476.20 226.58 480.21 222.75 483.89 219.85 C 510.41 197.91 540.21 179.83 572.35 167.42 Z"
  />
  <path
    fill="#959898"
    stroke="#959898"
    stroke-width="0.09375"
    opacity="1.00"
    d=" M 668.05 157.99 C 676.10 157.42 684.17 157.82 692.23 157.58 C 656.14 165.40 620.84 179.59 591.99 203.05 C 578.52 213.96 566.38 226.83 557.80 241.98 C 553.44 249.51 550.72 258.16 544.49 264.47 C 539.74 268.95 533.30 270.80 527.53 273.53 C 521.86 275.87 516.39 279.59 510.05 279.51 C 503.84 278.75 499.97 273.21 496.51 268.59 C 490.39 259.72 484.00 251.01 476.68 243.09 C 486.03 232.26 497.16 223.15 508.55 214.57 C 535.06 195.08 564.72 179.65 596.41 170.62 C 619.71 163.70 643.78 159.28 668.05 157.99 Z"
  />
  <path
    fill="#959898"
    stroke="#959898"
    stroke-width="0.09375"
    opacity="1.00"
    d=" M 286.79 166.24 C 350.72 167.67 413.54 193.23 460.98 235.97 C 470.96 245.08 479.96 255.25 487.63 266.39 C 494.04 275.73 500.21 285.35 504.55 295.86 C 492.93 294.95 481.26 294.48 469.62 295.37 C 455.84 282.54 439.71 272.27 422.38 264.94 C 416.32 249.23 407.08 234.77 395.42 222.64 C 374.11 200.55 346.66 185.21 317.96 174.90 C 307.79 171.30 297.41 168.23 286.79 166.24 Z"
  />
  <path
    fill="#959898"
    stroke="#959898"
    stroke-width="0.09375"
    opacity="1.00"
    d=" M 590.62 221.55 C 631.27 207.26 674.98 200.92 717.98 204.92 C 737.69 206.70 757.29 210.47 776.00 217.00 C 787.48 220.99 798.51 226.17 809.22 231.92 C 765.69 221.20 718.67 223.06 676.93 239.93 C 671.09 242.04 665.84 245.61 659.96 247.51 C 631.12 247.90 602.21 251.05 574.22 258.18 C 570.14 259.11 565.31 259.83 561.68 257.26 C 559.45 254.94 560.89 251.57 562.02 249.08 C 568.31 237.25 577.46 225.91 590.62 221.55 Z"
  />
  <path
    fill="#959898"
    stroke="#959898"
    stroke-width="0.09375"
    opacity="1.00"
    d=" M 186.58 242.37 C 226.76 232.77 267.62 224.73 309.04 223.71 C 333.03 223.48 357.36 225.34 380.31 232.74 C 391.50 236.44 403.50 241.75 409.53 252.49 C 410.44 254.20 411.96 257.72 408.93 258.15 C 402.51 258.58 396.20 256.67 389.89 255.75 C 372.47 252.26 354.67 251.41 336.95 251.37 C 324.94 251.64 312.91 252.16 301.01 253.92 C 296.54 254.85 292.27 252.91 287.98 251.99 C 254.86 243.99 220.60 241.06 186.58 242.37 Z"
  />
  <path
    fill="#959898"
    stroke="#959898"
    stroke-width="0.09375"
    opacity="1.00"
    d=" M 624.91 255.48 C 674.55 250.07 725.61 256.35 772.00 275.05 C 821.65 295.22 864.36 329.40 900.91 368.09 C 875.59 348.52 848.47 331.21 819.57 317.42 C 784.08 300.22 745.39 289.35 705.98 286.84 C 680.92 285.35 655.69 286.40 630.88 290.28 C 613.90 292.99 596.82 296.62 581.25 304.16 C 577.09 306.12 572.70 307.95 568.03 307.92 C 561.22 307.89 554.77 305.48 548.27 303.75 C 536.16 300.34 523.73 298.22 511.27 296.52 C 510.23 294.05 509.19 291.58 508.15 289.12 C 544.63 271.01 584.31 259.24 624.91 255.48 Z"
  />
  <path
    fill="#959898"
    stroke="#959898"
    stroke-width="0.09375"
    opacity="1.00"
    d=" M 319.98 258.03 C 346.39 256.57 373.16 257.55 398.95 263.80 C 421.94 269.10 443.32 280.55 461.19 295.86 C 444.43 297.45 427.79 300.58 411.79 305.83 C 406.98 307.33 402.17 309.29 397.06 309.24 C 390.92 308.85 385.28 306.15 379.46 304.39 C 346.31 293.29 310.63 291.51 276.09 295.60 C 239.71 300.04 204.44 311.94 171.97 328.79 C 157.16 336.42 143.19 345.57 129.73 355.37 C 150.62 332.86 173.78 312.22 199.86 295.87 C 235.94 273.52 277.67 260.68 319.98 258.03 Z"
  />
  <path
    fill="#464b4b"
    stroke="#464b4b"
    stroke-width="0.09375"
    opacity="1.00"
    d=" M 449.95 303.23 C 473.52 299.93 497.54 300.34 521.05 303.85 C 520.21 303.74 518.51 303.51 517.66 303.39 C 517.61 315.21 517.66 327.03 517.63 338.85 C 474.59 331.94 429.90 337.07 389.18 352.45 C 389.20 342.33 389.18 332.22 389.18 322.10 C 407.97 311.93 428.89 306.22 449.95 303.23 Z"
  />
  <path
    fill="#959898"
    stroke="#959898"
    stroke-width="0.09375"
    opacity="1.00"
    d=" M 517.66 303.39 C 518.51 303.51 520.21 303.74 521.05 303.85 C 523.08 304.13 525.10 304.51 527.12 304.91 C 527.18 316.77 527.17 328.62 527.12 340.48 C 526.60 340.40 525.54 340.23 525.01 340.14 C 522.54 339.75 520.08 339.31 517.63 338.85 C 517.66 327.03 517.61 315.21 517.66 303.39 Z"
  />
  <path
    fill="#464b4b"
    stroke="#464b4b"
    stroke-width="0.09375"
    opacity="1.00"
    d=" M 527.12 304.91 C 530.08 305.61 533.05 306.24 536.04 306.82 C 535.99 318.66 536.07 330.50 535.99 342.34 C 532.35 341.49 528.69 340.75 525.01 340.14 C 525.54 340.23 526.60 340.40 527.12 340.48 C 527.17 328.62 527.18 316.77 527.12 304.91 Z"
  />
  <path
    fill="#959898"
    stroke="#959898"
    stroke-width="0.09375"
    opacity="1.00"
    d=" M 536.04 306.82 C 542.94 308.39 549.74 310.39 556.41 312.77 C 556.41 324.50 556.45 336.23 556.39 347.95 C 555.77 347.77 554.55 347.41 553.93 347.23 C 548.01 345.41 541.99 343.89 535.99 342.34 C 536.07 330.50 535.99 318.66 536.04 306.82 Z"
  />
  <path
    fill="#464b4b"
    stroke="#464b4b"
    stroke-width="0.09375"
    opacity="1.00"
    d=" M 556.41 312.77 C 563.26 315.41 570.05 318.24 576.56 321.65 C 576.63 332.83 576.60 344.00 576.58 355.18 C 569.11 352.32 561.65 349.39 553.93 347.23 C 554.55 347.41 555.77 347.77 556.39 347.95 C 556.45 336.23 556.41 324.50 556.41 312.77 Z"
  />
  <path
    fill="#000000"
    stroke="#000000"
    stroke-width="0.09375"
    opacity="1.00"
    d=" M 737.06 341.87 C 764.74 337.78 793.42 347.07 815.02 364.46 C 811.45 369.13 807.98 373.86 804.40 378.51 C 786.77 364.42 763.75 356.38 741.11 359.06 C 739.74 353.33 738.38 347.61 737.06 341.87 Z"
  />
  <path
    fill="#464b4b"
    stroke="#464b4b"
    stroke-width="0.09375"
    opacity="1.00"
    d=" M 458.39 343.08 C 471.38 341.27 484.60 341.81 497.65 342.60 C 491.03 344.60 484.46 346.86 477.78 348.56 C 471.21 347.32 464.62 345.57 458.39 343.08 Z"
  />
  <path
    fill="#464b4b"
    stroke="#464b4b"
    stroke-width="0.09375"
    opacity="1.00"
    d=" M 513.35 345.50 C 518.58 344.65 523.82 345.85 528.94 346.91 C 557.30 352.71 584.62 363.51 609.30 378.63 C 612.17 380.44 615.23 382.05 617.66 384.45 C 619.01 385.78 619.92 388.00 618.71 389.73 C 616.81 392.77 613.07 393.73 609.88 394.78 C 605.67 395.93 601.45 397.45 597.04 397.52 C 591.39 397.03 586.23 394.39 581.37 391.65 C 557.04 377.69 531.27 366.26 504.69 357.30 C 502.47 356.38 499.75 355.76 498.42 353.58 C 497.28 351.91 499.20 350.40 500.40 349.51 C 504.29 347.11 508.91 346.30 513.35 345.50 Z"
  />
  <path
    fill="#464b4b"
    stroke="#464b4b"
    stroke-width="0.09375"
    opacity="1.00"
    d=" M 425.26 348.31 C 433.15 347.04 441.24 347.09 449.13 348.30 C 451.91 348.78 454.92 349.92 456.40 352.49 C 457.59 354.60 455.54 356.75 453.92 357.90 C 449.50 360.81 444.41 362.43 439.67 364.71 C 425.96 371.20 412.82 378.84 399.98 386.90 C 395.65 389.68 391.25 392.66 386.13 393.73 C 380.23 394.99 374.25 393.27 368.59 391.67 C 363.83 390.15 358.87 388.90 354.56 386.28 C 352.83 385.22 350.74 383.23 351.81 381.01 C 354.18 375.12 360.43 372.44 365.67 369.65 C 384.50 360.10 404.40 352.03 425.26 348.31 Z"
  />
  <path
    fill="#464b4b"
    stroke="#464b4b"
    stroke-width="0.09375"
    opacity="1.00"
    d=" M 669.32 354.23 C 677.76 360.24 685.49 367.16 693.16 374.10 C 688.87 378.15 684.79 382.41 680.71 386.67 C 673.48 379.54 665.67 373.03 657.72 366.73 C 661.52 362.50 665.44 358.38 669.32 354.23 Z"
  />
  <path
    fill="#464b4b"
    stroke="#464b4b"
    stroke-width="0.09375"
    opacity="1.00"
    d=" M 474.36 358.53 C 486.58 356.67 498.27 361.68 509.59 365.51 C 529.36 372.54 548.65 380.96 567.17 390.84 C 570.73 392.85 574.56 394.58 577.52 397.46 C 579.04 398.93 580.30 401.78 578.22 403.36 C 575.10 405.82 570.70 404.80 567.22 403.73 C 555.99 399.60 545.04 394.61 533.44 391.53 C 495.17 380.73 453.20 383.70 416.86 399.86 C 413.40 401.34 409.85 403.29 405.95 402.90 C 402.99 402.63 399.83 401.33 398.25 398.69 C 398.02 395.61 401.13 393.82 403.24 392.17 C 415.61 383.90 428.68 376.70 442.04 370.17 C 452.39 365.27 462.93 360.25 474.36 358.53 Z"
  />
  <path
    fill="#959898"
    stroke="#959898"
    stroke-width="0.09375"
    opacity="1.00"
    d=" M 620.95 378.96 C 626.60 372.56 632.35 366.26 638.02 359.88 C 658.11 373.35 676.35 389.49 692.81 407.18 C 697.90 413.38 702.77 419.80 707.24 426.47 C 701.04 432.62 694.85 438.78 688.65 444.94 C 684.08 438.41 679.15 432.16 673.72 426.34 C 658.71 407.94 640.63 392.19 620.95 378.96 Z"
  />
  <path
    fill="#000000"
    stroke="#000000"
    stroke-width="0.09375"
    opacity="1.00"
    d=" M 810.21 383.61 C 813.73 378.85 817.30 374.12 820.88 369.40 C 845.07 391.49 859.00 422.84 865.07 454.59 C 859.38 455.58 853.80 457.15 848.08 457.91 C 845.83 450.42 844.54 442.61 841.77 435.24 C 835.25 416.00 825.11 397.64 810.21 383.61 Z"
  />
  <path
    fill="#959898"
    stroke="#959898"
    stroke-width="0.09375"
    opacity="1.00"
    d=" M 680.71 386.67 C 684.79 382.41 688.87 378.15 693.16 374.10 C 696.69 377.49 700.20 380.91 703.54 384.50 C 699.47 388.77 695.34 392.98 691.19 397.17 C 687.72 393.64 684.24 390.13 680.71 386.67 Z"
  />
  <path
    fill="#464b4b"
    stroke="#464b4b"
    stroke-width="0.09375"
    opacity="1.00"
    d=" M 703.54 384.50 C 706.28 387.51 709.01 390.53 711.64 393.64 C 707.45 397.68 703.34 401.80 699.17 405.87 C 696.57 402.91 693.94 399.98 691.19 397.17 C 695.34 392.98 699.47 388.77 703.54 384.50 Z"
  />
  <path
    fill="#464b4b"
    stroke="#464b4b"
    stroke-width="0.09375"
    opacity="1.00"
    d=" M 336.19 391.21 C 344.46 389.61 352.39 393.42 360.12 395.79 C 364.06 397.30 369.33 398.57 370.74 403.12 C 370.72 407.69 366.55 410.69 363.63 413.67 C 346.52 428.86 330.04 444.88 316.00 462.99 C 312.69 466.97 309.73 471.68 304.91 473.97 C 302.39 475.24 299.74 473.26 298.93 470.89 C 297.08 466.08 296.38 460.93 295.16 455.95 C 293.70 448.41 291.44 440.68 292.97 432.98 C 294.21 426.60 298.27 421.24 302.70 416.68 C 309.44 409.73 316.50 403.06 324.24 397.23 C 327.82 394.54 331.76 392.15 336.19 391.21 Z"
  />
  <path
    fill="#464b4b"
    stroke="#464b4b"
    stroke-width="0.09375"
    opacity="1.00"
    d=" M 470.19 392.30 C 504.97 388.88 540.72 396.50 570.96 414.04 C 601.23 431.41 625.58 459.21 637.88 491.94 C 650.48 524.79 650.27 562.36 637.02 594.97 C 625.25 624.53 603.30 649.67 576.18 666.15 C 543.84 685.99 504.44 693.60 466.97 688.12 C 434.47 683.51 403.36 669.10 379.17 646.85 C 353.89 623.80 336.46 592.00 331.86 558.00 C 326.96 523.86 335.32 488.14 354.60 459.58 C 371.77 433.92 397.10 413.92 425.87 402.79 C 440.07 397.26 455.04 393.80 470.19 392.30 Z"
  />
  <path
    fill="#464b4b"
    stroke="#464b4b"
    stroke-width="0.09375"
    opacity="1.00"
    d=" M 621.15 398.33 C 628.62 396.62 636.98 398.04 642.81 403.22 C 657.30 415.74 670.39 429.92 681.59 445.45 C 686.33 451.58 684.38 460.31 680.25 466.21 C 678.99 468.06 676.53 470.22 674.22 468.75 C 670.38 466.36 667.78 462.51 664.74 459.26 C 651.47 444.49 637.21 430.57 621.53 418.37 C 617.72 415.21 613.32 412.66 610.19 408.78 C 608.14 406.43 608.51 401.95 611.69 400.81 C 614.74 399.65 617.96 399.01 621.15 398.33 Z"
  />
  <path
    fill="#000000"
    stroke="#000000"
    stroke-width="0.09375"
    opacity="1.00"
    d=" M 490.40 402.41 C 496.78 400.86 503.73 406.32 503.45 412.97 C 503.67 419.67 496.44 425.25 490.04 423.16 C 484.11 421.72 480.57 414.65 482.97 409.04 C 484.22 405.83 487.07 403.31 490.40 402.41 Z"
  />
  <path
    fill="#464b4b"
    stroke="#464b4b"
    stroke-width="0.09375"
    opacity="1.00"
    d=" M 374.75 412.70 C 379.99 408.74 387.49 404.49 393.74 408.85 C 390.55 414.25 384.96 417.37 380.19 421.18 C 353.17 441.55 332.13 469.81 320.70 501.69 C 319.34 504.78 318.34 508.70 315.11 510.35 C 312.11 510.77 310.41 507.82 309.60 505.42 C 307.28 498.18 305.57 489.70 309.74 482.77 C 317.06 470.20 326.59 459.07 336.34 448.32 C 348.25 435.54 361.01 423.50 374.75 412.70 Z"
  />
  <path
    fill="#959898"
    stroke="#959898"
    stroke-width="0.09375"
    opacity="1.00"
    d=" M 491.35 408.57 C 494.26 407.44 497.72 409.85 497.51 413.01 C 497.62 416.53 493.17 418.85 490.32 416.81 C 487.09 415.00 487.63 409.42 491.35 408.57 Z"
  />
  <path
    fill="#464b4b"
    stroke="#464b4b"
    stroke-width="0.09375"
    opacity="1.00"
    d=" M 582.84 411.95 C 583.40 408.76 587.21 407.60 590.02 407.44 C 595.90 407.59 600.89 411.16 605.61 414.30 C 625.99 428.56 644.56 445.44 660.72 464.35 C 664.94 469.64 669.86 474.87 671.52 481.63 C 672.94 488.55 670.07 495.31 667.57 501.62 C 665.12 507.05 663.37 513.03 659.04 517.34 C 656.26 515.09 654.35 512.07 653.29 508.69 C 649.18 496.74 644.36 484.99 638.17 473.97 C 625.97 452.11 608.93 432.98 588.70 418.24 C 586.46 416.48 583.85 414.76 582.84 411.95 Z"
  />
  <path
    fill="#000000"
    stroke="#000000"
    stroke-width="0.09375"
    opacity="1.00"
    d=" M 575.28 431.33 C 582.89 429.71 590.25 437.93 587.41 445.31 C 585.24 452.66 574.78 455.07 569.69 449.29 C 563.82 443.68 567.36 432.72 575.28 431.33 Z"
  />
  <path
    fill="#000000"
    stroke="#000000"
    stroke-width="0.09375"
    opacity="1.00"
    d=" M 393.36 432.45 C 400.17 429.36 408.75 435.62 407.92 443.06 C 407.85 450.86 397.89 455.99 391.56 451.31 C 384.39 447.11 385.67 435.33 393.36 432.45 Z"
  />
  <path
    fill="#959898"
    stroke="#959898"
    stroke-width="0.09375"
    opacity="1.00"
    d=" M 575.52 437.68 C 578.48 436.32 582.30 438.68 581.98 442.04 C 582.10 445.44 577.87 447.75 575.03 445.95 C 571.74 444.32 571.94 438.81 575.52 437.68 Z"
  />
  <path
    fill="#959898"
    stroke="#959898"
    stroke-width="0.09375"
    opacity="1.00"
    d=" M 395.16 438.31 C 397.96 436.81 401.88 438.71 401.97 441.99 C 402.48 445.45 398.36 448.27 395.31 446.58 C 391.93 445.19 391.76 439.76 395.16 438.31 Z"
  />
  <path
    fill="#000000"
    stroke="#000000"
    stroke-width="0.09375"
    opacity="1.00"
    d=" M 481.42 443.53 C 498.81 441.86 516.79 446.07 531.44 455.64 C 545.51 464.74 556.40 478.86 561.03 495.02 C 565.66 511.60 564.51 529.03 563.78 546.01 C 563.24 561.45 557.50 576.67 547.43 588.41 C 536.02 601.95 519.56 610.93 502.12 613.75 C 484.07 616.75 464.98 613.20 449.32 603.69 C 435.25 595.23 424.04 581.91 418.70 566.34 C 414.49 554.40 414.33 541.57 414.21 529.06 C 414.74 517.82 414.34 506.35 417.46 495.42 C 421.89 479.47 432.40 465.44 446.12 456.26 C 456.59 449.14 468.88 444.94 481.42 443.53 Z"
  />
  <path
    fill="#464b4b"
    stroke="#464b4b"
    stroke-width="0.09375"
    opacity="1.00"
    d=" M 280.39 446.22 C 282.27 444.89 285.14 445.86 286.26 447.76 C 287.66 450.01 288.17 452.66 288.81 455.21 C 290.59 463.47 292.75 471.67 294.20 480.01 C 294.90 484.23 295.31 488.69 293.95 492.84 C 292.03 498.83 288.55 504.15 285.59 509.65 C 275.07 528.82 266.03 548.79 258.56 569.34 C 256.75 573.71 255.51 578.81 251.70 581.93 C 249.96 583.53 247.76 581.76 246.93 580.08 C 245.27 576.80 244.42 573.19 243.48 569.66 C 240.87 558.91 239.12 547.74 240.67 536.69 C 242.76 521.47 248.32 507.04 253.66 492.73 C 258.36 480.63 263.40 468.52 270.81 457.79 C 273.69 453.72 276.21 449.13 280.39 446.22 Z"
  />
  <path
    fill="#ff002c"
    stroke="#ff002c"
    stroke-width="0.09375"
    opacity="1.00"
    d=" M 483.31 449.52 C 501.33 447.86 519.95 453.44 533.99 464.89 C 544.68 473.54 552.63 485.64 555.90 499.03 C 559.24 512.28 557.83 526.63 552.10 539.02 C 546.42 551.50 536.51 561.92 524.58 568.63 C 510.57 576.56 493.81 579.51 477.93 576.86 C 459.80 574.06 442.74 563.93 432.24 548.79 C 424.12 537.31 420.06 522.99 421.16 508.95 C 422.04 496.24 427.13 483.92 435.23 474.11 C 446.98 459.78 464.87 450.81 483.31 449.52 Z"
  />
  <path
    fill="#000000"
    stroke="#000000"
    stroke-width="0.09375"
    opacity="1.00"
    d=" M 849.18 465.68 C 854.95 464.53 860.70 463.32 866.47 462.16 C 870.90 490.64 869.31 519.92 862.54 547.91 C 856.80 546.50 851.05 545.18 845.34 543.68 C 851.59 518.23 852.86 491.61 849.18 465.68 Z"
  />
  <path
    fill="#000000"
    stroke="#000000"
    stroke-width="0.09375"
    opacity="1.00"
    d=" M 432.42 506.87 C 434.03 488.55 445.29 471.56 461.21 462.44 C 466.55 468.96 471.20 476.01 476.25 482.77 C 479.07 486.89 482.42 490.67 484.81 495.08 C 482.64 497.25 479.66 498.38 477.52 500.57 C 474.22 503.80 473.08 508.42 471.25 512.51 C 459.82 511.65 448.46 510.18 437.03 509.34 C 435.39 509.07 432.37 509.22 432.42 506.87 Z"
  />
  <path
    fill="#000000"
    stroke="#000000"
    stroke-width="0.09375"
    opacity="1.00"
    d=" M 516.14 466.03 C 517.04 465.02 518.28 462.71 519.88 464.01 C 535.27 473.23 545.87 490.16 547.36 508.05 C 547.75 509.91 545.41 510.43 544.04 510.42 C 532.01 510.95 519.99 511.94 507.96 512.27 C 506.11 511.04 506.37 508.27 505.47 506.40 C 503.87 501.25 498.70 498.81 494.49 496.13 C 501.48 485.94 508.98 476.11 516.14 466.03 Z"
  />
  <path
    fill="#464b4b"
    stroke="#464b4b"
    stroke-width="0.09375"
    opacity="1.00"
    d=" M 687.86 469.88 C 688.80 468.05 690.65 465.71 693.00 466.61 C 696.46 468.14 698.12 471.84 700.02 474.89 C 709.19 491.58 716.13 509.47 721.21 527.81 C 722.53 532.85 724.49 538.06 723.03 543.30 C 721.12 542.52 719.46 541.29 718.66 539.34 C 711.05 524.03 702.36 509.27 692.89 495.04 C 690.67 491.59 688.15 488.31 686.40 484.59 C 684.11 479.87 685.69 474.34 687.86 469.88 Z"
  />
  <path
    fill="#000000"
    stroke="#000000"
    stroke-width="0.09375"
    opacity="1.00"
    d=" M 154.23 476.28 C 157.50 471.95 164.89 471.25 168.43 475.60 C 171.36 478.87 170.71 483.53 170.32 487.54 C 169.21 496.17 168.86 504.87 168.95 513.56 C 163.13 514.92 157.33 516.36 151.51 517.71 C 150.59 509.84 150.30 501.91 150.07 493.99 C 150.10 487.94 150.39 481.28 154.23 476.28 Z"
  />
  <path
    fill="#959898"
    stroke="#959898"
    stroke-width="0.09375"
    opacity="1.00"
    d=" M 323.81 610.20 C 310.94 569.41 314.81 523.76 334.10 485.61 C 332.32 491.66 330.09 497.57 328.70 503.74 C 320.86 535.38 324.17 569.54 337.51 599.25 C 332.96 602.92 328.49 606.70 323.81 610.20 Z"
  />
  <path
    fill="#000000"
    stroke="#000000"
    stroke-width="0.09375"
    opacity="1.00"
    d=" M 580.23 491.39 C 589.82 490.78 599.51 491.08 609.12 491.23 C 611.78 491.02 612.61 493.88 612.46 496.03 C 612.49 523.36 612.44 550.70 612.48 578.04 C 612.43 581.31 612.78 584.64 612.05 587.86 C 610.97 590.68 607.36 589.96 604.99 590.19 C 596.95 589.93 588.89 590.51 580.88 589.92 C 577.71 589.92 578.17 586.19 578.04 584.03 C 578.12 554.69 578.05 525.35 578.08 496.01 C 578.17 494.33 578.09 491.77 580.23 491.39 Z"
  />
  <path
    fill="#464b4b"
    stroke="#464b4b"
    stroke-width="0.09375"
    opacity="1.00"
    d=" M 679.42 497.51 C 681.30 496.03 683.62 497.61 685.23 498.74 C 690.70 503.03 694.44 509.04 698.15 514.82 C 706.39 528.66 714.27 542.83 720.02 557.92 C 724.30 569.37 723.18 582.01 719.52 593.46 C 713.68 611.81 706.26 629.64 697.89 646.97 C 694.12 654.55 690.37 662.33 684.69 668.70 C 683.17 670.34 680.57 672.55 678.36 670.79 C 676.09 668.75 675.11 665.73 673.87 663.04 C 669.72 652.77 665.13 642.68 660.35 632.69 C 658.16 627.97 655.70 623.24 654.98 618.02 C 653.62 609.25 655.89 600.52 657.25 591.90 C 659.00 582.02 659.66 572.00 659.95 561.99 C 660.22 552.45 660.05 542.75 662.59 533.47 C 664.38 526.26 667.88 519.67 670.80 512.89 C 673.33 507.63 675.09 501.63 679.42 497.51 Z"
  />
  <path
    fill="#000000"
    stroke="#000000"
    stroke-width="0.09375"
    opacity="1.00"
    d=" M 485.44 500.68 C 492.25 498.08 500.67 502.62 501.78 509.92 C 503.48 517.11 497.52 524.86 490.06 524.71 C 483.11 525.27 476.75 518.95 477.26 512.00 C 477.27 507.00 480.66 502.22 485.44 500.68 Z"
  />
  <path
    fill="#464b4b"
    stroke="#464b4b"
    stroke-width="0.09375"
    opacity="1.00"
    d=" M 295.37 509.53 C 298.68 507.87 302.23 510.24 304.01 513.01 C 307.78 518.60 309.40 525.35 310.08 531.98 C 311.33 545.62 309.57 559.33 310.71 572.98 C 311.55 585.72 314.11 598.29 317.49 610.59 C 319.37 618.24 322.14 625.94 321.46 633.95 C 321.18 637.62 320.20 641.23 318.57 644.55 C 313.76 654.25 309.54 664.22 305.15 674.11 C 303.38 677.56 301.27 681.91 296.98 682.52 C 293.18 681.77 290.77 678.39 288.47 675.58 C 282.11 666.95 276.96 657.50 272.00 648.02 C 267.35 638.94 263.02 629.65 259.98 619.90 C 257.74 612.80 255.78 605.40 256.38 597.89 C 256.76 591.98 258.94 586.41 260.82 580.86 C 268.12 559.48 276.98 538.62 287.55 518.65 C 289.52 515.18 291.65 511.37 295.37 509.53 Z"
  />
  <path
    fill="#000000"
    stroke="#000000"
    stroke-width="0.09375"
    opacity="1.00"
    d=" M 152.50 525.54 C 158.24 523.94 164.06 522.64 169.86 521.27 C 172.69 541.06 178.35 560.38 186.11 578.78 C 180.69 581.07 175.25 583.33 169.82 585.59 C 161.57 566.39 155.86 546.15 152.50 525.54 Z"
  />
  <path
    fill="#000000"
    stroke="#000000"
    stroke-width="0.09375"
    opacity="1.00"
    d=" M 475.88 528.90 C 476.54 527.72 477.06 525.57 478.89 526.08 C 482.22 527.13 485.33 529.18 488.96 529.04 C 493.31 529.44 497.05 526.96 500.97 525.54 C 502.01 526.75 502.68 528.22 503.33 529.67 C 508.08 540.61 513.06 551.44 517.83 562.38 C 506.85 569.47 492.94 571.33 480.17 569.33 C 473.50 568.04 466.69 566.28 461.02 562.39 C 465.90 551.19 470.96 540.08 475.88 528.90 Z"
  />
  <path
    fill="#000000"
    stroke="#000000"
    stroke-width="0.09375"
    opacity="1.00"
    d=" M 346.27 530.33 C 353.83 528.73 361.17 536.81 358.45 544.17 C 356.38 551.61 345.81 554.12 340.69 548.29 C 334.82 542.68 338.36 531.73 346.27 530.33 Z"
  />
  <path
    fill="#000000"
    stroke="#000000"
    stroke-width="0.09375"
    opacity="1.00"
    d=" M 627.23 531.29 C 633.65 528.74 641.48 534.14 641.44 541.04 C 641.96 547.89 634.59 553.80 628.04 551.67 C 623.02 550.38 619.49 545.08 620.34 539.95 C 620.81 536.08 623.64 532.70 627.23 531.29 Z"
  />
  <path
    fill="#959898"
    stroke="#959898"
    stroke-width="0.09375"
    opacity="1.00"
    d=" M 346.52 536.68 C 349.46 535.33 353.26 537.65 352.98 540.99 C 353.14 544.39 348.94 546.75 346.08 544.97 C 342.74 543.38 342.92 537.82 346.52 536.68 Z"
  />
  <path
    fill="#959898"
    stroke="#959898"
    stroke-width="0.09375"
    opacity="1.00"
    d=" M 628.34 537.49 C 630.81 536.00 634.52 537.05 635.30 539.98 C 636.62 543.50 632.63 547.30 629.20 545.74 C 625.67 544.67 625.07 539.24 628.34 537.49 Z"
  />
  <path
    fill="#959898"
    stroke="#959898"
    stroke-width="0.09375"
    opacity="1.00"
    d=" M 420.96 541.38 C 424.37 548.14 428.51 554.54 433.67 560.10 C 431.74 564.21 429.75 568.30 427.76 572.38 C 422.82 562.86 420.63 552.08 420.96 541.38 Z"
  />
  <path
    fill="#959898"
    stroke="#959898"
    stroke-width="0.09375"
    opacity="1.00"
    d=" M 547.33 557.67 C 551.41 552.64 554.89 547.16 557.74 541.35 C 557.99 551.06 556.26 560.80 552.33 569.70 C 550.66 565.69 549.01 561.68 547.33 557.67 Z"
  />
  <path
    fill="#959898"
    stroke="#959898"
    stroke-width="0.09375"
    opacity="1.00"
    d=" M 653.50 546.51 C 655.85 578.93 648.28 611.97 632.23 640.23 C 629.71 636.67 627.20 633.11 624.70 629.55 C 635.86 614.09 644.17 596.56 648.79 578.05 C 651.58 567.74 652.39 557.08 653.50 546.51 Z"
  />
  <path
    fill="#000000"
    stroke="#000000"
    stroke-width="0.09375"
    opacity="1.00"
    d=" M 805.63 628.10 C 823.15 605.28 835.71 578.86 843.47 551.21 C 849.20 552.61 854.95 553.93 860.66 555.44 C 852.18 585.58 838.64 614.57 819.22 639.24 C 814.70 635.51 810.13 631.84 805.63 628.10 Z"
  />
  <path
    fill="#959898"
    stroke="#959898"
    stroke-width="0.09375"
    opacity="1.00"
    d=" M 527.56 573.88 C 533.07 570.65 538.21 566.81 542.85 562.42 C 544.76 567.09 546.62 571.78 548.74 576.37 C 544.50 583.45 538.77 589.53 532.31 594.64 C 530.66 587.73 529.18 580.79 527.56 573.88 Z"
  />
  <path
    fill="#959898"
    stroke="#959898"
    stroke-width="0.09375"
    opacity="1.00"
    d=" M 438.22 564.54 C 443.42 569.10 449.21 572.94 455.39 576.05 C 453.90 583.29 452.38 590.53 451.08 597.81 C 443.35 592.81 436.64 586.31 431.42 578.72 C 433.66 573.98 435.89 569.24 438.22 564.54 Z"
  />
  <path
    fill="#464b4b"
    stroke="#464b4b"
    stroke-width="0.09375"
    opacity="1.00"
    d=" M 233.39 575.27 C 233.55 572.92 233.70 570.47 234.96 568.42 C 237.48 568.97 237.43 571.94 238.15 573.91 C 239.90 582.04 242.41 589.98 244.20 598.09 C 246.09 606.41 243.86 614.87 242.06 622.99 C 241.50 625.73 240.37 628.30 239.14 630.80 C 237.40 629.83 235.91 628.37 235.78 626.29 C 233.04 609.44 232.71 592.29 233.39 575.27 Z"
  />
  <path
    fill="#959898"
    stroke="#959898"
    stroke-width="0.09375"
    opacity="1.00"
    d=" M 493.92 583.76 C 503.65 583.02 513.25 580.71 522.14 576.66 C 523.48 583.91 525.92 591.02 526.68 598.35 C 516.83 604.61 505.27 607.85 493.69 608.74 C 493.97 600.42 493.89 592.09 493.92 583.76 Z"
  />
  <path
    fill="#959898"
    stroke="#959898"
    stroke-width="0.09375"
    opacity="1.00"
    d=" M 461.01 578.51 C 469.59 581.73 478.66 583.59 487.83 583.81 C 487.76 592.16 488.00 600.52 487.66 608.87 C 476.85 608.41 466.16 605.80 456.49 600.92 C 458.09 593.47 459.38 585.95 461.01 578.51 Z"
  />
  <path
    fill="#000000"
    stroke="#000000"
    stroke-width="0.09375"
    opacity="1.00"
    d=" M 173.00 592.52 C 178.42 590.34 183.80 588.07 189.18 585.82 C 196.89 601.83 206.05 617.16 216.91 631.24 C 212.59 635.27 208.20 639.22 203.83 643.19 C 191.70 627.53 181.13 610.59 173.00 592.52 Z"
  />
  <path
    fill="#464b4b"
    stroke="#464b4b"
    stroke-width="0.09375"
    opacity="1.00"
    d=" M 726.23 595.23 C 729.35 593.02 730.22 597.72 729.94 599.93 C 729.40 639.58 718.73 678.99 699.82 713.80 C 698.59 716.42 695.57 718.91 692.60 717.37 C 689.23 712.60 688.70 706.48 686.86 701.06 C 684.55 694.36 684.03 686.82 687.43 680.39 C 693.49 668.49 700.21 656.90 705.78 644.74 C 712.65 630.22 718.67 615.30 724.02 600.15 C 724.65 598.47 725.23 596.74 726.23 595.23 Z"
  />
  <path
    fill="#959898"
    stroke="#959898"
    stroke-width="0.09375"
    opacity="1.00"
    d=" M 325.78 616.24 C 330.69 612.63 335.33 608.67 340.10 604.88 C 353.84 632.50 375.86 655.71 402.28 671.55 C 397.41 680.09 392.60 688.65 387.75 697.20 C 359.28 677.58 337.32 648.82 325.78 616.24 Z"
  />
  <path
    fill="#464b4b"
    stroke="#464b4b"
    stroke-width="0.09375"
    opacity="1.00"
    d=" M 250.35 623.29 C 251.36 622.06 253.05 623.42 253.66 624.41 C 256.42 628.56 258.04 633.32 260.24 637.77 C 267.49 653.38 276.00 668.36 285.07 682.98 C 288.65 688.76 292.18 694.95 292.64 701.90 C 293.22 708.04 290.32 713.69 288.53 719.39 C 286.87 723.76 285.95 728.50 283.43 732.50 C 282.10 734.54 279.06 733.97 277.56 732.43 C 275.50 730.39 274.10 727.83 272.54 725.42 C 261.43 707.83 252.25 688.93 246.06 669.03 C 242.65 657.80 242.04 645.61 245.27 634.27 C 246.40 630.44 246.99 625.89 250.35 623.29 Z"
  />
  <path
    fill="#000000"
    stroke="#000000"
    stroke-width="0.09375"
    opacity="1.00"
    d=" M 395.31 628.32 C 402.65 626.81 409.89 634.42 407.59 641.70 C 405.84 649.43 394.93 652.29 389.68 646.28 C 383.82 640.66 387.38 629.70 395.31 628.32 Z"
  />
  <path
    fill="#000000"
    stroke="#000000"
    stroke-width="0.09375"
    opacity="1.00"
    d=" M 577.36 628.42 C 583.77 626.82 590.76 632.33 590.45 639.01 C 590.64 645.70 583.40 651.26 577.00 649.15 C 571.08 647.69 567.57 640.63 569.97 635.03 C 571.23 631.84 574.05 629.33 577.36 628.42 Z"
  />
  <path
    fill="#464b4b"
    stroke="#464b4b"
    stroke-width="0.09375"
    opacity="1.00"
    d=" M 645.37 630.23 C 647.07 628.76 649.65 629.30 651.12 630.82 C 653.74 633.39 655.28 636.79 656.95 640.01 C 662.12 650.82 666.97 661.81 670.96 673.12 C 672.95 678.44 673.96 684.48 671.74 689.90 C 668.84 697.07 663.73 703.03 659.27 709.26 C 645.20 728.30 628.44 745.20 610.27 760.34 C 603.69 765.63 597.08 771.74 588.55 773.52 C 581.44 774.46 574.66 771.27 568.11 768.97 C 548.86 760.93 530.46 750.98 512.42 740.55 C 509.78 739.16 506.69 736.43 508.07 733.12 C 509.68 730.97 512.64 730.84 515.04 730.19 C 545.03 724.79 573.55 711.44 596.91 691.87 C 615.44 676.45 630.72 657.15 641.48 635.57 C 642.54 633.65 643.56 631.56 645.37 630.23 Z"
  />
  <path
    fill="#959898"
    stroke="#959898"
    stroke-width="0.09375"
    opacity="1.00"
    d=" M 395.45 634.70 C 398.41 633.29 402.27 635.63 401.98 639.00 C 402.13 642.39 397.95 644.73 395.08 642.98 C 391.77 641.40 391.91 635.90 395.45 634.70 Z"
  />
  <path
    fill="#959898"
    stroke="#959898"
    stroke-width="0.09375"
    opacity="1.00"
    d=" M 578.38 634.56 C 581.69 633.25 585.39 636.60 584.39 640.03 C 583.70 643.40 579.06 644.73 576.65 642.30 C 574.09 640.13 575.00 635.31 578.38 634.56 Z"
  />
  <path
    fill="#000000"
    stroke="#000000"
    stroke-width="0.09375"
    opacity="1.00"
    d=" M 800.70 634.14 C 805.41 637.69 809.87 641.55 814.50 645.20 C 795.07 668.82 770.92 688.20 744.97 704.19 C 742.40 698.84 739.96 693.43 737.49 688.04 C 761.02 673.29 782.96 655.61 800.70 634.14 Z"
  />
  <path
    fill="#959898"
    stroke="#959898"
    stroke-width="0.09375"
    opacity="1.00"
    d=" M 571.27 675.89 C 590.36 665.60 607.43 651.54 620.92 634.55 C 623.57 638.34 626.21 642.15 628.97 645.88 C 616.64 665.82 600.19 683.17 580.95 696.57 C 577.71 689.68 574.48 682.79 571.27 675.89 Z"
  />
  <path
    fill="#464b4b"
    stroke="#464b4b"
    stroke-width="0.09375"
    opacity="1.00"
    d=" M 326.25 645.34 C 330.32 643.52 333.49 647.53 335.32 650.61 C 350.88 675.16 372.18 696.20 397.61 710.43 C 416.47 721.11 437.37 728.25 458.84 731.24 C 461.13 731.71 463.71 731.76 465.63 733.26 C 466.83 734.71 466.00 736.65 464.68 737.70 C 462.22 739.68 459.30 740.99 456.55 742.52 C 439.08 751.90 420.90 759.98 402.08 766.27 C 395.44 768.44 388.46 770.66 381.39 769.54 C 374.62 768.46 368.95 764.30 363.55 760.36 C 350.55 750.95 339.08 739.62 328.08 727.98 C 321.29 720.58 314.18 713.06 310.21 703.68 C 307.42 696.81 307.64 689.00 309.97 682.04 C 313.07 672.45 316.81 663.07 321.01 653.92 C 322.55 650.97 323.60 647.48 326.25 645.34 Z"
  />
  <path
    fill="#000000"
    stroke="#000000"
    stroke-width="0.09375"
    opacity="1.00"
    d=" M 490.28 661.44 C 496.72 659.78 503.77 665.31 503.45 672.02 C 503.63 678.73 496.37 684.27 489.98 682.14 C 484.08 680.67 480.57 673.63 482.97 668.04 C 484.21 664.86 487.01 662.37 490.28 661.44 Z"
  />
  <path
    fill="#959898"
    stroke="#959898"
    stroke-width="0.09375"
    opacity="1.00"
    d=" M 491.43 667.55 C 494.74 666.28 498.38 669.63 497.39 673.04 C 496.69 676.39 492.08 677.73 489.67 675.31 C 487.07 673.14 488.01 668.26 491.43 667.55 Z"
  />
  <path
    fill="#959898"
    stroke="#959898"
    stroke-width="0.09375"
    opacity="1.00"
    d=" M 407.39 674.47 C 432.08 687.99 460.05 695.43 488.20 695.82 C 487.74 706.24 487.02 716.65 486.69 727.08 C 453.67 727.56 420.57 718.40 392.75 700.57 C 397.48 691.79 402.56 683.20 407.39 674.47 Z"
  />
  <path
    fill="#959898"
    stroke="#959898"
    stroke-width="0.09375"
    opacity="1.00"
    d=" M 494.52 695.80 C 519.20 695.33 543.76 689.43 565.95 678.61 C 569.27 685.71 572.59 692.82 575.92 699.92 C 551.23 715.80 522.43 725.09 493.13 726.82 C 493.53 716.47 494.07 706.14 494.52 695.80 Z"
  />
  <path
    fill="#464b4b"
    stroke="#464b4b"
    stroke-width="0.09375"
    opacity="1.00"
    d=" M 674.14 703.27 C 678.09 701.53 681.91 704.92 682.43 708.77 C 684.27 717.31 688.84 726.38 685.04 735.03 C 679.97 746.49 671.13 755.66 662.82 764.83 C 655.99 772.01 648.79 778.87 641.15 785.20 C 638.05 787.82 634.20 789.66 630.10 789.88 C 623.84 790.29 617.94 787.76 612.13 785.80 C 608.63 784.46 604.94 783.37 601.89 781.14 C 600.25 780.09 599.68 777.63 601.09 776.17 C 604.57 771.95 609.43 769.22 613.51 765.64 C 632.72 749.57 650.58 731.74 665.72 711.76 C 668.20 708.67 670.16 704.64 674.14 703.27 Z"
  />
  <path
    fill="#464b4b"
    stroke="#464b4b"
    stroke-width="0.09375"
    opacity="1.00"
    d=" M 300.41 708.45 C 303.67 708.12 305.67 711.32 307.57 713.46 C 323.57 733.31 341.80 751.35 361.74 767.24 C 364.24 769.46 368.52 773.12 365.64 776.62 C 361.24 779.23 355.91 779.53 351.04 780.85 C 344.05 782.12 337.08 784.43 329.90 783.87 C 322.42 783.01 316.61 777.64 311.36 772.71 C 304.56 766.14 297.99 759.31 292.02 751.98 C 289.13 748.49 287.00 743.89 288.34 739.30 C 290.67 730.67 293.98 722.35 296.78 713.87 C 297.67 711.95 298.10 709.13 300.41 708.45 Z"
  />
  <path
    fill="#464b4b"
    stroke="#464b4b"
    stroke-width="0.09375"
    opacity="1.00"
    d=" M 482.43 737.45 C 489.57 736.00 496.93 738.20 503.03 741.92 C 524.28 754.60 546.14 766.42 569.04 775.88 C 571.87 777.28 575.81 779.11 575.74 782.82 C 575.17 786.65 571.27 788.49 568.38 790.44 C 551.18 800.94 533.09 809.98 514.40 817.51 C 508.81 819.72 503.05 821.76 497.01 822.21 C 488.94 822.84 480.96 820.94 473.28 818.68 C 448.18 811.60 424.73 799.75 402.15 786.91 C 398.86 784.94 393.73 782.08 395.57 777.43 C 398.05 774.24 402.34 773.37 405.87 771.79 C 426.73 764.34 446.85 754.96 466.32 744.41 C 471.47 741.64 476.66 738.70 482.43 737.45 Z"
  />
  <path
    fill="#464b4b"
    stroke="#464b4b"
    stroke-width="0.09375"
    opacity="1.00"
    d=" M 367.43 783.60 C 372.56 782.84 377.91 782.69 382.92 784.22 C 389.17 786.00 394.67 789.56 400.26 792.74 C 421.81 805.20 444.51 815.64 467.89 824.17 C 469.94 825.19 473.52 826.05 473.00 829.01 C 471.93 830.76 469.75 831.15 467.94 831.72 C 451.81 835.58 434.74 837.42 418.45 833.38 C 391.96 826.14 366.73 814.44 343.98 799.08 C 341.53 797.16 337.50 795.68 337.59 792.01 C 338.37 789.17 341.75 789.16 344.08 788.53 C 351.92 787.17 359.60 785.03 367.43 783.60 Z"
  />
  <path
    fill="#464b4b"
    stroke="#464b4b"
    stroke-width="0.09375"
    opacity="1.00"
    d=" M 587.22 786.36 C 589.94 785.26 593.01 785.04 595.76 786.21 C 602.16 788.57 608.57 790.90 615.02 793.11 C 617.22 793.99 619.90 794.75 621.02 797.07 C 621.33 800.33 617.95 802.08 615.73 803.76 C 593.70 817.74 569.47 828.41 544.11 834.62 C 533.71 837.35 523.01 834.89 512.87 832.28 C 511.18 831.83 509.35 830.92 509.23 828.94 C 509.51 826.02 512.62 824.88 514.89 823.78 C 538.75 814.82 561.28 802.57 582.63 788.70 C 584.09 787.80 585.59 786.95 587.22 786.36 Z"
  />
  <path
    fill="#464b4b"
    stroke="#464b4b"
    stroke-width="0.09375"
    opacity="1.00"
    d=" M 488.06 833.10 C 490.00 832.47 492.10 832.16 494.07 832.88 C 502.05 835.29 510.06 837.64 518.14 839.72 C 497.90 842.53 477.21 843.22 456.94 840.43 C 467.41 838.43 477.84 836.15 488.06 833.10 Z"
  />
</svg>
