<svg xmlns="http://www.w3.org/2000/svg" viewBox="0 0 2000 2000">
  <path fill="#6089ff" stroke="#6089ff" stroke-width=".094" d="M0 0h2000v2000H0V0Z"/>
  <path stroke="#000" stroke-width=".094" d="M992.38 250.33c4.99-3.39 11.78-2.79 16.51.78 11.86 8.32 19.62 21.04 26.46 33.53 20.6 39.65 34.11 83.22 38.18 127.77 12.75-15.49 26.84-29.93 42.35-42.68 6.79-5.36 13.86-10.79 22.21-13.46 5.95-1.52 12.99-1.31 17.91 2.8 4.7 3.67 7.07 9.54 7.72 15.34 23.66-25.37 51.18-47.1 81.26-64.36 10.65-6.06 21.6-11.67 33.16-15.81 8.3-3 17.04-5.51 25.96-4.83 6.43.27 13.05 3.8 15.74 9.85 1.94 3.95 1.74 8.51 1.3 12.77-1.69 9.01-6.42 17.05-11.4 24.61-9.65 14.35-20.38 27.98-29.15 42.91-7.63 12.64-13.88 26.02-20.25 39.31 30.61-20.04 63.57-36.53 98.21-48.38 24.05-8.45 48.97-14.93 74.45-16.84 10.2-.28 20.9-.45 30.35 4.01 5.49 2.59 10.3 7.96 10.1 14.36.55 7.62-3.69 14.45-8.22 20.19-9.53 11.43-20.72 21.32-31.81 31.2-13.38 11.96-27.09 23.56-40.44 35.55-15.16 13.83-29.08 28.91-42.89 44.05-9.19 10.3-17.73 21.15-26.38 31.91 22.25-6.57 44.68-12.53 67.28-17.72 33.3-7.64 67.67-12.22 101.84-9.12 9.28 1.11 18.58 3.07 27.07 7.1 4.26 2.07 8.4 5.03 10.58 9.37 2.19 4.95.58 10.93-3.32 14.55-6.74 6.5-15.62 10.01-23.86 14.16-17.64 8.13-35.11 16.66-52.11 26.08-45.79 25.39-89.73 54.89-127.33 91.53-3.71 3.21-2.97 10.06 2.25 11.13 10.11 2.54 20.55-.83 30.81-.41 26.03-1.89 52.23-.94 78.1 2.44 18.43 2.73 36.96 6.4 54.14 13.8 8.97 4 17.72 9.38 23.6 17.43 3.14 4.24 4.87 9.79 3.46 15.01-1.07 4.09-4.56 7.09-8.37 8.63-7.86 3.26-16.53 2.71-24.84 3.38-32.88-.16-66.06 3.33-97.54 13.19-9.26 2.83-18.09 6.87-26.92 10.81 7.97 2.61 16.06 6.21 21.7 12.64 4.19 4.64 6.71 11.47 4.2 17.53-2.71 6.07-9.31 8.99-15.43 10.33-8.31 1.68-16.79 2.21-25.13 3.69-16.7 2.68-33.7 6.85-47.8 16.61a78.544 78.544 0 0 0-18.44 16.73c28.91 17.24 55.15 38.87 77.45 64.09 16.53 18.35 30.51 38.82 43.32 59.89 15.82 2.45 32.28 2.89 47.55 8.3 16.43 5.89 29.47 18.69 38.71 33.2 15.28 24.01 22.68 52.41 23.68 80.69-.55 11.21-1.78 22.67-6.39 33.03-3.68 8.69-9.48 16.26-15.76 23.22-4.86 5.25-8.48 11.68-10.35 18.59-1.99 8.46-.05 17.3 3.25 25.18 5.39 12.54 10.97 25.11 14.3 38.4 2.42 9.35 3.55 18.99 3.91 28.62-.48 10.02-1.98 20.1-5.83 29.43-3.38 9.28-9.89 17.09-12.62 26.63-2.53 7.28-3.07 15.09-2.21 22.72 1.72 12.06 6.89 23.25 9.37 35.14 2.39 11.05 2.78 22.62.45 33.71-2.25 10.44-7.4 19.92-12.82 29.01-4.33 7.16-8.01 14.89-9.21 23.25-1.26 8.68-1.75 17.49-3.63 26.08-4.62 21.24-14.47 41.57-29.48 57.42-10.46 10.53-21.96 20.24-30.36 32.61-21.51 31.48-46 61.1-74.42 86.59-53.77 48.94-119.73 83.82-189.7 103.13-41.64 11.5-84.7 17.93-127.86 19.06-5.66.47-11.35.49-17 .08-81.77-2.24-163.62-22.6-235.25-62.59-36.1-20.11-69.51-45.09-98.73-74.31-18.02-17.86-34.21-37.49-49.16-57.96-5.52-7.46-10.37-15.42-16.38-22.51-10.1-12.18-23.26-21.53-32.48-34.47-12.32-16.95-20.07-37.13-22.6-57.91-1.13-8.16-1.33-16.56-4.14-24.39-3.94-11.05-11.56-20.28-15.89-31.16-7.17-16.39-6.63-35.18-1.8-52.13 3.18-11.69 8.36-23.17 8.1-35.5.21-11.03-3.95-21.67-9.58-30.97-8.92-15.28-12.88-33.47-10.72-51.05 1.66-20.57 10.02-39.67 18.1-58.38 3.76-9.33 5.12-20.31.6-29.62-3.86-9.74-12.5-16.22-18-24.89-7.24-10.57-11.01-23.2-11.81-35.92-1.34-8.35-.04-16.74.73-25.06 1.94-13.87 5.07-27.65 10.47-40.61 6.3-15.2 14.62-29.9 26.67-41.3 8.37-8.07 18.75-14.04 30-17.01 13.57-3.49 27.66-4.32 41.44-6.34 10.89-17.83 22.5-35.3 35.94-51.34 18.37-21.91 39.29-41.8 62.74-58.23 7.2-5.05 14.59-9.83 22.1-14.42-7.79-9.85-18.1-17.46-29.3-22.98-17.57-8.22-37.07-10.56-56.09-13-6.77-.97-14.19-2.46-19.02-7.72-4.37-4.58-4.25-11.99-1.04-17.17 5.18-8.95 15.1-13.57 24.54-16.67-8.6-3.81-17.17-7.77-26.18-10.57-31.69-10.04-65.13-13.58-98.27-13.42-8.83-.72-18.18-.03-26.34-4.08-4.23-2.04-7.39-6.35-7.34-11.13-.34-8.04 5.45-14.61 11.22-19.47 12.44-10.07 28.14-14.71 43.41-18.52 18.36-4.3 37.14-6.91 55.98-7.65 24.33-2.05 48.74.15 73.04 1.56 3.46-.02 7.35-.41 10.05-2.81 2.67-2.61 1.46-6.91-.86-9.3-39.95-38.89-86.94-69.79-135.86-96.17-15.99-8.63-32.52-16.22-48.92-24.03-6.85-3.5-14.19-6.74-19.42-12.57-4.05-4.24-4.69-11.52-.85-16.1 3.99-5.02 10.11-7.62 16.02-9.66 16.03-5.37 33.18-5.42 49.9-5.11 34.19.83 67.76 8.43 100.73 17 12.89 3.39 25.77 6.83 38.54 10.67-10.54-13.12-20.96-26.37-32.54-38.6-13.98-15.34-28.42-30.31-44.1-43.93-13.72-11.94-27.43-23.89-40.99-36.01-7.8-7.19-15.59-14.44-22.51-22.49-5.13-6.14-10.16-13.47-9.6-21.85-.2-5.58 3.53-10.52 8.14-13.29 5.53-3.31 12.06-4.42 18.38-5.06 20.64-.97 41.14 3.13 61.03 8.28 24.52 6.73 48.41 15.72 71.46 26.45 18.72 8.86 36.71 19.22 54.1 30.46-8.35-17.68-16.93-35.34-27.98-51.52-8.43-12.84-18.16-24.81-25.99-38.04-4.64-8.17-8.75-17.66-6.53-27.23 1.63-7.17 8.62-12.03 15.72-12.58 11.6-1.13 22.81 3.03 33.41 7.22 16.55 6.94 32.15 16.01 47.06 25.98 22.25 14.76 42.68 32.23 60.92 51.71.71-7.25 4.6-14.71 11.58-17.65 6.57-2.54 14.1-1.31 20.18 2.04 10 5.29 18.6 12.81 26.95 20.36 11.3 10.28 21.79 21.46 31.49 33.26 2.93-32.77 11.15-65.02 23.38-95.53 5.81-14.32 12.16-28.48 20.21-41.7 5.91-9.44 12.74-18.84 22.32-24.85Z"/>
  <path fill="#6089ff" stroke="#6089ff" stroke-width=".094" d="M976.41 319.16c6.24-16.06 13.7-31.76 23.59-45.92 15.67 22.73 25.71 48.82 33.3 75.21 7.58 27.67 12.45 56.02 16.24 84.43 2.36 18.29-1.97 37.32-11.64 52.99-2.75 3.98-6.44 9.03-11.93 8.33-8.22-1.36-14.92-6.99-22.84-9.28-2.05-.66-4.24-.66-6.27 0-7.92 2.3-14.62 7.92-22.83 9.29-5.5.69-9.18-4.35-11.92-8.33-8.26-13.36-12.63-29.18-12.26-44.89.06-6.12 1.28-12.13 1.97-18.2 5.26-35.12 11.71-70.39 24.59-103.63Z"/>
  <path fill="#6089ff" stroke="#6089ff" stroke-width=".094" d="M707.31 314.97c16.94 6.26 32.8 15.15 48.04 24.77 29.06 18.37 54.8 41.62 77.05 67.76 7.62 8.68 12.41 19.83 13.28 31.37.76 9.03.82 18.11 1.28 27.16.72 6.31.7 12.67.93 19.02.79 10.63 1.59 21.3.99 31.96-.48 5.54-.97 11.66-4.85 16-2.29 2.36-5.8 1.42-8.41.24-7.06-3.16-13.1-8.07-19.3-12.58-7.89-5.75-14.93-13.03-18.97-22.02-4.16-9.15-6.56-18.95-9.41-28.55-4.47-15.71-10.37-30.97-17.01-45.89-16.85-38.73-38.46-75.35-63.62-109.24Z"/>
  <path fill="#6089ff" stroke="#6089ff" stroke-width=".094" d="M1252.69 334.75c12.8-7.57 25.99-14.68 40-19.78-22.6 30.42-42.29 63.04-58.3 97.4-8.52 18.5-16.5 37.32-22.1 56.93-3.11 10.34-5.56 20.99-10.32 30.75-4.21 8.61-11.21 15.51-18.9 21.08-6.46 4.65-12.72 9.86-20.24 12.71-2.41 1.04-5.55.95-7.27-1.26-3.48-4.36-4-10.16-4.43-15.51-.91-14.71 1.25-29.36 1.36-44.06 1.06-11.35.87-22.78 1.83-34.14.85-11.31 5.47-22.29 12.87-30.88 10.34-12.19 21.49-23.68 33.23-34.53 16.05-14.64 33.71-27.45 52.27-38.71Z"/>
  <path fill="#6089ff" stroke="#6089ff" stroke-width=".094" d="M550.67 374.25c19.29.4 38.03 5.7 56.61 10.47 37.4 9.8 72.78 26.29 105.82 46.19 16.33 10.06 32.32 20.71 47.43 32.55 3.46 2.81 7.34 5.6 9.02 9.92 1.63 3.66-.36 8.83-4.51 9.63-4.02 1.03-7.71-1.32-11.29-2.73-6.48-2.68-12.71-6.19-19.67-7.47-4.4-.83-9.54.15-12.3 3.95-3.46 4.59-2.64 10.73-2.07 16.08 2 11.48 5.15 22.73 8.45 33.9 2.08 7.35 5.13 14.53 5.86 22.2.03 3-.6 7.17-3.98 8.12-4.25.51-8.04-2.52-10.09-6-20.46-29.96-43.41-58.21-68.63-84.3-13.15-13.54-26.49-26.92-40.35-39.74-14.46-13.6-29.73-26.3-45.03-38.93-5.32-4.35-10.4-8.99-15.27-13.84Z"/>
  <path fill="#6089ff" stroke="#6089ff" stroke-width=".094" d="M1420.89 377.85c9.37-1.92 18.86-3.55 28.45-3.6-13.07 13.02-28.08 23.86-41.81 36.14-28.24 24.7-54.9 51.23-79.88 79.22-17.67 19.97-33.73 41.31-48.89 63.24-2.33 3.19-8.04 6.3-11.2 2.6-2.98-4.82-.97-10.7.28-15.74 4.4-14.05 8.7-28.17 11.68-42.61 1.06-5.41 1.91-11.1.63-16.54-1.29-4.85-6.13-8.31-11.13-7.99-7.92.22-14.88 4.48-22.04 7.39-3.82 1.47-7.69 4.09-11.96 3.07-4.19-.77-6.22-5.97-4.57-9.66 1.57-4.09 5.18-6.81 8.47-9.47 13.51-10.69 27.83-20.31 42.38-29.53 29.75-18.51 61.46-34.18 94.89-44.84 14.71-4.58 29.64-8.43 44.7-11.68Z"/>
  <path fill="#6089ff" stroke="#6089ff" stroke-width=".094" d="M857.78 380.79c14.04 9.47 26.22 21.36 37.74 33.68 17.04 18.63 32.28 38.87 45.75 60.21 9.15 14.6 17.51 29.72 24.37 45.54-15.35 21.91-26.05 46.71-34.53 71.98-3.33 10.13-6.33 20.38-8.79 30.76-15.81-21.67-34.64-40.9-54-59.39-.22-5.6-1.92-10.98-2.73-16.49-3.69-22.27-5.44-44.82-6.62-67.33-.73-6.25-.63-12.55-.78-18.82-.86-7.94-.78-15.93-.92-23.9-.02-18.74-.05-37.5.51-56.24Z"/>
  <path fill="#6089ff" stroke="#6089ff" stroke-width=".094" d="M1090.56 430.52c15.3-18.39 31.85-36.13 51.66-49.74.45 15.72.55 31.45.52 47.18-.06 10.34.12 20.71-.77 31.03-1 28.07-2.73 56.18-6.88 84-.88 6.9-2.99 13.62-3.41 20.59-19.37 18.48-38.19 37.71-54 59.38-4.46-18.46-10.26-36.61-17.44-54.19-7.02-16.97-15.26-33.53-25.88-48.55 14.28-32.41 33.89-62.28 56.2-89.7Z"/>
  <path fill="#6089ff" stroke="#6089ff" stroke-width=".094" d="M730.43 483.55c8.72 1.23 16.32 6.07 23.94 10.15 28.22 16.35 55.23 34.82 80.51 55.42a424.564 424.564 0 0 1 52.92 51.02c10.33 11.89 19.72 25.39 23.08 41.04 2.45 11.41 2.32 23.35 0 34.77-1.86 8.05-5.98 16.58-14.01 19.98-10.19 4.24-21.48 2.17-32.02.61-16.05-3.04-32.41-6.56-46.81-14.58-15.25-8.92-23.95-25.07-31.7-40.31-13.3-27.06-24.89-54.91-35.65-83.06-7.32-19.74-13.92-39.79-18.6-60.33-1.03-4.83-2.26-9.74-1.66-14.71Z"/>
  <path fill="#6089ff" stroke="#6089ff" stroke-width=".094" d="M1240.55 496.64c9.24-5.14 18.36-11.22 28.92-13.18.9 6.93-1.47 13.71-2.89 20.42-6.12 24.78-14.73 48.86-24.18 72.54-7.56 18.55-15.27 37.05-23.86 55.17-7.19 14.79-14.22 30.18-25.88 42.08-10.44 10.66-25.14 15.24-39.18 18.95-11.96 3-24.14 5.39-36.48 5.89-8.17-.05-17.28-2.17-22.18-9.29-7.73-11.38-7.87-25.92-7.13-39.14 1.42-17.83 10.76-33.83 22.15-47.17 36.6-43.08 82.45-77.32 130.71-106.27Z"/>
  <path fill="#6089ff" stroke="#6089ff" stroke-width=".094" d="M976.38 524.45c6.77-8.81 14.29-17.31 23.62-23.49 15.19 10.47 26.3 25.8 35.4 41.61 6.99 12.46 12.85 25.53 17.91 38.88 3 7.36 4.61 15.15 6.46 22.85 3.38 14.84 7.24 29.61 9.28 44.72 1.21 9.3 3.43 18.54 3.16 27.98-.09 11.96-1.51 24.26-7.03 35.04-7.44 13.46-19.43 23.8-32.46 31.66-9.92 6.05-20.97 11.05-32.77 11.35-11.51-.32-22.31-5.1-32.03-10.96-13.25-7.91-25.49-18.33-33.06-31.97-5.4-10.49-6.91-22.46-7.06-34.11-.4-10.16 2.01-20.11 3.32-30.12 2.46-17.19 6.99-33.98 10.85-50.88 1.99-9.33 5.63-18.17 9.26-26.95 6.84-15.97 14.64-31.69 25.15-45.61Z"/>
  <path fill="#6089ff" stroke="#6089ff" stroke-width=".094" d="M499.33 530.26c10.22-.28 20.44.18 30.62 1.04 63.25 5.2 126.45 18.23 184.61 44.23 8.82 4.04 17.62 8.48 25.05 14.82 10.44 9.06 17.66 21.12 23.95 33.27 4.84 9.58 9.42 19.31 13.52 29.23 2.06 4.82 3.36 10.19 2.21 15.41-1.14 4.12-4.81 6.9-8.58 8.52-8.41 3.68-17.76 4.09-26.8 4.21-6.01-.51-12.16-.72-17.84-2.96-10.63-3.64-18.45-12.1-26.54-19.47-13.34-12.75-27.22-24.96-42.09-35.91-34.76-26.28-71.62-49.87-110.48-69.64-15.72-7.9-31.49-15.75-47.63-22.75Z"/>
  <path fill="#6089ff" stroke="#6089ff" stroke-width=".094" d="M1430.89 535.58c23.13-2.99 46.4-5.79 69.77-5.32-36.77 16.4-72.77 34.77-106.66 56.59-18.84 11.94-37.07 24.84-54.82 38.35-13.99 10.49-27 22.2-39.65 34.24-7.77 7.12-15.4 15.12-25.62 18.6-6.02 2.32-12.54 2.56-18.89 2.98-10.25-.35-21.38-.72-30.11-6.78-4.92-3.41-5.38-10.04-3.98-15.37 1.73-6.44 4.77-12.42 7.44-18.51 7.21-15.39 14.48-31.14 25.87-43.97 11.41-12.93 27.81-19.52 43.33-26.05 42.6-17.59 87.73-28.5 133.32-34.76Z"/>
  <path fill="#6089ff" stroke="#6089ff" stroke-width=".094" d="M701.99 695.66c10.93-1.62 22-2.19 33.04-2.42 13.25.18 26.56-.57 39.77.72 26.17 1.45 52.14 5.97 77.38 13.04 24.57 6.8 48.73 15.54 71.25 27.6 20.86 11.36 40.58 26.02 54.13 45.82 5.03 7.63 9.46 16.25 9.41 25.62-.14 3.57-.92 7.8-4.31 9.74-3.44 1.54-6.91-.83-9.34-3.1-5.47-5.24-9.63-11.63-14.51-17.38-15.92-20.14-38.13-35.61-63.21-41.73-2.69-.55-5.7-1.82-8.26-.17-2.07 1.96-.78 5.61 1.87 6.26 11.32 3.5 22.78 7.58 32.26 14.9 5.56 4.31 10.26 10.42 11.09 17.59.39 5.6-3 10.98-7.84 13.64-7.14 4.09-15.64 5-23.73 4.82-24.62.78-49.34-5.88-70.63-18.15-10.48-5.86-18.19-15.4-24.13-25.64-13.96-23.99-36.52-42.05-61.33-53.9-13.98-6.52-28.56-11.62-42.91-17.26Z"/>
  <path fill="#6089ff" stroke="#6089ff" stroke-width=".094" d="M1102.43 722.4c47.34-19.23 98.4-29.95 149.58-29.17 15.37-.16 30.79.21 46.02 2.43-19.8 7.85-40.34 14.41-58.54 25.72-13.66 8.59-26.33 19.02-36.37 31.72-9.1 11.31-14.58 25.62-26.47 34.56-13.38 10.01-29.41 15.94-45.53 19.83-13.05 3.16-26.56 3.56-39.91 2.92-6.42-.75-13.11-2.15-18.28-6.26-4.45-3.45-6.72-9.72-4.88-15.13 2.14-7.57 8.15-13.27 14.6-17.39 8.42-5.3 17.81-8.86 27.32-11.66 2.14-.42 4.24-2.52 3.63-4.81-.44-2.51-3.55-2.97-5.59-2.38-17.61 3.6-34.11 11.94-47.97 23.29-10.93 8.78-19.54 19.93-28.13 30.9-3.08 3.57-6.2 7.72-10.89 9.16-3.92 1.06-7-2.7-7.51-6.22-1.79-9.12 2.1-18.12 6.62-25.85 6.81-11.13 15.88-20.77 25.88-29.1 16.84-13.9 36.31-24.24 56.42-32.56Z"/>
  <path fill="#6089ff" stroke="#6089ff" stroke-width=".094" d="M599.95 704.57c10.02-.58 20.02-1.65 30.08-1.34 10.63.12 21.31-.44 31.89.86 18.69.99 37.35 4.35 54.78 11.33 14.39 5.81 28.65 12.4 41.35 21.41 9.58 7.7 19.65 15.94 24.71 27.46.93 2.62 2.67 6.54-.11 8.59-5.04 1.75-10.38-.29-15.4-1.21-16.19-4.26-32.6-8-49.34-9.13-11.18-.97-22.49-1.79-33.3-5.03-14.34-3.88-26.9-12.13-40.67-17.47-30.84-12.22-63.99-17.56-96.98-19.32-11.37-.06-22.7-.98-34.07-1.07 28.26-8.66 57.74-12.24 87.06-15.08Z"/>
  <path fill="#6089ff" stroke="#6089ff" stroke-width=".094" d="M1308.49 707.81c24.3-4.85 49.2-4.99 73.88-4.43 24.4 1.42 48.75 4.12 72.81 8.5 10.81 1.79 21.37 4.76 31.9 7.74-11.38.15-22.73 1.02-34.11 1.1-33.22 1.76-66.59 7.2-97.61 19.61-8.91 3.5-17.29 8.17-26.01 12.08-9.67 4.34-20 7.17-30.51 8.48-11.95 1.52-24.04 1.82-35.91 3.99-11.43 1.77-22.54 5.04-33.8 7.6-3.86.64-7.99 1.91-11.79.4-2.25-1.41-1.45-4.44-.85-6.52 3.32-9.91 11.17-17.33 18.8-24.09 10.68-9.71 23.81-16.05 36.76-22.13 11.7-5.28 23.86-9.65 36.44-12.33Z"/>
  <path fill="#6089ff" stroke="#6089ff" stroke-width=".094" d="M689.99 775.33c18.05-2.33 36.42-.9 54.21 2.66 7.41 1.41 14.92 4.01 20.5 9.3 5.61 5.32 7.24 14.3 3.79 21.24-3.87 7.5-12.04 12.51-20.49 12.57-8.68.62-16.35-4.16-23.39-8.58-8.3-5.44-16.84-10.66-26.27-13.9-16.64-6.54-34.34-10.31-52.17-11.39 14.06-5.67 28.69-10.26 43.82-11.9Z"/>
  <path fill="#6089ff" stroke="#6089ff" stroke-width=".094" d="M1276.64 774.97c26.2-2.81 52.97 1.87 77.08 12.35-1.74 1.12-4.57.06-6.67.42-19.1 1.97-37.91 6.97-55.33 15.08-9.45 4.56-17.64 11.34-27.14 15.78-6.74 3.14-14.82 3.41-21.69.54-5.92-2.75-11.2-7.85-12.7-14.37-1.59-6.45.71-13.64 5.69-18.03 5.55-4.93 12.79-7.4 19.99-8.77 6.85-1.41 13.79-2.44 20.77-3Z"/>
  <path fill="#959898" stroke="#959898" stroke-width=".094" d="M791.94 802.85c16.87 5.97 34.17 10.62 51.62 14.57-1.98 14.96-2.32 30.13-.85 45.15-15.38-3.05-30.72-6.34-45.84-10.5-1.73-.58-4.5-.72-4.43-3.15-2.64-15.18-2.68-30.83-.5-46.07Z"/>
  <path fill="#959898" stroke="#959898" stroke-width=".094" d="M1156.42 817.45c17.45-4 34.77-8.61 51.64-14.6 2.18 15.24 2.14 30.9-.51 46.08.07 2.44-2.75 2.57-4.45 3.14-15.11 4.16-30.44 7.45-45.81 10.5 1.45-15.01 1.15-30.18-.87-45.12Z"/>
  <path fill="#959898" stroke="#959898" stroke-width=".094" d="M856.45 820.07c20.15 3.88 40.56 6.25 60.96 8.34-1.56 15.01-1.81 30.22-.18 45.23-19.57-1.8-39.02-4.69-58.37-8.09-.93-.31-2.56-.15-2.54-1.53-2.36-14.53-1.63-29.39.13-43.95Z"/>
  <path fill="#959898" stroke="#959898" stroke-width=".094" d="M1082.59 828.41c20.4-2.09 40.8-4.45 60.96-8.34 1.76 14.82 2.59 29.99-.06 44.76-19.97 4.26-40.39 6.74-60.72 8.81 1.63-15.01 1.38-30.22-.18-45.23Z"/>
  <path fill="#959898" stroke="#959898" stroke-width=".094" d="M930.48 829.58c46.25 3.94 92.79 3.96 139.04 0 1.62 14.76 1.69 29.69.11 44.45-22.47 2.41-45.04 3.57-67.63 3.33-23.93.28-47.84-.72-71.62-3.33-1.6-14.76-1.53-29.69.1-44.45Z"/>
  <path fill="#6089ff" stroke="#6089ff" stroke-width=".094" d="M779.46 865.69c9.08-1.54 17.88 1.74 26.75 3.09 14.07 2.08 27.84 5.73 41.86 8.1 4.5.83 9.9 1.35 12.66 5.54 1.83 2.8-.19 6.03-1.92 8.32-4.39 5.44-10.76 8.66-16.28 12.76-18.24 12.47-36.03 25.73-51.96 41.08-13.18 12.45-25.66 25.62-38.82 38.09-12.26 11.67-25.83 21.9-40.12 30.96-7.54 4.78-15.32 9.52-24.02 11.86-3.26.71-7.28 1.36-9.95-1.15-2.89-2.88-3.85-7.02-5.43-10.65-3.98-10.63-9.98-20.77-18.78-28.11-4.82-4.11-10.83-7.22-13.9-13.01-1.82-3.31-.55-7.14.44-10.48 4.37-12.32 11.29-23.6 19.17-33.97 12.67-16.72 29.86-29.14 46.81-41.16 10.76-7.44 21.77-14.61 33.41-20.6 1.92-.93 6-1.38 6.19 1.6-.85 4.29-4.17 7.44-6.93 10.61A114.38 114.38 0 0 0 719.12 906c-3.51 6.45-5.8 13.45-8.95 20.07-1.6 3.17-4.04 7.06-8.16 6.56-7.75-.65-15.73-2.66-23.38-.11-3.08.99-7.59 2.58-7.49 6.48-.27 2.92 3.4 3.93 5.51 2.52 4.93-2.66 10.79-3.04 16.25-2.16 5.73.98 10.44 4.58 15.39 7.34 1.86 1.08 4.05.44 5.6-.88 10.73-7.88 23.85-12.24 37.06-13.38 3.68-.42 7.3.7 10.97.64 3.13-.82 3.16-6.13.09-6.99-8.45-2.83-17.55-1.27-26.11.22-4.24.62-8.56 1.89-12.85 1-2.97-.55-2.33-4.13-1.63-6.19 2.52-7.63 7.38-14.19 12.26-20.47 6.53-8.07 13.94-15.41 21.9-22.07 7.03-5.71 14.78-11.23 23.88-12.89Z"/>
  <path fill="#6089ff" stroke="#6089ff" stroke-width=".094" d="M1210.52 865.56c9.98-1.55 19.78 2.41 27.69 8.27 12 8.78 22.71 19.41 31.57 31.36 3.96 5.76 8.32 11.77 9.36 18.85.56 3.48-3.74 3.77-6.16 3.56-10.91-1.15-21.91-4.73-32.9-2.19-1.55.49-3.65.76-4.07 2.64-1.26 2.5 1.01 5.93 3.9 5 7.73-1.46 15.62-.16 23.14 1.86 8.49 2.32 16.64 6.05 23.71 11.34 3.37 2.69 6.98-.89 9.91-2.51 6.93-4.68 15.97-6.25 23.93-3.44 2.39 1.01 5.24 2.95 7.67.89 1.37-2.35.32-5.23-1.97-6.5-6.99-4.13-15.58-3.95-23.32-2.54-3.25.35-7.31 1.42-9.86-1.25-2.93-3.08-4.39-7.17-6.01-11-4.65-11.93-10.71-23.39-18.78-33.36-3.8-5.07-8.75-9.19-12.26-14.49-.93-1.74-2.52-4.05-.92-5.87 4.13-1.68 7.85 1.52 11.32 3.31 17.94 10.2 34.89 22.11 51.01 35 18.23 14.56 32.99 33.67 41.73 55.36 1.35 4 3.31 8.61 1.26 12.72-3.32 6.2-9.94 9.33-14.96 13.9-8.9 7.78-14.63 18.45-18.61 29.43-1.62 3.88-3.09 9.13-7.83 10.08-7.19.68-13.83-2.96-20.09-5.99-13.93-7.94-27.2-17.08-39.52-27.34-15.93-13.4-29.94-28.85-44.97-43.21-18.65-18.68-39.93-34.42-61.72-49.19-5.26-3.66-11.32-7.22-13.84-13.43-1.21-2.44.34-5.15 2.36-6.57 3.68-2.73 8.46-2.81 12.77-3.76 13.03-2.25 25.84-5.64 38.93-7.57 5.88-.9 11.64-2.46 17.53-3.36Z"/>
  <path fill="#6089ff" stroke="#6089ff" stroke-width=".094" d="M921.35 888.35c1.49-.72 3.21-.18 4.8-.11 25.16 2.73 50.47 4.18 75.78 3.76 25.12.46 50.19-1.52 75.16-3.99 2.53-.26 2.87 3.28 2.05 5-2.61 6.24-7.79 10.92-12.63 15.46-12.22 10.42-23.56 21.84-36.17 31.81-7.56 6.02-15.23 12.51-24.74 15.14-4.36 1.31-9.07.92-13.29-.66-9.3-3.19-16.75-9.84-24.33-15.84-9.23-7.33-17.64-15.59-26.47-23.35-6.76-6.22-14.35-11.82-19.28-19.71-1.35-2.21-2.67-5.17-.88-7.51Z"/>
  <path fill="#6089ff" stroke="#6089ff" stroke-width=".094" d="M895.33 899.49c3.96-2.25 8.65-.39 11.87 2.31 11.68 9.24 23 18.93 33.88 29.11 8.52 8.16 17.09 16.42 23.88 26.14 2.85 4.25 5.83 8.76 6.46 13.98.18 4.55-2.96 8.3-5.88 11.46-5.66 5.76-12.22 10.51-18.59 15.44-14.88 11.32-29.54 23-43.01 35.99-8.88 8.13-17.04 17.05-26.37 24.69-3.45 2.73-7.93 5.82-12.51 3.99-5.91-2.09-10.73-6.27-15.68-9.97-15.71-12.55-31.3-25.3-45.69-39.37-6.54-6.53-13.06-13.34-17.36-21.6-2.64-5.09-4.03-11.13-2.28-16.72 2.65-8.91 9.18-15.89 15.49-22.41 13.75-13.45 29.29-24.88 44.79-36.21 6.87-4.82 13.69-9.76 20.91-14.04 2.77-1.8 7.73-2.52 9.44 1.01 1.38 6.64-1.71 13.11-2.75 19.59-2.35 9.45-3.26 19.26-6.53 28.47-1.21 3.39-3.34 7.33-7.39 7.6-6.14-.41-11.95-2.55-17.91-3.87-7.24-1.73-14.78-1.88-22.16-1.14-3.12-.07-5.88 3.39-4.16 6.3 1.83 2.1 4.8 1.21 7.22 1.22 10.38-.85 20.45 2.74 29.9 6.65 7.28 2.93 14.05 7.72 22.09 8.3 7.21-.09 13.24-4.6 18.93-8.51 7.11-5.07 15.17-9.45 24.07-9.97 3.64-.42 7.23.63 10.87.64 2.85-.04 4.58-3.99 2.58-6.06-2.37-2.59-6.21-2.87-9.5-2.96-11.13-.38-21.15 5.46-32 6.94-2.47.34-5.39-.25-6.81-2.47-2.7-4.14-2.43-9.35-2.08-14.06.96-9.46 2.87-18.86 6.06-27.82 1.88-5.14 4.85-10.54 10.22-12.65Z"/>
  <path fill="#6089ff" stroke="#6089ff" stroke-width=".094" d="M1096.34 899.54c4.65-2.57 10.19.04 13.5 3.59 4.23 4.87 5.94 11.29 7.63 17.37 2.13 8.67 4.06 17.56 3.59 26.54-.24 4.13-2.19 9.6-7.17 9.53-12.85-.89-24.7-8.99-37.89-6.68-2.96.39-7.26 2.39-6.1 6.07.78 2.97 4.26 2.87 6.68 2.37 9.34-1.7 18.87 1.37 26.72 6.4 7.25 4.41 13.91 10.91 22.77 11.67 8.14-.09 15.03-5 22.32-7.98 9.67-4.06 20-7.83 30.66-6.96 2.39-.01 5.38.89 7.18-1.25 1.47-2.5-.49-5.79-3.25-6.1-10.71-1.62-21.6.08-31.88 3.24-4.43.77-10.23 3.38-13.72-.8-3.53-4.83-4.52-10.95-5.85-16.64-1.74-9.75-4-19.39-6.17-29.04-.32-2.99-1.43-7.03 1.27-9.22 3.56-2.14 7.55.1 10.62 2.08 15.61 10.18 30.63 21.26 45.2 32.89 9.62 7.89 19.21 16.03 26.88 25.91 4.39 5.84 8.32 12.96 7.21 20.54-1.25 7.81-6.08 14.42-11 20.38-10.59 12.06-22.78 22.59-35 32.95-9.58 7.81-18.9 16.01-29.14 22.96-3.62 2.2-8 4.91-12.34 3.26-4.9-1.9-8.66-5.74-12.56-9.11-12.86-12.18-25.3-24.83-38.93-36.15-10.35-8.69-21.16-16.81-31.85-25.07-5.31-4.3-10.9-8.51-14.84-14.18-2.22-3.04-3.02-7.08-1.52-10.61 2.89-7.77 8.31-14.24 13.63-20.48 12.43-13.63 26.31-25.86 40.46-37.66 4.26-3.31 8.16-7.18 12.89-9.82Z"/>
  <path fill="#959898" stroke="#959898" stroke-width=".094" d="M597.29 991.48c9.72.27 19.96-3.16 29.28.91 9.38 4.51 13.63 14.97 16.01 24.49-10.04 1.19-20.09 2.25-30.09 3.64-2.52-10.71-6.93-21.48-15.2-29.04Z"/>
  <path fill="#959898" stroke="#959898" stroke-width=".094" d="M1373.44 992.38c9.32-4.06 19.56-.62 29.29-.9-8.3 7.55-12.7 18.33-15.22 29.04-9.99-1.39-20.03-2.44-30.05-3.65 2.3-9.54 6.61-19.98 15.98-24.49Z"/>
  <path fill="#ededed" stroke="#ededed" stroke-width=".094" d="M566.46 994.72c8.28-2.34 17.99-.65 24.08 5.72 7.14 7.38 10.28 17.62 11.82 27.55 1.59 14.37.46 29.04-3.44 42.99-4.6 16.76-12.36 32.86-23.84 46.01-7.05 7.84-15.7 14.97-26.17 17.47-5.96.85-12.49.85-17.66-2.66-10.12-6.44-14.33-18.69-16.18-29.97-2.75-19.84.62-40.22 8.07-58.71 5.93-14.54 14.36-28.37 26.29-38.75 5.01-4.2 10.63-8 17.03-9.65Z"/>
  <path fill="#ededed" stroke="#ededed" stroke-width=".094" d="M1407.12 1003.1c5.09-7.09 14.42-10.65 22.96-9.02 7.3.82 13.73 4.85 19.37 9.33 12.35 10.32 21.06 24.34 27.17 39.1 4.76 11.61 7.77 23.93 8.98 36.43.3 9.67.68 19.52-1.89 28.95-2.38 9.61-7.08 19.68-16.15 24.59-4.95 2.96-10.98 2.68-16.48 1.98-10-2.38-18.35-9.03-25.21-16.42-10.46-11.56-17.89-25.63-22.76-40.37-3.64-11.21-6.14-22.91-6.01-34.74-.67-13.73 1.63-28.52 10.02-39.83Z"/>
  <path fill="#959898" stroke="#959898" stroke-width=".094" d="M974.92 1013.49c12.46-2.9 25.35-2.7 38.05-2.13 20.52 2.11 40.4 9.68 57.2 21.63-6.21 8.2-12.71 16.18-18.88 24.42-16.81-11.06-37.11-17.85-57.38-15.86-16.04 1-31.57 6.63-44.96 15.42-3.29-2.62-5.36-6.68-8.16-9.87-3.51-4.57-7.18-9.01-10.61-13.64 13.41-9.51 28.64-16.5 44.74-19.97Z"/>
  <path fill="#959898" stroke="#959898" stroke-width=".094" d="M749.06 1018.26c8.37-.06 16.88-.6 25.02 1.8 7.03 1.71 13.7 4.62 19.99 8.17-12.1 6.49-24.3 12.81-36.37 19.36-10.82-6.25-23.1-10.25-35.67-10.34-7.37.14-14.84.47-21.96 2.58 13.96-11.43 30.79-20.07 48.99-21.57Z"/>
  <path fill="#959898" stroke="#959898" stroke-width=".094" d="M1205.93 1028.23c11.51-6.6 24.71-10.68 38.07-10.08 20.66-.65 40.25 8.84 55.94 21.68-19.25-5.18-40.51-2.63-57.62 7.76-12.09-6.53-24.28-12.88-36.39-19.36Z"/>
  <path fill="#959898" stroke="#959898" stroke-width=".094" d="M613.51 1027.53c10.22-1.2 20.43-2.82 30.71-3.42 1.58 14.27 1.18 28.71-1.25 42.87-10.15-1.83-20.32-3.62-30.45-5.54 1.95-11.15 2.65-22.69.99-33.91Z"/>
  <path fill="#959898" stroke="#959898" stroke-width=".094" d="M1355.78 1024.11c10.27.6 20.46 2.21 30.68 3.41-1.55 11.25-.99 22.76 1.02 33.92-10.14 1.92-20.3 3.72-30.46 5.53a153.902 153.902 0 0 1-1.24-42.86Z"/>
  <path fill="#959898" stroke="#959898" stroke-width=".094" d="M766.19 1053.59c12.24-6.34 24.33-12.97 36.6-19.26 13.24 10.58 22.9 25.25 28.5 41.18 6.35 17.89 7.88 37.32 5.18 56.08-13.33-2.24-26.68-4.34-40.02-6.48 3.04-26.83-8.58-55.21-30.26-71.52Z"/>
  <path fill="#959898" stroke="#959898" stroke-width=".094" d="M1170.06 1071.91c5.72-14.52 14.92-27.81 27.15-37.59 12.27 6.3 24.36 12.95 36.62 19.28-21.72 16.27-33.31 44.69-30.28 71.51-13.35 2.15-26.7 4.24-40.02 6.48-2.88-20.02-.93-40.83 6.53-59.68Z"/>
  <path fill="#959898" stroke="#959898" stroke-width=".094" d="M924.46 1037.93c6.24 7.82 12.41 15.69 18.45 23.67-23.74 19.14-36.62 50.78-32.57 81.05-9.34 2.17-18.59 4.72-27.93 6.91-2.88-19.14-1.6-39.07 4.74-57.44 7.02-21.1 20.19-40.02 37.31-54.19Z"/>
  <path fill="#959898" stroke="#959898" stroke-width=".094" d="M1056.95 1061.82c6.17-8.27 12.61-16.33 18.99-24.44 13.64 11.16 24.93 25.24 32.5 41.19 10.62 21.96 14.24 47.23 10.21 71.28-9.79-2.33-19.48-5.03-29.29-7.22 3.98-30.1-8.81-61.71-32.41-80.81Z"/>
  <path fill="#ededed" stroke="#ededed" stroke-width=".094" d="M708.39 1049.47c20.35-3.12 42.41 3.41 57.04 18.12 10.79 10.68 17.71 25.08 19.61 40.12 3.02 21.69-4.81 44.57-20.34 59.98-9.92 10.04-23.02 16.91-36.95 19.24-17.73 3.12-36.65-1.53-50.9-12.55-13.45-10.23-22.58-25.75-25.45-42.36-3.86-20.67 2.22-42.87 15.77-58.9 10.37-12.42 25.23-21.04 41.22-23.65Z"/>
  <path fill="#ededed" stroke="#ededed" stroke-width=".094" d="M1269.52 1049.79c18.83-3.76 38.92 1.88 53.72 13.94 13.37 10.69 22.44 26.45 25.36 43.28 3.62 19.4-1.46 40.29-13.71 55.79-8.75 11.15-21.18 19.36-34.9 22.92-18.07 4.85-38.05 1.35-53.59-8.97-15.49-10.08-26.54-26.52-30.4-44.54-4.55-20.05.25-42.05 12.94-58.25 9.8-12.9 24.66-21.48 40.58-24.17Z"/>
  <path fill="#ededed" stroke="#ededed" stroke-width=".094" d="M981.15 1054.85c10.21-2.66 20.92-2.52 31.29-.99 15.54 2.02 30.1 9.55 41.52 20.17 12.59 11.86 21.12 27.93 23.81 45.02 3.36 19.92-1.57 41.01-13.09 57.56-10.94 15.93-27.99 27.45-46.8 31.8-19.64 4.78-41 1.35-58.34-8.93-23.54-13.66-38.8-40.26-38.62-67.46-.15-16.29 4.85-32.55 14.26-45.87 10.84-15.56 27.52-26.92 45.97-31.3Z"/>
  <path fill="#959898" stroke="#959898" stroke-width=".094" d="M611.1 1068.52c10.21 1.53 20.26 4.07 30.54 5.12-2.94 12.53-7.09 24.78-12.64 36.41-9.32-4.2-18.66-8.37-27.87-12.8 4.32-9.19 7.78-18.81 9.97-28.73Z"/>
  <path fill="#959898" stroke="#959898" stroke-width=".094" d="M1358.36 1073.64c10.27-1.05 20.33-3.58 30.54-5.13 2.19 9.93 5.65 19.55 9.97 28.74-9.21 4.43-18.56 8.6-27.87 12.8-5.54-11.63-9.71-23.88-12.64-36.41Z"/>
  <path fill="#959898" stroke="#959898" stroke-width=".094" d="M580.98 1127.1c6.67-6.97 12.18-14.97 16.88-23.37 9.28 4.28 18.59 8.51 27.88 12.76-5.39 9.8-11.64 19.16-19.06 27.55-8.62-5.58-17.13-11.31-25.7-16.94Z"/>
  <path fill="#959898" stroke="#959898" stroke-width=".094" d="M1374.26 1116.49c9.29-4.25 18.6-8.48 27.88-12.76 4.7 8.4 10.2 16.4 16.88 23.37-8.57 5.63-17.09 11.36-25.7 16.94-7.42-8.39-13.68-17.75-19.06-27.55Z"/>
  <path fill="#959898" stroke="#959898" stroke-width=".094" d="M550.59 1145.8c9.32-2.42 17.87-7.23 25.06-13.58 8.74 5.64 17.36 11.46 26.07 17.16-5.72 5.62-12.26 10.86-20.16 12.9-3.72.68-7.94.69-11.01-1.82-6.62-4.94-13.53-9.5-19.96-14.66Z"/>
  <path fill="#959898" stroke="#959898" stroke-width=".094" d="M1424.35 1132.22c7.19 6.35 15.74 11.16 25.06 13.58-6.26 5.05-13.01 9.46-19.44 14.29-4.2 3.56-10.37 3.04-15.13 1-6.39-2.51-11.7-6.98-16.56-11.7 8.7-5.71 17.33-11.52 26.07-17.17Z"/>
  <path fill="#959898" stroke="#959898" stroke-width=".094" d="M795.04 1134.39c13.25 2.03 26.46 4.35 39.73 6.33-5.93 26.39-20.38 51.24-42.04 67.74-9.24-8.68-18.63-17.19-27.82-25.91 15.16-12 26.17-29.2 30.13-48.16Z"/>
  <path fill="#959898" stroke="#959898" stroke-width=".094" d="M1165.23 1140.72c13.26-1.98 26.48-4.3 39.73-6.33 3.92 19.04 15.09 36.15 30.17 48.28-9.36 8.52-18.6 17.18-27.86 25.8-21.66-16.51-36.1-41.36-42.04-67.75Z"/>
  <path fill="#959898" stroke="#959898" stroke-width=".094" d="M883.95 1156.52c9.19-2.19 18.34-4.51 27.5-6.84 4.79 23.51 19.38 44.73 39.56 57.72-6.29 7.12-12.64 14.19-19.08 21.17-24.14-16.93-42.14-43.04-47.98-72.05Z"/>
  <path fill="#959898" stroke="#959898" stroke-width=".094" d="M1084.51 1162.42c1.59-4.18 2.57-8.55 3.85-12.83 9.62 2.58 19.33 4.82 28.97 7.33-6.55 29.02-24.27 55.32-48.85 72.11-6.62-7.2-13.2-14.45-19.62-21.82 16.28-10.58 29.05-26.51 35.65-44.79Z"/>
  <path fill="#6089ff" stroke="#6089ff" stroke-width=".094" d="M620.79 1187.84c2.62-3.22 5.04-7.04 9.2-8.41 6.19 2.71 9.69 8.85 13.43 14.13 9.71 14.99 18.65 30.47 28.87 45.13 7.79 11.45 15.82 22.72 24.04 33.87 4.08 5.72 8.49 11.3 11.46 17.72 1.34 3.05 1.84 7.21-.66 9.84-4.53 5.08-10.73 8.25-16.69 11.35-13.9 6.88-28.32 12.62-42.66 18.48-8.96 3.5-17.9 7.25-27.34 9.26-3.9.81-8.6 1.03-11.53-2.16-4.54-4.79-7.41-10.84-10.35-16.67-7.69-16.08-13.64-33.41-14.11-51.38-.22-18.1 6.79-35.38 15.76-50.78 6.15-10.58 13.07-20.71 20.58-30.38Z"/>
  <path fill="#6089ff" stroke="#6089ff" stroke-width=".094" d="M1358.17 1191.23c3.23-4.53 6.5-9.55 11.83-11.8 4.14 1.36 6.56 5.15 9.18 8.37 8.25 10.65 15.85 21.84 22.42 33.63 5.97 10.75 10.82 22.31 12.9 34.49 3.27 18.92-1.84 38.11-9.03 55.53-3.65 8.33-7.36 16.79-12.95 24.04-2.17 3.03-5.91 4.78-9.64 4.17-9.18-1.08-17.76-4.8-26.35-7.99-16.68-6.78-33.51-13.33-49.55-21.54-5.61-3.11-11.72-6.26-15.32-11.76-2.08-6.29 2.59-11.93 5.7-16.95 11.67-16.36 23.68-32.49 34.76-49.27 9.09-13.38 17.01-27.51 26.05-40.92Z"/>
  <path fill="#6089ff" stroke="#6089ff" stroke-width=".094" d="M534.61 1203.85c3.69-7.2 7.5-15.27 15.04-19.14-8.2 27.48-11.17 56.37-10.05 84.97-3.65-1.52-6.71-5.32-11.02-4.26-.58 1.66-1.68 3.66-.3 5.28 5.91 6.08 15.3 8.19 23.38 5.9 4.31-1.54 8.18-4.28 11.24-7.66 1.44-1.35 1.21-3.59.39-5.19-4.29-3.87-9.83 4.5-13.58-.43-3.41-6.56-2-14.25-2.26-21.35.89-12.2 1.89-24.52 5.17-36.35 1.32-3.85 2.6-8.52 6.6-10.39 3.09-1.01 7.19-.5 9.12 2.41 4.72 6.08 9.98 12.01 12.94 19.21 2.5 6.05.14 12.54-2.06 18.28-4.15 10.13-7.89 20.79-7.61 31.9-.3 10.06 2.22 19.91 3 29.91.3 5.01-.85 10.48-4.55 14.12-3.49 3.11-8.61 4.2-13.1 2.96-7.18-1.81-13.72-5.87-18.73-11.3-11.33-10.65-16.31-26.44-16.88-41.66-.72-19.82 4.95-39.38 13.26-57.21Z"/>
  <path fill="#6089ff" stroke="#6089ff" stroke-width=".094" d="M1450.35 1184.71c7.53 3.88 11.35 11.95 15.05 19.14 8.55 18.37 14.32 38.6 13.17 59.02-.89 14.63-5.93 29.68-16.84 39.9-4.99 5.4-11.51 9.43-18.65 11.24-4.5 1.25-9.64.17-13.13-2.94-3.72-3.63-4.87-9.12-4.56-14.13.78-10.02 3.3-19.9 3-29.99.26-11.08-3.48-21.71-7.61-31.82-2.21-5.76-4.57-12.25-2.06-18.3 2.84-6.99 7.94-12.71 12.47-18.64 2.63-4.4 10.04-4.74 12.8-.27 3.78 6.01 4.83 13.23 6.04 20.1 1.52 10.59 2.82 21.27 2.55 31.98-.04 4.66.07 9.91-2.75 13.86-3.6 3.5-7.79-2.6-11.75-.84-2.45.62-2.63 4.33-.99 5.9 4.35 4.71 10.32 8.65 16.97 8.52 6.27.4 12.54-2.01 17.18-6.19 1.87-1.57.94-3.99.18-5.84-4.32-1.04-7.38 2.75-11.02 4.27 1.1-28.6-1.83-57.49-10.05-84.97Z"/>
  <path fill="#959898" stroke="#959898" stroke-width=".094" d="M674.77 1186.59c16.08 10.58 36.32 14.97 55.28 11.35 9.49-1.57 18.51-5.22 26.87-9.91 9.32 8.6 18.65 17.19 27.9 25.87-18.52 11.39-41.69 16.05-62.83 9.93-20.02-5.34-36.59-19.75-47.22-37.24Z"/>
  <path fill="#959898" stroke="#959898" stroke-width=".094" d="M1294.86 1198.23c10.76-1.58 21.13-5.61 30.25-11.53-9.75 16.1-24.54 29.55-42.51 35.71-22.26 8.04-47.56 3.79-67.43-8.51 9.26-8.68 18.59-17.27 27.92-25.87 15.49 8.91 34.01 13.24 51.77 10.2Z"/>
  <path fill="#6089ff" stroke="#6089ff" stroke-width=".094" d="M846.28 1201.22c5.83-2.71 12.16.36 17.37 3.08 13.53 7.64 24.82 18.48 36.65 28.41 8.54 7.26 17.25 14.33 25.74 21.67-28.03-.09-56.05.17-84.07-.37-19.53-1.3-39.06.94-58.6.6 14.79-13.26 29.08-27.08 44.19-39.99 5.91-4.88 11.75-10.08 18.72-13.4Z"/>
  <path fill="#6089ff" stroke="#6089ff" stroke-width=".094" d="M1138.28 1203.31c4.28-2.08 9.17-4.13 13.98-2.66 5.5 2.06 10.11 5.86 14.71 9.43 17.2 14.1 33.09 29.71 49.66 44.53-13.55.09-27.1-.58-40.63-1.03-9.69-.18-19.35.66-29.03.51-24.34.59-48.69.09-73.03.29 13.44-11.39 27-22.63 40.34-34.13 7.53-6.26 15.23-12.49 24-16.94Z"/>
  <path stroke="#000" stroke-width=".094" d="M629.87 1203.92c1.33-2.91 4.75-3.82 7.43-2.11.16 1.68.52 3.49-.34 5.08-6.02 13.15-9.47 27.31-11.7 41.55-.53 4.09-.57 8.78 1.96 12.28 3.14 3.55 8.45 2.43 12.66 3.08 10.22.58 20.1 5.9 25.95 14.33 1.17 1.49 1.4 3.57.54 5.29-1.46 2.16-5.12 1.91-6.43-.29-3.78-5.44-9.32-9.86-15.93-11.14-6.56-.94-12.49 2.45-18.37 4.74-8.6 3.28-18.55 2.46-26.65-1.82-2.08-1.02-2.38-4.15-.78-5.71 1.16-1.45 3.17-1 4.78-1.12 5.02.32 9.61-3.22 11.5-7.72 3.07-6.98 3.34-14.74 4.83-22.12 2.04-11.81 5.18-23.56 10.55-34.32Z"/>
  <path stroke="#000" stroke-width=".094" d="M1364.13 1201.2c2.64-1.35 5.28 1.07 6.36 3.35 6.28 13 9.37 27.24 11.47 41.44 1.08 6.25 1.78 13.05 5.94 18.14 2.76 3.22 7.1 4.37 11.23 4.01 3.63-.42 5.09 5.27 1.86 6.78-8.58 4.54-19.22 5.12-28.15 1.22-5.56-2.38-11.47-5.25-17.68-3.99-5.24 1.39-10.07 4.43-13.34 8.78-1.48 1.74-2.9 4.49-5.64 3.94-2.97-.06-3.89-3.97-2.41-6.07 5.86-9.14 16.5-14.66 27.28-15.08 4.08-.52 9.5.4 12.15-3.57 2.04-3.46 2.06-7.75 1.56-11.61-2.23-14.26-5.68-28.44-11.7-41.6-.94-1.82-1.14-4.77 1.07-5.74Z"/>
  <path fill="#959898" stroke="#959898" stroke-width=".094" d="M957.37 1211.15c26.07 14.06 59.07 14.04 85.09-.15 6.7 7.27 13.28 14.65 19.86 22.03-15.85 9.42-33.85 15.32-52.25 16.71-10.22-.03-20.55.68-30.62-1.49-14.62-2.58-28.68-8-41.39-15.63 6.38-7.21 12.83-14.35 19.31-21.47Z"/>
  <path fill="#ededed" stroke="#ededed" stroke-width=".094" d="M791.12 1269.77c9.61-.87 19.28-.47 28.92-.55 114.65-.01 229.29-.01 343.94 0 14.61.14 29.24-.37 43.84.43 6.42.58 13.53 2.54 17.43 8.11 4.89 6.99 5.83 15.94 5.35 24.25.04 16.65-.11 33.3-.27 49.95-.25 6.3.31 12.66-.46 18.93-.11 42.71-.21 85.43-.6 128.14-.39 1.59.87 4.19-1.13 4.98l1.01.69c-.78 10.42-.17 20.89-.37 31.33.06 16.35-.13 32.69-.14 49.04.21 5.66-2.82 10.95-6.62 14.94-7.78 7.38-18.37 10.53-28.49 13.19-22.54 5.48-45.62 8.27-68.6 11.18-23.91 2.37-47.93 3.42-71.92 4.73-49.5 2.62-99.14 1.07-148.56-2.49-24.32-1.03-48.46-4.47-72.49-8.25-13.93-2.47-28.03-4.9-41.19-10.24-8.88-3.64-17.74-10.4-19.31-20.46-.32-25.22-.23-50.44-.25-75.66-.02-2.98.21-5.98-.36-8.89-.52-43.03-.71-86.07-.61-129.1.03-1.41-.13-2.78-.49-4.11.13-.46.39-1.38.51-1.83-.83-2.62-.46-5.38-.53-8.06-.12-16.34-.31-32.67-.35-49.01.23-10.52-1.45-21.88 4.17-31.41 3.35-6.42 10.74-9.18 17.57-9.83Z"/>
  <path stroke="#000" stroke-width=".094" d="M792.5 1277.66c8.69-1.59 17.74 6.5 16.99 15.38.08 9.34-10.37 16.76-19.14 13.52-7.77-2.15-12.3-11.31-9.62-18.84 1.54-5.31 6.37-9.23 11.77-10.06Z"/>
  <path stroke="#000" stroke-width=".094" d="M1203.49 1277.54c8.31-1.16 16.63 5.93 16.49 14.42.66 8.92-8.28 16.87-17.05 15.11-7.11-1.01-12.89-7.79-12.42-15.01-.1-7.24 6.05-13.38 12.98-14.52Z"/>
  <path fill="#6089ff" stroke="#6089ff" stroke-width=".094" d="M735.71 1310.53c4.82-9.89 11.94-18.37 18.93-26.76.2 8.41-.48 16.81-1 25.21.18 14.85-.95 29.69-1.04 44.54-7.24-7.13-15.64-14.05-18.89-24.04-2.26-6.27-.83-13.13 2-18.95Z"/>
  <path fill="#6089ff" stroke="#6089ff" stroke-width=".094" d="M1245.35 1283.77c6.72 8.04 13.5 16.17 18.34 25.53 3.05 5.94 4.97 12.99 2.8 19.57-3.1 10.29-11.71 17.38-19.09 24.65-.07-12.5-.9-24.98-1.05-37.48.31-10.78-1.42-21.49-1-32.27Z"/>
  <path fill="#959898" stroke="#959898" stroke-width=".094" d="M792.26 1285.34c5.64-2.39 12.11 3.92 9.7 9.59-1.68 5.88-10.63 7.01-13.61 1.62-2.96-3.94-.42-9.61 3.91-11.21Z"/>
  <path fill="#959898" stroke="#959898" stroke-width=".094" d="M1202.32 1285.45c5.74-2.73 12.92 4.18 9.94 9.93-1.89 5.36-9.87 6.33-13.07 1.71-3.14-3.7-1.42-10.04 3.13-11.64Z"/>
  <path fill="#6089ff" stroke="#6089ff" stroke-width=".094" d="M540.35 1353.46c1.85-2.46 4.22-5.36 7.62-5.25 7.76-.59 15.03 2.77 21.96 5.83 9.61 4.72 18.99 9.94 28.67 14.54-5.42 1.92-10.17 5.23-15.27 7.82-18.74 11.12-29.05 32.27-33.15 53.01-4.77-4.15-9.32-8.72-12.2-14.43-6.61-11.75-6.93-25.83-5.31-38.89 1.25-7.87 3.1-15.96 7.68-22.63Z"/>
  <path fill="#6089ff" stroke="#6089ff" stroke-width=".094" d="M1430.08 1354.03c7.44-3.29 15.42-6.95 23.78-5.6 3.33 1.25 5.49 4.4 7.27 7.35 5.2 9.5 6.56 20.5 7.09 31.16-.07 9.89-1.4 20.14-6.6 28.76-2.85 5.41-7.25 9.72-11.8 13.7-4.11-20.76-14.44-41.94-33.22-53.04-5.1-2.57-9.82-5.91-15.24-7.77 9.7-4.59 19.08-9.83 28.72-14.56Z"/>
  <path fill="#959898" stroke="#959898" stroke-width=".094" d="M620.19 1370.34c8.59-3.09 16.52-7.74 24.98-11.13 6.49-2.14 13.61-.17 19.29 3.29 8.89 5.47 17.15 11.99 24.46 19.46-9.21 4.98-18.32 10.13-27.6 14.98-10.52-12.77-24.68-23.25-41.13-26.6Z"/>
  <path fill="#959898" stroke="#959898" stroke-width=".094" d="M1335.57 1362.48c5.67-3.45 12.79-5.42 19.28-3.26 8.48 3.41 16.44 8.05 25.05 11.17-16.55 3.17-30.68 13.85-41.28 26.57-9.22-4.94-18.36-10-27.54-15 7.31-7.48 15.59-14 24.49-19.48Z"/>
  <path fill="#ededed" stroke="#ededed" stroke-width=".094" d="M603.52 1380.88c16.06-2.57 31.96 5.38 43.13 16.47 15.74 15.45 24.93 36.61 28.61 58.14 3.53 21.65 1.44 44.91-9.27 64.36-6.96 12.73-19.07 23.55-33.83 25.57-15.33 2.27-30.55-4.78-41.46-15.21-15.14-14.28-24.61-33.82-28.84-54.03-4.62-21.19-3.54-44.07 5.31-64.05 6.65-15.03 19.74-28.21 36.35-31.25Z"/>
  <path fill="#ededed" stroke="#ededed" stroke-width=".094" d="M1384.02 1380.9c10.68-2.03 21.7 1.57 30.38 7.79 11.47 8.59 19.04 21.5 22.7 35.22 6.36 22.76 4.23 47.35-3.9 69.37-5.86 15.56-15.16 30.16-28.2 40.66-9.53 7.65-21.67 12.68-34.04 11.79-9.05-.46-17.67-4.43-24.47-10.3-10.02-8.69-16.27-20.96-19.77-33.59-6.36-23.47-3.94-48.86 5.02-71.33 6.02-14.9 15.22-28.85 28.04-38.75 7.07-5.45 15.36-9.49 24.24-10.86Z"/>
  <path stroke="#000" stroke-width=".094" d="M1142.54 1387.62c18.33-1.56 37.36 5.32 50.29 18.49 11.73 11.72 18.66 28.24 18.19 44.88.25 19.16-9.33 37.96-24.54 49.51-13.63 10.58-31.74 15-48.72 12.11-17.99-2.9-34.38-14.11-43.63-29.81-8.9-14.61-10.98-32.9-6.52-49.33 3.89-14.05 12.95-26.57 24.96-34.83 8.88-6.04 19.28-9.88 29.97-11.02Z"/>
  <path fill="#959898" stroke="#959898" stroke-width=".094" d="M665.76 1402.71c9.34-5.14 18.65-10.32 28.08-15.27a140.076 140.076 0 0 1 25.44 44.05c-11.89 3.27-23.77 6.57-35.65 9.89-3.74-13.77-9.65-26.98-17.87-38.67Z"/>
  <path fill="#959898" stroke="#959898" stroke-width=".094" d="M1280.71 1431.49c5.73-16.07 14.36-31.08 25.45-44.05 9.43 4.95 18.74 10.13 28.07 15.28-8.22 11.68-14.13 24.89-17.86 38.66-11.89-3.32-23.77-6.63-35.66-9.89Z"/>
  <path stroke="#000" stroke-width=".094" d="M806.57 1395.71c2.93-1.55 6.27-1.09 9.46-1.12 58.32.04 116.64-.05 174.96.04 2.44-.21 4.57 1.8 4.41 4.28.13 34.04-.09 68.08.11 102.12.36 3.01-3.08 4.03-5.47 3.83-58.02.01-116.03-.02-174.04.02-2.87-.07-5.95.25-8.56-1.17-1.72-.89-1.8-3.06-1.79-4.71 0-32.69.02-65.37-.01-98.05-.12-1.82.42-3.54.93-5.24Z"/>
  <path fill="#959898" stroke="#959898" stroke-width=".094" d="M1142.84 1395a57.664 57.664 0 0 1 34.03 7.52c-.87 1.79-1.71 3.6-2.55 5.42-8.84-3.03-18.33-4.33-27.52-2.16-1.34-3.6-2.62-7.2-3.96-10.78Z"/>
  <path fill="#959898" stroke="#959898" stroke-width=".094" d="M1097.03 1428.15c6.87-16.06 21.67-28.14 38.63-32.11 1.41 3.92 2.83 7.85 4.32 11.76-11.73 4.76-21.36 14.25-26.48 25.82-5.5-1.79-11-3.58-16.47-5.47Z"/>
  <path fill="#959898" stroke="#959898" stroke-width=".094" d="M1182.77 1406.8c7.96 6.28 14.63 14.76 17.54 24.57-4.83-8.17-11.15-15.6-19.5-20.32.64-1.43 1.28-2.86 1.96-4.25Z"/>
  <path fill="#ededed" stroke="#ededed" stroke-width=".094" d="M1153.15 1412.22c16.38-2.11 33.36 7.26 40.46 22.13 8.71 16.55 3.77 38.71-11.1 50.04-13.36 10.9-33.69 11.68-47.88 1.91-8.68-5.78-14.97-14.99-17.12-25.2-2.7-11.2.22-23.43 6.98-32.65 6.65-9.2 17.49-14.87 28.66-16.23Z"/>
  <path stroke="#000" stroke-width=".094" d="M1013.1 1428.95c-.29-2.36 1.41-4.43 3.86-4.26 13.67-.18 27.35-.01 41.03-.07 3.46.04 7.08-.45 10.34 1.06 1.28 8.37.37 16.89.64 25.33-.04 9.35.09 18.71-.05 28.06.15 1.77-1 3.78-2.97 3.69-16.01-.03-32.02.01-48.02-.03-2.22.19-4.94-1.02-4.92-3.54.12-16.75-.04-33.5.09-50.24Z"/>
  <path fill="#959898" stroke="#959898" stroke-width=".094" d="M1019.99 1431.35c14.01.01 28.03 0 42.05 0 .02 14.77.02 29.54 0 44.31-14.02.02-28.04-.01-42.05.01-.02-14.77-.02-29.55 0-44.32Z"/>
  <path fill="#959898" stroke="#959898" stroke-width=".094" d="M1094.46 1434.98c5.67 1.51 11.13 3.68 16.76 5.36-3.78 14.09-.63 29.77 8.3 41.31-3.8 2.61-7.61 5.2-11.45 7.74-13.72-14.09-19.1-35.51-13.61-54.41Z"/>
  <path fill="#959898" stroke="#959898" stroke-width=".094" d="M685.24 1448.4c12.06-3.48 24.18-6.75 36.28-10.1 5.68 18.77 6.84 38.84 3.75 58.18-13.23-.06-26.4 1.33-39.62 1.17 1.73-7.45 1.95-15.12 2.62-22.7-.57-8.89-1.11-17.83-3.03-26.55Z"/>
  <path fill="#959898" stroke="#959898" stroke-width=".094" d="M1274.73 1496.48c-3.08-19.34-1.94-39.41 3.75-58.18 12.1 3.34 24.22 6.63 36.28 10.1-1.49 6.8-2.2 13.73-2.6 20.68-.65 4.11-.36 8.27.14 12.39.27 5.43.83 10.86 2.06 16.18-13.23.18-26.41-1.23-39.63-1.17Z"/>
  <path fill="#959898" stroke="#959898" stroke-width=".094" d="M1124.37 1487.07c8.52 8.19 20.04 12.53 31.73 13.34.06 1.78.14 3.58.23 5.4-15.02 2.36-30.82-2.18-42.77-11.48 3.6-2.42 7.17-4.89 10.81-7.26Z"/>
  <path fill="#959898" stroke="#959898" stroke-width=".094" d="M1163.44 1499.79c10.14-1.29 19.62-6 27.03-12.99-6.85 8.53-16.64 14.33-27.02 17.49-.03-1.53-.02-3.01-.01-4.5Z"/>
  <path fill="#959898" stroke="#959898" stroke-width=".094" d="M683.93 1505.08c13.29-.84 26.61-.79 39.89-1.76-2.78 11.02-7.09 21.71-13.28 31.27-3.39 5.06-6.85 10.68-12.62 13.31-7.16 3.24-15.24 2.89-22.9 2.42-6.61-.57-13.2-1.44-19.78-2.23 14.63-10.03 24.03-26.15 28.69-43.01Z"/>
  <path fill="#959898" stroke="#959898" stroke-width=".094" d="M1276.19 1503.33c13.28.95 26.59.92 39.88 1.75 4.66 16.86 14.06 32.98 28.69 43.01-12.69 1.26-25.66 4.18-38.32 1.33-5.57-1.15-10.14-4.9-13.3-9.48-8.1-10.88-13.69-23.48-16.95-36.61Z"/>
  <path stroke="#000" stroke-width=".094" d="M849.22 1532.14c11.44-3.26 24.14 3.07 29.13 13.7 3.69 8 2.97 18.04-2.28 25.21-4.69 6.68-12.86 10.77-21.04 10.28-11.15.12-21.36-8.58-23.67-19.37-3.24-12.56 5.32-26.69 17.86-29.82Z"/>
  <path stroke="#000" stroke-width=".094" d="M940.12 1532.16c11.46-3.3 24.21 3.01 29.22 13.66 4.26 9.09 2.59 20.75-4.53 27.96-7.8 8.48-21.73 10.05-31.36 3.84-7.02-4.37-11.53-12.36-11.76-20.61-.29-11.11 7.59-22.06 18.43-24.85Z"/>
  <path fill="#959898" stroke="#959898" stroke-width=".094" d="M850.4 1539.47c4.56-1.7 9.63-.81 13.96 1.16 7.39 3.84 11.31 13.32 8.52 21.23-2.68 9.2-13.69 15.2-22.76 11.71-8.75-2.6-14.33-12.65-11.82-21.44 1.33-6.1 6.22-10.85 12.1-12.66Z"/>
  <path fill="#959898" stroke="#959898" stroke-width=".094" d="M941.45 1539.45c4.57-1.68 9.63-.77 13.96 1.2 7.38 3.88 11.27 13.36 8.45 21.26-2.76 9.44-14.27 15.39-23.43 11.42-8.89-3.03-14.03-13.8-10.71-22.6 1.63-5.53 6.35-9.57 11.73-11.28Z"/>
  <path stroke="#000" stroke-width=".094" d="M787.4 1574.69c5.91-2.73 13.76-1.06 17.18 4.73 5.1 7.53-.17 19.64-9.58 19.96-7.34 1.22-14.76-4.93-14.56-12.42-.55-5.07 2.36-10.14 6.96-12.27Z"/>
  <path stroke="#000" stroke-width=".094" d="M1201.35 1574.37c6.19-2.5 14.32-.09 17.16 6.23 1.9 4.76 1.42 10.84-2.2 14.7-5.17 5.99-16 5.52-20.43-1.12-4.77-6.47-2.19-16.88 5.47-19.81Z"/>
  <path fill="#959898" stroke="#959898" stroke-width=".094" d="M792.41 1580.48c4.46-.99 8.86 4.3 6.56 8.45-1.61 4.08-7.64 4.86-10.22 1.31-3-3.34-.49-8.93 3.66-9.76Z"/>
  <path fill="#959898" stroke="#959898" stroke-width=".094" d="M1205.52 1580.49c5.03-1.11 9.32 5.84 5.73 9.75-2.42 3.27-7.92 2.95-9.86-.64-2.48-3.42.11-8.54 4.13-9.11Z"/>
  <path fill="#6089ff" stroke="#6089ff" stroke-width=".094" d="M831.31 1724.8c-70.45-24.13-132.71-69.31-180.88-125.75 16.49 6.94 33.84 11.51 51.02 16.37 25.7 7 51.69 13.02 78.01 17.2 7.37 19.35 16.73 37.9 27.26 55.72 7.52 12.58 15.41 25.01 24.59 36.46Z"/>
  <path fill="#6089ff" stroke="#6089ff" stroke-width=".094" d="M1295.95 1616.12c18.06-5.06 36.29-9.81 53.62-17.07-48.18 56.43-110.42 101.63-180.88 125.75 10.06-12.59 18.65-26.31 26.78-40.21 9.64-16.66 18.21-33.97 25.07-51.97 25.43-4.04 50.56-9.8 75.41-16.5Z"/>
  <path fill="#6089ff" stroke="#6089ff" stroke-width=".094" d="M791.32 1634.42c36.21 5.49 72.64 9.93 109.21 11.89 5.14 22.19 12.21 43.93 21.25 64.84 5.79 13.29 12.26 26.37 20.41 38.39-29.5-3.24-58.61-9.48-87.21-17.36-2.43-.71-5.15-1.23-6.8-3.33-10.41-11.23-18.97-24-27.16-36.89-11.36-18.37-21.66-37.47-29.7-57.54Z"/>
  <path fill="#6089ff" stroke="#6089ff" stroke-width=".094" d="M1099.47 1646.31c36.57-1.96 73-6.39 109.21-11.89-7.4 18.52-16.76 36.19-27.06 53.24-8.27 13.44-17.02 26.69-27.43 38.6-1.87 2.03-3.64 4.52-6.51 5.15-29.43 8.31-59.46 14.76-89.87 18.13 9.55-14.12 16.84-29.63 23.36-45.34a384.871 384.871 0 0 0 18.3-57.89Z"/>
  <path fill="#6089ff" stroke="#6089ff" stroke-width=".094" d="M911.51 1647.52c23.77 2.38 47.64 3.53 71.51 4.34 35.21.7 70.43-1.06 105.47-4.34-5.65 22.98-13.22 45.52-23.19 66.99-6.05 12.68-12.46 25.5-21.45 36.35-28.84 3.02-58.04 2.7-86.94.25-1.3-.2-1.9-1.53-2.67-2.37-9.42-12.99-16.68-27.39-23.07-42.06-8.23-19.11-14.7-38.96-19.66-59.16Z"/>
</svg>
