<svg
  width="100%"
  height="100%"
  viewBox="0 0 2000 2000"
  version="1.1"
  xmlns="http://www.w3.org/2000/svg"
>
  <path
    fill="#6089ff"
    stroke="#6089ff"
    stroke-width="0.09375"
    opacity="1.00"
    d=" M 0.00 0.00 L 2000.00 0.00 L 2000.00 2000.00 L 0.00 2000.00 L 0.00 0.00 Z"
  />
  <path
    fill="#000000"
    stroke="#000000"
    stroke-width="0.09375"
    opacity="1.00"
    d=" M 992.38 250.33 C 997.37 246.94 1004.16 247.54 1008.89 251.11 C 1020.75 259.43 1028.51 272.15 1035.35 284.64 C 1055.95 324.29 1069.46 367.86 1073.53 412.41 C 1086.28 396.92 1100.37 382.48 1115.88 369.73 C 1122.67 364.37 1129.74 358.94 1138.09 356.27 C 1144.04 354.75 1151.08 354.96 1156.00 359.07 C 1160.70 362.74 1163.07 368.61 1163.72 374.41 C 1187.38 349.04 1214.90 327.31 1244.98 310.05 C 1255.63 303.99 1266.58 298.38 1278.14 294.24 C 1286.44 291.24 1295.18 288.73 1304.10 289.41 C 1310.53 289.68 1317.15 293.21 1319.84 299.26 C 1321.78 303.21 1321.58 307.77 1321.14 312.03 C 1319.45 321.04 1314.72 329.08 1309.74 336.64 C 1300.09 350.99 1289.36 364.62 1280.59 379.55 C 1272.96 392.19 1266.71 405.57 1260.34 418.86 C 1290.95 398.82 1323.91 382.33 1358.55 370.48 C 1382.60 362.03 1407.52 355.55 1433.00 353.64 C 1443.20 353.36 1453.90 353.19 1463.35 357.65 C 1468.84 360.24 1473.65 365.61 1473.45 372.01 C 1474.00 379.63 1469.76 386.46 1465.23 392.20 C 1455.70 403.63 1444.51 413.52 1433.42 423.40 C 1420.04 435.36 1406.33 446.96 1392.98 458.95 C 1377.82 472.78 1363.90 487.86 1350.09 503.00 C 1340.90 513.30 1332.36 524.15 1323.71 534.91 C 1345.96 528.34 1368.39 522.38 1390.99 517.19 C 1424.29 509.55 1458.66 504.97 1492.83 508.07 C 1502.11 509.18 1511.41 511.14 1519.90 515.17 C 1524.16 517.24 1528.30 520.20 1530.48 524.54 C 1532.67 529.49 1531.06 535.47 1527.16 539.09 C 1520.42 545.59 1511.54 549.10 1503.30 553.25 C 1485.66 561.38 1468.19 569.91 1451.19 579.33 C 1405.40 604.72 1361.46 634.22 1323.86 670.86 C 1320.15 674.07 1320.89 680.92 1326.11 681.99 C 1336.22 684.53 1346.66 681.16 1356.92 681.58 C 1382.95 679.69 1409.15 680.64 1435.02 684.02 C 1453.45 686.75 1471.98 690.42 1489.16 697.82 C 1498.13 701.82 1506.88 707.20 1512.76 715.25 C 1515.90 719.49 1517.63 725.04 1516.22 730.26 C 1515.15 734.35 1511.66 737.35 1507.85 738.89 C 1499.99 742.15 1491.32 741.60 1483.01 742.27 C 1450.13 742.11 1416.95 745.60 1385.47 755.46 C 1376.21 758.29 1367.38 762.33 1358.55 766.27 C 1366.52 768.88 1374.61 772.48 1380.25 778.91 C 1384.44 783.55 1386.96 790.38 1384.45 796.44 C 1381.74 802.51 1375.14 805.43 1369.02 806.77 C 1360.71 808.45 1352.23 808.98 1343.89 810.46 C 1327.19 813.14 1310.19 817.31 1296.09 827.07 C 1289.10 831.63 1282.86 837.28 1277.65 843.80 C 1306.56 861.04 1332.80 882.67 1355.10 907.89 C 1371.63 926.24 1385.61 946.71 1398.42 967.78 C 1414.24 970.23 1430.70 970.67 1445.97 976.08 C 1462.40 981.97 1475.44 994.77 1484.68 1009.28 C 1499.96 1033.29 1507.36 1061.69 1508.36 1089.97 C 1507.81 1101.18 1506.58 1112.64 1501.97 1123.00 C 1498.29 1131.69 1492.49 1139.26 1486.21 1146.22 C 1481.35 1151.47 1477.73 1157.90 1475.86 1164.81 C 1473.87 1173.27 1475.81 1182.11 1479.11 1189.99 C 1484.50 1202.53 1490.08 1215.10 1493.41 1228.39 C 1495.83 1237.74 1496.96 1247.38 1497.32 1257.01 C 1496.84 1267.03 1495.34 1277.11 1491.49 1286.44 C 1488.11 1295.72 1481.60 1303.53 1478.87 1313.07 C 1476.34 1320.35 1475.80 1328.16 1476.66 1335.79 C 1478.38 1347.85 1483.55 1359.04 1486.03 1370.93 C 1488.42 1381.98 1488.81 1393.55 1486.48 1404.64 C 1484.23 1415.08 1479.08 1424.56 1473.66 1433.65 C 1469.33 1440.81 1465.65 1448.54 1464.45 1456.90 C 1463.19 1465.58 1462.70 1474.39 1460.82 1482.98 C 1456.20 1504.22 1446.35 1524.55 1431.34 1540.40 C 1420.88 1550.93 1409.38 1560.64 1400.98 1573.01 C 1379.47 1604.49 1354.98 1634.11 1326.56 1659.60 C 1272.79 1708.54 1206.83 1743.42 1136.86 1762.73 C 1095.22 1774.23 1052.16 1780.66 1009.00 1781.79 C 1003.34 1782.26 997.65 1782.28 992.00 1781.87 C 910.23 1779.63 828.38 1759.27 756.75 1719.28 C 720.65 1699.17 687.24 1674.19 658.02 1644.97 C 640.00 1627.11 623.81 1607.48 608.86 1587.01 C 603.34 1579.55 598.49 1571.59 592.48 1564.50 C 582.38 1552.32 569.22 1542.97 560.00 1530.03 C 547.68 1513.08 539.93 1492.90 537.40 1472.12 C 536.27 1463.96 536.07 1455.56 533.26 1447.73 C 529.32 1436.68 521.70 1427.45 517.37 1416.57 C 510.20 1400.18 510.74 1381.39 515.57 1364.44 C 518.75 1352.75 523.93 1341.27 523.67 1328.94 C 523.88 1317.91 519.72 1307.27 514.09 1297.97 C 505.17 1282.69 501.21 1264.50 503.37 1246.92 C 505.03 1226.35 513.39 1207.25 521.47 1188.54 C 525.23 1179.21 526.59 1168.23 522.07 1158.92 C 518.21 1149.18 509.57 1142.70 504.07 1134.03 C 496.83 1123.46 493.06 1110.83 492.26 1098.11 C 490.92 1089.76 492.22 1081.37 492.99 1073.05 C 494.93 1059.18 498.06 1045.40 503.46 1032.44 C 509.76 1017.24 518.08 1002.54 530.13 991.14 C 538.50 983.07 548.88 977.10 560.13 974.13 C 573.70 970.64 587.79 969.81 601.57 967.79 C 612.46 949.96 624.07 932.49 637.51 916.45 C 655.88 894.54 676.80 874.65 700.25 858.22 C 707.45 853.17 714.84 848.39 722.35 843.80 C 714.56 833.95 704.25 826.34 693.05 820.82 C 675.48 812.60 655.98 810.26 636.96 807.82 C 630.19 806.85 622.77 805.36 617.94 800.10 C 613.57 795.52 613.69 788.11 616.90 782.93 C 622.08 773.98 632.00 769.36 641.44 766.26 C 632.84 762.45 624.27 758.49 615.26 755.69 C 583.57 745.65 550.13 742.11 516.99 742.27 C 508.16 741.55 498.81 742.24 490.65 738.19 C 486.42 736.15 483.26 731.84 483.31 727.06 C 482.97 719.02 488.76 712.45 494.53 707.59 C 506.97 697.52 522.67 692.88 537.94 689.07 C 556.30 684.77 575.08 682.16 593.92 681.42 C 618.25 679.37 642.66 681.57 666.96 682.98 C 670.42 682.96 674.31 682.57 677.01 680.17 C 679.68 677.56 678.47 673.26 676.15 670.87 C 636.20 631.98 589.21 601.08 540.29 574.70 C 524.30 566.07 507.77 558.48 491.37 550.67 C 484.52 547.17 477.18 543.93 471.95 538.10 C 467.90 533.86 467.26 526.58 471.10 522.00 C 475.09 516.98 481.21 514.38 487.12 512.34 C 503.15 506.97 520.30 506.92 537.02 507.23 C 571.21 508.06 604.78 515.66 637.75 524.23 C 650.64 527.62 663.52 531.06 676.29 534.90 C 665.75 521.78 655.33 508.53 643.75 496.30 C 629.77 480.96 615.33 465.99 599.65 452.37 C 585.93 440.43 572.22 428.48 558.66 416.36 C 550.86 409.17 543.07 401.92 536.15 393.87 C 531.02 387.73 525.99 380.40 526.55 372.02 C 526.35 366.44 530.08 361.50 534.69 358.73 C 540.22 355.42 546.75 354.31 553.07 353.67 C 573.71 352.70 594.21 356.80 614.10 361.95 C 638.62 368.68 662.51 377.67 685.56 388.40 C 704.28 397.26 722.27 407.62 739.66 418.86 C 731.31 401.18 722.73 383.52 711.68 367.34 C 703.25 354.50 693.52 342.53 685.69 329.30 C 681.05 321.13 676.94 311.64 679.16 302.07 C 680.79 294.90 687.78 290.04 694.88 289.49 C 706.48 288.36 717.69 292.52 728.29 296.71 C 744.84 303.65 760.44 312.72 775.35 322.69 C 797.60 337.45 818.03 354.92 836.27 374.40 C 836.98 367.15 840.87 359.69 847.85 356.75 C 854.42 354.21 861.95 355.44 868.03 358.79 C 878.03 364.08 886.63 371.60 894.98 379.15 C 906.28 389.43 916.77 400.61 926.47 412.41 C 929.40 379.64 937.62 347.39 949.85 316.88 C 955.66 302.56 962.01 288.40 970.06 275.18 C 975.97 265.74 982.80 256.34 992.38 250.33 Z"
  />
  <path
    fill="#6089ff"
    stroke="#6089ff"
    stroke-width="0.09375"
    opacity="1.00"
    d=" M 976.41 319.16 C 982.65 303.10 990.11 287.40 1000.00 273.24 C 1015.67 295.97 1025.71 322.06 1033.30 348.45 C 1040.88 376.12 1045.75 404.47 1049.54 432.88 C 1051.90 451.17 1047.57 470.20 1037.90 485.87 C 1035.15 489.85 1031.46 494.90 1025.97 494.20 C 1017.75 492.84 1011.05 487.21 1003.13 484.92 C 1001.08 484.26 998.89 484.26 996.86 484.92 C 988.94 487.22 982.24 492.84 974.03 494.21 C 968.53 494.90 964.85 489.86 962.11 485.88 C 953.85 472.52 949.48 456.70 949.85 440.99 C 949.91 434.87 951.13 428.86 951.82 422.79 C 957.08 387.67 963.53 352.40 976.41 319.16 Z"
  />
  <path
    fill="#6089ff"
    stroke="#6089ff"
    stroke-width="0.09375"
    opacity="1.00"
    d=" M 707.31 314.97 C 724.25 321.23 740.11 330.12 755.35 339.74 C 784.41 358.11 810.15 381.36 832.40 407.50 C 840.02 416.18 844.81 427.33 845.68 438.87 C 846.44 447.90 846.50 456.98 846.96 466.03 C 847.68 472.34 847.66 478.70 847.89 485.05 C 848.68 495.68 849.48 506.35 848.88 517.01 C 848.40 522.55 847.91 528.67 844.03 533.01 C 841.74 535.37 838.23 534.43 835.62 533.25 C 828.56 530.09 822.52 525.18 816.32 520.67 C 808.43 514.92 801.39 507.64 797.35 498.65 C 793.19 489.50 790.79 479.70 787.94 470.10 C 783.47 454.39 777.57 439.13 770.93 424.21 C 754.08 385.48 732.47 348.86 707.31 314.97 Z"
  />
  <path
    fill="#6089ff"
    stroke="#6089ff"
    stroke-width="0.09375"
    opacity="1.00"
    d=" M 1252.69 334.75 C 1265.49 327.18 1278.68 320.07 1292.69 314.97 C 1270.09 345.39 1250.40 378.01 1234.39 412.37 C 1225.87 430.87 1217.89 449.69 1212.29 469.30 C 1209.18 479.64 1206.73 490.29 1201.97 500.05 C 1197.76 508.66 1190.76 515.56 1183.07 521.13 C 1176.61 525.78 1170.35 530.99 1162.83 533.84 C 1160.42 534.88 1157.28 534.79 1155.56 532.58 C 1152.08 528.22 1151.56 522.42 1151.13 517.07 C 1150.22 502.36 1152.38 487.71 1152.49 473.01 C 1153.55 461.66 1153.36 450.23 1154.32 438.87 C 1155.17 427.56 1159.79 416.58 1167.19 407.99 C 1177.53 395.80 1188.68 384.31 1200.42 373.46 C 1216.47 358.82 1234.13 346.01 1252.69 334.75 Z"
  />
  <path
    fill="#6089ff"
    stroke="#6089ff"
    stroke-width="0.09375"
    opacity="1.00"
    d=" M 550.67 374.25 C 569.96 374.65 588.70 379.95 607.28 384.72 C 644.68 394.52 680.06 411.01 713.10 430.91 C 729.43 440.97 745.42 451.62 760.53 463.46 C 763.99 466.27 767.87 469.06 769.55 473.38 C 771.18 477.04 769.19 482.21 765.04 483.01 C 761.02 484.04 757.33 481.69 753.75 480.28 C 747.27 477.60 741.04 474.09 734.08 472.81 C 729.68 471.98 724.54 472.96 721.78 476.76 C 718.32 481.35 719.14 487.49 719.71 492.84 C 721.71 504.32 724.86 515.57 728.16 526.74 C 730.24 534.09 733.29 541.27 734.02 548.94 C 734.05 551.94 733.42 556.11 730.04 557.06 C 725.79 557.57 722.00 554.54 719.95 551.06 C 699.49 521.10 676.54 492.85 651.32 466.76 C 638.17 453.22 624.83 439.84 610.97 427.02 C 596.51 413.42 581.24 400.72 565.94 388.09 C 560.62 383.74 555.54 379.10 550.67 374.25 Z"
  />
  <path
    fill="#6089ff"
    stroke="#6089ff"
    stroke-width="0.09375"
    opacity="1.00"
    d=" M 1420.89 377.85 C 1430.26 375.93 1439.75 374.30 1449.34 374.25 C 1436.27 387.27 1421.26 398.11 1407.53 410.39 C 1379.29 435.09 1352.63 461.62 1327.65 489.61 C 1309.98 509.58 1293.92 530.92 1278.76 552.85 C 1276.43 556.04 1270.72 559.15 1267.56 555.45 C 1264.58 550.63 1266.59 544.75 1267.84 539.71 C 1272.24 525.66 1276.54 511.54 1279.52 497.10 C 1280.58 491.69 1281.43 486.00 1280.15 480.56 C 1278.86 475.71 1274.02 472.25 1269.02 472.57 C 1261.10 472.79 1254.14 477.05 1246.98 479.96 C 1243.16 481.43 1239.29 484.05 1235.02 483.03 C 1230.83 482.26 1228.80 477.06 1230.45 473.37 C 1232.02 469.28 1235.63 466.56 1238.92 463.90 C 1252.43 453.21 1266.75 443.59 1281.30 434.37 C 1311.05 415.86 1342.76 400.19 1376.19 389.53 C 1390.90 384.95 1405.83 381.10 1420.89 377.85 Z"
  />
  <path
    fill="#6089ff"
    stroke="#6089ff"
    stroke-width="0.09375"
    opacity="1.00"
    d=" M 857.78 380.79 C 871.82 390.26 884.00 402.15 895.52 414.47 C 912.56 433.10 927.80 453.34 941.27 474.68 C 950.42 489.28 958.78 504.40 965.64 520.22 C 950.29 542.13 939.59 566.93 931.11 592.20 C 927.78 602.33 924.78 612.58 922.32 622.96 C 906.51 601.29 887.68 582.06 868.32 563.57 C 868.10 557.97 866.40 552.59 865.59 547.08 C 861.90 524.81 860.15 502.26 858.97 479.75 C 858.24 473.50 858.34 467.20 858.19 460.93 C 857.33 452.99 857.41 445.00 857.27 437.03 C 857.25 418.29 857.22 399.53 857.78 380.79 Z"
  />
  <path
    fill="#6089ff"
    stroke="#6089ff"
    stroke-width="0.09375"
    opacity="1.00"
    d=" M 1090.56 430.52 C 1105.86 412.13 1122.41 394.39 1142.22 380.78 C 1142.67 396.50 1142.77 412.23 1142.74 427.96 C 1142.68 438.30 1142.86 448.67 1141.97 458.99 C 1140.97 487.06 1139.24 515.17 1135.09 542.99 C 1134.21 549.89 1132.10 556.61 1131.68 563.58 C 1112.31 582.06 1093.49 601.29 1077.68 622.96 C 1073.22 604.50 1067.42 586.35 1060.24 568.77 C 1053.22 551.80 1044.98 535.24 1034.36 520.22 C 1048.64 487.81 1068.25 457.94 1090.56 430.52 Z"
  />
  <path
    fill="#6089ff"
    stroke="#6089ff"
    stroke-width="0.09375"
    opacity="1.00"
    d=" M 730.43 483.55 C 739.15 484.78 746.75 489.62 754.37 493.70 C 782.59 510.05 809.60 528.52 834.88 549.12 C 853.95 564.55 871.68 581.65 887.80 600.14 C 898.13 612.03 907.52 625.53 910.88 641.18 C 913.33 652.59 913.20 664.53 910.88 675.95 C 909.02 684.00 904.90 692.53 896.87 695.93 C 886.68 700.17 875.39 698.10 864.85 696.54 C 848.80 693.50 832.44 689.98 818.04 681.96 C 802.79 673.04 794.09 656.89 786.34 641.65 C 773.04 614.59 761.45 586.74 750.69 558.59 C 743.37 538.85 736.77 518.80 732.09 498.26 C 731.06 493.43 729.83 488.52 730.43 483.55 Z"
  />
  <path
    fill="#6089ff"
    stroke="#6089ff"
    stroke-width="0.09375"
    opacity="1.00"
    d=" M 1240.55 496.64 C 1249.79 491.50 1258.91 485.42 1269.47 483.46 C 1270.37 490.39 1268.00 497.17 1266.58 503.88 C 1260.46 528.66 1251.85 552.74 1242.40 576.42 C 1234.84 594.97 1227.13 613.47 1218.54 631.59 C 1211.35 646.38 1204.32 661.77 1192.66 673.67 C 1182.22 684.33 1167.52 688.91 1153.48 692.62 C 1141.52 695.62 1129.34 698.01 1117.00 698.51 C 1108.83 698.46 1099.72 696.34 1094.82 689.22 C 1087.09 677.84 1086.95 663.30 1087.69 650.08 C 1089.11 632.25 1098.45 616.25 1109.84 602.91 C 1146.44 559.83 1192.29 525.59 1240.55 496.64 Z"
  />
  <path
    fill="#6089ff"
    stroke="#6089ff"
    stroke-width="0.09375"
    opacity="1.00"
    d=" M 976.38 524.45 C 983.15 515.64 990.67 507.14 1000.00 500.96 C 1015.19 511.43 1026.30 526.76 1035.40 542.57 C 1042.39 555.03 1048.25 568.10 1053.31 581.45 C 1056.31 588.81 1057.92 596.60 1059.77 604.30 C 1063.15 619.14 1067.01 633.91 1069.05 649.02 C 1070.26 658.32 1072.48 667.56 1072.21 677.00 C 1072.12 688.96 1070.70 701.26 1065.18 712.04 C 1057.74 725.50 1045.75 735.84 1032.72 743.70 C 1022.80 749.75 1011.75 754.75 999.95 755.05 C 988.44 754.73 977.64 749.95 967.92 744.09 C 954.67 736.18 942.43 725.76 934.86 712.12 C 929.46 701.63 927.95 689.66 927.80 678.01 C 927.40 667.85 929.81 657.90 931.12 647.89 C 933.58 630.70 938.11 613.91 941.97 597.01 C 943.96 587.68 947.60 578.84 951.23 570.06 C 958.07 554.09 965.87 538.37 976.38 524.45 Z"
  />
  <path
    fill="#6089ff"
    stroke="#6089ff"
    stroke-width="0.09375"
    opacity="1.00"
    d=" M 499.33 530.26 C 509.55 529.98 519.77 530.44 529.95 531.30 C 593.20 536.50 656.40 549.53 714.56 575.53 C 723.38 579.57 732.18 584.01 739.61 590.35 C 750.05 599.41 757.27 611.47 763.56 623.62 C 768.40 633.20 772.98 642.93 777.08 652.85 C 779.14 657.67 780.44 663.04 779.29 668.26 C 778.15 672.38 774.48 675.16 770.71 676.78 C 762.30 680.46 752.95 680.87 743.91 680.99 C 737.90 680.48 731.75 680.27 726.07 678.03 C 715.44 674.39 707.62 665.93 699.53 658.56 C 686.19 645.81 672.31 633.60 657.44 622.65 C 622.68 596.37 585.82 572.78 546.96 553.01 C 531.24 545.11 515.47 537.26 499.33 530.26 Z"
  />
  <path
    fill="#6089ff"
    stroke="#6089ff"
    stroke-width="0.09375"
    opacity="1.00"
    d=" M 1430.89 535.58 C 1454.02 532.59 1477.29 529.79 1500.66 530.26 C 1463.89 546.66 1427.89 565.03 1394.00 586.85 C 1375.16 598.79 1356.93 611.69 1339.18 625.20 C 1325.19 635.69 1312.18 647.40 1299.53 659.44 C 1291.76 666.56 1284.13 674.56 1273.91 678.04 C 1267.89 680.36 1261.37 680.60 1255.02 681.02 C 1244.77 680.67 1233.64 680.30 1224.91 674.24 C 1219.99 670.83 1219.53 664.20 1220.93 658.87 C 1222.66 652.43 1225.70 646.45 1228.37 640.36 C 1235.58 624.97 1242.85 609.22 1254.24 596.39 C 1265.65 583.46 1282.05 576.87 1297.57 570.34 C 1340.17 552.75 1385.30 541.84 1430.89 535.58 Z"
  />
  <path
    fill="#6089ff"
    stroke="#6089ff"
    stroke-width="0.09375"
    opacity="1.00"
    d=" M 701.99 695.66 C 712.92 694.04 723.99 693.47 735.03 693.24 C 748.28 693.42 761.59 692.67 774.80 693.96 C 800.97 695.41 826.94 699.93 852.18 707.00 C 876.75 713.80 900.91 722.54 923.43 734.60 C 944.29 745.96 964.01 760.62 977.56 780.42 C 982.59 788.05 987.02 796.67 986.97 806.04 C 986.83 809.61 986.05 813.84 982.66 815.78 C 979.22 817.32 975.75 814.95 973.32 812.68 C 967.85 807.44 963.69 801.05 958.81 795.30 C 942.89 775.16 920.68 759.69 895.60 753.57 C 892.91 753.02 889.90 751.75 887.34 753.40 C 885.27 755.36 886.56 759.01 889.21 759.66 C 900.53 763.16 911.99 767.24 921.47 774.56 C 927.03 778.87 931.73 784.98 932.56 792.15 C 932.95 797.75 929.56 803.13 924.72 805.79 C 917.58 809.88 909.08 810.79 900.99 810.61 C 876.37 811.39 851.65 804.73 830.36 792.46 C 819.88 786.60 812.17 777.06 806.23 766.82 C 792.27 742.83 769.71 724.77 744.90 712.92 C 730.92 706.40 716.34 701.30 701.99 695.66 Z"
  />
  <path
    fill="#6089ff"
    stroke="#6089ff"
    stroke-width="0.09375"
    opacity="1.00"
    d=" M 1102.43 722.40 C 1149.77 703.17 1200.83 692.45 1252.01 693.23 C 1267.38 693.07 1282.80 693.44 1298.03 695.66 C 1278.23 703.51 1257.69 710.07 1239.49 721.38 C 1225.83 729.97 1213.16 740.40 1203.12 753.10 C 1194.02 764.41 1188.54 778.72 1176.65 787.66 C 1163.27 797.67 1147.24 803.60 1131.12 807.49 C 1118.07 810.65 1104.56 811.05 1091.21 810.41 C 1084.79 809.66 1078.10 808.26 1072.93 804.15 C 1068.48 800.70 1066.21 794.43 1068.05 789.02 C 1070.19 781.45 1076.20 775.75 1082.65 771.63 C 1091.07 766.33 1100.46 762.77 1109.97 759.97 C 1112.11 759.55 1114.21 757.45 1113.60 755.16 C 1113.16 752.65 1110.05 752.19 1108.01 752.78 C 1090.40 756.38 1073.90 764.72 1060.04 776.07 C 1049.11 784.85 1040.50 796.00 1031.91 806.97 C 1028.83 810.54 1025.71 814.69 1021.02 816.13 C 1017.10 817.19 1014.02 813.43 1013.51 809.91 C 1011.72 800.79 1015.61 791.79 1020.13 784.06 C 1026.94 772.93 1036.01 763.29 1046.01 754.96 C 1062.85 741.06 1082.32 730.72 1102.43 722.40 Z"
  />
  <path
    fill="#6089ff"
    stroke="#6089ff"
    stroke-width="0.09375"
    opacity="1.00"
    d=" M 599.95 704.57 C 609.97 703.99 619.97 702.92 630.03 703.23 C 640.66 703.35 651.34 702.79 661.92 704.09 C 680.61 705.08 699.27 708.44 716.70 715.42 C 731.09 721.23 745.35 727.82 758.05 736.83 C 767.63 744.53 777.70 752.77 782.76 764.29 C 783.69 766.91 785.43 770.83 782.65 772.88 C 777.61 774.63 772.27 772.59 767.25 771.67 C 751.06 767.41 734.65 763.67 717.91 762.54 C 706.73 761.57 695.42 760.75 684.61 757.51 C 670.27 753.63 657.71 745.38 643.94 740.04 C 613.10 727.82 579.95 722.48 546.96 720.72 C 535.59 720.66 524.26 719.74 512.89 719.65 C 541.15 710.99 570.63 707.41 599.95 704.57 Z"
  />
  <path
    fill="#6089ff"
    stroke="#6089ff"
    stroke-width="0.09375"
    opacity="1.00"
    d=" M 1308.49 707.81 C 1332.79 702.96 1357.69 702.82 1382.37 703.38 C 1406.77 704.80 1431.12 707.50 1455.18 711.88 C 1465.99 713.67 1476.55 716.64 1487.08 719.62 C 1475.70 719.77 1464.35 720.64 1452.97 720.72 C 1419.75 722.48 1386.38 727.92 1355.36 740.33 C 1346.45 743.83 1338.07 748.50 1329.35 752.41 C 1319.68 756.75 1309.35 759.58 1298.84 760.89 C 1286.89 762.41 1274.80 762.71 1262.93 764.88 C 1251.50 766.65 1240.39 769.92 1229.13 772.48 C 1225.27 773.12 1221.14 774.39 1217.34 772.88 C 1215.09 771.47 1215.89 768.44 1216.49 766.36 C 1219.81 756.45 1227.66 749.03 1235.29 742.27 C 1245.97 732.56 1259.10 726.22 1272.05 720.14 C 1283.75 714.86 1295.91 710.49 1308.49 707.81 Z"
  />
  <path
    fill="#6089ff"
    stroke="#6089ff"
    stroke-width="0.09375"
    opacity="1.00"
    d=" M 689.99 775.33 C 708.04 773.00 726.41 774.43 744.20 777.99 C 751.61 779.40 759.12 782.00 764.70 787.29 C 770.31 792.61 771.94 801.59 768.49 808.53 C 764.62 816.03 756.45 821.04 748.00 821.10 C 739.32 821.72 731.65 816.94 724.61 812.52 C 716.31 807.08 707.77 801.86 698.34 798.62 C 681.70 792.08 664.00 788.31 646.17 787.23 C 660.23 781.56 674.86 776.97 689.99 775.33 Z"
  />
  <path
    fill="#6089ff"
    stroke="#6089ff"
    stroke-width="0.09375"
    opacity="1.00"
    d=" M 1276.64 774.97 C 1302.84 772.16 1329.61 776.84 1353.72 787.32 C 1351.98 788.44 1349.15 787.38 1347.05 787.74 C 1327.95 789.71 1309.14 794.71 1291.72 802.82 C 1282.27 807.38 1274.08 814.16 1264.58 818.60 C 1257.84 821.74 1249.76 822.01 1242.89 819.14 C 1236.97 816.39 1231.69 811.29 1230.19 804.77 C 1228.60 798.32 1230.90 791.13 1235.88 786.74 C 1241.43 781.81 1248.67 779.34 1255.87 777.97 C 1262.72 776.56 1269.66 775.53 1276.64 774.97 Z"
  />
  <path
    fill="#959898"
    stroke="#959898"
    stroke-width="0.09375"
    opacity="1.00"
    d=" M 791.94 802.85 C 808.81 808.82 826.11 813.47 843.56 817.42 C 841.58 832.38 841.24 847.55 842.71 862.57 C 827.33 859.52 811.99 856.23 796.87 852.07 C 795.14 851.49 792.37 851.35 792.44 848.92 C 789.80 833.74 789.76 818.09 791.94 802.85 Z"
  />
  <path
    fill="#959898"
    stroke="#959898"
    stroke-width="0.09375"
    opacity="1.00"
    d=" M 1156.42 817.45 C 1173.87 813.45 1191.19 808.84 1208.06 802.85 C 1210.24 818.09 1210.20 833.75 1207.55 848.93 C 1207.62 851.37 1204.80 851.50 1203.10 852.07 C 1187.99 856.23 1172.66 859.52 1157.29 862.57 C 1158.74 847.56 1158.44 832.39 1156.42 817.45 Z"
  />
  <path
    fill="#959898"
    stroke="#959898"
    stroke-width="0.09375"
    opacity="1.00"
    d=" M 856.45 820.07 C 876.60 823.95 897.01 826.32 917.41 828.41 C 915.85 843.42 915.60 858.63 917.23 873.64 C 897.66 871.84 878.21 868.95 858.86 865.55 C 857.93 865.24 856.30 865.40 856.32 864.02 C 853.96 849.49 854.69 834.63 856.45 820.07 Z"
  />
  <path
    fill="#959898"
    stroke="#959898"
    stroke-width="0.09375"
    opacity="1.00"
    d=" M 1082.59 828.41 C 1102.99 826.32 1123.39 823.96 1143.55 820.07 C 1145.31 834.89 1146.14 850.06 1143.49 864.83 C 1123.52 869.09 1103.10 871.57 1082.77 873.64 C 1084.40 858.63 1084.15 843.42 1082.59 828.41 Z"
  />
  <path
    fill="#959898"
    stroke="#959898"
    stroke-width="0.09375"
    opacity="1.00"
    d=" M 930.48 829.58 C 976.73 833.52 1023.27 833.54 1069.52 829.58 C 1071.14 844.34 1071.21 859.27 1069.63 874.03 C 1047.16 876.44 1024.59 877.60 1002.00 877.36 C 978.07 877.64 954.16 876.64 930.38 874.03 C 928.78 859.27 928.85 844.34 930.48 829.58 Z"
  />
  <path
    fill="#6089ff"
    stroke="#6089ff"
    stroke-width="0.09375"
    opacity="1.00"
    d=" M 779.46 865.69 C 788.54 864.15 797.34 867.43 806.21 868.78 C 820.28 870.86 834.05 874.51 848.07 876.88 C 852.57 877.71 857.97 878.23 860.73 882.42 C 862.56 885.22 860.54 888.45 858.81 890.74 C 854.42 896.18 848.05 899.40 842.53 903.50 C 824.29 915.97 806.50 929.23 790.57 944.58 C 777.39 957.03 764.91 970.20 751.75 982.67 C 739.49 994.34 725.92 1004.57 711.63 1013.63 C 704.09 1018.41 696.31 1023.15 687.61 1025.49 C 684.35 1026.20 680.33 1026.85 677.66 1024.34 C 674.77 1021.46 673.81 1017.32 672.23 1013.69 C 668.25 1003.06 662.25 992.92 653.45 985.58 C 648.63 981.47 642.62 978.36 639.55 972.57 C 637.73 969.26 639.00 965.43 639.99 962.09 C 644.36 949.77 651.28 938.49 659.16 928.12 C 671.83 911.40 689.02 898.98 705.97 886.96 C 716.73 879.52 727.74 872.35 739.38 866.36 C 741.30 865.43 745.38 864.98 745.57 867.96 C 744.72 872.25 741.40 875.40 738.64 878.57 C 730.82 886.69 724.23 895.96 719.12 906.00 C 715.61 912.45 713.32 919.45 710.17 926.07 C 708.57 929.24 706.13 933.13 702.01 932.63 C 694.26 931.98 686.28 929.97 678.63 932.52 C 675.55 933.51 671.04 935.10 671.14 939.00 C 670.87 941.92 674.54 942.93 676.65 941.52 C 681.58 938.86 687.44 938.48 692.90 939.36 C 698.63 940.34 703.34 943.94 708.29 946.70 C 710.15 947.78 712.34 947.14 713.89 945.82 C 724.62 937.94 737.74 933.58 750.95 932.44 C 754.63 932.02 758.25 933.14 761.92 933.08 C 765.05 932.26 765.08 926.95 762.01 926.09 C 753.56 923.26 744.46 924.82 735.90 926.31 C 731.66 926.93 727.34 928.20 723.05 927.31 C 720.08 926.76 720.72 923.18 721.42 921.12 C 723.94 913.49 728.80 906.93 733.68 900.65 C 740.21 892.58 747.62 885.24 755.58 878.58 C 762.61 872.87 770.36 867.35 779.46 865.69 Z"
  />
  <path
    fill="#6089ff"
    stroke="#6089ff"
    stroke-width="0.09375"
    opacity="1.00"
    d=" M 1210.52 865.56 C 1220.50 864.01 1230.30 867.97 1238.21 873.83 C 1250.21 882.61 1260.92 893.24 1269.78 905.19 C 1273.74 910.95 1278.10 916.96 1279.14 924.04 C 1279.70 927.52 1275.40 927.81 1272.98 927.60 C 1262.07 926.45 1251.07 922.87 1240.08 925.41 C 1238.53 925.90 1236.43 926.17 1236.01 928.05 C 1234.75 930.55 1237.02 933.98 1239.91 933.05 C 1247.64 931.59 1255.53 932.89 1263.05 934.91 C 1271.54 937.23 1279.69 940.96 1286.76 946.25 C 1290.13 948.94 1293.74 945.36 1296.67 943.74 C 1303.60 939.06 1312.64 937.49 1320.60 940.30 C 1322.99 941.31 1325.84 943.25 1328.27 941.19 C 1329.64 938.84 1328.59 935.96 1326.30 934.69 C 1319.31 930.56 1310.72 930.74 1302.98 932.15 C 1299.73 932.50 1295.67 933.57 1293.12 930.90 C 1290.19 927.82 1288.73 923.73 1287.11 919.90 C 1282.46 907.97 1276.40 896.51 1268.33 886.54 C 1264.53 881.47 1259.58 877.35 1256.07 872.05 C 1255.14 870.31 1253.55 868.00 1255.15 866.18 C 1259.28 864.50 1263.00 867.70 1266.47 869.49 C 1284.41 879.69 1301.36 891.60 1317.48 904.49 C 1335.71 919.05 1350.47 938.16 1359.21 959.85 C 1360.56 963.85 1362.52 968.46 1360.47 972.57 C 1357.15 978.77 1350.53 981.90 1345.51 986.47 C 1336.61 994.25 1330.88 1004.92 1326.90 1015.90 C 1325.28 1019.78 1323.81 1025.03 1319.07 1025.98 C 1311.88 1026.66 1305.24 1023.02 1298.98 1019.99 C 1285.05 1012.05 1271.78 1002.91 1259.46 992.65 C 1243.53 979.25 1229.52 963.80 1214.49 949.44 C 1195.84 930.76 1174.56 915.02 1152.77 900.25 C 1147.51 896.59 1141.45 893.03 1138.93 886.82 C 1137.72 884.38 1139.27 881.67 1141.29 880.25 C 1144.97 877.52 1149.75 877.44 1154.06 876.49 C 1167.09 874.24 1179.90 870.85 1192.99 868.92 C 1198.87 868.02 1204.63 866.46 1210.52 865.56 Z"
  />
  <path
    fill="#6089ff"
    stroke="#6089ff"
    stroke-width="0.09375"
    opacity="1.00"
    d=" M 921.35 888.35 C 922.84 887.63 924.56 888.17 926.15 888.24 C 951.31 890.97 976.62 892.42 1001.93 892.00 C 1027.05 892.46 1052.12 890.48 1077.09 888.01 C 1079.62 887.75 1079.96 891.29 1079.14 893.01 C 1076.53 899.25 1071.35 903.93 1066.51 908.47 C 1054.29 918.89 1042.95 930.31 1030.34 940.28 C 1022.78 946.30 1015.11 952.79 1005.60 955.42 C 1001.24 956.73 996.53 956.34 992.31 954.76 C 983.01 951.57 975.56 944.92 967.98 938.92 C 958.75 931.59 950.34 923.33 941.51 915.57 C 934.75 909.35 927.16 903.75 922.23 895.86 C 920.88 893.65 919.56 890.69 921.35 888.35 Z"
  />
  <path
    fill="#6089ff"
    stroke="#6089ff"
    stroke-width="0.09375"
    opacity="1.00"
    d=" M 895.33 899.49 C 899.29 897.24 903.98 899.10 907.20 901.80 C 918.88 911.04 930.20 920.73 941.08 930.91 C 949.60 939.07 958.17 947.33 964.96 957.05 C 967.81 961.30 970.79 965.81 971.42 971.03 C 971.60 975.58 968.46 979.33 965.54 982.49 C 959.88 988.25 953.32 993.00 946.95 997.93 C 932.07 1009.25 917.41 1020.93 903.94 1033.92 C 895.06 1042.05 886.90 1050.97 877.57 1058.61 C 874.12 1061.34 869.64 1064.43 865.06 1062.60 C 859.15 1060.51 854.33 1056.33 849.38 1052.63 C 833.67 1040.08 818.08 1027.33 803.69 1013.26 C 797.15 1006.73 790.63 999.92 786.33 991.66 C 783.69 986.57 782.30 980.53 784.05 974.94 C 786.70 966.03 793.23 959.05 799.54 952.53 C 813.29 939.08 828.83 927.65 844.33 916.32 C 851.20 911.50 858.02 906.56 865.24 902.28 C 868.01 900.48 872.97 899.76 874.68 903.29 C 876.06 909.93 872.97 916.40 871.93 922.88 C 869.58 932.33 868.67 942.14 865.40 951.35 C 864.19 954.74 862.06 958.68 858.01 958.95 C 851.87 958.54 846.06 956.40 840.10 955.08 C 832.86 953.35 825.32 953.20 817.94 953.94 C 814.82 953.87 812.06 957.33 813.78 960.24 C 815.61 962.34 818.58 961.45 821.00 961.46 C 831.38 960.61 841.45 964.20 850.90 968.11 C 858.18 971.04 864.95 975.83 872.99 976.41 C 880.20 976.32 886.23 971.81 891.92 967.90 C 899.03 962.83 907.09 958.45 915.99 957.93 C 919.63 957.51 923.22 958.56 926.86 958.57 C 929.71 958.53 931.44 954.58 929.44 952.51 C 927.07 949.92 923.23 949.64 919.94 949.55 C 908.81 949.17 898.79 955.01 887.94 956.49 C 885.47 956.83 882.55 956.24 881.13 954.02 C 878.43 949.88 878.70 944.67 879.05 939.96 C 880.01 930.50 881.92 921.10 885.11 912.14 C 886.99 907.00 889.96 901.60 895.33 899.49 Z"
  />
  <path
    fill="#6089ff"
    stroke="#6089ff"
    stroke-width="0.09375"
    opacity="1.00"
    d=" M 1096.34 899.54 C 1100.99 896.97 1106.53 899.58 1109.84 903.13 C 1114.07 908.00 1115.78 914.42 1117.47 920.50 C 1119.60 929.17 1121.53 938.06 1121.06 947.04 C 1120.82 951.17 1118.87 956.64 1113.89 956.57 C 1101.04 955.68 1089.19 947.58 1076.00 949.89 C 1073.04 950.28 1068.74 952.28 1069.90 955.96 C 1070.68 958.93 1074.16 958.83 1076.58 958.33 C 1085.92 956.63 1095.45 959.70 1103.30 964.73 C 1110.55 969.14 1117.21 975.64 1126.07 976.40 C 1134.21 976.31 1141.10 971.40 1148.39 968.42 C 1158.06 964.36 1168.39 960.59 1179.05 961.46 C 1181.44 961.45 1184.43 962.35 1186.23 960.21 C 1187.70 957.71 1185.74 954.42 1182.98 954.11 C 1172.27 952.49 1161.38 954.19 1151.10 957.35 C 1146.67 958.12 1140.87 960.73 1137.38 956.55 C 1133.85 951.72 1132.86 945.60 1131.53 939.91 C 1129.79 930.16 1127.53 920.52 1125.36 910.87 C 1125.04 907.88 1123.93 903.84 1126.63 901.65 C 1130.19 899.51 1134.18 901.75 1137.25 903.73 C 1152.86 913.91 1167.88 924.99 1182.45 936.62 C 1192.07 944.51 1201.66 952.65 1209.33 962.53 C 1213.72 968.37 1217.65 975.49 1216.54 983.07 C 1215.29 990.88 1210.46 997.49 1205.54 1003.45 C 1194.95 1015.51 1182.76 1026.04 1170.54 1036.40 C 1160.96 1044.21 1151.64 1052.41 1141.40 1059.36 C 1137.78 1061.56 1133.40 1064.27 1129.06 1062.62 C 1124.16 1060.72 1120.40 1056.88 1116.50 1053.51 C 1103.64 1041.33 1091.20 1028.68 1077.57 1017.36 C 1067.22 1008.67 1056.41 1000.55 1045.72 992.29 C 1040.41 987.99 1034.82 983.78 1030.88 978.11 C 1028.66 975.07 1027.86 971.03 1029.36 967.50 C 1032.25 959.73 1037.67 953.26 1042.99 947.02 C 1055.42 933.39 1069.30 921.16 1083.45 909.36 C 1087.71 906.05 1091.61 902.18 1096.34 899.54 Z"
  />
  <path
    fill="#959898"
    stroke="#959898"
    stroke-width="0.09375"
    opacity="1.00"
    d=" M 597.29 991.48 C 607.01 991.75 617.25 988.32 626.57 992.39 C 635.95 996.90 640.20 1007.36 642.58 1016.88 C 632.54 1018.07 622.49 1019.13 612.49 1020.52 C 609.97 1009.81 605.56 999.04 597.29 991.48 Z"
  />
  <path
    fill="#959898"
    stroke="#959898"
    stroke-width="0.09375"
    opacity="1.00"
    d=" M 1373.44 992.38 C 1382.76 988.32 1393.00 991.76 1402.73 991.48 C 1394.43 999.03 1390.03 1009.81 1387.51 1020.52 C 1377.52 1019.13 1367.48 1018.08 1357.46 1016.87 C 1359.76 1007.33 1364.07 996.89 1373.44 992.38 Z"
  />
  <path
    fill="#ededed"
    stroke="#ededed"
    stroke-width="0.09375"
    opacity="1.00"
    d=" M 566.46 994.72 C 574.74 992.38 584.45 994.07 590.54 1000.44 C 597.68 1007.82 600.82 1018.06 602.36 1027.99 C 603.95 1042.36 602.82 1057.03 598.92 1070.98 C 594.32 1087.74 586.56 1103.84 575.08 1116.99 C 568.03 1124.83 559.38 1131.96 548.91 1134.46 C 542.95 1135.31 536.42 1135.31 531.25 1131.80 C 521.13 1125.36 516.92 1113.11 515.07 1101.83 C 512.32 1081.99 515.69 1061.61 523.14 1043.12 C 529.07 1028.58 537.50 1014.75 549.43 1004.37 C 554.44 1000.17 560.06 996.37 566.46 994.72 Z"
  />
  <path
    fill="#ededed"
    stroke="#ededed"
    stroke-width="0.09375"
    opacity="1.00"
    d=" M 1407.12 1003.10 C 1412.21 996.01 1421.54 992.45 1430.08 994.08 C 1437.38 994.90 1443.81 998.93 1449.45 1003.41 C 1461.80 1013.73 1470.51 1027.75 1476.62 1042.51 C 1481.38 1054.12 1484.39 1066.44 1485.60 1078.94 C 1485.90 1088.61 1486.28 1098.46 1483.71 1107.89 C 1481.33 1117.50 1476.63 1127.57 1467.56 1132.48 C 1462.61 1135.44 1456.58 1135.16 1451.08 1134.46 C 1441.08 1132.08 1432.73 1125.43 1425.87 1118.04 C 1415.41 1106.48 1407.98 1092.41 1403.11 1077.67 C 1399.47 1066.46 1396.97 1054.76 1397.10 1042.93 C 1396.43 1029.20 1398.73 1014.41 1407.12 1003.10 Z"
  />
  <path
    fill="#959898"
    stroke="#959898"
    stroke-width="0.09375"
    opacity="1.00"
    d=" M 974.92 1013.49 C 987.38 1010.59 1000.27 1010.79 1012.97 1011.36 C 1033.49 1013.47 1053.37 1021.04 1070.17 1032.99 C 1063.96 1041.19 1057.46 1049.17 1051.29 1057.41 C 1034.48 1046.35 1014.18 1039.56 993.91 1041.55 C 977.87 1042.55 962.34 1048.18 948.95 1056.97 C 945.66 1054.35 943.59 1050.29 940.79 1047.10 C 937.28 1042.53 933.61 1038.09 930.18 1033.46 C 943.59 1023.95 958.82 1016.96 974.92 1013.49 Z"
  />
  <path
    fill="#959898"
    stroke="#959898"
    stroke-width="0.09375"
    opacity="1.00"
    d=" M 749.06 1018.26 C 757.43 1018.20 765.94 1017.66 774.08 1020.06 C 781.11 1021.77 787.78 1024.68 794.07 1028.23 C 781.97 1034.72 769.77 1041.04 757.70 1047.59 C 746.88 1041.34 734.60 1037.34 722.03 1037.25 C 714.66 1037.39 707.19 1037.72 700.07 1039.83 C 714.03 1028.40 730.86 1019.76 749.06 1018.26 Z"
  />
  <path
    fill="#959898"
    stroke="#959898"
    stroke-width="0.09375"
    opacity="1.00"
    d=" M 1205.93 1028.23 C 1217.44 1021.63 1230.64 1017.55 1244.00 1018.15 C 1264.66 1017.50 1284.25 1026.99 1299.94 1039.83 C 1280.69 1034.65 1259.43 1037.20 1242.32 1047.59 C 1230.23 1041.06 1218.04 1034.71 1205.93 1028.23 Z"
  />
  <path
    fill="#959898"
    stroke="#959898"
    stroke-width="0.09375"
    opacity="1.00"
    d=" M 613.51 1027.53 C 623.73 1026.33 633.94 1024.71 644.22 1024.11 C 645.80 1038.38 645.40 1052.82 642.97 1066.98 C 632.82 1065.15 622.65 1063.36 612.52 1061.44 C 614.47 1050.29 615.17 1038.75 613.51 1027.53 Z"
  />
  <path
    fill="#959898"
    stroke="#959898"
    stroke-width="0.09375"
    opacity="1.00"
    d=" M 1355.78 1024.11 C 1366.05 1024.71 1376.24 1026.32 1386.46 1027.52 C 1384.91 1038.77 1385.47 1050.28 1387.48 1061.44 C 1377.34 1063.36 1367.18 1065.16 1357.02 1066.97 C 1354.61 1052.81 1354.19 1038.38 1355.78 1024.11 Z"
  />
  <path
    fill="#959898"
    stroke="#959898"
    stroke-width="0.09375"
    opacity="1.00"
    d=" M 766.19 1053.59 C 778.43 1047.25 790.52 1040.62 802.79 1034.33 C 816.03 1044.91 825.69 1059.58 831.29 1075.51 C 837.64 1093.40 839.17 1112.83 836.47 1131.59 C 823.14 1129.35 809.79 1127.25 796.45 1125.11 C 799.49 1098.28 787.87 1069.90 766.19 1053.59 Z"
  />
  <path
    fill="#959898"
    stroke="#959898"
    stroke-width="0.09375"
    opacity="1.00"
    d=" M 1170.06 1071.91 C 1175.78 1057.39 1184.98 1044.10 1197.21 1034.32 C 1209.48 1040.62 1221.57 1047.27 1233.83 1053.60 C 1212.11 1069.87 1200.52 1098.29 1203.55 1125.11 C 1190.20 1127.26 1176.85 1129.35 1163.53 1131.59 C 1160.65 1111.57 1162.60 1090.76 1170.06 1071.91 Z"
  />
  <path
    fill="#959898"
    stroke="#959898"
    stroke-width="0.09375"
    opacity="1.00"
    d=" M 924.46 1037.93 C 930.70 1045.75 936.87 1053.62 942.91 1061.60 C 919.17 1080.74 906.29 1112.38 910.34 1142.65 C 901.00 1144.82 891.75 1147.37 882.41 1149.56 C 879.53 1130.42 880.81 1110.49 887.15 1092.12 C 894.17 1071.02 907.34 1052.10 924.46 1037.93 Z"
  />
  <path
    fill="#959898"
    stroke="#959898"
    stroke-width="0.09375"
    opacity="1.00"
    d=" M 1056.95 1061.82 C 1063.12 1053.55 1069.56 1045.49 1075.94 1037.38 C 1089.58 1048.54 1100.87 1062.62 1108.44 1078.57 C 1119.06 1100.53 1122.68 1125.80 1118.65 1149.85 C 1108.86 1147.52 1099.17 1144.82 1089.36 1142.63 C 1093.34 1112.53 1080.55 1080.92 1056.95 1061.82 Z"
  />
  <path
    fill="#ededed"
    stroke="#ededed"
    stroke-width="0.09375"
    opacity="1.00"
    d=" M 708.39 1049.47 C 728.74 1046.35 750.80 1052.88 765.43 1067.59 C 776.22 1078.27 783.14 1092.67 785.04 1107.71 C 788.06 1129.40 780.23 1152.28 764.70 1167.69 C 754.78 1177.73 741.68 1184.60 727.75 1186.93 C 710.02 1190.05 691.10 1185.40 676.85 1174.38 C 663.40 1164.15 654.27 1148.63 651.40 1132.02 C 647.54 1111.35 653.62 1089.15 667.17 1073.12 C 677.54 1060.70 692.40 1052.08 708.39 1049.47 Z"
  />
  <path
    fill="#ededed"
    stroke="#ededed"
    stroke-width="0.09375"
    opacity="1.00"
    d=" M 1269.52 1049.79 C 1288.35 1046.03 1308.44 1051.67 1323.24 1063.73 C 1336.61 1074.42 1345.68 1090.18 1348.60 1107.01 C 1352.22 1126.41 1347.14 1147.30 1334.89 1162.80 C 1326.14 1173.95 1313.71 1182.16 1299.99 1185.72 C 1281.92 1190.57 1261.94 1187.07 1246.40 1176.75 C 1230.91 1166.67 1219.86 1150.23 1216.00 1132.21 C 1211.45 1112.16 1216.25 1090.16 1228.94 1073.96 C 1238.74 1061.06 1253.60 1052.48 1269.52 1049.79 Z"
  />
  <path
    fill="#ededed"
    stroke="#ededed"
    stroke-width="0.09375"
    opacity="1.00"
    d=" M 981.15 1054.85 C 991.36 1052.19 1002.07 1052.33 1012.44 1053.86 C 1027.98 1055.88 1042.54 1063.41 1053.96 1074.03 C 1066.55 1085.89 1075.08 1101.96 1077.77 1119.05 C 1081.13 1138.97 1076.20 1160.06 1064.68 1176.61 C 1053.74 1192.54 1036.69 1204.06 1017.88 1208.41 C 998.24 1213.19 976.88 1209.76 959.54 1199.48 C 936.00 1185.82 920.74 1159.22 920.92 1132.02 C 920.77 1115.73 925.77 1099.47 935.18 1086.15 C 946.02 1070.59 962.70 1059.23 981.15 1054.85 Z"
  />
  <path
    fill="#959898"
    stroke="#959898"
    stroke-width="0.09375"
    opacity="1.00"
    d=" M 611.10 1068.52 C 621.31 1070.05 631.36 1072.59 641.64 1073.64 C 638.70 1086.17 634.55 1098.42 629.00 1110.05 C 619.68 1105.85 610.34 1101.68 601.13 1097.25 C 605.45 1088.06 608.91 1078.44 611.10 1068.52 Z"
  />
  <path
    fill="#959898"
    stroke="#959898"
    stroke-width="0.09375"
    opacity="1.00"
    d=" M 1358.36 1073.64 C 1368.63 1072.59 1378.69 1070.06 1388.90 1068.51 C 1391.09 1078.44 1394.55 1088.06 1398.87 1097.25 C 1389.66 1101.68 1380.31 1105.85 1371.00 1110.05 C 1365.46 1098.42 1361.29 1086.17 1358.36 1073.64 Z"
  />
  <path
    fill="#959898"
    stroke="#959898"
    stroke-width="0.09375"
    opacity="1.00"
    d=" M 580.98 1127.10 C 587.65 1120.13 593.16 1112.13 597.86 1103.73 C 607.14 1108.01 616.45 1112.24 625.74 1116.49 C 620.35 1126.29 614.10 1135.65 606.68 1144.04 C 598.06 1138.46 589.55 1132.73 580.98 1127.10 Z"
  />
  <path
    fill="#959898"
    stroke="#959898"
    stroke-width="0.09375"
    opacity="1.00"
    d=" M 1374.26 1116.49 C 1383.55 1112.24 1392.86 1108.01 1402.14 1103.73 C 1406.84 1112.13 1412.34 1120.13 1419.02 1127.10 C 1410.45 1132.73 1401.93 1138.46 1393.32 1144.04 C 1385.90 1135.65 1379.64 1126.29 1374.26 1116.49 Z"
  />
  <path
    fill="#959898"
    stroke="#959898"
    stroke-width="0.09375"
    opacity="1.00"
    d=" M 550.59 1145.80 C 559.91 1143.38 568.46 1138.57 575.65 1132.22 C 584.39 1137.86 593.01 1143.68 601.72 1149.38 C 596.00 1155.00 589.46 1160.24 581.56 1162.28 C 577.84 1162.96 573.62 1162.97 570.55 1160.46 C 563.93 1155.52 557.02 1150.96 550.59 1145.80 Z"
  />
  <path
    fill="#959898"
    stroke="#959898"
    stroke-width="0.09375"
    opacity="1.00"
    d=" M 1424.35 1132.22 C 1431.54 1138.57 1440.09 1143.38 1449.41 1145.80 C 1443.15 1150.85 1436.40 1155.26 1429.97 1160.09 C 1425.77 1163.65 1419.60 1163.13 1414.84 1161.09 C 1408.45 1158.58 1403.14 1154.11 1398.28 1149.39 C 1406.98 1143.68 1415.61 1137.87 1424.35 1132.22 Z"
  />
  <path
    fill="#959898"
    stroke="#959898"
    stroke-width="0.09375"
    opacity="1.00"
    d=" M 795.04 1134.39 C 808.29 1136.42 821.50 1138.74 834.77 1140.72 C 828.84 1167.11 814.39 1191.96 792.73 1208.46 C 783.49 1199.78 774.10 1191.27 764.91 1182.55 C 780.07 1170.55 791.08 1153.35 795.04 1134.39 Z"
  />
  <path
    fill="#959898"
    stroke="#959898"
    stroke-width="0.09375"
    opacity="1.00"
    d=" M 1165.23 1140.72 C 1178.49 1138.74 1191.71 1136.42 1204.96 1134.39 C 1208.88 1153.43 1220.05 1170.54 1235.13 1182.67 C 1225.77 1191.19 1216.53 1199.85 1207.27 1208.47 C 1185.61 1191.96 1171.17 1167.11 1165.23 1140.72 Z"
  />
  <path
    fill="#959898"
    stroke="#959898"
    stroke-width="0.09375"
    opacity="1.00"
    d=" M 883.95 1156.52 C 893.14 1154.33 902.29 1152.01 911.45 1149.68 C 916.24 1173.19 930.83 1194.41 951.01 1207.40 C 944.72 1214.52 938.37 1221.59 931.93 1228.57 C 907.79 1211.64 889.79 1185.53 883.95 1156.52 Z"
  />
  <path
    fill="#959898"
    stroke="#959898"
    stroke-width="0.09375"
    opacity="1.00"
    d=" M 1084.51 1162.42 C 1086.10 1158.24 1087.08 1153.87 1088.36 1149.59 C 1097.98 1152.17 1107.69 1154.41 1117.33 1156.92 C 1110.78 1185.94 1093.06 1212.24 1068.48 1229.03 C 1061.86 1221.83 1055.28 1214.58 1048.86 1207.21 C 1065.14 1196.63 1077.91 1180.70 1084.51 1162.42 Z"
  />
  <path
    fill="#6089ff"
    stroke="#6089ff"
    stroke-width="0.09375"
    opacity="1.00"
    d=" M 620.79 1187.84 C 623.41 1184.62 625.83 1180.80 629.99 1179.43 C 636.18 1182.14 639.68 1188.28 643.42 1193.56 C 653.13 1208.55 662.07 1224.03 672.29 1238.69 C 680.08 1250.14 688.11 1261.41 696.33 1272.56 C 700.41 1278.28 704.82 1283.86 707.79 1290.28 C 709.13 1293.33 709.63 1297.49 707.13 1300.12 C 702.60 1305.20 696.40 1308.37 690.44 1311.47 C 676.54 1318.35 662.12 1324.09 647.78 1329.95 C 638.82 1333.45 629.88 1337.20 620.44 1339.21 C 616.54 1340.02 611.84 1340.24 608.91 1337.05 C 604.37 1332.26 601.50 1326.21 598.56 1320.38 C 590.87 1304.30 584.92 1286.97 584.45 1269.00 C 584.23 1250.90 591.24 1233.62 600.21 1218.22 C 606.36 1207.64 613.28 1197.51 620.79 1187.84 Z"
  />
  <path
    fill="#6089ff"
    stroke="#6089ff"
    stroke-width="0.09375"
    opacity="1.00"
    d=" M 1358.17 1191.23 C 1361.40 1186.70 1364.67 1181.68 1370.00 1179.43 C 1374.14 1180.79 1376.56 1184.58 1379.18 1187.80 C 1387.43 1198.45 1395.03 1209.64 1401.60 1221.43 C 1407.57 1232.18 1412.42 1243.74 1414.50 1255.92 C 1417.77 1274.84 1412.66 1294.03 1405.47 1311.45 C 1401.82 1319.78 1398.11 1328.24 1392.52 1335.49 C 1390.35 1338.52 1386.61 1340.27 1382.88 1339.66 C 1373.70 1338.58 1365.12 1334.86 1356.53 1331.67 C 1339.85 1324.89 1323.02 1318.34 1306.98 1310.13 C 1301.37 1307.02 1295.26 1303.87 1291.66 1298.37 C 1289.58 1292.08 1294.25 1286.44 1297.36 1281.42 C 1309.03 1265.06 1321.04 1248.93 1332.12 1232.15 C 1341.21 1218.77 1349.13 1204.64 1358.17 1191.23 Z"
  />
  <path
    fill="#6089ff"
    stroke="#6089ff"
    stroke-width="0.09375"
    opacity="1.00"
    d=" M 534.61 1203.85 C 538.30 1196.65 542.11 1188.58 549.65 1184.71 C 541.45 1212.19 538.48 1241.08 539.60 1269.68 C 535.95 1268.16 532.89 1264.36 528.58 1265.42 C 528.00 1267.08 526.90 1269.08 528.28 1270.70 C 534.19 1276.78 543.58 1278.89 551.66 1276.60 C 555.97 1275.06 559.84 1272.32 562.90 1268.94 C 564.34 1267.59 564.11 1265.35 563.29 1263.75 C 559.00 1259.88 553.46 1268.25 549.71 1263.32 C 546.30 1256.76 547.71 1249.07 547.45 1241.97 C 548.34 1229.77 549.34 1217.45 552.62 1205.62 C 553.94 1201.77 555.22 1197.10 559.22 1195.23 C 562.31 1194.22 566.41 1194.73 568.34 1197.64 C 573.06 1203.72 578.32 1209.65 581.28 1216.85 C 583.78 1222.90 581.42 1229.39 579.22 1235.13 C 575.07 1245.26 571.33 1255.92 571.61 1267.03 C 571.31 1277.09 573.83 1286.94 574.61 1296.94 C 574.91 1301.95 573.76 1307.42 570.06 1311.06 C 566.57 1314.17 561.45 1315.26 556.96 1314.02 C 549.78 1312.21 543.24 1308.15 538.23 1302.72 C 526.90 1292.07 521.92 1276.28 521.35 1261.06 C 520.63 1241.24 526.30 1221.68 534.61 1203.85 Z"
  />
  <path
    fill="#6089ff"
    stroke="#6089ff"
    stroke-width="0.09375"
    opacity="1.00"
    d=" M 1450.35 1184.71 C 1457.88 1188.59 1461.70 1196.66 1465.40 1203.85 C 1473.95 1222.22 1479.72 1242.45 1478.57 1262.87 C 1477.68 1277.50 1472.64 1292.55 1461.73 1302.77 C 1456.74 1308.17 1450.22 1312.20 1443.08 1314.01 C 1438.58 1315.26 1433.44 1314.18 1429.95 1311.07 C 1426.23 1307.44 1425.08 1301.95 1425.39 1296.94 C 1426.17 1286.92 1428.69 1277.04 1428.39 1266.95 C 1428.65 1255.87 1424.91 1245.24 1420.78 1235.13 C 1418.57 1229.37 1416.21 1222.88 1418.72 1216.83 C 1421.56 1209.84 1426.66 1204.12 1431.19 1198.19 C 1433.82 1193.79 1441.23 1193.45 1443.99 1197.92 C 1447.77 1203.93 1448.82 1211.15 1450.03 1218.02 C 1451.55 1228.61 1452.85 1239.29 1452.58 1250.00 C 1452.54 1254.66 1452.65 1259.91 1449.83 1263.86 C 1446.23 1267.36 1442.04 1261.26 1438.08 1263.02 C 1435.63 1263.64 1435.45 1267.35 1437.09 1268.92 C 1441.44 1273.63 1447.41 1277.57 1454.06 1277.44 C 1460.33 1277.84 1466.60 1275.43 1471.24 1271.25 C 1473.11 1269.68 1472.18 1267.26 1471.42 1265.41 C 1467.10 1264.37 1464.04 1268.16 1460.40 1269.68 C 1461.50 1241.08 1458.57 1212.19 1450.35 1184.71 Z"
  />
  <path
    fill="#959898"
    stroke="#959898"
    stroke-width="0.09375"
    opacity="1.00"
    d=" M 674.77 1186.59 C 690.85 1197.17 711.09 1201.56 730.05 1197.94 C 739.54 1196.37 748.56 1192.72 756.92 1188.03 C 766.24 1196.63 775.57 1205.22 784.82 1213.90 C 766.30 1225.29 743.13 1229.95 721.99 1223.83 C 701.97 1218.49 685.40 1204.08 674.77 1186.59 Z"
  />
  <path
    fill="#959898"
    stroke="#959898"
    stroke-width="0.09375"
    opacity="1.00"
    d=" M 1294.86 1198.23 C 1305.62 1196.65 1315.99 1192.62 1325.11 1186.70 C 1315.36 1202.80 1300.57 1216.25 1282.60 1222.41 C 1260.34 1230.45 1235.04 1226.20 1215.17 1213.90 C 1224.43 1205.22 1233.76 1196.63 1243.09 1188.03 C 1258.58 1196.94 1277.10 1201.27 1294.86 1198.23 Z"
  />
  <path
    fill="#6089ff"
    stroke="#6089ff"
    stroke-width="0.09375"
    opacity="1.00"
    d=" M 846.28 1201.22 C 852.11 1198.51 858.44 1201.58 863.65 1204.30 C 877.18 1211.94 888.47 1222.78 900.30 1232.71 C 908.84 1239.97 917.55 1247.04 926.04 1254.38 C 898.01 1254.29 869.99 1254.55 841.97 1254.01 C 822.44 1252.71 802.91 1254.95 783.37 1254.61 C 798.16 1241.35 812.45 1227.53 827.56 1214.62 C 833.47 1209.74 839.31 1204.54 846.28 1201.22 Z"
  />
  <path
    fill="#6089ff"
    stroke="#6089ff"
    stroke-width="0.09375"
    opacity="1.00"
    d=" M 1138.28 1203.31 C 1142.56 1201.23 1147.45 1199.18 1152.26 1200.65 C 1157.76 1202.71 1162.37 1206.51 1166.97 1210.08 C 1184.17 1224.18 1200.06 1239.79 1216.63 1254.61 C 1203.08 1254.70 1189.53 1254.03 1176.00 1253.58 C 1166.31 1253.40 1156.65 1254.24 1146.97 1254.09 C 1122.63 1254.68 1098.28 1254.18 1073.94 1254.38 C 1087.38 1242.99 1100.94 1231.75 1114.28 1220.25 C 1121.81 1213.99 1129.51 1207.76 1138.28 1203.31 Z"
  />
  <path
    fill="#000000"
    stroke="#000000"
    stroke-width="0.09375"
    opacity="1.00"
    d=" M 629.87 1203.92 C 631.20 1201.01 634.62 1200.10 637.30 1201.81 C 637.46 1203.49 637.82 1205.30 636.96 1206.89 C 630.94 1220.04 627.49 1234.20 625.26 1248.44 C 624.73 1252.53 624.69 1257.22 627.22 1260.72 C 630.36 1264.27 635.67 1263.15 639.88 1263.80 C 650.10 1264.38 659.98 1269.70 665.83 1278.13 C 667.00 1279.62 667.23 1281.70 666.37 1283.42 C 664.91 1285.58 661.25 1285.33 659.94 1283.13 C 656.16 1277.69 650.62 1273.27 644.01 1271.99 C 637.45 1271.05 631.52 1274.44 625.64 1276.73 C 617.04 1280.01 607.09 1279.19 598.99 1274.91 C 596.91 1273.89 596.61 1270.76 598.21 1269.20 C 599.37 1267.75 601.38 1268.20 602.99 1268.08 C 608.01 1268.40 612.60 1264.86 614.49 1260.36 C 617.56 1253.38 617.83 1245.62 619.32 1238.24 C 621.36 1226.43 624.50 1214.68 629.87 1203.92 Z"
  />
  <path
    fill="#000000"
    stroke="#000000"
    stroke-width="0.09375"
    opacity="1.00"
    d=" M 1364.13 1201.20 C 1366.77 1199.85 1369.41 1202.27 1370.49 1204.55 C 1376.77 1217.55 1379.86 1231.79 1381.96 1245.99 C 1383.04 1252.24 1383.74 1259.04 1387.90 1264.13 C 1390.66 1267.35 1395.00 1268.50 1399.13 1268.14 C 1402.76 1267.72 1404.22 1273.41 1400.99 1274.92 C 1392.41 1279.46 1381.77 1280.04 1372.84 1276.14 C 1367.28 1273.76 1361.37 1270.89 1355.16 1272.15 C 1349.92 1273.54 1345.09 1276.58 1341.82 1280.93 C 1340.34 1282.67 1338.92 1285.42 1336.18 1284.87 C 1333.21 1284.81 1332.29 1280.90 1333.77 1278.80 C 1339.63 1269.66 1350.27 1264.14 1361.05 1263.72 C 1365.13 1263.20 1370.55 1264.12 1373.20 1260.15 C 1375.24 1256.69 1375.26 1252.40 1374.76 1248.54 C 1372.53 1234.28 1369.08 1220.10 1363.06 1206.94 C 1362.12 1205.12 1361.92 1202.17 1364.13 1201.20 Z"
  />
  <path
    fill="#959898"
    stroke="#959898"
    stroke-width="0.09375"
    opacity="1.00"
    d=" M 957.37 1211.15 C 983.44 1225.21 1016.44 1225.19 1042.46 1211.00 C 1049.16 1218.27 1055.74 1225.65 1062.32 1233.03 C 1046.47 1242.45 1028.47 1248.35 1010.07 1249.74 C 999.85 1249.71 989.52 1250.42 979.45 1248.25 C 964.83 1245.67 950.77 1240.25 938.06 1232.62 C 944.44 1225.41 950.89 1218.27 957.37 1211.15 Z"
  />
  <path
    fill="#ededed"
    stroke="#ededed"
    stroke-width="0.09375"
    opacity="1.00"
    d=" M 791.12 1269.77 C 800.73 1268.90 810.40 1269.30 820.04 1269.22 C 934.69 1269.21 1049.33 1269.21 1163.98 1269.22 C 1178.59 1269.36 1193.22 1268.85 1207.82 1269.65 C 1214.24 1270.23 1221.35 1272.19 1225.25 1277.76 C 1230.14 1284.75 1231.08 1293.70 1230.60 1302.01 C 1230.64 1318.66 1230.49 1335.31 1230.33 1351.96 C 1230.08 1358.26 1230.64 1364.62 1229.87 1370.89 C 1229.76 1413.60 1229.66 1456.32 1229.27 1499.03 C 1228.88 1500.62 1230.14 1503.22 1228.14 1504.01 L 1229.15 1504.70 C 1228.37 1515.12 1228.98 1525.59 1228.78 1536.03 C 1228.84 1552.38 1228.65 1568.72 1228.64 1585.07 C 1228.85 1590.73 1225.82 1596.02 1222.02 1600.01 C 1214.24 1607.39 1203.65 1610.54 1193.53 1613.20 C 1170.99 1618.68 1147.91 1621.47 1124.93 1624.38 C 1101.02 1626.75 1077.00 1627.80 1053.01 1629.11 C 1003.51 1631.73 953.87 1630.18 904.45 1626.62 C 880.13 1625.59 855.99 1622.15 831.96 1618.37 C 818.03 1615.90 803.93 1613.47 790.77 1608.13 C 781.89 1604.49 773.03 1597.73 771.46 1587.67 C 771.14 1562.45 771.23 1537.23 771.21 1512.01 C 771.19 1509.03 771.42 1506.03 770.85 1503.12 C 770.33 1460.09 770.14 1417.05 770.24 1374.02 C 770.27 1372.61 770.11 1371.24 769.75 1369.91 C 769.88 1369.45 770.14 1368.53 770.26 1368.08 C 769.43 1365.46 769.80 1362.70 769.73 1360.02 C 769.61 1343.68 769.42 1327.35 769.38 1311.01 C 769.61 1300.49 767.93 1289.13 773.55 1279.60 C 776.90 1273.18 784.29 1270.42 791.12 1269.77 Z"
  />
  <path
    fill="#000000"
    stroke="#000000"
    stroke-width="0.09375"
    opacity="1.00"
    d=" M 792.50 1277.66 C 801.19 1276.07 810.24 1284.16 809.49 1293.04 C 809.57 1302.38 799.12 1309.80 790.35 1306.56 C 782.58 1304.41 778.05 1295.25 780.73 1287.72 C 782.27 1282.41 787.10 1278.49 792.50 1277.66 Z"
  />
  <path
    fill="#000000"
    stroke="#000000"
    stroke-width="0.09375"
    opacity="1.00"
    d=" M 1203.49 1277.54 C 1211.80 1276.38 1220.12 1283.47 1219.98 1291.96 C 1220.64 1300.88 1211.70 1308.83 1202.93 1307.07 C 1195.82 1306.06 1190.04 1299.28 1190.51 1292.06 C 1190.41 1284.82 1196.56 1278.68 1203.49 1277.54 Z"
  />
  <path
    fill="#6089ff"
    stroke="#6089ff"
    stroke-width="0.09375"
    opacity="1.00"
    d=" M 735.71 1310.53 C 740.53 1300.64 747.65 1292.16 754.64 1283.77 C 754.84 1292.18 754.16 1300.58 753.64 1308.98 C 753.82 1323.83 752.69 1338.67 752.60 1353.52 C 745.36 1346.39 736.96 1339.47 733.71 1329.48 C 731.45 1323.21 732.88 1316.35 735.71 1310.53 Z"
  />
  <path
    fill="#6089ff"
    stroke="#6089ff"
    stroke-width="0.09375"
    opacity="1.00"
    d=" M 1245.35 1283.77 C 1252.07 1291.81 1258.85 1299.94 1263.69 1309.30 C 1266.74 1315.24 1268.66 1322.29 1266.49 1328.87 C 1263.39 1339.16 1254.78 1346.25 1247.40 1353.52 C 1247.33 1341.02 1246.50 1328.54 1246.35 1316.04 C 1246.66 1305.26 1244.93 1294.55 1245.35 1283.77 Z"
  />
  <path
    fill="#959898"
    stroke="#959898"
    stroke-width="0.09375"
    opacity="1.00"
    d=" M 792.26 1285.34 C 797.90 1282.95 804.37 1289.26 801.96 1294.93 C 800.28 1300.81 791.33 1301.94 788.35 1296.55 C 785.39 1292.61 787.93 1286.94 792.26 1285.34 Z"
  />
  <path
    fill="#959898"
    stroke="#959898"
    stroke-width="0.09375"
    opacity="1.00"
    d=" M 1202.32 1285.45 C 1208.06 1282.72 1215.24 1289.63 1212.26 1295.38 C 1210.37 1300.74 1202.39 1301.71 1199.19 1297.09 C 1196.05 1293.39 1197.77 1287.05 1202.32 1285.45 Z"
  />
  <path
    fill="#6089ff"
    stroke="#6089ff"
    stroke-width="0.09375"
    opacity="1.00"
    d=" M 540.35 1353.46 C 542.20 1351.00 544.57 1348.10 547.97 1348.21 C 555.73 1347.62 563.00 1350.98 569.93 1354.04 C 579.54 1358.76 588.92 1363.98 598.60 1368.58 C 593.18 1370.50 588.43 1373.81 583.33 1376.40 C 564.59 1387.52 554.28 1408.67 550.18 1429.41 C 545.41 1425.26 540.86 1420.69 537.98 1414.98 C 531.37 1403.23 531.05 1389.15 532.67 1376.09 C 533.92 1368.22 535.77 1360.13 540.35 1353.46 Z"
  />
  <path
    fill="#6089ff"
    stroke="#6089ff"
    stroke-width="0.09375"
    opacity="1.00"
    d=" M 1430.08 1354.03 C 1437.52 1350.74 1445.50 1347.08 1453.86 1348.43 C 1457.19 1349.68 1459.35 1352.83 1461.13 1355.78 C 1466.33 1365.28 1467.69 1376.28 1468.22 1386.94 C 1468.15 1396.83 1466.82 1407.08 1461.62 1415.70 C 1458.77 1421.11 1454.37 1425.42 1449.82 1429.40 C 1445.71 1408.64 1435.38 1387.46 1416.60 1376.36 C 1411.50 1373.79 1406.78 1370.45 1401.36 1368.59 C 1411.06 1364.00 1420.44 1358.76 1430.08 1354.03 Z"
  />
  <path
    fill="#959898"
    stroke="#959898"
    stroke-width="0.09375"
    opacity="1.00"
    d=" M 620.19 1370.34 C 628.78 1367.25 636.71 1362.60 645.17 1359.21 C 651.66 1357.07 658.78 1359.04 664.46 1362.50 C 673.35 1367.97 681.61 1374.49 688.92 1381.96 C 679.71 1386.94 670.60 1392.09 661.32 1396.94 C 650.80 1384.17 636.64 1373.69 620.19 1370.34 Z"
  />
  <path
    fill="#959898"
    stroke="#959898"
    stroke-width="0.09375"
    opacity="1.00"
    d=" M 1335.57 1362.48 C 1341.24 1359.03 1348.36 1357.06 1354.85 1359.22 C 1363.33 1362.63 1371.29 1367.27 1379.90 1370.39 C 1363.35 1373.56 1349.22 1384.24 1338.62 1396.96 C 1329.40 1392.02 1320.26 1386.96 1311.08 1381.96 C 1318.39 1374.48 1326.67 1367.96 1335.57 1362.48 Z"
  />
  <path
    fill="#ededed"
    stroke="#ededed"
    stroke-width="0.09375"
    opacity="1.00"
    d=" M 603.52 1380.88 C 619.58 1378.31 635.48 1386.26 646.65 1397.35 C 662.39 1412.80 671.58 1433.96 675.26 1455.49 C 678.79 1477.14 676.70 1500.40 665.99 1519.85 C 659.03 1532.58 646.92 1543.40 632.16 1545.42 C 616.83 1547.69 601.61 1540.64 590.70 1530.21 C 575.56 1515.93 566.09 1496.39 561.86 1476.18 C 557.24 1454.99 558.32 1432.11 567.17 1412.13 C 573.82 1397.10 586.91 1383.92 603.52 1380.88 Z"
  />
  <path
    fill="#ededed"
    stroke="#ededed"
    stroke-width="0.09375"
    opacity="1.00"
    d=" M 1384.02 1380.90 C 1394.70 1378.87 1405.72 1382.47 1414.40 1388.69 C 1425.87 1397.28 1433.44 1410.19 1437.10 1423.91 C 1443.46 1446.67 1441.33 1471.26 1433.20 1493.28 C 1427.34 1508.84 1418.04 1523.44 1405.00 1533.94 C 1395.47 1541.59 1383.33 1546.62 1370.96 1545.73 C 1361.91 1545.27 1353.29 1541.30 1346.49 1535.43 C 1336.47 1526.74 1330.22 1514.47 1326.72 1501.84 C 1320.36 1478.37 1322.78 1452.98 1331.74 1430.51 C 1337.76 1415.61 1346.96 1401.66 1359.78 1391.76 C 1366.85 1386.31 1375.14 1382.27 1384.02 1380.90 Z"
  />
  <path
    fill="#000000"
    stroke="#000000"
    stroke-width="0.09375"
    opacity="1.00"
    d=" M 1142.54 1387.62 C 1160.87 1386.06 1179.90 1392.94 1192.83 1406.11 C 1204.56 1417.83 1211.49 1434.35 1211.02 1450.99 C 1211.27 1470.15 1201.69 1488.95 1186.48 1500.50 C 1172.85 1511.08 1154.74 1515.50 1137.76 1512.61 C 1119.77 1509.71 1103.38 1498.50 1094.13 1482.80 C 1085.23 1468.19 1083.15 1449.90 1087.61 1433.47 C 1091.50 1419.42 1100.56 1406.90 1112.57 1398.64 C 1121.45 1392.60 1131.85 1388.76 1142.54 1387.62 Z"
  />
  <path
    fill="#959898"
    stroke="#959898"
    stroke-width="0.09375"
    opacity="1.00"
    d=" M 665.76 1402.71 C 675.10 1397.57 684.41 1392.39 693.84 1387.44 C 704.92 1400.41 713.58 1415.42 719.28 1431.49 C 707.39 1434.76 695.51 1438.06 683.63 1441.38 C 679.89 1427.61 673.98 1414.40 665.76 1402.71 Z"
  />
  <path
    fill="#959898"
    stroke="#959898"
    stroke-width="0.09375"
    opacity="1.00"
    d=" M 1280.71 1431.49 C 1286.44 1415.42 1295.07 1400.41 1306.16 1387.44 C 1315.59 1392.39 1324.90 1397.57 1334.23 1402.72 C 1326.01 1414.40 1320.10 1427.61 1316.37 1441.38 C 1304.48 1438.06 1292.60 1434.75 1280.71 1431.49 Z"
  />
  <path
    fill="#000000"
    stroke="#000000"
    stroke-width="0.09375"
    opacity="1.00"
    d=" M 806.57 1395.71 C 809.50 1394.16 812.84 1394.62 816.03 1394.59 C 874.35 1394.63 932.67 1394.54 990.99 1394.63 C 993.43 1394.42 995.56 1396.43 995.40 1398.91 C 995.53 1432.95 995.31 1466.99 995.51 1501.03 C 995.87 1504.04 992.43 1505.06 990.04 1504.86 C 932.02 1504.87 874.01 1504.84 816.00 1504.88 C 813.13 1504.81 810.05 1505.13 807.44 1503.71 C 805.72 1502.82 805.64 1500.65 805.65 1499.00 C 805.65 1466.31 805.67 1433.63 805.64 1400.95 C 805.52 1399.13 806.06 1397.41 806.57 1395.71 Z"
  />
  <path
    fill="#959898"
    stroke="#959898"
    stroke-width="0.09375"
    opacity="1.00"
    d=" M 1142.84 1395.00 C 1154.65 1393.93 1166.61 1396.57 1176.87 1402.52 C 1176.00 1404.31 1175.16 1406.12 1174.32 1407.94 C 1165.48 1404.91 1155.99 1403.61 1146.80 1405.78 C 1145.46 1402.18 1144.18 1398.58 1142.84 1395.00 Z"
  />
  <path
    fill="#959898"
    stroke="#959898"
    stroke-width="0.09375"
    opacity="1.00"
    d=" M 1097.03 1428.15 C 1103.90 1412.09 1118.70 1400.01 1135.66 1396.04 C 1137.07 1399.96 1138.49 1403.89 1139.98 1407.80 C 1128.25 1412.56 1118.62 1422.05 1113.50 1433.62 C 1108.00 1431.83 1102.50 1430.04 1097.03 1428.15 Z"
  />
  <path
    fill="#959898"
    stroke="#959898"
    stroke-width="0.09375"
    opacity="1.00"
    d=" M 1182.77 1406.80 C 1190.73 1413.08 1197.40 1421.56 1200.31 1431.37 C 1195.48 1423.20 1189.16 1415.77 1180.81 1411.05 C 1181.45 1409.62 1182.09 1408.19 1182.77 1406.80 Z"
  />
  <path
    fill="#ededed"
    stroke="#ededed"
    stroke-width="0.09375"
    opacity="1.00"
    d=" M 1153.15 1412.22 C 1169.53 1410.11 1186.51 1419.48 1193.61 1434.35 C 1202.32 1450.90 1197.38 1473.06 1182.51 1484.39 C 1169.15 1495.29 1148.82 1496.07 1134.63 1486.30 C 1125.95 1480.52 1119.66 1471.31 1117.51 1461.10 C 1114.81 1449.90 1117.73 1437.67 1124.49 1428.45 C 1131.14 1419.25 1141.98 1413.58 1153.15 1412.22 Z"
  />
  <path
    fill="#000000"
    stroke="#000000"
    stroke-width="0.09375"
    opacity="1.00"
    d=" M 1013.10 1428.95 C 1012.81 1426.59 1014.51 1424.52 1016.96 1424.69 C 1030.63 1424.51 1044.31 1424.68 1057.99 1424.62 C 1061.45 1424.66 1065.07 1424.17 1068.33 1425.68 C 1069.61 1434.05 1068.70 1442.57 1068.97 1451.01 C 1068.93 1460.36 1069.06 1469.72 1068.92 1479.07 C 1069.07 1480.84 1067.92 1482.85 1065.95 1482.76 C 1049.94 1482.73 1033.93 1482.77 1017.93 1482.73 C 1015.71 1482.92 1012.99 1481.71 1013.01 1479.19 C 1013.13 1462.44 1012.97 1445.69 1013.10 1428.95 Z"
  />
  <path
    fill="#959898"
    stroke="#959898"
    stroke-width="0.09375"
    opacity="1.00"
    d=" M 1019.99 1431.35 C 1034.00 1431.36 1048.02 1431.35 1062.04 1431.35 C 1062.06 1446.12 1062.06 1460.89 1062.04 1475.66 C 1048.02 1475.68 1034.00 1475.65 1019.99 1475.67 C 1019.97 1460.90 1019.97 1446.12 1019.99 1431.35 Z"
  />
  <path
    fill="#959898"
    stroke="#959898"
    stroke-width="0.09375"
    opacity="1.00"
    d=" M 1094.46 1434.98 C 1100.13 1436.49 1105.59 1438.66 1111.22 1440.34 C 1107.44 1454.43 1110.59 1470.11 1119.52 1481.65 C 1115.72 1484.26 1111.91 1486.85 1108.07 1489.39 C 1094.35 1475.30 1088.97 1453.88 1094.46 1434.98 Z"
  />
  <path
    fill="#959898"
    stroke="#959898"
    stroke-width="0.09375"
    opacity="1.00"
    d=" M 685.24 1448.40 C 697.30 1444.92 709.42 1441.65 721.52 1438.30 C 727.20 1457.07 728.36 1477.14 725.27 1496.48 C 712.04 1496.42 698.87 1497.81 685.65 1497.65 C 687.38 1490.20 687.60 1482.53 688.27 1474.95 C 687.70 1466.06 687.16 1457.12 685.24 1448.40 Z"
  />
  <path
    fill="#959898"
    stroke="#959898"
    stroke-width="0.09375"
    opacity="1.00"
    d=" M 1274.73 1496.48 C 1271.65 1477.14 1272.79 1457.07 1278.48 1438.30 C 1290.58 1441.64 1302.70 1444.93 1314.76 1448.40 C 1313.27 1455.20 1312.56 1462.13 1312.16 1469.08 C 1311.51 1473.19 1311.80 1477.35 1312.30 1481.47 C 1312.57 1486.90 1313.13 1492.33 1314.36 1497.65 C 1301.13 1497.83 1287.95 1496.42 1274.73 1496.48 Z"
  />
  <path
    fill="#959898"
    stroke="#959898"
    stroke-width="0.09375"
    opacity="1.00"
    d=" M 1124.37 1487.07 C 1132.89 1495.26 1144.41 1499.60 1156.10 1500.41 C 1156.16 1502.19 1156.24 1503.99 1156.33 1505.81 C 1141.31 1508.17 1125.51 1503.63 1113.56 1494.33 C 1117.16 1491.91 1120.73 1489.44 1124.37 1487.07 Z"
  />
  <path
    fill="#959898"
    stroke="#959898"
    stroke-width="0.09375"
    opacity="1.00"
    d=" M 1163.44 1499.79 C 1173.58 1498.50 1183.06 1493.79 1190.47 1486.80 C 1183.62 1495.33 1173.83 1501.13 1163.45 1504.29 C 1163.42 1502.76 1163.43 1501.28 1163.44 1499.79 Z"
  />
  <path
    fill="#959898"
    stroke="#959898"
    stroke-width="0.09375"
    opacity="1.00"
    d=" M 683.93 1505.08 C 697.22 1504.24 710.54 1504.29 723.82 1503.32 C 721.04 1514.34 716.73 1525.03 710.54 1534.59 C 707.15 1539.65 703.69 1545.27 697.92 1547.90 C 690.76 1551.14 682.68 1550.79 675.02 1550.32 C 668.41 1549.75 661.82 1548.88 655.24 1548.09 C 669.87 1538.06 679.27 1521.94 683.93 1505.08 Z"
  />
  <path
    fill="#959898"
    stroke="#959898"
    stroke-width="0.09375"
    opacity="1.00"
    d=" M 1276.19 1503.33 C 1289.47 1504.28 1302.78 1504.25 1316.07 1505.08 C 1320.73 1521.94 1330.13 1538.06 1344.76 1548.09 C 1332.07 1549.35 1319.10 1552.27 1306.44 1549.42 C 1300.87 1548.27 1296.30 1544.52 1293.14 1539.94 C 1285.04 1529.06 1279.45 1516.46 1276.19 1503.33 Z"
  />
  <path
    fill="#000000"
    stroke="#000000"
    stroke-width="0.09375"
    opacity="1.00"
    d=" M 849.22 1532.14 C 860.66 1528.88 873.36 1535.21 878.35 1545.84 C 882.04 1553.84 881.32 1563.88 876.07 1571.05 C 871.38 1577.73 863.21 1581.82 855.03 1581.33 C 843.88 1581.45 833.67 1572.75 831.36 1561.96 C 828.12 1549.40 836.68 1535.27 849.22 1532.14 Z"
  />
  <path
    fill="#000000"
    stroke="#000000"
    stroke-width="0.09375"
    opacity="1.00"
    d=" M 940.12 1532.16 C 951.58 1528.86 964.33 1535.17 969.34 1545.82 C 973.60 1554.91 971.93 1566.57 964.81 1573.78 C 957.01 1582.26 943.08 1583.83 933.45 1577.62 C 926.43 1573.25 921.92 1565.26 921.69 1557.01 C 921.40 1545.90 929.28 1534.95 940.12 1532.16 Z"
  />
  <path
    fill="#959898"
    stroke="#959898"
    stroke-width="0.09375"
    opacity="1.00"
    d=" M 850.40 1539.47 C 854.96 1537.77 860.03 1538.66 864.36 1540.63 C 871.75 1544.47 875.67 1553.95 872.88 1561.86 C 870.20 1571.06 859.19 1577.06 850.12 1573.57 C 841.37 1570.97 835.79 1560.92 838.30 1552.13 C 839.63 1546.03 844.52 1541.28 850.40 1539.47 Z"
  />
  <path
    fill="#959898"
    stroke="#959898"
    stroke-width="0.09375"
    opacity="1.00"
    d=" M 941.45 1539.45 C 946.02 1537.77 951.08 1538.68 955.41 1540.65 C 962.79 1544.53 966.68 1554.01 963.86 1561.91 C 961.10 1571.35 949.59 1577.30 940.43 1573.33 C 931.54 1570.30 926.40 1559.53 929.72 1550.73 C 931.35 1545.20 936.07 1541.16 941.45 1539.45 Z"
  />
  <path
    fill="#000000"
    stroke="#000000"
    stroke-width="0.09375"
    opacity="1.00"
    d=" M 787.40 1574.69 C 793.31 1571.96 801.16 1573.63 804.58 1579.42 C 809.68 1586.95 804.41 1599.06 795.00 1599.38 C 787.66 1600.60 780.24 1594.45 780.44 1586.96 C 779.89 1581.89 782.80 1576.82 787.40 1574.69 Z"
  />
  <path
    fill="#000000"
    stroke="#000000"
    stroke-width="0.09375"
    opacity="1.00"
    d=" M 1201.35 1574.37 C 1207.54 1571.87 1215.67 1574.28 1218.51 1580.60 C 1220.41 1585.36 1219.93 1591.44 1216.31 1595.30 C 1211.14 1601.29 1200.31 1600.82 1195.88 1594.18 C 1191.11 1587.71 1193.69 1577.30 1201.35 1574.37 Z"
  />
  <path
    fill="#959898"
    stroke="#959898"
    stroke-width="0.09375"
    opacity="1.00"
    d=" M 792.41 1580.48 C 796.87 1579.49 801.27 1584.78 798.97 1588.93 C 797.36 1593.01 791.33 1593.79 788.75 1590.24 C 785.75 1586.90 788.26 1581.31 792.41 1580.48 Z"
  />
  <path
    fill="#959898"
    stroke="#959898"
    stroke-width="0.09375"
    opacity="1.00"
    d=" M 1205.52 1580.49 C 1210.55 1579.38 1214.84 1586.33 1211.25 1590.24 C 1208.83 1593.51 1203.33 1593.19 1201.39 1589.60 C 1198.91 1586.18 1201.50 1581.06 1205.52 1580.49 Z"
  />
  <path
    fill="#6089ff"
    stroke="#6089ff"
    stroke-width="0.09375"
    opacity="1.00"
    d=" M 831.31 1724.80 C 760.86 1700.67 698.60 1655.49 650.43 1599.05 C 666.92 1605.99 684.27 1610.56 701.45 1615.42 C 727.15 1622.42 753.14 1628.44 779.46 1632.62 C 786.83 1651.97 796.19 1670.52 806.72 1688.34 C 814.24 1700.92 822.13 1713.35 831.31 1724.80 Z"
  />
  <path
    fill="#6089ff"
    stroke="#6089ff"
    stroke-width="0.09375"
    opacity="1.00"
    d=" M 1295.95 1616.12 C 1314.01 1611.06 1332.24 1606.31 1349.57 1599.05 C 1301.39 1655.48 1239.15 1700.68 1168.69 1724.80 C 1178.75 1712.21 1187.34 1698.49 1195.47 1684.59 C 1205.11 1667.93 1213.68 1650.62 1220.54 1632.62 C 1245.97 1628.58 1271.10 1622.82 1295.95 1616.12 Z"
  />
  <path
    fill="#6089ff"
    stroke="#6089ff"
    stroke-width="0.09375"
    opacity="1.00"
    d=" M 791.32 1634.42 C 827.53 1639.91 863.96 1644.35 900.53 1646.31 C 905.67 1668.50 912.74 1690.24 921.78 1711.15 C 927.57 1724.44 934.04 1737.52 942.19 1749.54 C 912.69 1746.30 883.58 1740.06 854.98 1732.18 C 852.55 1731.47 849.83 1730.95 848.18 1728.85 C 837.77 1717.62 829.21 1704.85 821.02 1691.96 C 809.66 1673.59 799.36 1654.49 791.32 1634.42 Z"
  />
  <path
    fill="#6089ff"
    stroke="#6089ff"
    stroke-width="0.09375"
    opacity="1.00"
    d=" M 1099.47 1646.31 C 1136.04 1644.35 1172.47 1639.92 1208.68 1634.42 C 1201.28 1652.94 1191.92 1670.61 1181.62 1687.66 C 1173.35 1701.10 1164.60 1714.35 1154.19 1726.26 C 1152.32 1728.29 1150.55 1730.78 1147.68 1731.41 C 1118.25 1739.72 1088.22 1746.17 1057.81 1749.54 C 1067.36 1735.42 1074.65 1719.91 1081.17 1704.20 C 1088.78 1685.42 1094.91 1666.05 1099.47 1646.31 Z"
  />
  <path
    fill="#6089ff"
    stroke="#6089ff"
    stroke-width="0.09375"
    opacity="1.00"
    d=" M 911.51 1647.52 C 935.28 1649.90 959.15 1651.05 983.02 1651.86 C 1018.23 1652.56 1053.45 1650.80 1088.49 1647.52 C 1082.84 1670.50 1075.27 1693.04 1065.30 1714.51 C 1059.25 1727.19 1052.84 1740.01 1043.85 1750.86 C 1015.01 1753.88 985.81 1753.56 956.91 1751.11 C 955.61 1750.91 955.01 1749.58 954.24 1748.74 C 944.82 1735.75 937.56 1721.35 931.17 1706.68 C 922.94 1687.57 916.47 1667.72 911.51 1647.52 Z"
  />
</svg>
