<svg xmlns="http://www.w3.org/2000/svg" viewBox="0 0 2000 2000">
  <path fill="#00a900" stroke="#00a900" stroke-width=".094" d="M0 0h2000v2000H0V0Z"/>
  <path stroke="#000" stroke-width=".094" d="M973.57 225.53c3.44-4.45 8.73-7.63 14.42-7.87 8.5.65 15.26 6.74 20.24 13.19 8.19 10.67 14.21 22.8 20.15 34.81 7.06 14.53 13.05 29.55 19.03 44.55 30.09-26.35 62.28-50.99 98.54-68.27 14.9-6.9 30.32-12.97 46.39-16.55 7.56-1.4 15.79-3.31 23.08.19 5.59 2.28 8.72 8.99 6.81 14.73-2.04 6.26-6.88 11-10.95 15.98-25.35 28.18-43.45 62.44-54.73 98.52 16.63-10.12 34.17-18.67 52.04-26.36 34.39-15.01 71.25-24.87 108.8-26.92 12.57-.13 25.21-.63 37.72 1 8.37.99 16.89 2.24 24.66 5.69 4.7 2 8.25 6.57 8.61 11.72-.29 4.68-3.14 8.91-6.92 11.56-5.46 3.9-11.75 6.38-17.8 9.19-29.94 13.28-59.52 28.7-83.85 50.96 8.95-.24 18.32.14 26.58 3.94 5.19 2.29 9.07 7.67 8.9 13.43-1.03 7.9-7.28 13.59-13.43 17.95-10.93 7.72-22.39 14.69-33 22.88-15.42 11.64-29.55 24.95-42.23 39.52 35.22-16.16 72.07-29.75 110.61-35.22 39.25-5.72 79.47-6.88 118.64.1 7.25 1.47 14.75 2.88 21.22 6.68 4.25 2.42 7.61 7.06 7.33 12.11-.45 4.89-3.98 8.92-8.16 11.18-7.32 4.02-15.47 6.13-23.33 8.79-31.19 9.78-61.51 22.62-89.55 39.5-30.8 18.58-59.84 41.68-79.42 72.3 43.86-9.53 89.71-10.24 133.78-1.62 12.86 2.6 25.64 5.95 37.71 11.18 5.14 2.31 10.28 4.88 14.55 8.63 3.46 3.04 6.12 7.33 6.35 12.02-.4 6.29-5.36 11.28-11.05 13.37-9.24 3.52-19.16 4.59-28.82 6.36-37.25 5.76-74.67 13.21-109.37 28.39-9.19 3.89-17.99 8.58-26.69 13.44 20.21 1.91 40.64 5.19 59.25 13.67 5.83 2.77 11.71 6.17 15.48 11.57 2.32 3.61 3.96 8.26 2.08 12.42-2.7 7.99-11.74 10.59-19.1 12.26-20.26 4.14-40.92 7.49-60.04 15.73-23.57 10.05-42.93 27.77-59.37 47.07 29 13.57 54.88 33.01 78.22 54.76 26.1 24.56 47.15 54.34 62.24 86.8 15.65 34.13 26.58 70.33 33.7 107.15 6.56 36.65 8.61 73.9 10.48 111 .32 11.34.07 22.69.83 34.02.05 15.66.49 31.34-.47 46.98-.29 10.33-.01 20.69-.94 30.99-.43 8.31-.1 16.65-.94 24.93-1.32 44.96-6.19 89.85-14.86 134.01-8.06 39.6-18.98 78.8-35.1 115.93-11.97 27.93-28.19 53.97-47.76 77.2-19.71 23.75-43.13 44.47-69.53 60.51-28.89 17.85-60.48 30.9-92.75 41.23-24.15 7.6-48.84 13.53-73.89 17.26-45.02 6.49-90.57 8.51-136.02 7.44-44.27-1.37-88.86-7.43-130.6-22.78-20.98-7.68-40.63-18.59-59.09-31.09-16.35 6.84-35.16 3.66-50.33-4.68-6.31-3.4-12.1-7.7-17.38-12.53-16.07 9.27-33.44 16.44-51.66 20.12-34.48 7.41-71.14 1.88-102.62-13.74-29.86-14.63-55.21-37.41-75.18-63.81-21.41-28.25-37.06-60.61-47.64-94.36-22.56-72.68-22.97-152.15-.82-224.97 10.33-33.64 25.77-65.91 47.04-94.02 20.26-26.87 46.35-49.79 77.01-64.02 7.47-3.65 15.42-6.14 23.21-8.98 2.97-9 6.53-17.9 12.04-25.69 2.61-4.56 6.96-8 9.24-12.67 2.29-23.28 5.64-46.48 10.55-69.36-15.69-19.82-23.79-45.88-20.08-71.08-30.9-11.86-61.81-23.7-92.73-35.51-10.17 10.97-24.86 17.85-39.91 17.67-13.5.25-26.83-5.18-36.79-14.21-12.49-11.45-19.22-28.92-17.33-45.8.56-9.47 4.74-18.33 10.11-25.99 9.97-13.87 26.88-22.62 44.02-22.23 14.26-.26 28.3 5.91 38.3 15.96 11 11.07 16.68 26.93 15.59 42.47 30.13 11.57 60.29 23.09 90.43 34.64 15.11-25.85 42.51-43.38 71.82-48.38 2.33-.47 5.19-.44 6.5-2.82 14.65-19.45 31.61-37.21 50.92-52.09 7.88-6.15 16.04-11.97 24.45-17.38-8.24-8.84-17.3-16.97-27.18-23.93-17.2-11.89-36.79-20.19-57.13-24.89-9.44-2.27-19.06-3.63-28.64-5.12-4.79-.84-9.86-1.6-13.94-4.43-4.23-2.89-5.95-8.83-3.92-13.53 2.24-5.41 7.17-8.99 11.7-12.39 14.65-10.37 31.11-18.14 48.37-22.99-30.42-18.69-64.88-30.01-99.83-36.58-20.86-3.99-42.2-5.51-62.77-10.99-8.48-2.51-18.06-6.29-21.79-15.02-3.26-6.73-.05-14.6 4.92-19.53 8.51-8.25 19.98-12.42 31.1-15.81 25.05-7.13 51.16-9.67 77.11-10.3 37.67-.08 75.38 5.65 111.27 17.14 4.49 1.42 8.95 2.94 13.44 4.38-22.59-28.88-49.76-54.03-79.61-75.25-36.61-25.88-77.52-46.25-121.18-56.96-4.13-.88-8.17-3.67-9.1-8-1.35-4.87 2.08-9.79 6.54-11.55 15.92-7.05 33.15-10.71 50.39-12.66 42.13-4.26 84.72 2.33 125.1 14.4 11.59 3.44 22.94 7.6 34.21 11.98-17.95-18.13-38.36-33.58-59.47-47.81-6.77-5.03-14.94-9.49-18.25-17.69-2.6-6.28.71-13.59 6.31-16.96 8.48-5.15 18.68-6.07 28.37-6.61 5.68-.76 11.36.14 17.04.43-13.65-13.33-29.67-23.91-46.09-33.48-11.83-6.93-24.12-13.04-35.82-20.18-5.36-3.4-11.06-7.23-13.69-13.26-2.09-4.6-1.33-10.35 2.03-14.16 3.97-4.67 10.13-6.49 15.88-7.84 20.35-4.29 41.37-3.39 61.87-.72 35.11 4.79 69.07 16.79 100.07 33.83 15.67 8.77 30.57 18.89 44.77 29.88-6.25-17.45-13.58-34.59-22.95-50.61-9.14-15.71-21.27-29.34-32.4-43.62-5.25-6.95-11.02-13.93-13.45-22.46-1.93-5.76.67-12.67 5.85-15.82 3.59-1.94 7.83-2.93 11.88-2.03 13.38 2.38 25.83 8.16 37.95 14.09 33.51 16.98 64.2 39.03 93.08 62.95 3.92-6.24 10.48-10.99 18.01-11.36 5.27.15 10.27 2.2 15.02 4.35 6.76-18.25 11.49-37.16 17.59-55.63 2.47-6.99 5.29-14.03 9.9-19.91Z"/>
  <path fill="#00a28a" stroke="#00a28a" stroke-width=".094" d="M990.5 247.58c7.33 14.07 13.45 28.72 19.65 43.31 20.47 47.59 35.5 97.38 47.25 147.79 2.92 13 5.58 26.07 7.57 39.25 1.6 10.96-1.78 23.25-10.84 30.18-1.77 1.19-3.87 2.94-6.11 2.03-3.13-2.45-3.87-6.61-5.07-10.17-7.72-26.76-16.02-53.41-26.81-79.12-10.71-25.91-24.11-50.75-40.37-73.61-4.15-6.03-8.32-12.68-8.32-20.26-.19-7.64 3.67-14.46 5.94-21.55 6.48-19.03 12.5-38.27 17.11-57.85Z"/>
  <path fill="#00a28a" stroke="#00a28a" stroke-width=".094" d="M1101.64 300.68c24.64-18.69 51.61-34.34 80.16-46.26-19.16 23.71-34.95 50.25-45.4 78.94-9.64 25.73-16.55 52.47-20.88 79.6-2.18 14.05-2.46 28.42-6.26 42.19-2.04 7.88-7.98 14.04-14.39 18.7-3.51 2.25-7.79 4.99-12.09 3.41-3.95-2.74-4.12-8.03-5.07-12.31-4.53-26.26-11.73-51.94-17.65-77.9-2.21-9.63-4.84-19.22-5.67-29.09-.6-8.21 1.67-16.94 7.59-22.88 11.96-12.83 25.8-23.72 39.66-34.4Z"/>
  <path fill="#00a28a" stroke="#00a28a" stroke-width=".094" d="M800.87 265.17c29.83 16.13 58.72 34.35 84.47 56.53 8.54 7.38 17.65 14.53 23.61 24.3 6.54 11.1 8.92 24.22 9.56 36.94.48 24.72-.81 49.41-1.39 74.11-.97 12.14-.4 24.51-3.5 36.39-1.23 4.05-2.6 8.46-5.96 11.27-1.94 1.66-4.56.09-5.77-1.66-2.85-4.07-4.02-9.02-5.14-13.78-6.62-32.56-14.19-64.99-24.24-96.68-15.2-46.56-38.26-91.25-71.64-127.42Z"/>
  <path fill="#00a28a" stroke="#00a28a" stroke-width=".094" d="M930.63 323.35c12.23 8.27 21.82 19.72 31.08 31.06 18.59 22.98 31.95 49.65 42.99 76.92 7.11 17.51 13.06 35.47 18.57 53.55 2.4 8.32 5.2 16.56 6.76 25.11 2.39 14.75-1.3 29.84-8.15 42.95-8.12 15.75-17.71 30.7-27.42 45.51-3.98 5.2-7.74 11.78-14.44 13.65-5.46-.04-8.96-5.24-12.15-9.03-8.83-12.15-16.07-25.38-23.34-38.49-11.32-20.13-16.3-43.66-14.71-66.64 1.38-26.98 2.76-53.97 3.06-80.99 1.49-31.21.37-62.49-2.25-93.6Z"/>
  <path fill="#00a28a" stroke="#00a28a" stroke-width=".094" d="M648.32 326.07c37.21 2.12 73.78 11.76 107.82 26.77 32.06 14.39 61.25 34.44 88.26 56.77 7.31 6.33 15.02 12.69 19.64 21.36 4.67 8.61 7.58 18.2 8.58 27.95.13 4.23.3 9.38-2.95 12.59-4.91 1.76-9.95-1.56-13.94-4.19-12.11-9.1-24.54-17.81-37.66-25.39-16.38-9.75-33.79-17.58-50.65-26.42-7.44-3.81-14-9.23-19.2-15.77-10.16-12.76-22.56-23.49-35.32-33.55-19.95-15.73-41.76-29.01-64.58-40.12Z"/>
  <path fill="#00a28a" stroke="#00a28a" stroke-width=".094" d="M1299.11 329.61c12.24-1.95 24.59-2.9 36.94-3.74-30.39 13.08-60.08 29.88-82.19 54.97-6.05 6.31-10.43 14.18-17.54 19.45-5.81 5.09-12.75 8.72-20.14 10.92-20.04 6.16-39.87 13.16-58.77 22.3-6.53 2.81-13.18 6.71-20.54 6.15-2.85-.09-4.64-2.86-5.17-5.38-1.19-8.68-.35-17.83 3.8-25.67 3.1-6.55 8.48-11.57 13.96-16.14 12.81-10.77 27.35-19.22 42.12-26.98 33.6-17.63 69.95-30.29 107.53-35.88Z"/>
  <path fill="#00a28a" stroke="#00a28a" stroke-width=".094" d="M690.08 416.62c24.33 1.99 48.56 6.47 71.62 14.62 27.19 9.87 52.72 24.07 76.14 40.99 24.51 17.76 46.18 39.29 64.66 63.24 30.26 39.06 54.95 82.54 72.11 128.91 6.56 17.91 12.87 35.97 17.23 54.57 1.69 7.92 3.75 15.89 3.75 24.04-.45 6.21-1.59 13.71-7.48 17.16-6.83 3.49-14.77 2.33-22.15 2.55-23.18-.68-46.02 4.04-68.92 6.87-5.65.44-12.38 1.59-16.99-2.53-4.15-4.6-4.78-11.08-5.8-16.91-8.61-53.4-19.24-106.89-38.74-157.52-12.63-32.86-30.17-63.7-50.83-92.15-16-22.07-35.03-41.98-56.69-58.56-12.04-9.28-24.69-17.77-37.91-25.28Z"/>
  <path fill="#00a28a" stroke="#00a28a" stroke-width=".094" d="M1231.89 422.66c13.88-3.08 28.08-4.35 42.26-5.01-15.82 10.42-31.43 21.29-45.51 34.02-23.36 20.7-42.7 45.58-58.74 72.27-18.13 29.63-31.91 61.7-43.23 94.47-10.42 30.93-17.95 62.81-22.97 95.05-1.6 9.38-2.31 18.9-3.96 28.27-2.37 8.13-3.87 17.42-10.74 23.15-6.74 5.55-16.08 4-24.1 3.49-11.34-1.76-22.94-3.19-33.62-7.58-7.27-2.86-13.04-8.77-16.14-15.89-5.06-11.39-7.2-23.77-10.56-35.71-4.37-17.55-12.06-34.72-11.27-53.15-.78-18.74 8.45-35.71 16.9-51.79 16.7-31.3 37.03-60.8 61.38-86.66 22.94-23.8 48.43-45.43 77.06-62.12 25.88-15.05 54.1-26.01 83.24-32.81Z"/>
  <path fill="#00a28a" stroke="#00a28a" stroke-width=".094" d="M1353.85 478.4c27.06-3.79 54.46-4.37 81.74-3.4-30.63 9.4-61 20.49-88.63 36.93-27.38 16.23-51.8 37.52-71.54 62.5-10.87 13.71-19.17 29.23-29.79 43.12-6.88 8.96-16.05 16.01-26.21 20.88-14.33 6.99-28.35 14.61-41.85 23.1-8.98 5.43-17.52 11.88-27.53 15.35-4.49 1.45-9.69 2.67-14.09.3-4.11-2.45-4.67-7.84-4.61-12.17.46-10.63 3.53-20.92 6.24-31.15 4.54-15.59 10.04-30.93 16.5-45.83 6.88-15.1 16.17-29.21 27.79-41.09 6.25-6.68 14.28-11.24 21.8-16.3 25.28-15.91 52.44-29.04 81-37.89 22.57-6.86 45.84-11.11 69.18-14.35Z"/>
  <path fill="#00a28a" stroke="#00a28a" stroke-width=".094" d="M574.07 478.81c35.87-.85 71.85 3.81 106.28 13.93 20.84 6.12 41.19 13.87 60.95 22.86 12.96 5.97 26.12 11.87 37.55 20.56 11.2 8.07 20.67 18.43 27.81 30.24 9.04 13.44 14.29 28.9 19.87 43.98 5.61 16.29 10.93 32.73 14.53 49.6.93 6.61 1.71 14.07-1.95 20.04-2.76 4.12-8.6 2.97-12.6 1.63-10.78-4.34-20.49-10.84-30.45-16.73-11.88-7.26-24.96-14.56-31.69-27.33-13.01-25.14-30.57-47.63-49.65-68.41-20.98-22.64-44.98-42.53-71.43-58.47-21.79-13.16-45.12-23.72-69.22-31.9Z"/>
  <path fill="#00a28a" stroke="#00a28a" stroke-width=".094" d="M1288.61 630.39c25.42-5.38 51.49-7.11 77.44-6.78 21.96-.17 43.76 3.07 65.22 7.54-34.87 5.03-69.69 12.27-102.37 25.72-33.33 13.45-64.54 32.53-90.69 57.29-16.64 16.25-31.39 34.42-44.23 53.81-5.08 7.97-10.94 15.75-18.71 21.28-5.63 4.18-13.06 2.68-19.24.73-8.71-2.85-17.56-5.36-26.03-8.91-5.56-2.34-11.31-6.09-12.9-12.29-2.33-9.61-1.28-19.73.62-29.32 3.67-16.5 17.33-27.7 29.19-38.57 12.39-10.23 25.9-19.01 39.44-27.62 31.46-19.64 65.83-35.26 102.26-42.88Z"/>
  <path fill="#00a28a" stroke="#00a28a" stroke-width=".094" d="M527.08 634.48c23.55-5.61 47.67-9.22 71.93-9.01 41.6-.77 83.05 7.24 122.11 21.33 29.47 10.24 57.32 24.73 83.6 41.48 10.2 6.65 20.4 13.39 29.79 21.16 6.85 6.25 13.23 13.28 17.43 21.62 4.79 9.9 7.4 20.91 7.25 31.93-.35 5.25-.88 11.33-5.14 15.02-4.96 3.85-11.28 5.12-17.12 7.04-8.66 2.47-17.05 6.03-26.02 7.29-3.98.59-8.31-.17-11.48-2.76-4.95-3.89-7.77-9.64-11.33-14.68a333.027 333.027 0 0 0-54.93-62.1c-25.04-22.07-54.12-39.32-84.99-51.89-38.42-15.95-79.88-22.7-121.1-26.43Z"/>
  <path fill="#00a28a" stroke="#00a28a" stroke-width=".094" d="M1278.99 723.04c19.24-1.93 38.94-.83 57.52 4.77-31.74 4.95-63.28 15.93-88.63 36.13-12 9.64-22.56 21.09-31.03 33.94-2.58 3.82-6.23 7.23-10.79 8.39-5.21.44-10.62-3.96-10.7-9.32-.11-3.39 1.82-6.33 3.42-9.16 7.43-12.57 15.76-24.64 25.08-35.88 10.98-12.36 24.79-23.15 41.19-26.92 4.54-1.3 9.24-1.68 13.94-1.95Z"/>
  <path fill="#00a28a" stroke="#00a28a" stroke-width=".094" d="M657.35 736.43c15.64-5.33 32.04-8.9 48.63-8.78 15.35.2 30.81 6.84 40.74 18.68 10.09 11 19.61 22.55 28.08 34.87 2.28 3.42 4.82 6.74 6.51 10.52 1.4 3.59 2.1 8.01-.17 11.41-2.05 2.93-6.25 3.17-9.36 2.1-3.19-1.7-5.55-4.55-7.94-7.17-16.89-20.5-38.41-37.2-62.44-48.5-13.96-6.45-28.91-10.6-44.05-13.13Z"/>
  <path fill="#00a900" stroke="#00a900" stroke-width=".094" d="M1003.45 783.63c11.48-2.09 23.16-.54 34.66.54 9.33 1.16 18.78 2.55 27.53 6.15 5.96 2.47 11.67 6.78 13.96 13.02 2.78 8.08 1.06 16.81-1.2 24.79-3.23 10.11-8.94 19.15-13.82 28.5-3.47 6.28-6.64 12.99-12.05 17.88-4.13 4-11.2 4.21-15.63.59-7.01-5.42-11.18-13.44-16.84-20.09-11.58-15.85-22.92-31.87-33.88-48.16-3.09-4.57-4.72-11.7-.37-16.01 4.73-4.49 11.43-5.98 17.64-7.21Z"/>
  <path fill="#00a900" stroke="#00a900" stroke-width=".094" d="M906.47 787.61c8.24-.73 16.71-2.2 24.83.18 1.74.58 3.86 1.33 4.5 3.27.4 3.69-1.64 7.09-4.03 9.73-15.59 17.4-31.29 34.71-47.18 51.84-4.52 4.82-8.89 10.02-14.82 13.16-5.24 2.95-11.97 5.41-17.61 2.07-6.43-3.02-9.14-9.93-11.97-15.93-3.49-7.6-7.38-15.02-10.41-22.81-2.1-5.95-3.44-13.33.75-18.7 5.17-5.9 12.96-8.33 20.21-10.58 18.21-5.56 36.79-10.06 55.73-12.23Z"/>
  <path fill="#00a900" stroke="#00a900" stroke-width=".094" d="M954.31 802.4c4.57-2.02 10.14-.85 13.58 2.74 2.97 3.14 5.1 6.94 7.59 10.44 15.5 23.02 31.91 45.39 48.16 67.88 5.46 7.63 10.45 16.97 8.32 26.65-1.39 8.8-6.82 16.09-11.28 23.55-14.82 23.93-30.3 47.46-46.46 70.5-5.29 7.27-10.44 15.11-18.27 19.9-4.87 3.18-11.66 3.78-16.69.68-6.04-3.91-10.14-10.07-14.13-15.9-9.33-14.82-17.96-30.08-26.69-45.25-7.93-14.16-16.16-28.18-23.18-42.82-3.24-7.18-6.18-14.78-6.18-22.76-.01-6.03 2.94-11.69 7.08-15.93 19.3-21 38.75-41.86 57.77-63.11 5.85-6.51 11.83-13.62 20.38-16.57Z"/>
  <path fill="#00a900" stroke="#00a900" stroke-width=".094" d="M1107.47 806.45c5.14-5 12.93-5.03 19.59-4.1 19.99 3.08 38.99 10.36 57.64 17.94 10.75 4.41 21.36 9.18 31.83 14.23 6.69 3.06 13.48 7.01 17.31 13.55 4.25 7 3.47 15.71 1.76 23.38-3.92 15.87-9.22 31.39-15.75 46.37-16.66 39.01-34.16 77.68-53.86 115.25-25.64-27.48-49.75-56.33-73.85-85.15-6.34-7.7-12.71-15.38-18.89-23.22-5.79-7.34-10.48-16.14-10.72-25.68.38-7.92 3.42-15.44 7.17-22.33 8.96-16.56 17.81-33.19 25.74-50.27 3.38-6.98 6.53-14.34 12.03-19.97Z"/>
  <path fill="#00a900" stroke="#00a900" stroke-width=".094" d="M793.93 821.95c5.57-1.8 12.57-1.28 16.48 3.56 5.53 6.65 8.71 14.82 12.63 22.45 4 8.33 7.99 16.68 11.97 25.04 2.5 5.22 4.02 11.09 3.39 16.9-1.29 11.26-7.73 21.16-15.03 29.51-21.81 24.16-44.26 47.73-66.7 71.28-1.44 1.84-3.68 2.49-5.86 2.95-1.27-3.39-1.71-7.03-1.16-10.61 1.86-13.6 2.03-27.64-1.41-41.02-3.77-15.08-11.7-29.51-24-39.27-4.36-3.65-9.97-5.8-13.46-10.46-1.39-1.74-2.79-3.95-2.04-6.25 1.28-4.84 5.29-8.15 8.68-11.55 19.25-18.33 41.04-33.92 64.38-46.61 3.99-2.07 7.86-4.46 12.13-5.92Z"/>
  <path fill="#959898" stroke="#959898" stroke-width=".094" d="M433.52 856.83c8.11-1.3 16.7-1.04 24.34 2.24 11.37 4.5 20.44 14.84 22.7 26.94 1.14 5.46-4.88 11.06-10.13 8.6-4.66-1.68-4.97-7.22-7.03-11.01-4.78-9.42-16.48-13.57-26.48-11.5-3.84.65-7.96 2.71-11.74.71-4.36-1.97-5.19-8.28-1.98-11.61 2.66-2.81 6.72-3.49 10.32-4.37Z"/>
  <path fill="#00a900" stroke="#00a900" stroke-width=".094" d="M1259.42 870.63c5.14-2.45 10.94-.85 15.95 1.12 7.28 2.73 12.79 8.41 18.58 13.37 14.36 13.06 27.08 27.88 37.91 43.98 2.56 3.87 5.4 7.71 6.63 12.27 2.86 9 2.51 18.59 1.85 27.89-3.29 20.65-8.23 41.02-13.74 61.18-2.12 6.75-3.72 14.15-8.68 19.49-3.06 3.23-7.83 2-11.53.81-6.53-2.29-12.94-4.93-19.67-6.56-21.46-5.76-44.36-5.98-65.88-.5-7.93 1.93-15.71 4.37-23.59 6.46-5.01 1.15-11.52 1.07-14.57-3.8-3.53-5.9-.3-12.93 1.97-18.68 7.31-15.61 15.13-30.99 22.25-46.7 13.8-30.27 27.58-60.61 39.14-91.82 2.71-7.08 6.04-15.14 13.38-18.51Z"/>
  <path fill="#464b4b" stroke="#464b4b" stroke-width=".094" d="M682.44 904.93c10.42-1.78 21.64.15 30.4 6.24 12.06 8.11 19.45 21.67 22.53 35.62 5.33 24.35-.35 50.65-14.24 71.21-8.43 12.28-20.21 22.82-34.55 27.49-11 3.65-23.35 2.95-33.8-2.1 15.15-4.95 28.2-15.26 37.43-28.14 14.24-19.76 21.02-45.21 16.87-69.35-2.74-16.06-11.08-31.55-24.64-40.97Z"/>
  <path fill="#959898" stroke="#959898" stroke-width=".094" d="M639.6 913.66c7.63-3.2 16.2-3.64 24.29-2.27 14.16 3.34 24.24 16.05 28.07 29.59 6.63 23.4.44 49.53-14.37 68.57-8.58 10.89-20.59 19.88-34.56 22.01-12.25 2.23-25.37-2.77-33.23-12.38-10.38-12.27-13.07-29.17-11.84-44.76 11.95 4.5 23.85 9.13 35.79 13.67 4.33 1.63 9.13 2.8 13.71 1.43 8.39-1.95 14.42-11.02 12.65-19.51-1.21-6.45-6.24-11.62-12.26-13.91-12.84-5.05-25.75-9.92-38.65-14.83 7.15-11.85 17.4-22.37 30.4-27.61Z"/>
  <path fill="#00a900" stroke="#00a900" stroke-width=".094" d="M847.31 918.26c3.64-1.78 8.39-.78 11 2.32 2.07 2.41 3.56 5.24 5.08 8.02 14.56 27.15 29.84 53.91 45.61 80.38 3.44 5.9 7.2 11.62 10.42 17.65 1.67 3.5 3.5 8.71-.27 11.53-6.1 4.5-13.64 6.39-20.45 9.55-30.39 12.69-57.31 33.77-76.42 60.64-18.85 26.37-30.24 58.2-31.37 90.65-.32 3.43.24 7.79-2.87 10.16-2.55.68-4.26-1.82-5.57-3.56-4.2-6.49-7.02-13.73-10.3-20.69-17.34-37.96-32.89-76.72-46.92-116.01-2.56-7.86-3.41-16.82.22-24.48 2.67-6.54 8.54-10.8 13.25-15.78 31.94-32.05 62.82-65.13 93.51-98.37 4.44-4.64 9.08-9.42 15.08-12.01Z"/>
  <path fill="#00a900" stroke="#00a900" stroke-width=".094" d="M1048.21 927.3c4.19-.74 8.86.52 11.5 4.03 10.79 13.15 22.15 25.82 33.07 38.86 13.72 16.29 27.64 32.4 41.32 48.72 6.21 7.66 12.41 15.7 15.46 25.21 1.75 5.95 2.96 12.65.11 18.47-3.4 7.4-7.51 14.45-11.66 21.44-7.47 12.66-26.27 16.74-38.28 8.28-9.58-6.23-17.2-14.87-26.19-21.83-12.17-9.83-25.96-17.49-40.35-23.55-8.53-3.64-17.49-6.09-26.34-8.82-6.85-1.44-13.86-2.1-20.71-3.54-3.66-.81-7.38-3.49-7.56-7.53.22-5.85 3.95-10.7 7.14-15.32 16.25-23 31.31-46.8 46.85-70.27 4.33-5.44 8.56-12.18 15.64-14.15Z"/>
  <path fill="#00a900" stroke="#00a900" stroke-width=".094" d="M1356.28 986.28c3.14-2.1 5.72 2.16 6.73 4.71 10.15 26.32 15.95 54.11 19.78 82 1.62 11.94 3.12 23.92 3.68 35.97.28 6.06.03 12.58-3.4 17.83-3.39-2.4-5.01-6.3-6.93-9.81-7.24-13.54-16.46-26-27.28-36.89-4.93-5.2-10.03-10.78-12.05-17.81-1.94-7.98.88-15.88 3.15-23.44 4.4-15.2 8.65-30.45 12.19-45.87.54-2.63 1.39-5.59 4.13-6.69Z"/>
  <path fill="#00a28a" stroke="#00a28a" stroke-width=".094" d="M955.2 1048.14c43.85-3.49 89.27 11.84 120.77 42.83 5.49 5.28 10.41 11.11 15.1 17.1 2.02 2.78 5.52 3.94 8.86 3.8 12.69-.03 25.39.04 38.08-.04 4.41-.34 9.95.21 12.68-4.08 17.13-23.73 41.94-42.21 70.32-49.95 24.88-6.91 52-5.45 75.97 4.2 26.44 10.49 48.65 30.44 63.29 54.69 21.27 35.04 27.09 78.72 16.93 118.32-8.06 32.13-26.92 61.78-53.82 81.35-22.69 16.68-51.21 25.36-79.35 23.59-3.97-.03-9.62 1.01-10.28 5.78-1.33 7.38.01 14.92.47 22.34 1.22 24.21 3.91 48.31 5.52 72.5 1.87 24.51 3.56 49.03 5.18 73.56.98 16.28 1.98 32.58 1.66 48.91-.21 7.98-.37 16.31-3.81 23.68-2.92 6.14-9.32 9.51-15.54 11.44-12.72 3.89-26.09 4.76-39.26 5.94-26.27 1.78-52.61 2.07-78.91 3.16-23.95.97-47.92 1.79-71.89 1.21-12.91-.19-25.85-1.34-38.48-4.09-6.45-1.57-13.18-3.38-18.41-7.67-5.05-4.2-6.74-10.97-7.52-17.2-1.96-15.45-.32-31.01.04-46.5 1.35-26.1 3.13-52.17 5.49-78.2 2.86-31.31 6.44-62.56 9.45-93.85.27-3.27-.91-7.11-4.1-8.54-4.03-1.88-8.49-.25-12.68-.13-36.18 3.15-73.51-6.13-103.37-26.95-25.92-17.89-45.97-44.25-55.74-74.24-12.32-37.01-8.82-78.73 8.7-113.5 15.47-31.21 41.59-56.86 72.72-72.37 19.26-9.68 40.44-15.46 61.93-17.09Z"/>
  <path fill="#00a900" stroke="#00a900" stroke-width=".094" d="M623.73 1067.69c1.44-4.99 3.28-10.95 8.36-13.31 5.21-1.02 9.96 2.23 14.85 3.53 9.24 3.35 19.1 3.89 28.77 5.12 0 1.71 1.12 3.83-.56 5.11a94.339 94.339 0 0 1-14.54 12.6c-9.08 6.11-20.02 8.33-30.58 10.4-2.54.19-6.34.18-7.16-2.83-2.48-6.71-.59-13.92.86-20.62Z"/>
  <path fill="#00a900" stroke="#00a900" stroke-width=".094" d="M691.01 1074c3.62-3.27 8.04-5.96 12.98-6.5 3.81.06 6.23 3.49 7.79 6.56 3.47 6.93 5.82 14.35 8.61 21.57 14.77 39.83 31.45 78.94 49.63 117.33 4.2 8.85 8.53 18.04 9.01 28 .44 7.71-2.24 15.27-6.35 21.71-3.87 5.99-8.47 11.48-12.89 17.07-10.08 12.58-20.43 24.96-30.14 37.83-6.57 8.46-12.85 17.15-19.51 25.54-4.78 5.99-10.88 11.4-18.51 13.25-5.75 1.81-11.71.02-17.57.31-14.39.39-28.53 5.66-39.8 14.59-2.43 1.93-5.85 4.11-8.96 2.49-3.09-3.46-3.25-8.44-3.79-12.8-.37-5.53-1.71-11.05-1.19-16.59 1.59-3.2 5.19-4.57 8.39-5.56 4.92-1.62 10.15-1.16 15.25-1.31 6.03-.02 12-1.2 18.04-.78 8.55.12 18.01-.19 25.05-5.69 6.49-5.38 9.34-13.79 11.24-21.73 2.74-13.27 3.27-27.17.18-40.42-1.35-6.09-4.63-11.91-9.87-15.45-8.26-5.8-18.89-5.82-28.57-5.83-11.69-.31-23.37 1.33-35.04.39-4.83-.3-9.29-3.63-10.5-8.38-1.19-5.07-1.12-10.43-.47-15.56.48-4.26 5.18-5.96 8.93-5.6 5.7.49 11.3 2.01 17.05 2.03 14.76.53 29.11-6.73 38.68-17.74 13.33-15.1 19.11-35.87 17.91-55.77-1.18-20.53-10.91-41.83-29.25-52.38 7.94-6.79 15.85-13.64 23.67-20.58Z"/>
  <path stroke="#000" stroke-width=".094" d="M955.48 1076.81c23.92-2.46 48.7 2.12 69.72 13.98 28.38 15.66 49.41 43.88 56.24 75.57 6.97 30.1.55 62.83-16.61 88.44-19.5 29.62-53.43 49.24-88.9 50.9-6.93 1.2-13.85-.36-20.79-.36-18.6-2.76-36.76-9.42-52.1-20.41-24.81-17.42-42.25-45-47.04-74.96-3.86-23.55-.39-48.31 10.29-69.69 13.18-26.99 37.43-48.25 65.87-57.88 7.57-2.64 15.45-4.16 23.32-5.59Z"/>
  <path stroke="#000" stroke-width=".094" d="M1246.37 1089.47c5.82-.8 11.73-1.22 17.58-.31 35.82.87 69.95 22.23 87.5 53.3 11.77 20.57 16.54 45.21 12.75 68.64-4.66 33.24-26.43 63.42-56.33 78.6-21.89 11.37-47.78 14.79-71.85 9.34-32.77-7.05-61.35-30.68-74.51-61.49-5.38-12.78-8.88-26.59-8.32-40.53-1.39-27.58 9.86-55.13 28.78-75.02 16.8-17.95 40.08-29.39 64.4-32.53Z"/>
  <path fill="#464b4b" stroke="#464b4b" stroke-width=".094" d="M945.21 1090.23c11.03-1.97 22.3.32 32.85 3.62 13.44 4.58 26.29 11.54 36.48 21.56 12.76 12.16 22.33 27.63 27.6 44.45 7.21 22.88 6.2 48.25-2.87 70.47-9.03 22.6-26.3 41.78-47.83 53.12-5.79 2.98-11.75 5.91-18.24 6.9-13.49 2.46-27.66 2.37-40.79-1.83-27.51-9.3-49.65-31.84-60.31-58.64-8.7-21.75-9.91-46.4-3.04-68.82 8.82-30.04 31.93-55.62 61.22-66.86 4.81-1.86 9.81-3.27 14.93-3.97Z"/>
  <path fill="#007600" stroke="#007600" stroke-width=".094" d="M998.35 1090.66c29.22 8.13 54.14 29.92 66.39 57.63 10.52 23.21 12.03 50.33 4.22 74.58-8.46 26.97-28.39 50.08-53.9 62.29-5.62 2.79-11.55 4.91-17.55 6.71 29.53-16.17 51.33-45.77 57.51-78.91 1.82-10.56 3.17-21.4 1.62-32.08-2.59-31.67-19.28-61.8-44.58-80.98-4.35-3.4-9.1-6.22-13.71-9.24Z"/>
  <path fill="#464b4b" stroke="#464b4b" stroke-width=".094" d="M634.99 1101.79c8.73-3.83 19.22-3.03 27.4 1.8 11.51 6.51 18.65 18.75 21.86 31.27 5.49 21.3.84 45.75-14.22 62.17-8.51 9.43-21.73 14.69-34.36 11.99 2.35-2.82 5.75-4.4 8.33-6.97 14.12-13.16 20.8-33.01 20.14-52.03-.71-15.02-6.16-30.4-17.53-40.64-3.36-3.25-7.51-5.47-11.62-7.59Z"/>
  <path fill="#007600" stroke="#007600" stroke-width=".094" d="M1276.55 1100.21c18.1 2.6 34.9 11.7 48.38 23.87 14.53 13.49 24.82 31.52 28.9 50.94 3.71 18.11 2.46 37.36-4.21 54.66-7.2 19.16-20.8 35.79-37.97 46.9-10.62 6.91-22.61 11.47-34.99 14.04 14.01-7.64 26.93-17.58 36.58-30.39 14.65-18.75 22.39-42.5 22.32-66.23-.47-19.42-5.88-38.78-16.31-55.23-10.39-16.36-25.12-30.24-42.7-38.56Z"/>
  <path fill="#464b4b" stroke="#464b4b" stroke-width=".094" d="M1238.49 1103.67c11.44-1.21 22.93 1.39 33.63 5.27 5.17 1.74 9.68 4.89 14.09 8.01 25.11 18.11 40.76 49.01 39.52 80.04.14 28.86-14.42 57.03-37.11 74.66-7.31 5.58-15.32 10.77-24.52 12.44-21.04 4.17-43.89.65-61.87-11.36-10.1-7.07-19.19-15.84-25.49-26.51-12.21-19.54-16.96-43.48-13.35-66.22 2.85-18.2 11.11-35.5 23.36-49.24 12.98-15.16 31.98-24.82 51.74-27.09Z"/>
  <path fill="#959898" stroke="#959898" stroke-width=".094" d="M601.99 1116.95c5.51-4.79 12.8-7.04 20-7.44 10.64.18 19.96 7.44 25.01 16.47 11.74 21.13 8.19 49.93-8.67 67.37-6.19 6.01-14.52 10.52-23.36 10.12-8.56-.21-16.53-5.05-21.66-11.74-3.85-4.73-6.27-10.42-8.08-16.18 9.17-1.75 18.52-2.26 27.84-2.06 3.99.18 7.95-.97 11.37-3.01 6.1-3.88 9.59-11.91 7.27-18.91-1.89-6.98-8.48-12.03-15.58-12.67-9.85-.95-19.79-.04-29.6 1.03 3.17-8.77 8.16-17.05 15.46-22.98Z"/>
  <path stroke="#000" stroke-width=".094" d="M923.52 1149.43c.94-2.38 4.31-2.94 6.03-1.1 6.91 7.12 13.21 14.82 19.79 22.24 1.4 1.6 3.23 3.67 2.05 5.95-1.71 1.88-4.19 3.06-5.41 5.38-1.79 2.8-1.79 6.19-2.59 9.32-1.06 2.42-4.24 2.17-6.4 1.81-9.8-1.58-19.72-2.47-29.41-4.66-2.16-3.71.51-7.42 2.02-10.78 4.58-9.42 9.01-18.92 13.92-28.16Z"/>
  <path stroke="#000" stroke-width=".094" d="M988.92 1148.82c1.21-1.57 3.52-2.07 5.25-1.04 1.54 1.56 2.41 3.64 3.42 5.58 4.68 9.67 9.6 19.24 14.02 29.03 1.14 1.92.61 4.06-.21 5.99-9.68 2.16-19.59 3.08-29.38 4.65-2.18.36-5.35.62-6.41-1.8-.81-3.12-.81-6.51-2.57-9.31-1.24-2.32-3.71-3.52-5.43-5.39-1.04-1.95.21-3.93 1.53-5.33 6.55-7.49 12.95-15.13 19.78-22.38Z"/>
  <path stroke="#000" stroke-width=".094" d="M1213.5 1150.47c1.05-2.76 4.97-2.89 6.61-.61 7.09 7.61 13.89 15.5 20.61 23.43 1.93 1.92.92 4.96-1.35 6.06-4.18 2.6-5.2 7.68-5.8 12.2-.5 2.99-4.29 2.96-6.58 2.48-9.79-1.57-19.7-2.48-29.38-4.65-2.21-3.69.47-7.41 1.98-10.77 4.58-9.41 9-18.91 13.91-28.14Z"/>
  <path stroke="#000" stroke-width=".094" d="M1277.87 1150.91c1.14-1.16 2.3-2.75 4.14-2.65 2.51-.31 3.56 2.33 4.58 4.13 5.05 10.31 10.27 20.55 15.02 31 1.13 1.92.61 4.05-.2 5.99-9.69 2.17-19.59 3.08-29.38 4.65-2.33.48-6.16.51-6.6-2.53-.61-4.52-1.65-9.58-5.83-12.18-2.27-1.09-3.25-4.11-1.33-6.01 6.39-7.59 12.92-15.07 19.6-22.4Z"/>
  <path fill="#ff002c" stroke="#ff002c" stroke-width=".094" d="M927.72 1156.71c4.88 5.93 10.09 11.57 15.17 17.34-2.98 3.38-4.93 7.47-6.09 11.79-7.22-1.16-14.46-2.17-21.7-3.17 4.27-8.62 8.44-17.3 12.62-25.96Z"/>
  <path fill="#ff002c" stroke="#ff002c" stroke-width=".094" d="M976.12 1174.05c5.06-5.77 10.28-11.41 15.16-17.34 4.18 8.66 8.34 17.34 12.63 25.96-7.27.99-14.52 2.05-21.76 3.15-1.08-4.35-3.09-8.4-6.03-11.77Z"/>
  <path fill="#ff002c" stroke="#ff002c" stroke-width=".094" d="M1205.09 1183.67c4.28-8.62 8.45-17.3 12.63-25.96 4.88 5.93 10.1 11.57 15.16 17.34-2.95 3.37-4.95 7.43-6.03 11.77-7.25-1.1-14.5-2.16-21.76-3.15Z"/>
  <path fill="#ff002c" stroke="#ff002c" stroke-width=".094" d="M1266.12 1175.05c5.04-5.75 10.25-11.35 15.09-17.29 4.36 8.57 8.36 17.32 12.7 25.9-7.27 1-14.52 2.06-21.76 3.16-1.09-4.34-3.09-8.4-6.03-11.77Z"/>
  <path stroke="#000" stroke-width=".094" d="M955.42 1180.52c5.96-3.06 13.95 1.22 15.47 7.59 2.38 7.47-5.25 15.69-12.88 13.96-5.92-.97-10.31-7.16-9.2-13.05.68-3.69 3.25-6.89 6.61-8.5Z"/>
  <path stroke="#000" stroke-width=".094" d="M1245.42 1181.51c5.96-3.04 13.94 1.22 15.47 7.59 2.39 7.48-5.26 15.71-12.89 13.96-5.25-.89-9.3-5.79-9.36-11.07-.05-4.44 2.84-8.59 6.78-10.48Z"/>
  <path fill="#00a900" stroke="#00a900" stroke-width=".094" d="M511.23 1216.28c15.35-15.1 33.56-27.52 53.8-35.06 2.82 7.75 6.82 15.16 12.43 21.26 1.33 1.62 3.42 3.11 3.13 5.5-.09 10.82.32 21.62.84 32.43-13.15.22-26.3.11-39.43.69-3.69.1-7.77.73-10.42 3.54-2.06 2.24-2.12 5.47-2.14 8.34.02 28.36-.24 56.72-.19 85.09-.17 3.02 1.1 6.34 4.04 7.63 4.02 1.66 8.49.89 12.72 1.07 13.8.18 27.62-.23 41.41.32.53 11.43 1.7 22.84 2.94 34.22-14.23 2.74-28.03 9.37-37.72 20.35-7.83 8.71-12.99 19.44-16.66 30.48-7.23 20.36-7.42 43.06-.71 63.59 7.74 23.37 27.93 41.63 51.3 48.72 14.77 4.08 30.4 4.12 45.53 2.34 10.05 21.28 21.58 41.87 34.68 61.44 2 2.22.54 5.21.23 7.78-2.5 14.95.67 30.34 6.89 44.01-17.65 9.95-37.54 15.89-57.8 16.88-32.92 1.22-65.19-11.9-90.36-32.65-26.52-21.59-46.48-50.36-60.81-81.21-20.42-44.01-29.49-92.69-29.95-141.04.56-40.39 6.97-80.95 21.4-118.8 12.25-32.2 30.09-62.73 54.85-86.92Z"/>
  <path fill="#ff002c" stroke="#ff002c" stroke-width=".094" d="M958.21 1187.16c2.64-1.12 6.17.83 5.88 3.88.18 3.4-4.85 5.59-7.02 2.79-2.12-1.9-1.37-5.52 1.14-6.67Z"/>
  <path fill="#ff002c" stroke="#ff002c" stroke-width=".094" d="M1248.23 1188.15c2.61-1.09 6.11.81 5.86 3.83.24 3.4-4.77 5.65-6.98 2.9-2.17-1.9-1.43-5.57 1.12-6.73Z"/>
  <path stroke="#000" stroke-width=".094" d="M949.34 1205.34c2.71-1.59 5.76.66 8.64.69 4.04.85 8.3-2.01 12.15-.18 1.28 1.89 1.85 4.14 2.59 6.29 2.73 8.66 6.03 17.15 8.45 25.91.78 2.11.09 5.09-2.47 5.46-12.53 1.29-25.16.64-37.74 1.22-1.87-.01-4.01-.04-5.32-1.57-.9-1.98-.11-4.13.57-6.01 3.59-9.68 7.62-19.18 11.28-28.83.51-1.04.76-2.38 1.85-2.98Z"/>
  <path stroke="#000" stroke-width=".094" d="M1239.34 1206.34c2.7-1.6 5.75.65 8.62.69 4.05.87 8.35-2.05 12.19-.15 1.8 2.86 2.44 6.26 3.59 9.41 2.49 7.57 5.3 15.06 7.43 22.76.77 2.13.1 5.06-2.45 5.46-12.54 1.29-25.16.64-37.73 1.22-1.87 0-3.98-.04-5.32-1.52-.95-1.98-.15-4.15.53-6.05 3.59-9.66 7.61-19.15 11.26-28.78.53-1.06.77-2.43 1.88-3.04Z"/>
  <path fill="#ff002c" stroke="#ff002c" stroke-width=".094" d="M943.63 1237.61c3.55-8.21 6.58-16.64 9.89-24.95 3.9.72 7.9.95 11.82.17 2.72 8.03 5.38 16.09 8.05 24.14-9.93-.19-19.84.71-29.76.64Z"/>
  <path fill="#ff002c" stroke="#ff002c" stroke-width=".094" d="M1233.63 1238.61c3.55-8.22 6.58-16.64 9.89-24.95 3.9.72 7.89.96 11.82.17 2.72 8.03 5.37 16.09 8.05 24.14-9.94-.2-19.84.71-29.76.64Z"/>
  <path stroke="#000" stroke-width=".094" d="M1115.25 1230.32c5.31-1.4 11.08-.88 16.15 1.18 5.71 2.67 9.62 7.88 13.12 12.94 6.58 9.69 11.25 20.48 15.99 31.15 6.31 13.7 12.12 27.67 16.64 42.08 4.29 14.34 6.99 29.48 4.92 44.45-1.06 6.79-3.64 13.5-8.22 18.71-4.75 5.25-11.69 8.75-18.85 8.57-8.95.01-17.28-4.81-23.12-11.36-3.94-4.1-6.7-9.11-9.56-13.97-.17.02-.5.07-.67.09-3.01 5.04-5.88 10.24-10.05 14.44-5.78 6.26-13.91 10.8-22.57 10.8-9.13.21-17.78-5.38-22.23-13.2-4.69-7.84-5.76-17.21-5.55-26.18.29-17.6 5.79-34.58 12.14-50.82 4.21-11.1 9.37-21.81 14.15-32.67 4.17-9.36 9.06-18.46 15.34-26.58 3.22-4.15 7.29-7.98 12.37-9.63Z"/>
  <path fill="#007600" stroke="#007600" stroke-width=".094" d="M1120.24 1239.8c4.38-.94 8.64 1.21 11.4 4.55 5.82 6.88 10.21 14.85 14.05 22.98 7.99 17.7 16.3 35.34 21.96 53.97 3.49 12.04 6.04 24.64 4.74 37.23-.88 6.69-3.12 13.9-8.85 18.01-2.69 2.07-6.14 2.53-9.38 3.06 4.26-6.38 6.95-13.79 7.35-21.47 1.53-19.44-4.05-38.56-10.97-56.51-4.42-11.93-9.91-23.41-15.05-35.03-4.22-9.39-9.06-18.55-15.25-26.79Z"/>
  <path fill="#464b4b" stroke="#464b4b" stroke-width=".094" d="M1111.48 1245.24c10.43 13.13 16.09 29.07 23.12 44.09 7.66 18.13 15.22 36.77 16.93 56.57.57 9.04.26 18.88-4.99 26.65-.85 1.19-2.3 3.35-3.89 1.86-7.62-6.39-12.11-15.7-15.16-24.99-1.42-5-9.59-4.98-10.99.02-2.66 8.25-6.53 16.26-12.54 22.61-3.92 4.09-9.28 7.07-15.02 7.31-5.73-.08-10.99-3.7-13.64-8.68-4.29-7.81-4.38-17.08-3.75-25.74 1.89-19.46 9.3-37.76 16.85-55.61 7-15.02 12.72-30.92 23.08-44.09Z"/>
  <path fill="#00a900" stroke="#00a900" stroke-width=".094" d="M1386.22 1259.15c3.54-2.21 4.99 3.3 5.12 5.89.49 12.64.08 25.32-.08 37.98-.93 9.29-.37 18.65-1.34 27.94-1.51 27.14-4.33 54.24-9.06 81.02-3.43 17.95-6.24 36.31-13.84 53.09-2.13 4.3-4.26 8.82-7.86 12.13-5.72 4.43-14.06 3.48-19.74-.54-26.29-18.25-51.56-38.22-73.6-61.52-6.07-6.83-11.86-14.26-14.76-23.04-3.1-10.29-2.99-22.05 2.52-31.52 3.64-5.9 11.18-6.71 17.36-8.03 16.23-2.7 32.06-8.03 46.39-16.15 27.91-15.62 49.97-40.8 63.16-69.81 1.29-2.86 2.63-6.12 5.73-7.44Z"/>
  <path fill="#959898" stroke="#959898" stroke-width=".094" d="M548.68 1261.84c32.17-.01 64.35-.03 96.52 0 .02 20.77.02 41.55 0 62.33-32.17.02-64.34.02-96.52 0-.03-20.78-.02-41.56 0-62.33Z"/>
  <path fill="#464b4b" stroke="#464b4b" stroke-width=".094" d="M658.59 1323.33c-.25-20.21-.21-40.43-.02-60.63 6.83-.01 13.88-.89 20.54 1.06 3.3.86 5.38 3.9 6.1 7.1 3.03 12.1 2.38 24.89-.3 37-1.34 4.74-2.67 10.15-6.83 13.25-6.01 2.98-13 2.01-19.49 2.22Z"/>
  <path stroke="#000" stroke-width=".094" d="M575.56 1271.7c2.5-.81 5.66-.82 7.66 1.14 2.25 2.04 3.11 5.2 3.08 8.18.02 7.31-.03 14.64.02 21.96.09 3.04-.65 6.3-2.82 8.55-2.8 2.79-7.96 2.53-10.41-.58-2.26-3.14-2.35-7.19-2.29-10.89.1-6.39-.07-12.77.06-19.14.14-3.52 1.27-7.58 4.7-9.22Z"/>
  <path stroke="#000" stroke-width=".094" d="M614.22 1272.25c3.04-1.61 7.32-.62 9.14 2.36 1.46 2.52 1.84 5.5 1.82 8.39-.03 5.99-.04 11.99 0 17.99.01 3.29-.32 6.99-2.6 9.58-1.95 2.27-5.34 2.55-8.02 1.63-3.4-1.66-5-5.6-4.87-9.22 0-7.32-.02-14.64 0-21.95-.04-3.39 1.35-7.19 4.53-8.78Z"/>
  <path fill="#00a900" stroke="#00a900" stroke-width=".094" d="M775.82 1281.86c3.73-4.65 9.09-8.43 15.16-8.93 4.96.04 8.94 3.47 12.16 6.89 5.12 5.2 8.26 11.86 12.01 18.03 21.04 35.5 43.45 70.17 66.58 104.34 3.04 4.61 6.32 9.06 9.24 13.76 4.26 6.99 6.31 15.59 4.4 23.68-1.93 8.21-6.43 15.57-11.59 22.14-13.94 17.69-27.68 35.53-42.13 52.82-17.78 21.13-34.64 43.35-55.91 61.19-4.15 3.68-10.12 5.12-15.51 4.03-5.8-1.8-10.58-5.76-16.09-8.2-9.21-4.23-19.84-7.19-29.86-4.16-9.15 2.8-15.5 10.27-22.55 16.26-2.48 2.04-4.66 4.67-7.72 5.86-4.17.5-7.47-2.87-9.71-5.97-2.46-3.65-5-7.39-6.28-11.63-1.45-4.2 2.85-8.26 6.95-7.7 15.44.44 30.82-4.91 42.96-14.39 15.43-11.89 25.73-29.45 31.12-47.97 9.7-33.67 4.43-71.3-13.79-101.19-8.6-14.14-20.49-26.39-34.91-34.63 13.21-17.68 26.43-35.36 39.97-52.79 8.5-10.48 16.96-20.99 25.5-31.44Z"/>
  <path fill="#00a900" stroke="#00a900" stroke-width=".094" d="M861.07 1340.44c1.27-.18 2.56-.34 3.85-.5 22.8 14.62 49.18 23.48 76.13 26 3.09.31 7.32 1.49 7.82 5.1-.09 4.65-2.65 8.82-5.21 12.55-5.77 7.89-11.62 15.72-17.52 23.52-2.72 3.49-5.8 7.2-10.2 8.53-3.73 1.1-7.15-1.46-9.72-3.85-4.99-4.84-8.55-10.89-12.51-16.55-10.66-15.43-20.91-31.13-31.12-46.85-1.74-2.3-1.64-5.25-1.52-7.95Z"/>
  <path fill="#464b4b" stroke="#464b4b" stroke-width=".094" d="M632.1 1391.87c9.67-12.19 24.23-20.8 39.93-21.69 17.28-1.25 34.12 6.58 46.46 18.32 13.88 13.1 23.18 30.55 28.03 48.89 5.96 22.84 5.38 47.67-3.31 69.75-5.92 14.96-16.07 28.74-30.22 36.79-14.66 8.5-33.53 9.23-48.79 1.93-2.21-2.74-2.97-6.38-4.46-9.52 5.11-.13 10.21.4 15.32.34 17.1-1.07 32.52-11.82 41.25-26.3 18.11-29.56 15.44-70.34-6.09-97.46-10.69-13.62-27.82-22.27-45.24-21.46-10.96.21-21.93.29-32.88.41Z"/>
  <path fill="#00a900" stroke="#00a900" stroke-width=".094" d="M964.33 1380.33c1.39-1.24 4-1.4 4.7.7 1.65 4.42 1.28 9.29 1.05 13.93-1.91 23.89-4.68 47.71-6.68 71.6-.37 3.77-.72 8.54-4.51 10.56-3.5.73-6.42-2.08-8.88-4.15-5.84-5.96-10.38-13.02-15.22-19.77-3.93-6.01-8.14-12.75-7.37-20.23.3-4.07 2.22-7.79 4.72-10.93 8.17-10.8 16.27-21.67 24.27-32.6 2.44-3.19 4.57-6.78 7.92-9.11Z"/>
  <path fill="#959898" stroke="#959898" stroke-width=".094" d="M627.96 1404.45c15.52.79 31.07.63 46.6 1.23 12.83 1.77 23.26 11.16 29.85 21.86 11.23 18.53 13.44 42.06 6.84 62.59-4.38 13.33-13.48 26.2-27.1 31.13-17.29 5.39-35.47 1.09-53.16 2.6 13.57-12.07 20.92-29.96 22.76-47.78 2.76-25.97-5.71-54.18-25.79-71.63Z"/>
  <path fill="#ff002c" stroke="#ff002c" stroke-width=".094" d="M587.4 1406.58c8.51-1.88 17.98-1.25 25.55 3.42 14.26 8.35 22.82 23.96 26.22 39.75 3.83 18.41 1.61 38.7-8.76 54.68-7.1 11.23-19.77 19.8-33.46 18.66-14.41-1.17-26.26-11.64-33.15-23.79-10.78-19.09-12.49-42.99-5.02-63.55 4.84-13.09 14.6-25.52 28.62-29.17Z"/>
  <path stroke="#000" stroke-width=".094" d="M1003.28 1410.28c16.38-5.93 37.29.99 45.17 16.97 3.11-7.62 9.43-13.97 17.32-16.52 16.14-4.89 36.02 1.99 43.68 17.5 3.03-7.36 9.02-13.54 16.57-16.23 16.65-5.57 37.38 1.88 44.98 18.14 3.08-7.7 9.11-14.38 17.05-17.16 15.24-5 33.77.64 42.72 14.19 5.8 9.14 5.05 20.45 5.2 30.83-.15 10.86.65 21.88-1.59 32.59-.73 3.72-2.53 7.14-5.13 9.9 6.25 6.47 6.21 16.09 6.66 24.49.03 10.71.33 21.45-.3 32.16-.35 7.92-3.01 16.04-8.82 21.65-9.75 9.76-24.95 13.42-38.11 9.45-8.22-2.66-14.53-9.48-17.68-17.38-7.6 16.26-28.34 23.71-45 18.14-7.54-2.7-13.52-8.89-16.55-16.23-7.67 15.52-27.59 22.4-43.74 17.48-7.86-2.57-14.14-8.9-17.26-16.48-7.67 15.53-27.61 22.42-43.77 17.47-9.02-2.99-16.11-10.92-18.38-20.1-2.32-12.25-3.05-24.72-3.24-37.16.19-7.51.42-15.13 2.47-22.4 1.67-5.41 6.23-9.49 11.59-11.1-9.4-2.4-13.49-12.65-13.9-21.46-.7-15.34.36-30.73 2.51-45.93 1.14-10.02 8.18-19.1 17.55-22.81Z"/>
  <path fill="#007600" stroke="#007600" stroke-width=".094" d="M1012.35 1417.39c6.03-1.26 12.28.71 17.5 3.72 8.02 4.68 13.2 13.53 13.82 22.76.92 11.39-.18 22.84-1.09 34.2-.74 4.99-1.71 11.32-6.92 13.59-6.55 2.7-13.83 1.86-20.73 1.87-5.25-.43-10.81-.38-15.6-2.81-5.72-3.34-6.42-10.69-6.84-16.63-.09-14.12-.58-28.58 3.37-42.28 2.09-7.58 8.84-13.12 16.49-14.42Z"/>
  <path fill="#007600" stroke="#007600" stroke-width=".094" d="M1073.33 1418.4c14.37-2.39 28.88 9.18 30.93 23.41 1.66 11.71.28 23.58-.49 35.32-.63 5.19-1.16 11.5-5.78 14.82-5.75 3.25-12.65 2.58-19 2.66-6.04-.27-12.34-.23-18-2.54-6.25-3.05-7.1-10.81-7.5-16.96-.09-14.15-.58-28.65 3.39-42.38 2.11-7.53 8.84-13.03 16.45-14.33Z"/>
  <path fill="#007600" stroke="#007600" stroke-width=".094" d="M1134.37 1419.39c14.02-2.3 28.25 8.69 30.72 22.5 1.82 10.24.61 20.69.11 31.01-.53 5.93-.59 12.29-3.72 17.57-2.51 3.81-7.48 4.53-11.66 4.98-7.51.37-15.09.27-22.53-.84-3.75-.46-6.65-3.16-9.55-5.32-2.83-4.51-3.12-10.09-3.31-15.27.01-13.45-.37-27.24 3.45-40.27 2.1-7.56 8.86-13.06 16.49-14.36Z"/>
  <path fill="#007600" stroke="#007600" stroke-width=".094" d="M1196.3 1420.41c14.04-2.36 28.32 8.65 30.79 22.49 1.82 10.27.61 20.74.1 31.08-.48 5.68-.61 11.67-3.32 16.85-2.08 3.78-6.78 5.42-10.9 5.03-7.95-.62-15.92-.02-23.87-.42-4.71-.21-9.25-3.23-10.72-7.78-2.97-8.57-1.68-17.78-1.94-26.66.57-9.76.7-19.89 4.54-29.03 2.62-6.27 8.8-10.32 15.32-11.56Z"/>
  <path fill="#00a900" stroke="#00a900" stroke-width=".094" d="M1260.4 1440.2c2.61-1.87 5.94-.31 8.5.94 5.83 3.26 10.69 7.94 15.89 12.1 14.28 11.87 29.28 22.84 44.23 33.85 8.73 6.82 17.95 14.73 20.85 25.89 2.18 7.24-1.16 14.43-3.93 21-3.74 7.97-6.72 16.28-10.97 24.01-15.1 29.88-35.33 57.34-60.75 79.25-23.31 20.62-50.25 36.85-78.73 49.26-9.39 4.21-19.21 8.03-29.54 8.89-9.79-.38-19.16-4.57-27.06-10.17-13.9-11.41-27.09-23.68-40.1-36.07-4.7-4.92-9.98-9.35-13.97-14.87-3.2-4.03-.45-10.85 4.53-11.73 3.82-.79 7.75-.81 11.64-.93 35.63-2.29 71.48-1.42 107-5.62 11.07-1.49 22.39-3.35 32.4-8.58 6.38-3.3 11.78-8.57 14.83-15.11 4.94-10.34 5.03-22.08 5.34-33.3-.23-26.98-2.55-53.89-4.24-80.8-.57-10-2.3-20.18.09-30.08.74-2.86 1.55-6.02 3.99-7.93Z"/>
  <path fill="#00a900" stroke="#00a900" stroke-width=".094" d="M910.33 1455.47c3.92-1.84 7.81 1 10.42 3.76 5.43 5.71 9.62 12.44 14.37 18.71 6.62 9.21 13.83 18.18 18.39 28.66 4.14 9.86 5.51 20.7 5.2 31.35-.4 12.21-.72 24.44-.28 36.67.65 9.39 2.34 19.23 7.97 27.04 4.23 5.99 10.73 9.94 17.46 12.55 9.66 3.69 19.93 5.38 30.16 6.61 4.33.51 8.89 1.99 11.92 5.28 1.84 3.04-.24 6.62-1.48 9.5-8.52 15.8-20.07 29.66-31.2 43.66-8.55 10.38-17.14 20.77-26.44 30.5-4.49 4.82-10.18 8.43-16.36 10.68-13.57 4.99-28.33 4.1-42.49 3.25-37.68-3.97-75.13-13.38-108.94-30.75-3.78-1.83-7.35-4.85-8.55-8.99-.59-4.64 1.9-9.18 5.4-12.07 6.82-6.01 11.13-14.83 11.42-23.93-.42-9.72-3.13-19.22-7.34-27.94-2.21-5-5.42-9.51-7.44-14.58-2.62-6.56.97-13.64 5.33-18.51 35.87-40.02 69.68-81.84 102.93-124.05 2.52-3.18 5.66-6.03 9.55-7.4Z"/>
  <path fill="#007600" stroke="#007600" stroke-width=".094" d="M1134.48 1505.6c7.7-.13 15.82-1.16 23.17 1.73 5.48 2.44 6.33 9.21 7.02 14.49.83 12.36 2.4 24.9.43 37.23-2.58 15.31-20.23 27.36-35.16 21.23-6.69-2.31-11.22-8.54-12.73-15.26-3.14-13.11-2.87-26.72-2.72-40.1.39-5.15.86-10.91 4.55-14.87 4.03-4 10.17-3.84 15.44-4.45Z"/>
  <path fill="#007600" stroke="#007600" stroke-width=".094" d="M1188.44 1505.63c8.16-.57 16.35.16 24.52-.49 4.57-.5 9.81 1.7 11.51 6.24 2.67 6.5 2.44 13.66 3.05 20.56.28 10.71 1.94 22.05-2.37 32.22-5.35 12.43-21.2 20.76-34.05 14.78-6.66-2.59-10.77-9.17-12.15-15.94-2.4-10.81-2.61-21.97-2.53-33-.06-5.83.02-11.86 2.23-17.34 1.56-4 5.58-6.66 9.79-7.03Z"/>
  <path fill="#007600" stroke="#007600" stroke-width=".094" d="M1073.44 1506.61c7.72-.14 15.85-1.17 23.22 1.72 5.79 2.67 6.45 9.95 7.11 15.54.74 12.29 2.41 24.8.15 37.02-3.01 14.94-20.41 26.44-35.06 20.36-6.66-2.32-11.15-8.55-12.66-15.26-3.13-13.09-2.86-26.67-2.71-40.03.38-5.18.86-10.97 4.58-14.95 4.04-3.95 10.13-3.8 15.37-4.4Z"/>
  <path fill="#007600" stroke="#007600" stroke-width=".094" d="M1012.39 1507.61c8.37.01 17.73-1.69 25.25 2.9 5.42 5.2 4.83 13.55 5.62 20.45.41 11.05 2.06 22.43-.98 33.25-4.16 14.04-21.26 24.15-35.17 17.73-6.3-2.47-10.42-8.51-11.9-14.92-3.13-13.08-2.87-26.66-2.72-40.02.37-5.17.85-10.96 4.54-14.95 4.02-3.98 10.11-3.84 15.36-4.44Z"/>
  <path fill="#464b4b" stroke="#464b4b" stroke-width=".094" d="M723.67 1582.68c7.5-4.26 16.57-1.91 23.85 1.61 14.62 7.36 26.49 19.46 35.07 33.28 4.86 8.05 8.86 16.84 10.1 26.24.72 5.29-.36 10.96-3.68 15.24-5.01 6.61-11.68 11.7-18.23 16.69-1.22-1.19-3.34-1.88-3.46-3.79-1.95-17.6-10.95-33.67-22.41-46.85-10.87-12.25-24.65-22.79-40.87-26.49 6.44-5.42 12.38-11.56 19.63-15.93Z"/>
  <path fill="#959898" stroke="#959898" stroke-width=".094" d="M692.79 1611.84c7.21-1.6 14.54 1.12 20.85 4.47 11.28 6.24 20.65 15.56 28.01 26.07 6.6 9.67 11.85 20.76 12.45 32.63-.07 4.23-.76 9.01-3.97 12.09-3.64 2.86-8.61 3.34-13.02 2.39-9.3-1.86-17.45-7.22-24.59-13.24 5.87-4.65 13-9.05 15.08-16.74 3.45-10.3-5.69-22.26-16.58-21.45-8.27-.34-13.95 6.38-20.08 10.83-3.87-8.01-7-16.82-6.23-25.85.52-4.7 3.06-10.04 8.08-11.2Z"/>
  <path fill="#00a900" stroke="#00a900" stroke-width=".094" d="M1052.42 1629.59c4.13-1.81 8.7.3 11.41 3.57 16.25 17.06 32.96 33.69 50.66 49.25 5.77 5.37 13.26 10.26 14.89 18.56.56 4.09-3.95 5.98-7 7.36-9.39 3.59-19.23 5.88-28.99 8.17-30.47 5.86-61.47 8.51-92.41 9.93-5.74-.05-11.81.34-17.09-2.25-1.66-.82-3.61-2.06-3.5-4.15-.08-4.16 2.57-7.56 5.25-10.43 19.88-22.67 38.22-46.63 55.87-71.06 2.58-4.06 6.24-7.49 10.91-8.95Z"/>
</svg>
