<svg
  width="100%"
  height="100%"
  viewBox="0 0 2000 2000"
  version="1.1"
  xmlns="http://www.w3.org/2000/svg"
>
  <path
    fill="#00a900"
    stroke="#00a900"
    stroke-width="0.09375"
    opacity="1.00"
    d=" M 0.00 0.00 L 2000.00 0.00 L 2000.00 2000.00 L 0.00 2000.00 L 0.00 0.00 Z"
  />
  <path
    fill="#000000"
    stroke="#000000"
    stroke-width="0.09375"
    opacity="1.00"
    d=" M 973.57 225.53 C 977.01 221.08 982.30 217.90 987.99 217.66 C 996.49 218.31 1003.25 224.40 1008.23 230.85 C 1016.42 241.52 1022.44 253.65 1028.38 265.66 C 1035.44 280.19 1041.43 295.21 1047.41 310.21 C 1077.50 283.86 1109.69 259.22 1145.95 241.94 C 1160.85 235.04 1176.27 228.97 1192.34 225.39 C 1199.90 223.99 1208.13 222.08 1215.42 225.58 C 1221.01 227.86 1224.14 234.57 1222.23 240.31 C 1220.19 246.57 1215.35 251.31 1211.28 256.29 C 1185.93 284.47 1167.83 318.73 1156.55 354.81 C 1173.18 344.69 1190.72 336.14 1208.59 328.45 C 1242.98 313.44 1279.84 303.58 1317.39 301.53 C 1329.96 301.40 1342.60 300.90 1355.11 302.53 C 1363.48 303.52 1372.00 304.77 1379.77 308.22 C 1384.47 310.22 1388.02 314.79 1388.38 319.94 C 1388.09 324.62 1385.24 328.85 1381.46 331.50 C 1376.00 335.40 1369.71 337.88 1363.66 340.69 C 1333.72 353.97 1304.14 369.39 1279.81 391.65 C 1288.76 391.41 1298.13 391.79 1306.39 395.59 C 1311.58 397.88 1315.46 403.26 1315.29 409.02 C 1314.26 416.92 1308.01 422.61 1301.86 426.97 C 1290.93 434.69 1279.47 441.66 1268.86 449.85 C 1253.44 461.49 1239.31 474.80 1226.63 489.37 C 1261.85 473.21 1298.70 459.62 1337.24 454.15 C 1376.49 448.43 1416.71 447.27 1455.88 454.25 C 1463.13 455.72 1470.63 457.13 1477.10 460.93 C 1481.35 463.35 1484.71 467.99 1484.43 473.04 C 1483.98 477.93 1480.45 481.96 1476.27 484.22 C 1468.95 488.24 1460.80 490.35 1452.94 493.01 C 1421.75 502.79 1391.43 515.63 1363.39 532.51 C 1332.59 551.09 1303.55 574.19 1283.97 604.81 C 1327.83 595.28 1373.68 594.57 1417.75 603.19 C 1430.61 605.79 1443.39 609.14 1455.46 614.37 C 1460.60 616.68 1465.74 619.25 1470.01 623.00 C 1473.47 626.04 1476.13 630.33 1476.36 635.02 C 1475.96 641.31 1471.00 646.30 1465.31 648.39 C 1456.07 651.91 1446.15 652.98 1436.49 654.75 C 1399.24 660.51 1361.82 667.96 1327.12 683.14 C 1317.93 687.03 1309.13 691.72 1300.43 696.58 C 1320.64 698.49 1341.07 701.77 1359.68 710.25 C 1365.51 713.02 1371.39 716.42 1375.16 721.82 C 1377.48 725.43 1379.12 730.08 1377.24 734.24 C 1374.54 742.23 1365.50 744.83 1358.14 746.50 C 1337.88 750.64 1317.22 753.99 1298.10 762.23 C 1274.53 772.28 1255.17 790.00 1238.73 809.30 C 1267.73 822.87 1293.61 842.31 1316.95 864.06 C 1343.05 888.62 1364.10 918.40 1379.19 950.86 C 1394.84 984.99 1405.77 1021.19 1412.89 1058.01 C 1419.45 1094.66 1421.50 1131.91 1423.37 1169.01 C 1423.69 1180.35 1423.44 1191.70 1424.20 1203.03 C 1424.25 1218.69 1424.69 1234.37 1423.73 1250.01 C 1423.44 1260.34 1423.72 1270.70 1422.79 1281.00 C 1422.36 1289.31 1422.69 1297.65 1421.85 1305.93 C 1420.53 1350.89 1415.66 1395.78 1406.99 1439.94 C 1398.93 1479.54 1388.01 1518.74 1371.89 1555.87 C 1359.92 1583.80 1343.70 1609.84 1324.13 1633.07 C 1304.42 1656.82 1281.00 1677.54 1254.60 1693.58 C 1225.71 1711.43 1194.12 1724.48 1161.85 1734.81 C 1137.70 1742.41 1113.01 1748.34 1087.96 1752.07 C 1042.94 1758.56 997.39 1760.58 951.94 1759.51 C 907.67 1758.14 863.08 1752.08 821.34 1736.73 C 800.36 1729.05 780.71 1718.14 762.25 1705.64 C 745.90 1712.48 727.09 1709.30 711.92 1700.96 C 705.61 1697.56 699.82 1693.26 694.54 1688.43 C 678.47 1697.70 661.10 1704.87 642.88 1708.55 C 608.40 1715.96 571.74 1710.43 540.26 1694.81 C 510.40 1680.18 485.05 1657.40 465.08 1631.00 C 443.67 1602.75 428.02 1570.39 417.44 1536.64 C 394.88 1463.96 394.47 1384.49 416.62 1311.67 C 426.95 1278.03 442.39 1245.76 463.66 1217.65 C 483.92 1190.78 510.01 1167.86 540.67 1153.63 C 548.14 1149.98 556.09 1147.49 563.88 1144.65 C 566.85 1135.65 570.41 1126.75 575.92 1118.96 C 578.53 1114.40 582.88 1110.96 585.16 1106.29 C 587.45 1083.01 590.80 1059.81 595.71 1036.93 C 580.02 1017.11 571.92 991.05 575.63 965.85 C 544.73 953.99 513.82 942.15 482.90 930.34 C 472.73 941.31 458.04 948.19 442.99 948.01 C 429.49 948.26 416.16 942.83 406.20 933.80 C 393.71 922.35 386.98 904.88 388.87 888.00 C 389.43 878.53 393.61 869.67 398.98 862.01 C 408.95 848.14 425.86 839.39 443.00 839.78 C 457.26 839.52 471.30 845.69 481.30 855.74 C 492.30 866.81 497.98 882.67 496.89 898.21 C 527.02 909.78 557.18 921.30 587.32 932.85 C 602.43 907.00 629.83 889.47 659.14 884.47 C 661.47 884.00 664.33 884.03 665.64 881.65 C 680.29 862.20 697.25 844.44 716.56 829.56 C 724.44 823.41 732.60 817.59 741.01 812.18 C 732.77 803.34 723.71 795.21 713.83 788.25 C 696.63 776.36 677.04 768.06 656.70 763.36 C 647.26 761.09 637.64 759.73 628.06 758.24 C 623.27 757.40 618.20 756.64 614.12 753.81 C 609.89 750.92 608.17 744.98 610.20 740.28 C 612.44 734.87 617.37 731.29 621.90 727.89 C 636.55 717.52 653.01 709.75 670.27 704.90 C 639.85 686.21 605.39 674.89 570.44 668.32 C 549.58 664.33 528.24 662.81 507.67 657.33 C 499.19 654.82 489.61 651.04 485.88 642.31 C 482.62 635.58 485.83 627.71 490.80 622.78 C 499.31 614.53 510.78 610.36 521.90 606.97 C 546.95 599.84 573.06 597.30 599.01 596.67 C 636.68 596.59 674.39 602.32 710.28 613.81 C 714.77 615.23 719.23 616.75 723.72 618.19 C 701.13 589.31 673.96 564.16 644.11 542.94 C 607.50 517.06 566.59 496.69 522.93 485.98 C 518.80 485.10 514.76 482.31 513.83 477.98 C 512.48 473.11 515.91 468.19 520.37 466.43 C 536.29 459.38 553.52 455.72 570.76 453.77 C 612.89 449.51 655.48 456.10 695.86 468.17 C 707.45 471.61 718.80 475.77 730.07 480.15 C 712.12 462.02 691.71 446.57 670.60 432.34 C 663.83 427.31 655.66 422.85 652.35 414.65 C 649.75 408.37 653.06 401.06 658.66 397.69 C 667.14 392.54 677.34 391.62 687.03 391.08 C 692.71 390.32 698.39 391.22 704.07 391.51 C 690.42 378.18 674.40 367.60 657.98 358.03 C 646.15 351.10 633.86 344.99 622.16 337.85 C 616.80 334.45 611.10 330.62 608.47 324.59 C 606.38 319.99 607.14 314.24 610.50 310.43 C 614.47 305.76 620.63 303.94 626.38 302.59 C 646.73 298.30 667.75 299.20 688.25 301.87 C 723.36 306.66 757.32 318.66 788.32 335.70 C 803.99 344.47 818.89 354.59 833.09 365.58 C 826.84 348.13 819.51 330.99 810.14 314.97 C 801.00 299.26 788.87 285.63 777.74 271.35 C 772.49 264.40 766.72 257.42 764.29 248.89 C 762.36 243.13 764.96 236.22 770.14 233.07 C 773.73 231.13 777.97 230.14 782.02 231.04 C 795.40 233.42 807.85 239.20 819.97 245.13 C 853.48 262.11 884.17 284.16 913.05 308.08 C 916.97 301.84 923.53 297.09 931.06 296.72 C 936.33 296.87 941.33 298.92 946.08 301.07 C 952.84 282.82 957.57 263.91 963.67 245.44 C 966.14 238.45 968.96 231.41 973.57 225.53 Z"
  />
  <path
    fill="#00a28a"
    stroke="#00a28a"
    stroke-width="0.09375"
    opacity="1.00"
    d=" M 990.50 247.58 C 997.83 261.65 1003.95 276.30 1010.15 290.89 C 1030.62 338.48 1045.65 388.27 1057.40 438.68 C 1060.32 451.68 1062.98 464.75 1064.97 477.93 C 1066.57 488.89 1063.19 501.18 1054.13 508.11 C 1052.36 509.30 1050.26 511.05 1048.02 510.14 C 1044.89 507.69 1044.15 503.53 1042.95 499.97 C 1035.23 473.21 1026.93 446.56 1016.14 420.85 C 1005.43 394.94 992.03 370.10 975.77 347.24 C 971.62 341.21 967.45 334.56 967.45 326.98 C 967.26 319.34 971.12 312.52 973.39 305.43 C 979.87 286.40 985.89 267.16 990.50 247.58 Z"
  />
  <path
    fill="#00a28a"
    stroke="#00a28a"
    stroke-width="0.09375"
    opacity="1.00"
    d=" M 1101.64 300.68 C 1126.28 281.99 1153.25 266.34 1181.80 254.42 C 1162.64 278.13 1146.85 304.67 1136.40 333.36 C 1126.76 359.09 1119.85 385.83 1115.52 412.96 C 1113.34 427.01 1113.06 441.38 1109.26 455.15 C 1107.22 463.03 1101.28 469.19 1094.87 473.85 C 1091.36 476.10 1087.08 478.84 1082.78 477.26 C 1078.83 474.52 1078.66 469.23 1077.71 464.95 C 1073.18 438.69 1065.98 413.01 1060.06 387.05 C 1057.85 377.42 1055.22 367.83 1054.39 357.96 C 1053.79 349.75 1056.06 341.02 1061.98 335.08 C 1073.94 322.25 1087.78 311.36 1101.64 300.68 Z"
  />
  <path
    fill="#00a28a"
    stroke="#00a28a"
    stroke-width="0.09375"
    opacity="1.00"
    d=" M 800.87 265.17 C 830.70 281.30 859.59 299.52 885.34 321.70 C 893.88 329.08 902.99 336.23 908.95 346.00 C 915.49 357.10 917.87 370.22 918.51 382.94 C 918.99 407.66 917.70 432.35 917.12 457.05 C 916.15 469.19 916.72 481.56 913.62 493.44 C 912.39 497.49 911.02 501.90 907.66 504.71 C 905.72 506.37 903.10 504.80 901.89 503.05 C 899.04 498.98 897.87 494.03 896.75 489.27 C 890.13 456.71 882.56 424.28 872.51 392.59 C 857.31 346.03 834.25 301.34 800.87 265.17 Z"
  />
  <path
    fill="#00a28a"
    stroke="#00a28a"
    stroke-width="0.09375"
    opacity="1.00"
    d=" M 930.63 323.35 C 942.86 331.62 952.45 343.07 961.71 354.41 C 980.30 377.39 993.66 404.06 1004.70 431.33 C 1011.81 448.84 1017.76 466.80 1023.27 484.88 C 1025.67 493.20 1028.47 501.44 1030.03 509.99 C 1032.42 524.74 1028.73 539.83 1021.88 552.94 C 1013.76 568.69 1004.17 583.64 994.46 598.45 C 990.48 603.65 986.72 610.23 980.02 612.10 C 974.56 612.06 971.06 606.86 967.87 603.07 C 959.04 590.92 951.80 577.69 944.53 564.58 C 933.21 544.45 928.23 520.92 929.82 497.94 C 931.20 470.96 932.58 443.97 932.88 416.95 C 934.37 385.74 933.25 354.46 930.63 323.35 Z"
  />
  <path
    fill="#00a28a"
    stroke="#00a28a"
    stroke-width="0.09375"
    opacity="1.00"
    d=" M 648.32 326.07 C 685.53 328.19 722.10 337.83 756.14 352.84 C 788.20 367.23 817.39 387.28 844.40 409.61 C 851.71 415.94 859.42 422.30 864.04 430.97 C 868.71 439.58 871.62 449.17 872.62 458.92 C 872.75 463.15 872.92 468.30 869.67 471.51 C 864.76 473.27 859.72 469.95 855.73 467.32 C 843.62 458.22 831.19 449.51 818.07 441.93 C 801.69 432.18 784.28 424.35 767.42 415.51 C 759.98 411.70 753.42 406.28 748.22 399.74 C 738.06 386.98 725.66 376.25 712.90 366.19 C 692.95 350.46 671.14 337.18 648.32 326.07 Z"
  />
  <path
    fill="#00a28a"
    stroke="#00a28a"
    stroke-width="0.09375"
    opacity="1.00"
    d=" M 1299.11 329.61 C 1311.35 327.66 1323.70 326.71 1336.05 325.87 C 1305.66 338.95 1275.97 355.75 1253.86 380.84 C 1247.81 387.15 1243.43 395.02 1236.32 400.29 C 1230.51 405.38 1223.57 409.01 1216.18 411.21 C 1196.14 417.37 1176.31 424.37 1157.41 433.51 C 1150.88 436.32 1144.23 440.22 1136.87 439.66 C 1134.02 439.57 1132.23 436.80 1131.70 434.28 C 1130.51 425.60 1131.35 416.45 1135.50 408.61 C 1138.60 402.06 1143.98 397.04 1149.46 392.47 C 1162.27 381.70 1176.81 373.25 1191.58 365.49 C 1225.18 347.86 1261.53 335.20 1299.11 329.61 Z"
  />
  <path
    fill="#00a28a"
    stroke="#00a28a"
    stroke-width="0.09375"
    opacity="1.00"
    d=" M 690.08 416.62 C 714.41 418.61 738.64 423.09 761.70 431.24 C 788.89 441.11 814.42 455.31 837.84 472.23 C 862.35 489.99 884.02 511.52 902.50 535.47 C 932.76 574.53 957.45 618.01 974.61 664.38 C 981.17 682.29 987.48 700.35 991.84 718.95 C 993.53 726.87 995.59 734.84 995.59 742.99 C 995.14 749.20 994.00 756.70 988.11 760.15 C 981.28 763.64 973.34 762.48 965.96 762.70 C 942.78 762.02 919.94 766.74 897.04 769.57 C 891.39 770.01 884.66 771.16 880.05 767.04 C 875.90 762.44 875.27 755.96 874.25 750.13 C 865.64 696.73 855.01 643.24 835.51 592.61 C 822.88 559.75 805.34 528.91 784.68 500.46 C 768.68 478.39 749.65 458.48 727.99 441.90 C 715.95 432.62 703.30 424.13 690.08 416.62 Z"
  />
  <path
    fill="#00a28a"
    stroke="#00a28a"
    stroke-width="0.09375"
    opacity="1.00"
    d=" M 1231.89 422.66 C 1245.77 419.58 1259.97 418.31 1274.15 417.65 C 1258.33 428.07 1242.72 438.94 1228.64 451.67 C 1205.28 472.37 1185.94 497.25 1169.90 523.94 C 1151.77 553.57 1137.99 585.64 1126.67 618.41 C 1116.25 649.34 1108.72 681.22 1103.70 713.46 C 1102.10 722.84 1101.39 732.36 1099.74 741.73 C 1097.37 749.86 1095.87 759.15 1089.00 764.88 C 1082.26 770.43 1072.92 768.88 1064.90 768.37 C 1053.56 766.61 1041.96 765.18 1031.28 760.79 C 1024.01 757.93 1018.24 752.02 1015.14 744.90 C 1010.08 733.51 1007.94 721.13 1004.58 709.19 C 1000.21 691.64 992.52 674.47 993.31 656.04 C 992.53 637.30 1001.76 620.33 1010.21 604.25 C 1026.91 572.95 1047.24 543.45 1071.59 517.59 C 1094.53 493.79 1120.02 472.16 1148.65 455.47 C 1174.53 440.42 1202.75 429.46 1231.89 422.66 Z"
  />
  <path
    fill="#00a28a"
    stroke="#00a28a"
    stroke-width="0.09375"
    opacity="1.00"
    d=" M 1353.85 478.40 C 1380.91 474.61 1408.31 474.03 1435.59 475.00 C 1404.96 484.40 1374.59 495.49 1346.96 511.93 C 1319.58 528.16 1295.16 549.45 1275.42 574.43 C 1264.55 588.14 1256.25 603.66 1245.63 617.55 C 1238.75 626.51 1229.58 633.56 1219.42 638.43 C 1205.09 645.42 1191.07 653.04 1177.57 661.53 C 1168.59 666.96 1160.05 673.41 1150.04 676.88 C 1145.55 678.33 1140.35 679.55 1135.95 677.18 C 1131.84 674.73 1131.28 669.34 1131.34 665.01 C 1131.80 654.38 1134.87 644.09 1137.58 633.86 C 1142.12 618.27 1147.62 602.93 1154.08 588.03 C 1160.96 572.93 1170.25 558.82 1181.87 546.94 C 1188.12 540.26 1196.15 535.70 1203.67 530.64 C 1228.95 514.73 1256.11 501.60 1284.67 492.75 C 1307.24 485.89 1330.51 481.64 1353.85 478.40 Z"
  />
  <path
    fill="#00a28a"
    stroke="#00a28a"
    stroke-width="0.09375"
    opacity="1.00"
    d=" M 574.07 478.81 C 609.94 477.96 645.92 482.62 680.35 492.74 C 701.19 498.86 721.54 506.61 741.30 515.60 C 754.26 521.57 767.42 527.47 778.85 536.16 C 790.05 544.23 799.52 554.59 806.66 566.40 C 815.70 579.84 820.95 595.30 826.53 610.38 C 832.14 626.67 837.46 643.11 841.06 659.98 C 841.99 666.59 842.77 674.05 839.11 680.02 C 836.35 684.14 830.51 682.99 826.51 681.65 C 815.73 677.31 806.02 670.81 796.06 664.92 C 784.18 657.66 771.10 650.36 764.37 637.59 C 751.36 612.45 733.80 589.96 714.72 569.18 C 693.74 546.54 669.74 526.65 643.29 510.71 C 621.50 497.55 598.17 486.99 574.07 478.81 Z"
  />
  <path
    fill="#00a28a"
    stroke="#00a28a"
    stroke-width="0.09375"
    opacity="1.00"
    d=" M 1288.61 630.39 C 1314.03 625.01 1340.10 623.28 1366.05 623.61 C 1388.01 623.44 1409.81 626.68 1431.27 631.15 C 1396.40 636.18 1361.58 643.42 1328.90 656.87 C 1295.57 670.32 1264.36 689.40 1238.21 714.16 C 1221.57 730.41 1206.82 748.58 1193.98 767.97 C 1188.90 775.94 1183.04 783.72 1175.27 789.25 C 1169.64 793.43 1162.21 791.93 1156.03 789.98 C 1147.32 787.13 1138.47 784.62 1130.00 781.07 C 1124.44 778.73 1118.69 774.98 1117.10 768.78 C 1114.77 759.17 1115.82 749.05 1117.72 739.46 C 1121.39 722.96 1135.05 711.76 1146.91 700.89 C 1159.30 690.66 1172.81 681.88 1186.35 673.27 C 1217.81 653.63 1252.18 638.01 1288.61 630.39 Z"
  />
  <path
    fill="#00a28a"
    stroke="#00a28a"
    stroke-width="0.09375"
    opacity="1.00"
    d=" M 527.08 634.48 C 550.63 628.87 574.75 625.26 599.01 625.47 C 640.61 624.70 682.06 632.71 721.12 646.80 C 750.59 657.04 778.44 671.53 804.72 688.28 C 814.92 694.93 825.12 701.67 834.51 709.44 C 841.36 715.69 847.74 722.72 851.94 731.06 C 856.73 740.96 859.34 751.97 859.19 762.99 C 858.84 768.24 858.31 774.32 854.05 778.01 C 849.09 781.86 842.77 783.13 836.93 785.05 C 828.27 787.52 819.88 791.08 810.91 792.34 C 806.93 792.93 802.60 792.17 799.43 789.58 C 794.48 785.69 791.66 779.94 788.10 774.90 C 772.48 752.02 753.96 731.10 733.17 712.80 C 708.13 690.73 679.05 673.48 648.18 660.91 C 609.76 644.96 568.30 638.21 527.08 634.48 Z"
  />
  <path
    fill="#00a28a"
    stroke="#00a28a"
    stroke-width="0.09375"
    opacity="1.00"
    d=" M 1278.99 723.04 C 1298.23 721.11 1317.93 722.21 1336.51 727.81 C 1304.77 732.76 1273.23 743.74 1247.88 763.94 C 1235.88 773.58 1225.32 785.03 1216.85 797.88 C 1214.27 801.70 1210.62 805.11 1206.06 806.27 C 1200.85 806.71 1195.44 802.31 1195.36 796.95 C 1195.25 793.56 1197.18 790.62 1198.78 787.79 C 1206.21 775.22 1214.54 763.15 1223.86 751.91 C 1234.84 739.55 1248.65 728.76 1265.05 724.99 C 1269.59 723.69 1274.29 723.31 1278.99 723.04 Z"
  />
  <path
    fill="#00a28a"
    stroke="#00a28a"
    stroke-width="0.09375"
    opacity="1.00"
    d=" M 657.35 736.43 C 672.99 731.10 689.39 727.53 705.98 727.65 C 721.33 727.85 736.79 734.49 746.72 746.33 C 756.81 757.33 766.33 768.88 774.80 781.20 C 777.08 784.62 779.62 787.94 781.31 791.72 C 782.71 795.31 783.41 799.73 781.14 803.13 C 779.09 806.06 774.89 806.30 771.78 805.23 C 768.59 803.53 766.23 800.68 763.84 798.06 C 746.95 777.56 725.43 760.86 701.40 749.56 C 687.44 743.11 672.49 738.96 657.35 736.43 Z"
  />
  <path
    fill="#00a900"
    stroke="#00a900"
    stroke-width="0.09375"
    opacity="1.00"
    d=" M 1003.45 783.63 C 1014.93 781.54 1026.61 783.09 1038.11 784.17 C 1047.44 785.33 1056.89 786.72 1065.64 790.32 C 1071.60 792.79 1077.31 797.10 1079.60 803.34 C 1082.38 811.42 1080.66 820.15 1078.40 828.13 C 1075.17 838.24 1069.46 847.28 1064.58 856.63 C 1061.11 862.91 1057.94 869.62 1052.53 874.51 C 1048.40 878.51 1041.33 878.72 1036.90 875.10 C 1029.89 869.68 1025.72 861.66 1020.06 855.01 C 1008.48 839.16 997.14 823.14 986.18 806.85 C 983.09 802.28 981.46 795.15 985.81 790.84 C 990.54 786.35 997.24 784.86 1003.45 783.63 Z"
  />
  <path
    fill="#00a900"
    stroke="#00a900"
    stroke-width="0.09375"
    opacity="1.00"
    d=" M 906.47 787.61 C 914.71 786.88 923.18 785.41 931.30 787.79 C 933.04 788.37 935.16 789.12 935.80 791.06 C 936.20 794.75 934.16 798.15 931.77 800.79 C 916.18 818.19 900.48 835.50 884.59 852.63 C 880.07 857.45 875.70 862.65 869.77 865.79 C 864.53 868.74 857.80 871.20 852.16 867.86 C 845.73 864.84 843.02 857.93 840.19 851.93 C 836.70 844.33 832.81 836.91 829.78 829.12 C 827.68 823.17 826.34 815.79 830.53 810.42 C 835.70 804.52 843.49 802.09 850.74 799.84 C 868.95 794.28 887.53 789.78 906.47 787.61 Z"
  />
  <path
    fill="#00a900"
    stroke="#00a900"
    stroke-width="0.09375"
    opacity="1.00"
    d=" M 954.31 802.40 C 958.88 800.38 964.45 801.55 967.89 805.14 C 970.86 808.28 972.99 812.08 975.48 815.58 C 990.98 838.60 1007.39 860.97 1023.64 883.46 C 1029.10 891.09 1034.09 900.43 1031.96 910.11 C 1030.57 918.91 1025.14 926.20 1020.68 933.66 C 1005.86 957.59 990.38 981.12 974.22 1004.16 C 968.93 1011.43 963.78 1019.27 955.95 1024.06 C 951.08 1027.24 944.29 1027.84 939.26 1024.74 C 933.22 1020.83 929.12 1014.67 925.13 1008.84 C 915.80 994.02 907.17 978.76 898.44 963.59 C 890.51 949.43 882.28 935.41 875.26 920.77 C 872.02 913.59 869.08 905.99 869.08 898.01 C 869.07 891.98 872.02 886.32 876.16 882.08 C 895.46 861.08 914.91 840.22 933.93 818.97 C 939.78 812.46 945.76 805.35 954.31 802.40 Z"
  />
  <path
    fill="#00a900"
    stroke="#00a900"
    stroke-width="0.09375"
    opacity="1.00"
    d=" M 1107.47 806.45 C 1112.61 801.45 1120.40 801.42 1127.06 802.35 C 1147.05 805.43 1166.05 812.71 1184.70 820.29 C 1195.45 824.70 1206.06 829.47 1216.53 834.52 C 1223.22 837.58 1230.01 841.53 1233.84 848.07 C 1238.09 855.07 1237.31 863.78 1235.60 871.45 C 1231.68 887.32 1226.38 902.84 1219.85 917.82 C 1203.19 956.83 1185.69 995.50 1165.99 1033.07 C 1140.35 1005.59 1116.24 976.74 1092.14 947.92 C 1085.80 940.22 1079.43 932.54 1073.25 924.70 C 1067.46 917.36 1062.77 908.56 1062.53 899.02 C 1062.91 891.10 1065.95 883.58 1069.70 876.69 C 1078.66 860.13 1087.51 843.50 1095.44 826.42 C 1098.82 819.44 1101.97 812.08 1107.47 806.45 Z"
  />
  <path
    fill="#00a900"
    stroke="#00a900"
    stroke-width="0.09375"
    opacity="1.00"
    d=" M 793.93 821.95 C 799.50 820.15 806.50 820.67 810.41 825.51 C 815.94 832.16 819.12 840.33 823.04 847.96 C 827.04 856.29 831.03 864.64 835.01 873.00 C 837.51 878.22 839.03 884.09 838.40 889.90 C 837.11 901.16 830.67 911.06 823.37 919.41 C 801.56 943.57 779.11 967.14 756.67 990.69 C 755.23 992.53 752.99 993.18 750.81 993.64 C 749.54 990.25 749.10 986.61 749.65 983.03 C 751.51 969.43 751.68 955.39 748.24 942.01 C 744.47 926.93 736.54 912.50 724.24 902.74 C 719.88 899.09 714.27 896.94 710.78 892.28 C 709.39 890.54 707.99 888.33 708.74 886.03 C 710.02 881.19 714.03 877.88 717.42 874.48 C 736.67 856.15 758.46 840.56 781.80 827.87 C 785.79 825.80 789.66 823.41 793.93 821.95 Z"
  />
  <path
    fill="#959898"
    stroke="#959898"
    stroke-width="0.09375"
    opacity="1.00"
    d=" M 433.52 856.83 C 441.63 855.53 450.22 855.79 457.86 859.07 C 469.23 863.57 478.30 873.91 480.56 886.01 C 481.70 891.47 475.68 897.07 470.43 894.61 C 465.77 892.93 465.46 887.39 463.40 883.60 C 458.62 874.18 446.92 870.03 436.92 872.10 C 433.08 872.75 428.96 874.81 425.18 872.81 C 420.82 870.84 419.99 864.53 423.20 861.20 C 425.86 858.39 429.92 857.71 433.52 856.83 Z"
  />
  <path
    fill="#00a900"
    stroke="#00a900"
    stroke-width="0.09375"
    opacity="1.00"
    d=" M 1259.42 870.63 C 1264.56 868.18 1270.36 869.78 1275.37 871.75 C 1282.65 874.48 1288.16 880.16 1293.95 885.12 C 1308.31 898.18 1321.03 913.00 1331.86 929.10 C 1334.42 932.97 1337.26 936.81 1338.49 941.37 C 1341.35 950.37 1341.00 959.96 1340.34 969.26 C 1337.05 989.91 1332.11 1010.28 1326.60 1030.44 C 1324.48 1037.19 1322.88 1044.59 1317.92 1049.93 C 1314.86 1053.16 1310.09 1051.93 1306.39 1050.74 C 1299.86 1048.45 1293.45 1045.81 1286.72 1044.18 C 1265.26 1038.42 1242.36 1038.20 1220.84 1043.68 C 1212.91 1045.61 1205.13 1048.05 1197.25 1050.14 C 1192.24 1051.29 1185.73 1051.21 1182.68 1046.34 C 1179.15 1040.44 1182.38 1033.41 1184.65 1027.66 C 1191.96 1012.05 1199.78 996.67 1206.90 980.96 C 1220.70 950.69 1234.48 920.35 1246.04 889.14 C 1248.75 882.06 1252.08 874.00 1259.42 870.63 Z"
  />
  <path
    fill="#464b4b"
    stroke="#464b4b"
    stroke-width="0.09375"
    opacity="1.00"
    d=" M 682.44 904.93 C 692.86 903.15 704.08 905.08 712.84 911.17 C 724.90 919.28 732.29 932.84 735.37 946.79 C 740.70 971.14 735.02 997.44 721.13 1018.00 C 712.70 1030.28 700.92 1040.82 686.58 1045.49 C 675.58 1049.14 663.23 1048.44 652.78 1043.39 C 667.93 1038.44 680.98 1028.13 690.21 1015.25 C 704.45 995.49 711.23 970.04 707.08 945.90 C 704.34 929.84 696.00 914.35 682.44 904.93 Z"
  />
  <path
    fill="#959898"
    stroke="#959898"
    stroke-width="0.09375"
    opacity="1.00"
    d=" M 639.60 913.66 C 647.23 910.46 655.80 910.02 663.89 911.39 C 678.05 914.73 688.13 927.44 691.96 940.98 C 698.59 964.38 692.40 990.51 677.59 1009.55 C 669.01 1020.44 657.00 1029.43 643.03 1031.56 C 630.78 1033.79 617.66 1028.79 609.80 1019.18 C 599.42 1006.91 596.73 990.01 597.96 974.42 C 609.91 978.92 621.81 983.55 633.75 988.09 C 638.08 989.72 642.88 990.89 647.46 989.52 C 655.85 987.57 661.88 978.50 660.11 970.01 C 658.90 963.56 653.87 958.39 647.85 956.10 C 635.01 951.05 622.10 946.18 609.20 941.27 C 616.35 929.42 626.60 918.90 639.60 913.66 Z"
  />
  <path
    fill="#00a900"
    stroke="#00a900"
    stroke-width="0.09375"
    opacity="1.00"
    d=" M 847.31 918.26 C 850.95 916.48 855.70 917.48 858.31 920.58 C 860.38 922.99 861.87 925.82 863.39 928.60 C 877.95 955.75 893.23 982.51 909.00 1008.98 C 912.44 1014.88 916.20 1020.60 919.42 1026.63 C 921.09 1030.13 922.92 1035.34 919.15 1038.16 C 913.05 1042.66 905.51 1044.55 898.70 1047.71 C 868.31 1060.40 841.39 1081.48 822.28 1108.35 C 803.43 1134.72 792.04 1166.55 790.91 1199.00 C 790.59 1202.43 791.15 1206.79 788.04 1209.16 C 785.49 1209.84 783.78 1207.34 782.47 1205.60 C 778.27 1199.11 775.45 1191.87 772.17 1184.91 C 754.83 1146.95 739.28 1108.19 725.25 1068.90 C 722.69 1061.04 721.84 1052.08 725.47 1044.42 C 728.14 1037.88 734.01 1033.62 738.72 1028.64 C 770.66 996.59 801.54 963.51 832.23 930.27 C 836.67 925.63 841.31 920.85 847.31 918.26 Z"
  />
  <path
    fill="#00a900"
    stroke="#00a900"
    stroke-width="0.09375"
    opacity="1.00"
    d=" M 1048.21 927.30 C 1052.40 926.56 1057.07 927.82 1059.71 931.33 C 1070.50 944.48 1081.86 957.15 1092.78 970.19 C 1106.50 986.48 1120.42 1002.59 1134.10 1018.91 C 1140.31 1026.57 1146.51 1034.61 1149.56 1044.12 C 1151.31 1050.07 1152.52 1056.77 1149.67 1062.59 C 1146.27 1069.99 1142.16 1077.04 1138.01 1084.03 C 1130.54 1096.69 1111.74 1100.77 1099.73 1092.31 C 1090.15 1086.08 1082.53 1077.44 1073.54 1070.48 C 1061.37 1060.65 1047.58 1052.99 1033.19 1046.93 C 1024.66 1043.29 1015.70 1040.84 1006.85 1038.11 C 1000.00 1036.67 992.99 1036.01 986.14 1034.57 C 982.48 1033.76 978.76 1031.08 978.58 1027.04 C 978.80 1021.19 982.53 1016.34 985.72 1011.72 C 1001.97 988.72 1017.03 964.92 1032.57 941.45 C 1036.90 936.01 1041.13 929.27 1048.21 927.30 Z"
  />
  <path
    fill="#00a900"
    stroke="#00a900"
    stroke-width="0.09375"
    opacity="1.00"
    d=" M 1356.28 986.28 C 1359.42 984.18 1362.00 988.44 1363.01 990.99 C 1373.16 1017.31 1378.96 1045.10 1382.79 1072.99 C 1384.41 1084.93 1385.91 1096.91 1386.47 1108.96 C 1386.75 1115.02 1386.50 1121.54 1383.07 1126.79 C 1379.68 1124.39 1378.06 1120.49 1376.14 1116.98 C 1368.90 1103.44 1359.68 1090.98 1348.86 1080.09 C 1343.93 1074.89 1338.83 1069.31 1336.81 1062.28 C 1334.87 1054.30 1337.69 1046.40 1339.96 1038.84 C 1344.36 1023.64 1348.61 1008.39 1352.15 992.97 C 1352.69 990.34 1353.54 987.38 1356.28 986.28 Z"
  />
  <path
    fill="#00a28a"
    stroke="#00a28a"
    stroke-width="0.09375"
    opacity="1.00"
    d=" M 955.20 1048.14 C 999.05 1044.65 1044.47 1059.98 1075.97 1090.97 C 1081.46 1096.25 1086.38 1102.08 1091.07 1108.07 C 1093.09 1110.85 1096.59 1112.01 1099.93 1111.87 C 1112.62 1111.84 1125.32 1111.91 1138.01 1111.83 C 1142.42 1111.49 1147.96 1112.04 1150.69 1107.75 C 1167.82 1084.02 1192.63 1065.54 1221.01 1057.80 C 1245.89 1050.89 1273.01 1052.35 1296.98 1062.00 C 1323.42 1072.49 1345.63 1092.44 1360.27 1116.69 C 1381.54 1151.73 1387.36 1195.41 1377.20 1235.01 C 1369.14 1267.14 1350.28 1296.79 1323.38 1316.36 C 1300.69 1333.04 1272.17 1341.72 1244.03 1339.95 C 1240.06 1339.92 1234.41 1340.96 1233.75 1345.73 C 1232.42 1353.11 1233.76 1360.65 1234.22 1368.07 C 1235.44 1392.28 1238.13 1416.38 1239.74 1440.57 C 1241.61 1465.08 1243.30 1489.60 1244.92 1514.13 C 1245.90 1530.41 1246.90 1546.71 1246.58 1563.04 C 1246.37 1571.02 1246.21 1579.35 1242.77 1586.72 C 1239.85 1592.86 1233.45 1596.23 1227.23 1598.16 C 1214.51 1602.05 1201.14 1602.92 1187.97 1604.10 C 1161.70 1605.88 1135.36 1606.17 1109.06 1607.26 C 1085.11 1608.23 1061.14 1609.05 1037.17 1608.47 C 1024.26 1608.28 1011.32 1607.13 998.69 1604.38 C 992.24 1602.81 985.51 1601.00 980.28 1596.71 C 975.23 1592.51 973.54 1585.74 972.76 1579.51 C 970.80 1564.06 972.44 1548.50 972.80 1533.01 C 974.15 1506.91 975.93 1480.84 978.29 1454.81 C 981.15 1423.50 984.73 1392.25 987.74 1360.96 C 988.01 1357.69 986.83 1353.85 983.64 1352.42 C 979.61 1350.54 975.15 1352.17 970.96 1352.29 C 934.78 1355.44 897.45 1346.16 867.59 1325.34 C 841.67 1307.45 821.62 1281.09 811.85 1251.10 C 799.53 1214.09 803.03 1172.37 820.55 1137.60 C 836.02 1106.39 862.14 1080.74 893.27 1065.23 C 912.53 1055.55 933.71 1049.77 955.20 1048.14 Z"
  />
  <path
    fill="#00a900"
    stroke="#00a900"
    stroke-width="0.09375"
    opacity="1.00"
    d=" M 623.73 1067.69 C 625.17 1062.70 627.01 1056.74 632.09 1054.38 C 637.30 1053.36 642.05 1056.61 646.94 1057.91 C 656.18 1061.26 666.04 1061.80 675.71 1063.03 C 675.71 1064.74 676.83 1066.86 675.15 1068.14 C 670.76 1072.82 665.86 1077.05 660.61 1080.74 C 651.53 1086.85 640.59 1089.07 630.03 1091.14 C 627.49 1091.33 623.69 1091.32 622.87 1088.31 C 620.39 1081.60 622.28 1074.39 623.73 1067.69 Z"
  />
  <path
    fill="#00a900"
    stroke="#00a900"
    stroke-width="0.09375"
    opacity="1.00"
    d=" M 691.01 1074.00 C 694.63 1070.73 699.05 1068.04 703.99 1067.50 C 707.80 1067.56 710.22 1070.99 711.78 1074.06 C 715.25 1080.99 717.60 1088.41 720.39 1095.63 C 735.16 1135.46 751.84 1174.57 770.02 1212.96 C 774.22 1221.81 778.55 1231.00 779.03 1240.96 C 779.47 1248.67 776.79 1256.23 772.68 1262.67 C 768.81 1268.66 764.21 1274.15 759.79 1279.74 C 749.71 1292.32 739.36 1304.70 729.65 1317.57 C 723.08 1326.03 716.80 1334.72 710.14 1343.11 C 705.36 1349.10 699.26 1354.51 691.63 1356.36 C 685.88 1358.17 679.92 1356.38 674.06 1356.67 C 659.67 1357.06 645.53 1362.33 634.26 1371.26 C 631.83 1373.19 628.41 1375.37 625.30 1373.75 C 622.21 1370.29 622.05 1365.31 621.51 1360.95 C 621.14 1355.42 619.80 1349.90 620.32 1344.36 C 621.91 1341.16 625.51 1339.79 628.71 1338.80 C 633.63 1337.18 638.86 1337.64 643.96 1337.49 C 649.99 1337.47 655.96 1336.29 662.00 1336.71 C 670.55 1336.83 680.01 1336.52 687.05 1331.02 C 693.54 1325.64 696.39 1317.23 698.29 1309.29 C 701.03 1296.02 701.56 1282.12 698.47 1268.87 C 697.12 1262.78 693.84 1256.96 688.60 1253.42 C 680.34 1247.62 669.71 1247.60 660.03 1247.59 C 648.34 1247.28 636.66 1248.92 624.99 1247.98 C 620.16 1247.68 615.70 1244.35 614.49 1239.60 C 613.30 1234.53 613.37 1229.17 614.02 1224.04 C 614.50 1219.78 619.20 1218.08 622.95 1218.44 C 628.65 1218.93 634.25 1220.45 640.00 1220.47 C 654.76 1221.00 669.11 1213.74 678.68 1202.73 C 692.01 1187.63 697.79 1166.86 696.59 1146.96 C 695.41 1126.43 685.68 1105.13 667.34 1094.58 C 675.28 1087.79 683.19 1080.94 691.01 1074.00 Z"
  />
  <path
    fill="#000000"
    stroke="#000000"
    stroke-width="0.09375"
    opacity="1.00"
    d=" M 955.48 1076.81 C 979.40 1074.35 1004.18 1078.93 1025.20 1090.79 C 1053.58 1106.45 1074.61 1134.67 1081.44 1166.36 C 1088.41 1196.46 1081.99 1229.19 1064.83 1254.80 C 1045.33 1284.42 1011.40 1304.04 975.93 1305.70 C 969.00 1306.90 962.08 1305.34 955.14 1305.34 C 936.54 1302.58 918.38 1295.92 903.04 1284.93 C 878.23 1267.51 860.79 1239.93 856.00 1209.97 C 852.14 1186.42 855.61 1161.66 866.29 1140.28 C 879.47 1113.29 903.72 1092.03 932.16 1082.40 C 939.73 1079.76 947.61 1078.24 955.48 1076.81 Z"
  />
  <path
    fill="#000000"
    stroke="#000000"
    stroke-width="0.09375"
    opacity="1.00"
    d=" M 1246.37 1089.47 C 1252.19 1088.67 1258.10 1088.25 1263.95 1089.16 C 1299.77 1090.03 1333.90 1111.39 1351.45 1142.46 C 1363.22 1163.03 1367.99 1187.67 1364.20 1211.10 C 1359.54 1244.34 1337.77 1274.52 1307.87 1289.70 C 1285.98 1301.07 1260.09 1304.49 1236.02 1299.04 C 1203.25 1291.99 1174.67 1268.36 1161.51 1237.55 C 1156.13 1224.77 1152.63 1210.96 1153.19 1197.02 C 1151.80 1169.44 1163.05 1141.89 1181.97 1122.00 C 1198.77 1104.05 1222.05 1092.61 1246.37 1089.47 Z"
  />
  <path
    fill="#464b4b"
    stroke="#464b4b"
    stroke-width="0.09375"
    opacity="1.00"
    d=" M 945.21 1090.23 C 956.24 1088.26 967.51 1090.55 978.06 1093.85 C 991.50 1098.43 1004.35 1105.39 1014.54 1115.41 C 1027.30 1127.57 1036.87 1143.04 1042.14 1159.86 C 1049.35 1182.74 1048.34 1208.11 1039.27 1230.33 C 1030.24 1252.93 1012.97 1272.11 991.44 1283.45 C 985.65 1286.43 979.69 1289.36 973.20 1290.35 C 959.71 1292.81 945.54 1292.72 932.41 1288.52 C 904.90 1279.22 882.76 1256.68 872.10 1229.88 C 863.40 1208.13 862.19 1183.48 869.06 1161.06 C 877.88 1131.02 900.99 1105.44 930.28 1094.20 C 935.09 1092.34 940.09 1090.93 945.21 1090.23 Z"
  />
  <path
    fill="#007600"
    stroke="#007600"
    stroke-width="0.09375"
    opacity="1.00"
    d=" M 998.35 1090.66 C 1027.57 1098.79 1052.49 1120.58 1064.74 1148.29 C 1075.26 1171.50 1076.77 1198.62 1068.96 1222.87 C 1060.50 1249.84 1040.57 1272.95 1015.06 1285.16 C 1009.44 1287.95 1003.51 1290.07 997.51 1291.87 C 1027.04 1275.70 1048.84 1246.10 1055.02 1212.96 C 1056.84 1202.40 1058.19 1191.56 1056.64 1180.88 C 1054.05 1149.21 1037.36 1119.08 1012.06 1099.90 C 1007.71 1096.50 1002.96 1093.68 998.35 1090.66 Z"
  />
  <path
    fill="#464b4b"
    stroke="#464b4b"
    stroke-width="0.09375"
    opacity="1.00"
    d=" M 634.99 1101.79 C 643.72 1097.96 654.21 1098.76 662.39 1103.59 C 673.90 1110.10 681.04 1122.34 684.25 1134.86 C 689.74 1156.16 685.09 1180.61 670.03 1197.03 C 661.52 1206.46 648.30 1211.72 635.67 1209.02 C 638.02 1206.20 641.42 1204.62 644.00 1202.05 C 658.12 1188.89 664.80 1169.04 664.14 1150.02 C 663.43 1135.00 657.98 1119.62 646.61 1109.38 C 643.25 1106.13 639.10 1103.91 634.99 1101.79 Z"
  />
  <path
    fill="#007600"
    stroke="#007600"
    stroke-width="0.09375"
    opacity="1.00"
    d=" M 1276.55 1100.21 C 1294.65 1102.81 1311.45 1111.91 1324.93 1124.08 C 1339.46 1137.57 1349.75 1155.60 1353.83 1175.02 C 1357.54 1193.13 1356.29 1212.38 1349.62 1229.68 C 1342.42 1248.84 1328.82 1265.47 1311.65 1276.58 C 1301.03 1283.49 1289.04 1288.05 1276.66 1290.62 C 1290.67 1282.98 1303.59 1273.04 1313.24 1260.23 C 1327.89 1241.48 1335.63 1217.73 1335.56 1194.00 C 1335.09 1174.58 1329.68 1155.22 1319.25 1138.77 C 1308.86 1122.41 1294.13 1108.53 1276.55 1100.21 Z"
  />
  <path
    fill="#464b4b"
    stroke="#464b4b"
    stroke-width="0.09375"
    opacity="1.00"
    d=" M 1238.49 1103.67 C 1249.93 1102.46 1261.42 1105.06 1272.12 1108.94 C 1277.29 1110.68 1281.80 1113.83 1286.21 1116.95 C 1311.32 1135.06 1326.97 1165.96 1325.73 1196.99 C 1325.87 1225.85 1311.31 1254.02 1288.62 1271.65 C 1281.31 1277.23 1273.30 1282.42 1264.10 1284.09 C 1243.06 1288.26 1220.21 1284.74 1202.23 1272.73 C 1192.13 1265.66 1183.04 1256.89 1176.74 1246.22 C 1164.53 1226.68 1159.78 1202.74 1163.39 1180.00 C 1166.24 1161.80 1174.50 1144.50 1186.75 1130.76 C 1199.73 1115.60 1218.73 1105.94 1238.49 1103.67 Z"
  />
  <path
    fill="#959898"
    stroke="#959898"
    stroke-width="0.09375"
    opacity="1.00"
    d=" M 601.99 1116.95 C 607.50 1112.16 614.79 1109.91 621.99 1109.51 C 632.63 1109.69 641.95 1116.95 647.00 1125.98 C 658.74 1147.11 655.19 1175.91 638.33 1193.35 C 632.14 1199.36 623.81 1203.87 614.97 1203.47 C 606.41 1203.26 598.44 1198.42 593.31 1191.73 C 589.46 1187.00 587.04 1181.31 585.23 1175.55 C 594.40 1173.80 603.75 1173.29 613.07 1173.49 C 617.06 1173.67 621.02 1172.52 624.44 1170.48 C 630.54 1166.60 634.03 1158.57 631.71 1151.57 C 629.82 1144.59 623.23 1139.54 616.13 1138.90 C 606.28 1137.95 596.34 1138.86 586.53 1139.93 C 589.70 1131.16 594.69 1122.88 601.99 1116.95 Z"
  />
  <path
    fill="#000000"
    stroke="#000000"
    stroke-width="0.09375"
    opacity="1.00"
    d=" M 923.52 1149.43 C 924.46 1147.05 927.83 1146.49 929.55 1148.33 C 936.46 1155.45 942.76 1163.15 949.34 1170.57 C 950.74 1172.17 952.57 1174.24 951.39 1176.52 C 949.68 1178.40 947.20 1179.58 945.98 1181.90 C 944.19 1184.70 944.19 1188.09 943.39 1191.22 C 942.33 1193.64 939.15 1193.39 936.99 1193.03 C 927.19 1191.45 917.27 1190.56 907.58 1188.37 C 905.42 1184.66 908.09 1180.95 909.60 1177.59 C 914.18 1168.17 918.61 1158.67 923.52 1149.43 Z"
  />
  <path
    fill="#000000"
    stroke="#000000"
    stroke-width="0.09375"
    opacity="1.00"
    d=" M 988.92 1148.82 C 990.13 1147.25 992.44 1146.75 994.17 1147.78 C 995.71 1149.34 996.58 1151.42 997.59 1153.36 C 1002.27 1163.03 1007.19 1172.60 1011.61 1182.39 C 1012.75 1184.31 1012.22 1186.45 1011.40 1188.38 C 1001.72 1190.54 991.81 1191.46 982.02 1193.03 C 979.84 1193.39 976.67 1193.65 975.61 1191.23 C 974.80 1188.11 974.80 1184.72 973.04 1181.92 C 971.80 1179.60 969.33 1178.40 967.61 1176.53 C 966.57 1174.58 967.82 1172.60 969.14 1171.20 C 975.69 1163.71 982.09 1156.07 988.92 1148.82 Z"
  />
  <path
    fill="#000000"
    stroke="#000000"
    stroke-width="0.09375"
    opacity="1.00"
    d=" M 1213.50 1150.47 C 1214.55 1147.71 1218.47 1147.58 1220.11 1149.86 C 1227.20 1157.47 1234.00 1165.36 1240.72 1173.29 C 1242.65 1175.21 1241.64 1178.25 1239.37 1179.35 C 1235.19 1181.95 1234.17 1187.03 1233.57 1191.55 C 1233.07 1194.54 1229.28 1194.51 1226.99 1194.03 C 1217.20 1192.46 1207.29 1191.55 1197.61 1189.38 C 1195.40 1185.69 1198.08 1181.97 1199.59 1178.61 C 1204.17 1169.20 1208.59 1159.70 1213.50 1150.47 Z"
  />
  <path
    fill="#000000"
    stroke="#000000"
    stroke-width="0.09375"
    opacity="1.00"
    d=" M 1277.87 1150.91 C 1279.01 1149.75 1280.17 1148.16 1282.01 1148.26 C 1284.52 1147.95 1285.57 1150.59 1286.59 1152.39 C 1291.64 1162.70 1296.86 1172.94 1301.61 1183.39 C 1302.74 1185.31 1302.22 1187.44 1301.41 1189.38 C 1291.72 1191.55 1281.82 1192.46 1272.03 1194.03 C 1269.70 1194.51 1265.87 1194.54 1265.43 1191.50 C 1264.82 1186.98 1263.78 1181.92 1259.60 1179.32 C 1257.33 1178.23 1256.35 1175.21 1258.27 1173.31 C 1264.66 1165.72 1271.19 1158.24 1277.87 1150.91 Z"
  />
  <path
    fill="#ff002c"
    stroke="#ff002c"
    stroke-width="0.09375"
    opacity="1.00"
    d=" M 927.72 1156.71 C 932.60 1162.64 937.81 1168.28 942.89 1174.05 C 939.91 1177.43 937.96 1181.52 936.80 1185.84 C 929.58 1184.68 922.34 1183.67 915.10 1182.67 C 919.37 1174.05 923.54 1165.37 927.72 1156.71 Z"
  />
  <path
    fill="#ff002c"
    stroke="#ff002c"
    stroke-width="0.09375"
    opacity="1.00"
    d=" M 976.12 1174.05 C 981.18 1168.28 986.40 1162.64 991.28 1156.71 C 995.46 1165.37 999.62 1174.05 1003.91 1182.67 C 996.64 1183.66 989.39 1184.72 982.15 1185.82 C 981.07 1181.47 979.06 1177.42 976.12 1174.05 Z"
  />
  <path
    fill="#ff002c"
    stroke="#ff002c"
    stroke-width="0.09375"
    opacity="1.00"
    d=" M 1205.09 1183.67 C 1209.37 1175.05 1213.54 1166.37 1217.72 1157.71 C 1222.60 1163.64 1227.82 1169.28 1232.88 1175.05 C 1229.93 1178.42 1227.93 1182.48 1226.85 1186.82 C 1219.60 1185.72 1212.35 1184.66 1205.09 1183.67 Z"
  />
  <path
    fill="#ff002c"
    stroke="#ff002c"
    stroke-width="0.09375"
    opacity="1.00"
    d=" M 1266.12 1175.05 C 1271.16 1169.30 1276.37 1163.70 1281.21 1157.76 C 1285.57 1166.33 1289.57 1175.08 1293.91 1183.66 C 1286.64 1184.66 1279.39 1185.72 1272.15 1186.82 C 1271.06 1182.48 1269.06 1178.42 1266.12 1175.05 Z"
  />
  <path
    fill="#000000"
    stroke="#000000"
    stroke-width="0.09375"
    opacity="1.00"
    d=" M 955.42 1180.52 C 961.38 1177.46 969.37 1181.74 970.89 1188.11 C 973.27 1195.58 965.64 1203.80 958.01 1202.07 C 952.09 1201.10 947.70 1194.91 948.81 1189.02 C 949.49 1185.33 952.06 1182.13 955.42 1180.52 Z"
  />
  <path
    fill="#000000"
    stroke="#000000"
    stroke-width="0.09375"
    opacity="1.00"
    d=" M 1245.42 1181.51 C 1251.38 1178.47 1259.36 1182.73 1260.89 1189.10 C 1263.28 1196.58 1255.63 1204.81 1248.00 1203.06 C 1242.75 1202.17 1238.70 1197.27 1238.64 1191.99 C 1238.59 1187.55 1241.48 1183.40 1245.42 1181.51 Z"
  />
  <path
    fill="#00a900"
    stroke="#00a900"
    stroke-width="0.09375"
    opacity="1.00"
    d=" M 511.23 1216.28 C 526.58 1201.18 544.79 1188.76 565.03 1181.22 C 567.85 1188.97 571.85 1196.38 577.46 1202.48 C 578.79 1204.10 580.88 1205.59 580.59 1207.98 C 580.50 1218.80 580.91 1229.60 581.43 1240.41 C 568.28 1240.63 555.13 1240.52 542.00 1241.10 C 538.31 1241.20 534.23 1241.83 531.58 1244.64 C 529.52 1246.88 529.46 1250.11 529.44 1252.98 C 529.46 1281.34 529.20 1309.70 529.25 1338.07 C 529.08 1341.09 530.35 1344.41 533.29 1345.70 C 537.31 1347.36 541.78 1346.59 546.01 1346.77 C 559.81 1346.95 573.63 1346.54 587.42 1347.09 C 587.95 1358.52 589.12 1369.93 590.36 1381.31 C 576.13 1384.05 562.33 1390.68 552.64 1401.66 C 544.81 1410.37 539.65 1421.10 535.98 1432.14 C 528.75 1452.50 528.56 1475.20 535.27 1495.73 C 543.01 1519.10 563.20 1537.36 586.57 1544.45 C 601.34 1548.53 616.97 1548.57 632.10 1546.79 C 642.15 1568.07 653.68 1588.66 666.78 1608.23 C 668.78 1610.45 667.32 1613.44 667.01 1616.01 C 664.51 1630.96 667.68 1646.35 673.90 1660.02 C 656.25 1669.97 636.36 1675.91 616.10 1676.90 C 583.18 1678.12 550.91 1665.00 525.74 1644.25 C 499.22 1622.66 479.26 1593.89 464.93 1563.04 C 444.51 1519.03 435.44 1470.35 434.98 1422.00 C 435.54 1381.61 441.95 1341.05 456.38 1303.20 C 468.63 1271.00 486.47 1240.47 511.23 1216.28 Z"
  />
  <path
    fill="#ff002c"
    stroke="#ff002c"
    stroke-width="0.09375"
    opacity="1.00"
    d=" M 958.21 1187.16 C 960.85 1186.04 964.38 1187.99 964.09 1191.04 C 964.27 1194.44 959.24 1196.63 957.07 1193.83 C 954.95 1191.93 955.70 1188.31 958.21 1187.16 Z"
  />
  <path
    fill="#ff002c"
    stroke="#ff002c"
    stroke-width="0.09375"
    opacity="1.00"
    d=" M 1248.23 1188.15 C 1250.84 1187.06 1254.34 1188.96 1254.09 1191.98 C 1254.33 1195.38 1249.32 1197.63 1247.11 1194.88 C 1244.94 1192.98 1245.68 1189.31 1248.23 1188.15 Z"
  />
  <path
    fill="#000000"
    stroke="#000000"
    stroke-width="0.09375"
    opacity="1.00"
    d=" M 949.34 1205.34 C 952.05 1203.75 955.10 1206.00 957.98 1206.03 C 962.02 1206.88 966.28 1204.02 970.13 1205.85 C 971.41 1207.74 971.98 1209.99 972.72 1212.14 C 975.45 1220.80 978.75 1229.29 981.17 1238.05 C 981.95 1240.16 981.26 1243.14 978.70 1243.51 C 966.17 1244.80 953.54 1244.15 940.96 1244.73 C 939.09 1244.72 936.95 1244.69 935.64 1243.16 C 934.74 1241.18 935.53 1239.03 936.21 1237.15 C 939.80 1227.47 943.83 1217.97 947.49 1208.32 C 948.00 1207.28 948.25 1205.94 949.34 1205.34 Z"
  />
  <path
    fill="#000000"
    stroke="#000000"
    stroke-width="0.09375"
    opacity="1.00"
    d=" M 1239.34 1206.34 C 1242.04 1204.74 1245.09 1206.99 1247.96 1207.03 C 1252.01 1207.90 1256.31 1204.98 1260.15 1206.88 C 1261.95 1209.74 1262.59 1213.14 1263.74 1216.29 C 1266.23 1223.86 1269.04 1231.35 1271.17 1239.05 C 1271.94 1241.18 1271.27 1244.11 1268.72 1244.51 C 1256.18 1245.80 1243.56 1245.15 1230.99 1245.73 C 1229.12 1245.73 1227.01 1245.69 1225.67 1244.21 C 1224.72 1242.23 1225.52 1240.06 1226.20 1238.16 C 1229.79 1228.50 1233.81 1219.01 1237.46 1209.38 C 1237.99 1208.32 1238.23 1206.95 1239.34 1206.34 Z"
  />
  <path
    fill="#ff002c"
    stroke="#ff002c"
    stroke-width="0.09375"
    opacity="1.00"
    d=" M 943.63 1237.61 C 947.18 1229.40 950.21 1220.97 953.52 1212.66 C 957.42 1213.38 961.42 1213.61 965.34 1212.83 C 968.06 1220.86 970.72 1228.92 973.39 1236.97 C 963.46 1236.78 953.55 1237.68 943.63 1237.61 Z"
  />
  <path
    fill="#ff002c"
    stroke="#ff002c"
    stroke-width="0.09375"
    opacity="1.00"
    d=" M 1233.63 1238.61 C 1237.18 1230.39 1240.21 1221.97 1243.52 1213.66 C 1247.42 1214.38 1251.41 1214.62 1255.34 1213.83 C 1258.06 1221.86 1260.71 1229.92 1263.39 1237.97 C 1253.45 1237.77 1243.55 1238.68 1233.63 1238.61 Z"
  />
  <path
    fill="#000000"
    stroke="#000000"
    stroke-width="0.09375"
    opacity="1.00"
    d=" M 1115.25 1230.32 C 1120.56 1228.92 1126.33 1229.44 1131.40 1231.50 C 1137.11 1234.17 1141.02 1239.38 1144.52 1244.44 C 1151.10 1254.13 1155.77 1264.92 1160.51 1275.59 C 1166.82 1289.29 1172.63 1303.26 1177.15 1317.67 C 1181.44 1332.01 1184.14 1347.15 1182.07 1362.12 C 1181.01 1368.91 1178.43 1375.62 1173.85 1380.83 C 1169.10 1386.08 1162.16 1389.58 1155.00 1389.40 C 1146.05 1389.41 1137.72 1384.59 1131.88 1378.04 C 1127.94 1373.94 1125.18 1368.93 1122.32 1364.07 C 1122.15 1364.09 1121.82 1364.14 1121.65 1364.16 C 1118.64 1369.20 1115.77 1374.40 1111.60 1378.60 C 1105.82 1384.86 1097.69 1389.40 1089.03 1389.40 C 1079.90 1389.61 1071.25 1384.02 1066.80 1376.20 C 1062.11 1368.36 1061.04 1358.99 1061.25 1350.02 C 1061.54 1332.42 1067.04 1315.44 1073.39 1299.20 C 1077.60 1288.10 1082.76 1277.39 1087.54 1266.53 C 1091.71 1257.17 1096.60 1248.07 1102.88 1239.95 C 1106.10 1235.80 1110.17 1231.97 1115.25 1230.32 Z"
  />
  <path
    fill="#007600"
    stroke="#007600"
    stroke-width="0.09375"
    opacity="1.00"
    d=" M 1120.24 1239.80 C 1124.62 1238.86 1128.88 1241.01 1131.64 1244.35 C 1137.46 1251.23 1141.85 1259.20 1145.69 1267.33 C 1153.68 1285.03 1161.99 1302.67 1167.65 1321.30 C 1171.14 1333.34 1173.69 1345.94 1172.39 1358.53 C 1171.51 1365.22 1169.27 1372.43 1163.54 1376.54 C 1160.85 1378.61 1157.40 1379.07 1154.16 1379.60 C 1158.42 1373.22 1161.11 1365.81 1161.51 1358.13 C 1163.04 1338.69 1157.46 1319.57 1150.54 1301.62 C 1146.12 1289.69 1140.63 1278.21 1135.49 1266.59 C 1131.27 1257.20 1126.43 1248.04 1120.24 1239.80 Z"
  />
  <path
    fill="#464b4b"
    stroke="#464b4b"
    stroke-width="0.09375"
    opacity="1.00"
    d=" M 1111.48 1245.24 C 1121.91 1258.37 1127.57 1274.31 1134.60 1289.33 C 1142.26 1307.46 1149.82 1326.10 1151.53 1345.90 C 1152.10 1354.94 1151.79 1364.78 1146.54 1372.55 C 1145.69 1373.74 1144.24 1375.90 1142.65 1374.41 C 1135.03 1368.02 1130.54 1358.71 1127.49 1349.42 C 1126.07 1344.42 1117.90 1344.44 1116.50 1349.44 C 1113.84 1357.69 1109.97 1365.70 1103.96 1372.05 C 1100.04 1376.14 1094.68 1379.12 1088.94 1379.36 C 1083.21 1379.28 1077.95 1375.66 1075.30 1370.68 C 1071.01 1362.87 1070.92 1353.60 1071.55 1344.94 C 1073.44 1325.48 1080.85 1307.18 1088.40 1289.33 C 1095.40 1274.31 1101.12 1258.41 1111.48 1245.24 Z"
  />
  <path
    fill="#00a900"
    stroke="#00a900"
    stroke-width="0.09375"
    opacity="1.00"
    d=" M 1386.22 1259.15 C 1389.76 1256.94 1391.21 1262.45 1391.34 1265.04 C 1391.83 1277.68 1391.42 1290.36 1391.26 1303.02 C 1390.33 1312.31 1390.89 1321.67 1389.92 1330.96 C 1388.41 1358.10 1385.59 1385.20 1380.86 1411.98 C 1377.43 1429.93 1374.62 1448.29 1367.02 1465.07 C 1364.89 1469.37 1362.76 1473.89 1359.16 1477.20 C 1353.44 1481.63 1345.10 1480.68 1339.42 1476.66 C 1313.13 1458.41 1287.86 1438.44 1265.82 1415.14 C 1259.75 1408.31 1253.96 1400.88 1251.06 1392.10 C 1247.96 1381.81 1248.07 1370.05 1253.58 1360.58 C 1257.22 1354.68 1264.76 1353.87 1270.94 1352.55 C 1287.17 1349.85 1303.00 1344.52 1317.33 1336.40 C 1345.24 1320.78 1367.30 1295.60 1380.49 1266.59 C 1381.78 1263.73 1383.12 1260.47 1386.22 1259.15 Z"
  />
  <path
    fill="#959898"
    stroke="#959898"
    stroke-width="0.09375"
    opacity="1.00"
    d=" M 548.68 1261.84 C 580.85 1261.83 613.03 1261.81 645.20 1261.84 C 645.22 1282.61 645.22 1303.39 645.20 1324.17 C 613.03 1324.19 580.86 1324.19 548.68 1324.17 C 548.65 1303.39 548.66 1282.61 548.68 1261.84 Z"
  />
  <path
    fill="#464b4b"
    stroke="#464b4b"
    stroke-width="0.09375"
    opacity="1.00"
    d=" M 658.59 1323.33 C 658.34 1303.12 658.38 1282.90 658.57 1262.70 C 665.40 1262.69 672.45 1261.81 679.11 1263.76 C 682.41 1264.62 684.49 1267.66 685.21 1270.86 C 688.24 1282.96 687.59 1295.75 684.91 1307.86 C 683.57 1312.60 682.24 1318.01 678.08 1321.11 C 672.07 1324.09 665.08 1323.12 658.59 1323.33 Z"
  />
  <path
    fill="#000000"
    stroke="#000000"
    stroke-width="0.09375"
    opacity="1.00"
    d=" M 575.56 1271.70 C 578.06 1270.89 581.22 1270.88 583.22 1272.84 C 585.47 1274.88 586.33 1278.04 586.30 1281.02 C 586.32 1288.33 586.27 1295.66 586.32 1302.98 C 586.41 1306.02 585.67 1309.28 583.50 1311.53 C 580.70 1314.32 575.54 1314.06 573.09 1310.95 C 570.83 1307.81 570.74 1303.76 570.80 1300.06 C 570.90 1293.67 570.73 1287.29 570.86 1280.92 C 571.00 1277.40 572.13 1273.34 575.56 1271.70 Z"
  />
  <path
    fill="#000000"
    stroke="#000000"
    stroke-width="0.09375"
    opacity="1.00"
    d=" M 614.22 1272.25 C 617.26 1270.64 621.54 1271.63 623.36 1274.61 C 624.82 1277.13 625.20 1280.11 625.18 1283.00 C 625.15 1288.99 625.14 1294.99 625.18 1300.99 C 625.19 1304.28 624.86 1307.98 622.58 1310.57 C 620.63 1312.84 617.24 1313.12 614.56 1312.20 C 611.16 1310.54 609.56 1306.60 609.69 1302.98 C 609.69 1295.66 609.67 1288.34 609.69 1281.03 C 609.65 1277.64 611.04 1273.84 614.22 1272.25 Z"
  />
  <path
    fill="#00a900"
    stroke="#00a900"
    stroke-width="0.09375"
    opacity="1.00"
    d=" M 775.82 1281.86 C 779.55 1277.21 784.91 1273.43 790.98 1272.93 C 795.94 1272.97 799.92 1276.40 803.14 1279.82 C 808.26 1285.02 811.40 1291.68 815.15 1297.85 C 836.19 1333.35 858.60 1368.02 881.73 1402.19 C 884.77 1406.80 888.05 1411.25 890.97 1415.95 C 895.23 1422.94 897.28 1431.54 895.37 1439.63 C 893.44 1447.84 888.94 1455.20 883.78 1461.77 C 869.84 1479.46 856.10 1497.30 841.65 1514.59 C 823.87 1535.72 807.01 1557.94 785.74 1575.78 C 781.59 1579.46 775.62 1580.90 770.23 1579.81 C 764.43 1578.01 759.65 1574.05 754.14 1571.61 C 744.93 1567.38 734.30 1564.42 724.28 1567.45 C 715.13 1570.25 708.78 1577.72 701.73 1583.71 C 699.25 1585.75 697.07 1588.38 694.01 1589.57 C 689.84 1590.07 686.54 1586.70 684.30 1583.60 C 681.84 1579.95 679.30 1576.21 678.02 1571.97 C 676.57 1567.77 680.87 1563.71 684.97 1564.27 C 700.41 1564.71 715.79 1559.36 727.93 1549.88 C 743.36 1537.99 753.66 1520.43 759.05 1501.91 C 768.75 1468.24 763.48 1430.61 745.26 1400.72 C 736.66 1386.58 724.77 1374.33 710.35 1366.09 C 723.56 1348.41 736.78 1330.73 750.32 1313.30 C 758.82 1302.82 767.28 1292.31 775.82 1281.86 Z"
  />
  <path
    fill="#00a900"
    stroke="#00a900"
    stroke-width="0.09375"
    opacity="1.00"
    d=" M 861.07 1340.44 C 862.34 1340.26 863.63 1340.10 864.92 1339.94 C 887.72 1354.56 914.10 1363.42 941.05 1365.94 C 944.14 1366.25 948.37 1367.43 948.87 1371.04 C 948.78 1375.69 946.22 1379.86 943.66 1383.59 C 937.89 1391.48 932.04 1399.31 926.14 1407.11 C 923.42 1410.60 920.34 1414.31 915.94 1415.64 C 912.21 1416.74 908.79 1414.18 906.22 1411.79 C 901.23 1406.95 897.67 1400.90 893.71 1395.24 C 883.05 1379.81 872.80 1364.11 862.59 1348.39 C 860.85 1346.09 860.95 1343.14 861.07 1340.44 Z"
  />
  <path
    fill="#464b4b"
    stroke="#464b4b"
    stroke-width="0.09375"
    opacity="1.00"
    d=" M 632.10 1391.87 C 641.77 1379.68 656.33 1371.07 672.03 1370.18 C 689.31 1368.93 706.15 1376.76 718.49 1388.50 C 732.37 1401.60 741.67 1419.05 746.52 1437.39 C 752.48 1460.23 751.90 1485.06 743.21 1507.14 C 737.29 1522.10 727.14 1535.88 712.99 1543.93 C 698.33 1552.43 679.46 1553.16 664.20 1545.86 C 661.99 1543.12 661.23 1539.48 659.74 1536.34 C 664.85 1536.21 669.95 1536.74 675.06 1536.68 C 692.16 1535.61 707.58 1524.86 716.31 1510.38 C 734.42 1480.82 731.75 1440.04 710.22 1412.92 C 699.53 1399.30 682.40 1390.65 664.98 1391.46 C 654.02 1391.67 643.05 1391.75 632.10 1391.87 Z"
  />
  <path
    fill="#00a900"
    stroke="#00a900"
    stroke-width="0.09375"
    opacity="1.00"
    d=" M 964.33 1380.33 C 965.72 1379.09 968.33 1378.93 969.03 1381.03 C 970.68 1385.45 970.31 1390.32 970.08 1394.96 C 968.17 1418.85 965.40 1442.67 963.40 1466.56 C 963.03 1470.33 962.68 1475.10 958.89 1477.12 C 955.39 1477.85 952.47 1475.04 950.01 1472.97 C 944.17 1467.01 939.63 1459.95 934.79 1453.20 C 930.86 1447.19 926.65 1440.45 927.42 1432.97 C 927.72 1428.90 929.64 1425.18 932.14 1422.04 C 940.31 1411.24 948.41 1400.37 956.41 1389.44 C 958.85 1386.25 960.98 1382.66 964.33 1380.33 Z"
  />
  <path
    fill="#959898"
    stroke="#959898"
    stroke-width="0.09375"
    opacity="1.00"
    d=" M 627.96 1404.45 C 643.48 1405.24 659.03 1405.08 674.56 1405.68 C 687.39 1407.45 697.82 1416.84 704.41 1427.54 C 715.64 1446.07 717.85 1469.60 711.25 1490.13 C 706.87 1503.46 697.77 1516.33 684.15 1521.26 C 666.86 1526.65 648.68 1522.35 630.99 1523.86 C 644.56 1511.79 651.91 1493.90 653.75 1476.08 C 656.51 1450.11 648.04 1421.90 627.96 1404.45 Z"
  />
  <path
    fill="#ff002c"
    stroke="#ff002c"
    stroke-width="0.09375"
    opacity="1.00"
    d=" M 587.40 1406.58 C 595.91 1404.70 605.38 1405.33 612.95 1410.00 C 627.21 1418.35 635.77 1433.96 639.17 1449.75 C 643.00 1468.16 640.78 1488.45 630.41 1504.43 C 623.31 1515.66 610.64 1524.23 596.95 1523.09 C 582.54 1521.92 570.69 1511.45 563.80 1499.30 C 553.02 1480.21 551.31 1456.31 558.78 1435.75 C 563.62 1422.66 573.38 1410.23 587.40 1406.58 Z"
  />
  <path
    fill="#000000"
    stroke="#000000"
    stroke-width="0.09375"
    opacity="1.00"
    d=" M 1003.28 1410.28 C 1019.66 1404.35 1040.57 1411.27 1048.45 1427.25 C 1051.56 1419.63 1057.88 1413.28 1065.77 1410.73 C 1081.91 1405.84 1101.79 1412.72 1109.45 1428.23 C 1112.48 1420.87 1118.47 1414.69 1126.02 1412.00 C 1142.67 1406.43 1163.40 1413.88 1171.00 1430.14 C 1174.08 1422.44 1180.11 1415.76 1188.05 1412.98 C 1203.29 1407.98 1221.82 1413.62 1230.77 1427.17 C 1236.57 1436.31 1235.82 1447.62 1235.97 1458.00 C 1235.82 1468.86 1236.62 1479.88 1234.38 1490.59 C 1233.65 1494.31 1231.85 1497.73 1229.25 1500.49 C 1235.50 1506.96 1235.46 1516.58 1235.91 1524.98 C 1235.94 1535.69 1236.24 1546.43 1235.61 1557.14 C 1235.26 1565.06 1232.60 1573.18 1226.79 1578.79 C 1217.04 1588.55 1201.84 1592.21 1188.68 1588.24 C 1180.46 1585.58 1174.15 1578.76 1171.00 1570.86 C 1163.40 1587.12 1142.66 1594.57 1126.00 1589.00 C 1118.46 1586.30 1112.48 1580.11 1109.45 1572.77 C 1101.78 1588.29 1081.86 1595.17 1065.71 1590.25 C 1057.85 1587.68 1051.57 1581.35 1048.45 1573.77 C 1040.78 1589.30 1020.84 1596.19 1004.68 1591.24 C 995.66 1588.25 988.57 1580.32 986.30 1571.14 C 983.98 1558.89 983.25 1546.42 983.06 1533.98 C 983.25 1526.47 983.48 1518.85 985.53 1511.58 C 987.20 1506.17 991.76 1502.09 997.12 1500.48 C 987.72 1498.08 983.63 1487.83 983.22 1479.02 C 982.52 1463.68 983.58 1448.29 985.73 1433.09 C 986.87 1423.07 993.91 1413.99 1003.28 1410.28 Z"
  />
  <path
    fill="#007600"
    stroke="#007600"
    stroke-width="0.09375"
    opacity="1.00"
    d=" M 1012.35 1417.39 C 1018.38 1416.13 1024.63 1418.10 1029.85 1421.11 C 1037.87 1425.79 1043.05 1434.64 1043.67 1443.87 C 1044.59 1455.26 1043.49 1466.71 1042.58 1478.07 C 1041.84 1483.06 1040.87 1489.39 1035.66 1491.66 C 1029.11 1494.36 1021.83 1493.52 1014.93 1493.53 C 1009.68 1493.10 1004.12 1493.15 999.33 1490.72 C 993.61 1487.38 992.91 1480.03 992.49 1474.09 C 992.40 1459.97 991.91 1445.51 995.86 1431.81 C 997.95 1424.23 1004.70 1418.69 1012.35 1417.39 Z"
  />
  <path
    fill="#007600"
    stroke="#007600"
    stroke-width="0.09375"
    opacity="1.00"
    d=" M 1073.33 1418.40 C 1087.70 1416.01 1102.21 1427.58 1104.26 1441.81 C 1105.92 1453.52 1104.54 1465.39 1103.77 1477.13 C 1103.14 1482.32 1102.61 1488.63 1097.99 1491.95 C 1092.24 1495.20 1085.34 1494.53 1078.99 1494.61 C 1072.95 1494.34 1066.65 1494.38 1060.99 1492.07 C 1054.74 1489.02 1053.89 1481.26 1053.49 1475.11 C 1053.40 1460.96 1052.91 1446.46 1056.88 1432.73 C 1058.99 1425.20 1065.72 1419.70 1073.33 1418.40 Z"
  />
  <path
    fill="#007600"
    stroke="#007600"
    stroke-width="0.09375"
    opacity="1.00"
    d=" M 1134.37 1419.39 C 1148.39 1417.09 1162.62 1428.08 1165.09 1441.89 C 1166.91 1452.13 1165.70 1462.58 1165.20 1472.90 C 1164.67 1478.83 1164.61 1485.19 1161.48 1490.47 C 1158.97 1494.28 1154.00 1495.00 1149.82 1495.45 C 1142.31 1495.82 1134.73 1495.72 1127.29 1494.61 C 1123.54 1494.15 1120.64 1491.45 1117.74 1489.29 C 1114.91 1484.78 1114.62 1479.20 1114.43 1474.02 C 1114.44 1460.57 1114.06 1446.78 1117.88 1433.75 C 1119.98 1426.19 1126.74 1420.69 1134.37 1419.39 Z"
  />
  <path
    fill="#007600"
    stroke="#007600"
    stroke-width="0.09375"
    opacity="1.00"
    d=" M 1196.30 1420.41 C 1210.34 1418.05 1224.62 1429.06 1227.09 1442.90 C 1228.91 1453.17 1227.70 1463.64 1227.19 1473.98 C 1226.71 1479.66 1226.58 1485.65 1223.87 1490.83 C 1221.79 1494.61 1217.09 1496.25 1212.97 1495.86 C 1205.02 1495.24 1197.05 1495.84 1189.10 1495.44 C 1184.39 1495.23 1179.85 1492.21 1178.38 1487.66 C 1175.41 1479.09 1176.70 1469.88 1176.44 1461.00 C 1177.01 1451.24 1177.14 1441.11 1180.98 1431.97 C 1183.60 1425.70 1189.78 1421.65 1196.30 1420.41 Z"
  />
  <path
    fill="#00a900"
    stroke="#00a900"
    stroke-width="0.09375"
    opacity="1.00"
    d=" M 1260.40 1440.20 C 1263.01 1438.33 1266.34 1439.89 1268.90 1441.14 C 1274.73 1444.40 1279.59 1449.08 1284.79 1453.24 C 1299.07 1465.11 1314.07 1476.08 1329.02 1487.09 C 1337.75 1493.91 1346.97 1501.82 1349.87 1512.98 C 1352.05 1520.22 1348.71 1527.41 1345.94 1533.98 C 1342.20 1541.95 1339.22 1550.26 1334.97 1557.99 C 1319.87 1587.87 1299.64 1615.33 1274.22 1637.24 C 1250.91 1657.86 1223.97 1674.09 1195.49 1686.50 C 1186.10 1690.71 1176.28 1694.53 1165.95 1695.39 C 1156.16 1695.01 1146.79 1690.82 1138.89 1685.22 C 1124.99 1673.81 1111.80 1661.54 1098.79 1649.15 C 1094.09 1644.23 1088.81 1639.80 1084.82 1634.28 C 1081.62 1630.25 1084.37 1623.43 1089.35 1622.55 C 1093.17 1621.76 1097.10 1621.74 1100.99 1621.62 C 1136.62 1619.33 1172.47 1620.20 1207.99 1616.00 C 1219.06 1614.51 1230.38 1612.65 1240.39 1607.42 C 1246.77 1604.12 1252.17 1598.85 1255.22 1592.31 C 1260.16 1581.97 1260.25 1570.23 1260.56 1559.01 C 1260.33 1532.03 1258.01 1505.12 1256.32 1478.21 C 1255.75 1468.21 1254.02 1458.03 1256.41 1448.13 C 1257.15 1445.27 1257.96 1442.11 1260.40 1440.20 Z"
  />
  <path
    fill="#00a900"
    stroke="#00a900"
    stroke-width="0.09375"
    opacity="1.00"
    d=" M 910.33 1455.47 C 914.25 1453.63 918.14 1456.47 920.75 1459.23 C 926.18 1464.94 930.37 1471.67 935.12 1477.94 C 941.74 1487.15 948.95 1496.12 953.51 1506.60 C 957.65 1516.46 959.02 1527.30 958.71 1537.95 C 958.31 1550.16 957.99 1562.39 958.43 1574.62 C 959.08 1584.01 960.77 1593.85 966.40 1601.66 C 970.63 1607.65 977.13 1611.60 983.86 1614.21 C 993.52 1617.90 1003.79 1619.59 1014.02 1620.82 C 1018.35 1621.33 1022.91 1622.81 1025.94 1626.10 C 1027.78 1629.14 1025.70 1632.72 1024.46 1635.60 C 1015.94 1651.40 1004.39 1665.26 993.26 1679.26 C 984.71 1689.64 976.12 1700.03 966.82 1709.76 C 962.33 1714.58 956.64 1718.19 950.46 1720.44 C 936.89 1725.43 922.13 1724.54 907.97 1723.69 C 870.29 1719.72 832.84 1710.31 799.03 1692.94 C 795.25 1691.11 791.68 1688.09 790.48 1683.95 C 789.89 1679.31 792.38 1674.77 795.88 1671.88 C 802.70 1665.87 807.01 1657.05 807.30 1647.95 C 806.88 1638.23 804.17 1628.73 799.96 1620.01 C 797.75 1615.01 794.54 1610.50 792.52 1605.43 C 789.90 1598.87 793.49 1591.79 797.85 1586.92 C 833.72 1546.90 867.53 1505.08 900.78 1462.87 C 903.30 1459.69 906.44 1456.84 910.33 1455.47 Z"
  />
  <path
    fill="#007600"
    stroke="#007600"
    stroke-width="0.09375"
    opacity="1.00"
    d=" M 1134.48 1505.60 C 1142.18 1505.47 1150.30 1504.44 1157.65 1507.33 C 1163.13 1509.77 1163.98 1516.54 1164.67 1521.82 C 1165.50 1534.18 1167.07 1546.72 1165.10 1559.05 C 1162.52 1574.36 1144.87 1586.41 1129.94 1580.28 C 1123.25 1577.97 1118.72 1571.74 1117.21 1565.02 C 1114.07 1551.91 1114.34 1538.30 1114.49 1524.92 C 1114.88 1519.77 1115.35 1514.01 1119.04 1510.05 C 1123.07 1506.05 1129.21 1506.21 1134.48 1505.60 Z"
  />
  <path
    fill="#007600"
    stroke="#007600"
    stroke-width="0.09375"
    opacity="1.00"
    d=" M 1188.44 1505.63 C 1196.60 1505.06 1204.79 1505.79 1212.96 1505.14 C 1217.53 1504.64 1222.77 1506.84 1224.47 1511.38 C 1227.14 1517.88 1226.91 1525.04 1227.52 1531.94 C 1227.80 1542.65 1229.46 1553.99 1225.15 1564.16 C 1219.80 1576.59 1203.95 1584.92 1191.10 1578.94 C 1184.44 1576.35 1180.33 1569.77 1178.95 1563.00 C 1176.55 1552.19 1176.34 1541.03 1176.42 1530.00 C 1176.36 1524.17 1176.44 1518.14 1178.65 1512.66 C 1180.21 1508.66 1184.23 1506.00 1188.44 1505.63 Z"
  />
  <path
    fill="#007600"
    stroke="#007600"
    stroke-width="0.09375"
    opacity="1.00"
    d=" M 1073.44 1506.61 C 1081.16 1506.47 1089.29 1505.44 1096.66 1508.33 C 1102.45 1511.00 1103.11 1518.28 1103.77 1523.87 C 1104.51 1536.16 1106.18 1548.67 1103.92 1560.89 C 1100.91 1575.83 1083.51 1587.33 1068.86 1581.25 C 1062.20 1578.93 1057.71 1572.70 1056.20 1565.99 C 1053.07 1552.90 1053.34 1539.32 1053.49 1525.96 C 1053.87 1520.78 1054.35 1514.99 1058.07 1511.01 C 1062.11 1507.06 1068.20 1507.21 1073.44 1506.61 Z"
  />
  <path
    fill="#007600"
    stroke="#007600"
    stroke-width="0.09375"
    opacity="1.00"
    d=" M 1012.39 1507.61 C 1020.76 1507.62 1030.12 1505.92 1037.64 1510.51 C 1043.06 1515.71 1042.47 1524.06 1043.26 1530.96 C 1043.67 1542.01 1045.32 1553.39 1042.28 1564.21 C 1038.12 1578.25 1021.02 1588.36 1007.11 1581.94 C 1000.81 1579.47 996.69 1573.43 995.21 1567.02 C 992.08 1553.94 992.34 1540.36 992.49 1527.00 C 992.86 1521.83 993.34 1516.04 997.03 1512.05 C 1001.05 1508.07 1007.14 1508.21 1012.39 1507.61 Z"
  />
  <path
    fill="#464b4b"
    stroke="#464b4b"
    stroke-width="0.09375"
    opacity="1.00"
    d=" M 723.67 1582.68 C 731.17 1578.42 740.24 1580.77 747.52 1584.29 C 762.14 1591.65 774.01 1603.75 782.59 1617.57 C 787.45 1625.62 791.45 1634.41 792.69 1643.81 C 793.41 1649.10 792.33 1654.77 789.01 1659.05 C 784.00 1665.66 777.33 1670.75 770.78 1675.74 C 769.56 1674.55 767.44 1673.86 767.32 1671.95 C 765.37 1654.35 756.37 1638.28 744.91 1625.10 C 734.04 1612.85 720.26 1602.31 704.04 1598.61 C 710.48 1593.19 716.42 1587.05 723.67 1582.68 Z"
  />
  <path
    fill="#959898"
    stroke="#959898"
    stroke-width="0.09375"
    opacity="1.00"
    d=" M 692.79 1611.84 C 700.00 1610.24 707.33 1612.96 713.64 1616.31 C 724.92 1622.55 734.29 1631.87 741.65 1642.38 C 748.25 1652.05 753.50 1663.14 754.10 1675.01 C 754.03 1679.24 753.34 1684.02 750.13 1687.10 C 746.49 1689.96 741.52 1690.44 737.11 1689.49 C 727.81 1687.63 719.66 1682.27 712.52 1676.25 C 718.39 1671.60 725.52 1667.20 727.60 1659.51 C 731.05 1649.21 721.91 1637.25 711.02 1638.06 C 702.75 1637.72 697.07 1644.44 690.94 1648.89 C 687.07 1640.88 683.94 1632.07 684.71 1623.04 C 685.23 1618.34 687.77 1613.00 692.79 1611.84 Z"
  />
  <path
    fill="#00a900"
    stroke="#00a900"
    stroke-width="0.09375"
    opacity="1.00"
    d=" M 1052.42 1629.59 C 1056.55 1627.78 1061.12 1629.89 1063.83 1633.16 C 1080.08 1650.22 1096.79 1666.85 1114.49 1682.41 C 1120.26 1687.78 1127.75 1692.67 1129.38 1700.97 C 1129.94 1705.06 1125.43 1706.95 1122.38 1708.33 C 1112.99 1711.92 1103.15 1714.21 1093.39 1716.50 C 1062.92 1722.36 1031.92 1725.01 1000.98 1726.43 C 995.24 1726.38 989.17 1726.77 983.89 1724.18 C 982.23 1723.36 980.28 1722.12 980.39 1720.03 C 980.31 1715.87 982.96 1712.47 985.64 1709.60 C 1005.52 1686.93 1023.86 1662.97 1041.51 1638.54 C 1044.09 1634.48 1047.75 1631.05 1052.42 1629.59 Z"
  />
</svg>
