<svg xmlns="http://www.w3.org/2000/svg" viewBox="0 0 2000 2000">
  <path fill="#ff002c" stroke="#ff002c" stroke-width=".094" d="M0 0h2000v2000H0V0Z"/>
  <path stroke="#000" stroke-width=".094" d="M741.03 247.1c1.37-3.93 6.25-5.52 10-4.24 33.9 8.8 65.9 24.42 94.39 44.72 31.78 22.72 59.37 50.93 83.22 81.78 2.61 3.32 5.92 6.81 10.36 7.26 3.65.38 6.51-2.39 8.67-4.96 5.75-7.23 8.65-16.12 12.72-24.29 9.63-19.75 20.07-39.23 33.14-56.94 1.5-2.21 4.12-3.03 6.47-3.99 6.25 1.39 8.83 7.61 12.29 12.27 13.32 19.83 24.15 41.24 33.92 63 2.8 5.25 5.65 11.07 10.98 14.19 5.08 2.42 10.23-1.6 13.27-5.44 24.12-31.22 51.92-59.88 84.09-82.86 27.78-19.8 58.91-35.15 91.88-44.07 2.73-.73 5.72-1.77 8.47-.47 4.35 1.43 6.04 7.4 3.14 10.95-3.41 4.26-7.64 7.78-11.24 11.87-20.87 22.88-40.18 47.41-55.39 74.45-11.45 20.06-20.62 41.51-26.16 63.96-.17 1.48-1.16 3.14-.3 4.56 3.2 1.3 6.64.08 9.75-.92 11.16-3.97 20.52-11.42 30.23-17.96 2.93-1.97 7.32-4.11 10.39-1.23 2.99 4.06-.29 9.96 3.17 13.86 2.49 1.64 6.26 1.5 8.64-.37 29.81-22.4 60.34-44.02 93.01-62.08 31.01-17.16 63.66-31.69 97.9-41.07 16.97-4.63 34.12-8.71 51.52-11.36 3.65-.45 7.63-1.05 11.07.67 3.73 1.79 5.23 6.88 3.22 10.47-1.62 3.07-4.95 4.56-7.8 6.24-28.72 16.17-54.25 37.29-78.78 59.14-31.52 28.64-59.87 60.73-84.71 95.31-3.71 5.41-8.09 10.82-9.05 17.51-.47 3.76.12 8.64 3.96 10.45 7.03 3.26 14.94 3.07 22.51 3.47 10.71.15 21.43-.16 32.14.14 3.25.3 7.16.44 9.35 3.26 1.9 2.4.8 5.85-1.37 7.66-4.76 4.25-10.75 7.24-14.4 12.64-1.94 2.93-3.59 6.84-1.75 10.22 1.39 2.57 4.47 3.51 7.11 4.25 6.69 1.44 13.41-.73 19.96-1.98 48.59-9.87 98.5-14.36 148.02-10.58 14.28 1.37 28.51 3.31 42.61 5.95 5.5 1.26 11.13 2.27 16.37 4.45 4.61 1.86 6.17 8.24 3.16 12.14-3.19 3.97-8.8 4.17-13.31 5.72-71.68 18.59-143.62 38.06-211.23 68.79-14.11 6.49-27.9 13.64-41.38 21.34 17.54 1.82 34.91 5.6 51.69 11.02 4.07 1.37 9.13 2.75 10.63 7.35 2.15 4.67-2.09 9.8-6.82 10.3-19.76 3.32-38.58 11.05-55.97 20.88 41.1 1.31 82.52 7.95 120.53 24.16 3.58 1.78 8.11 3.21 9.72 7.27 1.79 3.68-.1 8.75-4.03 10.11-4.44 1.78-9.34 1.16-13.99 1.66-24.24 2.23-48.2 6.75-71.94 12.01-31.23 6.93-61.86 16.84-90.68 30.79-10.25 5.01-20.62 10.09-29.57 17.26-3.75 3.19-7.65 6.78-9.18 11.61-.54 2.54-.61 5.87 1.38 7.8 6.23 2.22 13.1-.22 18.15-4.06 6.5-4.39 10.81-11.17 16.98-15.94 4.25-3.46 10.88-4.03 15.3-.57 6.17 4.5 9.61 11.65 12.26 18.6 7 19.52 7.07 40.5 9.45 60.87 1.67 16.03 9.72 30.71 19.81 42.98 3.89-4.41 6.82-10.28 12.66-12.42 4.66-1.81 9.78.21 13.28 3.44 8.05 7.1 11.51 17.78 13.63 27.98 3.49 18.42 3.12 37.29 2.39 55.94.01 5.45-.07 11.07 1.71 16.3.67 1.86 1.94 4.29 4.3 4.08 4.54-1.14 8.93-5.25 13.83-3.11 4.51 2 6.19 7.21 7.11 11.69 2.96 14.22.33 28.68-.54 42.97-1.58 15.44-1.94 31.12.23 46.51 4.67-3.94 8.47-8.76 12.9-12.94 3.31-3.32 9.33-4.29 12.84-.76 4.37 4.55 5.8 11.02 6.78 17.06 2.58 20.01-1.61 40.26-8.4 59.05-3.4 9.67-7.18 19.24-9.53 29.23-.91 4.92-2 10.24-.17 15.08 1.26 1.07 2.81-.61 4.09-1.02 4.4-2.52 7.89-6.42 12.5-8.6 3.22-1.5 7.2-.12 8.93 2.97 3.26 5.53 2.88 12.23 2.9 18.43.21 12.65-1.21 25.31-3.87 37.67-4.51 18.67-12.89 36.12-22.05 52.9-2.99 5.81-6.73 11.66-7.03 18.38-.19 5.09-1.12 10.12-1.31 15.22 5.92-2.47 10.82-6.92 16.93-8.96 3.96-1.44 9.06-.4 11.08 3.6 2.58 5.35 2.47 11.57 1.68 17.33-1.62 13.53-5.82 26.57-10.46 39.33-4.72 13.3-10.09 26.46-17.49 38.52-10.44 16.71-20.86 33.46-29.94 50.96-5.3 10.38-9.26 21.35-13.54 32.17 7.91-2.03 13.67-8.09 20.52-12.13 3.32-2.13 8.37-2.27 11 1.05 3.38 4.33 2.46 10.29 1.31 15.28-4.46 17.54-12.97 34.31-25.79 47.22-12.38 13.03-29.2 20.18-43.83 30.18-5.59 3.94-10.29 9-14.53 14.33-2.45 3.21-5.22 6.56-5.4 10.81 8.08 2.63 16.78 1.29 24.94 3.5 3.37.84 6.33 3.97 5.88 7.64-.7 5.66-5.4 9.61-9.37 13.21-12.84 10.52-27.78 18.02-42.49 25.53-18.98 9.11-38.42 17.2-57.99 24.94-16.58 6.47-32.7 14.05-49.12 20.91-20.4 8.71-41.26 16.43-62.69 22.19-21.53 5.75-43.66 8.79-65.79 11.12-25.22 2.87-50.68 4.49-76.02 2.43-25.12-2.08-50.27-4.58-75-9.58-39.71-8.05-76.85-24.77-113.75-40.96-34.2-14.05-69.17-26.93-100.85-46.26-7.25-4.54-14.51-9.36-20.2-15.82-2.46-2.84-4.69-6.73-3.42-10.57 1.1-3.35 4.71-4.86 7.92-5.36 7.47-1.35 15.25-.57 22.56-2.93-.29-2.17-.77-4.33-2.07-6.11-6.05-9.08-13.85-17.15-23.37-22.59-12.36-7.84-25.83-14.29-36.36-24.66-13.69-12.96-22.8-30.23-27.56-48.36-1.21-5.04-2.35-10.9.68-15.52 2.25-3.56 7.36-3.97 10.8-1.95 7.17 3.97 12.98 10.39 21.15 12.46-4.54-11.51-8.78-23.18-14.55-34.15-8.79-16.54-18.6-32.51-28.55-48.36-7.18-11.59-12.51-24.2-17.1-37-4.79-13.15-9.34-26.52-11.09-40.46-.84-6.07-1.22-12.63 1.51-18.28 1.83-3.69 6.38-5.03 10.18-3.9 6.56 1.75 11.64 6.65 17.86 9.22-.41-6.01-1.16-11.99-1.6-17.98-1.49-7.08-5.6-13.18-8.84-19.53-10.62-19.91-20.07-41.06-22.47-63.73-1.47-10.53-1.59-21.17-1.19-31.77.48-4.16 1.24-8.85 4.6-11.71 2.54-2.24 6.48-1.67 9.07.2 4.76 3.11 8.86 7.27 14.27 9.34 2.56-6.41.75-13.44-.84-19.86-5.27-18.29-13.69-35.71-16.32-54.71-1.78-12.96-2.56-26.59 1.72-39.16 1.58-4.34 4.44-9.66 9.74-9.68 4.4-.37 7.81 2.93 10.55 5.92 3.09 3.53 6.4 6.85 9.89 9.99 1.02-5.46 1.3-11 1.24-16.53 1.18-15.78-1.52-31.48-2.35-47.2-1.01-9.62-.96-19.49 1.62-28.86 1.12-4.01 3.58-8.42 8.08-9.13 4.74-.77 8.47 3.43 13 3.61 4.57-2.48 4.38-8.76 4.95-13.3.24-15.03-1.15-30.11.24-45.13 1.03-13.53 2.91-27.68 10.29-39.38 3.84-5.66 9.93-11.84 17.45-10.31 6.66 1.53 9.93 8.09 14.08 12.84 10.09-12.27 18.14-26.96 19.81-42.99 2.11-18.07 2.39-36.49 7.31-54.13 2.67-9.14 6.22-18.81 13.89-24.96 4.43-3.81 11.39-3.42 15.82.2 6.49 5.08 11.05 12.32 18.12 16.73 4.82 3.4 11.24 5.3 16.99 3.28 3.68-4.4.95-10.92-2.67-14.55-8.96-9.61-21.12-15.3-32.67-21.15-28.56-14-58.91-24.12-89.91-31.12-24.93-5.63-50.12-10.47-75.61-12.72-5.39-.59-11.97.57-16.11-3.71-3.64-4.35-.98-11.04 3.98-12.98 14.3-7.1 29.73-11.56 45.05-15.85 26.2-6.62 53.22-9.68 80.19-10.6-14.82-8.44-30.71-15.15-47.3-19.17-4.96-1.43-11.43-.76-14.78-5.4-3.32-4.65.47-10.94 5.45-12.35 18.09-6.51 37.07-10.56 56.17-12.62-28.96-16.73-59.7-30.16-91.04-41.73-53.47-20.12-108.8-34.62-164-49.06-4.14-1.32-9.63-1.86-11.6-6.36-2.31-4.09.13-9.76 4.54-11.15 5.6-2.08 11.48-3.25 17.32-4.47 22.11-3.94 44.51-6.69 67-6.87 43.44-.84 86.88 4.21 129.33 13.35 5.64 1.14 11.91 1.72 17.12-1.26 3.18-1.5 4.19-5.66 2.88-8.75-2.32-6.82-8.82-10.72-14.26-14.84-2.46-1.81-5.35-4.54-4.29-7.93 1.24-3.84 5.77-4.44 9.22-4.74 11.36-.45 22.73.03 34.09-.24 7.46-.41 15.34-.26 22.14-3.8 3.28-2.1 3.68-6.53 3.3-10.05-.87-6.21-4.77-11.34-8.23-16.35-37.23-52.25-82.71-98.67-134.55-136.51-9.93-7.25-20.32-13.84-31.04-19.84-4.16-1.95-8.63-5.93-7.2-11.04 1.09-5.15 7.05-6.73 11.62-6 17.23 2.14 34.15 6.28 50.93 10.66 36.1 9.49 70.49 24.68 103.04 42.82 30.76 17.09 59.6 37.35 87.76 58.37 2.57 1.71 4.87 4.6 8.24 4.46 1.69-.02 3.92.02 4.91-1.67 2.7-3.97-.17-9.37 2.7-13.24 2.8-2.69 6.95-1.01 9.73.81 11.31 7.41 22.1 16.63 35.6 19.65 1.74.33 6.02.7 5.3-2.17-7.17-32.02-22.31-61.72-40.42-88.89-15.36-22.54-32.87-43.64-52.06-63.01-1.94-2.12-3.09-5.3-1.8-8.04Z"/>
  <path fill="#ff002c" stroke="#ff002c" stroke-width=".094" d="M785.2 277.64c44.48 25.77 85.39 58.29 118.04 98.16 8.99 11.28 18.47 22.51 24.09 35.96 6.77 14.66 10.15 31.21 7.51 47.29-1.79 10.6-3.9 21.6-10.19 30.58-2.73 3.99-6.56 7.92-11.63 8.38-5.11.25-9.82-2.3-13.79-5.27-13.88-10.82-24.78-25.4-31.13-41.83-5.2-13.92-8.93-28.34-12.04-42.85-7.85-33.17-22.05-64.75-41.36-92.81-9-13.16-18.84-25.75-29.5-37.61Z"/>
  <path fill="#ff002c" stroke="#ff002c" stroke-width=".094" d="M1092.76 380.76c33.28-42.1 75.71-76.31 122.03-103.11-22.69 25.45-42.4 53.89-55.89 85.31-8.01 18.39-13.67 37.72-17.72 57.34-4.03 15.33-8.04 30.95-16.12 44.75-5.69 9.88-13.37 18.53-22.03 25.9-4.54 3.74-9.94 7.34-16.07 7.06-5.08-.47-8.9-4.4-11.62-8.4-6.45-9.27-8.53-20.64-10.34-31.57-2.62-17.33 1.84-34.94 9.6-50.42 4.6-9.86 11.56-18.31 18.16-26.86Z"/>
  <path fill="#ff002c" stroke="#ff002c" stroke-width=".094" d="M975.78 364.71c6.86-16.81 14.43-33.41 24.22-48.74 14.12 22.39 24.11 47.09 32.91 71.97 8.32 23.89 15.13 48.29 20.74 72.96 5.85 22.66 3.85 46.61-1.19 69.22-5 22.68-15.17 43.77-26.38 63.96-1.94 3.45-5.56 5.78-9.33 6.75-4.79.59-8.04-3.51-11.54-6.02-2.71-2.32-6.98-2.58-9.83-.41-3.64 2.39-6.64 6.51-11.39 6.52-4.37-.69-8.44-3.56-10.46-7.5-5.36-9.82-10.57-19.73-14.97-30.02-11.01-25.21-16.71-52.89-15.59-80.43.2-9.61 2.67-18.94 4.81-28.25 7.24-30.6 16.31-60.8 28-90.01Z"/>
  <path fill="#ff002c" stroke="#ff002c" stroke-width=".094" d="M582.82 319.87c37.82 14.9 74.2 33.33 109.19 53.97 33.28 19.61 64.75 42.14 94.9 66.24 8.68 6.96 16.96 14.37 25.23 21.79 1.79 1.61 3.55 3.37 4.36 5.71 11.43 28.85 21.73 58.25 28.71 88.53 2.44 13.21 4.26 27.4-1.02 40.18-2.38 5.96-7.57 11.08-14.15 11.81-10.4 1.28-20.22-3.51-29.36-7.81-12.88-6.61-26.25-14.22-33.99-26.93-2.44-3.84-4.45-7.98-5.48-12.41-7.98-32.64-21.31-63.87-38.6-92.65-20.19-33.65-45.01-64.45-73.15-91.78-20.94-20.3-43.07-39.45-66.64-56.65Z"/>
  <path fill="#ff002c" stroke="#ff002c" stroke-width=".094" d="M1269.39 398.33c46.34-31.2 95.87-57.82 147.8-78.47-27.53 20.18-53.29 42.8-77.16 67.2-24.72 25.51-46.55 53.86-64.56 84.48-14.55 24.79-26.15 51.35-33.95 79.03-2.16 7.23-3.15 14.99-7.38 21.43-7.34 13.01-20.58 20.93-33.44 27.61-8.16 3.97-16.6 8.05-25.79 8.71-5.86.47-12.16-1.58-15.77-6.4-5.25-6.75-6.44-15.62-6.8-23.91.26-19 6.18-37.25 11.51-55.29 5.1-16.7 11.04-33.12 17.4-49.37 1.53-3.65 2.41-7.88 5.6-10.52 25.68-23.73 53.8-44.65 82.54-64.5Z"/>
  <path fill="#ff002c" stroke="#ff002c" stroke-width=".094" d="M813.55 429.68c25.58 22.22 50.35 45.4 74.05 69.64 17.29 17.86 33.96 36.41 48.65 56.49 8.91 12.28 17.2 25 24.78 38.14 4.56 7.75 8.69 15.95 10.04 24.95 1.76 10.46-.05 21.54-5.34 30.77-4.63 7.78-12.62 12.8-20.72 16.38-9.89 4.4-21.71 5.15-31.7.68-7.11-3.07-13.06-8.18-18.92-13.11-9.01-7.7-15.82-17.7-20.56-28.5-7.23-16.21-9.37-34-12.95-51.22-6.94-33.59-16.96-66.51-29.35-98.48-5.85-15.31-12.11-30.45-17.98-45.74Z"/>
  <path fill="#ff002c" stroke="#ff002c" stroke-width=".094" d="M1186.39 429.75c-7.79 20.4-16.29 40.52-23.67 61.08-7.17 19.74-13.25 39.88-18.4 60.25-4.63 17.42-7.28 35.28-11.24 52.85-4.16 18.41-12.45 36.59-26.9 49.18-5.83 4.98-11.76 10.07-18.78 13.31-10.16 4.8-22.32 4.14-32.45-.39-8.1-3.58-16.06-8.6-20.69-16.37-5.96-10.38-7.46-23.09-4.52-34.65 1.87-8.53 6.37-16.12 10.69-23.59 9.62-16.32 20.2-32.08 31.94-46.96 20.83-26.3 44.47-50.22 68.64-73.44 14.88-14.02 29.85-27.96 45.38-41.27Z"/>
  <path fill="#ff002c" stroke="#ff002c" stroke-width=".094" d="M671.01 514.05c7.64.31 15.13 2.03 22.61 3.46 10.51 2.27 21.33 4.03 31.07 8.8 9.51 4.44 16.55 13.11 20.1 22.87 2.05 5.97 3.58 13.06.27 18.87-2.4 4.06-7.59 5.1-11.93 4.43-9.37-1.51-18.76-5.23-25.44-12.17-4.81-4.76-7.99-10.79-11.78-16.33-7.52-10.59-15.71-20.73-24.9-29.93Z"/>
  <path fill="#ff002c" stroke="#ff002c" stroke-width=".094" d="M1310.17 516.75c6.23-1.15 12.46-2.48 18.82-2.7-11.71 11.82-22.05 24.98-30.88 39.08-4.98 7.75-12.45 13.88-21.22 16.8-5.58 1.77-11.76 3.93-17.54 1.84-4.66-1.78-6.48-7.13-6.35-11.74.36-8.63 4.1-16.86 9.4-23.58 5.4-6.79 13.33-11.04 21.5-13.6 8.61-2.63 17.46-4.33 26.27-6.1Z"/>
  <path fill="#ff002c" stroke="#ff002c" stroke-width=".094" d="M460 536.52c41.92-1.27 83.8 3.16 125.1 10.08 38.99 6.41 77.37 16.21 114.97 28.35 39.42 12.72 78.17 27.65 115.58 45.45 24.86 11.71 48.72 25.69 70.48 42.52 5.06 3.85 9.49 8.42 14.17 12.71-7.38-1.17-14.87-2.41-22.37-1.8-3.26.31-6.9 1.91-7.96 5.26-1.11 3.02.41 6.27 2.57 8.41 3.96 4.06 8.66 7.31 12.87 11.1 7.07 6.27 13.92 13.01 18.96 21.07 1.84 3.29 3.64 7.05 3.1 10.93-.69 4.35-5.42 7.04-9.59 6.39-13.72-1.23-25.73-8.47-38.17-13.71-11.6-5.29-23.61-9.59-35.81-13.26-15.21-4.61-29.21-12.56-41.92-22.01-9.67-7.23-18.35-15.65-27.29-23.73-23.63-20.59-50.17-37.69-78.12-51.79-16.32-7.78-32.51-15.86-49.16-22.9-43.03-18.65-87.87-32.77-133.13-44.89-11.39-2.87-22.69-6.22-34.28-8.18Z"/>
  <path fill="#ff002c" stroke="#ff002c" stroke-width=".094" d="M1368.73 555.76c44.1-9.93 89.01-16.85 134.19-18.93 12.34-.82 24.74-.49 37.1-.35-19.44 3.77-38.48 9.4-57.57 14.65-43.64 12.42-86.65 27.33-127.83 46.47-17.01 8.13-34.26 15.86-50.6 25.32-21.03 11.97-40.99 25.87-59.21 41.81-11.19 10.23-22.21 20.81-35.02 29.04-10.64 7.07-22.2 12.83-34.46 16.5-15.13 4.41-29.75 10.37-44.01 17.04-9.63 4.46-19.56 9.15-30.33 9.72-4.73.36-9.32-3.99-8.54-8.83 1-6.94 5.7-12.5 10.06-17.69 6.53-7.5 14.24-13.83 21.9-20.12 3.02-2.62 6.71-5.98 5.86-10.43-.67-3.84-4.68-5.85-8.24-6.14-7.49-.6-14.96.64-22.33 1.81 12.94-13.07 28.28-23.39 43.77-33.18 28.97-17.83 60.27-31.46 91.73-44.22 43.43-17.26 88.01-31.78 133.53-42.47Z"/>
  <path fill="#ff002c" stroke="#ff002c" stroke-width=".094" d="M975.7 658.7c7.29-12.29 15.13-24.32 24.3-35.31 6.57 7.79 12.34 16.23 17.86 24.79 4.01 6.46 8.28 12.84 11.14 19.92 1.83 4.1.82 8.72-.19 12.9-3.34 12.04-13.27 21.82-25.06 25.69-5.22 1.9-10.53-.91-15.01-3.4-10.97-6.39-19.02-18.5-18.72-31.43.76-4.77 3.39-8.98 5.68-13.16Z"/>
  <path fill="#ff002c" stroke="#ff002c" stroke-width=".094" d="M658.72 657.35c16.35-1.37 32.84-1.66 49.21-.16 13.81.56 27.66 6.53 36.61 17.25 3.02 3.82 5.79 8.47 5.39 13.52-.79 4.99-5.82 7.58-10.3 8.56-8.2 1.99-16.56-1.34-23.23-5.98-7.57-5.35-14.45-11.65-22.34-16.55-11.12-6.79-22.93-12.66-35.34-16.64Z"/>
  <path fill="#ff002c" stroke="#ff002c" stroke-width=".094" d="M1286.52 657.69c18.15-1.95 36.5-1.94 54.68-.32-17.29 5.8-33.82 14.34-48.02 25.85-6.06 4.78-12.11 9.96-19.54 12.46-6.16 2.18-13.33 1.93-19.03-1.41-3.23-1.76-5.31-5.66-4.43-9.31.84-4.63 3.55-8.67 6.65-12.1 7.71-8.35 18.51-13.52 29.69-15.17Z"/>
  <path fill="#ff002c" stroke="#ff002c" stroke-width=".094" d="M886.66 685.09c22.45 2.5 44.95 7.18 65.56 16.66 9.65 4.3 18.21 10.83 25.12 18.8 7.22 8.14 10.53 20.58 6.11 30.81-2.67 5.93-9.67 7.61-15.54 8.14-9.52.56-19.41-2.4-26.6-8.77-6.67-5.79-11.86-13.05-16.51-20.5-3.35-5.61-6.39-11.41-10.27-16.68-7.78-10.84-17.58-20.05-27.87-28.46Z"/>
  <path fill="#ff002c" stroke="#ff002c" stroke-width=".094" d="M1054.64 698.76c18.75-7.41 38.69-11.51 58.7-13.66-13.09 10.63-25.34 22.74-33.72 37.51-4.21 7.56-8.78 14.96-14.41 21.54-4.38 5.03-9.42 9.76-15.66 12.35-8.43 3.45-18.29 4.4-26.83.79-3.21-1.34-5.69-4.13-6.79-7.41-2.96-8.38-.91-17.95 3.69-25.35 8.53-12.09 21.31-20.56 35.02-25.77Z"/>
  <path fill="#ff002c" stroke="#ff002c" stroke-width=".094" d="M596.46 715.33c33.74-3.58 67.61-6.59 101.58-6.11 17.02-.3 34 1.01 50.96 2.35 32.94 3.07 66.05 7.85 97.35 18.97 4.78 1.76 9.7 3.34 14.05 6.05 1.65.98 3.17 2.55 3.25 4.59.46 3.76-3.51 6.13-6.72 6.63-14.07 1.29-28.55-.18-42.23 4.04-4.14 1.24-8.03 5.54-6.58 10.07 2.35 7.08 10.83 9.64 13.38 16.65 1.96 4.56-1.43 9.2-4.9 11.92-6.05 4.64-14.44 7.96-21.9 4.77-6-2.13-9.68-7.59-14.37-11.56-21.65-19.22-47.5-33.18-74.36-43.69-19.26-7.48-39.19-13.24-59.45-17.27-16.57-3.16-33.23-6.13-50.06-7.41Z"/>
  <path fill="#ff002c" stroke="#ff002c" stroke-width=".094" d="M1221.55 714.89c21.37-2.97 42.91-4.61 64.46-5.56 13.37-.17 26.74-.19 40.12.02 25.87 1.05 51.71 3.1 77.45 6.03-21.36 1.69-42.54 5.56-63.43 10.28-34.18 8.26-67.58 21-97.15 40.23-10.31 6.86-20.25 14.38-28.95 23.22-2.81 3-6.25 5.51-10.23 6.67-7.13 2.27-14.71-.97-20.37-5.26-3.5-2.71-6.94-7.38-4.94-11.97 2.48-6.73 10.31-9.34 13.1-15.82 2.12-4.69-1.88-9.63-6.33-10.89-12.06-3.72-24.84-2.99-37.29-3.69-3.34-.11-7.04-.11-9.67-2.47-2.76-1.87-2.58-6.35.07-8.22 3.81-2.85 8.4-4.37 12.81-6.04 22.67-8.35 46.46-13.22 70.35-16.53Z"/>
  <path fill="#ff002c" stroke="#ff002c" stroke-width=".094" d="M821.59 761.53c29.08-4.76 59.53-1.22 86.44 10.96-22.21 4.32-44.16 10.08-65.42 17.87-3.97-11.44-11.75-21.19-21.02-28.83Z"/>
  <path fill="#ff002c" stroke="#ff002c" stroke-width=".094" d="M1091.97 772.49c26.91-12.18 57.36-15.72 86.44-10.96-9.27 7.64-17.06 17.39-21.02 28.84-21.26-7.8-43.21-13.56-65.42-17.88Z"/>
  <path fill="#ff002c" stroke="#ff002c" stroke-width=".094" d="M960.58 811.52c10.96-13.69 25.44-23.86 39.42-34.22 13.81 10.23 28.1 20.28 39.03 33.72 4.71 6.05 9.1 13.18 8.71 21.15-.1 6.1-3.5 11.6-7.78 15.72-6.31 6.1-14.61 9.55-22.88 12.09-7.72 2.26-15.91 3.99-23.94 2.4-10.1-1.87-20.21-5.02-28.74-10.87-6.31-4.5-11.97-11.26-12.14-19.36-.39-7.74 3.78-14.71 8.32-20.63Z"/>
  <path fill="#ff002c" stroke="#ff002c" stroke-width=".094" d="M878.65 805.22c10.4 2.8 20.75 6.37 29.79 12.35 3.28 2.28 6.65 4.85 8.42 8.56 1.14 2.09.07 4.42-.2 6.6-17.58 3.41-32.71 13.57-46.79 24.13-7.08 4.82-14.85 10.67-23.92 9.71-3.39-.39-7.28-1.13-9.39-4.09-3.41-4.23-5.31-10.04-3.49-15.35 2.28-6.73 7.61-11.77 12.66-16.5 10.33-9.27 21.6-17.41 32.92-25.41Z"/>
  <path fill="#ff002c" stroke="#ff002c" stroke-width=".094" d="M1093.42 816.36c8.62-5.24 18.23-8.53 27.93-11.14 12.66 9 25.4 18.05 36.57 28.88 4.12 4.24 8.32 8.98 9.49 14.97.98 5.68-1.66 11.68-5.96 15.36-5.53 2.92-12.5 3-18.13.32-9.78-4.32-17.68-11.72-26.63-17.4-10.12-6.84-21.33-12.11-33.31-14.65-.29-2.17-1.41-4.49-.24-6.57 2.13-4.36 6.31-7.21 10.28-9.77Z"/>
  <path fill="#ff002c" stroke="#ff002c" stroke-width=".094" d="M715.78 843.06c1.34-9.8 2.84-19.66 6.14-29.02 8.48 11.51 20.93 19.28 33.98 24.69-14.35 11.7-27.65 24.72-39.34 39.08-2.23-11.45-1.95-23.2-.78-34.75Z"/>
  <path fill="#ff002c" stroke="#ff002c" stroke-width=".094" d="M1244.1 838.73c13.05-5.4 25.49-13.18 33.98-24.69 3.3 9.36 4.79 19.21 6.14 29 1.2 11.56 1.44 23.31-.79 34.77-11.69-14.36-24.99-27.39-39.33-39.08Z"/>
  <path fill="#ff002c" stroke="#ff002c" stroke-width=".094" d="M917.35 840.35c5.52-1.25 11.76-1.7 16.62 1.78 13.71 8.67 28.43 17.54 37 31.82 4.19 6.59 4.78 15.19 1.15 22.17-6.59 13.4-18.49 23.41-31.09 30.99-8.88 5.21-17.99 10.45-28.09 12.87-6.17 1.47-12.78.5-18.34-2.5-8.06-4.22-14.89-10.41-21.12-16.95-6.66-7.27-13.12-15.19-16.25-24.67-1.71-4.96-.72-10.4 1.65-14.95 4.6-8.97 12.26-15.9 20.42-21.61 11.55-8.24 23.93-16.15 38.05-18.95Z"/>
  <path fill="#ff002c" stroke="#ff002c" stroke-width=".094" d="M1069.4 840.38c4.47-1.78 9.38-.76 13.93.11 11.71 2.39 22.19 8.51 32.03 15.05 6.84 4.77 13.84 9.55 19.29 15.95 4.1 4.8 7.84 10.3 8.85 16.67.85 6.44-2.36 12.45-5.54 17.81-5.34 8.38-12.1 15.82-19.55 22.38-6.16 5.27-13.01 10.39-21.14 11.96-8.69 1.48-17.12-2.15-24.81-5.77-12.62-6.4-25.11-13.74-34.74-24.3-5.28-5.78-10.14-12.41-11.87-20.17-1.37-6.02.66-12.24 3.9-17.31 6.32-10.18 16.21-17.38 25.94-24.05 4.47-2.93 8.87-6.03 13.71-8.33Z"/>
  <path fill="#ff002c" stroke="#ff002c" stroke-width=".094" d="M802.37 852.6c4.38-1.34 9.52-1.2 13.26 1.74 4.81 3.89 7.34 9.76 9.75 15.3 2.03 5.25 4.99 10.54 4.24 16.38-.62 6.45-5.12 11.67-9.8 15.79-7.4 6.42-15.78 11.55-23.85 17.07-8.11 5.37-16.13 10.97-24.94 15.16-5.85 2.79-12.44 4.06-18.9 3.49-5.44-.55-10.51-4.33-11.99-9.68-2.27-7.7.75-15.64 4.36-22.41 8.08-14.61 19.93-26.72 32.51-37.52 7.65-6.25 15.77-12.45 25.36-15.32Z"/>
  <path fill="#ff002c" stroke="#ff002c" stroke-width=".094" d="M1187.4 852.65c5.79-2.18 11.99.18 17.26 2.71 11.67 6.02 21.51 14.95 30.81 24.09 7.82 7.98 15.05 16.69 20.34 26.58 2.67 5.25 5.06 10.95 4.8 16.97.01 5.01-2.42 10.27-6.99 12.65-3.96 2.39-8.76 2.17-13.17 1.76-8-.88-15.07-5-21.85-9.03-9.35-5.85-18.43-12.11-27.57-18.27-6.54-4.71-13.48-9.39-17.9-16.29-3.1-4.74-3.69-10.93-1.67-16.2 2.17-5.68 4.33-11.41 7.4-16.67 2.06-3.42 4.69-6.83 8.54-8.3Z"/>
  <path fill="#ff002c" stroke="#ff002c" stroke-width=".094" d="M946.71 936.72c16.51-14.41 34.74-26.67 53.29-38.28 14.32 8.99 28.48 18.29 41.77 28.77 8.36 6.52 16.65 13.34 23.15 21.8 3.73 4.91 6.55 10.77 6.64 17.04-.27 8.24-3.78 16.11-9.02 22.4-10.66 12.83-25.17 21.69-39.96 29.02-7.86 3.95-16.63 6.54-25.5 5.82-9.91-.58-18.89-5.23-27.45-9.85-12.94-7.13-25.52-15.77-34.32-27.84-5.5-7.84-8.93-18.33-5.3-27.65 3.36-8.54 10.07-15.14 16.7-21.23Z"/>
  <path fill="#ff002c" stroke="#ff002c" stroke-width=".094" d="M834.42 905.51c5.48-1.09 10.2 2.65 14.13 5.95 9.28 8.39 18.99 16.49 26.7 26.44 4.14 5.33 7.73 11.36 8.84 18.12 1.43 6.1-.99 12.47-4.84 17.2-4.32 5.32-9.65 9.71-14.86 14.11-10.14 8.3-20.46 16.41-31.37 23.69-5.98 3.85-12.02 7.97-18.98 9.8-7.29 2.21-14.64-1.35-20.78-5.02-12.15-7.51-24.1-17.48-28.51-31.6-3.86-11.56.87-24.19 8.34-33.18 14.28-13.52 29.3-26.37 45.76-37.18 5.01-3.05 9.89-6.65 15.57-8.33Z"/>
  <path fill="#ff002c" stroke="#ff002c" stroke-width=".094" d="M1161.38 905.55c4.78-1.1 9.02 1.9 12.99 4.09 17.6 10.47 33.38 23.69 48.44 37.49 7.17 5.86 11.72 14.56 13.46 23.57 1.44 8.08-1.18 16.26-5.46 23.07-5.43 8.74-13.66 15.29-22.18 20.85-5.34 3.41-11.2 6.57-17.65 6.94-7.51-.26-14.11-4.33-20.32-8.15-13.64-8.75-26.38-18.83-38.78-29.22-5.8-5.21-12.26-10.41-15.14-17.89-2.81-7.1-.3-14.97 3.24-21.33 7.75-13.16 19.81-22.9 30.95-33.06 3.11-2.62 6.38-5.41 10.45-6.36Z"/>
  <path fill="#ff002c" stroke="#ff002c" stroke-width=".094" d="M649.47 952.91c1.15-9.47 3.12-18.84 5.53-28.07 4.34 8.72 9.01 17.45 15.74 24.59-7.02 14.84-13.65 29.89-19.06 45.39-1.11-7.91-2.73-15.81-2.49-23.83.13-6.03-.26-12.07.28-18.08Z"/>
  <path fill="#ff002c" stroke="#ff002c" stroke-width=".094" d="M1345 924.84c2.46 9.46 4.49 19.05 5.6 28.76.61 13.79.4 27.65-2.28 41.24-5.4-15.52-12.06-30.57-19.06-45.42 6.74-7.13 11.39-15.87 15.74-24.58Z"/>
  <path fill="#ff002c" stroke="#ff002c" stroke-width=".094" d="M727.46 946.63c4.65-1.37 9.42 1.12 11.72 5.2 4.45 7.48 7.3 15.87 9.27 24.31 1.9 8.12-2.31 15.98-7.12 22.21-9.97 12.9-22.24 23.75-33.63 35.35-6.09 5.93-11.39 12.69-18.07 17.99-2.34 1.7-5.22 3.56-8.24 2.79-2.73-1.14-4.23-3.93-5.52-6.42-3.95-8.43-4.97-17.86-5.43-27.05-.26-11.36 1.32-23.03 6.21-33.38 2.98-5.13 7.68-8.93 11.76-13.14 8.84-8.3 17.84-16.57 28.2-22.96 3.42-2 6.95-4 10.85-4.9Z"/>
  <path fill="#ff002c" stroke="#ff002c" stroke-width=".094" d="M1267.38 946.55c5.08-.97 9.89 1.56 14.21 3.93 10.31 5.94 19.19 13.98 27.89 22.01 4.8 4.85 10.3 9.25 13.87 15.15 5.15 10.95 6.66 23.34 6.13 35.33-.67 9.26-1.8 18.86-6.42 27.08-1.48 2.67-4.26 5.64-7.63 4.37-5.49-1.87-9.31-6.55-13.35-10.46-12.5-13.84-26.73-26.02-38.95-40.12-5.56-6.59-11.57-13.9-12.05-22.9.21-7.39 3.13-14.34 5.72-21.16 2.3-5.09 4.67-11.49 10.58-13.23Z"/>
  <path fill="#ff002c" stroke="#ff002c" stroke-width=".094" d="M902.39 989.52c3.81-.92 7.75-.02 10.86 2.35a315.492 315.492 0 0 1 42.24 31.67c7.82 7.2 15.7 14.82 20.35 24.54 3.58 7.21 3.95 15.96.85 23.4-5.16 13.1-15.7 23.33-27.28 30.93-14.39 9.42-32.34 12.56-49.22 9.9-13.84-2.09-27.01-7.17-39.75-12.82-12.39-5.58-25.05-12.52-32.79-24.08-5.43-7.8-5.86-18.39-2.01-26.94 5.07-12.25 15-21.59 25.27-29.58 9.97-7.56 20.36-14.61 31.31-20.69 6.43-3.49 12.96-7.11 20.17-8.68Z"/>
  <path fill="#ff002c" stroke="#ff002c" stroke-width=".094" d="M1091.39 989.5c6.02-1.14 11.84 1.56 17.22 3.94 14.18 6.85 27.36 15.59 39.94 25.03 8.41 6.5 16.51 13.77 22.16 22.88 3.53 5.92 6.56 12.58 6.1 19.64.29 9.08-5.4 17.04-11.79 22.93-11.16 10.01-25.28 15.76-39.05 21.19-17.85 6.93-37.83 10.95-56.66 5.64-15.82-4.32-29.72-14.58-39.55-27.58-4.96-7.04-9.2-15.35-8.47-24.2.49-9.65 6.43-17.94 12.59-24.95 12.68-13.55 27.49-24.9 42.66-35.49 4.88-3.11 9.51-6.77 14.85-9.03Z"/>
  <path fill="#ff002c" stroke="#ff002c" stroke-width=".094" d="M1244.52 1011.67c6.85-1.32 13.46 2.14 18.84 6.04 13.41 10.36 25.48 22.47 36.48 35.31 2.66 6.26 1.96 13.51.27 19.96-2.76 9.88-9.6 19.63-19.92 22.44-7.71 2.34-15.78.06-23.1-2.53-8.23-3.11-16.48-6.19-24.75-9.19-10.21-3.92-20.86-7.54-29.43-14.58-3.23-2.77-6.45-6.67-5.87-11.19.92-6.24 4.72-11.54 8.52-16.38 6.11-7.49 12.99-14.38 20.6-20.36 5.48-4.19 11.53-8.02 18.36-9.52Z"/>
  <path fill="#ff002c" stroke="#ff002c" stroke-width=".094" d="M747.25 1012.17c4.94-1.72 10.25-.42 14.84 1.72 8.94 4.14 16.39 10.8 23.35 17.65 5.76 6 11.58 12.18 15.38 19.66 1.67 3.59 3.26 7.96 1.27 11.76-2.48 5.03-7.4 8.21-12.06 11.02-10.29 5.78-21.63 9.3-32.61 13.48-8.76 3.01-17.2 7.22-26.43 8.61-8.14 1.41-16.91-1.46-22.49-7.56-7.99-8.56-11.63-21.1-9.39-32.58.53-3.47 3.43-5.74 5.62-8.21 6.98-7.68 14.34-15.01 22.07-21.93 6.16-5.36 12.47-11.17 20.45-13.62Z"/>
  <path fill="#ff002c" stroke="#ff002c" stroke-width=".094" d="M622.32 1030.89c3.57 5.32 7.7 10.29 12.61 14.43-3.01 10.96-6.08 21.9-8.69 32.96-3.01-12.19-5.04-24.71-4.53-37.3.22-3.37.52-6.73.61-10.09Z"/>
  <path fill="#ff002c" stroke="#ff002c" stroke-width=".094" d="M1365.08 1045.31c4.9-4.14 9.03-9.1 12.6-14.41 1.05 11.87.9 23.89-1.35 35.63-.78 3.93-1.84 7.81-2.57 11.76-2.6-11.07-5.7-22.02-8.68-32.98Z"/>
  <path fill="#ff002c" stroke="#ff002c" stroke-width=".094" d="M670.34 1080.41c3.74-2.2 6.61 2 8.75 4.47 9.91 13.38 21.31 26.28 26.81 42.27 3.75 10.34.62 21.76-4.85 30.87-7.87 13.14-17.81 24.85-27.07 37.01-4.82 5.8-8.76 12.6-15.29 16.71-4.23 3.12-10.16 5.49-15.11 2.57-6.35-3.85-10.13-10.7-12.72-17.44-6.2-17.32-5.82-36.61-.28-54.05 5.23-17.67 14.97-33.61 25.78-48.38 4.05-5.2 8.24-10.62 13.98-14.03Z"/>
  <path fill="#ff002c" stroke="#ff002c" stroke-width=".094" d="M1325.4 1080.38c1.96-1.42 4.38-.08 6.08 1.14 5.7 4.33 10.12 10.07 14.28 15.83 10.21 14.36 19.29 29.83 24.09 46.9 5.15 17.06 5.3 35.81-.73 52.67-2.7 6.94-6.64 14.11-13.42 17.76-5.16 2.48-10.81-.26-15.01-3.37-5.45-3.53-8.94-9.11-12.93-14.06-7.41-9.57-14.97-19.01-22.04-28.83-5.57-8.03-11.33-16.47-12.81-26.35-1.28-5.79-.06-11.76 1.98-17.2 5.58-14.31 15.68-26.13 24.72-38.32 1.73-2.23 3.47-4.53 5.79-6.17Z"/>
  <path fill="#ededed" stroke="#ededed" stroke-width=".094" d="M777.9 1094.28c42.23 17.46 84.63 34.5 126.94 51.77-10.46 11.28-24.61 19.19-39.84 21.65-20.83 3.77-42.9-3.18-58.75-16.98-14.18-12.14-23.58-29.5-26.63-47.87-.46-2.87-.24-5.97-1.72-8.57Z"/>
  <path fill="#ededed" stroke="#ededed" stroke-width=".094" d="M1095.17 1146.06c42.29-17.29 84.71-34.32 126.92-51.78-1.48 2.6-1.26 5.69-1.71 8.56-3.01 18.13-12.2 35.29-26.08 47.4-13.44 11.92-31.36 18.83-49.35 18.47-18.78-.39-37.1-8.85-49.78-22.65Z"/>
  <path fill="#ff002c" stroke="#ff002c" stroke-width=".094" d="M976.95 1111.02c5.37-7.2 14.08-11.71 23.04-12.04 8.21.34 16.39 4.08 21.69 10.43 3.68 4.16 6.88 8.8 8.97 13.98 8.84 21.38 16.65 43.37 28.63 63.27 12.03 19.13 28.36 36.5 49.41 45.6 4.31 1.68 8.66 3.77 13.35 4.06 3.5 0 5.04-4.57 2.71-6.93-2.53-2.86-4.95-5.86-6.09-9.56 2.88-2.63 6.92-2.9 10.6-2.12 8.66 1.72 17.35 5.05 23.88 11.17 3.02 2.61 1.24 6.88-.51 9.7-3.51 5.23-9.1 8.54-14.33 11.81-4.71 2.88-10.87 3.97-15.85 1.12-6.1-3.44-11.69-7.73-17.78-11.2-6.12-3.57-11.62-8.62-18.64-10.32-3.35-1.03-7.38 1.42-7.53 5.03-.19 3.76 1.68 7.26 2.03 10.98.78 5.16-.12 10.51-2.69 15.06-2.88-8.65-5.68-17.97-12.52-24.4-2.43-2.38-7.05-1.19-7.65 2.28-.04 4.7 1.18 9.52-.21 14.16-1.66 6.82-7.33 11.71-13.15 15.1-10.78 5.82-23.43 5.43-35.31 5.55-13.38-.44-26.87.84-40.16-1.19-8.98-1.37-17.71-5.69-23.29-12.99-3.25-4.46-4.2-10.21-3.5-15.59.04-2.4 1.05-5.22-.83-7.17-1.84-2.15-5.33-1.64-7.1.33-6.41 6.51-9.18 15.48-11.97 23.95-3.51-6.1-3.62-13.55-1.59-20.15.91-3.1 1.93-7.21-.9-9.64-3.35-2.97-8.01-.87-11.41.87-6.34 3.59-12.22 7.94-18.52 11.6-5.21 2.98-9.76 7.34-15.62 9.04-5.81 1.55-11.45-1.56-16.1-4.72-5.26-3.53-11.12-7.63-12.63-14.18-.96-2.65 1.12-5 3.06-6.49 6.8-5.39 15.19-8.57 23.7-9.92 3.04-.28 7.05-.43 8.89 2.55-.52 4.29-4.32 6.94-6.47 10.39-1.38 2.53.51 5.88 3.45 5.89 3.63-.16 7.03-1.68 10.41-2.88 17.4-6.69 31.87-19.33 43.25-33.86 15.1-19.01 23.73-41.99 32.84-64.22 3.42-8.44 6.25-17.42 12.44-24.35Z"/>
  <path fill="#ff002c" stroke="#ff002c" stroke-width=".094" d="M590.16 1116.65c6.81 7.55 15.22 13.99 24.85 17.46-1.87 14.69-4.14 29.34-5.59 44.08-7.09-5.59-10.28-14.28-13.26-22.48-4.4-12.52-5.83-25.86-6-39.06Z"/>
  <path fill="#ff002c" stroke="#ff002c" stroke-width=".094" d="M1384.99 1134.11c9.63-3.46 18.03-9.92 24.85-17.47-.17 13.22-1.61 26.58-6.02 39.11-2.98 8.19-6.16 16.87-13.24 22.44-1.46-14.74-3.72-29.39-5.59-44.08Z"/>
  <path fill="#ff002c" stroke="#ff002c" stroke-width=".094" d="M708.3 1170.31c8.47-17.36 20-33.07 32.66-47.6-1.79 18.82 1.81 38.35 11.73 54.58 8.66 14.5 22.17 25.88 37.67 32.48 6.9 3.13 14.23 5.09 21.48 7.25-16.04 3.2-33.12 5.35-46.85 15-7.63 5.26-13.88 12.33-18.82 20.13-2.76 4.15-5.26 8.64-9.15 11.86-4.44 3.79-11.7 2.74-15.51-1.45-5.92-6.13-9.72-13.86-13.67-21.3-4.98-9.37-8.61-19.62-9.13-30.28-.63-14.13 3.41-28.08 9.59-40.67Z"/>
  <path fill="#ff002c" stroke="#ff002c" stroke-width=".094" d="M1259.04 1122.72c12.83 14.71 24.5 30.64 32.99 48.28 6.85 14.2 11.07 30.3 8.6 46.11-1.32 9-4.91 17.5-9.16 25.48-3.73 6.98-7.38 14.18-12.93 19.93-3.82 4.23-11.13 5.29-15.59 1.47-4.06-3.39-6.62-8.13-9.52-12.46-6.03-9.4-14.11-17.65-24-22.95-12.7-6.79-27.15-8.8-41.09-11.48 7.12-2.4 14.47-4.17 21.33-7.35 18.03-7.62 33.22-21.86 41.5-39.65 7.08-14.65 9.33-31.27 7.87-47.38Z"/>
  <path stroke="#000" stroke-width=".094" d="M993.22 1149.16c5.57-3.07 12.55-1.62 17.26 2.36 6.8 5.69 11.45 13.41 16.03 20.88 7.11 12.32 14.28 24.79 18.64 38.4 2.58 8.59 4.46 17.84 2.19 26.72-1.64 7.35-6.42 14.18-13.34 17.41-6.5 3.07-14.56 2.69-20.59-1.27-6.75-4.19-10.79-11.42-13.41-18.69-2.62 7.25-6.64 14.46-13.35 18.65-6.45 4.27-15.21 4.41-21.92.66-6.46-3.55-10.77-10.26-12.22-17.4-2.07-8.96-.08-18.23 2.58-26.83 4.92-14.67 12.76-28.13 20.66-41.36 4.78-7.27 9.59-15.27 17.47-19.53Z"/>
  <path fill="#ff002c" stroke="#ff002c" stroke-width=".094" d="M661.29 1231.19c6.22-1.9 12.35 1.85 17.42 5.09 12.35 8.77 22.5 20.17 32.72 31.24 4.62 5.8 11.13 10.77 12.57 18.46 2.47 11.75 1.15 24.56-4.87 35.08-6.12 10.82-15.39 19.31-23.99 28.11-7 6.98-14.28 13.67-21.45 20.49-3.84 3.39-8.28 7.14-13.73 6.91-5.97-.57-11-4.24-15.49-7.93-8.56-7.39-15.98-16.44-20.08-27.08-3.27-8.1-3.12-17.03-2.95-25.61 1.67-17.9 8.03-34.96 15.4-51.22 3.93-8.42 8.1-16.79 13.61-24.3 2.97-3.7 6.3-7.51 10.84-9.24Z"/>
  <path fill="#ff002c" stroke="#ff002c" stroke-width=".094" d="M1331.34 1231.27c3.81-1.41 8.14-.49 11.26 2.06 7.51 5.84 11.94 14.51 16.36 22.72 8 16.02 14.95 32.78 18.3 50.45 1.85 9.06 1.75 18.44.48 27.57-2.32 11.9-9.46 22.32-18 30.69-4.85 4.65-10.16 9.31-16.72 11.27-3.53 1.17-7.39.35-10.47-1.57-5.07-3.12-9.06-7.6-13.4-11.58-8.12-7.57-16.07-15.3-23.74-23.31-5.73-6.07-11.41-12.35-15.24-19.82-5.46-10.24-6.48-22.43-4.18-33.69.69-3.5 2.3-6.78 4.67-9.44 9.94-11.66 20.3-22.99 31.67-33.28 5.67-4.91 11.71-9.84 19.01-12.07Z"/>
  <path fill="#ff002c" stroke="#ff002c" stroke-width=".094" d="M583.21 1232.52c6.74 5.94 13.52 12.17 21.98 15.57.03 19.28-.32 38.6 1.18 57.84-8.22-12.62-15.44-26.12-18.91-40.88-2.48-10.66-4.36-21.57-4.25-32.53Z"/>
  <path fill="#ff002c" stroke="#ff002c" stroke-width=".094" d="M1397.6 1246.72c7.33-3.31 13.15-9.02 19.19-14.2-.24 17.86-3.75 35.87-11.14 52.19-3.34 7.43-7.74 14.3-12.01 21.22 1.44-18.68 1.15-37.43 1.16-56.15-.5-1.85 1.66-2.34 2.8-3.06Z"/>
  <path fill="#ff002c" stroke="#ff002c" stroke-width=".094" d="M806.06 1237.74c7.73-2.1 15.84.05 22.97 3.18 18.33 7.99 33.48 21.29 49.55 32.85-39.06-.02-78.12-.11-117.17.05 7.16-7.65 14.54-15.1 22.39-22.06 6.57-5.81 13.58-11.77 22.26-14.02Z"/>
  <path fill="#ff002c" stroke="#ff002c" stroke-width=".094" d="M1167.55 1242.49c7.19-3.45 15.12-6.41 23.24-5.37 8.07 1.07 14.98 5.84 21.11 10.91 9.45 7.99 18.24 16.74 26.68 25.79-39.05-.16-78.1-.07-117.15-.05 15.07-10.84 29.27-23.18 46.12-31.28Z"/>
  <path fill="#959898" stroke="#959898" stroke-width=".094" d="M753.47 1285.65c21.44-1.8 43.01-.71 64.52-1.01 137.35.02 274.7-.01 412.05.02 7.64 1.03 16.04-.78 22.93 3.49 6.67 3.81 9.78 11.58 10.31 18.93-.16 85.3.11 170.63-.14 255.93.16 9.99.09 20.01-.61 29.99-.54 7.23-2.9 15.02-8.97 19.52-5.57 4.22-12.71 5.64-19.56 5.75-24.32.91-48.67 0-73 .14-112.31-.01-224.63.01-336.94-.01-20.37.22-40.76.63-61.12-.28-8.3-.52-17.32-3.85-21.62-11.41-4.89-8.71-4.08-19.08-4.44-28.7-.28-90.31 0-180.67-.16-270.99.51-5.3 1.99-10.76 5.55-14.86 2.83-3.39 6.91-5.58 11.2-6.51Z"/>
  <path stroke="#000" stroke-width=".094" d="M755.36 1292.64c9.08-2.91 19.12 4.99 19.03 14.34.52 8.27-7.12 15.88-15.39 15.34-8.31.03-15.5-8.01-14.41-16.29.29-6.13 5.02-11.59 10.77-13.39Z"/>
  <path stroke="#000" stroke-width=".094" d="M1236.39 1292.65c9.08-2.94 19.27 4.89 19.06 14.33.62 8.34-7.17 15.94-15.46 15.34-7.92-.05-14.87-7.45-14.38-15.36-.05-6.47 4.8-12.29 10.78-14.31Z"/>
  <path fill="#ff002c" stroke="#ff002c" stroke-width=".094" d="M757.19 1302.35c2.63-1.07 6.56-.08 7.43 2.91.28 1.79.49 3.98-.77 5.49-2.02 2.72-6.68 2.78-8.75.1-2.35-2.57-1.32-7.44 2.09-8.5Z"/>
  <path fill="#ff002c" stroke="#ff002c" stroke-width=".094" d="M1238.26 1302.37c2.9-1.26 7.07.14 7.68 3.52 1.39 3.97-2.92 8.02-6.85 6.77-4.79-.83-5.52-8.84-.83-10.29Z"/>
  <path stroke="#000" stroke-width=".094" d="M811.44 1321.58c8.12-2.2 16.63-.81 24.59 1.37 15.53 4.61 28.49 16.98 33.72 32.33 6.38 17.94 1.79 39.29-11.76 52.76-12.34 12.97-31.72 18.35-49.04 14.02-18.77-4.35-34.17-20.27-37.97-39.16-4.03-17.16 2.12-36.08 14.92-48.07 7.02-6.77 16.06-11.19 25.54-13.25Z"/>
  <path stroke="#000" stroke-width=".094" d="M1169.43 1321.65c15.16-3.58 31.52 1.83 43.15 11.8 13.82 11.92 20.65 31.65 16.43 49.5-3.76 18.53-18.66 34.22-36.99 38.87-17.58 4.77-37.5-.57-50.06-13.84-13.7-13.65-18.2-35.36-11.46-53.42 5.99-16.81 21.35-29.82 38.93-32.91Z"/>
  <path fill="#ff002c" stroke="#ff002c" stroke-width=".094" d="M811.38 1331.58c8.15-1.66 16.84-1.74 24.65 1.44 15.87 5.76 27.4 22.06 26.86 39.04.67 18.3-12.72 35.68-30.3 40.36-11.39 2.96-24.09 1.47-34.01-5.07-14.99-9.31-22.71-28.89-17.8-45.88 3.66-14.59 15.89-26.65 30.6-29.89Z"/>
  <path fill="#ff002c" stroke="#ff002c" stroke-width=".094" d="M1168.42 1331.6c14.71-3.58 31.38 1.03 41.46 12.53 7.52 8.31 11.47 19.75 10.71 30.92-.87 10.8-5.85 21.3-14.04 28.45-12.15 10.96-30.89 13.48-45.61 6.51-10.52-4.92-18.77-14.43-22.13-25.54-4.29-14.13-.78-30.44 9.58-41.1 5.37-5.73 12.43-9.81 20.03-11.77Z"/>
  <path stroke="#000" stroke-width=".094" d="M909.36 1338.54c3.49-.76 7.09-.37 10.64-.44 55.69.01 111.37-.02 167.05.02 2.08.05 4.47.19 5.99 1.85 1.83 1.81 1.53 4.59 1.64 6.96-.08 16.98.05 33.97-.05 50.95.24 4.02-3.88 6.41-7.46 6.37-57.73.09-115.46.01-173.19.05-3.88.29-8.86-1.88-8.61-6.42-.06-17.64-.04-35.29-.01-52.93-.18-2.71 1.16-5.73 4-6.41Z"/>
  <path fill="#ff002c" stroke="#ff002c" stroke-width=".094" d="M589.17 1370.15c7.93 9.31 16.65 18.02 26.59 25.16 1.63 4.29 1.67 9.08 2.75 13.56 2.72 14.81 5.95 29.53 9.52 44.17-11.21-11.68-20.59-25.17-27.06-40.04-6.08-13.6-9.11-28.28-11.8-42.85Z"/>
  <path fill="#ff002c" stroke="#ff002c" stroke-width=".094" d="M1384.24 1395.32c9.93-7.15 18.66-15.86 26.59-25.17-2.85 15.54-6.17 31.19-13.01 45.54-6.39 13.82-15.32 26.37-25.85 37.35 3.14-12.92 6.05-25.89 8.54-38.95 1.48-6.2 1.79-12.73 3.73-18.77Z"/>
  <path fill="#ff002c" stroke="#ff002c" stroke-width=".094" d="M668.43 1394.42c2.43-2.29 5.56-.2 7.65 1.48 7.41 6.24 14.05 13.33 20.74 20.32 9.91 10.12 19.21 21.36 24.22 34.77 2.66 7.35 4.88 15.06 4.78 22.96-.22 11.58.94 23.41-2.44 34.68-2.16 7.94-5.17 15.85-10.11 22.51-3.06 4.19-7.96 7.42-13.33 6.9-7.97-.69-15.08-4.96-21.3-9.71-9.15-7.04-16.57-16.43-20.82-27.19-3.07-7.8-4.97-16.01-6.23-24.27-3.26-20.05.23-40.5 5.58-59.87 2.56-7.97 5.03-16.65 11.26-22.58Z"/>
  <path fill="#ff002c" stroke="#ff002c" stroke-width=".094" d="M1326.36 1394.24c2.55-2.02 5.65-.07 7.23 2.19 4.95 6.58 7.55 14.57 9.77 22.41 4.97 18.82 8.24 38.62 5.05 58.03-2.29 15.38-6.98 31.13-17.74 42.82-6.68 7.2-14.64 13.64-24 16.94-4.72 1.68-10.33 2.27-14.73-.58-5.34-3.52-8.42-9.39-11-15.03-4.4-10.08-7.03-21.05-6.75-32.08.13-6.56-.22-13.13.17-19.67 1.78-15.06 8.38-29.3 17.97-40.97 6.57-8.04 13.97-15.34 21.21-22.76 4.13-3.91 7.98-8.24 12.82-11.3Z"/>
  <path stroke="#000" stroke-width=".094" d="M989.52 1442.74c19.63-2.31 40.11 2.89 56.07 14.61 14.09 10.19 24.55 25.25 29.24 41.99 4.62 16.8 3.67 35.22-3.16 51.3-6.84 16.47-19.54 30.39-35.28 38.75-14.78 8.05-32.18 10.65-48.76 8.25-15.79-2.45-30.78-9.86-42.22-21.02-11.81-11.33-19.92-26.48-22.66-42.62-3.29-18.69.4-38.57 10.52-54.67 12.13-19.67 33.32-33.53 56.25-36.59Z"/>
  <path fill="#ff002c" stroke="#ff002c" stroke-width=".094" d="M997.2 1452.15c15.68-.91 31.45 4.15 43.92 13.65 14.87 11.16 24.81 28.68 26.68 47.19 2.17 18.05-3.5 36.81-15.01 50.85-9.86 12.19-24.07 20.69-39.41 23.83-17.28 3.35-35.87.26-50.68-9.4-15.85-9.97-27.08-26.79-30.49-45.17-2.8-15.94-.26-32.89 8-46.91 8.58-14.96 23.02-26.71 39.77-31.19 5.57-1.75 11.39-2.55 17.22-2.85Z"/>
  <path fill="#ff002c" stroke="#ff002c" stroke-width=".094" d="M627.41 1534.02c9.36 6.24 20.61 10.09 31.95 9.2 5.41 11.49 11.39 22.73 18.01 33.58-14.29-2.54-27.48-10.22-36.86-21.27-5.55-6.38-9.71-13.81-13.1-21.51Z"/>
  <path fill="#ff002c" stroke="#ff002c" stroke-width=".094" d="M1340.64 1543.22c11.35.89 22.61-2.96 31.97-9.22-5.52 12.93-13.98 24.89-25.72 32.86-7.23 5.06-15.6 8.25-24.23 9.94a369.269 369.269 0 0 0 17.98-33.58Z"/>
  <path fill="#ff002c" stroke="#ff002c" stroke-width=".094" d="M704.24 1557.25c1.63-3.5 3.46-8.07 7.76-8.78 5.45.69 9.61 4.66 13.76 7.91.07 11.88.03 23.75.02 35.63-.15 8.85 3.24 17.62 8.91 24.36 5.82 6.85 14.4 10.93 23.21 12.23 6.78 1.22 13.72.32 20.53 1.12 2.67 1.9 4.74 4.55 6.55 7.28 2.03 3.12 3.45 7.59.81 10.82-4.15 5.23-10.35 8.2-15.97 11.55-20.91-15.53-40-33.59-56.4-53.85-3.88-5.16-8.27-10.03-11.39-15.69-3.76-10.57-1.73-22.36 2.21-32.58Z"/>
  <path fill="#ff002c" stroke="#ff002c" stroke-width=".094" d="M1274.24 1556.37c4.16-3.24 8.3-7.21 13.75-7.9 3.54.45 5.37 3.92 6.85 6.76 3.32 7.1 4.99 14.95 5.12 22.77-.2 5.14-.59 10.73-3.84 14.99-18.28 25.44-40.83 47.7-65.94 66.38-5.63-3.35-11.84-6.32-15.98-11.56-3.25-4.19-.35-9.62 2.47-13.16 1.99-2.13 3.8-5.55 7.2-5.18 8.63-.24 17.52.27 25.79-2.71 15.38-4.75 25.6-20.85 24.56-36.73-.02-11.22-.06-22.44.02-33.66Z"/>
  <path stroke="#000" stroke-width=".094" d="M754.4 1579.48c7.54-3.41 16.9 1.12 19.62 8.74 4.07 8.79-3.4 20.17-13.04 20.17-7.7.79-15.3-5.58-15.66-13.33-.83-6.5 3.22-12.94 9.08-15.58Z"/>
  <path stroke="#000" stroke-width=".094" d="M1234.37 1579.48c9.13-4.31 20.47 3.66 20.36 13.52.73 8.14-6.59 15.78-14.74 15.41-8.62.53-15.95-7.94-15.09-16.31.76-5.49 4.37-10.4 9.47-12.62Z"/>
  <path fill="#ff002c" stroke="#ff002c" stroke-width=".094" d="M756.39 1589.48c2.83-1.9 7.77-1.49 8.95 2.19 1.63 3.84-2.4 8.25-6.4 7.11-4.27-.49-5.99-6.71-2.55-9.3Z"/>
  <path fill="#ff002c" stroke="#ff002c" stroke-width=".094" d="M1236.34 1589.34c2.84-1.86 7.99-1.11 8.9 2.66 1.25 3.7-2.45 7.71-6.27 6.83-4.52-.35-6.33-6.85-2.63-9.49Z"/>
  <path fill="#ff002c" stroke="#ff002c" stroke-width=".094" d="M821.34 1630.53c1.77-.85 3.75-.87 5.68-.85 22.65.11 45.32-.06 67.97.08 2.23-.17 3.7 1.72 5.29 2.97 6.1 5.18 12.18 10.62 16.5 17.45 1.74 2.94 3.08 6.66 1.55 10-2.26 5.15-6.92 8.68-11.25 12.04-9.91 7.31-21.04 12.75-32.37 17.48-5.42 2.17-11.31 4.11-17.21 3.04-6.36-1.15-12.09-4.39-17.51-7.76-10.02-6.35-18.7-14.57-26.59-23.37-3.21-3.68-6.23-7.77-7.43-12.57-1.22-4.38.88-8.99 3.89-12.12 3.27-2.98 7.47-4.65 11.48-6.39Z"/>
  <path fill="#ff002c" stroke="#ff002c" stroke-width=".094" d="M959.37 1630.31c1.7-.93 3.78-.51 5.66-.63 24.97.24 49.99-.33 74.93.28 5.45 3.41 10.36 7.68 15.26 11.85 5.28 5.01 11.18 10.61 12.14 18.22.12 6.09-4.23 11.02-8.14 15.23-10.53 10.96-24.39 17.86-38.11 23.97-6.79 2.7-13.76 5.48-21.11 5.95-7.37-.47-14.34-3.25-21.12-5.96-15-6.67-30.28-14.38-41-27.19-3.15-3.88-6.33-8.84-4.9-14.05 1.98-7.13 7.66-12.34 12.93-17.18 4.36-3.65 8.74-7.31 13.46-10.49Z"/>
  <path fill="#ff002c" stroke="#ff002c" stroke-width=".094" d="M1102.5 1630.47c1.26-1 2.99-.68 4.5-.79 22.33.05 44.67.04 67 .01 4.36-.08 8.15 2.45 11.95 4.28 4.62 2.22 8.05 6.86 8.45 12.02-.16 5.79-3.69 10.78-7.3 15.04-9.76 11.02-20.86 21.15-34.02 27.93-5.54 2.85-11.88 4.99-18.16 3.71-7.03-1.34-13.47-4.61-19.92-7.55-9.66-4.56-19.04-9.96-27.12-16.99-3.2-2.97-6.65-6.53-6.9-11.13.21-4.9 3.48-8.92 6.49-12.51 4.43-5.26 9.73-9.69 15.03-14.02Z"/>
  <path fill="#ff002c" stroke="#ff002c" stroke-width=".094" d="M701.32 1646.17c9.21.31 19.66 2 27.48-4.15 15.92 15.42 33.43 29.18 52.06 41.19-27.83-9.21-54.64-21.54-79.54-37.04Z"/>
  <path fill="#ff002c" stroke="#ff002c" stroke-width=".094" d="M1271.2 1642.02c7.82 6.15 18.26 4.46 27.48 4.15-24.9 15.49-51.7 27.82-79.53 37.03 18.63-12.01 36.13-25.76 52.05-41.18Z"/>
  <path fill="#ff002c" stroke="#ff002c" stroke-width=".094" d="M878.35 1712.05c11-1.79 21.18-7.12 29.3-14.7 3.36 7.86 7.62 16.72 16.32 19.69 9.67 3.33 19.96-2.61 25.4-10.52 5.13 7.88 10.85 15.56 18.3 21.42-30.21-2.23-60.19-7.59-89.32-15.89Z"/>
  <path fill="#ff002c" stroke="#ff002c" stroke-width=".094" d="M1083.39 1712.36c4.28-4.12 6.5-9.75 8.99-15.01 8.09 7.61 18.28 12.9 29.28 14.7-29.14 8.3-59.12 13.66-89.33 15.89 7.44-5.86 13.17-13.54 18.29-21.42 4.26 5.99 10.8 10.77 18.29 11.42 5.37.53 10.73-1.81 14.48-5.58Z"/>
</svg>
