<svg
  width="100%"
  height="100%"
  viewBox="0 0 2000 2000"
  version="1.1"
  xmlns="http://www.w3.org/2000/svg"
>
  <path
    fill="#ff002c"
    stroke="#ff002c"
    stroke-width="0.09375"
    opacity="1.00"
    d=" M 0.00 0.00 L 2000.00 0.00 L 2000.00 2000.00 L 0.00 2000.00 L 0.00 0.00 Z"
  />
  <path
    fill="#000000"
    stroke="#000000"
    stroke-width="0.09375"
    opacity="1.00"
    d=" M 741.03 247.10 C 742.40 243.17 747.28 241.58 751.03 242.86 C 784.93 251.66 816.93 267.28 845.42 287.58 C 877.20 310.30 904.79 338.51 928.64 369.36 C 931.25 372.68 934.56 376.17 939.00 376.62 C 942.65 377.00 945.51 374.23 947.67 371.66 C 953.42 364.43 956.32 355.54 960.39 347.37 C 970.02 327.62 980.46 308.14 993.53 290.43 C 995.03 288.22 997.65 287.40 1000.00 286.44 C 1006.25 287.83 1008.83 294.05 1012.29 298.71 C 1025.61 318.54 1036.44 339.95 1046.21 361.71 C 1049.01 366.96 1051.86 372.78 1057.19 375.90 C 1062.27 378.32 1067.42 374.30 1070.46 370.46 C 1094.58 339.24 1122.38 310.58 1154.55 287.60 C 1182.33 267.80 1213.46 252.45 1246.43 243.53 C 1249.16 242.80 1252.15 241.76 1254.90 243.06 C 1259.25 244.49 1260.94 250.46 1258.04 254.01 C 1254.63 258.27 1250.40 261.79 1246.80 265.88 C 1225.93 288.76 1206.62 313.29 1191.41 340.33 C 1179.96 360.39 1170.79 381.84 1165.25 404.29 C 1165.08 405.77 1164.09 407.43 1164.95 408.85 C 1168.15 410.15 1171.59 408.93 1174.70 407.93 C 1185.86 403.96 1195.22 396.51 1204.93 389.97 C 1207.86 388.00 1212.25 385.86 1215.32 388.74 C 1218.31 392.80 1215.03 398.70 1218.49 402.60 C 1220.98 404.24 1224.75 404.10 1227.13 402.23 C 1256.94 379.83 1287.47 358.21 1320.14 340.15 C 1351.15 322.99 1383.80 308.46 1418.04 299.08 C 1435.01 294.45 1452.16 290.37 1469.56 287.72 C 1473.21 287.27 1477.19 286.67 1480.63 288.39 C 1484.36 290.18 1485.86 295.27 1483.85 298.86 C 1482.23 301.93 1478.90 303.42 1476.05 305.10 C 1447.33 321.27 1421.80 342.39 1397.27 364.24 C 1365.75 392.88 1337.40 424.97 1312.56 459.55 C 1308.85 464.96 1304.47 470.37 1303.51 477.06 C 1303.04 480.82 1303.63 485.70 1307.47 487.51 C 1314.50 490.77 1322.41 490.58 1329.98 490.98 C 1340.69 491.13 1351.41 490.82 1362.12 491.12 C 1365.37 491.42 1369.28 491.56 1371.47 494.38 C 1373.37 496.78 1372.27 500.23 1370.10 502.04 C 1365.34 506.29 1359.35 509.28 1355.70 514.68 C 1353.76 517.61 1352.11 521.52 1353.95 524.90 C 1355.34 527.47 1358.42 528.41 1361.06 529.15 C 1367.75 530.59 1374.47 528.42 1381.02 527.17 C 1429.61 517.30 1479.52 512.81 1529.04 516.59 C 1543.32 517.96 1557.55 519.90 1571.65 522.54 C 1577.15 523.80 1582.78 524.81 1588.02 526.99 C 1592.63 528.85 1594.19 535.23 1591.18 539.13 C 1587.99 543.10 1582.38 543.30 1577.87 544.85 C 1506.19 563.44 1434.25 582.91 1366.64 613.64 C 1352.53 620.13 1338.74 627.28 1325.26 634.98 C 1342.80 636.80 1360.17 640.58 1376.95 646.00 C 1381.02 647.37 1386.08 648.75 1387.58 653.35 C 1389.73 658.02 1385.49 663.15 1380.76 663.65 C 1361.00 666.97 1342.18 674.70 1324.79 684.53 C 1365.89 685.84 1407.31 692.48 1445.32 708.69 C 1448.90 710.47 1453.43 711.90 1455.04 715.96 C 1456.83 719.64 1454.94 724.71 1451.01 726.07 C 1446.57 727.85 1441.67 727.23 1437.02 727.73 C 1412.78 729.96 1388.82 734.48 1365.08 739.74 C 1333.85 746.67 1303.22 756.58 1274.40 770.53 C 1264.15 775.54 1253.78 780.62 1244.83 787.79 C 1241.08 790.98 1237.18 794.57 1235.65 799.40 C 1235.11 801.94 1235.04 805.27 1237.03 807.20 C 1243.26 809.42 1250.13 806.98 1255.18 803.14 C 1261.68 798.75 1265.99 791.97 1272.16 787.20 C 1276.41 783.74 1283.04 783.17 1287.46 786.63 C 1293.63 791.13 1297.07 798.28 1299.72 805.23 C 1306.72 824.75 1306.79 845.73 1309.17 866.10 C 1310.84 882.13 1318.89 896.81 1328.98 909.08 C 1332.87 904.67 1335.80 898.80 1341.64 896.66 C 1346.30 894.85 1351.42 896.87 1354.92 900.10 C 1362.97 907.20 1366.43 917.88 1368.55 928.08 C 1372.04 946.50 1371.67 965.37 1370.94 984.02 C 1370.95 989.47 1370.87 995.09 1372.65 1000.32 C 1373.32 1002.18 1374.59 1004.61 1376.95 1004.40 C 1381.49 1003.26 1385.88 999.15 1390.78 1001.29 C 1395.29 1003.29 1396.97 1008.50 1397.89 1012.98 C 1400.85 1027.20 1398.22 1041.66 1397.35 1055.95 C 1395.77 1071.39 1395.41 1087.07 1397.58 1102.46 C 1402.25 1098.52 1406.05 1093.70 1410.48 1089.52 C 1413.79 1086.20 1419.81 1085.23 1423.32 1088.76 C 1427.69 1093.31 1429.12 1099.78 1430.10 1105.82 C 1432.68 1125.83 1428.49 1146.08 1421.70 1164.87 C 1418.30 1174.54 1414.52 1184.11 1412.17 1194.10 C 1411.26 1199.02 1410.17 1204.34 1412.00 1209.18 C 1413.26 1210.25 1414.81 1208.57 1416.09 1208.16 C 1420.49 1205.64 1423.98 1201.74 1428.59 1199.56 C 1431.81 1198.06 1435.79 1199.44 1437.52 1202.53 C 1440.78 1208.06 1440.40 1214.76 1440.42 1220.96 C 1440.63 1233.61 1439.21 1246.27 1436.55 1258.63 C 1432.04 1277.30 1423.66 1294.75 1414.50 1311.53 C 1411.51 1317.34 1407.77 1323.19 1407.47 1329.91 C 1407.28 1335.00 1406.35 1340.03 1406.16 1345.13 C 1412.08 1342.66 1416.98 1338.21 1423.09 1336.17 C 1427.05 1334.73 1432.15 1335.77 1434.17 1339.77 C 1436.75 1345.12 1436.64 1351.34 1435.85 1357.10 C 1434.23 1370.63 1430.03 1383.67 1425.39 1396.43 C 1420.67 1409.73 1415.30 1422.89 1407.90 1434.95 C 1397.46 1451.66 1387.04 1468.41 1377.96 1485.91 C 1372.66 1496.29 1368.70 1507.26 1364.42 1518.08 C 1372.33 1516.05 1378.09 1509.99 1384.94 1505.95 C 1388.26 1503.82 1393.31 1503.68 1395.94 1507.00 C 1399.32 1511.33 1398.40 1517.29 1397.25 1522.28 C 1392.79 1539.82 1384.28 1556.59 1371.46 1569.50 C 1359.08 1582.53 1342.26 1589.68 1327.63 1599.68 C 1322.04 1603.62 1317.34 1608.68 1313.10 1614.01 C 1310.65 1617.22 1307.88 1620.57 1307.70 1624.82 C 1315.78 1627.45 1324.48 1626.11 1332.64 1628.32 C 1336.01 1629.16 1338.97 1632.29 1338.52 1635.96 C 1337.82 1641.62 1333.12 1645.57 1329.15 1649.17 C 1316.31 1659.69 1301.37 1667.19 1286.66 1674.70 C 1267.68 1683.81 1248.24 1691.90 1228.67 1699.64 C 1212.09 1706.11 1195.97 1713.69 1179.55 1720.55 C 1159.15 1729.26 1138.29 1736.98 1116.86 1742.74 C 1095.33 1748.49 1073.20 1751.53 1051.07 1753.86 C 1025.85 1756.73 1000.39 1758.35 975.05 1756.29 C 949.93 1754.21 924.78 1751.71 900.05 1746.71 C 860.34 1738.66 823.20 1721.94 786.30 1705.75 C 752.10 1691.70 717.13 1678.82 685.45 1659.49 C 678.20 1654.95 670.94 1650.13 665.25 1643.67 C 662.79 1640.83 660.56 1636.94 661.83 1633.10 C 662.93 1629.75 666.54 1628.24 669.75 1627.74 C 677.22 1626.39 685.00 1627.17 692.31 1624.81 C 692.02 1622.64 691.54 1620.48 690.24 1618.70 C 684.19 1609.62 676.39 1601.55 666.87 1596.11 C 654.51 1588.27 641.04 1581.82 630.51 1571.45 C 616.82 1558.49 607.71 1541.22 602.95 1523.09 C 601.74 1518.05 600.60 1512.19 603.63 1507.57 C 605.88 1504.01 610.99 1503.60 614.43 1505.62 C 621.60 1509.59 627.41 1516.01 635.58 1518.08 C 631.04 1506.57 626.80 1494.90 621.03 1483.93 C 612.24 1467.39 602.43 1451.42 592.48 1435.57 C 585.30 1423.98 579.97 1411.37 575.38 1398.57 C 570.59 1385.42 566.04 1372.05 564.29 1358.11 C 563.45 1352.04 563.07 1345.48 565.80 1339.83 C 567.63 1336.14 572.18 1334.80 575.98 1335.93 C 582.54 1337.68 587.62 1342.58 593.84 1345.15 C 593.43 1339.14 592.68 1333.16 592.24 1327.17 C 590.75 1320.09 586.64 1313.99 583.40 1307.64 C 572.78 1287.73 563.33 1266.58 560.93 1243.91 C 559.46 1233.38 559.34 1222.74 559.74 1212.14 C 560.22 1207.98 560.98 1203.29 564.34 1200.43 C 566.88 1198.19 570.82 1198.76 573.41 1200.63 C 578.17 1203.74 582.27 1207.90 587.68 1209.97 C 590.24 1203.56 588.43 1196.53 586.84 1190.11 C 581.57 1171.82 573.15 1154.40 570.52 1135.40 C 568.74 1122.44 567.96 1108.81 572.24 1096.24 C 573.82 1091.90 576.68 1086.58 581.98 1086.56 C 586.38 1086.19 589.79 1089.49 592.53 1092.48 C 595.62 1096.01 598.93 1099.33 602.42 1102.47 C 603.44 1097.01 603.72 1091.47 603.66 1085.94 C 604.84 1070.16 602.14 1054.46 601.31 1038.74 C 600.30 1029.12 600.35 1019.25 602.93 1009.88 C 604.05 1005.87 606.51 1001.46 611.01 1000.75 C 615.75 999.98 619.48 1004.18 624.01 1004.36 C 628.58 1001.88 628.39 995.60 628.96 991.06 C 629.20 976.03 627.81 960.95 629.20 945.93 C 630.23 932.40 632.11 918.25 639.49 906.55 C 643.33 900.89 649.42 894.71 656.94 896.24 C 663.60 897.77 666.87 904.33 671.02 909.08 C 681.11 896.81 689.16 882.12 690.83 866.09 C 692.94 848.02 693.22 829.60 698.14 811.96 C 700.81 802.82 704.36 793.15 712.03 787.00 C 716.46 783.19 723.42 783.58 727.85 787.20 C 734.34 792.28 738.90 799.52 745.97 803.93 C 750.79 807.33 757.21 809.23 762.96 807.21 C 766.64 802.81 763.91 796.29 760.29 792.66 C 751.33 783.05 739.17 777.36 727.62 771.51 C 699.06 757.51 668.71 747.39 637.71 740.39 C 612.78 734.76 587.59 729.92 562.10 727.67 C 556.71 727.08 550.13 728.24 545.99 723.96 C 542.35 719.61 545.01 712.92 549.97 710.98 C 564.27 703.88 579.70 699.42 595.02 695.13 C 621.22 688.51 648.24 685.45 675.21 684.53 C 660.39 676.09 644.50 669.38 627.91 665.36 C 622.95 663.93 616.48 664.60 613.13 659.96 C 609.81 655.31 613.60 649.02 618.58 647.61 C 636.67 641.10 655.65 637.05 674.75 634.99 C 645.79 618.26 615.05 604.83 583.71 593.26 C 530.24 573.14 474.91 558.64 419.71 544.20 C 415.57 542.88 410.08 542.34 408.11 537.84 C 405.80 533.75 408.24 528.08 412.65 526.69 C 418.25 524.61 424.13 523.44 429.97 522.22 C 452.08 518.28 474.48 515.53 496.97 515.35 C 540.41 514.51 583.85 519.56 626.30 528.70 C 631.94 529.84 638.21 530.42 643.42 527.44 C 646.60 525.94 647.61 521.78 646.30 518.69 C 643.98 511.87 637.48 507.97 632.04 503.85 C 629.58 502.04 626.69 499.31 627.75 495.92 C 628.99 492.08 633.52 491.48 636.97 491.18 C 648.33 490.73 659.70 491.21 671.06 490.94 C 678.52 490.53 686.40 490.68 693.20 487.14 C 696.48 485.04 696.88 480.61 696.50 477.09 C 695.63 470.88 691.73 465.75 688.27 460.74 C 651.04 408.49 605.56 362.07 553.72 324.23 C 543.79 316.98 533.40 310.39 522.68 304.39 C 518.52 302.44 514.05 298.46 515.48 293.35 C 516.57 288.20 522.53 286.62 527.10 287.35 C 544.33 289.49 561.25 293.63 578.03 298.01 C 614.13 307.50 648.52 322.69 681.07 340.83 C 711.83 357.92 740.67 378.18 768.83 399.20 C 771.40 400.91 773.70 403.80 777.07 403.66 C 778.76 403.64 780.99 403.68 781.98 401.99 C 784.68 398.02 781.81 392.62 784.68 388.75 C 787.48 386.06 791.63 387.74 794.41 389.56 C 805.72 396.97 816.51 406.19 830.01 409.21 C 831.75 409.54 836.03 409.91 835.31 407.04 C 828.14 375.02 813.00 345.32 794.89 318.15 C 779.53 295.61 762.02 274.51 742.83 255.14 C 740.89 253.02 739.74 249.84 741.03 247.10 Z"
  />
  <path
    fill="#ff002c"
    stroke="#ff002c"
    stroke-width="0.09375"
    opacity="1.00"
    d=" M 785.20 277.64 C 829.68 303.41 870.59 335.93 903.24 375.80 C 912.23 387.08 921.71 398.31 927.33 411.76 C 934.10 426.42 937.48 442.97 934.84 459.05 C 933.05 469.65 930.94 480.65 924.65 489.63 C 921.92 493.62 918.09 497.55 913.02 498.01 C 907.91 498.26 903.20 495.71 899.23 492.74 C 885.35 481.92 874.45 467.34 868.10 450.91 C 862.90 436.99 859.17 422.57 856.06 408.06 C 848.21 374.89 834.01 343.31 814.70 315.25 C 805.70 302.09 795.86 289.50 785.20 277.64 Z"
  />
  <path
    fill="#ff002c"
    stroke="#ff002c"
    stroke-width="0.09375"
    opacity="1.00"
    d=" M 1092.76 380.76 C 1126.04 338.66 1168.47 304.45 1214.79 277.65 C 1192.10 303.10 1172.39 331.54 1158.90 362.96 C 1150.89 381.35 1145.23 400.68 1141.18 420.30 C 1137.15 435.63 1133.14 451.25 1125.06 465.05 C 1119.37 474.93 1111.69 483.58 1103.03 490.95 C 1098.49 494.69 1093.09 498.29 1086.96 498.01 C 1081.88 497.54 1078.06 493.61 1075.34 489.61 C 1068.89 480.34 1066.81 468.97 1065.00 458.04 C 1062.38 440.71 1066.84 423.10 1074.60 407.62 C 1079.20 397.76 1086.16 389.31 1092.76 380.76 Z"
  />
  <path
    fill="#ff002c"
    stroke="#ff002c"
    stroke-width="0.09375"
    opacity="1.00"
    d=" M 975.78 364.71 C 982.64 347.90 990.21 331.30 1000.00 315.97 C 1014.12 338.36 1024.11 363.06 1032.91 387.94 C 1041.23 411.83 1048.04 436.23 1053.65 460.90 C 1059.50 483.56 1057.50 507.51 1052.46 530.12 C 1047.46 552.80 1037.29 573.89 1026.08 594.08 C 1024.14 597.53 1020.52 599.86 1016.75 600.83 C 1011.96 601.42 1008.71 597.32 1005.21 594.81 C 1002.50 592.49 998.23 592.23 995.38 594.40 C 991.74 596.79 988.74 600.91 983.99 600.92 C 979.62 600.23 975.55 597.36 973.53 593.42 C 968.17 583.60 962.96 573.69 958.56 563.40 C 947.55 538.19 941.85 510.51 942.97 482.97 C 943.17 473.36 945.64 464.03 947.78 454.72 C 955.02 424.12 964.09 393.92 975.78 364.71 Z"
  />
  <path
    fill="#ff002c"
    stroke="#ff002c"
    stroke-width="0.09375"
    opacity="1.00"
    d=" M 582.82 319.87 C 620.64 334.77 657.02 353.20 692.01 373.84 C 725.29 393.45 756.76 415.98 786.91 440.08 C 795.59 447.04 803.87 454.45 812.14 461.87 C 813.93 463.48 815.69 465.24 816.50 467.58 C 827.93 496.43 838.23 525.83 845.21 556.11 C 847.65 569.32 849.47 583.51 844.19 596.29 C 841.81 602.25 836.62 607.37 830.04 608.10 C 819.64 609.38 809.82 604.59 800.68 600.29 C 787.80 593.68 774.43 586.07 766.69 573.36 C 764.25 569.52 762.24 565.38 761.21 560.95 C 753.23 528.31 739.90 497.08 722.61 468.30 C 702.42 434.65 677.60 403.85 649.46 376.52 C 628.52 356.22 606.39 337.07 582.82 319.87 Z"
  />
  <path
    fill="#ff002c"
    stroke="#ff002c"
    stroke-width="0.09375"
    opacity="1.00"
    d=" M 1269.39 398.33 C 1315.73 367.13 1365.26 340.51 1417.19 319.86 C 1389.66 340.04 1363.90 362.66 1340.03 387.06 C 1315.31 412.57 1293.48 440.92 1275.47 471.54 C 1260.92 496.33 1249.32 522.89 1241.52 550.57 C 1239.36 557.80 1238.37 565.56 1234.14 572.00 C 1226.80 585.01 1213.56 592.93 1200.70 599.61 C 1192.54 603.58 1184.10 607.66 1174.91 608.32 C 1169.05 608.79 1162.75 606.74 1159.14 601.92 C 1153.89 595.17 1152.70 586.30 1152.34 578.01 C 1152.60 559.01 1158.52 540.76 1163.85 522.72 C 1168.95 506.02 1174.89 489.60 1181.25 473.35 C 1182.78 469.70 1183.66 465.47 1186.85 462.83 C 1212.53 439.10 1240.65 418.18 1269.39 398.33 Z"
  />
  <path
    fill="#ff002c"
    stroke="#ff002c"
    stroke-width="0.09375"
    opacity="1.00"
    d=" M 813.55 429.68 C 839.13 451.90 863.90 475.08 887.60 499.32 C 904.89 517.18 921.56 535.73 936.25 555.81 C 945.16 568.09 953.45 580.81 961.03 593.95 C 965.59 601.70 969.72 609.90 971.07 618.90 C 972.83 629.36 971.02 640.44 965.73 649.67 C 961.10 657.45 953.11 662.47 945.01 666.05 C 935.12 670.45 923.30 671.20 913.31 666.73 C 906.20 663.66 900.25 658.55 894.39 653.62 C 885.38 645.92 878.57 635.92 873.83 625.12 C 866.60 608.91 864.46 591.12 860.88 573.90 C 853.94 540.31 843.92 507.39 831.53 475.42 C 825.68 460.11 819.42 444.97 813.55 429.68 Z"
  />
  <path
    fill="#ff002c"
    stroke="#ff002c"
    stroke-width="0.09375"
    opacity="1.00"
    d=" M 1186.39 429.75 C 1178.60 450.15 1170.10 470.27 1162.72 490.83 C 1155.55 510.57 1149.47 530.71 1144.32 551.08 C 1139.69 568.50 1137.04 586.36 1133.08 603.93 C 1128.92 622.34 1120.63 640.52 1106.18 653.11 C 1100.35 658.09 1094.42 663.18 1087.40 666.42 C 1077.24 671.22 1065.08 670.56 1054.95 666.03 C 1046.85 662.45 1038.89 657.43 1034.26 649.66 C 1028.30 639.28 1026.80 626.57 1029.74 615.01 C 1031.61 606.48 1036.11 598.89 1040.43 591.42 C 1050.05 575.10 1060.63 559.34 1072.37 544.46 C 1093.20 518.16 1116.84 494.24 1141.01 471.02 C 1155.89 457.00 1170.86 443.06 1186.39 429.75 Z"
  />
  <path
    fill="#ff002c"
    stroke="#ff002c"
    stroke-width="0.09375"
    opacity="1.00"
    d=" M 671.01 514.05 C 678.65 514.36 686.14 516.08 693.62 517.51 C 704.13 519.78 714.95 521.54 724.69 526.31 C 734.20 530.75 741.24 539.42 744.79 549.18 C 746.84 555.15 748.37 562.24 745.06 568.05 C 742.66 572.11 737.47 573.15 733.13 572.48 C 723.76 570.97 714.37 567.25 707.69 560.31 C 702.88 555.55 699.70 549.52 695.91 543.98 C 688.39 533.39 680.20 523.25 671.01 514.05 Z"
  />
  <path
    fill="#ff002c"
    stroke="#ff002c"
    stroke-width="0.09375"
    opacity="1.00"
    d=" M 1310.17 516.75 C 1316.40 515.60 1322.63 514.27 1328.99 514.05 C 1317.28 525.87 1306.94 539.03 1298.11 553.13 C 1293.13 560.88 1285.66 567.01 1276.89 569.93 C 1271.31 571.70 1265.13 573.86 1259.35 571.77 C 1254.69 569.99 1252.87 564.64 1253.00 560.03 C 1253.36 551.40 1257.10 543.17 1262.40 536.45 C 1267.80 529.66 1275.73 525.41 1283.90 522.85 C 1292.51 520.22 1301.36 518.52 1310.17 516.75 Z"
  />
  <path
    fill="#ff002c"
    stroke="#ff002c"
    stroke-width="0.09375"
    opacity="1.00"
    d=" M 460.00 536.52 C 501.92 535.25 543.80 539.68 585.10 546.60 C 624.09 553.01 662.47 562.81 700.07 574.95 C 739.49 587.67 778.24 602.60 815.65 620.40 C 840.51 632.11 864.37 646.09 886.13 662.92 C 891.19 666.77 895.62 671.34 900.30 675.63 C 892.92 674.46 885.43 673.22 877.93 673.83 C 874.67 674.14 871.03 675.74 869.97 679.09 C 868.86 682.11 870.38 685.36 872.54 687.50 C 876.50 691.56 881.20 694.81 885.41 698.60 C 892.48 704.87 899.33 711.61 904.37 719.67 C 906.21 722.96 908.01 726.72 907.47 730.60 C 906.78 734.95 902.05 737.64 897.88 736.99 C 884.16 735.76 872.15 728.52 859.71 723.28 C 848.11 717.99 836.10 713.69 823.90 710.02 C 808.69 705.41 794.69 697.46 781.98 688.01 C 772.31 680.78 763.63 672.36 754.69 664.28 C 731.06 643.69 704.52 626.59 676.57 612.49 C 660.25 604.71 644.06 596.63 627.41 589.59 C 584.38 570.94 539.54 556.82 494.28 544.70 C 482.89 541.83 471.59 538.48 460.00 536.52 Z"
  />
  <path
    fill="#ff002c"
    stroke="#ff002c"
    stroke-width="0.09375"
    opacity="1.00"
    d=" M 1368.73 555.76 C 1412.83 545.83 1457.74 538.91 1502.92 536.83 C 1515.26 536.01 1527.66 536.34 1540.02 536.48 C 1520.58 540.25 1501.54 545.88 1482.45 551.13 C 1438.81 563.55 1395.80 578.46 1354.62 597.60 C 1337.61 605.73 1320.36 613.46 1304.02 622.92 C 1282.99 634.89 1263.03 648.79 1244.81 664.73 C 1233.62 674.96 1222.60 685.54 1209.79 693.77 C 1199.15 700.84 1187.59 706.60 1175.33 710.27 C 1160.20 714.68 1145.58 720.64 1131.32 727.31 C 1121.69 731.77 1111.76 736.46 1100.99 737.03 C 1096.26 737.39 1091.67 733.04 1092.45 728.20 C 1093.45 721.26 1098.15 715.70 1102.51 710.51 C 1109.04 703.01 1116.75 696.68 1124.41 690.39 C 1127.43 687.77 1131.12 684.41 1130.27 679.96 C 1129.60 676.12 1125.59 674.11 1122.03 673.82 C 1114.54 673.22 1107.07 674.46 1099.70 675.63 C 1112.64 662.56 1127.98 652.24 1143.47 642.45 C 1172.44 624.62 1203.74 610.99 1235.20 598.23 C 1278.63 580.97 1323.21 566.45 1368.73 555.76 Z"
  />
  <path
    fill="#ff002c"
    stroke="#ff002c"
    stroke-width="0.09375"
    opacity="1.00"
    d=" M 975.70 658.70 C 982.99 646.41 990.83 634.38 1000.00 623.39 C 1006.57 631.18 1012.34 639.62 1017.86 648.18 C 1021.87 654.64 1026.14 661.02 1029.00 668.10 C 1030.83 672.20 1029.82 676.82 1028.81 681.00 C 1025.47 693.04 1015.54 702.82 1003.75 706.69 C 998.53 708.59 993.22 705.78 988.74 703.29 C 977.77 696.90 969.72 684.79 970.02 671.86 C 970.78 667.09 973.41 662.88 975.70 658.70 Z"
  />
  <path
    fill="#ff002c"
    stroke="#ff002c"
    stroke-width="0.09375"
    opacity="1.00"
    d=" M 658.72 657.35 C 675.07 655.98 691.56 655.69 707.93 657.19 C 721.74 657.75 735.59 663.72 744.54 674.44 C 747.56 678.26 750.33 682.91 749.93 687.96 C 749.14 692.95 744.11 695.54 739.63 696.52 C 731.43 698.51 723.07 695.18 716.40 690.54 C 708.83 685.19 701.95 678.89 694.06 673.99 C 682.94 667.20 671.13 661.33 658.72 657.35 Z"
  />
  <path
    fill="#ff002c"
    stroke="#ff002c"
    stroke-width="0.09375"
    opacity="1.00"
    d=" M 1286.52 657.69 C 1304.67 655.74 1323.02 655.75 1341.20 657.37 C 1323.91 663.17 1307.38 671.71 1293.18 683.22 C 1287.12 688.00 1281.07 693.18 1273.64 695.68 C 1267.48 697.86 1260.31 697.61 1254.61 694.27 C 1251.38 692.51 1249.30 688.61 1250.18 684.96 C 1251.02 680.33 1253.73 676.29 1256.83 672.86 C 1264.54 664.51 1275.34 659.34 1286.52 657.69 Z"
  />
  <path
    fill="#ff002c"
    stroke="#ff002c"
    stroke-width="0.09375"
    opacity="1.00"
    d=" M 886.66 685.09 C 909.11 687.59 931.61 692.27 952.22 701.75 C 961.87 706.05 970.43 712.58 977.34 720.55 C 984.56 728.69 987.87 741.13 983.45 751.36 C 980.78 757.29 973.78 758.97 967.91 759.50 C 958.39 760.06 948.50 757.10 941.31 750.73 C 934.64 744.94 929.45 737.68 924.80 730.23 C 921.45 724.62 918.41 718.82 914.53 713.55 C 906.75 702.71 896.95 693.50 886.66 685.09 Z"
  />
  <path
    fill="#ff002c"
    stroke="#ff002c"
    stroke-width="0.09375"
    opacity="1.00"
    d=" M 1054.64 698.76 C 1073.39 691.35 1093.33 687.25 1113.34 685.10 C 1100.25 695.73 1088.00 707.84 1079.62 722.61 C 1075.41 730.17 1070.84 737.57 1065.21 744.15 C 1060.83 749.18 1055.79 753.91 1049.55 756.50 C 1041.12 759.95 1031.26 760.90 1022.72 757.29 C 1019.51 755.95 1017.03 753.16 1015.93 749.88 C 1012.97 741.50 1015.02 731.93 1019.62 724.53 C 1028.15 712.44 1040.93 703.97 1054.64 698.76 Z"
  />
  <path
    fill="#ff002c"
    stroke="#ff002c"
    stroke-width="0.09375"
    opacity="1.00"
    d=" M 596.46 715.33 C 630.20 711.75 664.07 708.74 698.04 709.22 C 715.06 708.92 732.04 710.23 749.00 711.57 C 781.94 714.64 815.05 719.42 846.35 730.54 C 851.13 732.30 856.05 733.88 860.40 736.59 C 862.05 737.57 863.57 739.14 863.65 741.18 C 864.11 744.94 860.14 747.31 856.93 747.81 C 842.86 749.10 828.38 747.63 814.70 751.85 C 810.56 753.09 806.67 757.39 808.12 761.92 C 810.47 769.00 818.95 771.56 821.50 778.57 C 823.46 783.13 820.07 787.77 816.60 790.49 C 810.55 795.13 802.16 798.45 794.70 795.26 C 788.70 793.13 785.02 787.67 780.33 783.70 C 758.68 764.48 732.83 750.52 705.97 740.01 C 686.71 732.53 666.78 726.77 646.52 722.74 C 629.95 719.58 613.29 716.61 596.46 715.33 Z"
  />
  <path
    fill="#ff002c"
    stroke="#ff002c"
    stroke-width="0.09375"
    opacity="1.00"
    d=" M 1221.55 714.89 C 1242.92 711.92 1264.46 710.28 1286.01 709.33 C 1299.38 709.16 1312.75 709.14 1326.13 709.35 C 1352.00 710.40 1377.84 712.45 1403.58 715.38 C 1382.22 717.07 1361.04 720.94 1340.15 725.66 C 1305.97 733.92 1272.57 746.66 1243.00 765.89 C 1232.69 772.75 1222.75 780.27 1214.05 789.11 C 1211.24 792.11 1207.80 794.62 1203.82 795.78 C 1196.69 798.05 1189.11 794.81 1183.45 790.52 C 1179.95 787.81 1176.51 783.14 1178.51 778.55 C 1180.99 771.82 1188.82 769.21 1191.61 762.73 C 1193.73 758.04 1189.73 753.10 1185.28 751.84 C 1173.22 748.12 1160.44 748.85 1147.99 748.15 C 1144.65 748.04 1140.95 748.04 1138.32 745.68 C 1135.56 743.81 1135.74 739.33 1138.39 737.46 C 1142.20 734.61 1146.79 733.09 1151.20 731.42 C 1173.87 723.07 1197.66 718.20 1221.55 714.89 Z"
  />
  <path
    fill="#ff002c"
    stroke="#ff002c"
    stroke-width="0.09375"
    opacity="1.00"
    d=" M 821.59 761.53 C 850.67 756.77 881.12 760.31 908.03 772.49 C 885.82 776.81 863.87 782.57 842.61 790.36 C 838.64 778.92 830.86 769.17 821.59 761.53 Z"
  />
  <path
    fill="#ff002c"
    stroke="#ff002c"
    stroke-width="0.09375"
    opacity="1.00"
    d=" M 1091.97 772.49 C 1118.88 760.31 1149.33 756.77 1178.41 761.53 C 1169.14 769.17 1161.35 778.92 1157.39 790.37 C 1136.13 782.57 1114.18 776.81 1091.97 772.49 Z"
  />
  <path
    fill="#ff002c"
    stroke="#ff002c"
    stroke-width="0.09375"
    opacity="1.00"
    d=" M 960.58 811.52 C 971.54 797.83 986.02 787.66 1000.00 777.30 C 1013.81 787.53 1028.10 797.58 1039.03 811.02 C 1043.74 817.07 1048.13 824.20 1047.74 832.17 C 1047.64 838.27 1044.24 843.77 1039.96 847.89 C 1033.65 853.99 1025.35 857.44 1017.08 859.98 C 1009.36 862.24 1001.17 863.97 993.14 862.38 C 983.04 860.51 972.93 857.36 964.40 851.51 C 958.09 847.01 952.43 840.25 952.26 832.15 C 951.87 824.41 956.04 817.44 960.58 811.52 Z"
  />
  <path
    fill="#ff002c"
    stroke="#ff002c"
    stroke-width="0.09375"
    opacity="1.00"
    d=" M 878.65 805.22 C 889.05 808.02 899.40 811.59 908.44 817.57 C 911.72 819.85 915.09 822.42 916.86 826.13 C 918.00 828.22 916.93 830.55 916.66 832.73 C 899.08 836.14 883.95 846.30 869.87 856.86 C 862.79 861.68 855.02 867.53 845.95 866.57 C 842.56 866.18 838.67 865.44 836.56 862.48 C 833.15 858.25 831.25 852.44 833.07 847.13 C 835.35 840.40 840.68 835.36 845.73 830.63 C 856.06 821.36 867.33 813.22 878.65 805.22 Z"
  />
  <path
    fill="#ff002c"
    stroke="#ff002c"
    stroke-width="0.09375"
    opacity="1.00"
    d=" M 1093.42 816.36 C 1102.04 811.12 1111.65 807.83 1121.35 805.22 C 1134.01 814.22 1146.75 823.27 1157.92 834.10 C 1162.04 838.34 1166.24 843.08 1167.41 849.07 C 1168.39 854.75 1165.75 860.75 1161.45 864.43 C 1155.92 867.35 1148.95 867.43 1143.32 864.75 C 1133.54 860.43 1125.64 853.03 1116.69 847.35 C 1106.57 840.51 1095.36 835.24 1083.38 832.70 C 1083.09 830.53 1081.97 828.21 1083.14 826.13 C 1085.27 821.77 1089.45 818.92 1093.42 816.36 Z"
  />
  <path
    fill="#ff002c"
    stroke="#ff002c"
    stroke-width="0.09375"
    opacity="1.00"
    d=" M 715.78 843.06 C 717.12 833.26 718.62 823.40 721.92 814.04 C 730.40 825.55 742.85 833.32 755.90 838.73 C 741.55 850.43 728.25 863.45 716.56 877.81 C 714.33 866.36 714.61 854.61 715.78 843.06 Z"
  />
  <path
    fill="#ff002c"
    stroke="#ff002c"
    stroke-width="0.09375"
    opacity="1.00"
    d=" M 1244.10 838.73 C 1257.15 833.33 1269.59 825.55 1278.08 814.04 C 1281.38 823.40 1282.87 833.25 1284.22 843.04 C 1285.42 854.60 1285.66 866.35 1283.43 877.81 C 1271.74 863.45 1258.44 850.42 1244.10 838.73 Z"
  />
  <path
    fill="#ff002c"
    stroke="#ff002c"
    stroke-width="0.09375"
    opacity="1.00"
    d=" M 917.35 840.35 C 922.87 839.10 929.11 838.65 933.97 842.13 C 947.68 850.80 962.40 859.67 970.97 873.95 C 975.16 880.54 975.75 889.14 972.12 896.12 C 965.53 909.52 953.63 919.53 941.03 927.11 C 932.15 932.32 923.04 937.56 912.94 939.98 C 906.77 941.45 900.16 940.48 894.60 937.48 C 886.54 933.26 879.71 927.07 873.48 920.53 C 866.82 913.26 860.36 905.34 857.23 895.86 C 855.52 890.90 856.51 885.46 858.88 880.91 C 863.48 871.94 871.14 865.01 879.30 859.30 C 890.85 851.06 903.23 843.15 917.35 840.35 Z"
  />
  <path
    fill="#ff002c"
    stroke="#ff002c"
    stroke-width="0.09375"
    opacity="1.00"
    d=" M 1069.40 840.38 C 1073.87 838.60 1078.78 839.62 1083.33 840.49 C 1095.04 842.88 1105.52 849.00 1115.36 855.54 C 1122.20 860.31 1129.20 865.09 1134.65 871.49 C 1138.75 876.29 1142.49 881.79 1143.50 888.16 C 1144.35 894.60 1141.14 900.61 1137.96 905.97 C 1132.62 914.35 1125.86 921.79 1118.41 928.35 C 1112.25 933.62 1105.40 938.74 1097.27 940.31 C 1088.58 941.79 1080.15 938.16 1072.46 934.54 C 1059.84 928.14 1047.35 920.80 1037.72 910.24 C 1032.44 904.46 1027.58 897.83 1025.85 890.07 C 1024.48 884.05 1026.51 877.83 1029.75 872.76 C 1036.07 862.58 1045.96 855.38 1055.69 848.71 C 1060.16 845.78 1064.56 842.68 1069.40 840.38 Z"
  />
  <path
    fill="#ff002c"
    stroke="#ff002c"
    stroke-width="0.09375"
    opacity="1.00"
    d=" M 802.37 852.60 C 806.75 851.26 811.89 851.40 815.63 854.34 C 820.44 858.23 822.97 864.10 825.38 869.64 C 827.41 874.89 830.37 880.18 829.62 886.02 C 829.00 892.47 824.50 897.69 819.82 901.81 C 812.42 908.23 804.04 913.36 795.97 918.88 C 787.86 924.25 779.84 929.85 771.03 934.04 C 765.18 936.83 758.59 938.10 752.13 937.53 C 746.69 936.98 741.62 933.20 740.14 927.85 C 737.87 920.15 740.89 912.21 744.50 905.44 C 752.58 890.83 764.43 878.72 777.01 867.92 C 784.66 861.67 792.78 855.47 802.37 852.60 Z"
  />
  <path
    fill="#ff002c"
    stroke="#ff002c"
    stroke-width="0.09375"
    opacity="1.00"
    d=" M 1187.40 852.65 C 1193.19 850.47 1199.39 852.83 1204.66 855.36 C 1216.33 861.38 1226.17 870.31 1235.47 879.45 C 1243.29 887.43 1250.52 896.14 1255.81 906.03 C 1258.48 911.28 1260.87 916.98 1260.61 923.00 C 1260.62 928.01 1258.19 933.27 1253.62 935.65 C 1249.66 938.04 1244.86 937.82 1240.45 937.41 C 1232.45 936.53 1225.38 932.41 1218.60 928.38 C 1209.25 922.53 1200.17 916.27 1191.03 910.11 C 1184.49 905.40 1177.55 900.72 1173.13 893.82 C 1170.03 889.08 1169.44 882.89 1171.46 877.62 C 1173.63 871.94 1175.79 866.21 1178.86 860.95 C 1180.92 857.53 1183.55 854.12 1187.40 852.65 Z"
  />
  <path
    fill="#ff002c"
    stroke="#ff002c"
    stroke-width="0.09375"
    opacity="1.00"
    d=" M 946.71 936.72 C 963.22 922.31 981.45 910.05 1000.00 898.44 C 1014.32 907.43 1028.48 916.73 1041.77 927.21 C 1050.13 933.73 1058.42 940.55 1064.92 949.01 C 1068.65 953.92 1071.47 959.78 1071.56 966.05 C 1071.29 974.29 1067.78 982.16 1062.54 988.45 C 1051.88 1001.28 1037.37 1010.14 1022.58 1017.47 C 1014.72 1021.42 1005.95 1024.01 997.08 1023.29 C 987.17 1022.71 978.19 1018.06 969.63 1013.44 C 956.69 1006.31 944.11 997.67 935.31 985.60 C 929.81 977.76 926.38 967.27 930.01 957.95 C 933.37 949.41 940.08 942.81 946.71 936.72 Z"
  />
  <path
    fill="#ff002c"
    stroke="#ff002c"
    stroke-width="0.09375"
    opacity="1.00"
    d=" M 834.42 905.51 C 839.90 904.42 844.62 908.16 848.55 911.46 C 857.83 919.85 867.54 927.95 875.25 937.90 C 879.39 943.23 882.98 949.26 884.09 956.02 C 885.52 962.12 883.10 968.49 879.25 973.22 C 874.93 978.54 869.60 982.93 864.39 987.33 C 854.25 995.63 843.93 1003.74 833.02 1011.02 C 827.04 1014.87 821.00 1018.99 814.04 1020.82 C 806.75 1023.03 799.40 1019.47 793.26 1015.80 C 781.11 1008.29 769.16 998.32 764.75 984.20 C 760.89 972.64 765.62 960.01 773.09 951.02 C 787.37 937.50 802.39 924.65 818.85 913.84 C 823.86 910.79 828.74 907.19 834.42 905.51 Z"
  />
  <path
    fill="#ff002c"
    stroke="#ff002c"
    stroke-width="0.09375"
    opacity="1.00"
    d=" M 1161.38 905.55 C 1166.16 904.45 1170.40 907.45 1174.37 909.64 C 1191.97 920.11 1207.75 933.33 1222.81 947.13 C 1229.98 952.99 1234.53 961.69 1236.27 970.70 C 1237.71 978.78 1235.09 986.96 1230.81 993.77 C 1225.38 1002.51 1217.15 1009.06 1208.63 1014.62 C 1203.29 1018.03 1197.43 1021.19 1190.98 1021.56 C 1183.47 1021.30 1176.87 1017.23 1170.66 1013.41 C 1157.02 1004.66 1144.28 994.58 1131.88 984.19 C 1126.08 978.98 1119.62 973.78 1116.74 966.30 C 1113.93 959.20 1116.44 951.33 1119.98 944.97 C 1127.73 931.81 1139.79 922.07 1150.93 911.91 C 1154.04 909.29 1157.31 906.50 1161.38 905.55 Z"
  />
  <path
    fill="#ff002c"
    stroke="#ff002c"
    stroke-width="0.09375"
    opacity="1.00"
    d=" M 649.47 952.91 C 650.62 943.44 652.59 934.07 655.00 924.84 C 659.34 933.56 664.01 942.29 670.74 949.43 C 663.72 964.27 657.09 979.32 651.68 994.82 C 650.57 986.91 648.95 979.01 649.19 970.99 C 649.32 964.96 648.93 958.92 649.47 952.91 Z"
  />
  <path
    fill="#ff002c"
    stroke="#ff002c"
    stroke-width="0.09375"
    opacity="1.00"
    d=" M 1345.00 924.84 C 1347.46 934.30 1349.49 943.89 1350.60 953.60 C 1351.21 967.39 1351.00 981.25 1348.32 994.84 C 1342.92 979.32 1336.26 964.27 1329.26 949.42 C 1336.00 942.29 1340.65 933.55 1345.00 924.84 Z"
  />
  <path
    fill="#ff002c"
    stroke="#ff002c"
    stroke-width="0.09375"
    opacity="1.00"
    d=" M 727.46 946.63 C 732.11 945.26 736.88 947.75 739.18 951.83 C 743.63 959.31 746.48 967.70 748.45 976.14 C 750.35 984.26 746.14 992.12 741.33 998.35 C 731.36 1011.25 719.09 1022.10 707.70 1033.70 C 701.61 1039.63 696.31 1046.39 689.63 1051.69 C 687.29 1053.39 684.41 1055.25 681.39 1054.48 C 678.66 1053.34 677.16 1050.55 675.87 1048.06 C 671.92 1039.63 670.90 1030.20 670.44 1021.01 C 670.18 1009.65 671.76 997.98 676.65 987.63 C 679.63 982.50 684.33 978.70 688.41 974.49 C 697.25 966.19 706.25 957.92 716.61 951.53 C 720.03 949.53 723.56 947.53 727.46 946.63 Z"
  />
  <path
    fill="#ff002c"
    stroke="#ff002c"
    stroke-width="0.09375"
    opacity="1.00"
    d=" M 1267.38 946.55 C 1272.46 945.58 1277.27 948.11 1281.59 950.48 C 1291.90 956.42 1300.78 964.46 1309.48 972.49 C 1314.28 977.34 1319.78 981.74 1323.35 987.64 C 1328.50 998.59 1330.01 1010.98 1329.48 1022.97 C 1328.81 1032.23 1327.68 1041.83 1323.06 1050.05 C 1321.58 1052.72 1318.80 1055.69 1315.43 1054.42 C 1309.94 1052.55 1306.12 1047.87 1302.08 1043.96 C 1289.58 1030.12 1275.35 1017.94 1263.13 1003.84 C 1257.57 997.25 1251.56 989.94 1251.08 980.94 C 1251.29 973.55 1254.21 966.60 1256.80 959.78 C 1259.10 954.69 1261.47 948.29 1267.38 946.55 Z"
  />
  <path
    fill="#ff002c"
    stroke="#ff002c"
    stroke-width="0.09375"
    opacity="1.00"
    d=" M 902.39 989.52 C 906.20 988.60 910.14 989.50 913.25 991.87 C 928.18 1001.22 942.33 1011.83 955.49 1023.54 C 963.31 1030.74 971.19 1038.36 975.84 1048.08 C 979.42 1055.29 979.79 1064.04 976.69 1071.48 C 971.53 1084.58 960.99 1094.81 949.41 1102.41 C 935.02 1111.83 917.07 1114.97 900.19 1112.31 C 886.35 1110.22 873.18 1105.14 860.44 1099.49 C 848.05 1093.91 835.39 1086.97 827.65 1075.41 C 822.22 1067.61 821.79 1057.02 825.64 1048.47 C 830.71 1036.22 840.64 1026.88 850.91 1018.89 C 860.88 1011.33 871.27 1004.28 882.22 998.20 C 888.65 994.71 895.18 991.09 902.39 989.52 Z"
  />
  <path
    fill="#ff002c"
    stroke="#ff002c"
    stroke-width="0.09375"
    opacity="1.00"
    d=" M 1091.39 989.50 C 1097.41 988.36 1103.23 991.06 1108.61 993.44 C 1122.79 1000.29 1135.97 1009.03 1148.55 1018.47 C 1156.96 1024.97 1165.06 1032.24 1170.71 1041.35 C 1174.24 1047.27 1177.27 1053.93 1176.81 1060.99 C 1177.10 1070.07 1171.41 1078.03 1165.02 1083.92 C 1153.86 1093.93 1139.74 1099.68 1125.97 1105.11 C 1108.12 1112.04 1088.14 1116.06 1069.31 1110.75 C 1053.49 1106.43 1039.59 1096.17 1029.76 1083.17 C 1024.80 1076.13 1020.56 1067.82 1021.29 1058.97 C 1021.78 1049.32 1027.72 1041.03 1033.88 1034.02 C 1046.56 1020.47 1061.37 1009.12 1076.54 998.53 C 1081.42 995.42 1086.05 991.76 1091.39 989.50 Z"
  />
  <path
    fill="#ff002c"
    stroke="#ff002c"
    stroke-width="0.09375"
    opacity="1.00"
    d=" M 1244.52 1011.67 C 1251.37 1010.35 1257.98 1013.81 1263.36 1017.71 C 1276.77 1028.07 1288.84 1040.18 1299.84 1053.02 C 1302.50 1059.28 1301.80 1066.53 1300.11 1072.98 C 1297.35 1082.86 1290.51 1092.61 1280.19 1095.42 C 1272.48 1097.76 1264.41 1095.48 1257.09 1092.89 C 1248.86 1089.78 1240.61 1086.70 1232.34 1083.70 C 1222.13 1079.78 1211.48 1076.16 1202.91 1069.12 C 1199.68 1066.35 1196.46 1062.45 1197.04 1057.93 C 1197.96 1051.69 1201.76 1046.39 1205.56 1041.55 C 1211.67 1034.06 1218.55 1027.17 1226.16 1021.19 C 1231.64 1017.00 1237.69 1013.17 1244.52 1011.67 Z"
  />
  <path
    fill="#ff002c"
    stroke="#ff002c"
    stroke-width="0.09375"
    opacity="1.00"
    d=" M 747.25 1012.17 C 752.19 1010.45 757.50 1011.75 762.09 1013.89 C 771.03 1018.03 778.48 1024.69 785.44 1031.54 C 791.20 1037.54 797.02 1043.72 800.82 1051.20 C 802.49 1054.79 804.08 1059.16 802.09 1062.96 C 799.61 1067.99 794.69 1071.17 790.03 1073.98 C 779.74 1079.76 768.40 1083.28 757.42 1087.46 C 748.66 1090.47 740.22 1094.68 730.99 1096.07 C 722.85 1097.48 714.08 1094.61 708.50 1088.51 C 700.51 1079.95 696.87 1067.41 699.11 1055.93 C 699.64 1052.46 702.54 1050.19 704.73 1047.72 C 711.71 1040.04 719.07 1032.71 726.80 1025.79 C 732.96 1020.43 739.27 1014.62 747.25 1012.17 Z"
  />
  <path
    fill="#ff002c"
    stroke="#ff002c"
    stroke-width="0.09375"
    opacity="1.00"
    d=" M 622.32 1030.89 C 625.89 1036.21 630.02 1041.18 634.93 1045.32 C 631.92 1056.28 628.85 1067.22 626.24 1078.28 C 623.23 1066.09 621.20 1053.57 621.71 1040.98 C 621.93 1037.61 622.23 1034.25 622.32 1030.89 Z"
  />
  <path
    fill="#ff002c"
    stroke="#ff002c"
    stroke-width="0.09375"
    opacity="1.00"
    d=" M 1365.08 1045.31 C 1369.98 1041.17 1374.11 1036.21 1377.68 1030.90 C 1378.73 1042.77 1378.58 1054.79 1376.33 1066.53 C 1375.55 1070.46 1374.49 1074.34 1373.76 1078.29 C 1371.16 1067.22 1368.06 1056.27 1365.08 1045.31 Z"
  />
  <path
    fill="#ff002c"
    stroke="#ff002c"
    stroke-width="0.09375"
    opacity="1.00"
    d=" M 670.34 1080.41 C 674.08 1078.21 676.95 1082.41 679.09 1084.88 C 689.00 1098.26 700.40 1111.16 705.90 1127.15 C 709.65 1137.49 706.52 1148.91 701.05 1158.02 C 693.18 1171.16 683.24 1182.87 673.98 1195.03 C 669.16 1200.83 665.22 1207.63 658.69 1211.74 C 654.46 1214.86 648.53 1217.23 643.58 1214.31 C 637.23 1210.46 633.45 1203.61 630.86 1196.87 C 624.66 1179.55 625.04 1160.26 630.58 1142.82 C 635.81 1125.15 645.55 1109.21 656.36 1094.44 C 660.41 1089.24 664.60 1083.82 670.34 1080.41 Z"
  />
  <path
    fill="#ff002c"
    stroke="#ff002c"
    stroke-width="0.09375"
    opacity="1.00"
    d=" M 1325.40 1080.38 C 1327.36 1078.96 1329.78 1080.30 1331.48 1081.52 C 1337.18 1085.85 1341.60 1091.59 1345.76 1097.35 C 1355.97 1111.71 1365.05 1127.18 1369.85 1144.25 C 1375.00 1161.31 1375.15 1180.06 1369.12 1196.92 C 1366.42 1203.86 1362.48 1211.03 1355.70 1214.68 C 1350.54 1217.16 1344.89 1214.42 1340.69 1211.31 C 1335.24 1207.78 1331.75 1202.20 1327.76 1197.25 C 1320.35 1187.68 1312.79 1178.24 1305.72 1168.42 C 1300.15 1160.39 1294.39 1151.95 1292.91 1142.07 C 1291.63 1136.28 1292.85 1130.31 1294.89 1124.87 C 1300.47 1110.56 1310.57 1098.74 1319.61 1086.55 C 1321.34 1084.32 1323.08 1082.02 1325.40 1080.38 Z"
  />
  <path
    fill="#ededed"
    stroke="#ededed"
    stroke-width="0.09375"
    opacity="1.00"
    d=" M 777.90 1094.28 C 820.13 1111.74 862.53 1128.78 904.84 1146.05 C 894.38 1157.33 880.23 1165.24 865.00 1167.70 C 844.17 1171.47 822.10 1164.52 806.25 1150.72 C 792.07 1138.58 782.67 1121.22 779.62 1102.85 C 779.16 1099.98 779.38 1096.88 777.90 1094.28 Z"
  />
  <path
    fill="#ededed"
    stroke="#ededed"
    stroke-width="0.09375"
    opacity="1.00"
    d=" M 1095.17 1146.06 C 1137.46 1128.77 1179.88 1111.74 1222.09 1094.28 C 1220.61 1096.88 1220.83 1099.97 1220.38 1102.84 C 1217.37 1120.97 1208.18 1138.13 1194.30 1150.24 C 1180.86 1162.16 1162.94 1169.07 1144.95 1168.71 C 1126.17 1168.32 1107.85 1159.86 1095.17 1146.06 Z"
  />
  <path
    fill="#ff002c"
    stroke="#ff002c"
    stroke-width="0.09375"
    opacity="1.00"
    d=" M 976.95 1111.02 C 982.32 1103.82 991.03 1099.31 999.99 1098.98 C 1008.20 1099.32 1016.38 1103.06 1021.68 1109.41 C 1025.36 1113.57 1028.56 1118.21 1030.65 1123.39 C 1039.49 1144.77 1047.30 1166.76 1059.28 1186.66 C 1071.31 1205.79 1087.64 1223.16 1108.69 1232.26 C 1113.00 1233.94 1117.35 1236.03 1122.04 1236.32 C 1125.54 1236.32 1127.08 1231.75 1124.75 1229.39 C 1122.22 1226.53 1119.80 1223.53 1118.66 1219.83 C 1121.54 1217.20 1125.58 1216.93 1129.26 1217.71 C 1137.92 1219.43 1146.61 1222.76 1153.14 1228.88 C 1156.16 1231.49 1154.38 1235.76 1152.63 1238.58 C 1149.12 1243.81 1143.53 1247.12 1138.30 1250.39 C 1133.59 1253.27 1127.43 1254.36 1122.45 1251.51 C 1116.35 1248.07 1110.76 1243.78 1104.67 1240.31 C 1098.55 1236.74 1093.05 1231.69 1086.03 1229.99 C 1082.68 1228.96 1078.65 1231.41 1078.50 1235.02 C 1078.31 1238.78 1080.18 1242.28 1080.53 1246.00 C 1081.31 1251.16 1080.41 1256.51 1077.84 1261.06 C 1074.96 1252.41 1072.16 1243.09 1065.32 1236.66 C 1062.89 1234.28 1058.27 1235.47 1057.67 1238.94 C 1057.63 1243.64 1058.85 1248.46 1057.46 1253.10 C 1055.80 1259.92 1050.13 1264.81 1044.31 1268.20 C 1033.53 1274.02 1020.88 1273.63 1009.00 1273.75 C 995.62 1273.31 982.13 1274.59 968.84 1272.56 C 959.86 1271.19 951.13 1266.87 945.55 1259.57 C 942.30 1255.11 941.35 1249.36 942.05 1243.98 C 942.09 1241.58 943.10 1238.76 941.22 1236.81 C 939.38 1234.66 935.89 1235.17 934.12 1237.14 C 927.71 1243.65 924.94 1252.62 922.15 1261.09 C 918.64 1254.99 918.53 1247.54 920.56 1240.94 C 921.47 1237.84 922.49 1233.73 919.66 1231.30 C 916.31 1228.33 911.65 1230.43 908.25 1232.17 C 901.91 1235.76 896.03 1240.11 889.73 1243.77 C 884.52 1246.75 879.97 1251.11 874.11 1252.81 C 868.30 1254.36 862.66 1251.25 858.01 1248.09 C 852.75 1244.56 846.89 1240.46 845.38 1233.91 C 844.42 1231.26 846.50 1228.91 848.44 1227.42 C 855.24 1222.03 863.63 1218.85 872.14 1217.50 C 875.18 1217.22 879.19 1217.07 881.03 1220.05 C 880.51 1224.34 876.71 1226.99 874.56 1230.44 C 873.18 1232.97 875.07 1236.32 878.01 1236.33 C 881.64 1236.17 885.04 1234.65 888.42 1233.45 C 905.82 1226.76 920.29 1214.12 931.67 1199.59 C 946.77 1180.58 955.40 1157.60 964.51 1135.37 C 967.93 1126.93 970.76 1117.95 976.95 1111.02 Z"
  />
  <path
    fill="#ff002c"
    stroke="#ff002c"
    stroke-width="0.09375"
    opacity="1.00"
    d=" M 590.16 1116.65 C 596.97 1124.20 605.38 1130.64 615.01 1134.11 C 613.14 1148.80 610.87 1163.45 609.42 1178.19 C 602.33 1172.60 599.14 1163.91 596.16 1155.71 C 591.76 1143.19 590.33 1129.85 590.16 1116.65 Z"
  />
  <path
    fill="#ff002c"
    stroke="#ff002c"
    stroke-width="0.09375"
    opacity="1.00"
    d=" M 1384.99 1134.11 C 1394.62 1130.65 1403.02 1124.19 1409.84 1116.64 C 1409.67 1129.86 1408.23 1143.22 1403.82 1155.75 C 1400.84 1163.94 1397.66 1172.62 1390.58 1178.19 C 1389.12 1163.45 1386.86 1148.80 1384.99 1134.11 Z"
  />
  <path
    fill="#ff002c"
    stroke="#ff002c"
    stroke-width="0.09375"
    opacity="1.00"
    d=" M 708.30 1170.31 C 716.77 1152.95 728.30 1137.24 740.96 1122.71 C 739.17 1141.53 742.77 1161.06 752.69 1177.29 C 761.35 1191.79 774.86 1203.17 790.36 1209.77 C 797.26 1212.90 804.59 1214.86 811.84 1217.02 C 795.80 1220.22 778.72 1222.37 764.99 1232.02 C 757.36 1237.28 751.11 1244.35 746.17 1252.15 C 743.41 1256.30 740.91 1260.79 737.02 1264.01 C 732.58 1267.80 725.32 1266.75 721.51 1262.56 C 715.59 1256.43 711.79 1248.70 707.84 1241.26 C 702.86 1231.89 699.23 1221.64 698.71 1210.98 C 698.08 1196.85 702.12 1182.90 708.30 1170.31 Z"
  />
  <path
    fill="#ff002c"
    stroke="#ff002c"
    stroke-width="0.09375"
    opacity="1.00"
    d=" M 1259.04 1122.72 C 1271.87 1137.43 1283.54 1153.36 1292.03 1171.00 C 1298.88 1185.20 1303.10 1201.30 1300.63 1217.11 C 1299.31 1226.11 1295.72 1234.61 1291.47 1242.59 C 1287.74 1249.57 1284.09 1256.77 1278.54 1262.52 C 1274.72 1266.75 1267.41 1267.81 1262.95 1263.99 C 1258.89 1260.60 1256.33 1255.86 1253.43 1251.53 C 1247.40 1242.13 1239.32 1233.88 1229.43 1228.58 C 1216.73 1221.79 1202.28 1219.78 1188.34 1217.10 C 1195.46 1214.70 1202.81 1212.93 1209.67 1209.75 C 1227.70 1202.13 1242.89 1187.89 1251.17 1170.10 C 1258.25 1155.45 1260.50 1138.83 1259.04 1122.72 Z"
  />
  <path
    fill="#000000"
    stroke="#000000"
    stroke-width="0.09375"
    opacity="1.00"
    d=" M 993.22 1149.16 C 998.79 1146.09 1005.77 1147.54 1010.48 1151.52 C 1017.28 1157.21 1021.93 1164.93 1026.51 1172.40 C 1033.62 1184.72 1040.79 1197.19 1045.15 1210.80 C 1047.73 1219.39 1049.61 1228.64 1047.34 1237.52 C 1045.70 1244.87 1040.92 1251.70 1034.00 1254.93 C 1027.50 1258.00 1019.44 1257.62 1013.41 1253.66 C 1006.66 1249.47 1002.62 1242.24 1000.00 1234.97 C 997.38 1242.22 993.36 1249.43 986.65 1253.62 C 980.20 1257.89 971.44 1258.03 964.73 1254.28 C 958.27 1250.73 953.96 1244.02 952.51 1236.88 C 950.44 1227.92 952.43 1218.65 955.09 1210.05 C 960.01 1195.38 967.85 1181.92 975.75 1168.69 C 980.53 1161.42 985.34 1153.42 993.22 1149.16 Z"
  />
  <path
    fill="#ff002c"
    stroke="#ff002c"
    stroke-width="0.09375"
    opacity="1.00"
    d=" M 661.29 1231.19 C 667.51 1229.29 673.64 1233.04 678.71 1236.28 C 691.06 1245.05 701.21 1256.45 711.43 1267.52 C 716.05 1273.32 722.56 1278.29 724.00 1285.98 C 726.47 1297.73 725.15 1310.54 719.13 1321.06 C 713.01 1331.88 703.74 1340.37 695.14 1349.17 C 688.14 1356.15 680.86 1362.84 673.69 1369.66 C 669.85 1373.05 665.41 1376.80 659.96 1376.57 C 653.99 1376.00 648.96 1372.33 644.47 1368.64 C 635.91 1361.25 628.49 1352.20 624.39 1341.56 C 621.12 1333.46 621.27 1324.53 621.44 1315.95 C 623.11 1298.05 629.47 1280.99 636.84 1264.73 C 640.77 1256.31 644.94 1247.94 650.45 1240.43 C 653.42 1236.73 656.75 1232.92 661.29 1231.19 Z"
  />
  <path
    fill="#ff002c"
    stroke="#ff002c"
    stroke-width="0.09375"
    opacity="1.00"
    d=" M 1331.34 1231.27 C 1335.15 1229.86 1339.48 1230.78 1342.60 1233.33 C 1350.11 1239.17 1354.54 1247.84 1358.96 1256.05 C 1366.96 1272.07 1373.91 1288.83 1377.26 1306.50 C 1379.11 1315.56 1379.01 1324.94 1377.74 1334.07 C 1375.42 1345.97 1368.28 1356.39 1359.74 1364.76 C 1354.89 1369.41 1349.58 1374.07 1343.02 1376.03 C 1339.49 1377.20 1335.63 1376.38 1332.55 1374.46 C 1327.48 1371.34 1323.49 1366.86 1319.15 1362.88 C 1311.03 1355.31 1303.08 1347.58 1295.41 1339.57 C 1289.68 1333.50 1284.00 1327.22 1280.17 1319.75 C 1274.71 1309.51 1273.69 1297.32 1275.99 1286.06 C 1276.68 1282.56 1278.29 1279.28 1280.66 1276.62 C 1290.60 1264.96 1300.96 1253.63 1312.33 1243.34 C 1318.00 1238.43 1324.04 1233.50 1331.34 1231.27 Z"
  />
  <path
    fill="#ff002c"
    stroke="#ff002c"
    stroke-width="0.09375"
    opacity="1.00"
    d=" M 583.21 1232.52 C 589.95 1238.46 596.73 1244.69 605.19 1248.09 C 605.22 1267.37 604.87 1286.69 606.37 1305.93 C 598.15 1293.31 590.93 1279.81 587.46 1265.05 C 584.98 1254.39 583.10 1243.48 583.21 1232.52 Z"
  />
  <path
    fill="#ff002c"
    stroke="#ff002c"
    stroke-width="0.09375"
    opacity="1.00"
    d=" M 1397.60 1246.72 C 1404.93 1243.41 1410.75 1237.70 1416.79 1232.52 C 1416.55 1250.38 1413.04 1268.39 1405.65 1284.71 C 1402.31 1292.14 1397.91 1299.01 1393.64 1305.93 C 1395.08 1287.25 1394.79 1268.50 1394.80 1249.78 C 1394.30 1247.93 1396.46 1247.44 1397.60 1246.72 Z"
  />
  <path
    fill="#ff002c"
    stroke="#ff002c"
    stroke-width="0.09375"
    opacity="1.00"
    d=" M 806.06 1237.74 C 813.79 1235.64 821.90 1237.79 829.03 1240.92 C 847.36 1248.91 862.51 1262.21 878.58 1273.77 C 839.52 1273.75 800.46 1273.66 761.41 1273.82 C 768.57 1266.17 775.95 1258.72 783.80 1251.76 C 790.37 1245.95 797.38 1239.99 806.06 1237.74 Z"
  />
  <path
    fill="#ff002c"
    stroke="#ff002c"
    stroke-width="0.09375"
    opacity="1.00"
    d=" M 1167.55 1242.49 C 1174.74 1239.04 1182.67 1236.08 1190.79 1237.12 C 1198.86 1238.19 1205.77 1242.96 1211.90 1248.03 C 1221.35 1256.02 1230.14 1264.77 1238.58 1273.82 C 1199.53 1273.66 1160.48 1273.75 1121.43 1273.77 C 1136.50 1262.93 1150.70 1250.59 1167.55 1242.49 Z"
  />
  <path
    fill="#959898"
    stroke="#959898"
    stroke-width="0.09375"
    opacity="1.00"
    d=" M 753.47 1285.65 C 774.91 1283.85 796.48 1284.94 817.99 1284.64 C 955.34 1284.66 1092.69 1284.63 1230.04 1284.66 C 1237.68 1285.69 1246.08 1283.88 1252.97 1288.15 C 1259.64 1291.96 1262.75 1299.73 1263.28 1307.08 C 1263.12 1392.38 1263.39 1477.71 1263.14 1563.01 C 1263.30 1573.00 1263.23 1583.02 1262.53 1593.00 C 1261.99 1600.23 1259.63 1608.02 1253.56 1612.52 C 1247.99 1616.74 1240.85 1618.16 1234.00 1618.27 C 1209.68 1619.18 1185.33 1618.27 1161.00 1618.41 C 1048.69 1618.40 936.37 1618.42 824.06 1618.40 C 803.69 1618.62 783.30 1619.03 762.94 1618.12 C 754.64 1617.60 745.62 1614.27 741.32 1606.71 C 736.43 1598.00 737.24 1587.63 736.88 1578.01 C 736.60 1487.70 736.88 1397.34 736.72 1307.02 C 737.23 1301.72 738.71 1296.26 742.27 1292.16 C 745.10 1288.77 749.18 1286.58 753.47 1285.65 Z"
  />
  <path
    fill="#000000"
    stroke="#000000"
    stroke-width="0.09375"
    opacity="1.00"
    d=" M 755.36 1292.64 C 764.44 1289.73 774.48 1297.63 774.39 1306.98 C 774.91 1315.25 767.27 1322.86 759.00 1322.32 C 750.69 1322.35 743.50 1314.31 744.59 1306.03 C 744.88 1299.90 749.61 1294.44 755.36 1292.64 Z"
  />
  <path
    fill="#000000"
    stroke="#000000"
    stroke-width="0.09375"
    opacity="1.00"
    d=" M 1236.39 1292.65 C 1245.47 1289.71 1255.66 1297.54 1255.45 1306.98 C 1256.07 1315.32 1248.28 1322.92 1239.99 1322.32 C 1232.07 1322.27 1225.12 1314.87 1225.61 1306.96 C 1225.56 1300.49 1230.41 1294.67 1236.39 1292.65 Z"
  />
  <path
    fill="#ff002c"
    stroke="#ff002c"
    stroke-width="0.09375"
    opacity="1.00"
    d=" M 757.19 1302.35 C 759.82 1301.28 763.75 1302.27 764.62 1305.26 C 764.90 1307.05 765.11 1309.24 763.85 1310.75 C 761.83 1313.47 757.17 1313.53 755.10 1310.85 C 752.75 1308.28 753.78 1303.41 757.19 1302.35 Z"
  />
  <path
    fill="#ff002c"
    stroke="#ff002c"
    stroke-width="0.09375"
    opacity="1.00"
    d=" M 1238.26 1302.37 C 1241.16 1301.11 1245.33 1302.51 1245.94 1305.89 C 1247.33 1309.86 1243.02 1313.91 1239.09 1312.66 C 1234.30 1311.83 1233.57 1303.82 1238.26 1302.37 Z"
  />
  <path
    fill="#000000"
    stroke="#000000"
    stroke-width="0.09375"
    opacity="1.00"
    d=" M 811.44 1321.58 C 819.56 1319.38 828.07 1320.77 836.03 1322.95 C 851.56 1327.56 864.52 1339.93 869.75 1355.28 C 876.13 1373.22 871.54 1394.57 857.99 1408.04 C 845.65 1421.01 826.27 1426.39 808.95 1422.06 C 790.18 1417.71 774.78 1401.79 770.98 1382.90 C 766.95 1365.74 773.10 1346.82 785.90 1334.83 C 792.92 1328.06 801.96 1323.64 811.44 1321.58 Z"
  />
  <path
    fill="#000000"
    stroke="#000000"
    stroke-width="0.09375"
    opacity="1.00"
    d=" M 1169.43 1321.65 C 1184.59 1318.07 1200.95 1323.48 1212.58 1333.45 C 1226.40 1345.37 1233.23 1365.10 1229.01 1382.95 C 1225.25 1401.48 1210.35 1417.17 1192.02 1421.82 C 1174.44 1426.59 1154.52 1421.25 1141.96 1407.98 C 1128.26 1394.33 1123.76 1372.62 1130.50 1354.56 C 1136.49 1337.75 1151.85 1324.74 1169.43 1321.65 Z"
  />
  <path
    fill="#ff002c"
    stroke="#ff002c"
    stroke-width="0.09375"
    opacity="1.00"
    d=" M 811.38 1331.58 C 819.53 1329.92 828.22 1329.84 836.03 1333.02 C 851.90 1338.78 863.43 1355.08 862.89 1372.06 C 863.56 1390.36 850.17 1407.74 832.59 1412.42 C 821.20 1415.38 808.50 1413.89 798.58 1407.35 C 783.59 1398.04 775.87 1378.46 780.78 1361.47 C 784.44 1346.88 796.67 1334.82 811.38 1331.58 Z"
  />
  <path
    fill="#ff002c"
    stroke="#ff002c"
    stroke-width="0.09375"
    opacity="1.00"
    d=" M 1168.42 1331.60 C 1183.13 1328.02 1199.80 1332.63 1209.88 1344.13 C 1217.40 1352.44 1221.35 1363.88 1220.59 1375.05 C 1219.72 1385.85 1214.74 1396.35 1206.55 1403.50 C 1194.40 1414.46 1175.66 1416.98 1160.94 1410.01 C 1150.42 1405.09 1142.17 1395.58 1138.81 1384.47 C 1134.52 1370.34 1138.03 1354.03 1148.39 1343.37 C 1153.76 1337.64 1160.82 1333.56 1168.42 1331.60 Z"
  />
  <path
    fill="#000000"
    stroke="#000000"
    stroke-width="0.09375"
    opacity="1.00"
    d=" M 909.36 1338.54 C 912.85 1337.78 916.45 1338.17 920.00 1338.10 C 975.69 1338.11 1031.37 1338.08 1087.05 1338.12 C 1089.13 1338.17 1091.52 1338.31 1093.04 1339.97 C 1094.87 1341.78 1094.57 1344.56 1094.68 1346.93 C 1094.60 1363.91 1094.73 1380.90 1094.63 1397.88 C 1094.87 1401.90 1090.75 1404.29 1087.17 1404.25 C 1029.44 1404.34 971.71 1404.26 913.98 1404.30 C 910.10 1404.59 905.12 1402.42 905.37 1397.88 C 905.31 1380.24 905.33 1362.59 905.36 1344.95 C 905.18 1342.24 906.52 1339.22 909.36 1338.54 Z"
  />
  <path
    fill="#ff002c"
    stroke="#ff002c"
    stroke-width="0.09375"
    opacity="1.00"
    d=" M 589.17 1370.15 C 597.10 1379.46 605.82 1388.17 615.76 1395.31 C 617.39 1399.60 617.43 1404.39 618.51 1408.87 C 621.23 1423.68 624.46 1438.40 628.03 1453.04 C 616.82 1441.36 607.44 1427.87 600.97 1413.00 C 594.89 1399.40 591.86 1384.72 589.17 1370.15 Z"
  />
  <path
    fill="#ff002c"
    stroke="#ff002c"
    stroke-width="0.09375"
    opacity="1.00"
    d=" M 1384.24 1395.32 C 1394.17 1388.17 1402.90 1379.46 1410.83 1370.15 C 1407.98 1385.69 1404.66 1401.34 1397.82 1415.69 C 1391.43 1429.51 1382.50 1442.06 1371.97 1453.04 C 1375.11 1440.12 1378.02 1427.15 1380.51 1414.09 C 1381.99 1407.89 1382.30 1401.36 1384.24 1395.32 Z"
  />
  <path
    fill="#ff002c"
    stroke="#ff002c"
    stroke-width="0.09375"
    opacity="1.00"
    d=" M 668.43 1394.42 C 670.86 1392.13 673.99 1394.22 676.08 1395.90 C 683.49 1402.14 690.13 1409.23 696.82 1416.22 C 706.73 1426.34 716.03 1437.58 721.04 1450.99 C 723.70 1458.34 725.92 1466.05 725.82 1473.95 C 725.60 1485.53 726.76 1497.36 723.38 1508.63 C 721.22 1516.57 718.21 1524.48 713.27 1531.14 C 710.21 1535.33 705.31 1538.56 699.94 1538.04 C 691.97 1537.35 684.86 1533.08 678.64 1528.33 C 669.49 1521.29 662.07 1511.90 657.82 1501.14 C 654.75 1493.34 652.85 1485.13 651.59 1476.87 C 648.33 1456.82 651.82 1436.37 657.17 1417.00 C 659.73 1409.03 662.20 1400.35 668.43 1394.42 Z"
  />
  <path
    fill="#ff002c"
    stroke="#ff002c"
    stroke-width="0.09375"
    opacity="1.00"
    d=" M 1326.36 1394.24 C 1328.91 1392.22 1332.01 1394.17 1333.59 1396.43 C 1338.54 1403.01 1341.14 1411.00 1343.36 1418.84 C 1348.33 1437.66 1351.60 1457.46 1348.41 1476.87 C 1346.12 1492.25 1341.43 1508.00 1330.67 1519.69 C 1323.99 1526.89 1316.03 1533.33 1306.67 1536.63 C 1301.95 1538.31 1296.34 1538.90 1291.94 1536.05 C 1286.60 1532.53 1283.52 1526.66 1280.94 1521.02 C 1276.54 1510.94 1273.91 1499.97 1274.19 1488.94 C 1274.32 1482.38 1273.97 1475.81 1274.36 1469.27 C 1276.14 1454.21 1282.74 1439.97 1292.33 1428.30 C 1298.90 1420.26 1306.30 1412.96 1313.54 1405.54 C 1317.67 1401.63 1321.52 1397.30 1326.36 1394.24 Z"
  />
  <path
    fill="#000000"
    stroke="#000000"
    stroke-width="0.09375"
    opacity="1.00"
    d=" M 989.52 1442.74 C 1009.15 1440.43 1029.63 1445.63 1045.59 1457.35 C 1059.68 1467.54 1070.14 1482.60 1074.83 1499.34 C 1079.45 1516.14 1078.50 1534.56 1071.67 1550.64 C 1064.83 1567.11 1052.13 1581.03 1036.39 1589.39 C 1021.61 1597.44 1004.21 1600.04 987.63 1597.64 C 971.84 1595.19 956.85 1587.78 945.41 1576.62 C 933.60 1565.29 925.49 1550.14 922.75 1534.00 C 919.46 1515.31 923.15 1495.43 933.27 1479.33 C 945.40 1459.66 966.59 1445.80 989.52 1442.74 Z"
  />
  <path
    fill="#ff002c"
    stroke="#ff002c"
    stroke-width="0.09375"
    opacity="1.00"
    d=" M 997.20 1452.15 C 1012.88 1451.24 1028.65 1456.30 1041.12 1465.80 C 1055.99 1476.96 1065.93 1494.48 1067.80 1512.99 C 1069.97 1531.04 1064.30 1549.80 1052.79 1563.84 C 1042.93 1576.03 1028.72 1584.53 1013.38 1587.67 C 996.10 1591.02 977.51 1587.93 962.70 1578.27 C 946.85 1568.30 935.62 1551.48 932.21 1533.10 C 929.41 1517.16 931.95 1500.21 940.21 1486.19 C 948.79 1471.23 963.23 1459.48 979.98 1455.00 C 985.55 1453.25 991.37 1452.45 997.20 1452.15 Z"
  />
  <path
    fill="#ff002c"
    stroke="#ff002c"
    stroke-width="0.09375"
    opacity="1.00"
    d=" M 627.41 1534.02 C 636.77 1540.26 648.02 1544.11 659.36 1543.22 C 664.77 1554.71 670.75 1565.95 677.37 1576.80 C 663.08 1574.26 649.89 1566.58 640.51 1555.53 C 634.96 1549.15 630.80 1541.72 627.41 1534.02 Z"
  />
  <path
    fill="#ff002c"
    stroke="#ff002c"
    stroke-width="0.09375"
    opacity="1.00"
    d=" M 1340.64 1543.22 C 1351.99 1544.11 1363.25 1540.26 1372.61 1534.00 C 1367.09 1546.93 1358.63 1558.89 1346.89 1566.86 C 1339.66 1571.92 1331.29 1575.11 1322.66 1576.80 C 1329.22 1565.92 1335.24 1554.71 1340.64 1543.22 Z"
  />
  <path
    fill="#ff002c"
    stroke="#ff002c"
    stroke-width="0.09375"
    opacity="1.00"
    d=" M 704.24 1557.25 C 705.87 1553.75 707.70 1549.18 712.00 1548.47 C 717.45 1549.16 721.61 1553.13 725.76 1556.38 C 725.83 1568.26 725.79 1580.13 725.78 1592.01 C 725.63 1600.86 729.02 1609.63 734.69 1616.37 C 740.51 1623.22 749.09 1627.30 757.90 1628.60 C 764.68 1629.82 771.62 1628.92 778.43 1629.72 C 781.10 1631.62 783.17 1634.27 784.98 1637.00 C 787.01 1640.12 788.43 1644.59 785.79 1647.82 C 781.64 1653.05 775.44 1656.02 769.82 1659.37 C 748.91 1643.84 729.82 1625.78 713.42 1605.52 C 709.54 1600.36 705.15 1595.49 702.03 1589.83 C 698.27 1579.26 700.30 1567.47 704.24 1557.25 Z"
  />
  <path
    fill="#ff002c"
    stroke="#ff002c"
    stroke-width="0.09375"
    opacity="1.00"
    d=" M 1274.24 1556.37 C 1278.40 1553.13 1282.54 1549.16 1287.99 1548.47 C 1291.53 1548.92 1293.36 1552.39 1294.84 1555.23 C 1298.16 1562.33 1299.83 1570.18 1299.96 1578.00 C 1299.76 1583.14 1299.37 1588.73 1296.12 1592.99 C 1277.84 1618.43 1255.29 1640.69 1230.18 1659.37 C 1224.55 1656.02 1218.34 1653.05 1214.20 1647.81 C 1210.95 1643.62 1213.85 1638.19 1216.67 1634.65 C 1218.66 1632.52 1220.47 1629.10 1223.87 1629.47 C 1232.50 1629.23 1241.39 1629.74 1249.66 1626.76 C 1265.04 1622.01 1275.26 1605.91 1274.22 1590.03 C 1274.20 1578.81 1274.16 1567.59 1274.24 1556.37 Z"
  />
  <path
    fill="#000000"
    stroke="#000000"
    stroke-width="0.09375"
    opacity="1.00"
    d=" M 754.40 1579.48 C 761.94 1576.07 771.30 1580.60 774.02 1588.22 C 778.09 1597.01 770.62 1608.39 760.98 1608.39 C 753.28 1609.18 745.68 1602.81 745.32 1595.06 C 744.49 1588.56 748.54 1582.12 754.40 1579.48 Z"
  />
  <path
    fill="#000000"
    stroke="#000000"
    stroke-width="0.09375"
    opacity="1.00"
    d=" M 1234.37 1579.48 C 1243.50 1575.17 1254.84 1583.14 1254.73 1593.00 C 1255.46 1601.14 1248.14 1608.78 1239.99 1608.41 C 1231.37 1608.94 1224.04 1600.47 1224.90 1592.10 C 1225.66 1586.61 1229.27 1581.70 1234.37 1579.48 Z"
  />
  <path
    fill="#ff002c"
    stroke="#ff002c"
    stroke-width="0.09375"
    opacity="1.00"
    d=" M 756.39 1589.48 C 759.22 1587.58 764.16 1587.99 765.34 1591.67 C 766.97 1595.51 762.94 1599.92 758.94 1598.78 C 754.67 1598.29 752.95 1592.07 756.39 1589.48 Z"
  />
  <path
    fill="#ff002c"
    stroke="#ff002c"
    stroke-width="0.09375"
    opacity="1.00"
    d=" M 1236.34 1589.34 C 1239.18 1587.48 1244.33 1588.23 1245.24 1592.00 C 1246.49 1595.70 1242.79 1599.71 1238.97 1598.83 C 1234.45 1598.48 1232.64 1591.98 1236.34 1589.34 Z"
  />
  <path
    fill="#ff002c"
    stroke="#ff002c"
    stroke-width="0.09375"
    opacity="1.00"
    d=" M 821.34 1630.53 C 823.11 1629.68 825.09 1629.66 827.02 1629.68 C 849.67 1629.79 872.34 1629.62 894.99 1629.76 C 897.22 1629.59 898.69 1631.48 900.28 1632.73 C 906.38 1637.91 912.46 1643.35 916.78 1650.18 C 918.52 1653.12 919.86 1656.84 918.33 1660.18 C 916.07 1665.33 911.41 1668.86 907.08 1672.22 C 897.17 1679.53 886.04 1684.97 874.71 1689.70 C 869.29 1691.87 863.40 1693.81 857.50 1692.74 C 851.14 1691.59 845.41 1688.35 839.99 1684.98 C 829.97 1678.63 821.29 1670.41 813.40 1661.61 C 810.19 1657.93 807.17 1653.84 805.97 1649.04 C 804.75 1644.66 806.85 1640.05 809.86 1636.92 C 813.13 1633.94 817.33 1632.27 821.34 1630.53 Z"
  />
  <path
    fill="#ff002c"
    stroke="#ff002c"
    stroke-width="0.09375"
    opacity="1.00"
    d=" M 959.37 1630.31 C 961.07 1629.38 963.15 1629.80 965.03 1629.68 C 990.00 1629.92 1015.02 1629.35 1039.96 1629.96 C 1045.41 1633.37 1050.32 1637.64 1055.22 1641.81 C 1060.50 1646.82 1066.40 1652.42 1067.36 1660.03 C 1067.48 1666.12 1063.13 1671.05 1059.22 1675.26 C 1048.69 1686.22 1034.83 1693.12 1021.11 1699.23 C 1014.32 1701.93 1007.35 1704.71 1000.00 1705.18 C 992.63 1704.71 985.66 1701.93 978.88 1699.22 C 963.88 1692.55 948.60 1684.84 937.88 1672.03 C 934.73 1668.15 931.55 1663.19 932.98 1657.98 C 934.96 1650.85 940.64 1645.64 945.91 1640.80 C 950.27 1637.15 954.65 1633.49 959.37 1630.31 Z"
  />
  <path
    fill="#ff002c"
    stroke="#ff002c"
    stroke-width="0.09375"
    opacity="1.00"
    d=" M 1102.50 1630.47 C 1103.76 1629.47 1105.49 1629.79 1107.00 1629.68 C 1129.33 1629.73 1151.67 1629.72 1174.00 1629.69 C 1178.36 1629.61 1182.15 1632.14 1185.95 1633.97 C 1190.57 1636.19 1194.00 1640.83 1194.40 1645.99 C 1194.24 1651.78 1190.71 1656.77 1187.10 1661.03 C 1177.34 1672.05 1166.24 1682.18 1153.08 1688.96 C 1147.54 1691.81 1141.20 1693.95 1134.92 1692.67 C 1127.89 1691.33 1121.45 1688.06 1115.00 1685.12 C 1105.34 1680.56 1095.96 1675.16 1087.88 1668.13 C 1084.68 1665.16 1081.23 1661.60 1080.98 1657.00 C 1081.19 1652.10 1084.46 1648.08 1087.47 1644.49 C 1091.90 1639.23 1097.20 1634.80 1102.50 1630.47 Z"
  />
  <path
    fill="#ff002c"
    stroke="#ff002c"
    stroke-width="0.09375"
    opacity="1.00"
    d=" M 701.32 1646.17 C 710.53 1646.48 720.98 1648.17 728.80 1642.02 C 744.72 1657.44 762.23 1671.20 780.86 1683.21 C 753.03 1674.00 726.22 1661.67 701.32 1646.17 Z"
  />
  <path
    fill="#ff002c"
    stroke="#ff002c"
    stroke-width="0.09375"
    opacity="1.00"
    d=" M 1271.20 1642.02 C 1279.02 1648.17 1289.46 1646.48 1298.68 1646.17 C 1273.78 1661.66 1246.98 1673.99 1219.15 1683.20 C 1237.78 1671.19 1255.28 1657.44 1271.20 1642.02 Z"
  />
  <path
    fill="#ff002c"
    stroke="#ff002c"
    stroke-width="0.09375"
    opacity="1.00"
    d=" M 878.35 1712.05 C 889.35 1710.26 899.53 1704.93 907.65 1697.35 C 911.01 1705.21 915.27 1714.07 923.97 1717.04 C 933.64 1720.37 943.93 1714.43 949.37 1706.52 C 954.50 1714.40 960.22 1722.08 967.67 1727.94 C 937.46 1725.71 907.48 1720.35 878.35 1712.05 Z"
  />
  <path
    fill="#ff002c"
    stroke="#ff002c"
    stroke-width="0.09375"
    opacity="1.00"
    d=" M 1083.39 1712.36 C 1087.67 1708.24 1089.89 1702.61 1092.38 1697.35 C 1100.47 1704.96 1110.66 1710.25 1121.66 1712.05 C 1092.52 1720.35 1062.54 1725.71 1032.33 1727.94 C 1039.77 1722.08 1045.50 1714.40 1050.62 1706.52 C 1054.88 1712.51 1061.42 1717.29 1068.91 1717.94 C 1074.28 1718.47 1079.64 1716.13 1083.39 1712.36 Z"
  />
</svg>
