<svg xmlns="http://www.w3.org/2000/svg" viewBox="0 0 2000 2000">
  <path fill="#ededed" stroke="#ededed" stroke-width=".094" d="M0 0h2000v2000H0V0Z"/>
  <path stroke="#000" stroke-width=".094" d="M1046.94 78.95c8.09-7.43 17.77-14.22 29.04-15.17 4.8.58 9.81 2.25 12.9 6.2 3.8 4.44 4.5 10.43 5.29 15.99.02 1.7.01 3.4-.01 5.1-2.38 22.97-7.41 45.72-7.74 68.89-.31 12.32-.23 24.67 1.03 36.93 30.3-31.22 62.72-61.11 100.7-82.79 13.64-7.58 28.06-14.99 43.85-16.39 5.45.3 11.37 1.92 14.94 6.36 2.76 3.63 4.24 8.48 3.06 12.99-2.35 9.66-8.8 17.54-14.69 25.28-12.78 15.94-25.67 31.81-37.53 48.45-6.71 9.18-12.74 18.84-19.25 28.16 12.6-7.02 26.04-13.07 40.43-15.13 1.7-.05 3.41-.07 5.14-.05 4.22 1.02 8.77 1.94 11.99 5.13 4.95 4.4 6.52 11.72 4.71 17.98-2.81 10.36-8.98 19.32-14.23 28.55-8.25 13.74-15.78 27.91-22.63 42.4 47.28-26.66 100.11-43.14 154.01-49.1 12.89-.41 26.36-1.9 38.71 2.76 5.84 2.08 11.25 6.99 11.86 13.45.8 6.28-3.03 12.05-7.62 15.95-6.73 5.59-14.54 9.64-22.18 13.81-33.74 17.65-66.12 38.13-95.4 62.54-15.12 12.52-29.33 26.09-42.83 40.33-10.65 11.21-19.96 23.6-30.03 35.32 34.18-13.34 69.92-23.35 106.5-27 6.33-.52 12.69-.31 19.01-1.06 16.56.39 33.58 1.61 49 8.25 6.72 2.98 13.41 7.68 15.74 15.01 2.63 7.46-1.32 15.74-7.48 20.14-8.93 6.4-19.61 9.56-29.85 13.17-43.87 14.38-86.15 33.24-127.13 54.43 3.19 2.43 6.16 5.42 7.45 9.31 2.29 6-1.35 12.83-6.69 15.83-6.05 3.44-12.85 5.53-19.7 6.63-.71.29-1.4.62-2.04.98 11.57-.45 23.04 1.73 34.31 4.14 15.22 3.6 30.08 9.15 43.53 17.17 10.14 6.17 19.7 15.06 22.17 27.17.05 5.72-2.41 11.67-7.33 14.86-6.43 4.18-14.49 4.84-21.94 4.18-3.98-.85-8.07-.62-12.09-1-10.72-1.34-21.59-.49-32.37-.72 7.06 2.03 13.53 5.67 20.04 9.02 11.97 6.57 23.41 14.3 33.29 23.79 4.34 4.4 8.5 9.18 11.06 14.87 2.31 4.96 2.21 11.26-1.19 15.71-2.65 3.75-7.2 5.48-11.55 6.34-7.79 1.1-15.53-.82-23.31-.98-4.26-1.01-8.66-.65-12.97-1-4.58-.91-9.26-.62-13.88-.69-4.98.08-10.01-.3-14.91.7-5.08.15-10.14.49-15.15 1.33 5.95 4.11 11 9.36 15.86 14.68 6.75 8.02 13.26 17.12 14.41 27.85-.49 5.53-3.45 11.22-8.88 13.27-7.79 3.19-15.85-.76-23.52-2.28 15.08 8.73 28.45 20.11 41.03 32.1 28.33 27.5 51.6 60.01 69.96 94.91 19.06 37.31 33.29 77.05 42.62 117.89 6.47 26.96 9.79 54.55 12.65 82.06.39 4.66.01 9.39 1 14 .53 9.64-.09 19.33.99 28.95.6 5.71.06 11.59 1.66 17.17 1.29 4.94 5.65 8.39 10.36 9.91 38.85 12.6 71.85 42.16 88.58 79.42 9.92 21.97 16.02 45.61 18.67 69.55 4.49 42.95-3.25 86.38-17.62 126.84-9.39 26.94-22.13 52.56-36.12 77.37 19.15 2.5 38.25 5.36 57.37 8 4.41.66 9.15 2.05 11.9 5.85 2.51 3.08 2.55 7.25 2.54 11.04-.09 103.36-.12 206.72-.25 310.07-.26 3.82-1.84 7.85-5.16 10.02-3.02 2.03-6.65 2.81-10.06 3.91-104.79 31.49-209.56 63.03-314.35 94.53-4.64.97-8.83 3.6-13.55 4.11-11.4-.3-22.68-2.17-34.06-2.61-3.62-.9-7.37-.73-11.04-.99-18.62-1.93-37.3-3.6-55.98-5.01-3.64-.85-7.39-.75-11.08-.97-19.24-2.11-38.59-3.49-57.87-5.39-18.04-1.41-36.04-3.41-54.1-4.64-8.62-1.25-17.37-1.47-26.01-2.56-10.02-.55-19.96-2.04-29.98-2.42a1975.44 1975.44 0 0 0-55.99-5.01c-3.63-.88-7.37-.76-11.06-.98-14.93-1.62-29.93-2.95-44.92-4.02-3.63-.88-7.36-.76-11.04-1-14.95-1.58-29.95-2.94-44.95-4-3.63-.89-7.37-.76-11.06-.98-8.6-1.29-17.33-1.43-25.95-2.58-10.04-.55-20-2.02-30.04-2.43-4.59-1.07-9.35-.63-13.96-1.49-14.03-.93-27.98-2.76-42.02-3.52-3.63-.87-7.37-.76-11.06-.98a1246.75 1246.75 0 0 0-44.93-4.02c-3.61-.89-7.36-.75-11.04-1-8.95-1.32-18.04-1.47-27.02-2.65-5.68-.34-12.46-.14-16.65-4.65-4.86-5.49-2.29-13.36-3.06-19.96l-.41-.64c.01-17.79-.09-35.58-.59-53.37l-.4-.62c-.07-17.44.04-34.88-.67-52.3-.81-13.58-.13-27.23-.59-40.83-.18-4.76-.32-9.5-.34-14.24l-.41-.63c-.07-17.44.06-34.87-.66-52.29-.8-13.52-.13-27.1-.59-40.64-.18-4.82-.32-9.63-.34-14.44l-.4-.64c.02-10.06-.12-20.12-.12-30.18-.04-4.35.98-9.01 4.21-12.13 2.59-2.74 6.47-3.45 9.99-4.2 55.72-10.8 111.42-21.69 167.14-32.48 6.51-1.13 13.07-2.97 18.58-6.74 4.53-3.14 7.32-8.93 6.28-14.43-1.04-4.35-3.84-7.98-6.51-11.46-12.44-15.38-23.34-32.01-32.43-49.58-9.53-18.35-18.32-37.14-25.21-56.65-6.82-19.22-12.73-38.76-17.76-58.52-9.28-37.41-15.42-75.55-20.16-113.78.2-5.64-3.93-9.89-6.18-14.69-9.36-17.32-13.88-36.8-15.78-56.26-1.47-19.92-.6-40.15 4.74-59.48 4.71-17.89 12.43-34.94 22.48-50.45 2.26-3.61 5.26-6.93 6.04-11.24a604.646 604.646 0 0 1 25.07-78.64c8.88-22.77 20.2-44.49 32.6-65.52 22.53-38.85 50.97-74.84 86.69-102.39 12.46-9.67 25.63-18.42 39.33-26.22-3.6-3.17-4.22-8.45-2.05-12.6-11.6 4.97-22.83 11.81-35.69 12.78-7.75.16-16.15-3.98-18.73-11.69-2.45-5.94-1.05-12.46 1.13-18.25 2.01-5.05 4.75-9.79 7.97-14.16-5.74 1.1-11.61 1.02-17.37 1.92-6.7.19-13.77-.27-19.87-3.29-5.21-2.54-8.76-8.01-8.96-13.8-.28-6.35 2.98-12.18 6.85-16.98 8.31-10.18 19.93-17.01 31.84-22.18 14.65-6.32 30.42-9.91 46.33-10.93-9.59-4.01-19.96-5.65-30.26-6.47-11.88-.4-23.89.48-35.62-1.86-5.76-1.25-11.85-3.8-14.95-9.12-3.17-5.11-2.81-11.87.33-16.9 3.72-6.34 10.4-10.19 17.02-12.88-12.24-4.29-25.26-6.53-36.8-12.65-6.32-3.23-12.24-8.71-13.3-16.05-1.03-7.78 4.34-14.84 10.74-18.62 10.66-6.48 23.47-7.3 35.56-8.54 24.39-1.3 48.86 2.43 72.34 8.94-12.64-7.05-25-14.62-37.94-21.12-21.37-11.12-43.71-20.39-66.71-27.55-16.1-5.15-32.61-9.1-48.25-15.6-6.52-2.83-13.53-6.51-16.54-13.35-2.88-5.93-.86-13.13 3.49-17.77 6.19-6.7 15.11-9.84 23.59-12.51 18.86-5.3 38.53-7.6 58.09-7.44 23.59-.33 47.1 3.73 69.68 10.42-10.94-13.55-21.91-27.12-34.23-39.46-28.96-30.01-62.71-55.06-98.49-76.35-13.81-8.37-28.35-15.46-42-24.09-5.31-3.52-10.95-7.42-13.59-13.45-2.27-5.05-1.02-11.38 3.06-15.13 4.72-4.54 11.49-5.69 17.71-6.67 8.93-.56 17.9-.45 26.82.15 36.76 4.02 72.48 15.04 106.15 30.13 31.45 13.81 60.58 32.37 88.31 52.53-7.65-17.16-15.26-34.38-24.43-50.8-9.77-17.96-21.28-34.91-33.4-51.36-10.38-14.11-21.62-27.6-33.99-40.01-14.67-15.07-30.77-28.62-46.43-42.63-6.37-6.01-13.02-12.53-15.68-21.12-2.19-5.75.19-12.51 4.63-16.5 6.02-4.94 14.27-6.03 21.81-5.42 15.13 1.59 29.51 7.03 43.36 13.08 16.65 7.47 32.61 16.5 47.55 26.96-2.29-6.55-2.66-14.43 1.53-20.32 4.3-6.3 12.36-8.48 19.6-8.77 15.01.87 29.04 7.11 42.04 14.26 21.49 11.58 40.43 27.18 58.81 43.08-1.51-9.94-2.81-19.92-4.03-29.89-.11-2.39-.11-4.78-.03-7.17.94-6.65 3.6-14.09 10.39-16.76 6.61-3.31 14.05-.59 20.26 2.3 15.48 7.62 27.97 20.02 38.9 33.14 6.87 8.39 13.23 17.19 19.17 26.27 8.2-17.78 17.37-35.12 27.4-51.94 9.16-15.04 19.05-29.94 32.02-42.01Z"/>
  <path fill="#959898" stroke="#959898" stroke-width=".094" d="M1053.69 107.66c4.94-6.46 10.07-12.84 16.08-18.36.29 5.79-.74 11.51-1.58 17.21-4.3 28.97-8.71 58.08-8.59 87.43-.03 10.69.27 21.37.67 32.05.02 7.98.12 16.38-3.54 23.69-4.1 8.2-10.43 14.94-15.81 22.28-3.81 4.83-7.31 10-11.81 14.22-3.32 3.07-9.15 1.46-10.55-2.79-3.88-10.59-7.12-21.42-10.86-32.06-3.97-12.06-8.07-24.46-7.68-37.31.56-14.49 7.61-27.49 13.72-40.28 11.85-22.85 24.48-45.44 39.95-66.08Z"/>
  <path fill="#959898" stroke="#959898" stroke-width=".094" d="M694.97 121.77c32.04 12.84 62.25 30.41 88.79 52.52 40.44 33.54 73.87 74.87 101.44 119.43 10.33 17.29 20.54 35.22 24.55 55.18 3.94 17.09 2.71 34.72 3.09 52.1 1.06 9.3.56 18.69 1.45 28 .13 2.96.4 5.98-.23 8.91-.81 3.8-5.68 6.51-9.12 4.25-4.5-2.86-7.01-7.77-10.11-11.93-9.53-13.4-19.2-26.81-26.43-41.64a284.658 284.658 0 0 1-15.16-37.94c-5.02-16.4-10.87-32.54-17.62-48.3-15.61-35.95-36.29-69.63-60.83-100.16-23.49-29.69-50.22-56.82-79.82-80.42Z"/>
  <path fill="#959898" stroke="#959898" stroke-width=".094" d="M1174.94 152.94c14.81-10.79 30.03-21.2 46.57-29.18-13.14 16.99-27.4 33.08-40.79 49.87-22.2 27.74-41.71 57.65-57.81 89.33-3.03 6.32-6.4 12.5-8.88 19.07-4.33 10.13-7.51 20.73-12.24 30.68-5.29 10.01-15.82 15.29-24.82 21.38-8.82 5.47-16.92 12.17-26.39 16.53-3.42 1.37-7.59 3.12-11.03.92-3.18-2.25-4.24-6.26-5.34-9.77-2.58-9.62-4-19.93-1.37-29.71 1.93-8.35 6.58-15.72 11.53-22.6 15.55-21.86 31.8-43.31 50.01-63.05 24.72-26.68 51.4-51.67 80.56-73.47Z"/>
  <path fill="#959898" stroke="#959898" stroke-width=".094" d="M803.98 131.16c14.91 3.38 28.14 11.54 40.43 20.34 22.34 16.02 42.11 35.47 59.15 57 10.12 14.3 14.59 32.17 14.19 49.56.04 5.95-.38 11.9-.92 17.83-.16 7.57-.4 15.18-1.57 22.67-.7 2.6-1.62 5.69-4.22 6.96-4.2-1.2-6.77-5.05-9.22-8.38-4.75-7.28-9.77-14.42-13.68-22.2-4.41-8.58-7.35-17.8-11.43-26.53-7.15-15.61-14.75-31.03-23.17-45.99-9.63-16.91-20.54-33.08-32.44-48.47-5.8-7.53-12.12-14.68-17.12-22.79Z"/>
  <path fill="#959898" stroke="#959898" stroke-width=".094" d="M924.01 138.06c10.97 8.71 20.34 19.26 28.07 30.92 18.82 27.09 33.96 56.7 45.17 87.72 8.64 24.32 15.5 49.24 22.03 74.21 3.06 11.69 5.58 24.14 2.67 36.12-2.95 11.23-11.31 19.75-18.6 28.36-17.99 21.05-33.16 44.4-45.88 68.98-3.34 5.99-6.09 12.36-10.26 17.84-2.3 3-6.07 5.97-10.07 4.53-3.67-1.23-5.21-5.07-6.48-8.37-2.49-6.16-2.91-12.85-3.51-19.39-3.8-38.84-5.01-77.96-2.84-116.94-.25-11.39 1.18-22.7 1.24-34.08 1.01-8.29.55-16.66 1.56-24.96.37-5.02.16-10.07.6-15.09.98-9.45.54-18.97 1.1-28.44.84-9.8.42-19.64.45-29.45-1.11-12-.41-24.09-1.68-36.07-.35-12.03-1.85-23.98-3.57-35.89Z"/>
  <path fill="#959898" stroke="#959898" stroke-width=".094" d="M1185.93 240.95c9.34-5.04 18.81-10.08 29.05-13.08-7.4 15.71-17.68 29.8-26.4 44.77-9.88 16.26-18.07 33.45-26.54 50.47-8.19 16.07-18.7 31.76-34.05 41.79-3.04 1.82-6.84 4.49-10.29 2.03 1.34-8.45 6.04-15.82 10.04-23.22 4.45-8.02 9.89-15.74 12.21-24.72 1.32-4.48.21-10.49-4.56-12.4-3.64-1.85-7.6-.2-11.38-.06-1.65-.54-4.45-1.25-4.21-3.47.35-5.25 3.41-9.82 6.06-14.21 6.41-9.99 15.45-17.89 24.68-25.2 10.83-8.97 23.23-15.74 35.39-22.7Z"/>
  <path fill="#959898" stroke="#959898" stroke-width=".094" d="M623.85 267.16c36.97 8.79 73.58 19.85 108.11 35.88 33.41 15.75 65.24 35.43 92.45 60.56 21.52 19.97 40.33 42.69 57.55 66.43 16.97 23.43 32.32 48.12 44.81 74.23 1.71 3.3 1.64 10.61-3.66 9.55-7.4-4.38-13.99-10.04-21.26-14.65-14.27-9.58-28.79-18.81-43.81-27.18-13.29-7.6-27.44-13.9-39.6-23.32-11-8.75-17.85-21.25-25.07-33.02-19.84-31.55-45.72-58.88-73.6-83.43-29.27-25.32-61.22-47.81-95.92-65.05Z"/>
  <path fill="#959898" stroke="#959898" stroke-width=".094" d="M1318 278.2c19.51-4.46 39.3-8.36 59.35-8.99-32.47 16.34-64.93 33.19-94.24 54.86-31.45 23.09-59.18 51.01-83.51 81.45-21.3 27.31-40.69 56.4-55.03 88.01-3.18 6.4-7.21 12.86-13.62 16.43-6.55 3.63-14.14 4.42-21.14 6.8-4.47 1.24-8.98 3.38-13.72 2.71-3.36-.52-4.72-4.13-5.65-6.95-2.86-10.61-1.71-21.74-1.01-32.55 3.34-20.49 5.25-41.63 13.66-60.85 7.07-16.67 18.89-30.77 31.54-43.49 22.93-22.39 49.02-41.52 77.02-57.09 33.49-18 69.23-31.95 106.35-40.34Z"/>
  <path fill="#959898" stroke="#959898" stroke-width=".094" d="M1059 360.06c20.92-15.55 42.54-30.88 66.99-40.41-4.39 8.95-9.64 17.44-13.91 26.44-6.91 14.27-12.16 29.28-16.6 44.48-6.84 23.66-11.97 47.84-14.87 72.31-1.78 14.04-2.34 28.19-3.38 42.3-1.09 11.17-3.53 22.61-10.04 31.97-5.52 8.32-13.06 14.96-19.56 22.45-10.78 12.49-19.67 26.61-26.19 41.77-4 9.12-10.3 18.51-20.48 21.2-4.82 1.6-9.45-1.53-12.55-4.95-9.79-11.18-19.6-22.37-30.09-32.9-6.64-6.21-13.62-13.39-14.75-22.85-1.1-13.47 2.79-26.61 5.76-39.59 3.22-11.84 6.02-23.84 10.59-35.26 10.09-27.11 25.2-52.19 43.46-74.56 16.02-19.94 35.31-36.96 55.62-52.4Z"/>
  <path fill="#959898" stroke="#959898" stroke-width=".094" d="M1220.87 451.57c39.47-16.44 82.45-24.26 125.17-23.02 10.53.76 21.23 1.01 31.42 4.11-18.45 7.56-37.48 13.57-56.06 20.77-38.62 14.01-76.63 30.45-111.24 52.77-7 5.04-15.5 8.01-24.12 8.34-6.95-.5-13.81-1.92-20.65-3.2-4.58-.73-9.78-4.06-9.3-9.28 1.24-9.36 5.68-18.83 13.9-23.99 15.55-11.27 33.24-19.12 50.88-26.5Z"/>
  <path fill="#959898" stroke="#959898" stroke-width=".094" d="M634.98 436.7c15.04-3.83 30.6-4.55 46.03-5.03 30.54.4 61.25 4.36 90.32 14.02 53.18 17.42 102.51 45.33 147.09 78.94 3.74 2.84 7.78 5.71 10 9.99 2.72 5.58 3.16 12.85-.8 17.98-1.77 2.32-4.96 2.74-7.66 2.26-8.11-1.13-15.84-3.92-23.67-6.16-9.37-2.77-18.91-4.91-28.31-7.54-17.19-4.94-33.17-13.68-47.04-24.91-27.34-20-56.74-37.43-88.23-50.05-31.61-12.71-64.42-22.4-97.73-29.5Z"/>
  <path fill="#959898" stroke="#959898" stroke-width=".094" d="M1133.17 522.71c21.75-3.81 43.5 2.07 64.77 6.1-16.41 3-31.99 10.52-44.57 21.48-13.2 11.45-23.57 25.73-32.51 40.64-2.86 4.29-6.12 8.92-11.19 10.68-5.66 1.45-11.53.69-17.25.18-10.51-1.03-21.12-1.03-31.58.5-5.31.72-10.6 1.96-15.98 1.73-3.85-.13-7.42-4.19-6.04-8.05 2.31-7.09 6.45-13.41 10.51-19.6 7.86-11.89 18.62-21.49 29.9-30.05 15.88-11.8 34.42-20.17 53.94-23.61Z"/>
  <path fill="#959898" stroke="#959898" stroke-width=".094" d="M696.46 540.49c11.13-1.11 22.31-1.48 33.5-1.26 27.36-.78 54.35 7.03 78.66 19.18 3.4 2 8.13 3.91 8.4 8.49-.71 1.7-2.07 3.2-4.08 2.68-8.35-.69-16.62-2.29-25.02-2.64-8.32-.53-16.71-.58-24.96-1.98-8.75-1.62-17.13-4.85-24.97-9.01-8.56-4.47-17.64-7.74-26.65-11.13-4.88-1.71-9.79-3.38-14.88-4.33Z"/>
  <path fill="#959898" stroke="#959898" stroke-width=".094" d="M825.13 549.38c17.78-.78 35.49 2.06 52.77 6.02 16.63 3.81 32.9 9.55 47.7 18.14 19.47 11.1 34.55 28.14 48.25 45.56 3.12 4.43 6.56 9.26 6.82 14.86.26 3.96-3.01 6.68-5.45 9.3-4.1 3.99-6.51 9.89-12.17 12.03-5.93-2.18-10.77-6.45-16.69-8.64-10.3-3.97-21.18-6.41-32.18-7.35-6.1-.79-12.53-.69-18.21-3.27-5.24-3.05-7.06-9.29-9.57-14.42-7.08-17.28-17.19-33.35-30.01-46.94a178.9 178.9 0 0 0-31.26-25.29Z"/>
  <path fill="#959898" stroke="#959898" stroke-width=".094" d="M1167.98 573.22c9.8-2.49 19.99-2.26 30.01-2.01 20.98-.37 41.98 3.26 61.85 9.98 8.17 2.71 15.98 6.36 23.53 10.49-25.15-4.19-51.8-5.43-76.1 3.52-7.11 2.46-13.4 6.61-19.86 10.34-9.53 5.38-20.8 5.37-31.41 4.89-7.52-.13-15.22-.42-22.35-3.01-1.75-.77-4.36-2.19-3.44-4.5 1.5-5.66 4.99-10.61 8.84-14.93 7.55-8.18 18.35-12.23 28.93-14.77Z"/>
  <path fill="#959898" stroke="#959898" stroke-width=".094" d="M745.83 582.18c10.95-1.96 21.96-3.91 33.13-3.92 20-.42 39.75 4.09 58.63 10.38 7.98 2.57 15.47 6.58 22.19 11.58 7.59 5.69 11.16 14.88 14.61 23.38 1.29 4.11 3.39 8.82 1.42 13.02-5.21.93-10.57.5-15.77 1.45-4.27.56-9.1 1.41-12.88-1.19-5.96-3.95-10.59-9.51-16.03-14.09-13.07-11.66-27.22-22.47-43.37-29.5-13.3-5.76-27.42-10.07-41.93-11.11Z"/>
  <path fill="#959898" stroke="#959898" stroke-width=".094" d="M1023.63 625.74c22.03-9.64 46.6-14.14 70.56-11.21-10.63 13.19-18.38 28.56-23.77 44.57-2.23 5.84-1.78 12.63-5.28 17.96-2.48 3.68-7.46 2.54-11.14 1.96-10.49-2.31-21.45-2.14-31.88.37-5.4 1-11.1 3.27-16.51 1.17-6.84-2.63-13.17-6.38-19.93-9.19-2.67-1.29-5.6-2.4-7.51-4.74-1.46-3.71 1.57-7.16 3.49-10.06 10.82-13.89 26.06-23.69 41.97-30.83Z"/>
  <path fill="#959898" stroke="#959898" stroke-width=".094" d="M1131.94 623.04c24.36-3.5 49.27-.98 73.08 4.86 26.63 6.77 53.08 16.76 75.03 33.66-20.84-3.25-42.07-4.98-63.12-2.99-14.12.79-28.17 2.95-41.87 6.44-9.83 2.54-20.03 2.26-30.08 2.02-15.79-1.03-31.84-.93-47.37 2.41-5.01.97-10.05 2.77-15.21 1.99-1.58-.19-2.51-1.89-2.4-3.35.09-6.04 2.57-11.62 5.1-16.98 3.26-7.7 8.45-14.77 15.48-19.41 9.42-5.74 20.62-7.25 31.36-8.65Z"/>
  <path fill="#959898" stroke="#959898" stroke-width=".094" d="M759.1 642.47c21.12-4.57 43.23-3.91 64.19 1.2 3.16.7 6.16 2.05 8.57 4.25-3.4 5.79-9.25 9.42-13.79 14.2-3.44 3.06-7 7.47-12.1 6.94-5.35-.58-10.15-3.25-15.24-4.78-15.55-4.51-31.66-7.1-47.85-7.44-7.8.65-15.62.92-23.36 2.1 12.22-7.52 25.44-13.66 39.58-16.47Z"/>
  <path fill="#959898" stroke="#959898" stroke-width=".094" d="M824.86 671.83c13.74-13.63 32.89-21.03 52.12-21.55 7.71-.03 15.41-1.09 23.12-.33 5.95.6 12-.1 17.9 1.01 1.09.16 1.98.7 2.65 1.61-24.85.61-49.32 7.86-70.84 20.22-18.42 10.11-34.14 24.21-49.83 38.01 4.84-14.8 13.7-28.19 24.88-38.97Z"/>
  <path fill="#959898" stroke="#959898" stroke-width=".094" d="M847.37 687.27c21.99-14.42 47.98-23.66 74.48-23.29 4.76.32 10.05-.44 13.87 3.09-3.05 4.6-8.27 6.85-12.44 10.23-4.93 3.72-8.76 8.61-12.55 13.43-6 7.35-15.8 9.53-24.64 11.35-9.36 1.8-19.84 3.36-28.53-1.59-4.31-2.56-9.67-3.33-13.39-6.79-2.1-2.54 1.34-5.02 3.2-6.43Z"/>
  <path fill="#959898" stroke="#959898" stroke-width=".094" d="M770.1 680.09c6.89-6.23 17.77-5.93 25.6-1.72 2.46 1.03 2.23 4.35 1.1 6.3-2 2.72-5.42 4.32-8.8 4.08-11.72-.13-23.2 3.47-33.5 8.89 4.84-6.15 9.62-12.45 15.6-17.55Z"/>
  <path fill="#959898" stroke="#959898" stroke-width=".094" d="M924.97 689.98c8.38-8.92 20.67-14.51 33.01-13.75 13.88-.47 26.84 5.93 38.21 13.28-20.99 1.23-40.32 12.02-55 26.64-15.09 14.49-24.96 33.36-39.52 48.3.38-12.73 3.51-25.15 6.66-37.42 3.59-13.05 7.52-26.67 16.64-37.05Z"/>
  <path fill="#959898" stroke="#959898" stroke-width=".094" d="M1085.93 686.9c8.6-6.5 19.63-8.27 30.13-8.87 35.39-3.49 71.11 11.59 95.58 36.92-18.1-6.61-38.84-11.4-57.35-3.65-9.47 4.05-20.3 5.96-30.33 2.89-10.11-3.15-20.18-6.49-30.51-8.84-4.89-1.22-9.7-4.52-11.45-9.39-1.25-3.56 1.14-7.05 3.93-9.06Z"/>
  <path fill="#959898" stroke="#959898" stroke-width=".094" d="M1018.97 693.15c7.62-5.22 17.25-5.26 26.12-4.72 10.38.85 20.97 5.9 26.3 15.17 4.8 8.7 3.1 18.97 3.29 28.47-1.39 15.13-5.39 30.26-13.07 43.45-4.22-8.83-6.16-18.52-9.74-27.6-5.78-16.47-14.7-31.71-25.5-45.39-2.47-3.13-5.76-5.66-7.4-9.38Z"/>
  <path fill="#ededed" stroke="#ededed" stroke-width=".094" d="M984.44 704.57c10.07-2.35 21.62-1.65 30.09 4.83 5.01 4 9.14 9 12.95 14.14 6.43 8.43 9.87 18.62 13.39 28.5 2.37 8.08 5.44 16.68 3.37 25.16-1.26 5.34-6.31 8.54-11.29 9.9-9.51 2.74-19.19 5.01-28.99 6.4-6.98 1-13.92-1.81-18.98-6.54-7.21-6.58-12.75-14.69-18.91-22.2-4.9-6.31-10.08-12.39-15.17-18.55-3.87-4.81-6.86-11.89-3.4-17.73 4-6.83 10.63-11.65 17.2-15.83 6.14-3.62 12.76-6.52 19.74-8.08Z"/>
  <path fill="#ededed" stroke="#ededed" stroke-width=".094" d="M878.93 715.59c5.04-.95 9.97-2.95 15.18-2.63 2.24.04 4.35 1.68 4.44 4.04.54 5.87-1.7 11.49-2.9 17.14-2.4 10.62-5.05 21.45-4.17 32.42.41 4.1 3.02 8.63 7.47 9.18 4.29.77 8.18-1.78 11.04-4.71 5.63-5.72 10.32-12.38 16.47-17.58 2.96-2.27 7.56-5.21 10.68-1.59 6.75 6.94 12.75 14.59 18.79 22.15 4.35 5.84 9.93 11.43 11.17 18.9.77 3.28-1.23 6.4-4.05 7.93-6.54 3.78-14.15 4.92-21.35 6.88-14.17 3.32-28.15 7.4-42.28 10.91-8.05 1.95-16.08 4.6-24.44 4.59-7.05.01-13.42-4.14-17.73-9.47-5.38-6.61-9.15-14.33-13.09-21.83-5.52-10.9-11.2-21.73-16.5-32.75-2.82-5.75-5.64-12.4-3.48-18.84 2.15-6.21 8.4-9.63 14.19-11.84 13.29-4.96 26.8-9.41 40.56-12.9Z"/>
  <path fill="#ededed" stroke="#ededed" stroke-width=".094" d="M1108.64 723.83c1.61-.87 3.2-2.7 5.19-1.69 24.65 7.96 47.8 19.9 70.1 32.95 2.25 1.24 4.72 3.03 4.71 5.91-1.34 3.47-5.52 3.44-8.6 3.83-8.27 1.12-16.89 2.25-24.95-.62-11.2-3.28-19.15-12.2-27.57-19.71-4.57-4.45-9.52-8.49-14.03-12.98-2.22-2.14-3.79-4.83-4.85-7.69Z"/>
  <path fill="#ededed" stroke="#ededed" stroke-width=".094" d="M1084.55 741.55c.93-3.34 2.32-7.73 6.35-8.22 3.82-.77 6.65 2.41 9.41 4.5l.17.43c.32.29.97.88 1.3 1.17l.45.08c2.77 2.67 5.61 5.27 8.49 7.84.25.21.75.64 1 .86 5.15 4.64 10.75 9.73 12.41 16.74.57 2.54-1.4 4.65-3.44 5.8-4.5 2.56-9.76 3.17-14.75 4.17-7.27 1.07-14.5 2.94-21.89 2.62-2.4-.28-5.59-.89-6.37-3.55-.74-3.08.29-6.2 1.08-9.16 2.32-7.66 4.18-15.45 5.79-23.28Z"/>
  <path fill="#ededed" stroke="#ededed" stroke-width=".094" d="M769.18 766.2c9.13-6.06 18.18-12.96 28.93-15.82 5.69-1.97 10.3 3.16 13.07 7.45 8.08 13.61 14.73 28.01 21.75 42.18 3.46 7.66 8.66 15.25 8.27 23.99-.72 7.68-8.03 12.18-14.61 14.57-10.48 3.67-21.15 6.75-31.65 10.37-8.94 2.68-17.75 6.38-27.17 6.88-6.16.41-12.92-1.85-16.21-7.37-5.76-9.32-6.7-20.52-9.21-30.95-1.64-9.16-5.36-19.4 0-28.03 6.67-10.02 17.47-16.08 26.83-23.27Z"/>
  <path fill="#ededed" stroke="#ededed" stroke-width=".094" d="M1186.95 777.95c8.21-1.36 16.89-2.77 24.97.04 8.72 3.07 15.54 9.65 22.17 15.85 11.51 11.55 22.79 23.44 32.48 36.58 2.7 3.35 3.63 8.51.74 12.05-3.49 4.87-9.95 4.96-15.22 6.42-6.08 1.1-12.39 4-18.55 1.72-6.5-1.84-10.4-7.71-14.83-12.34-2.58-3.18-5.38-6.15-8.25-9.05v-.46c-.28-.26-.84-.79-1.11-1.05-.8-.9-1.56-1.77-2.33-2.63-2.18-2.32-4.33-4.64-6.54-6.91l-.03-.35c-.3-.33-.91-.98-1.21-1.31l-.36-.11c-3.62-4.47-7.88-8.35-11.73-12.6-.23-.31-.7-.93-.93-1.23l-.42-.09c-4.14-4.9-9.36-10.4-8.31-17.37.41-4.68 5.5-6.48 9.46-7.16Z"/>
  <path fill="#ededed" stroke="#ededed" stroke-width=".094" d="M1096.91 789.71c12.02-1.74 23.99-4.2 36.14-4.91 9.93-.7 19.79 3.45 26.68 10.55 6.97 7.09 14.29 13.83 21.09 21.09l.71.08-.04.76c.29.25.88.75 1.17 1 6.97 7.78 14.6 15.07 20.49 23.74 2.18 3.63 4.98 8.39 2.53 12.55-3.09 4.23-8.16 6.33-12.78 8.41-8.47 3.11-17.26 5.24-25.92 7.73-21.75 6.06-43.4 12.5-64.96 19.23-8.81 2.73-17.79 5.39-27.07 5.67-7.89.03-15.68-3.8-20.29-10.22-6.92-9.39-13.41-19.09-20.33-28.46-1.64-2.37-3.3-4.7-4.97-7.02-.9-1.27-1.77-2.53-2.65-3.78-.79-1.1-1.58-2.17-2.35-3.25-.9-1.26-1.78-2.51-2.67-3.75-4.24-6.37-9.28-12.27-12.56-19.21-1.83-3.59-1.92-8.6 1.75-11.05 6.57-4.55 14.82-5.28 22.33-7.43 21.09-4.59 42.42-8.09 63.7-11.73Z"/>
  <path fill="#ededed" stroke="#ededed" stroke-width=".094" d="M708.17 824.07c3.5-4.35 7.98-8.83 13.82-9.42 5.22.26 6.93 6.25 7.85 10.5 2.33 9.95 4.67 19.91 6.6 29.94 1.06 4.96-.94 10.24-5.09 13.18-7.92 6.07-17.84 8.46-26.96 12.15-9.7 3.67-19.26 7.69-29.01 11.23-1.61.76-3.08-.53-4.52-1.02-1.08-4.36.23-8.77 2.53-12.49 10.17-18.88 21.65-37.1 34.78-54.07Z"/>
  <path fill="#ededed" stroke="#ededed" stroke-width=".094" d="M968.17 815.27c6.11-1.29 12.86-.37 17.83 3.61 8.37 6.7 14.47 15.7 20.8 24.25 11.28 16.35 24.18 31.58 34.6 48.54 2.4 3.73 3.94 8.81 1.08 12.76-4.41 5.7-11.37 8.59-17.92 11.11-16.31 6.04-32.72 11.79-48.97 17.97-11.21 4.09-22.21 8.73-33.53 12.48-6.02 1.83-13.47 3.08-18.76-1.21-7.17-6-10.83-14.91-15.07-23-8.58-18.29-17.99-36.17-26.64-54.43-2.62-5.96-5.69-12.72-3.17-19.25 1.11-4.6 5.39-7.26 9.23-9.43 9.12-4.97 19.02-8.34 29.06-10.91 17.07-4.47 34.22-8.7 51.46-12.49Z"/>
  <path fill="#ededed" stroke="#ededed" stroke-width=".094" d="M830.49 851.76c7.71-2.69 16.7-1.53 23.22 3.49 7.48 5.78 12.27 14.23 16.53 22.5 9.2 18.39 18.86 36.55 27.84 55.05 2.97 5.9 5.91 12.54 4.05 19.27-1.79 8.66-9.56 14.43-17.32 17.6-17.57 7.33-34.9 15.24-52.49 22.53-7.59 2.96-16.86 5.54-24.27.71-5.9-3.96-10.38-9.64-15.62-14.37-5.76-5.33-9.83-12.23-12.05-19.72-5.09-15.43-9.41-31.1-13.35-46.86-1.76-8.8-3.28-18.13-.63-26.91 2.67-7.53 9.19-13.14 16.27-16.49 15.27-7.34 31.69-11.8 47.82-16.8Z"/>
  <path fill="#ededed" stroke="#ededed" stroke-width=".094" d="M1258.38 861.66c6.32-1.89 13.06-3.07 19.65-2.25 5.44.53 9.24 5.02 12.22 9.19 7.01 10.24 12.28 21.54 17.53 32.74 2.89 6.68 5.94 13.43 7.3 20.62 1.5 7.01-5.2 14.23-12.1 13.91-8.09-2.72-12.46-10.72-17.66-16.92-1.5-1.98-3.04-3.92-4.53-5.87-.83-1.06-1.65-2.1-2.45-3.14-1.51-1.96-3.05-3.87-4.56-5.81-1.33-1.69-2.7-3.36-4.01-5.05-1-1.27-2.01-2.51-3.02-3.75-.23-.3-.69-.9-.92-1.19-5.35-7.15-12.67-13.77-13.86-23.08-.8-4.31 2.36-8.29 6.41-9.4Z"/>
  <path fill="#ededed" stroke="#ededed" stroke-width=".094" d="M1191.94 877.39c7.61-1.92 15.17-4.31 23.02-5.01 5.87-.52 11.38 2.18 16.03 5.52 8.33 5.96 14.93 13.91 21.59 21.6 7.13 8.57 14.17 17.24 20.6 26.36 3.08 4.43 6.17 9.53 5.43 15.18-.56 5.19-5.25 8.46-9.17 11.25-8.65 5.55-17.79 10.31-26.69 15.43-27.56 13.83-55.36 27.19-82.98 40.89-5.05 2.51-10.8 4.77-16.5 3.19-7.39-1.61-12.15-8.04-16.12-13.97-3.46-5.27-6.92-10.54-10.23-15.9-1.07-1.71-2.14-3.4-3.36-4.97-.01-.23-.04-.69-.05-.91-1.03-1.35-2.05-2.7-3.07-4.02l-.01-.92c-.31-.4-.92-1.21-1.23-1.61l-.79-.15.08-1.24c-.95-1.3-1.86-2.6-2.73-3.92-.72-1.09-1.48-2.17-2.21-3.2l-.12-.93-1.2-1.6-.8-.11c.02-.32.07-.94.09-1.25-.97-1.31-1.89-2.62-2.77-3.95-.71-1.07-1.46-2.14-2.2-3.16-.03-.23-.1-.69-.13-.92l-1.2-1.6-.81-.13c.03-.32.1-.97.13-1.3-.33-.39-.97-1.19-1.3-1.59l-.34-.18c-.99-1.75-2.02-3.46-3.13-5.12-.88-1.36-1.76-2.72-2.61-4.07-3.94-5.99-8.52-12.58-7.76-20.12.27-3.67 3.94-5.52 7.07-6.41 34.89-11.27 70.05-21.69 105.47-31.16Z"/>
  <path fill="#ededed" stroke="#ededed" stroke-width=".094" d="M719.84 888.75c6.22-2.07 13.52-4.7 19.76-1.33 5.62 3.98 7.73 11.01 9.91 17.23 3.4 11.75 7 23.45 10.74 35.1 1.23 4.71 3.32 9.31 3.34 14.26.12 2.12-1.81 3.6-3.68 4.05-6 1.62-12.01-.84-17.82-2.11-16.25-4.28-33.43-5.09-49.99-2.29-6.52.98-12.92 3.8-19.62 2.75-2.85-.5-4.66-3.08-5.65-5.58-1.72-4.2-2.41-8.77-2.54-13.28l-.59-.1c-.11-7.04-2.75-14.19-.28-21.12 1.6-4.94 5.95-8.36 10.67-10.14 15.14-6.09 30.39-11.92 45.75-17.44Z"/>
  <path fill="#ededed" stroke="#ededed" stroke-width=".094" d="M1042.2 923.36c4.49-1.4 9.16-3.4 13.95-2.34 4.44 1.24 7.54 4.99 10.15 8.58 11.2 16.3 22.38 32.62 32.96 49.33 1.23 2.15 2.57 4.24 4.11 6.2l.01.84c1.02 1.34 2.03 2.7 3.08 4.06.01.23.05.68.07.91.92 1.3 1.83 2.63 2.74 3.99 2.41 4.44 5.47 8.55 7.35 13.26 1.57 3.88-1.71 8.35-5.7 8.78-4.43-.81-7.54-4.37-10.88-7.06-28.94-26.73-65.92-44.96-105-50.52-14.26-2.46-28.78-2.58-43.19-1.87-2.2.1-4.29.85-6.39 1.4 32.06-12.35 64.21-24.49 96.74-35.56Z"/>
  <path fill="#ededed" stroke="#ededed" stroke-width=".094" d="M643.28 949.31c1.37-3.68 2.76-7.64 5.98-10.14 2.69 1.74 2.1 5.19 2.6 7.94.55 2.28.72 4.61 1.03 6.95 1 5.41 2.51 12.36-2.35 16.43-4.62 3.55-9.15 7.42-14.5 9.85-.48-1.44-1.3-2.92-.73-4.44 2.37-8.94 4.95-17.84 7.97-26.59Z"/>
  <path fill="#ededed" stroke="#ededed" stroke-width=".094" d="M1312.05 949.1c2.28-2.64 6.08-4.02 9.54-3.64 3.99 2.42 5.01 7.48 6.37 11.63 1.4 6.1 4.44 12.43 2.4 18.74-4.97-2.34-7.81-7.22-10.94-11.45-3.17-4.67-7.13-9.4-7.37-15.28Z"/>
  <path fill="#ededed" stroke="#ededed" stroke-width=".094" d="M1269.92 968.9c6.65-3.11 13.53-6.78 21.08-6.54 5.64-.04 11.07 2.76 14.79 6.92 3.51 3.92 6.46 8.3 9.51 12.6 1.44 2.06 2.91 4.11 4.37 6.18 5.87 8.71 12.62 17.08 16.1 27.14 2.35 6.73 3.53 14.35.91 21.19-3.12 9.02-9.33 16.61-16.7 22.53-27.89 23.01-56.7 44.89-85.96 66.12-7.18 5.49-17.54 7.06-25.59 2.53-7.38-3.39-11.68-10.61-15.65-17.31-4.84-8.74-10.09-17.23-15.05-25.9-.65-1.11-1.28-2.19-1.91-3.27-.56-1.03-1.12-2.05-1.64-3.05-2.39-4.02-4.65-8.1-6.95-12.16-4.24-7.7-9.1-15.27-11.28-23.86-1.15-5.48-.79-12.38 4.04-16.05 8.04-6.76 17.74-11.07 26.9-16.08 27.57-13.87 55.28-27.47 83.03-40.99Z"/>
  <path fill="#ededed" stroke="#ededed" stroke-width=".094" d="M688.87 965.39c10.17-2.28 20.76-3.56 31.15-2.07 19.22 1.22 37.65 8.13 54.41 17.38 9.92 5.59 18.19 13.62 25.95 21.86 6.54 7.01 10.88 15.68 17.12 22.94 5.05 5.9 12.73 9.64 20.56 9.38 8.22.34 15.79-3.81 21.89-8.98 11.83-10.08 21.24-22.73 33.51-32.35 14.8-11.64 32-20.76 50.69-24.03 20.6-3.74 41.69-1.25 62.04 2.85 19.53 4.05 38.13 11.96 55.3 22.04 18.04 10.68 34.49 24.44 46.85 41.47 10.96 15.5 15.33 34.43 18.7 52.8 3.86 24.86 2.79 50.84-5.51 74.75-6.01 16.64-14.38 32.64-26.1 46-22.78 26.29-56.13 42.52-90.55 46.21-3.99.77-8.09.47-12.06 1.18-4.1.66-5.87 6.43-2.71 9.21 4.49 4.98 12.24.36 17.04 4.78 4.01 3.6 2.57 9.42 2.4 14.15-.1 4.91 6.61 8.97 10.25 4.85 8.06-7.63 15.51-16.54 25.99-20.93 3.94-1.77 8.66-1.45 12.24 1 6.31 4.25 9.75 11.31 13.41 17.73 7.03 13.02 14.08 26.05 20.43 39.42 1.01 1.98 2 3.98 2.96 6.01.24.5.74 1.51.99 2.02 1.13 2.26 2.24 4.54 3.4 6.82.48 1.06.98 2.13 1.49 3.23.82 1.58 1.63 3.18 2.46 4.78.47 1.07.96 2.14 1.47 3.25.48.9.97 1.83 1.48 2.77.63 1.34 1.29 2.69 1.96 4.05.49 1.03 1.01 2.08 1.54 3.16 2.42 4.96 4.9 9.9 7.29 14.89 3.41 7.63 8.52 15.29 7.65 24.01-.76 6.97-5.86 12.39-11.06 16.61-13.15 10.64-27.26 20.01-41.11 29.68-11.1 7.64-22.3 15.14-33.59 22.48-4.49 2.83-9.42 5.43-14.81 5.82-6.5.49-12.42-3.37-16.56-8.05-4.75-5.47-8.21-11.86-12.08-17.93-4.09-6.69-8.39-13.26-12.11-20.16l-.37-.22c-.54-1.11-1.11-2.2-1.66-3.28-.27-.48-.81-1.45-1.08-1.93-.78-1.34-1.56-2.68-2.33-3.98-.54-1.04-1.08-2.06-1.59-3.05-1.96-3.81-6.03-8.34-3.04-12.67 3.41-3.28 8.61-2.25 12.89-3.17 8.34-.45 15.95-4 23.77-6.53 8.27-2.88 17.19-2.79 25.53-5.39 8.27-1.88 16.08-8.26 17.18-17.05 1.06-10.85-.56-21.76-3.12-32.3-2.65-10.02-5.65-20.18-11.5-28.85-3.13-4.76-7.33-9.19-12.9-10.95-6.62-2.02-13.88.34-18.94 4.84-7.9-9.69-21.07-13-33.09-12.54-13.04.02-27.15 4.82-34.76 15.97-5.62-9.32-16.92-12.81-27.04-14.54-7.02-.74-14.21-2.32-21.2-.51-9.17 1.73-17.51 7.57-22.13 15.7-2.53-7.25-7.93-13.52-15-16.63-6.69-3.26-14.15-4.04-21.46-4.61-11.77-.21-24.74 2.54-32.52 12.15-9.99-13.04-28.43-19.13-44.13-14.02-5.05 1.58-9.7 4.51-13.03 8.65-7.25-8.84-19.43-12.16-30.48-10.84 4.73-17.75 4.54-37-1.39-54.43-9.99-1.76-20.26-1.77-30.03-4.75-17.41-4.42-33.08-13.98-46.56-25.66-14.53-12.79-26.32-28.9-33.04-47.12-14.05-35.76-12.23-77.32 5.16-111.61 9.69-18.87 21.93-36.76 37.98-50.8 13-11.61 28.39-21 45.51-24.96Z"/>
  <path fill="#ededed" stroke="#ededed" stroke-width=".094" d="M877.17 987.06c1.26-.76 3.46-.59 3.89 1.09-.42 1.92-2.1 3.2-3.31 4.63-6.8 6.86-13.31 14.01-20.32 20.66-5 4.49-10.4 9.59-17.47 10.1-5.89-.1-12.7-3.24-14.01-9.52.07-3.44 3.74-5.18 6.32-6.72 14.68-7.35 29.81-13.77 44.9-20.24Z"/>
  <path stroke="#000" stroke-width=".094" d="M699.5 997.66c19.35-2.98 39.62 2.77 54.88 14.96 15.06 11.7 25.57 28.56 31.39 46.58 11.98 36.9 5.07 79.79-19.08 110.35-10.49 13.1-24.42 23.76-40.53 28.87-17.64 5.77-37.57 4.15-53.98-4.54-18.74-9.68-32.68-27.04-40.53-46.39-15.21-37.57-10.05-83.03 14.18-115.7 12.86-17.42 32.02-30.78 53.67-34.13Z"/>
  <path stroke="#000" stroke-width=".094" d="M949.89 1006.84c15.5-3.46 31.81-3.77 47.29.02 16.86 4.11 32.66 12.72 44.97 24.99 4.04 4.03 7.86 8.3 11.16 12.97.94 1.38 1.9 2.75 2.86 4.14.98 1.68 1.96 3.39 2.97 5.08 2.12 3.88 4.04 7.88 5.61 12.03.49 1.24.97 2.5 1.49 3.77.32 1 .67 2.01 1.05 3.03.12.56.37 1.67.49 2.22.5 1.59.92 3.21 1.39 4.83.28 1.67.62 3.33 1.09 4.98 1.55 9.98 1.94 20.15.93 30.22-.58 2.58-.69 5.25-1.3 7.84-.26 1.35-.48 2.72-.69 4.1-.5 1.6-.94 3.22-1.44 4.84-.11.56-.34 1.68-.46 2.23-.38.99-.74 2-1.08 3.02-.37.98-.71 1.97-1.03 2.98-.98 2.32-1.93 4.65-2.84 7-1.57 3.38-3.34 6.66-5.13 9.92-3.02 4.91-6.28 9.68-9.93 14.16-10.63 12.7-24.1 23.07-39.32 29.67-1.69.66-3.37 1.33-5.04 1.99-1.27.45-2.53.9-3.77 1.38-1.03.3-2.04.63-3.04.98-7.22 1.91-14.57 3.76-22.09 3.62-7.97-.11-16.06.58-23.93-.98-1.4-.25-2.79-.47-4.17-.67-4.41-1.17-8.79-2.41-13.07-3.93-1.94-.81-3.87-1.61-5.78-2.43-1.1-.51-2.19-1.02-3.26-1.5-.49-.26-1.46-.79-1.94-1.05l-2-1c-2.77-1.61-5.48-3.31-8.16-5.04-5.19-3.77-10.22-7.79-14.66-12.42-.86-.86-1.73-1.72-2.56-2.53l-.01-.5c-4.26-4.35-7.62-9.45-10.92-14.52l-.03-.84-.68-.2c-.69-1.41-1.38-2.79-2.08-4.16-.26-.48-.79-1.45-1.05-1.94-.49-1.1-.97-2.17-1.44-3.23-.76-1.66-1.49-3.33-2.17-5-.47-1.27-.9-2.53-1.36-3.77-.31-1.02-.63-2.03-.94-3.02-.3-1.05-.6-2.08-.9-3.1-.37-1.35-.73-2.69-1.14-3.99-.19-1.51-.36-3.03-.48-4.53l-.61-.05c-.12-1.99-.27-3.97-.38-5.94l-.61-.02c-.27-8.33-.25-16.65 0-24.98l.62-.03c.11-1.98.26-3.95.39-5.91l.58-.07c.12-1.54.28-3.03.48-4.53.53-1.6.97-3.22 1.44-4.82.67-2.83 1.63-5.57 2.51-8.33.56-1.28 1.12-2.54 1.73-3.79.04-.26.1-.79.13-1.05 1.87-3.67 3.44-7.49 5.6-11.01.53-1.01 1.08-2.01 1.64-2.99 4.07-6.58 8.86-12.67 14.04-18.4l.7-.06-.07-1.05 1.07.07-.02-.74c.31-.31.94-.93 1.25-1.23l.4-.08c7.19-7.21 15.64-13.07 24.62-17.83 2.01-.98 4.03-1.95 6.05-2.92 5.34-2.22 10.79-4.23 16.44-5.55l.59-.35Z"/>
  <path fill="#959898" stroke="#959898" stroke-width=".094" d="M681.02 1015.08c13.19-7.16 28.83-8.81 43.43-5.83-16.57 4.47-31.45 14.95-41.22 29.07-10.86 15.87-14.37 35.74-13.58 54.67 1.61 17.6 4.16 35.54 11.64 51.72 7.15 14.29 17.95 27.72 33.08 33.95 6.43 2.8 13.39 4.26 20.4 4.38-11.73 6.28-25.4 9.41-38.65 7.34-13.38-1.91-25.88-8.61-35.41-18.12-15.16-14.81-23.61-35.48-26.02-56.31-2.35-18.85.42-38.27 7.5-55.87 7.63-18.61 20.83-35.51 38.83-45Z"/>
  <path fill="#959898" stroke="#959898" stroke-width=".094" d="M940.22 1022.18c9.24-4.02 19.21-5.98 29.21-6.82-13.9 5.97-26.13 15.75-35.59 27.51-13.22 17.36-21.05 39.11-20.13 61.05 1.11 16.22 3.92 32.86 12.26 47.08 8.58 15.12 23.3 26.28 39.85 31.35 8.5 2.47 17.24 4.42 26.13 4.55 6.7.29 13.39-.37 20.08-.57-7.35 3.03-14.38 6.92-22.17 8.79-20.59 5.74-43.33 3.38-62.1-6.94-23.21-12.46-39.37-36.3-43.68-62.16-.98-8.1-2.31-16.33-.85-24.47 2.67-34.17 25.26-66.14 56.99-79.37Z"/>
  <path fill="#464b4b" stroke="#464b4b" stroke-width=".094" d="M981.4 1022.66c12.03-2.39 25.53-2.06 36.04 4.99 29.78 18.08 45.49 55.23 39.99 89.3-1.99 13.32-6.58 26.31-13.82 37.69-2.98 4.19-5.46 9.04-9.66 12.15-8.71 4.36-17.97 8.16-27.79 8.88-13.03 1.71-26.31-.21-38.76-4.21-11.39-3.88-21.89-10.97-28.85-20.89-5.31-7.3-8.76-15.81-10.8-24.56-3.2-14.26-4.54-29.25-1.13-43.6 3.57-14.39 10.7-28.04 20.86-38.88 9.54-9.32 20.84-17.52 33.92-20.87Z"/>
  <path fill="#464b4b" stroke="#464b4b" stroke-width=".094" d="M725.36 1023.58c9.61-2.1 19.85.49 27.64 6.38 11.14 8.27 17.89 21.1 22.16 34.02 6.36 19.72 5.84 41.31-.23 61.03-3.3 10.59-7.28 21.16-13.63 30.33-4.32 6.21-10.51 11.26-17.86 13.33-7.38 2.1-15.45 2.89-22.9.79-13.94-4.89-23.54-17.3-29.83-30.13-5.54-12.34-7.73-25.86-9.46-39.18-2.26-17.73-.11-36.8 9.95-51.97 7.51-12.32 19.99-21.61 34.16-24.6Z"/>
  <path fill="#ededed" stroke="#ededed" stroke-width=".094" d="M1128.64 1050.93c-1.49-5.32 5.08-9.35 9.21-5.72 5.89 5.45 8.98 13.16 13.36 19.77.53.97 1.09 1.96 1.66 2.96.97 1.67 1.94 3.36 2.91 5.06.78 1.31 1.58 2.64 2.4 3.98.51.99 1.04 2 1.59 3.03.79 1.3 1.59 2.63 2.4 3.96.51 1 1.05 2.01 1.6 3.05.79 1.3 1.58 2.62 2.39 3.95.51 1.01 1.05 2.02 1.6 3.06 1.15 1.96 2.28 3.95 3.44 5.93.51.99 1.06 2 1.61 3.04.77 1.31 1.54 2.64 2.32 3.98 1.63 3.05 3.29 6.09 5.05 9.08.5.99 1.02 2 1.56 3.02.72 1.27 1.44 2.55 2.18 3.85.72 1.34 1.47 2.71 2.23 4.07l1.08 2c2.85 5.57 6.88 11.38 5.68 17.97-1.41 6.29-6.28 11.07-11.34 14.72-18.6 13.11-37.65 25.57-56.73 37.97-2.01 1.3-4.62 2.72-6.99 1.54-1.71-.83-.71-3.2.01-4.43 9.5-16.67 16.98-34.72 19.91-53.77 1.89-10.22 2.1-20.61 1.96-30.97.22-20.85-4.8-41.36-11.09-61.1Z"/>
  <path fill="#ededed" stroke="#ededed" stroke-width=".094" d="M1331.84 1066.76c3.42-1.89 8.47-3.78 11.6-.34 3.42 4.4 3.41 10.35 3.86 15.65.29 8.64 2.5 17.48.33 26.02-3.48-.83-4.76-4.35-7.16-6.55-4.25-4.27-10.75-6.5-16.63-4.68-7.49 2.31-12.57 8.89-16.46 15.33-7.92 16.33-10.22 34.94-8.78 52.91 1.16 10.03 3.39 20.43 9.58 28.66 3.44 4.61 8.82 8.38 14.81 8.1 7.55.27 13.77-5.29 17.77-11.17 1.93-2.46 2.74-6.35 6.33-6.88.59 4.07-.2 8.11-.52 12.16-.15 7.97-4.71 14.97-9.39 21.1-11.82 14.45-24.53 28.22-38.45 40.66-4.37 3.79-9.03 7.54-14.62 9.32-4.43 1.41-9.85.31-12.74-3.51-1.68-2.36-2.76-5.08-3.99-7.67a572.11 572.11 0 0 1-5.24-10.89c-1.14-2.28-2.25-4.58-3.35-6.85-.67-1.36-1.33-2.69-1.99-4.01-.51-1.1-1.02-2.17-1.49-3.23-.51-.94-.99-1.87-1.47-2.78-.65-1.36-1.3-2.7-1.94-4.03-.68-1.35-1.34-2.69-2-4.01-.99-2.02-1.99-4.02-3-6-.86-1.74-1.73-3.46-2.57-5.18-.69-1.34-1.36-2.68-2.01-4-.83-1.61-1.64-3.21-2.46-4.79-1.21-2.4-2.42-4.79-3.59-7.19-.52-.94-1.02-1.86-1.51-2.76-4.03-8.38-8.08-16.78-11.13-25.57-1.63-4.99-2.26-11.24 1.48-15.47 4.35-5.39 10.48-8.89 15.89-13.07 26.39-19.13 52.37-38.83 77.73-59.3 4.28-3.44 8.52-6.95 13.11-9.98Z"/>
  <path fill="#ededed" stroke="#ededed" stroke-width=".094" d="M727.25 1085.12c5.08-1.76 11.16-1.23 15.49 2.13 3.62 2.53 5.72 6.73 6.56 10.98.9 6.6-2.86 13.42-8.71 16.49-5.52 2.99-12.8 2.34-17.62-1.71-5.03-4-7.7-11.27-5.4-17.43 1.36-4.75 5.1-8.67 9.68-10.46Z"/>
  <path fill="#ededed" stroke="#ededed" stroke-width=".094" d="M988.23 1085.13c5.07-1.77 11.15-1.25 15.48 2.1 3.63 2.51 5.73 6.72 6.58 10.97 1.41 9.33-6.82 18.69-16.29 18.39-10.07.32-18.68-10.57-15.66-20.24 1.22-5.07 5.05-9.34 9.89-11.22Z"/>
  <path fill="#959898" stroke="#959898" stroke-width=".094" d="M1322.04 1112.98c1.92-2.74 5.87-5.45 9.05-3.01 5.43 4.87 6.86 12.48 8.39 19.29-6.36.15-13.12 1.83-17.48 6.78-5.93 6.38-6.26 17-.79 23.78 3.72 5.18 10.23 7.12 16.31 7.64-2.81 8.29-5.69 18.5-14.53 22.22-5.33-2.04-7.53-7.73-9.19-12.71-4.17-13.91-3.87-28.88-.74-42.97 1.63-7.49 4.67-14.69 8.98-21.02Z"/>
  <path stroke="#000" stroke-width=".094" d="M802.96 1156.97c6.03-8.95 14.73-17.83 26.21-18.31 8.74 1.87 16.09 7.95 20.74 15.47 8.85 13.86 16.11 28.66 23.68 43.24 6.43 12.44 12.78 25.43 13.83 39.62.36 6.23-2.38 11.92-4.07 17.74-.21-.11-.62-.32-.83-.43-8.6 13.55-28.32 18.21-42.19 10.28-5.67-3.26-10.3-8.05-13.98-13.4-5.37 5.34-11.65 10.13-19.08 12.1-8.76 2.4-18.64 1.69-26.5-3.09-7.8-4.87-12.24-14.12-12.16-23.19-.73-16.09 5.78-31.34 13.13-45.28 6.43-11.95 13.45-23.61 21.22-34.75Z"/>
  <path fill="#464b4b" stroke="#464b4b" stroke-width=".094" d="M824.23 1147.25c5.11-2.27 10.64.68 14.35 4.19 4.77 4.77 8.01 10.78 11.36 16.57 8.25 14.92 16.22 30.02 23.54 45.42 4.09 9.56 8.36 20.15 5.88 30.7-2.88 11.68-15.82 18.62-27.28 17.01-7.78-1.07-14.31-6.33-18.76-12.56-1.87-2.4-3.91-5.59-7.35-5.47-3.34.61-6.47 2.3-9.93 2.21-8.08.07-15.66-4.83-19.74-11.65-5.49-8.92-6.46-19.99-4.61-30.13 2.97-17 11.6-32.4 21.54-46.28 3.16-3.78 6.2-8.23 11-10.01Z"/>
  <path fill="#ededed" stroke="#ededed" stroke-width=".094" d="M1190.1 1173.08c3.84-1.76 8.45-2.49 12.4-.59 7.33 3.26 12.23 10.06 16.3 16.71 3.96 6.78 7.58 13.77 11.08 20.8.67 1.32 1.34 2.65 2.03 3.99 1 1.99 2 3.99 2.98 6.01.8 1.6 1.62 3.21 2.45 4.82.96 2.01 1.96 4.01 2.98 6.01 1.5 3.06 3.03 6.13 4.49 9.23 1.35 2.65 2.65 5.33 3.93 8.04 3.75 8.1 8.11 16.07 10.15 24.83 2.15 8.81-.21 18.23-5.18 25.68-8.85 13.25-20.71 24.09-32.66 34.47-16.02 14.04-32.3 27.79-48.95 41.08-6.78 5.17-13.82 10.61-22.28 12.61-3.67.92-7.69.33-10.76-1.92-5.18-3.63-8.15-9.43-11-14.88-2.79-5.28-5.36-10.67-8.18-15.92-.51-1.08-1.01-2.14-1.49-3.18-3.13-6.28-6.21-12.58-9.29-18.86-3.43-7.81-7.53-15.3-11.27-22.95-1.31-2.68-2.6-5.35-3.92-8-.68-1.35-1.34-2.68-1.99-4-4.05-8.38-8.17-16.73-11.71-25.33-1.92-5.16-3.87-10.95-1.78-16.36 2.63-7.05 8.41-12.25 14.03-16.98 9.74-7.72 20.38-14.22 30.57-21.32 16.65-11.46 33.54-22.57 50.33-33.83 5.51-3.49 10.74-7.52 16.74-10.16Z"/>
  <path fill="#ededed" stroke="#ededed" stroke-width=".094" d="M1377.06 1183.03c.94-5.88 7.36-10.89 13.21-8.19 15.78 6.61 29.25 17.9 40.1 31 11.88 14.51 19.06 32.23 23.97 50.18 6.66 24.05 8.43 49.33 5.84 74.12-4.17 39.94-17.88 78.35-35.93 114.03-6.57 12.59-13.19 25.2-20.87 37.15-32.47-4.71-64.99-9.21-97.49-13.76-6.44-.97-13.21-2.72-17.99-7.42-2.47-2.77-1.97-6.84-.72-10.04 2.41-6.48 6.15-12.35 9.64-18.28 23.29-37.6 42.9-77.68 55.95-120.02 10.19-31.12 16.08-63.46 19.98-95.91 1.46-10.95 2.21-22.02 4.31-32.86Z"/>
  <path fill="#959898" stroke="#959898" stroke-width=".094" d="M777.78 1219.71c1.9-6.44 4.18-12.8 7.28-18.75-2.91 12.51-1.41 26.36 5.65 37.28 5.05 8.02 13.89 13.32 23.29 14.32-6.81 4-15.07 6.46-22.9 4.23-5.68-1.33-10.97-4.98-13.29-10.47-3.85-8.43-2.23-17.98-.03-26.61Z"/>
  <path fill="#ededed" stroke="#ededed" stroke-width=".094" d="M622.06 1209.09c3.23-.94 6.13 1.54 8.68 3.19 14.18 10.61 29.87 19.65 47.19 23.92 3.83.22 6.06 6.01 2.22 7.89-12.69 6.5-25.58 12.63-38.35 18.98-3.63 1.55-7.55 4.1-11.62 2.74-3.34-1.53-4.48-5.36-4.85-8.71-1.95-13.68-3.86-27.37-5.22-41.12-.29-2.4-.11-5.29 1.95-6.89Z"/>
  <path fill="#ededed" stroke="#ededed" stroke-width=".094" d="M1321.86 1253.85c2.54-2.57 5.4-5.27 9.1-5.94 3.7 1.22 4.53 5.59 4.99 8.98.69 8.73-1.58 17.32-3.52 25.76-3.15 12.06-6.3 24.17-10.77 35.83-2.24 5.32-4.82 10.98-9.63 14.46-3.16 2.31-7.91 1.31-9.99-1.94-2.17-3.42-3.57-7.24-5.25-10.89-.99-2.36-2.02-4.67-3.08-6.98-2.17-5.53-5.85-10.89-5.26-17.08.61-7 5.34-12.66 9.93-17.6 7.9-8.13 15.62-16.43 23.48-24.6Z"/>
  <path fill="#ededed" stroke="#ededed" stroke-width=".094" d="M685.91 1255.81c2.69-1.23 5.32-2.67 8.24-3.31 4.48-.84 9.18 2.87 9.11 7.51.49 8.97-.83 18.09-3.89 26.55-.9 2.79-3.97 3.86-5.7 6.05-4.35 5.12-5.92 11.9-7.35 18.31-2.58 12.93-5.23 26.17-3.45 39.4 1.33 8.21 5.73 16.47 13.57 20.06 9.4 4.36 19.93 5.82 30.2 6.11 2.62 5.87 7.94 10.04 13.93 12.12 6.22 2.42 12.89 3.14 19.44 4.14.4 1.28.8 2.58 1.2 3.91-1.78 1.43-3.68 2.73-5.76 3.69a747.63 747.63 0 0 1-40.99 18.11c-5.66 2.19-11.36 4.72-17.48 5.15-7.18-.01-12.88-5.23-17.13-10.49-6.06-7.92-10.77-16.76-15.35-25.58-8.46-15.85-14.67-32.73-20.39-49.72-4.47-13.42-8.44-27.01-11.59-40.79-1.41-4.65-.62-10.12 2.87-13.64 3.11-3.06 7.03-5.09 10.8-7.21 13.11-7.03 26.28-13.97 39.72-20.37Z"/>
  <path fill="#ededed" stroke="#ededed" stroke-width=".094" d="M703.97 1297.91c5.21-2.74 11.34-2.71 17.07-2.26 5.59.98 11.6 3.9 13.75 9.52.91 1.28.12 2.74-.28 4.06-4.28 11.85-6.35 24.34-8.46 36.72-1.15 6.49-1.96 13.05-1.66 19.66-8.1-.47-16.47-1.55-23.81-5.21-6.57-3.59-7.21-11.81-7.73-18.45.61-11.15 2.41-22.23 5.02-33.09 1.21-3.96 2.2-8.74 6.1-10.95Z"/>
  <path fill="#ededed" stroke="#ededed" stroke-width=".094" d="M753.97 1298.92c6.13-3.26 13.56-4.17 20.22-2.02 7.84 2.36 15.58 7.2 18.55 15.21-3.38 10.37-5.34 21.16-6.53 31.99-1.48 11.21-2.38 22.53-1.56 33.84-9.11 4.68-19.64 3.77-29.5 3.25-6.48-1.32-14.57-2.17-18.3-8.39-3.16-7.28-1.4-15.37-.5-22.92 2.14-12.48 4.12-25.06 8.22-37.07 1.93-5.25 4.39-10.9 9.4-13.89Z"/>
  <path fill="#ededed" stroke="#ededed" stroke-width=".094" d="M819.35 1300.7c9.77-2.08 20.36-1.42 29.52 2.7 7.71 3.53 10.71 12.72 10.46 20.65-.22 10.96.53 21.98-.73 32.9-.51 8.53 1.23 17.74-3.17 25.56-2.19 4.23-7.03 5.99-11.45 6.76-11.39 1.06-22.76-.68-34.02-2.27-5.29-.76-11.04-3.03-13.56-8.07-2.58-7.44-.93-15.28-.69-22.92 1.34-11.89 2.49-23.88 5.69-35.44 1.35-4.38 2.94-8.79 5.64-12.53 2.94-3.95 7.59-6.28 12.31-7.34Z"/>
  <path fill="#ededed" stroke="#ededed" stroke-width=".094" d="M950.53 1311.47c6.5-5.37 15.17-7.51 23.49-7.02 8.84-.56 18.89 1.6 24.4 9.13 6.98 9.3 7.41 21.39 8.88 32.47.26 7.96 1.84 15.94.45 23.9-.36 6.47-2.32 13.75-8.25 17.31-8.28 4.87-18.31 4.54-27.57 3.97-6.88-.92-14.32-1.76-19.94-6.22-3.57-2.7-4.14-7.43-6.36-11.04.22-2.68.79-5.31.87-7.98.29-14.71-.02-29.5-2.69-43.99 1.94-3.68 3.49-7.75 6.72-10.53Z"/>
  <path fill="#ffd400" stroke="#ffd400" stroke-width=".094" d="M888.47 1305.74c8.21-2.81 17.06-.99 25.36.5 7.94 1.49 16.22 6.14 18.52 14.41 3.84 14.1 3.31 28.87 3.35 43.35-.22 7.31-.74 15.37-5.3 21.43-5.32 5.27-13.48 4.94-20.4 5.79-11 .54-22.39.24-32.88-3.37-5.77-1.89-6.25-8.74-6.88-13.83-1.5-8.33.71-16.66.14-25.02-.43-10.36.54-21.02 4.89-30.55 2.56-5.71 7.28-10.54 13.2-12.71Z"/>
  <path fill="#ededed" stroke="#ededed" stroke-width=".094" d="M1265.33 1311.44c4.46-2.53 9.16.88 12 4.24 5.5 6.64 8.87 14.71 12.56 22.43 2.71 6.55 6.17 12.91 7.63 19.91.68 9.61-2.86 18.96-6.87 27.55-15.29 30.26-34.48 58.66-57.58 83.53-8.33 8.68-16.58 17.65-26.63 24.4-3.54 2.16-7.83 4.59-12.06 3.01-5.76-1.96-8.46-7.92-11.06-12.92-7.18-16.14-15.26-31.86-22.94-47.76-6.65-13.8-3.3-31.95 8.1-42.23 30.95-24.55 61.09-50.12 90.07-76.97 2.11-1.9 4.14-4.02 6.78-5.19Z"/>
  <path fill="#ededed" stroke="#ededed" stroke-width=".094" d="M1012.1 1315.24c2.67-3.17 6.87-4.85 10.92-3.35 4.05 2.27 6.35 6.59 8.56 10.51 5.01 10.23 7.81 21.42 9.65 32.63.46 6.75 2.83 14.21-.91 20.46-2.78 3.36-7.42 3.98-11.39 5.01-4.14 1.05-8.46.8-12.59 1.79 3.29-10.11 2.39-20.84 2.21-31.28-1.04-12.09-2.22-24.31-6.45-35.77Z"/>
  <path fill="#ededed" stroke="#ededed" stroke-width=".094" d="M863.35 1390.08c6.03 8.45 16.96 10.26 26.56 11.38 11.71.54 23.53.87 35.15-1.04 7.72-.99 16.55-2.69 23.41 2.11 8.15 5.66 11.91 15.21 16.82 23.45 2.61 4.67 5.19 9.37 7.93 13.98 1.3 2.39 2.63 4.79 4.18 7.05.04.24.12.72.16.95.88 1.3 1.75 2.64 2.62 3.99.5 1.01 1.03 2.03 1.57 3.08.81 1.29 1.62 2.6 2.45 3.93.5 1 1.02 2 1.56 3.06.87 1.32 1.75 2.65 2.68 3.98.04.23.11.7.15.93 3.76 5.61 7.44 12.06 6.49 19.09-1 7.51-6.44 13.39-12.03 18.06-9.25 7.4-19.66 13.13-29.83 19.11-7.12 3.93-13.96 8.46-21.57 11.41-18.42 6.97-38.41 4.59-57.58 3.56-8.08-1.09-16.38-3.11-23.05-8.02-7.09-5.59-11.58-13.65-15.65-21.53-4.82-9.53-9.59-19.09-14.09-28.77-1.89-3.94-3.6-7.95-5.62-11.81-.05-.26-.15-.78-.2-1.05-.98-1.93-1.88-3.9-2.74-5.87-.28-.51-.85-1.54-1.14-2.06-.03-.27-.08-.81-.11-1.08-1.04-1.96-1.9-4-2.95-5.93.01-.35.04-1.03.06-1.37l-1.14-.32c.03-.33.07-1.01.1-1.35-1.07-1.97-1.92-4.03-2.96-5.98-.02-.25-.06-.77-.09-1.02-1.04-1.97-1.88-4.02-2.9-5.98-.03-.25-.1-.74-.14-.99-.83-1.76-1.59-3.54-2.26-5.34l-.75-.35c.03-.34.1-1.03.13-1.37-.71-1.33-1.38-2.64-2.06-3.93-.01-.25-.04-.76-.06-1.02-2.96-5.86-5.16-13.28-1.93-19.48 2.42-4.37 8.01-4.83 12.47-4.91 11.96.38 23.88 2.56 35.88 1.69 7.7-.87 15.78-3.72 20.48-10.24Z"/>
  <path fill="#ededed" stroke="#ededed" stroke-width=".094" d="M754.82 1415.58c4.85-2.07 9.73-5.1 15.25-4.14 5.66.38 8.99 5.68 11 10.4 7.9 18.08 15.35 36.37 23.76 54.24.23.52.7 1.57.94 2.09 1.67 3.63 3.41 7.23 5.06 10.88.77 1.6 1.54 3.22 2.33 4.85 1.82 4.08 3.86 8.05 5.69 12.14l1.47 2.79c.47 1.06.97 2.14 1.47 3.25 2.02 3.81 4.45 8.13 3.04 12.59-1.57 3.72-6.38 3.34-9.66 2.78-7.09-1.57-13.94-4.08-20.63-6.84-28.31-11.89-53.78-30.07-75.16-52.02-4.1-4.24-8.33-8.44-11.63-13.34-2.52-4.02-4.5-9.18-2.46-13.8 1.84-4.52 6.28-7.12 10.57-8.89 12.96-5.72 25.99-11.28 38.96-16.98Z"/>
  <path fill="#ededed" stroke="#ededed" stroke-width=".094" d="M1126.28 1429.16c4.3-1.04 8.97.29 12.23 3.26a59.95 59.95 0 0 1 10.09 12.97c7.83 13.21 14 27.31 20.9 41.02 2.78 5.94 6.1 11.93 6.55 18.61.3 6.37-4.77 11.54-10.31 13.83-28.35 13.02-59.45 20.55-90.71 20.39-7.68-.32-15.76-.05-22.88-3.36-6.93-3.26-10.94-10.14-15.18-16.15-3.45-5.55-7.7-11.07-8.41-17.77-.32-5.62 3.08-10.79 7.63-13.84 25.76-17.6 52.38-33.95 77.58-52.38 3.86-2.7 7.89-5.39 12.51-6.58Z"/>
  <path fill="#464b4b" stroke="#464b4b" stroke-width=".094" d="M1245.31 1490.87c5.43-1.61 11.07-.45 16.57.02 53.67 7.25 107.27 15.01 160.93 22.34 9.06.44 17.98 2.17 27 3.01 2.83.36 5.78.38 8.48 1.47 2.64 1.18 2.84 5.43.37 6.92-2.45 1.46-5.25 2.16-7.96 2.95-11.8 3.17-23.78 5.62-35.66 8.46-66.4 17.24-132.81 34.45-199.21 51.69-9.18 2.32-18.31 5.06-27.74 6.19-23.54 3.43-47.42 3.14-71.11 1.8-24.72-.53-49.33-3.18-73.98-4.84-148.69-11.42-297.39-22.8-446.09-34.2-6.23-.73-12.72-.63-18.65-2.93-2.81-.9-4.73-4.63-2.58-7.07 2.35-2.64 6.13-3.08 9.39-3.85 19.64-3.46 39.35-6.56 58.89-10.6 12.02-2.18 23.94-5.13 36.1-6.48 44.04-2.69 86.55 11.09 129.14 20.02 47.54 10.6 96.21 15.26 144.83 16.62 50.34 2.04 100.71.04 150.98-2.52 49.68-2.75 99.44-4.16 149.07-7.86 15.77-1.27 31.58-3.01 46.96-6.91 5.78-1.58 11.82-3.52 16.25-7.75 3.23-3 4.11-8.04 2.31-12.02-2.56-4.99-7.57-8.09-12.34-10.69-18.69-9.45-39.39-13.6-59.29-19.6-2.14-.3-2.37-2.49-2.66-4.17Z"/>
  <path fill="#ededed" stroke="#ededed" stroke-width=".094" d="M1003.18 1510.13c4.05-1.72 8.58.06 11.4 3.19 4.93 5.25 8.71 11.43 12.79 17.33 1.36 2.35 3.75 5.16 2.17 7.98-2.25 3.43-6.82 3.62-10.51 3.69-18.36.18-36.74.22-55.1-.18-2.63.18-5.61-1.39-6.19-4.08-.34-2.36 1.97-3.69 3.67-4.71 9.71-5.57 19.35-11.27 29-16.96 4.11-2.35 8.18-4.91 12.77-6.26Z"/>
  <path fill="#464b4b" stroke="#464b4b" stroke-width=".094" d="M1459.5 1535.72c6.46-.52 13.6-2.19 19.62 1.1 3.02 1.54 5.43 4.18 6.77 7.3 2.69 6.23 3.44 13.1 3.31 19.84-.52 43.35-.05 86.71-.67 130.07-.23 26.32-.49 52.65-.59 78.97-.14 9.13.84 18.65-2.56 27.36-2.11 5.44-6.63 9.51-11.54 12.44-9.28 5.55-19.72 8.65-29.93 11.99-12.88 4.56-26.12 7.99-39.21 11.92-66.09 19.26-132.16 38.62-198.28 57.81-9.77 2.69-20.96 5.34-30.43.33-5.14-2.52-5.92-8.81-6.04-13.9.09-83.32.58-166.65 1.04-249.98-.01-7.76 3.62-15.46 9.89-20.1 7.53-5.77 17.2-7.04 26.01-9.9 16.53-5.31 33.46-9.25 50.25-13.7 47.64-12.36 95.29-24.73 142.94-37.09 19.78-4.89 39.34-10.88 59.42-14.46Z"/>
  <path fill="#959898" stroke="#959898" stroke-width=".094" d="M522.41 1563.57c10.11-1.47 20.36.14 30.49.73 191.37 14.68 382.74 29.32 574.11 44.02 9.26.52 19.31 2.78 25.76 9.97 5.25 5.48 7.02 13.33 7.06 20.72-.05 56.35-.26 112.69-.55 169.04.07 23.65-.76 47.29-.44 70.95.3 6.27-1.11 12.84-5.02 17.89-3.18 3.95-8.53 4.86-13.26 5.52-10.89 1.12-21.72-1.02-32.55-1.7-189.37-16.83-378.73-33.7-568.1-50.52-5.68-.61-11.46-1.21-16.81-3.32-4.99-2.73-7.43-8.42-8.01-13.85-1.5-12.95-.63-26.02-.89-39.01-.79-11.2-.55-22.44-.75-33.65-.18-16.79-.31-33.57-.21-50.36-1.06-27.64-.94-55.32-1.02-82.98.26-7.35-.72-14.66-.54-22 .22-9.4-.29-18.81.43-28.19.54-5.87 3.85-12.41 10.3-13.26Z"/>
  <path stroke="#000" stroke-width=".094" d="M554.35 1620.46c2.04-1.12 4.44-.97 6.68-.89 109.84 8.78 219.7 17.37 329.54 26.14 3.2.08 5.31 3.19 5.27 6.2-.08 33.37-.07 66.76-.01 100.14.08 3-1.46 6.59-4.78 7.08-5.66.94-11.32-.6-16.99-.71-101.33-7.99-202.66-15.98-303.99-23.99-4.75-.3-9.52-.6-14.21-1.41-3.63-.7-5.39-4.65-5.2-8.03-.02-32.33-.01-64.66 0-96.99-.09-2.91 1.02-6.08 3.69-7.54Z"/>
  <path stroke="#000" stroke-width=".094" d="M1020.38 1654.52c21.14-3.3 43.46 1.9 61.21 13.82 15.01 9.96 26.81 24.42 34.29 40.76 15.3 33.2 12.55 73.91-6.8 104.9-10.86 17.6-27.07 32.06-46.29 39.9-23.81 9.95-52.04 8.47-74.56-4.17-4.87-2.39-8.84-6.51-14.23-7.76-13.59-3.92-25.83-12.31-34.42-23.54-11.37-14.61-16.23-34.08-13.03-52.32a66.28 66.28 0 0 1 11.63-27.95c1.74-2.31 2.53-5.11 3.16-7.87 7.88-31.05 30.22-58.84 60.39-70.57 6.01-2.4 12.31-3.93 18.65-5.2Z"/>
  <path fill="#ededed" stroke="#ededed" stroke-width=".094" d="M992.86 1676.83c14.55-9.27 32.2-12.84 49.27-11.3 17.93 2.09 34.82 10.94 47.13 24.08 13.72 14.43 22.02 33.59 24.35 53.29 2.78 22.84-2.47 46.62-14.79 66.07-9.57 15.16-23.66 27.62-40.34 34.37-17.54 7.22-37.86 7.51-55.57.69 18.09-2.63 33.21-13.46 48.64-22.43 7.24-4.45 14.75-8.5 21.88-13.11 12.65-11.89 20.03-29.2 20.02-46.55.62-19.29-7.68-38.48-21.55-51.8-11.96-11.49-28.24-18.73-44.92-18.76-7.56-.24-15.3.81-22.03 4.45-16.24 8.31-32.9 15.85-48.7 24.99 7.58-17.8 19.97-33.85 36.61-43.99Z"/>
  <path fill="#ededed" stroke="#ededed" stroke-width=".094" d="M1013.12 1701.58c15.21-3.8 31.87-.32 44.75 8.51 13.24 8.88 22.59 23.2 25.68 38.82 3.89 18.49-1.66 39.09-15.34 52.34-5.5 4.4-12.14 7.12-17.84 11.26 11.19-17.62 13.12-40.64 5.33-59.97-9.36-24.3-33.83-41.86-59.92-42.52 5.84-2.69 11.36-6.07 17.34-8.44Z"/>
  <path fill="#ff002c" stroke="#ff002c" stroke-width=".094" d="M986.14 1719.25c16-2.42 32.8 3.13 45.02 13.56 12.55 10.64 20.05 26.78 20.53 43.18.42 19.54-9.49 39.09-25.88 49.88-15.72 10.84-36.86 12.98-54.53 5.9-15.63-6.12-28.23-19.3-33.64-35.18-5.43-15.12-4.05-32.35 3.44-46.53 8.72-16.88 26.1-28.95 45.06-30.81Z"/>
  <path stroke="#000" stroke-width=".094" d="M588.38 1758.55c9.45-1.38 19.54 2.08 25.94 9.23 7.53 8.24 9.52 21.08 4.53 31.12-3.19 7.05-9.51 11.85-15.38 16.56-7.67 5.96-16.39 11.68-26.45 11.84-6.14-.4-12.29-2.33-17.16-6.18-7.12-5.38-11.08-14.32-11.14-23.14.5-6.56 2.84-13.1 7.32-18 6.01-6.76 13.56-11.88 20.94-17.01 3.35-2.43 7.38-3.65 11.4-4.42Z"/>
  <path stroke="#000" stroke-width=".094" d="M673.47 1767.73c9.69-1.81 20.22 1.69 26.83 9.03 7.16 7.86 9.38 19.87 5.19 29.69-2.48 6.31-7.57 11.14-13.05 14.92-7.17 5.06-13.63 11.87-22.47 13.9-8.01 2.38-16.9.07-23.56-4.74-7.2-5.13-11.27-13.84-11.71-22.55.22-7.85 3.43-15.69 9.28-21.02 5.93-5.48 12.52-10.17 19.04-14.9 3.08-2.27 6.75-3.52 10.45-4.33Z"/>
  <path fill="#ededed" stroke="#ededed" stroke-width=".094" d="M586.61 1771.58c5.36-1.71 11.54-1.94 16.24 1.61 8.1 5.26 8.84 17.49 2.96 24.7-.46-7.64-3.72-15.15-9.46-20.27-2.84-2.63-6.37-4.27-9.74-6.04Z"/>
  <path stroke="#000" stroke-width=".094" d="M759.51 1774.68c9.45-1.65 19.66 1.55 26.29 8.54 8.33 8.59 10.29 22.61 4.34 33.06-4.88 8.66-13.96 13.54-21.56 19.48-5.55 4.49-12.44 7.4-19.63 7.54-7.07-.43-14.09-3.07-19.25-8.01-7.85-7.51-11.22-19.73-7.18-29.98 2.97-9.17 11.32-14.7 18.51-20.37 5.75-4.05 11.28-9.12 18.48-10.26Z"/>
  <path fill="#ededed" stroke="#ededed" stroke-width=".094" d="M672.48 1780.62c5.38-1.74 11.62-2.02 16.36 1.57 8.11 5.25 8.85 17.49 2.97 24.7-.46-7.86-3.92-15.59-9.97-20.71-2.75-2.43-6.09-3.99-9.36-5.56Z"/>
  <path stroke="#000" stroke-width=".094" d="M849.38 1780.54c9.44-1.34 19.51 2.08 25.91 9.21 7.73 8.43 9.6 21.66 4.24 31.82-5.46 9.94-14.8 17.02-24.59 22.37-5.09 3.1-10.9 5.2-16.9 5.37-8.04-.44-16.06-3.87-21.3-10.09-5.96-7.09-8.71-17.24-5.76-26.18 3.07-10.3 11.41-18.08 20.17-23.81 5.88-3.26 11.42-7.62 18.23-8.69Z"/>
  <path fill="#ff002c" stroke="#ff002c" stroke-width=".094" d="M577.21 1782.21c8.99-.6 17.38 7.76 16.52 16.81.63 10.51-10.92 18.94-20.81 15.84-9.6-2.15-15.25-13.85-11.04-22.73 2.37-6.21 8.94-9.66 15.33-9.92Z"/>
  <path fill="#ededed" stroke="#ededed" stroke-width=".094" d="M758.49 1787.62c5.39-1.74 11.62-2.01 16.35 1.57 8.11 5.26 8.85 17.49 2.97 24.7-.46-7.87-3.93-15.62-10-20.73-2.74-2.42-6.07-3.96-9.32-5.54Z"/>
  <path fill="#ff002c" stroke="#ff002c" stroke-width=".094" d="M663.26 1791.21c7.14-.4 14.02 4.74 15.96 11.59 1.33 5.68.45 12.28-3.92 16.5-5.46 5.92-15.23 6.8-21.74 2.1-6.59-4.5-9.05-14.03-5.29-21.1 2.58-5.78 8.91-8.81 14.99-9.09Z"/>
  <path fill="#ededed" stroke="#ededed" stroke-width=".094" d="M847.43 1793.63c5.41-1.75 11.69-2.04 16.45 1.59 8.09 5.28 8.78 17.48 2.93 24.7-.45-7.41-3.49-14.7-8.93-19.81-2.97-2.91-6.72-4.77-10.45-6.48Z"/>
  <path fill="#ff002c" stroke="#ff002c" stroke-width=".094" d="M749.24 1798.21c6.59-.37 13.02 3.97 15.45 10.07 2.46 6.64.92 15-4.92 19.42-7.26 6.26-19.67 4.33-24.6-3.91-3.74-5.68-3.5-13.55.59-18.97 3.04-4.31 8.38-6.28 13.48-6.61Z"/>
  <path fill="#ff002c" stroke="#ff002c" stroke-width=".094" d="M838.27 1804.21c8.97-.56 17.31 7.78 16.46 16.81.63 10.51-10.93 18.94-20.82 15.84-9.61-2.16-15.25-13.89-11.01-22.76 2.38-6.21 8.98-9.64 15.37-9.89Z"/>
</svg>
