<svg
  width="100%"
  height="100%"
  viewBox="0 0 2000 2000"
  version="1.1"
  xmlns="http://www.w3.org/2000/svg"
>
  <path
    fill="#ededed"
    stroke="#ededed"
    stroke-width="0.09375"
    opacity="1.00"
    d=" M 0.00 0.00 L 2000.00 0.00 L 2000.00 2000.00 L 0.00 2000.00 L 0.00 0.00 Z"
  />
  <path
    fill="#000000"
    stroke="#000000"
    stroke-width="0.09375"
    opacity="1.00"
    d=" M 1046.94 78.95 C 1055.03 71.52 1064.71 64.73 1075.98 63.78 C 1080.78 64.36 1085.79 66.03 1088.88 69.98 C 1092.68 74.42 1093.38 80.41 1094.17 85.97 C 1094.19 87.67 1094.18 89.37 1094.16 91.07 C 1091.78 114.04 1086.75 136.79 1086.42 159.96 C 1086.11 172.28 1086.19 184.63 1087.45 196.89 C 1117.75 165.67 1150.17 135.78 1188.15 114.10 C 1201.79 106.52 1216.21 99.11 1232.00 97.71 C 1237.45 98.01 1243.37 99.63 1246.94 104.07 C 1249.70 107.70 1251.18 112.55 1250.00 117.06 C 1247.65 126.72 1241.20 134.60 1235.31 142.34 C 1222.53 158.28 1209.64 174.15 1197.78 190.79 C 1191.07 199.97 1185.04 209.63 1178.53 218.95 C 1191.13 211.93 1204.57 205.88 1218.96 203.82 C 1220.66 203.77 1222.37 203.75 1224.10 203.77 C 1228.32 204.79 1232.87 205.71 1236.09 208.90 C 1241.04 213.30 1242.61 220.62 1240.80 226.88 C 1237.99 237.24 1231.82 246.20 1226.57 255.43 C 1218.32 269.17 1210.79 283.34 1203.94 297.83 C 1251.22 271.17 1304.05 254.69 1357.95 248.73 C 1370.84 248.32 1384.31 246.83 1396.66 251.49 C 1402.50 253.57 1407.91 258.48 1408.52 264.94 C 1409.32 271.22 1405.49 276.99 1400.90 280.89 C 1394.17 286.48 1386.36 290.53 1378.72 294.70 C 1344.98 312.35 1312.60 332.83 1283.32 357.24 C 1268.20 369.76 1253.99 383.33 1240.49 397.57 C 1229.84 408.78 1220.53 421.17 1210.46 432.89 C 1244.64 419.55 1280.38 409.54 1316.96 405.89 C 1323.29 405.37 1329.65 405.58 1335.97 404.83 C 1352.53 405.22 1369.55 406.44 1384.97 413.08 C 1391.69 416.06 1398.38 420.76 1400.71 428.09 C 1403.34 435.55 1399.39 443.83 1393.23 448.23 C 1384.30 454.63 1373.62 457.79 1363.38 461.40 C 1319.51 475.78 1277.23 494.64 1236.25 515.83 C 1239.44 518.26 1242.41 521.25 1243.70 525.14 C 1245.99 531.14 1242.35 537.97 1237.01 540.97 C 1230.96 544.41 1224.16 546.50 1217.31 547.60 C 1216.60 547.89 1215.91 548.22 1215.27 548.58 C 1226.84 548.13 1238.31 550.31 1249.58 552.72 C 1264.80 556.32 1279.66 561.87 1293.11 569.89 C 1303.25 576.06 1312.81 584.95 1315.28 597.06 C 1315.33 602.78 1312.87 608.73 1307.95 611.92 C 1301.52 616.10 1293.46 616.76 1286.01 616.10 C 1282.03 615.25 1277.94 615.48 1273.92 615.10 C 1263.20 613.76 1252.33 614.61 1241.55 614.38 C 1248.61 616.41 1255.08 620.05 1261.59 623.40 C 1273.56 629.97 1285.00 637.70 1294.88 647.19 C 1299.22 651.59 1303.38 656.37 1305.94 662.06 C 1308.25 667.02 1308.15 673.32 1304.75 677.77 C 1302.10 681.52 1297.55 683.25 1293.20 684.11 C 1285.41 685.21 1277.67 683.29 1269.89 683.13 C 1265.63 682.12 1261.23 682.48 1256.92 682.13 C 1252.34 681.22 1247.66 681.51 1243.04 681.44 C 1238.06 681.52 1233.03 681.14 1228.13 682.14 C 1223.05 682.29 1217.99 682.63 1212.98 683.47 C 1218.93 687.58 1223.98 692.83 1228.84 698.15 C 1235.59 706.17 1242.10 715.27 1243.25 726.00 C 1242.76 731.53 1239.80 737.22 1234.37 739.27 C 1226.58 742.46 1218.52 738.51 1210.85 736.99 C 1225.93 745.72 1239.30 757.10 1251.88 769.09 C 1280.21 796.59 1303.48 829.10 1321.84 864.00 C 1340.90 901.31 1355.13 941.05 1364.46 981.89 C 1370.93 1008.85 1374.25 1036.44 1377.11 1063.95 C 1377.50 1068.61 1377.12 1073.34 1378.11 1077.95 C 1378.64 1087.59 1378.02 1097.28 1379.10 1106.90 C 1379.70 1112.61 1379.16 1118.49 1380.76 1124.07 C 1382.05 1129.01 1386.41 1132.46 1391.12 1133.98 C 1429.97 1146.58 1462.97 1176.14 1479.70 1213.40 C 1489.62 1235.37 1495.72 1259.01 1498.37 1282.95 C 1502.86 1325.90 1495.12 1369.33 1480.75 1409.79 C 1471.36 1436.73 1458.62 1462.35 1444.63 1487.16 C 1463.78 1489.66 1482.88 1492.52 1502.00 1495.16 C 1506.41 1495.82 1511.15 1497.21 1513.90 1501.01 C 1516.41 1504.09 1516.45 1508.26 1516.44 1512.05 C 1516.35 1615.41 1516.32 1718.77 1516.19 1822.12 C 1515.93 1825.94 1514.35 1829.97 1511.03 1832.14 C 1508.01 1834.17 1504.38 1834.95 1500.97 1836.05 C 1396.18 1867.54 1291.41 1899.08 1186.62 1930.58 C 1181.98 1931.55 1177.79 1934.18 1173.07 1934.69 C 1161.67 1934.39 1150.39 1932.52 1139.01 1932.08 C 1135.39 1931.18 1131.64 1931.35 1127.97 1931.09 C 1109.35 1929.16 1090.67 1927.49 1071.99 1926.08 C 1068.35 1925.23 1064.60 1925.33 1060.91 1925.11 C 1041.67 1923.00 1022.32 1921.62 1003.04 1919.72 C 985.00 1918.31 967.00 1916.31 948.94 1915.08 C 940.32 1913.83 931.57 1913.61 922.93 1912.52 C 912.91 1911.97 902.97 1910.48 892.95 1910.10 C 874.33 1908.17 855.64 1906.49 836.96 1905.09 C 833.33 1904.21 829.59 1904.33 825.90 1904.11 C 810.97 1902.49 795.97 1901.16 780.98 1900.09 C 777.35 1899.21 773.62 1899.33 769.94 1899.09 C 754.99 1897.51 739.99 1896.15 724.99 1895.09 C 721.36 1894.20 717.62 1894.33 713.93 1894.11 C 705.33 1892.82 696.60 1892.68 687.98 1891.53 C 677.94 1890.98 667.98 1889.51 657.94 1889.10 C 653.35 1888.03 648.59 1888.47 643.98 1887.61 C 629.95 1886.68 616.00 1884.85 601.96 1884.09 C 598.33 1883.22 594.59 1883.33 590.90 1883.11 C 575.97 1881.50 560.97 1880.16 545.97 1879.09 C 542.36 1878.20 538.61 1878.34 534.93 1878.09 C 525.98 1876.77 516.89 1876.62 507.91 1875.44 C 502.23 1875.10 495.45 1875.30 491.26 1870.79 C 486.40 1865.30 488.97 1857.43 488.20 1850.83 L 487.79 1850.19 C 487.80 1832.40 487.70 1814.61 487.20 1796.82 L 486.80 1796.20 C 486.73 1778.76 486.84 1761.32 486.13 1743.90 C 485.32 1730.32 486.00 1716.67 485.54 1703.07 C 485.36 1698.31 485.22 1693.57 485.20 1688.83 L 484.79 1688.20 C 484.72 1670.76 484.85 1653.33 484.13 1635.91 C 483.33 1622.39 484.00 1608.81 483.54 1595.27 C 483.36 1590.45 483.22 1585.64 483.20 1580.83 L 482.80 1580.19 C 482.82 1570.13 482.68 1560.07 482.68 1550.01 C 482.64 1545.66 483.66 1541.00 486.89 1537.88 C 489.48 1535.14 493.36 1534.43 496.88 1533.68 C 552.60 1522.88 608.30 1511.99 664.02 1501.20 C 670.53 1500.07 677.09 1498.23 682.60 1494.46 C 687.13 1491.32 689.92 1485.53 688.88 1480.03 C 687.84 1475.68 685.04 1472.05 682.37 1468.57 C 669.93 1453.19 659.03 1436.56 649.94 1418.99 C 640.41 1400.64 631.62 1381.85 624.73 1362.34 C 617.91 1343.12 612.00 1323.58 606.97 1303.82 C 597.69 1266.41 591.55 1228.27 586.81 1190.04 C 587.01 1184.40 582.88 1180.15 580.63 1175.35 C 571.27 1158.03 566.75 1138.55 564.85 1119.09 C 563.38 1099.17 564.25 1078.94 569.59 1059.61 C 574.30 1041.72 582.02 1024.67 592.07 1009.16 C 594.33 1005.55 597.33 1002.23 598.11 997.92 C 604.66 971.17 613.05 944.88 623.18 919.28 C 632.06 896.51 643.38 874.79 655.78 853.76 C 678.31 814.91 706.75 778.92 742.47 751.37 C 754.93 741.70 768.10 732.95 781.80 725.15 C 778.20 721.98 777.58 716.70 779.75 712.55 C 768.15 717.52 756.92 724.36 744.06 725.33 C 736.31 725.49 727.91 721.35 725.33 713.64 C 722.88 707.70 724.28 701.18 726.46 695.39 C 728.47 690.34 731.21 685.60 734.43 681.23 C 728.69 682.33 722.82 682.25 717.06 683.15 C 710.36 683.34 703.29 682.88 697.19 679.86 C 691.98 677.32 688.43 671.85 688.23 666.06 C 687.95 659.71 691.21 653.88 695.08 649.08 C 703.39 638.90 715.01 632.07 726.92 626.90 C 741.57 620.58 757.34 616.99 773.25 615.97 C 763.66 611.96 753.29 610.32 742.99 609.50 C 731.11 609.10 719.10 609.98 707.37 607.64 C 701.61 606.39 695.52 603.84 692.42 598.52 C 689.25 593.41 689.61 586.65 692.75 581.62 C 696.47 575.28 703.15 571.43 709.77 568.74 C 697.53 564.45 684.51 562.21 672.97 556.09 C 666.65 552.86 660.73 547.38 659.67 540.04 C 658.64 532.26 664.01 525.20 670.41 521.42 C 681.07 514.94 693.88 514.12 705.97 512.88 C 730.36 511.58 754.83 515.31 778.31 521.82 C 765.67 514.77 753.31 507.20 740.37 500.70 C 719.00 489.58 696.66 480.31 673.66 473.15 C 657.56 468.00 641.05 464.05 625.41 457.55 C 618.89 454.72 611.88 451.04 608.87 444.20 C 605.99 438.27 608.01 431.07 612.36 426.43 C 618.55 419.73 627.47 416.59 635.95 413.92 C 654.81 408.62 674.48 406.32 694.04 406.48 C 717.63 406.15 741.14 410.21 763.72 416.90 C 752.78 403.35 741.81 389.78 729.49 377.44 C 700.53 347.43 666.78 322.38 631.00 301.09 C 617.19 292.72 602.65 285.63 589.00 277.00 C 583.69 273.48 578.05 269.58 575.41 263.55 C 573.14 258.50 574.39 252.17 578.47 248.42 C 583.19 243.88 589.96 242.73 596.18 241.75 C 605.11 241.19 614.08 241.30 623.00 241.90 C 659.76 245.92 695.48 256.94 729.15 272.03 C 760.60 285.84 789.73 304.40 817.46 324.56 C 809.81 307.40 802.20 290.18 793.03 273.76 C 783.26 255.80 771.75 238.85 759.63 222.40 C 749.25 208.29 738.01 194.80 725.64 182.39 C 710.97 167.32 694.87 153.77 679.21 139.76 C 672.84 133.75 666.19 127.23 663.53 118.64 C 661.34 112.89 663.72 106.13 668.16 102.14 C 674.18 97.20 682.43 96.11 689.97 96.72 C 705.10 98.31 719.48 103.75 733.33 109.80 C 749.98 117.27 765.94 126.30 780.88 136.76 C 778.59 130.21 778.22 122.33 782.41 116.44 C 786.71 110.14 794.77 107.96 802.01 107.67 C 817.02 108.54 831.05 114.78 844.05 121.93 C 865.54 133.51 884.48 149.11 902.86 165.01 C 901.35 155.07 900.05 145.09 898.83 135.12 C 898.72 132.73 898.72 130.34 898.80 127.95 C 899.74 121.30 902.40 113.86 909.19 111.19 C 915.80 107.88 923.24 110.60 929.45 113.49 C 944.93 121.11 957.42 133.51 968.35 146.63 C 975.22 155.02 981.58 163.82 987.52 172.90 C 995.72 155.12 1004.89 137.78 1014.92 120.96 C 1024.08 105.92 1033.97 91.02 1046.94 78.95 Z"
  />
  <path
    fill="#959898"
    stroke="#959898"
    stroke-width="0.09375"
    opacity="1.00"
    d=" M 1053.69 107.66 C 1058.63 101.20 1063.76 94.82 1069.77 89.30 C 1070.06 95.09 1069.03 100.81 1068.19 106.51 C 1063.89 135.48 1059.48 164.59 1059.60 193.94 C 1059.57 204.63 1059.87 215.31 1060.27 225.99 C 1060.29 233.97 1060.39 242.37 1056.73 249.68 C 1052.63 257.88 1046.30 264.62 1040.92 271.96 C 1037.11 276.79 1033.61 281.96 1029.11 286.18 C 1025.79 289.25 1019.96 287.64 1018.56 283.39 C 1014.68 272.80 1011.44 261.97 1007.70 251.33 C 1003.73 239.27 999.63 226.87 1000.02 214.02 C 1000.58 199.53 1007.63 186.53 1013.74 173.74 C 1025.59 150.89 1038.22 128.30 1053.69 107.66 Z"
  />
  <path
    fill="#959898"
    stroke="#959898"
    stroke-width="0.09375"
    opacity="1.00"
    d=" M 694.97 121.77 C 727.01 134.61 757.22 152.18 783.76 174.29 C 824.20 207.83 857.63 249.16 885.20 293.72 C 895.53 311.01 905.74 328.94 909.75 348.90 C 913.69 365.99 912.46 383.62 912.84 401.00 C 913.90 410.30 913.40 419.69 914.29 429.00 C 914.42 431.96 914.69 434.98 914.06 437.91 C 913.25 441.71 908.38 444.42 904.94 442.16 C 900.44 439.30 897.93 434.39 894.83 430.23 C 885.30 416.83 875.63 403.42 868.40 388.59 C 862.45 376.33 857.37 363.63 853.24 350.65 C 848.22 334.25 842.37 318.11 835.62 302.35 C 820.01 266.40 799.33 232.72 774.79 202.19 C 751.30 172.50 724.57 145.37 694.97 121.77 Z"
  />
  <path
    fill="#959898"
    stroke="#959898"
    stroke-width="0.09375"
    opacity="1.00"
    d=" M 1174.94 152.94 C 1189.75 142.15 1204.97 131.74 1221.51 123.76 C 1208.37 140.75 1194.11 156.84 1180.72 173.63 C 1158.52 201.37 1139.01 231.28 1122.91 262.96 C 1119.88 269.28 1116.51 275.46 1114.03 282.03 C 1109.70 292.16 1106.52 302.76 1101.79 312.71 C 1096.50 322.72 1085.97 328.00 1076.97 334.09 C 1068.15 339.56 1060.05 346.26 1050.58 350.62 C 1047.16 351.99 1042.99 353.74 1039.55 351.54 C 1036.37 349.29 1035.31 345.28 1034.21 341.77 C 1031.63 332.15 1030.21 321.84 1032.84 312.06 C 1034.77 303.71 1039.42 296.34 1044.37 289.46 C 1059.92 267.60 1076.17 246.15 1094.38 226.41 C 1119.10 199.73 1145.78 174.74 1174.94 152.94 Z"
  />
  <path
    fill="#959898"
    stroke="#959898"
    stroke-width="0.09375"
    opacity="1.00"
    d=" M 803.98 131.16 C 818.89 134.54 832.12 142.70 844.41 151.50 C 866.75 167.52 886.52 186.97 903.56 208.50 C 913.68 222.80 918.15 240.67 917.75 258.06 C 917.79 264.01 917.37 269.96 916.83 275.89 C 916.67 283.46 916.43 291.07 915.26 298.56 C 914.56 301.16 913.64 304.25 911.04 305.52 C 906.84 304.32 904.27 300.47 901.82 297.14 C 897.07 289.86 892.05 282.72 888.14 274.94 C 883.73 266.36 880.79 257.14 876.71 248.41 C 869.56 232.80 861.96 217.38 853.54 202.42 C 843.91 185.51 833.00 169.34 821.10 153.95 C 815.30 146.42 808.98 139.27 803.98 131.16 Z"
  />
  <path
    fill="#959898"
    stroke="#959898"
    stroke-width="0.09375"
    opacity="1.00"
    d=" M 924.01 138.06 C 934.98 146.77 944.35 157.32 952.08 168.98 C 970.90 196.07 986.04 225.68 997.25 256.70 C 1005.89 281.02 1012.75 305.94 1019.28 330.91 C 1022.34 342.60 1024.86 355.05 1021.95 367.03 C 1019.00 378.26 1010.64 386.78 1003.35 395.39 C 985.36 416.44 970.19 439.79 957.47 464.37 C 954.13 470.36 951.38 476.73 947.21 482.21 C 944.91 485.21 941.14 488.18 937.14 486.74 C 933.47 485.51 931.93 481.67 930.66 478.37 C 928.17 472.21 927.75 465.52 927.15 458.98 C 923.35 420.14 922.14 381.02 924.31 342.04 C 924.06 330.65 925.49 319.34 925.55 307.96 C 926.56 299.67 926.10 291.30 927.11 283.00 C 927.48 277.98 927.27 272.93 927.71 267.91 C 928.69 258.46 928.25 248.94 928.81 239.47 C 929.65 229.67 929.23 219.83 929.26 210.02 C 928.15 198.02 928.85 185.93 927.58 173.95 C 927.23 161.92 925.73 149.97 924.01 138.06 Z"
  />
  <path
    fill="#959898"
    stroke="#959898"
    stroke-width="0.09375"
    opacity="1.00"
    d=" M 1185.93 240.95 C 1195.27 235.91 1204.74 230.87 1214.98 227.87 C 1207.58 243.58 1197.30 257.67 1188.58 272.64 C 1178.70 288.90 1170.51 306.09 1162.04 323.11 C 1153.85 339.18 1143.34 354.87 1127.99 364.90 C 1124.95 366.72 1121.15 369.39 1117.70 366.93 C 1119.04 358.48 1123.74 351.11 1127.74 343.71 C 1132.19 335.69 1137.63 327.97 1139.95 318.99 C 1141.27 314.51 1140.16 308.50 1135.39 306.59 C 1131.75 304.74 1127.79 306.39 1124.01 306.53 C 1122.36 305.99 1119.56 305.28 1119.80 303.06 C 1120.15 297.81 1123.21 293.24 1125.86 288.85 C 1132.27 278.86 1141.31 270.96 1150.54 263.65 C 1161.37 254.68 1173.77 247.91 1185.93 240.95 Z"
  />
  <path
    fill="#959898"
    stroke="#959898"
    stroke-width="0.09375"
    opacity="1.00"
    d=" M 623.85 267.16 C 660.82 275.95 697.43 287.01 731.96 303.04 C 765.37 318.79 797.20 338.47 824.41 363.60 C 845.93 383.57 864.74 406.29 881.96 430.03 C 898.93 453.46 914.28 478.15 926.77 504.26 C 928.48 507.56 928.41 514.87 923.11 513.81 C 915.71 509.43 909.12 503.77 901.85 499.16 C 887.58 489.58 873.06 480.35 858.04 471.98 C 844.75 464.38 830.60 458.08 818.44 448.66 C 807.44 439.91 800.59 427.41 793.37 415.64 C 773.53 384.09 747.65 356.76 719.77 332.21 C 690.50 306.89 658.55 284.40 623.85 267.16 Z"
  />
  <path
    fill="#959898"
    stroke="#959898"
    stroke-width="0.09375"
    opacity="1.00"
    d=" M 1318.00 278.20 C 1337.51 273.74 1357.30 269.84 1377.35 269.21 C 1344.88 285.55 1312.42 302.40 1283.11 324.07 C 1251.66 347.16 1223.93 375.08 1199.60 405.52 C 1178.30 432.83 1158.91 461.92 1144.57 493.53 C 1141.39 499.93 1137.36 506.39 1130.95 509.96 C 1124.40 513.59 1116.81 514.38 1109.81 516.76 C 1105.34 518.00 1100.83 520.14 1096.09 519.47 C 1092.73 518.95 1091.37 515.34 1090.44 512.52 C 1087.58 501.91 1088.73 490.78 1089.43 479.97 C 1092.77 459.48 1094.68 438.34 1103.09 419.12 C 1110.16 402.45 1121.98 388.35 1134.63 375.63 C 1157.56 353.24 1183.65 334.11 1211.65 318.54 C 1245.14 300.54 1280.88 286.59 1318.00 278.20 Z"
  />
  <path
    fill="#959898"
    stroke="#959898"
    stroke-width="0.09375"
    opacity="1.00"
    d=" M 1059.00 360.06 C 1079.92 344.51 1101.54 329.18 1125.99 319.65 C 1121.60 328.60 1116.35 337.09 1112.08 346.09 C 1105.17 360.36 1099.92 375.37 1095.48 390.57 C 1088.64 414.23 1083.51 438.41 1080.61 462.88 C 1078.83 476.92 1078.27 491.07 1077.23 505.18 C 1076.14 516.35 1073.70 527.79 1067.19 537.15 C 1061.67 545.47 1054.13 552.11 1047.63 559.60 C 1036.85 572.09 1027.96 586.21 1021.44 601.37 C 1017.44 610.49 1011.14 619.88 1000.96 622.57 C 996.14 624.17 991.51 621.04 988.41 617.62 C 978.62 606.44 968.81 595.25 958.32 584.72 C 951.68 578.51 944.70 571.33 943.57 561.87 C 942.47 548.40 946.36 535.26 949.33 522.28 C 952.55 510.44 955.35 498.44 959.92 487.02 C 970.01 459.91 985.12 434.83 1003.38 412.46 C 1019.40 392.52 1038.69 375.50 1059.00 360.06 Z"
  />
  <path
    fill="#959898"
    stroke="#959898"
    stroke-width="0.09375"
    opacity="1.00"
    d=" M 1220.87 451.57 C 1260.34 435.13 1303.32 427.31 1346.04 428.55 C 1356.57 429.31 1367.27 429.56 1377.46 432.66 C 1359.01 440.22 1339.98 446.23 1321.40 453.43 C 1282.78 467.44 1244.77 483.88 1210.16 506.20 C 1203.16 511.24 1194.66 514.21 1186.04 514.54 C 1179.09 514.04 1172.23 512.62 1165.39 511.34 C 1160.81 510.61 1155.61 507.28 1156.09 502.06 C 1157.33 492.70 1161.77 483.23 1169.99 478.07 C 1185.54 466.80 1203.23 458.95 1220.87 451.57 Z"
  />
  <path
    fill="#959898"
    stroke="#959898"
    stroke-width="0.09375"
    opacity="1.00"
    d=" M 634.98 436.70 C 650.02 432.87 665.58 432.15 681.01 431.67 C 711.55 432.07 742.26 436.03 771.33 445.69 C 824.51 463.11 873.84 491.02 918.42 524.63 C 922.16 527.47 926.20 530.34 928.42 534.62 C 931.14 540.20 931.58 547.47 927.62 552.60 C 925.85 554.92 922.66 555.34 919.96 554.86 C 911.85 553.73 904.12 550.94 896.29 548.70 C 886.92 545.93 877.38 543.79 867.98 541.16 C 850.79 536.22 834.81 527.48 820.94 516.25 C 793.60 496.25 764.20 478.82 732.71 466.20 C 701.10 453.49 668.29 443.80 634.98 436.70 Z"
  />
  <path
    fill="#959898"
    stroke="#959898"
    stroke-width="0.09375"
    opacity="1.00"
    d=" M 1133.17 522.71 C 1154.92 518.90 1176.67 524.78 1197.94 528.81 C 1181.53 531.81 1165.95 539.33 1153.37 550.29 C 1140.17 561.74 1129.80 576.02 1120.86 590.93 C 1118.00 595.22 1114.74 599.85 1109.67 601.61 C 1104.01 603.06 1098.14 602.30 1092.42 601.79 C 1081.91 600.76 1071.30 600.76 1060.84 602.29 C 1055.53 603.01 1050.24 604.25 1044.86 604.02 C 1041.01 603.89 1037.44 599.83 1038.82 595.97 C 1041.13 588.88 1045.27 582.56 1049.33 576.37 C 1057.19 564.48 1067.95 554.88 1079.23 546.32 C 1095.11 534.52 1113.65 526.15 1133.17 522.71 Z"
  />
  <path
    fill="#959898"
    stroke="#959898"
    stroke-width="0.09375"
    opacity="1.00"
    d=" M 696.46 540.49 C 707.59 539.38 718.77 539.01 729.96 539.23 C 757.32 538.45 784.31 546.26 808.62 558.41 C 812.02 560.41 816.75 562.32 817.02 566.90 C 816.31 568.60 814.95 570.10 812.94 569.58 C 804.59 568.89 796.32 567.29 787.92 566.94 C 779.60 566.41 771.21 566.36 762.96 564.96 C 754.21 563.34 745.83 560.11 737.99 555.95 C 729.43 551.48 720.35 548.21 711.34 544.82 C 706.46 543.11 701.55 541.44 696.46 540.49 Z"
  />
  <path
    fill="#959898"
    stroke="#959898"
    stroke-width="0.09375"
    opacity="1.00"
    d=" M 825.13 549.38 C 842.91 548.60 860.62 551.44 877.90 555.40 C 894.53 559.21 910.80 564.95 925.60 573.54 C 945.07 584.64 960.15 601.68 973.85 619.10 C 976.97 623.53 980.41 628.36 980.67 633.96 C 980.93 637.92 977.66 640.64 975.22 643.26 C 971.12 647.25 968.71 653.15 963.05 655.29 C 957.12 653.11 952.28 648.84 946.36 646.65 C 936.06 642.68 925.18 640.24 914.18 639.30 C 908.08 638.51 901.65 638.61 895.97 636.03 C 890.73 632.98 888.91 626.74 886.40 621.61 C 879.32 604.33 869.21 588.26 856.39 574.67 C 846.97 565.11 836.45 556.59 825.13 549.38 Z"
  />
  <path
    fill="#959898"
    stroke="#959898"
    stroke-width="0.09375"
    opacity="1.00"
    d=" M 1167.98 573.22 C 1177.78 570.73 1187.97 570.96 1197.99 571.21 C 1218.97 570.84 1239.97 574.47 1259.84 581.19 C 1268.01 583.90 1275.82 587.55 1283.37 591.68 C 1258.22 587.49 1231.57 586.25 1207.27 595.20 C 1200.16 597.66 1193.87 601.81 1187.41 605.54 C 1177.88 610.92 1166.61 610.91 1156.00 610.43 C 1148.48 610.30 1140.78 610.01 1133.65 607.42 C 1131.90 606.65 1129.29 605.23 1130.21 602.92 C 1131.71 597.26 1135.20 592.31 1139.05 587.99 C 1146.60 579.81 1157.40 575.76 1167.98 573.22 Z"
  />
  <path
    fill="#959898"
    stroke="#959898"
    stroke-width="0.09375"
    opacity="1.00"
    d=" M 745.83 582.18 C 756.78 580.22 767.79 578.27 778.96 578.26 C 798.96 577.84 818.71 582.35 837.59 588.64 C 845.57 591.21 853.06 595.22 859.78 600.22 C 867.37 605.91 870.94 615.10 874.39 623.60 C 875.68 627.71 877.78 632.42 875.81 636.62 C 870.60 637.55 865.24 637.12 860.04 638.07 C 855.77 638.63 850.94 639.48 847.16 636.88 C 841.20 632.93 836.57 627.37 831.13 622.79 C 818.06 611.13 803.91 600.32 787.76 593.29 C 774.46 587.53 760.34 583.22 745.83 582.18 Z"
  />
  <path
    fill="#959898"
    stroke="#959898"
    stroke-width="0.09375"
    opacity="1.00"
    d=" M 1023.63 625.74 C 1045.66 616.10 1070.23 611.60 1094.19 614.53 C 1083.56 627.72 1075.81 643.09 1070.42 659.10 C 1068.19 664.94 1068.64 671.73 1065.14 677.06 C 1062.66 680.74 1057.68 679.60 1054.00 679.02 C 1043.51 676.71 1032.55 676.88 1022.12 679.39 C 1016.72 680.39 1011.02 682.66 1005.61 680.56 C 998.77 677.93 992.44 674.18 985.68 671.37 C 983.01 670.08 980.08 668.97 978.17 666.63 C 976.71 662.92 979.74 659.47 981.66 656.57 C 992.48 642.68 1007.72 632.88 1023.63 625.74 Z"
  />
  <path
    fill="#959898"
    stroke="#959898"
    stroke-width="0.09375"
    opacity="1.00"
    d=" M 1131.94 623.04 C 1156.30 619.54 1181.21 622.06 1205.02 627.90 C 1231.65 634.67 1258.10 644.66 1280.05 661.56 C 1259.21 658.31 1237.98 656.58 1216.93 658.57 C 1202.81 659.36 1188.76 661.52 1175.06 665.01 C 1165.23 667.55 1155.03 667.27 1144.98 667.03 C 1129.19 666.00 1113.14 666.10 1097.61 669.44 C 1092.60 670.41 1087.56 672.21 1082.40 671.43 C 1080.82 671.24 1079.89 669.54 1080.00 668.08 C 1080.09 662.04 1082.57 656.46 1085.10 651.10 C 1088.36 643.40 1093.55 636.33 1100.58 631.69 C 1110.00 625.95 1121.20 624.44 1131.94 623.04 Z"
  />
  <path
    fill="#959898"
    stroke="#959898"
    stroke-width="0.09375"
    opacity="1.00"
    d=" M 759.10 642.47 C 780.22 637.90 802.33 638.56 823.29 643.67 C 826.45 644.37 829.45 645.72 831.86 647.92 C 828.46 653.71 822.61 657.34 818.07 662.12 C 814.63 665.18 811.07 669.59 805.97 669.06 C 800.62 668.48 795.82 665.81 790.73 664.28 C 775.18 659.77 759.07 657.18 742.88 656.84 C 735.08 657.49 727.26 657.76 719.52 658.94 C 731.74 651.42 744.96 645.28 759.10 642.47 Z"
  />
  <path
    fill="#959898"
    stroke="#959898"
    stroke-width="0.09375"
    opacity="1.00"
    d=" M 824.86 671.83 C 838.60 658.20 857.75 650.80 876.98 650.28 C 884.69 650.25 892.39 649.19 900.10 649.95 C 906.05 650.55 912.10 649.85 918.00 650.96 C 919.09 651.12 919.98 651.66 920.65 652.57 C 895.80 653.18 871.33 660.43 849.81 672.79 C 831.39 682.90 815.67 697.00 799.98 710.80 C 804.82 696.00 813.68 682.61 824.86 671.83 Z"
  />
  <path
    fill="#959898"
    stroke="#959898"
    stroke-width="0.09375"
    opacity="1.00"
    d=" M 847.37 687.27 C 869.36 672.85 895.35 663.61 921.85 663.98 C 926.61 664.30 931.90 663.54 935.72 667.07 C 932.67 671.67 927.45 673.92 923.28 677.30 C 918.35 681.02 914.52 685.91 910.73 690.73 C 904.73 698.08 894.93 700.26 886.09 702.08 C 876.73 703.88 866.25 705.44 857.56 700.49 C 853.25 697.93 847.89 697.16 844.17 693.70 C 842.07 691.16 845.51 688.68 847.37 687.27 Z"
  />
  <path
    fill="#959898"
    stroke="#959898"
    stroke-width="0.09375"
    opacity="1.00"
    d=" M 770.10 680.09 C 776.99 673.86 787.87 674.16 795.70 678.37 C 798.16 679.40 797.93 682.72 796.80 684.67 C 794.80 687.39 791.38 688.99 788.00 688.75 C 776.28 688.62 764.80 692.22 754.50 697.64 C 759.34 691.49 764.12 685.19 770.10 680.09 Z"
  />
  <path
    fill="#959898"
    stroke="#959898"
    stroke-width="0.09375"
    opacity="1.00"
    d=" M 924.97 689.98 C 933.35 681.06 945.64 675.47 957.98 676.23 C 971.86 675.76 984.82 682.16 996.19 689.51 C 975.20 690.74 955.87 701.53 941.19 716.15 C 926.10 730.64 916.23 749.51 901.67 764.45 C 902.05 751.72 905.18 739.30 908.33 727.03 C 911.92 713.98 915.85 700.36 924.97 689.98 Z"
  />
  <path
    fill="#959898"
    stroke="#959898"
    stroke-width="0.09375"
    opacity="1.00"
    d=" M 1085.93 686.90 C 1094.53 680.40 1105.56 678.63 1116.06 678.03 C 1151.45 674.54 1187.17 689.62 1211.64 714.95 C 1193.54 708.34 1172.80 703.55 1154.29 711.30 C 1144.82 715.35 1133.99 717.26 1123.96 714.19 C 1113.85 711.04 1103.78 707.70 1093.45 705.35 C 1088.56 704.13 1083.75 700.83 1082.00 695.96 C 1080.75 692.40 1083.14 688.91 1085.93 686.90 Z"
  />
  <path
    fill="#959898"
    stroke="#959898"
    stroke-width="0.09375"
    opacity="1.00"
    d=" M 1018.97 693.15 C 1026.59 687.93 1036.22 687.89 1045.09 688.43 C 1055.47 689.28 1066.06 694.33 1071.39 703.60 C 1076.19 712.30 1074.49 722.57 1074.68 732.07 C 1073.29 747.20 1069.29 762.33 1061.61 775.52 C 1057.39 766.69 1055.45 757.00 1051.87 747.92 C 1046.09 731.45 1037.17 716.21 1026.37 702.53 C 1023.90 699.40 1020.61 696.87 1018.97 693.15 Z"
  />
  <path
    fill="#ededed"
    stroke="#ededed"
    stroke-width="0.09375"
    opacity="1.00"
    d=" M 984.44 704.57 C 994.51 702.22 1006.06 702.92 1014.53 709.40 C 1019.54 713.40 1023.67 718.40 1027.48 723.54 C 1033.91 731.97 1037.35 742.16 1040.87 752.04 C 1043.24 760.12 1046.31 768.72 1044.24 777.20 C 1042.98 782.54 1037.93 785.74 1032.95 787.10 C 1023.44 789.84 1013.76 792.11 1003.96 793.50 C 996.98 794.50 990.04 791.69 984.98 786.96 C 977.77 780.38 972.23 772.27 966.07 764.76 C 961.17 758.45 955.99 752.37 950.90 746.21 C 947.03 741.40 944.04 734.32 947.50 728.48 C 951.50 721.65 958.13 716.83 964.70 712.65 C 970.84 709.03 977.46 706.13 984.44 704.57 Z"
  />
  <path
    fill="#ededed"
    stroke="#ededed"
    stroke-width="0.09375"
    opacity="1.00"
    d=" M 878.93 715.59 C 883.97 714.64 888.90 712.64 894.11 712.96 C 896.35 713.00 898.46 714.64 898.55 717.00 C 899.09 722.87 896.85 728.49 895.65 734.14 C 893.25 744.76 890.60 755.59 891.48 766.56 C 891.89 770.66 894.50 775.19 898.95 775.74 C 903.24 776.51 907.13 773.96 909.99 771.03 C 915.62 765.31 920.31 758.65 926.46 753.45 C 929.42 751.18 934.02 748.24 937.14 751.86 C 943.89 758.80 949.89 766.45 955.93 774.01 C 960.28 779.85 965.86 785.44 967.10 792.91 C 967.87 796.19 965.87 799.31 963.05 800.84 C 956.51 804.62 948.90 805.76 941.70 807.72 C 927.53 811.04 913.55 815.12 899.42 818.63 C 891.37 820.58 883.34 823.23 874.98 823.22 C 867.93 823.23 861.56 819.08 857.25 813.75 C 851.87 807.14 848.10 799.42 844.16 791.92 C 838.64 781.02 832.96 770.19 827.66 759.17 C 824.84 753.42 822.02 746.77 824.18 740.33 C 826.33 734.12 832.58 730.70 838.37 728.49 C 851.66 723.53 865.17 719.08 878.93 715.59 Z"
  />
  <path
    fill="#ededed"
    stroke="#ededed"
    stroke-width="0.09375"
    opacity="1.00"
    d=" M 1108.64 723.83 C 1110.25 722.96 1111.84 721.13 1113.83 722.14 C 1138.48 730.10 1161.63 742.04 1183.93 755.09 C 1186.18 756.33 1188.65 758.12 1188.64 761.00 C 1187.30 764.47 1183.12 764.44 1180.04 764.83 C 1171.77 765.95 1163.15 767.08 1155.09 764.21 C 1143.89 760.93 1135.94 752.01 1127.52 744.50 C 1122.95 740.05 1118.00 736.01 1113.49 731.52 C 1111.27 729.38 1109.70 726.69 1108.64 723.83 Z"
  />
  <path
    fill="#ededed"
    stroke="#ededed"
    stroke-width="0.09375"
    opacity="1.00"
    d=" M 1084.55 741.55 C 1085.48 738.21 1086.87 733.82 1090.90 733.33 C 1094.72 732.56 1097.55 735.74 1100.31 737.83 L 1100.48 738.26 C 1100.80 738.55 1101.45 739.14 1101.78 739.43 L 1102.23 739.51 C 1105.00 742.18 1107.84 744.78 1110.72 747.35 C 1110.97 747.56 1111.47 747.99 1111.72 748.21 C 1116.87 752.85 1122.47 757.94 1124.13 764.95 C 1124.70 767.49 1122.73 769.60 1120.69 770.75 C 1116.19 773.31 1110.93 773.92 1105.94 774.92 C 1098.67 775.99 1091.44 777.86 1084.05 777.54 C 1081.65 777.26 1078.46 776.65 1077.68 773.99 C 1076.94 770.91 1077.97 767.79 1078.76 764.83 C 1081.08 757.17 1082.94 749.38 1084.55 741.55 Z"
  />
  <path
    fill="#ededed"
    stroke="#ededed"
    stroke-width="0.09375"
    opacity="1.00"
    d=" M 769.18 766.20 C 778.31 760.14 787.36 753.24 798.11 750.38 C 803.80 748.41 808.41 753.54 811.18 757.83 C 819.26 771.44 825.91 785.84 832.93 800.01 C 836.39 807.67 841.59 815.26 841.20 824.00 C 840.48 831.68 833.17 836.18 826.59 838.57 C 816.11 842.24 805.44 845.32 794.94 848.94 C 786.00 851.62 777.19 855.32 767.77 855.82 C 761.61 856.23 754.85 853.97 751.56 848.45 C 745.80 839.13 744.86 827.93 742.35 817.50 C 740.71 808.34 736.99 798.10 742.35 789.47 C 749.02 779.45 759.82 773.39 769.18 766.20 Z"
  />
  <path
    fill="#ededed"
    stroke="#ededed"
    stroke-width="0.09375"
    opacity="1.00"
    d=" M 1186.95 777.95 C 1195.16 776.59 1203.84 775.18 1211.92 777.99 C 1220.64 781.06 1227.46 787.64 1234.09 793.84 C 1245.60 805.39 1256.88 817.28 1266.57 830.42 C 1269.27 833.77 1270.20 838.93 1267.31 842.47 C 1263.82 847.34 1257.36 847.43 1252.09 848.89 C 1246.01 849.99 1239.70 852.89 1233.54 850.61 C 1227.04 848.77 1223.14 842.90 1218.71 838.27 C 1216.13 835.09 1213.33 832.12 1210.46 829.22 L 1210.46 828.76 C 1210.18 828.50 1209.62 827.97 1209.35 827.71 C 1208.55 826.81 1207.79 825.94 1207.02 825.08 C 1204.84 822.76 1202.69 820.44 1200.48 818.17 L 1200.45 817.82 C 1200.15 817.49 1199.54 816.84 1199.24 816.51 L 1198.88 816.40 C 1195.26 811.93 1191.00 808.05 1187.15 803.80 C 1186.92 803.49 1186.45 802.87 1186.22 802.57 L 1185.80 802.48 C 1181.66 797.58 1176.44 792.08 1177.49 785.11 C 1177.90 780.43 1182.99 778.63 1186.95 777.95 Z"
  />
  <path
    fill="#ededed"
    stroke="#ededed"
    stroke-width="0.09375"
    opacity="1.00"
    d=" M 1096.91 789.71 C 1108.93 787.97 1120.90 785.51 1133.05 784.80 C 1142.98 784.10 1152.84 788.25 1159.73 795.35 C 1166.70 802.44 1174.02 809.18 1180.82 816.44 L 1181.53 816.52 L 1181.49 817.28 C 1181.78 817.53 1182.37 818.03 1182.66 818.28 C 1189.63 826.06 1197.26 833.35 1203.15 842.02 C 1205.33 845.65 1208.13 850.41 1205.68 854.57 C 1202.59 858.80 1197.52 860.90 1192.90 862.98 C 1184.43 866.09 1175.64 868.22 1166.98 870.71 C 1145.23 876.77 1123.58 883.21 1102.02 889.94 C 1093.21 892.67 1084.23 895.33 1074.95 895.61 C 1067.06 895.64 1059.27 891.81 1054.66 885.39 C 1047.74 876.00 1041.25 866.30 1034.33 856.93 C 1032.69 854.56 1031.03 852.23 1029.36 849.91 C 1028.46 848.64 1027.59 847.38 1026.71 846.13 C 1025.92 845.03 1025.13 843.96 1024.36 842.88 C 1023.46 841.62 1022.58 840.37 1021.69 839.13 C 1017.45 832.76 1012.41 826.86 1009.13 819.92 C 1007.30 816.33 1007.21 811.32 1010.88 808.87 C 1017.45 804.32 1025.70 803.59 1033.21 801.44 C 1054.30 796.85 1075.63 793.35 1096.91 789.71 Z"
  />
  <path
    fill="#ededed"
    stroke="#ededed"
    stroke-width="0.09375"
    opacity="1.00"
    d=" M 708.17 824.07 C 711.67 819.72 716.15 815.24 721.99 814.65 C 727.21 814.91 728.92 820.90 729.84 825.15 C 732.17 835.10 734.51 845.06 736.44 855.09 C 737.50 860.05 735.50 865.33 731.35 868.27 C 723.43 874.34 713.51 876.73 704.39 880.42 C 694.69 884.09 685.13 888.11 675.38 891.65 C 673.77 892.41 672.30 891.12 670.86 890.63 C 669.78 886.27 671.09 881.86 673.39 878.14 C 683.56 859.26 695.04 841.04 708.17 824.07 Z"
  />
  <path
    fill="#ededed"
    stroke="#ededed"
    stroke-width="0.09375"
    opacity="1.00"
    d=" M 968.17 815.27 C 974.28 813.98 981.03 814.90 986.00 818.88 C 994.37 825.58 1000.47 834.58 1006.80 843.13 C 1018.08 859.48 1030.98 874.71 1041.40 891.67 C 1043.80 895.40 1045.34 900.48 1042.48 904.43 C 1038.07 910.13 1031.11 913.02 1024.56 915.54 C 1008.25 921.58 991.84 927.33 975.59 933.51 C 964.38 937.60 953.38 942.24 942.06 945.99 C 936.04 947.82 928.59 949.07 923.30 944.78 C 916.13 938.78 912.47 929.87 908.23 921.78 C 899.65 903.49 890.24 885.61 881.59 867.35 C 878.97 861.39 875.90 854.63 878.42 848.10 C 879.53 843.50 883.81 840.84 887.65 838.67 C 896.77 833.70 906.67 830.33 916.71 827.76 C 933.78 823.29 950.93 819.06 968.17 815.27 Z"
  />
  <path
    fill="#ededed"
    stroke="#ededed"
    stroke-width="0.09375"
    opacity="1.00"
    d=" M 830.49 851.76 C 838.20 849.07 847.19 850.23 853.71 855.25 C 861.19 861.03 865.98 869.48 870.24 877.75 C 879.44 896.14 889.10 914.30 898.08 932.80 C 901.05 938.70 903.99 945.34 902.13 952.07 C 900.34 960.73 892.57 966.50 884.81 969.67 C 867.24 977.00 849.91 984.91 832.32 992.20 C 824.73 995.16 815.46 997.74 808.05 992.91 C 802.15 988.95 797.67 983.27 792.43 978.54 C 786.67 973.21 782.60 966.31 780.38 958.82 C 775.29 943.39 770.97 927.72 767.03 911.96 C 765.27 903.16 763.75 893.83 766.40 885.05 C 769.07 877.52 775.59 871.91 782.67 868.56 C 797.94 861.22 814.36 856.76 830.49 851.76 Z"
  />
  <path
    fill="#ededed"
    stroke="#ededed"
    stroke-width="0.09375"
    opacity="1.00"
    d=" M 1258.38 861.66 C 1264.70 859.77 1271.44 858.59 1278.03 859.41 C 1283.47 859.94 1287.27 864.43 1290.25 868.60 C 1297.26 878.84 1302.53 890.14 1307.78 901.34 C 1310.67 908.02 1313.72 914.77 1315.08 921.96 C 1316.58 928.97 1309.88 936.19 1302.98 935.87 C 1294.89 933.15 1290.52 925.15 1285.32 918.95 C 1283.82 916.97 1282.28 915.03 1280.79 913.08 C 1279.96 912.02 1279.14 910.98 1278.34 909.94 C 1276.83 907.98 1275.29 906.07 1273.78 904.13 C 1272.45 902.44 1271.08 900.77 1269.77 899.08 C 1268.77 897.81 1267.76 896.57 1266.75 895.33 C 1266.52 895.03 1266.06 894.43 1265.83 894.14 C 1260.48 886.99 1253.16 880.37 1251.97 871.06 C 1251.17 866.75 1254.33 862.77 1258.38 861.66 Z"
  />
  <path
    fill="#ededed"
    stroke="#ededed"
    stroke-width="0.09375"
    opacity="1.00"
    d=" M 1191.94 877.39 C 1199.55 875.47 1207.11 873.08 1214.96 872.38 C 1220.83 871.86 1226.34 874.56 1230.99 877.90 C 1239.32 883.86 1245.92 891.81 1252.58 899.50 C 1259.71 908.07 1266.75 916.74 1273.18 925.86 C 1276.26 930.29 1279.35 935.39 1278.61 941.04 C 1278.05 946.23 1273.36 949.50 1269.44 952.29 C 1260.79 957.84 1251.65 962.60 1242.75 967.72 C 1215.19 981.55 1187.39 994.91 1159.77 1008.61 C 1154.72 1011.12 1148.97 1013.38 1143.27 1011.80 C 1135.88 1010.19 1131.12 1003.76 1127.15 997.83 C 1123.69 992.56 1120.23 987.29 1116.92 981.93 C 1115.85 980.22 1114.78 978.53 1113.56 976.96 C 1113.55 976.73 1113.52 976.27 1113.51 976.05 C 1112.48 974.70 1111.46 973.35 1110.44 972.03 L 1110.43 971.11 C 1110.12 970.71 1109.51 969.90 1109.20 969.50 L 1108.41 969.35 C 1108.43 969.04 1108.47 968.42 1108.49 968.11 C 1107.54 966.81 1106.63 965.51 1105.76 964.19 C 1105.04 963.10 1104.28 962.02 1103.55 960.99 C 1103.52 960.76 1103.46 960.29 1103.43 960.06 C 1103.13 959.66 1102.53 958.86 1102.23 958.46 L 1101.43 958.35 C 1101.45 958.03 1101.50 957.41 1101.52 957.10 C 1100.55 955.79 1099.63 954.48 1098.75 953.15 C 1098.04 952.08 1097.29 951.01 1096.55 949.99 C 1096.52 949.76 1096.45 949.30 1096.42 949.07 C 1096.12 948.67 1095.52 947.87 1095.22 947.47 L 1094.41 947.34 C 1094.44 947.02 1094.51 946.37 1094.54 946.04 C 1094.21 945.65 1093.57 944.85 1093.24 944.45 L 1092.90 944.27 C 1091.91 942.52 1090.88 940.81 1089.77 939.15 C 1088.89 937.79 1088.01 936.43 1087.16 935.08 C 1083.22 929.09 1078.64 922.50 1079.40 914.96 C 1079.67 911.29 1083.34 909.44 1086.47 908.55 C 1121.36 897.28 1156.52 886.86 1191.94 877.39 Z"
  />
  <path
    fill="#ededed"
    stroke="#ededed"
    stroke-width="0.09375"
    opacity="1.00"
    d=" M 719.84 888.75 C 726.06 886.68 733.36 884.05 739.60 887.42 C 745.22 891.40 747.33 898.43 749.51 904.65 C 752.91 916.40 756.51 928.10 760.25 939.75 C 761.48 944.46 763.57 949.06 763.59 954.01 C 763.71 956.13 761.78 957.61 759.91 958.06 C 753.91 959.68 747.90 957.22 742.09 955.95 C 725.84 951.67 708.66 950.86 692.10 953.66 C 685.58 954.64 679.18 957.46 672.48 956.41 C 669.63 955.91 667.82 953.33 666.83 950.83 C 665.11 946.63 664.42 942.06 664.29 937.55 L 663.70 937.45 C 663.59 930.41 660.95 923.26 663.42 916.33 C 665.02 911.39 669.37 907.97 674.09 906.19 C 689.23 900.10 704.48 894.27 719.84 888.75 Z"
  />
  <path
    fill="#ededed"
    stroke="#ededed"
    stroke-width="0.09375"
    opacity="1.00"
    d=" M 1042.20 923.36 C 1046.69 921.96 1051.36 919.96 1056.15 921.02 C 1060.59 922.26 1063.69 926.01 1066.30 929.60 C 1077.50 945.90 1088.68 962.22 1099.26 978.93 C 1100.49 981.08 1101.83 983.17 1103.37 985.13 L 1103.38 985.97 C 1104.40 987.31 1105.41 988.67 1106.46 990.03 C 1106.47 990.26 1106.51 990.71 1106.53 990.94 C 1107.45 992.24 1108.36 993.57 1109.27 994.93 C 1111.68 999.37 1114.74 1003.48 1116.62 1008.19 C 1118.19 1012.07 1114.91 1016.54 1110.92 1016.97 C 1106.49 1016.16 1103.38 1012.60 1100.04 1009.91 C 1071.10 983.18 1034.12 964.95 995.04 959.39 C 980.78 956.93 966.26 956.81 951.85 957.52 C 949.65 957.62 947.56 958.37 945.46 958.92 C 977.52 946.57 1009.67 934.43 1042.20 923.36 Z"
  />
  <path
    fill="#ededed"
    stroke="#ededed"
    stroke-width="0.09375"
    opacity="1.00"
    d=" M 643.28 949.31 C 644.65 945.63 646.04 941.67 649.26 939.17 C 651.95 940.91 651.36 944.36 651.86 947.11 C 652.41 949.39 652.58 951.72 652.89 954.06 C 653.89 959.47 655.40 966.42 650.54 970.49 C 645.92 974.04 641.39 977.91 636.04 980.34 C 635.56 978.90 634.74 977.42 635.31 975.90 C 637.68 966.96 640.26 958.06 643.28 949.31 Z"
  />
  <path
    fill="#ededed"
    stroke="#ededed"
    stroke-width="0.09375"
    opacity="1.00"
    d=" M 1312.05 949.10 C 1314.33 946.46 1318.13 945.08 1321.59 945.46 C 1325.58 947.88 1326.60 952.94 1327.96 957.09 C 1329.36 963.19 1332.40 969.52 1330.36 975.83 C 1325.39 973.49 1322.55 968.61 1319.42 964.38 C 1316.25 959.71 1312.29 954.98 1312.05 949.10 Z"
  />
  <path
    fill="#ededed"
    stroke="#ededed"
    stroke-width="0.09375"
    opacity="1.00"
    d=" M 1269.92 968.90 C 1276.57 965.79 1283.45 962.12 1291.00 962.36 C 1296.64 962.32 1302.07 965.12 1305.79 969.28 C 1309.30 973.20 1312.25 977.58 1315.30 981.88 C 1316.74 983.94 1318.21 985.99 1319.67 988.06 C 1325.54 996.77 1332.29 1005.14 1335.77 1015.20 C 1338.12 1021.93 1339.30 1029.55 1336.68 1036.39 C 1333.56 1045.41 1327.35 1053.00 1319.98 1058.92 C 1292.09 1081.93 1263.28 1103.81 1234.02 1125.04 C 1226.84 1130.53 1216.48 1132.10 1208.43 1127.57 C 1201.05 1124.18 1196.75 1116.96 1192.78 1110.26 C 1187.94 1101.52 1182.69 1093.03 1177.73 1084.36 C 1177.08 1083.25 1176.45 1082.17 1175.82 1081.09 C 1175.26 1080.06 1174.70 1079.04 1174.18 1078.04 C 1171.79 1074.02 1169.53 1069.94 1167.23 1065.88 C 1162.99 1058.18 1158.13 1050.61 1155.95 1042.02 C 1154.80 1036.54 1155.16 1029.64 1159.99 1025.97 C 1168.03 1019.21 1177.73 1014.90 1186.89 1009.89 C 1214.46 996.02 1242.17 982.42 1269.92 968.90 Z"
  />
  <path
    fill="#ededed"
    stroke="#ededed"
    stroke-width="0.09375"
    opacity="1.00"
    d=" M 688.87 965.39 C 699.04 963.11 709.63 961.83 720.02 963.32 C 739.24 964.54 757.67 971.45 774.43 980.70 C 784.35 986.29 792.62 994.32 800.38 1002.56 C 806.92 1009.57 811.26 1018.24 817.50 1025.50 C 822.55 1031.40 830.23 1035.14 838.06 1034.88 C 846.28 1035.22 853.85 1031.07 859.95 1025.90 C 871.78 1015.82 881.19 1003.17 893.46 993.55 C 908.26 981.91 925.46 972.79 944.15 969.52 C 964.75 965.78 985.84 968.27 1006.19 972.37 C 1025.72 976.42 1044.32 984.33 1061.49 994.41 C 1079.53 1005.09 1095.98 1018.85 1108.34 1035.88 C 1119.30 1051.38 1123.67 1070.31 1127.04 1088.68 C 1130.90 1113.54 1129.83 1139.52 1121.53 1163.43 C 1115.52 1180.07 1107.15 1196.07 1095.43 1209.43 C 1072.65 1235.72 1039.30 1251.95 1004.88 1255.64 C 1000.89 1256.41 996.79 1256.11 992.82 1256.82 C 988.72 1257.48 986.95 1263.25 990.11 1266.03 C 994.60 1271.01 1002.35 1266.39 1007.15 1270.81 C 1011.16 1274.41 1009.72 1280.23 1009.55 1284.96 C 1009.45 1289.87 1016.16 1293.93 1019.80 1289.81 C 1027.86 1282.18 1035.31 1273.27 1045.79 1268.88 C 1049.73 1267.11 1054.45 1267.43 1058.03 1269.88 C 1064.34 1274.13 1067.78 1281.19 1071.44 1287.61 C 1078.47 1300.63 1085.52 1313.66 1091.87 1327.03 C 1092.88 1329.01 1093.87 1331.01 1094.83 1333.04 C 1095.07 1333.54 1095.57 1334.55 1095.82 1335.06 C 1096.95 1337.32 1098.06 1339.60 1099.22 1341.88 C 1099.70 1342.94 1100.20 1344.01 1100.71 1345.11 C 1101.53 1346.69 1102.34 1348.29 1103.17 1349.89 C 1103.64 1350.96 1104.13 1352.03 1104.64 1353.14 C 1105.12 1354.04 1105.61 1354.97 1106.12 1355.91 C 1106.75 1357.25 1107.41 1358.60 1108.08 1359.96 C 1108.57 1360.99 1109.09 1362.04 1109.62 1363.12 C 1112.04 1368.08 1114.52 1373.02 1116.91 1378.01 C 1120.32 1385.64 1125.43 1393.30 1124.56 1402.02 C 1123.80 1408.99 1118.70 1414.41 1113.50 1418.63 C 1100.35 1429.27 1086.24 1438.64 1072.39 1448.31 C 1061.29 1455.95 1050.09 1463.45 1038.80 1470.79 C 1034.31 1473.62 1029.38 1476.22 1023.99 1476.61 C 1017.49 1477.10 1011.57 1473.24 1007.43 1468.56 C 1002.68 1463.09 999.22 1456.70 995.35 1450.63 C 991.26 1443.94 986.96 1437.37 983.24 1430.47 L 982.87 1430.25 C 982.33 1429.14 981.76 1428.05 981.21 1426.97 C 980.94 1426.49 980.40 1425.52 980.13 1425.04 C 979.35 1423.70 978.57 1422.36 977.80 1421.06 C 977.26 1420.02 976.72 1419.00 976.21 1418.01 C 974.25 1414.20 970.18 1409.67 973.17 1405.34 C 976.58 1402.06 981.78 1403.09 986.06 1402.17 C 994.40 1401.72 1002.01 1398.17 1009.83 1395.64 C 1018.10 1392.76 1027.02 1392.85 1035.36 1390.25 C 1043.63 1388.37 1051.44 1381.99 1052.54 1373.20 C 1053.60 1362.35 1051.98 1351.44 1049.42 1340.90 C 1046.77 1330.88 1043.77 1320.72 1037.92 1312.05 C 1034.79 1307.29 1030.59 1302.86 1025.02 1301.10 C 1018.40 1299.08 1011.14 1301.44 1006.08 1305.94 C 998.18 1296.25 985.01 1292.94 972.99 1293.40 C 959.95 1293.42 945.84 1298.22 938.23 1309.37 C 932.61 1300.05 921.31 1296.56 911.19 1294.83 C 904.17 1294.09 896.98 1292.51 889.99 1294.32 C 880.82 1296.05 872.48 1301.89 867.86 1310.02 C 865.33 1302.77 859.93 1296.50 852.86 1293.39 C 846.17 1290.13 838.71 1289.35 831.40 1288.78 C 819.63 1288.57 806.66 1291.32 798.88 1300.93 C 788.89 1287.89 770.45 1281.80 754.75 1286.91 C 749.70 1288.49 745.05 1291.42 741.72 1295.56 C 734.47 1286.72 722.29 1283.40 711.24 1284.72 C 715.97 1266.97 715.78 1247.72 709.85 1230.29 C 699.86 1228.53 689.59 1228.52 679.82 1225.54 C 662.41 1221.12 646.74 1211.56 633.26 1199.88 C 618.73 1187.09 606.94 1170.98 600.22 1152.76 C 586.17 1117.00 587.99 1075.44 605.38 1041.15 C 615.07 1022.28 627.31 1004.39 643.36 990.35 C 656.36 978.74 671.75 969.35 688.87 965.39 Z"
  />
  <path
    fill="#ededed"
    stroke="#ededed"
    stroke-width="0.09375"
    opacity="1.00"
    d=" M 877.17 987.06 C 878.43 986.30 880.63 986.47 881.06 988.15 C 880.64 990.07 878.96 991.35 877.75 992.78 C 870.95 999.64 864.44 1006.79 857.43 1013.44 C 852.43 1017.93 847.03 1023.03 839.96 1023.54 C 834.07 1023.44 827.26 1020.30 825.95 1014.02 C 826.02 1010.58 829.69 1008.84 832.27 1007.30 C 846.95 999.95 862.08 993.53 877.17 987.06 Z"
  />
  <path
    fill="#000000"
    stroke="#000000"
    stroke-width="0.09375"
    opacity="1.00"
    d=" M 699.50 997.66 C 718.85 994.68 739.12 1000.43 754.38 1012.62 C 769.44 1024.32 779.95 1041.18 785.77 1059.20 C 797.75 1096.10 790.84 1138.99 766.69 1169.55 C 756.20 1182.65 742.27 1193.31 726.16 1198.42 C 708.52 1204.19 688.59 1202.57 672.18 1193.88 C 653.44 1184.20 639.50 1166.84 631.65 1147.49 C 616.44 1109.92 621.60 1064.46 645.83 1031.79 C 658.69 1014.37 677.85 1001.01 699.50 997.66 Z"
  />
  <path
    fill="#000000"
    stroke="#000000"
    stroke-width="0.09375"
    opacity="1.00"
    d=" M 949.89 1006.84 C 965.39 1003.38 981.70 1003.07 997.18 1006.86 C 1014.04 1010.97 1029.84 1019.58 1042.15 1031.85 C 1046.19 1035.88 1050.01 1040.15 1053.31 1044.82 C 1054.25 1046.20 1055.21 1047.57 1056.17 1048.96 C 1057.15 1050.64 1058.13 1052.35 1059.14 1054.04 C 1061.26 1057.92 1063.18 1061.92 1064.75 1066.07 C 1065.24 1067.31 1065.72 1068.57 1066.24 1069.84 C 1066.56 1070.84 1066.91 1071.85 1067.29 1072.87 C 1067.41 1073.43 1067.66 1074.54 1067.78 1075.09 C 1068.28 1076.68 1068.70 1078.30 1069.17 1079.92 C 1069.45 1081.59 1069.79 1083.25 1070.26 1084.90 C 1071.81 1094.88 1072.20 1105.05 1071.19 1115.12 C 1070.61 1117.70 1070.50 1120.37 1069.89 1122.96 C 1069.63 1124.31 1069.41 1125.68 1069.20 1127.06 C 1068.70 1128.66 1068.26 1130.28 1067.76 1131.90 C 1067.65 1132.46 1067.42 1133.58 1067.30 1134.13 C 1066.92 1135.12 1066.56 1136.13 1066.22 1137.15 C 1065.85 1138.13 1065.51 1139.12 1065.19 1140.13 C 1064.21 1142.45 1063.26 1144.78 1062.35 1147.13 C 1060.78 1150.51 1059.01 1153.79 1057.22 1157.05 C 1054.20 1161.96 1050.94 1166.73 1047.29 1171.21 C 1036.66 1183.91 1023.19 1194.28 1007.97 1200.88 C 1006.28 1201.54 1004.60 1202.21 1002.93 1202.87 C 1001.66 1203.32 1000.40 1203.77 999.16 1204.25 C 998.13 1204.55 997.12 1204.88 996.12 1205.23 C 988.90 1207.14 981.55 1208.99 974.03 1208.85 C 966.06 1208.74 957.97 1209.43 950.10 1207.87 C 948.70 1207.62 947.31 1207.40 945.93 1207.20 C 941.52 1206.03 937.14 1204.79 932.86 1203.27 C 930.92 1202.46 928.99 1201.66 927.08 1200.84 C 925.98 1200.33 924.89 1199.82 923.82 1199.34 C 923.33 1199.08 922.36 1198.55 921.88 1198.29 C 921.38 1198.04 920.38 1197.54 919.88 1197.29 C 917.11 1195.68 914.40 1193.98 911.72 1192.25 C 906.53 1188.48 901.50 1184.46 897.06 1179.83 C 896.20 1178.97 895.33 1178.11 894.50 1177.30 L 894.49 1176.80 C 890.23 1172.45 886.87 1167.35 883.57 1162.28 L 883.54 1161.44 L 882.86 1161.24 C 882.17 1159.83 881.48 1158.45 880.78 1157.08 C 880.52 1156.60 879.99 1155.63 879.73 1155.14 C 879.24 1154.04 878.76 1152.97 878.29 1151.91 C 877.53 1150.25 876.80 1148.58 876.12 1146.91 C 875.65 1145.64 875.22 1144.38 874.76 1143.14 C 874.45 1142.12 874.13 1141.11 873.82 1140.12 C 873.52 1139.07 873.22 1138.04 872.92 1137.02 C 872.55 1135.67 872.19 1134.33 871.78 1133.03 C 871.59 1131.52 871.42 1130.00 871.30 1128.50 L 870.69 1128.45 C 870.57 1126.46 870.42 1124.48 870.31 1122.51 L 869.70 1122.49 C 869.43 1114.16 869.45 1105.84 869.70 1097.51 L 870.32 1097.48 C 870.43 1095.50 870.58 1093.53 870.71 1091.57 L 871.29 1091.50 C 871.41 1089.96 871.57 1088.47 871.77 1086.97 C 872.30 1085.37 872.74 1083.75 873.21 1082.15 C 873.88 1079.32 874.84 1076.58 875.72 1073.82 C 876.28 1072.54 876.84 1071.28 877.45 1070.03 C 877.49 1069.77 877.55 1069.24 877.58 1068.98 C 879.45 1065.31 881.02 1061.49 883.18 1057.97 C 883.71 1056.96 884.26 1055.96 884.82 1054.98 C 888.89 1048.40 893.68 1042.31 898.86 1036.58 L 899.56 1036.52 L 899.49 1035.47 L 900.56 1035.54 L 900.54 1034.80 C 900.85 1034.49 901.48 1033.87 901.79 1033.57 L 902.19 1033.49 C 909.38 1026.28 917.83 1020.42 926.81 1015.66 C 928.82 1014.68 930.84 1013.71 932.86 1012.74 C 938.20 1010.52 943.65 1008.51 949.30 1007.19 L 949.89 1006.84 Z"
  />
  <path
    fill="#959898"
    stroke="#959898"
    stroke-width="0.09375"
    opacity="1.00"
    d=" M 681.02 1015.08 C 694.21 1007.92 709.85 1006.27 724.45 1009.25 C 707.88 1013.72 693.00 1024.20 683.23 1038.32 C 672.37 1054.19 668.86 1074.06 669.65 1092.99 C 671.26 1110.59 673.81 1128.53 681.29 1144.71 C 688.44 1159.00 699.24 1172.43 714.37 1178.66 C 720.80 1181.46 727.76 1182.92 734.77 1183.04 C 723.04 1189.32 709.37 1192.45 696.12 1190.38 C 682.74 1188.47 670.24 1181.77 660.71 1172.26 C 645.55 1157.45 637.10 1136.78 634.69 1115.95 C 632.34 1097.10 635.11 1077.68 642.19 1060.08 C 649.82 1041.47 663.02 1024.57 681.02 1015.08 Z"
  />
  <path
    fill="#959898"
    stroke="#959898"
    stroke-width="0.09375"
    opacity="1.00"
    d=" M 940.22 1022.18 C 949.46 1018.16 959.43 1016.20 969.43 1015.36 C 955.53 1021.33 943.30 1031.11 933.84 1042.87 C 920.62 1060.23 912.79 1081.98 913.71 1103.92 C 914.82 1120.14 917.63 1136.78 925.97 1151.00 C 934.55 1166.12 949.27 1177.28 965.82 1182.35 C 974.32 1184.82 983.06 1186.77 991.95 1186.90 C 998.65 1187.19 1005.34 1186.53 1012.03 1186.33 C 1004.68 1189.36 997.65 1193.25 989.86 1195.12 C 969.27 1200.86 946.53 1198.50 927.76 1188.18 C 904.55 1175.72 888.39 1151.88 884.08 1126.02 C 883.10 1117.92 881.77 1109.69 883.23 1101.55 C 885.90 1067.38 908.49 1035.41 940.22 1022.18 Z"
  />
  <path
    fill="#464b4b"
    stroke="#464b4b"
    stroke-width="0.09375"
    opacity="1.00"
    d=" M 981.40 1022.66 C 993.43 1020.27 1006.93 1020.60 1017.44 1027.65 C 1047.22 1045.73 1062.93 1082.88 1057.43 1116.95 C 1055.44 1130.27 1050.85 1143.26 1043.61 1154.64 C 1040.63 1158.83 1038.15 1163.68 1033.95 1166.79 C 1025.24 1171.15 1015.98 1174.95 1006.16 1175.67 C 993.13 1177.38 979.85 1175.46 967.40 1171.46 C 956.01 1167.58 945.51 1160.49 938.55 1150.57 C 933.24 1143.27 929.79 1134.76 927.75 1126.01 C 924.55 1111.75 923.21 1096.76 926.62 1082.41 C 930.19 1068.02 937.32 1054.37 947.48 1043.53 C 957.02 1034.21 968.32 1026.01 981.40 1022.66 Z"
  />
  <path
    fill="#464b4b"
    stroke="#464b4b"
    stroke-width="0.09375"
    opacity="1.00"
    d=" M 725.36 1023.58 C 734.97 1021.48 745.21 1024.07 753.00 1029.96 C 764.14 1038.23 770.89 1051.06 775.16 1063.98 C 781.52 1083.70 781.00 1105.29 774.93 1125.01 C 771.63 1135.60 767.65 1146.17 761.30 1155.34 C 756.98 1161.55 750.79 1166.60 743.44 1168.67 C 736.06 1170.77 727.99 1171.56 720.54 1169.46 C 706.60 1164.57 697.00 1152.16 690.71 1139.33 C 685.17 1126.99 682.98 1113.47 681.25 1100.15 C 678.99 1082.42 681.14 1063.35 691.20 1048.18 C 698.71 1035.86 711.19 1026.57 725.36 1023.58 Z"
  />
  <path
    fill="#ededed"
    stroke="#ededed"
    stroke-width="0.09375"
    opacity="1.00"
    d=" M 1128.64 1050.93 C 1127.15 1045.61 1133.72 1041.58 1137.85 1045.21 C 1143.74 1050.66 1146.83 1058.37 1151.21 1064.98 C 1151.74 1065.95 1152.30 1066.94 1152.87 1067.94 C 1153.84 1069.61 1154.81 1071.30 1155.78 1073.00 C 1156.56 1074.31 1157.36 1075.64 1158.18 1076.98 C 1158.69 1077.97 1159.22 1078.98 1159.77 1080.01 C 1160.56 1081.31 1161.36 1082.64 1162.17 1083.97 C 1162.68 1084.97 1163.22 1085.98 1163.77 1087.02 C 1164.56 1088.32 1165.35 1089.64 1166.16 1090.97 C 1166.67 1091.98 1167.21 1092.99 1167.76 1094.03 C 1168.91 1095.99 1170.04 1097.98 1171.20 1099.96 C 1171.71 1100.95 1172.26 1101.96 1172.81 1103.00 C 1173.58 1104.31 1174.35 1105.64 1175.13 1106.98 C 1176.76 1110.03 1178.42 1113.07 1180.18 1116.06 C 1180.68 1117.05 1181.20 1118.06 1181.74 1119.08 C 1182.46 1120.35 1183.18 1121.63 1183.92 1122.93 C 1184.64 1124.27 1185.39 1125.64 1186.15 1127.00 C 1186.42 1127.50 1186.96 1128.50 1187.23 1129.00 C 1190.08 1134.57 1194.11 1140.38 1192.91 1146.97 C 1191.50 1153.26 1186.63 1158.04 1181.57 1161.69 C 1162.97 1174.80 1143.92 1187.26 1124.84 1199.66 C 1122.83 1200.96 1120.22 1202.38 1117.85 1201.20 C 1116.14 1200.37 1117.14 1198.00 1117.86 1196.77 C 1127.36 1180.10 1134.84 1162.05 1137.77 1143.00 C 1139.66 1132.78 1139.87 1122.39 1139.73 1112.03 C 1139.95 1091.18 1134.93 1070.67 1128.64 1050.93 Z"
  />
  <path
    fill="#ededed"
    stroke="#ededed"
    stroke-width="0.09375"
    opacity="1.00"
    d=" M 1331.84 1066.76 C 1335.26 1064.87 1340.31 1062.98 1343.44 1066.42 C 1346.86 1070.82 1346.85 1076.77 1347.30 1082.07 C 1347.59 1090.71 1349.80 1099.55 1347.63 1108.09 C 1344.15 1107.26 1342.87 1103.74 1340.47 1101.54 C 1336.22 1097.27 1329.72 1095.04 1323.84 1096.86 C 1316.35 1099.17 1311.27 1105.75 1307.38 1112.19 C 1299.46 1128.52 1297.16 1147.13 1298.60 1165.10 C 1299.76 1175.13 1301.99 1185.53 1308.18 1193.76 C 1311.62 1198.37 1317.00 1202.14 1322.99 1201.86 C 1330.54 1202.13 1336.76 1196.57 1340.76 1190.69 C 1342.69 1188.23 1343.50 1184.34 1347.09 1183.81 C 1347.68 1187.88 1346.89 1191.92 1346.57 1195.97 C 1346.42 1203.94 1341.86 1210.94 1337.18 1217.07 C 1325.36 1231.52 1312.65 1245.29 1298.73 1257.73 C 1294.36 1261.52 1289.70 1265.27 1284.11 1267.05 C 1279.68 1268.46 1274.26 1267.36 1271.37 1263.54 C 1269.69 1261.18 1268.61 1258.46 1267.38 1255.87 C 1265.60 1252.25 1263.84 1248.63 1262.14 1244.98 C 1261.00 1242.70 1259.89 1240.40 1258.79 1238.13 C 1258.12 1236.77 1257.46 1235.44 1256.80 1234.12 C 1256.29 1233.02 1255.78 1231.95 1255.31 1230.89 C 1254.80 1229.95 1254.32 1229.02 1253.84 1228.11 C 1253.19 1226.75 1252.54 1225.41 1251.90 1224.08 C 1251.22 1222.73 1250.56 1221.39 1249.90 1220.07 C 1248.91 1218.05 1247.91 1216.05 1246.90 1214.07 C 1246.04 1212.33 1245.17 1210.61 1244.33 1208.89 C 1243.64 1207.55 1242.97 1206.21 1242.32 1204.89 C 1241.49 1203.28 1240.68 1201.68 1239.86 1200.10 C 1238.65 1197.70 1237.44 1195.31 1236.27 1192.91 C 1235.75 1191.97 1235.25 1191.05 1234.76 1190.15 C 1230.73 1181.77 1226.68 1173.37 1223.63 1164.58 C 1222.00 1159.59 1221.37 1153.34 1225.11 1149.11 C 1229.46 1143.72 1235.59 1140.22 1241.00 1136.04 C 1267.39 1116.91 1293.37 1097.21 1318.73 1076.74 C 1323.01 1073.30 1327.25 1069.79 1331.84 1066.76 Z"
  />
  <path
    fill="#ededed"
    stroke="#ededed"
    stroke-width="0.09375"
    opacity="1.00"
    d=" M 727.25 1085.12 C 732.33 1083.36 738.41 1083.89 742.74 1087.25 C 746.36 1089.78 748.46 1093.98 749.30 1098.23 C 750.20 1104.83 746.44 1111.65 740.59 1114.72 C 735.07 1117.71 727.79 1117.06 722.97 1113.01 C 717.94 1109.01 715.27 1101.74 717.57 1095.58 C 718.93 1090.83 722.67 1086.91 727.25 1085.12 Z"
  />
  <path
    fill="#ededed"
    stroke="#ededed"
    stroke-width="0.09375"
    opacity="1.00"
    d=" M 988.23 1085.13 C 993.30 1083.36 999.38 1083.88 1003.71 1087.23 C 1007.34 1089.74 1009.44 1093.95 1010.29 1098.20 C 1011.70 1107.53 1003.47 1116.89 994.00 1116.59 C 983.93 1116.91 975.32 1106.02 978.34 1096.35 C 979.56 1091.28 983.39 1087.01 988.23 1085.13 Z"
  />
  <path
    fill="#959898"
    stroke="#959898"
    stroke-width="0.09375"
    opacity="1.00"
    d=" M 1322.04 1112.98 C 1323.96 1110.24 1327.91 1107.53 1331.09 1109.97 C 1336.52 1114.84 1337.95 1122.45 1339.48 1129.26 C 1333.12 1129.41 1326.36 1131.09 1322.00 1136.04 C 1316.07 1142.42 1315.74 1153.04 1321.21 1159.82 C 1324.93 1165.00 1331.44 1166.94 1337.52 1167.46 C 1334.71 1175.75 1331.83 1185.96 1322.99 1189.68 C 1317.66 1187.64 1315.46 1181.95 1313.80 1176.97 C 1309.63 1163.06 1309.93 1148.09 1313.06 1134.00 C 1314.69 1126.51 1317.73 1119.31 1322.04 1112.98 Z"
  />
  <path
    fill="#000000"
    stroke="#000000"
    stroke-width="0.09375"
    opacity="1.00"
    d=" M 802.96 1156.97 C 808.99 1148.02 817.69 1139.14 829.17 1138.66 C 837.91 1140.53 845.26 1146.61 849.91 1154.13 C 858.76 1167.99 866.02 1182.79 873.59 1197.37 C 880.02 1209.81 886.37 1222.80 887.42 1236.99 C 887.78 1243.22 885.04 1248.91 883.35 1254.73 C 883.14 1254.62 882.73 1254.41 882.52 1254.30 C 873.92 1267.85 854.20 1272.51 840.33 1264.58 C 834.66 1261.32 830.03 1256.53 826.35 1251.18 C 820.98 1256.52 814.70 1261.31 807.27 1263.28 C 798.51 1265.68 788.63 1264.97 780.77 1260.19 C 772.97 1255.32 768.53 1246.07 768.61 1237.00 C 767.88 1220.91 774.39 1205.66 781.74 1191.72 C 788.17 1179.77 795.19 1168.11 802.96 1156.97 Z"
  />
  <path
    fill="#464b4b"
    stroke="#464b4b"
    stroke-width="0.09375"
    opacity="1.00"
    d=" M 824.23 1147.25 C 829.34 1144.98 834.87 1147.93 838.58 1151.44 C 843.35 1156.21 846.59 1162.22 849.94 1168.01 C 858.19 1182.93 866.16 1198.03 873.48 1213.43 C 877.57 1222.99 881.84 1233.58 879.36 1244.13 C 876.48 1255.81 863.54 1262.75 852.08 1261.14 C 844.30 1260.07 837.77 1254.81 833.32 1248.58 C 831.45 1246.18 829.41 1242.99 825.97 1243.11 C 822.63 1243.72 819.50 1245.41 816.04 1245.32 C 807.96 1245.39 800.38 1240.49 796.30 1233.67 C 790.81 1224.75 789.84 1213.68 791.69 1203.54 C 794.66 1186.54 803.29 1171.14 813.23 1157.26 C 816.39 1153.48 819.43 1149.03 824.23 1147.25 Z"
  />
  <path
    fill="#ededed"
    stroke="#ededed"
    stroke-width="0.09375"
    opacity="1.00"
    d=" M 1190.10 1173.08 C 1193.94 1171.32 1198.55 1170.59 1202.50 1172.49 C 1209.83 1175.75 1214.73 1182.55 1218.80 1189.20 C 1222.76 1195.98 1226.38 1202.97 1229.88 1210.00 C 1230.55 1211.32 1231.22 1212.65 1231.91 1213.99 C 1232.91 1215.98 1233.91 1217.98 1234.89 1220.00 C 1235.69 1221.60 1236.51 1223.21 1237.34 1224.82 C 1238.30 1226.83 1239.30 1228.83 1240.32 1230.83 C 1241.82 1233.89 1243.35 1236.96 1244.81 1240.06 C 1246.16 1242.71 1247.46 1245.39 1248.74 1248.10 C 1252.49 1256.20 1256.85 1264.17 1258.89 1272.93 C 1261.04 1281.74 1258.68 1291.16 1253.71 1298.61 C 1244.86 1311.86 1233.00 1322.70 1221.05 1333.08 C 1205.03 1347.12 1188.75 1360.87 1172.10 1374.16 C 1165.32 1379.33 1158.28 1384.77 1149.82 1386.77 C 1146.15 1387.69 1142.13 1387.10 1139.06 1384.85 C 1133.88 1381.22 1130.91 1375.42 1128.06 1369.97 C 1125.27 1364.69 1122.70 1359.30 1119.88 1354.05 C 1119.37 1352.97 1118.87 1351.91 1118.39 1350.87 C 1115.26 1344.59 1112.18 1338.29 1109.10 1332.01 C 1105.67 1324.20 1101.57 1316.71 1097.83 1309.06 C 1096.52 1306.38 1095.23 1303.71 1093.91 1301.06 C 1093.23 1299.71 1092.57 1298.38 1091.92 1297.06 C 1087.87 1288.68 1083.75 1280.33 1080.21 1271.73 C 1078.29 1266.57 1076.34 1260.78 1078.43 1255.37 C 1081.06 1248.32 1086.84 1243.12 1092.46 1238.39 C 1102.20 1230.67 1112.84 1224.17 1123.03 1217.07 C 1139.68 1205.61 1156.57 1194.50 1173.36 1183.24 C 1178.87 1179.75 1184.10 1175.72 1190.10 1173.08 Z"
  />
  <path
    fill="#ededed"
    stroke="#ededed"
    stroke-width="0.09375"
    opacity="1.00"
    d=" M 1377.06 1183.03 C 1378.00 1177.15 1384.42 1172.14 1390.27 1174.84 C 1406.05 1181.45 1419.52 1192.74 1430.37 1205.84 C 1442.25 1220.35 1449.43 1238.07 1454.34 1256.02 C 1461.00 1280.07 1462.77 1305.35 1460.18 1330.14 C 1456.01 1370.08 1442.30 1408.49 1424.25 1444.17 C 1417.68 1456.76 1411.06 1469.37 1403.38 1481.32 C 1370.91 1476.61 1338.39 1472.11 1305.89 1467.56 C 1299.45 1466.59 1292.68 1464.84 1287.90 1460.14 C 1285.43 1457.37 1285.93 1453.30 1287.18 1450.10 C 1289.59 1443.62 1293.33 1437.75 1296.82 1431.82 C 1320.11 1394.22 1339.72 1354.14 1352.77 1311.80 C 1362.96 1280.68 1368.85 1248.34 1372.75 1215.89 C 1374.21 1204.94 1374.96 1193.87 1377.06 1183.03 Z"
  />
  <path
    fill="#959898"
    stroke="#959898"
    stroke-width="0.09375"
    opacity="1.00"
    d=" M 777.78 1219.71 C 779.68 1213.27 781.96 1206.91 785.06 1200.96 C 782.15 1213.47 783.65 1227.32 790.71 1238.24 C 795.76 1246.26 804.60 1251.56 814.00 1252.56 C 807.19 1256.56 798.93 1259.02 791.10 1256.79 C 785.42 1255.46 780.13 1251.81 777.81 1246.32 C 773.96 1237.89 775.58 1228.34 777.78 1219.71 Z"
  />
  <path
    fill="#ededed"
    stroke="#ededed"
    stroke-width="0.09375"
    opacity="1.00"
    d=" M 622.06 1209.09 C 625.29 1208.15 628.19 1210.63 630.74 1212.28 C 644.92 1222.89 660.61 1231.93 677.93 1236.20 C 681.76 1236.42 683.99 1242.21 680.15 1244.09 C 667.46 1250.59 654.57 1256.72 641.80 1263.07 C 638.17 1264.62 634.25 1267.17 630.18 1265.81 C 626.84 1264.28 625.70 1260.45 625.33 1257.10 C 623.38 1243.42 621.47 1229.73 620.11 1215.98 C 619.82 1213.58 620.00 1210.69 622.06 1209.09 Z"
  />
  <path
    fill="#ededed"
    stroke="#ededed"
    stroke-width="0.09375"
    opacity="1.00"
    d=" M 1321.86 1253.85 C 1324.40 1251.28 1327.26 1248.58 1330.96 1247.91 C 1334.66 1249.13 1335.49 1253.50 1335.95 1256.89 C 1336.64 1265.62 1334.37 1274.21 1332.43 1282.65 C 1329.28 1294.71 1326.13 1306.82 1321.66 1318.48 C 1319.42 1323.80 1316.84 1329.46 1312.03 1332.94 C 1308.87 1335.25 1304.12 1334.25 1302.04 1331.00 C 1299.87 1327.58 1298.47 1323.76 1296.79 1320.11 C 1295.80 1317.75 1294.77 1315.44 1293.71 1313.13 C 1291.54 1307.60 1287.86 1302.24 1288.45 1296.05 C 1289.06 1289.05 1293.79 1283.39 1298.38 1278.45 C 1306.28 1270.32 1314.00 1262.02 1321.86 1253.85 Z"
  />
  <path
    fill="#ededed"
    stroke="#ededed"
    stroke-width="0.09375"
    opacity="1.00"
    d=" M 685.91 1255.81 C 688.60 1254.58 691.23 1253.14 694.15 1252.50 C 698.63 1251.66 703.33 1255.37 703.26 1260.01 C 703.75 1268.98 702.43 1278.10 699.37 1286.56 C 698.47 1289.35 695.40 1290.42 693.67 1292.61 C 689.32 1297.73 687.75 1304.51 686.32 1310.92 C 683.74 1323.85 681.09 1337.09 682.87 1350.32 C 684.20 1358.53 688.60 1366.79 696.44 1370.38 C 705.84 1374.74 716.37 1376.20 726.64 1376.49 C 729.26 1382.36 734.58 1386.53 740.57 1388.61 C 746.79 1391.03 753.46 1391.75 760.01 1392.75 C 760.41 1394.03 760.81 1395.33 761.21 1396.66 C 759.43 1398.09 757.53 1399.39 755.45 1400.35 C 741.97 1406.79 728.30 1412.84 714.46 1418.46 C 708.80 1420.65 703.10 1423.18 696.98 1423.61 C 689.80 1423.60 684.10 1418.38 679.85 1413.12 C 673.79 1405.20 669.08 1396.36 664.50 1387.54 C 656.04 1371.69 649.83 1354.81 644.11 1337.82 C 639.64 1324.40 635.67 1310.81 632.52 1297.03 C 631.11 1292.38 631.90 1286.91 635.39 1283.39 C 638.50 1280.33 642.42 1278.30 646.19 1276.18 C 659.30 1269.15 672.47 1262.21 685.91 1255.81 Z"
  />
  <path
    fill="#ededed"
    stroke="#ededed"
    stroke-width="0.09375"
    opacity="1.00"
    d=" M 703.97 1297.91 C 709.18 1295.17 715.31 1295.20 721.04 1295.65 C 726.63 1296.63 732.64 1299.55 734.79 1305.17 C 735.70 1306.45 734.91 1307.91 734.51 1309.23 C 730.23 1321.08 728.16 1333.57 726.05 1345.95 C 724.90 1352.44 724.09 1359.00 724.39 1365.61 C 716.29 1365.14 707.92 1364.06 700.58 1360.40 C 694.01 1356.81 693.37 1348.59 692.85 1341.95 C 693.46 1330.80 695.26 1319.72 697.87 1308.86 C 699.08 1304.90 700.07 1300.12 703.97 1297.91 Z"
  />
  <path
    fill="#ededed"
    stroke="#ededed"
    stroke-width="0.09375"
    opacity="1.00"
    d=" M 753.97 1298.92 C 760.10 1295.66 767.53 1294.75 774.19 1296.90 C 782.03 1299.26 789.77 1304.10 792.74 1312.11 C 789.36 1322.48 787.40 1333.27 786.21 1344.10 C 784.73 1355.31 783.83 1366.63 784.65 1377.94 C 775.54 1382.62 765.01 1381.71 755.15 1381.19 C 748.67 1379.87 740.58 1379.02 736.85 1372.80 C 733.69 1365.52 735.45 1357.43 736.35 1349.88 C 738.49 1337.40 740.47 1324.82 744.57 1312.81 C 746.50 1307.56 748.96 1301.91 753.97 1298.92 Z"
  />
  <path
    fill="#ededed"
    stroke="#ededed"
    stroke-width="0.09375"
    opacity="1.00"
    d=" M 819.35 1300.70 C 829.12 1298.62 839.71 1299.28 848.87 1303.40 C 856.58 1306.93 859.58 1316.12 859.33 1324.05 C 859.11 1335.01 859.86 1346.03 858.60 1356.95 C 858.09 1365.48 859.83 1374.69 855.43 1382.51 C 853.24 1386.74 848.40 1388.50 843.98 1389.27 C 832.59 1390.33 821.22 1388.59 809.96 1387.00 C 804.67 1386.24 798.92 1383.97 796.40 1378.93 C 793.82 1371.49 795.47 1363.65 795.71 1356.01 C 797.05 1344.12 798.20 1332.13 801.40 1320.57 C 802.75 1316.19 804.34 1311.78 807.04 1308.04 C 809.98 1304.09 814.63 1301.76 819.35 1300.70 Z"
  />
  <path
    fill="#ededed"
    stroke="#ededed"
    stroke-width="0.09375"
    opacity="1.00"
    d=" M 950.53 1311.47 C 957.03 1306.10 965.70 1303.96 974.02 1304.45 C 982.86 1303.89 992.91 1306.05 998.42 1313.58 C 1005.40 1322.88 1005.83 1334.97 1007.30 1346.05 C 1007.56 1354.01 1009.14 1361.99 1007.75 1369.95 C 1007.39 1376.42 1005.43 1383.70 999.50 1387.26 C 991.22 1392.13 981.19 1391.80 971.93 1391.23 C 965.05 1390.31 957.61 1389.47 951.99 1385.01 C 948.42 1382.31 947.85 1377.58 945.63 1373.97 C 945.85 1371.29 946.42 1368.66 946.50 1365.99 C 946.79 1351.28 946.48 1336.49 943.81 1322.00 C 945.75 1318.32 947.30 1314.25 950.53 1311.47 Z"
  />
  <path
    fill="#ffd400"
    stroke="#ffd400"
    stroke-width="0.09375"
    opacity="1.00"
    d=" M 888.47 1305.74 C 896.68 1302.93 905.53 1304.75 913.83 1306.24 C 921.77 1307.73 930.05 1312.38 932.35 1320.65 C 936.19 1334.75 935.66 1349.52 935.70 1364.00 C 935.48 1371.31 934.96 1379.37 930.40 1385.43 C 925.08 1390.70 916.92 1390.37 910.00 1391.22 C 899.00 1391.76 887.61 1391.46 877.12 1387.85 C 871.35 1385.96 870.87 1379.11 870.24 1374.02 C 868.74 1365.69 870.95 1357.36 870.38 1349.00 C 869.95 1338.64 870.92 1327.98 875.27 1318.45 C 877.83 1312.74 882.55 1307.91 888.47 1305.74 Z"
  />
  <path
    fill="#ededed"
    stroke="#ededed"
    stroke-width="0.09375"
    opacity="1.00"
    d=" M 1265.33 1311.44 C 1269.79 1308.91 1274.49 1312.32 1277.33 1315.68 C 1282.83 1322.32 1286.20 1330.39 1289.89 1338.11 C 1292.60 1344.66 1296.06 1351.02 1297.52 1358.02 C 1298.20 1367.63 1294.66 1376.98 1290.65 1385.57 C 1275.36 1415.83 1256.17 1444.23 1233.07 1469.10 C 1224.74 1477.78 1216.49 1486.75 1206.44 1493.50 C 1202.90 1495.66 1198.61 1498.09 1194.38 1496.51 C 1188.62 1494.55 1185.92 1488.59 1183.32 1483.59 C 1176.14 1467.45 1168.06 1451.73 1160.38 1435.83 C 1153.73 1422.03 1157.08 1403.88 1168.48 1393.60 C 1199.43 1369.05 1229.57 1343.48 1258.55 1316.63 C 1260.66 1314.73 1262.69 1312.61 1265.33 1311.44 Z"
  />
  <path
    fill="#ededed"
    stroke="#ededed"
    stroke-width="0.09375"
    opacity="1.00"
    d=" M 1012.10 1315.24 C 1014.77 1312.07 1018.97 1310.39 1023.02 1311.89 C 1027.07 1314.16 1029.37 1318.48 1031.58 1322.40 C 1036.59 1332.63 1039.39 1343.82 1041.23 1355.03 C 1041.69 1361.78 1044.06 1369.24 1040.32 1375.49 C 1037.54 1378.85 1032.90 1379.47 1028.93 1380.50 C 1024.79 1381.55 1020.47 1381.30 1016.34 1382.29 C 1019.63 1372.18 1018.73 1361.45 1018.55 1351.01 C 1017.51 1338.92 1016.33 1326.70 1012.10 1315.24 Z"
  />
  <path
    fill="#ededed"
    stroke="#ededed"
    stroke-width="0.09375"
    opacity="1.00"
    d=" M 863.35 1390.08 C 869.38 1398.53 880.31 1400.34 889.91 1401.46 C 901.62 1402.00 913.44 1402.33 925.06 1400.42 C 932.78 1399.43 941.61 1397.73 948.47 1402.53 C 956.62 1408.19 960.38 1417.74 965.29 1425.98 C 967.90 1430.65 970.48 1435.35 973.22 1439.96 C 974.52 1442.35 975.85 1444.75 977.40 1447.01 C 977.44 1447.25 977.52 1447.73 977.56 1447.96 C 978.44 1449.26 979.31 1450.60 980.18 1451.95 C 980.68 1452.96 981.21 1453.98 981.75 1455.03 C 982.56 1456.32 983.37 1457.63 984.20 1458.96 C 984.70 1459.96 985.22 1460.96 985.76 1462.02 C 986.63 1463.34 987.51 1464.67 988.44 1466.00 C 988.48 1466.23 988.55 1466.70 988.59 1466.93 C 992.35 1472.54 996.03 1478.99 995.08 1486.02 C 994.08 1493.53 988.64 1499.41 983.05 1504.08 C 973.80 1511.48 963.39 1517.21 953.22 1523.19 C 946.10 1527.12 939.26 1531.65 931.65 1534.60 C 913.23 1541.57 893.24 1539.19 874.07 1538.16 C 865.99 1537.07 857.69 1535.05 851.02 1530.14 C 843.93 1524.55 839.44 1516.49 835.37 1508.61 C 830.55 1499.08 825.78 1489.52 821.28 1479.84 C 819.39 1475.90 817.68 1471.89 815.66 1468.03 C 815.61 1467.77 815.51 1467.25 815.46 1466.98 C 814.48 1465.05 813.58 1463.08 812.72 1461.11 C 812.44 1460.60 811.87 1459.57 811.58 1459.05 C 811.55 1458.78 811.50 1458.24 811.47 1457.97 C 810.43 1456.01 809.57 1453.97 808.52 1452.04 C 808.53 1451.69 808.56 1451.01 808.58 1450.67 L 807.44 1450.35 C 807.47 1450.02 807.51 1449.34 807.54 1449.00 C 806.47 1447.03 805.62 1444.97 804.58 1443.02 C 804.56 1442.77 804.52 1442.25 804.49 1442.00 C 803.45 1440.03 802.61 1437.98 801.59 1436.02 C 801.56 1435.77 801.49 1435.28 801.45 1435.03 C 800.62 1433.27 799.86 1431.49 799.19 1429.69 L 798.44 1429.34 C 798.47 1429.00 798.54 1428.31 798.57 1427.97 C 797.86 1426.64 797.19 1425.33 796.51 1424.04 C 796.50 1423.79 796.47 1423.28 796.45 1423.02 C 793.49 1417.16 791.29 1409.74 794.52 1403.54 C 796.94 1399.17 802.53 1398.71 806.99 1398.63 C 818.95 1399.01 830.87 1401.19 842.87 1400.32 C 850.57 1399.45 858.65 1396.60 863.35 1390.08 Z"
  />
  <path
    fill="#ededed"
    stroke="#ededed"
    stroke-width="0.09375"
    opacity="1.00"
    d=" M 754.82 1415.58 C 759.67 1413.51 764.55 1410.48 770.07 1411.44 C 775.73 1411.82 779.06 1417.12 781.07 1421.84 C 788.97 1439.92 796.42 1458.21 804.83 1476.08 C 805.06 1476.60 805.53 1477.65 805.77 1478.17 C 807.44 1481.80 809.18 1485.40 810.83 1489.05 C 811.60 1490.65 812.37 1492.27 813.16 1493.90 C 814.98 1497.98 817.02 1501.95 818.85 1506.04 C 819.33 1506.95 819.82 1507.88 820.32 1508.83 C 820.79 1509.89 821.29 1510.97 821.79 1512.08 C 823.81 1515.89 826.24 1520.21 824.83 1524.67 C 823.26 1528.39 818.45 1528.01 815.17 1527.45 C 808.08 1525.88 801.23 1523.37 794.54 1520.61 C 766.23 1508.72 740.76 1490.54 719.38 1468.59 C 715.28 1464.35 711.05 1460.15 707.75 1455.25 C 705.23 1451.23 703.25 1446.07 705.29 1441.45 C 707.13 1436.93 711.57 1434.33 715.86 1432.56 C 728.82 1426.84 741.85 1421.28 754.82 1415.58 Z"
  />
  <path
    fill="#ededed"
    stroke="#ededed"
    stroke-width="0.09375"
    opacity="1.00"
    d=" M 1126.28 1429.16 C 1130.58 1428.12 1135.25 1429.45 1138.51 1432.42 C 1142.44 1436.25 1145.85 1440.62 1148.60 1445.39 C 1156.43 1458.60 1162.60 1472.70 1169.50 1486.41 C 1172.28 1492.35 1175.60 1498.34 1176.05 1505.02 C 1176.35 1511.39 1171.28 1516.56 1165.74 1518.85 C 1137.39 1531.87 1106.29 1539.40 1075.03 1539.24 C 1067.35 1538.92 1059.27 1539.19 1052.15 1535.88 C 1045.22 1532.62 1041.21 1525.74 1036.97 1519.73 C 1033.52 1514.18 1029.27 1508.66 1028.56 1501.96 C 1028.24 1496.34 1031.64 1491.17 1036.19 1488.12 C 1061.95 1470.52 1088.57 1454.17 1113.77 1435.74 C 1117.63 1433.04 1121.66 1430.35 1126.28 1429.16 Z"
  />
  <path
    fill="#464b4b"
    stroke="#464b4b"
    stroke-width="0.09375"
    opacity="1.00"
    d=" M 1245.31 1490.87 C 1250.74 1489.26 1256.38 1490.42 1261.88 1490.89 C 1315.55 1498.14 1369.15 1505.90 1422.81 1513.23 C 1431.87 1513.67 1440.79 1515.40 1449.81 1516.24 C 1452.64 1516.60 1455.59 1516.62 1458.29 1517.71 C 1460.93 1518.89 1461.13 1523.14 1458.66 1524.63 C 1456.21 1526.09 1453.41 1526.79 1450.70 1527.58 C 1438.90 1530.75 1426.92 1533.20 1415.04 1536.04 C 1348.64 1553.28 1282.23 1570.49 1215.83 1587.73 C 1206.65 1590.05 1197.52 1592.79 1188.09 1593.92 C 1164.55 1597.35 1140.67 1597.06 1116.98 1595.72 C 1092.26 1595.19 1067.65 1592.54 1043.00 1590.88 C 894.31 1579.46 745.61 1568.08 596.91 1556.68 C 590.68 1555.95 584.19 1556.05 578.26 1553.75 C 575.45 1552.85 573.53 1549.12 575.68 1546.68 C 578.03 1544.04 581.81 1543.60 585.07 1542.83 C 604.71 1539.37 624.42 1536.27 643.96 1532.23 C 655.98 1530.05 667.90 1527.10 680.06 1525.75 C 724.10 1523.06 766.61 1536.84 809.20 1545.77 C 856.74 1556.37 905.41 1561.03 954.03 1562.39 C 1004.37 1564.43 1054.74 1562.43 1105.01 1559.87 C 1154.69 1557.12 1204.45 1555.71 1254.08 1552.01 C 1269.85 1550.74 1285.66 1549.00 1301.04 1545.10 C 1306.82 1543.52 1312.86 1541.58 1317.29 1537.35 C 1320.52 1534.35 1321.40 1529.31 1319.60 1525.33 C 1317.04 1520.34 1312.03 1517.24 1307.26 1514.64 C 1288.57 1505.19 1267.87 1501.04 1247.97 1495.04 C 1245.83 1494.74 1245.60 1492.55 1245.31 1490.87 Z"
  />
  <path
    fill="#ededed"
    stroke="#ededed"
    stroke-width="0.09375"
    opacity="1.00"
    d=" M 1003.18 1510.13 C 1007.23 1508.41 1011.76 1510.19 1014.58 1513.32 C 1019.51 1518.57 1023.29 1524.75 1027.37 1530.65 C 1028.73 1533.00 1031.12 1535.81 1029.54 1538.63 C 1027.29 1542.06 1022.72 1542.25 1019.03 1542.32 C 1000.67 1542.50 982.29 1542.54 963.93 1542.14 C 961.30 1542.32 958.32 1540.75 957.74 1538.06 C 957.40 1535.70 959.71 1534.37 961.41 1533.35 C 971.12 1527.78 980.76 1522.08 990.41 1516.39 C 994.52 1514.04 998.59 1511.48 1003.18 1510.13 Z"
  />
  <path
    fill="#464b4b"
    stroke="#464b4b"
    stroke-width="0.09375"
    opacity="1.00"
    d=" M 1459.50 1535.72 C 1465.96 1535.20 1473.10 1533.53 1479.12 1536.82 C 1482.14 1538.36 1484.55 1541.00 1485.89 1544.12 C 1488.58 1550.35 1489.33 1557.22 1489.20 1563.96 C 1488.68 1607.31 1489.15 1650.67 1488.53 1694.03 C 1488.30 1720.35 1488.04 1746.68 1487.94 1773.00 C 1487.80 1782.13 1488.78 1791.65 1485.38 1800.36 C 1483.27 1805.80 1478.75 1809.87 1473.84 1812.80 C 1464.56 1818.35 1454.12 1821.45 1443.91 1824.79 C 1431.03 1829.35 1417.79 1832.78 1404.70 1836.71 C 1338.61 1855.97 1272.54 1875.33 1206.42 1894.52 C 1196.65 1897.21 1185.46 1899.86 1175.99 1894.85 C 1170.85 1892.33 1170.07 1886.04 1169.95 1880.95 C 1170.04 1797.63 1170.53 1714.30 1170.99 1630.97 C 1170.98 1623.21 1174.61 1615.51 1180.88 1610.87 C 1188.41 1605.10 1198.08 1603.83 1206.89 1600.97 C 1223.42 1595.66 1240.35 1591.72 1257.14 1587.27 C 1304.78 1574.91 1352.43 1562.54 1400.08 1550.18 C 1419.86 1545.29 1439.42 1539.30 1459.50 1535.72 Z"
  />
  <path
    fill="#959898"
    stroke="#959898"
    stroke-width="0.09375"
    opacity="1.00"
    d=" M 522.41 1563.57 C 532.52 1562.10 542.77 1563.71 552.90 1564.30 C 744.27 1578.98 935.64 1593.62 1127.01 1608.32 C 1136.27 1608.84 1146.32 1611.10 1152.77 1618.29 C 1158.02 1623.77 1159.79 1631.62 1159.83 1639.01 C 1159.78 1695.36 1159.57 1751.70 1159.28 1808.05 C 1159.35 1831.70 1158.52 1855.34 1158.84 1879.00 C 1159.14 1885.27 1157.73 1891.84 1153.82 1896.89 C 1150.64 1900.84 1145.29 1901.75 1140.56 1902.41 C 1129.67 1903.53 1118.84 1901.39 1108.01 1900.71 C 918.64 1883.88 729.28 1867.01 539.91 1850.19 C 534.23 1849.58 528.45 1848.98 523.10 1846.87 C 518.11 1844.14 515.67 1838.45 515.09 1833.02 C 513.59 1820.07 514.46 1807.00 514.20 1794.01 C 513.41 1782.81 513.65 1771.57 513.45 1760.36 C 513.27 1743.57 513.14 1726.79 513.24 1710.00 C 512.18 1682.36 512.30 1654.68 512.22 1627.02 C 512.48 1619.67 511.50 1612.36 511.68 1605.02 C 511.90 1595.62 511.39 1586.21 512.11 1576.83 C 512.65 1570.96 515.96 1564.42 522.41 1563.57 Z"
  />
  <path
    fill="#000000"
    stroke="#000000"
    stroke-width="0.09375"
    opacity="1.00"
    d=" M 554.35 1620.46 C 556.39 1619.34 558.79 1619.49 561.03 1619.57 C 670.87 1628.35 780.73 1636.94 890.57 1645.71 C 893.77 1645.79 895.88 1648.90 895.84 1651.91 C 895.76 1685.28 895.77 1718.67 895.83 1752.05 C 895.91 1755.05 894.37 1758.64 891.05 1759.13 C 885.39 1760.07 879.73 1758.53 874.06 1758.42 C 772.73 1750.43 671.40 1742.44 570.07 1734.43 C 565.32 1734.13 560.55 1733.83 555.86 1733.02 C 552.23 1732.32 550.47 1728.37 550.66 1724.99 C 550.64 1692.66 550.65 1660.33 550.66 1628.00 C 550.57 1625.09 551.68 1621.92 554.35 1620.46 Z"
  />
  <path
    fill="#000000"
    stroke="#000000"
    stroke-width="0.09375"
    opacity="1.00"
    d=" M 1020.38 1654.52 C 1041.52 1651.22 1063.84 1656.42 1081.59 1668.34 C 1096.60 1678.30 1108.40 1692.76 1115.88 1709.10 C 1131.18 1742.30 1128.43 1783.01 1109.08 1814.00 C 1098.22 1831.60 1082.01 1846.06 1062.79 1853.90 C 1038.98 1863.85 1010.75 1862.37 988.23 1849.73 C 983.36 1847.34 979.39 1843.22 974.00 1841.97 C 960.41 1838.05 948.17 1829.66 939.58 1818.43 C 928.21 1803.82 923.35 1784.35 926.55 1766.11 C 928.20 1756.06 932.22 1746.41 938.18 1738.16 C 939.92 1735.85 940.71 1733.05 941.34 1730.29 C 949.22 1699.24 971.56 1671.45 1001.73 1659.72 C 1007.74 1657.32 1014.04 1655.79 1020.38 1654.52 Z"
  />
  <path
    fill="#ededed"
    stroke="#ededed"
    stroke-width="0.09375"
    opacity="1.00"
    d=" M 992.86 1676.83 C 1007.41 1667.56 1025.06 1663.99 1042.13 1665.53 C 1060.06 1667.62 1076.95 1676.47 1089.26 1689.61 C 1102.98 1704.04 1111.28 1723.20 1113.61 1742.90 C 1116.39 1765.74 1111.14 1789.52 1098.82 1808.97 C 1089.25 1824.13 1075.16 1836.59 1058.48 1843.34 C 1040.94 1850.56 1020.62 1850.85 1002.91 1844.03 C 1021.00 1841.40 1036.12 1830.57 1051.55 1821.60 C 1058.79 1817.15 1066.30 1813.10 1073.43 1808.49 C 1086.08 1796.60 1093.46 1779.29 1093.45 1761.94 C 1094.07 1742.65 1085.77 1723.46 1071.90 1710.14 C 1059.94 1698.65 1043.66 1691.41 1026.98 1691.38 C 1019.42 1691.14 1011.68 1692.19 1004.95 1695.83 C 988.71 1704.14 972.05 1711.68 956.25 1720.82 C 963.83 1703.02 976.22 1686.97 992.86 1676.83 Z"
  />
  <path
    fill="#ededed"
    stroke="#ededed"
    stroke-width="0.09375"
    opacity="1.00"
    d=" M 1013.12 1701.58 C 1028.33 1697.78 1044.99 1701.26 1057.87 1710.09 C 1071.11 1718.97 1080.46 1733.29 1083.55 1748.91 C 1087.44 1767.40 1081.89 1788.00 1068.21 1801.25 C 1062.71 1805.65 1056.07 1808.37 1050.37 1812.51 C 1061.56 1794.89 1063.49 1771.87 1055.70 1752.54 C 1046.34 1728.24 1021.87 1710.68 995.78 1710.02 C 1001.62 1707.33 1007.14 1703.95 1013.12 1701.58 Z"
  />
  <path
    fill="#ff002c"
    stroke="#ff002c"
    stroke-width="0.09375"
    opacity="1.00"
    d=" M 986.14 1719.25 C 1002.14 1716.83 1018.94 1722.38 1031.16 1732.81 C 1043.71 1743.45 1051.21 1759.59 1051.69 1775.99 C 1052.11 1795.53 1042.20 1815.08 1025.81 1825.87 C 1010.09 1836.71 988.95 1838.85 971.28 1831.77 C 955.65 1825.65 943.05 1812.47 937.64 1796.59 C 932.21 1781.47 933.59 1764.24 941.08 1750.06 C 949.80 1733.18 967.18 1721.11 986.14 1719.25 Z"
  />
  <path
    fill="#000000"
    stroke="#000000"
    stroke-width="0.09375"
    opacity="1.00"
    d=" M 588.38 1758.55 C 597.83 1757.17 607.92 1760.63 614.32 1767.78 C 621.85 1776.02 623.84 1788.86 618.85 1798.90 C 615.66 1805.95 609.34 1810.75 603.47 1815.46 C 595.80 1821.42 587.08 1827.14 577.02 1827.30 C 570.88 1826.90 564.73 1824.97 559.86 1821.12 C 552.74 1815.74 548.78 1806.80 548.72 1797.98 C 549.22 1791.42 551.56 1784.88 556.04 1779.98 C 562.05 1773.22 569.60 1768.10 576.98 1762.97 C 580.33 1760.54 584.36 1759.32 588.38 1758.55 Z"
  />
  <path
    fill="#000000"
    stroke="#000000"
    stroke-width="0.09375"
    opacity="1.00"
    d=" M 673.47 1767.73 C 683.16 1765.92 693.69 1769.42 700.30 1776.76 C 707.46 1784.62 709.68 1796.63 705.49 1806.45 C 703.01 1812.76 697.92 1817.59 692.44 1821.37 C 685.27 1826.43 678.81 1833.24 669.97 1835.27 C 661.96 1837.65 653.07 1835.34 646.41 1830.53 C 639.21 1825.40 635.14 1816.69 634.70 1807.98 C 634.92 1800.13 638.13 1792.29 643.98 1786.96 C 649.91 1781.48 656.50 1776.79 663.02 1772.06 C 666.10 1769.79 669.77 1768.54 673.47 1767.73 Z"
  />
  <path
    fill="#ededed"
    stroke="#ededed"
    stroke-width="0.09375"
    opacity="1.00"
    d=" M 586.61 1771.58 C 591.97 1769.87 598.15 1769.64 602.85 1773.19 C 610.95 1778.45 611.69 1790.68 605.81 1797.89 C 605.35 1790.25 602.09 1782.74 596.35 1777.62 C 593.51 1774.99 589.98 1773.35 586.61 1771.58 Z"
  />
  <path
    fill="#000000"
    stroke="#000000"
    stroke-width="0.09375"
    opacity="1.00"
    d=" M 759.51 1774.68 C 768.96 1773.03 779.17 1776.23 785.80 1783.22 C 794.13 1791.81 796.09 1805.83 790.14 1816.28 C 785.26 1824.94 776.18 1829.82 768.58 1835.76 C 763.03 1840.25 756.14 1843.16 748.95 1843.30 C 741.88 1842.87 734.86 1840.23 729.70 1835.29 C 721.85 1827.78 718.48 1815.56 722.52 1805.31 C 725.49 1796.14 733.84 1790.61 741.03 1784.94 C 746.78 1780.89 752.31 1775.82 759.51 1774.68 Z"
  />
  <path
    fill="#ededed"
    stroke="#ededed"
    stroke-width="0.09375"
    opacity="1.00"
    d=" M 672.48 1780.62 C 677.86 1778.88 684.10 1778.60 688.84 1782.19 C 696.95 1787.44 697.69 1799.68 691.81 1806.89 C 691.35 1799.03 687.89 1791.30 681.84 1786.18 C 679.09 1783.75 675.75 1782.19 672.48 1780.62 Z"
  />
  <path
    fill="#000000"
    stroke="#000000"
    stroke-width="0.09375"
    opacity="1.00"
    d=" M 849.38 1780.54 C 858.82 1779.20 868.89 1782.62 875.29 1789.75 C 883.02 1798.18 884.89 1811.41 879.53 1821.57 C 874.07 1831.51 864.73 1838.59 854.94 1843.94 C 849.85 1847.04 844.04 1849.14 838.04 1849.31 C 830.00 1848.87 821.98 1845.44 816.74 1839.22 C 810.78 1832.13 808.03 1821.98 810.98 1813.04 C 814.05 1802.74 822.39 1794.96 831.15 1789.23 C 837.03 1785.97 842.57 1781.61 849.38 1780.54 Z"
  />
  <path
    fill="#ff002c"
    stroke="#ff002c"
    stroke-width="0.09375"
    opacity="1.00"
    d=" M 577.21 1782.21 C 586.20 1781.61 594.59 1789.97 593.73 1799.02 C 594.36 1809.53 582.81 1817.96 572.92 1814.86 C 563.32 1812.71 557.67 1801.01 561.88 1792.13 C 564.25 1785.92 570.82 1782.47 577.21 1782.21 Z"
  />
  <path
    fill="#ededed"
    stroke="#ededed"
    stroke-width="0.09375"
    opacity="1.00"
    d=" M 758.49 1787.62 C 763.88 1785.88 770.11 1785.61 774.84 1789.19 C 782.95 1794.45 783.69 1806.68 777.81 1813.89 C 777.35 1806.02 773.88 1798.27 767.81 1793.16 C 765.07 1790.74 761.74 1789.20 758.49 1787.62 Z"
  />
  <path
    fill="#ff002c"
    stroke="#ff002c"
    stroke-width="0.09375"
    opacity="1.00"
    d=" M 663.26 1791.21 C 670.40 1790.81 677.28 1795.95 679.22 1802.80 C 680.55 1808.48 679.67 1815.08 675.30 1819.30 C 669.84 1825.22 660.07 1826.10 653.56 1821.40 C 646.97 1816.90 644.51 1807.37 648.27 1800.30 C 650.85 1794.52 657.18 1791.49 663.26 1791.21 Z"
  />
  <path
    fill="#ededed"
    stroke="#ededed"
    stroke-width="0.09375"
    opacity="1.00"
    d=" M 847.43 1793.63 C 852.84 1791.88 859.12 1791.59 863.88 1795.22 C 871.97 1800.50 872.66 1812.70 866.81 1819.92 C 866.36 1812.51 863.32 1805.22 857.88 1800.11 C 854.91 1797.20 851.16 1795.34 847.43 1793.63 Z"
  />
  <path
    fill="#ff002c"
    stroke="#ff002c"
    stroke-width="0.09375"
    opacity="1.00"
    d=" M 749.24 1798.21 C 755.83 1797.84 762.26 1802.18 764.69 1808.28 C 767.15 1814.92 765.61 1823.28 759.77 1827.70 C 752.51 1833.96 740.10 1832.03 735.17 1823.79 C 731.43 1818.11 731.67 1810.24 735.76 1804.82 C 738.80 1800.51 744.14 1798.54 749.24 1798.21 Z"
  />
  <path
    fill="#ff002c"
    stroke="#ff002c"
    stroke-width="0.09375"
    opacity="1.00"
    d=" M 838.27 1804.21 C 847.24 1803.65 855.58 1811.99 854.73 1821.02 C 855.36 1831.53 843.80 1839.96 833.91 1836.86 C 824.30 1834.70 818.66 1822.97 822.90 1814.10 C 825.28 1807.89 831.88 1804.46 838.27 1804.21 Z"
  />
</svg>
