<svg xmlns="http://www.w3.org/2000/svg" viewBox="0 0 2000 2000">
  <path fill="#ffd400" stroke="#ffd400" stroke-width=".094" d="M0 0h2000v2000H0V0Z"/>
  <path stroke="#000" stroke-width=".094" d="M976.41 272.39c8.23-2.62 17.21.25 23.94 5.21 8.84 6.78 13.72 17.22 17.76 27.31 8.2 21.84 13.93 44.51 19.31 67.19 1.04 3.77 1.26 7.87 3.12 11.37 2.77 3.52 8.28 1.92 11.11-.76 33.56-29.7 72.28-54.43 115.26-67.88 12.37-3.64 25.08-7.22 38.11-6.67 7.01-.08 14.35 2.35 19.21 7.57 2.75 3.31 5.25 7.69 4.11 12.14-1.35 7.34-5.99 13.36-10.46 19.1-1.79 1.96-1.55 4.57-.85 6.92 4.98 2.06 9.79-1.27 14.58-2.35 22.25-6.24 45.09-12.24 68.4-11.33 9.6-.14 19.2 1.53 28.3 4.57 8.4 2.93 16.69 7.71 21.48 15.46 3.61 5.59 5.3 12.82 2.76 19.18-3.2 9.39-11.7 15.34-19.74 20.39-4.87 3.28-10.4 5.52-15.08 9.05-2.51 2.1.21 6.64 3.32 4.97 22.39-6.03 44.95-11.59 67.86-15.24 20.33-3.15 41.16-4.82 61.61-1.81 9.52 1.62 19.31 3.82 27.46 9.27 5.36 3.51 9.18 9.59 9.32 16.06-.71 6.84-4.99 12.79-10.45 16.75-7.72 5.59-16.72 8.98-25.49 12.53-38.17 14.59-75.82 30.98-111 51.88-5.66 3.39-11.41 6.64-16.98 10.16-2.19 1.07-2.74 4.34-.71 5.87 1.19 1.33 3.25.44 4.78.21 19.12-5.02 38.91-6.24 58.54-7.59 12.95-1.56 26.02-.56 39.04-.84 10.72.63 21.44 1.75 32 3.83 18.74 3.29 37.75 7.3 54.59 16.52 8.65 4.96 17.21 11.42 21.2 20.87 2.17 4.66 2.63 10.23.53 15-2.73 7.5-9.69 12.57-17.02 15.06-10.42 3.57-21.55 4.07-32.45 4.55-8.98.74-17.98 1.12-26.92 2.17-26.07 2.94-51.51 9.75-76.49 17.55-5.31 1.99-11.31 2.74-15.77 6.5.06 2.83.67 6.63 4.26 6.75 37.08 6.31 73.04 19.87 104.38 40.78 25.35 17 48.66 37.81 65.65 63.35 6.36 9.8 12.11 20.34 14.28 31.95 1.25 6.33-.21 13.1-3.91 18.38-3.72 5.17-10.2 7.85-16.45 7.8-9.86-.72-18.29-6.49-26.23-11.84-13.64-9.61-27.5-18.98-42.27-26.76-33.44-17.64-70.61-28.52-108.4-30.73-17.66-.59-35.46-.59-52.92 2.37-3.48.47-3.36 4.29-3.24 6.98 6.98 3.13 14.28 5.54 21.18 8.89 17.4 8.03 33.77 18.26 48.59 30.41 13.71 11.19 26.3 23.91 36.27 38.58 6.32 9.45 11.74 19.77 13.94 31.01 3.01 11.68-1.88 26.59-14.21 30.52-8.23 3.07-17.06-.13-24.56-3.72-12.83-6.6-24.19-15.61-36.16-23.59-15.15-10.45-31.14-19.71-48.02-27.05-8.69-3.74-17.47-7.4-26.72-9.5-10.18-2.43-20.56-5.49-31.13-4.54-2.87.66-6.78.86-8 4.05.15 4.02 2.27 7.79 5.49 10.18 28.42 19.29 53.63 42.99 76.47 68.57 9.13 10.29 17.48 21.23 25.76 32.22 8.54 12.04 21.56 20.75 35.97 23.99 13.39 2.77 26.83 5.25 40.28 7.66 10.58 1.99 21.4 3.51 31.38 7.75 7.05 2.99 13.77 7.43 18.09 13.9 3.45 4.89 5.39 10.64 6.61 16.45.62 2.56 1.41 5.72 4.1 6.84 6.87 2.42 14.56.99 21.36 3.73 3.65 2.7 4.4 7.58 6.1 11.54 12.76 1.04 25.47 2.54 38.23 3.61 2.87.36 6.19.83 8.04 3.35 1.72 2.44 2.07 5.5 2.86 8.33 5.14 1.59 10.21 3.99 13.88 8.05 1.68 1.51 2.88 3.98 5.35 4.32 15.49 3.11 30.24 9.41 43.65 17.69 16.36 10.16 30.17 23.95 41.98 39.06 31.67 39.75 49.34 89.94 51.64 140.55.07 10 .09 20.01-.03 30.02-1.45 22.77-5.26 45.43-11.82 67.31-10.71 36-28.12 69.77-49.58 100.5-21.03 30.04-45.93 57.39-74.05 80.94-30.27 25.45-64.18 46.44-100.08 62.98-46.4 21.53-95.96 35.74-146.23 44.8-13.34 2.35-26.71 5.21-39.19 10.63-16.23 7.01-30.93 16.98-45.65 26.66-69.29 45.06-150.13 71.75-232.43 78.37-89.82 7.19-182.05-10.14-261.83-52.5-62.44-33.05-116.96-82.13-153.23-143.03-10.13-17.11-19.16-34.91-26.31-53.47-3.63-9.78-7.19-19.66-12.25-28.82-8.63-15.14-21.72-26.98-34.46-38.58-28.24-25.51-54.22-53.6-76.51-84.47-25.33-34.79-45.59-73.04-62.43-112.58-8.68-20.31-16.34-41.05-22.77-62.17-5.73-18.25-9.79-36.98-15.77-55.13-1.9-6.7-8.08-10.77-14.41-12.7-8.59-2.62-17.27-7.03-22.16-14.87-4.01-6.59-4.88-14.44-6.04-21.9-3.02-20.96-6.23-41.89-9.24-62.84-.67-5.06-2.42-10.11-1.39-15.25 1.35-10.38 9.06-18.49 17.38-24.14 3.88-2.99 8.91-5.67 10.22-10.75.63-8.12-.76-16.22-1.86-24.24-1.49-10.59-2.9-21.18-4.44-31.76-.79-5.82.74-13.07 6.64-15.67 5.6-3.31 13.26-.5 16.24 5.05 1.41 2.57 1.84 5.51 2.37 8.36 2.21 15.67 4.25 31.37 6.56 47.03.61 3.84 1.39 8.31 4.89 10.64 4.08 2.35 8.79 3.21 13.03 5.2 7.12 2.89 13.89 7.28 18.19 13.78 2.28 3.79 3.68 8.07 4.54 12.4 3.57 24.09 7.13 48.18 10.76 72.26.82 6.06 2.62 12.36.72 18.41-2.13 7.82-7.63 14.32-14.09 19.02-2.81 2.16-6.03 3.94-8.19 6.84-1.84 2.58-1.47 5.92-2.23 8.89 1.16 10.25 4.04 20.17 6.59 30.14 9.81 37.74 23.59 74.39 40.41 109.56 13.33 28.19 28.98 55.32 47.25 80.6 1.76 2.43 3.91 4.54 6.15 6.55 1.72.02 3.45.02 5.19.02 3.74-3.95 4.05-9.62 6-14.45 4.04-11.36 11.79-21.56 22.33-27.59 4.63-2.82 10.57-5.12 12.26-10.82 1.53-5.25.7-10.85.51-16.22-.69-22.01-.08-44.03 1.09-66.01-.61-9.49-1.37-19.01-3.33-28.35-1.9-11.43-6.06-22.34-8.02-33.76-5.19-27.14-3.27-55.62 5.81-81.74 8.18-23.85 22.56-45.57 41.52-62.22 10.63-9.37 21.81-18.49 29.81-30.34 19.21-31.2 41.8-60.36 67.76-86.24 11.46-11.91 24.35-22.28 37.04-32.81 5.33-4.31 11.23-8.51 14.38-14.78.69-3.75-2.15-7.01-5.18-8.8-12.13-.99-24.03 1.97-35.72 4.81-19.11 4.75-37.52 11.88-55.59 19.64-14.94 6.18-29.13 14.77-45.23 17.71-7.85 1.51-16.35.21-23.07-4.25-8.62-5.88-12.45-17.34-10.32-27.38 2.2-9.81 7.22-18.7 12.89-26.9 8.51-11.92 18.82-22.48 30.03-31.88 14.6-12.52 31.58-21.84 48.69-30.42 2.18-1.33 4.87-2.5 5.88-5.02 1-2.28-.3-5.08-2.52-6.06-3.97-1.94-8.53-1.19-12.78-1.23-19.52 1.94-38.98 5.01-57.92 10.2-32.34 8.98-63.11 23.72-90.13 43.66-9.37 6.59-18.64 14.22-30.08 16.77-8.35 2.19-18.06-1.58-22.4-9.12-3.77-6.44-4.77-14.31-3.1-21.55 2.87-14.6 10.17-27.93 18.56-40.06 10.98-15.75 24.66-29.4 39.18-41.87 15.69-13.48 33.46-24.53 52.53-32.55 33.33-13.86 69.36-20.57 105.35-21.85 15.32-.01 30.65.08 45.97-.03 4.21.07 9.05-2.14 9.62-6.77.96-5.31-3.88-8.88-7.65-11.6-29.57-20.02-62.14-35.01-94.8-49.21-20.13-8.74-40.59-16.74-61.45-23.57a501.873 501.873 0 0 0-59.14-14.21c-10.56-2.26-21.76-4.41-30.49-11.19-5.77-4.69-9.59-13.11-6.35-20.32 3.15-9 11.71-14.46 19.95-18.3 15.51-6.94 32.64-9.2 49.48-10.01 44.43-1.55 88.13 8.37 131.09 18.53 40.68 9.85 80.94 22.97 117.76 43.14 7.03 3.71 13.58 8.26 20.63 11.93.94-.51 1.89-1.01 2.84-1.51-.46-1.48-.72-3.06-1.67-4.3-32.43-41.62-72.77-77.12-118.34-103.72-16.8-9.94-34.96-17.16-52.65-25.28-10.15-4.93-20.61-10.19-28.2-18.77-5.02-6.09-8.68-14.66-5.77-22.49 1.9-6.72 7.36-11.87 13.75-14.4 9.91-4.34 20.97-3.45 31.51-3.11 22.44 2.19 44.27 8.17 65.93 14.21 31.97 8.74 63.5 19.46 93.34 33.97 2.39 1.24 4.93 2.16 7.55 2.81.06-2.11.41-4.48-1.21-6.14-9.4-12.1-21.38-23.08-25.89-38.19-2.56-7.34-.34-15.83 4.95-21.4 4.82-4.83 11.55-7.18 18.17-8.17 16.85-1.76 33.4 3.19 49.21 8.42 26.73 9.39 52.19 23.5 72.63 43.31 3.42 3.02 5.77 7.24 9.79 9.57 2.73.78 5.62.08 8.18-1.03 5.75-11.12 12.04-21.95 18.2-32.86 8.51-14.52 17.12-29.14 28.13-41.95 7.76-8.77 16.67-17.61 28.38-20.59Z"/>
  <path fill="#00a900" stroke="#00a900" stroke-width=".094" d="M974.26 305.27c2.77-3.04 5.59-6.61 9.79-7.62 4.02 2.1 5.84 6.59 7.85 10.41 5.71 12.51 9.11 25.89 12.77 39.1 6.48 23.81 11.77 47.94 15.73 72.3 1.49 11.08-3.77 21.56-9.22 30.83-21.32 33.85-37.71 70.86-48.34 109.43-2.43-28.3-3.4-56.87-.51-85.18.23-4.39 1.4-9.12-.53-13.28-1.93-4.2-8.65-4.18-10.91-.29-2 3.44-1.76 7.61-2.23 11.44-3.52 36.47-1.61 73.24 2.68 109.56-6.11-11-11.71-22.28-18.35-32.97-8.2-13.5-17.46-26.35-27.35-38.67-3.63-4.26-7.16-8.86-8.43-14.44-1.95-6.11-1.21-12.6.19-18.74 3.32-17.76 8.96-34.97 14.89-52.01 10.87-30.52 24.38-60.12 40.62-88.16 6.48-10.97 13.13-21.94 21.35-31.71Z"/>
  <path fill="#00a900" stroke="#00a900" stroke-width=".094" d="M774.9 334.77c5.35.72 10.8 1 16.06 2.31 33.26 9.12 62.7 28.85 87.21 52.72 5.6 5.42 10.84 11.2 15.66 17.32 3.16 3.91 5.25 8.8 5.25 13.89.1 4.6-1.4 9.02-2.78 13.35-3.77 11.52-7.31 23.14-9.71 35.03-.66 2.43-.99 5.44-3.41 6.82-3.14 1.93-7.41 1.2-9.84-1.53-10.82-10.57-22.55-20.15-34.4-29.53-11.94-9.67-17.98-24.18-24.37-37.7-9.83-19.48-21.16-38.26-34.37-55.65-2.97-4.09-6.99-7.73-8.27-12.78.88-1.49 1.96-2.84 2.97-4.25Z"/>
  <path fill="#00a900" stroke="#00a900" stroke-width=".094" d="M1182.85 339.54c3.29-1.02 6.72-.46 9.99.4-1.31 2.27-2.6 4.6-4.4 6.54-8.73 9.16-16.35 19.35-22.99 30.1-4.07 6.66-9.26 12.61-15.19 17.67-6.29 5.43-14.04 8.65-21.07 12.95-29.77 17.11-56.68 38.85-80.99 63.03-27 27.4-50.39 58.44-68.72 92.28-2.54 4.75-4.79 9.65-7.63 14.23 1.84-13.47 6.32-26.43 10.67-39.27 11.16-31.12 25.41-61.35 44.36-88.53 23.55-33.59 55.56-60.48 90.58-81.47 20.46-12.07 42.35-21.97 65.39-27.93Z"/>
  <path fill="#00a900" stroke="#00a900" stroke-width=".094" d="M611.95 364.82c2.68-.4 5.44-.8 8.11-.03 37.55 8.37 74.56 19.4 110.28 33.74 58.22 23.51 112.93 58.11 154.41 105.71 26.28 29.62 47.7 63.54 62.93 100.1 2.54 5.89 4.52 12.24 4.15 18.73-.61 10.6-4.21 20.68-6.41 30.99-1.23 4.93-1.91 9.98-3.08 14.93-.54 4.71-8.32 4.52-9.4.19-10.17-25.48-21.02-50.76-34.15-74.89-15.62-29.24-34.84-56.47-56.42-81.61-2.3-2.35-4.65-5.83-8.37-5.44-3.67-.09-5.66 4.66-3.82 7.56 2.15 3.7 5.5 6.48 8.16 9.79 17.91 21.64 34.33 44.61 47.85 69.26 13.23 23.65 24.26 48.45 34.34 73.58 1.33 3.45 3.19 6.8 3.63 10.54.06 2.23-2.5 2.45-4.16 2.68-2.87.06-5.41-1.47-7.75-2.9-13.77-9.16-28.91-16.12-44.49-21.6-4.82-1.7-9.71-3.94-12.96-8.04-4.08-4.75-4.16-11.33-5.83-17.07-7.78-28.66-19.57-56.14-34.02-82.06-16.85-30.19-38.15-57.82-62.56-82.29-40.86-40.53-88.21-74.92-140.73-98.72.07-.79.21-2.36.29-3.15Z"/>
  <path fill="#00a900" stroke="#00a900" stroke-width=".094" d="M1273.03 370.01c12.68-1.34 25.48-2.19 38.23-1.29 3.33.17 6.74 1.46 8.78 4.24-.22 1.61-.63 3.2-1 4.79-32.04 15.05-62.31 34.01-89.26 57.02-37.88 32.53-68.08 74.27-85.91 120.99-2.33 5.99-4.02 12.29-7.36 17.84-4.71 7.97-10.71 15.24-17.9 21.1-12.89 9.92-24.85 21.28-34.45 34.46-3.58 5.27-6.55 11.4-12.35 14.62-6.93 4.07-15.17 4.51-22.87 6.03-4.73.81-11.15.81-13.81-3.96-1.91-5 .34-10.32 1.76-15.14 30.53-89.55 95.61-167.39 179.76-211.1 4.49-2.53 9.56-4.11 13.65-7.32 3.09-2.5 2.64-7.83-.81-9.8-3.92-2.47-8.27.41-11.89 2.06-89.22 43.94-158.73 124.69-191.74 218.22-2.74 7.23-5.09 14.63-8.36 21.65-4.55 9.23-10.98 17.77-19.66 23.48-13.01 8.69-24.99 18.89-35.72 30.27-2 1.95-4.09 4.48-7.15 4.48-2.27-.24-3.04-2.66-3.05-4.59-.66-10.81 1.46-21.51 3.45-32.08 7.66-39.14 21.99-76.96 42.43-111.21 15.08-25.14 32.89-48.64 53.08-69.88 24.71-25.73 52.49-48.72 83.42-66.63 42.49-24.87 89.68-42.48 138.73-48.25Z"/>
  <path fill="#00a900" stroke="#00a900" stroke-width=".094" d="M1338.12 433.46c30.02-7.83 60.84-12.97 91.89-13.74 3.58-.34 6.83 1.24 9.67 3.25-1.75 3.15-4.85 4.89-8.24 5.77-36.5 13.67-72.18 29.84-105.5 50.17-28.45 17.41-56.2 36.49-79.88 60.15-4.96 4.74-9.96 9.56-15.89 13.09-8.96 5.38-19.08 8.48-29.25 10.6-11.12 2.3-22.15 5.02-32.97 8.47-4.13 1.29-9.49 2.17-12.66-1.52-2.4-2.34-1.41-5.9-.44-8.65 3.34-8.84 7.17-17.5 11.36-25.97 6.68-14.33 16.32-27.3 28.63-37.27 12.06-10.7 26.69-17.73 40.95-24.96 32.87-16.07 66.89-30.08 102.33-39.39Z"/>
  <path fill="#00a900" stroke="#00a900" stroke-width=".094" d="M475.97 480c13.65-.69 27.33-.69 41-.6 34.21 1.57 68.22 7.15 101.15 16.57 37.25 10.64 74.03 23.59 108.43 41.54 23.38 12.18 45.21 27.4 64.27 45.64 12.5 11.87 24.46 24.44 34.73 38.32 4.72 7.38 9.66 15.63 8.72 24.75-16.76-3-33.48-6.23-50.35-8.51-9.71-1.58-19.93-2.06-28.74-6.87-6.89-3.45-11.95-9.41-17.84-14.2-24.93-21.02-51.93-39.47-79.91-56.17-31.84-18.93-65.08-35.55-99.58-49.08-25.57-9.91-51.77-18.53-78.85-23.16-2.62-.8-6.91-.86-7.4-4.25.25-2.18 2.1-4.08 4.37-3.98Z"/>
  <path fill="#00a900" stroke="#00a900" stroke-width=".094" d="M1264.66 563.25c38.42-17.01 80.24-26.74 122.34-26.81 28.84.19 57.65 4.08 85.6 11.16 5.28 1.56 10.83 2.54 15.79 5.04 2.01.99 1.51 3.65 2.13 5.46-9.17.62-18.35.87-27.49 1.86-21.55 2.15-42.66 7.24-63.6 12.6-28.37 7.56-56.3 17.25-82.61 30.34-4.08-4.25-6.82-9.6-10.97-13.81-10.81-12.44-25.37-21.36-41.19-25.84Z"/>
  <path fill="#00a900" stroke="#00a900" stroke-width=".094" d="M1225.2 571.69c18.74-1 38.49 1.41 54.81 11.3 13.43 7.98 23.29 20.72 30.67 34.27 3.68 6.93 7.35 14.07 8.8 21.86.93 6.02.81 13.04-3.51 17.82-2.76 3.18-7.46 3.27-11.2 2.16-4.67-1.44-8.4-4.77-11.88-8.04-8.56-8.14-16.32-17.15-25.72-24.38-13.22-10.27-27.98-18.66-43.73-24.38-15.96-5.58-32.59-9.58-49.51-10.55-6.64-.25-13.29-.11-19.92.11-.38-.53-1.14-1.58-1.52-2.11 10.73-4.84 22.36-7.25 33.93-9.05 16.86-2.57 34.5-1.05 50.32 5.53 7.89 3.02 14.98 7.67 22.32 11.77 2.62 1.48 6.79.31 7.3-2.94.74-2.87-1.52-5.22-3.72-6.62-11.46-7.58-24.11-13.41-37.44-16.75Z"/>
  <path fill="#00a28a" stroke="#00a28a" stroke-width=".094" d="M1133.44 609.68c18.2-7.52 38.51-6.89 57.57-3.57 15.54 3.04 30.92 7.56 45 14.93 8.98 4.61 17.43 10.2 25.41 16.39-22.77 6.41-44.37 16.26-65.71 26.34-5.96 2.69-11.78 7.25-18.7 6.26-3.88-.36-6.25-3.72-8.34-6.6-4.83-6.77-11.86-11.82-19.68-14.56-8.94-3.17-18.51-4.32-27.96-4.28-10.08-.09-20.17.05-30.2 1.09 11.12-15.03 24.92-29.02 42.61-36Z"/>
  <path fill="#00a900" stroke="#00a900" stroke-width=".094" d="M629.28 639.52c12.93-.29 25.86-.12 38.79-.09 26.05 1.2 52.08 3.09 78.01 5.91 3.86.49 7.97.37 11.54 2.1 2.07 2.28-2.05 2.94-3.57 3.53-15.03 3.74-28.8 12.73-37.79 25.4-3.78 5.37-7.61 11.18-13.68 14.18-6.97 3.41-15.01 2.74-22.37 1.25-46.15-8.11-94.22-7.71-139.51 4.99-20.74 5.83-40.78 14.07-59.71 24.34-11.86 6.41-22.96 14.09-33.91 21.93-2.28 2.15-7.47 1.62-7.3-2.19 1.32-4.81 4.83-8.59 7.47-12.71 19.88-28.73 47.58-52.08 79.62-66.14 32.08-14.67 67.37-20.84 102.41-22.5Z"/>
  <path fill="#00a900" stroke="#00a900" stroke-width=".094" d="M1332.44 641.31c23.05.3 45.96 4.23 68.19 10.2 28.28 7.63 54.13 22.67 76.3 41.64 14.53 12.4 27.71 26.3 40.05 40.86 2.01 2.48 4.32 4.89 5.35 8 .74 2.26.01 4.62-.15 6.92-6.49-3.34-12.06-8.1-18.13-12.08-29.7-20.28-62.8-36.29-98.21-43.5-24.86-5.38-50.46-6.58-75.82-5.32-19.27 1.12-38.46 3.88-57.18 8.61-21.53 5.39-42.72 12.58-62.44 22.84-5.57 2.84-11.02 6.69-17.5 6.9-2.15.07-4.91-.07-5.84-2.38-2.47-4.94-2.25-10.63-3.02-15.98-.64-6.82-2.62-14.4 1.24-20.64 4.77-6.82 12.22-11.11 19.62-14.55 17.05-7.95 34.27-15.68 52.22-21.41 6.87-2.56 14.75-1.22 20.87 2.63 4.98 3.61 8.88 8.5 13.97 12 6.35 4.65 14.59 7.1 22.4 5.37 7.51-1.8 13.36-8.04 15.87-15.18 1.83-4.75 2.14-9.89 2.21-14.93Z"/>
  <path fill="#00a900" stroke="#00a900" stroke-width=".094" d="M1123.18 659.99c6.43-3.69 14.15-2.19 20.82.01 6.24 2.02 11.97 5.9 15.6 11.44 5.04 7.58 7.78 16.41 9.98 25.17 2.7 11.7 3.67 24.07.91 35.85-1.44 5.27-4 11.6-9.9 13.02-7.66 1.31-14.8-2.97-20.68-7.37-10.72-8.52-19.44-19.24-29.94-28.02-23.34-19.61-51.7-34.12-82.23-37.74-.24-.66-.73-1.99-.97-2.66 8.7-4.69 18.6-6.18 28.23-7.73 10.85-1.44 21.86-3.18 32.81-1.74 10.9 1.62 21.42 6.01 30.23 12.63 10.84 9.92 18.01 23.24 23 36.92 1.23 3.04 2.12 6.35 4.26 8.92 2.47 2.81 7.57 2.24 9.2-1.19 1.41-2.13.57-4.7-.12-6.92-4.25-11.7-9.18-23.3-16.58-33.4-4.2-6.29-9.86-11.36-14.62-17.19Z"/>
  <path fill="#00a900" stroke="#00a900" stroke-width=".094" d="M726.67 682.61c9.84-13.16 25.97-21.16 42.34-21.47 2.15-.02 4 1.28 5.93 2.08-5.05 5.26-11.26 9.19-16.37 14.39-3.3 3.37-7.23 6.3-9.61 10.44-2.19 3.88 1.61 9.39 6.1 8.24 3.8-1.17 6.18-4.63 9-7.2 6.54-6.22 13.22-12.48 21.13-16.94 7.38-4.04 15.48-6.82 23.82-7.96 15.48-1.69 30.93 1.4 45.88 5.16 6.33 1.62 12.58 3.56 18.68 5.93-28.58 2.6-55.4 14.63-79.43 29.8-14.3 8.84-27.73 18.98-41.56 28.51-9.32 6.22-18.7 12.69-29.28 16.59-3.77 1.14-8.8 2.73-11.92-.59-3.11-4.53-3.12-10.36-3.02-15.64 1-18.38 7.29-36.56 18.31-51.34Z"/>
  <path fill="#00a28a" stroke="#00a28a" stroke-width=".094" d="M1006.39 684.67c8.81-2.02 17.89-.5 26.68.82 26.5 4.59 50.75 18.08 70.99 35.45 4.55 4.17 9.99 10 7.75 16.73-2.27 5.89-6.2 11.1-10.6 15.58-5.9 5.62-14.69 5.16-22.23 4.82-20.34-1.44-40.64-3.4-61.03-4.01-9.68.14-19.33-.62-28.98-1.14-6.73-.69-14.5-2.48-18.17-8.78-3.94-6.76-8.17-14.02-8.07-22.08.28-7.15 6.64-11.55 11.22-16.18 9.6-8.61 19.62-17.93 32.44-21.21Z"/>
  <path fill="#00a28a" stroke="#00a28a" stroke-width=".094" d="M860.4 689.55c13.61-1.91 27.93-1.23 40.65 4.37 17.74 7.28 30.5 22.51 41.11 37.92 2.67 4.1 5.55 8.14 7.53 12.65.97 2.49 1.36 6.3-1.48 7.73-4.13 1.87-8.81 1.72-13.24 1.87-14.05-.01-28.11 1.84-42.15.51-5.34-.48-10.79-2.02-14.79-5.74-5.64-5.07-9.64-11.6-14.33-17.49-5.29-7.09-11.26-13.72-15.68-21.4-2.26-3.96-3.43-9.06-1.48-13.35 2.74-4.94 8.78-6.08 13.86-7.07Z"/>
  <path fill="#00a28a" stroke="#00a28a" stroke-width=".094" d="M807.32 711.18c4.73-3.13 11.95-4.17 16.31.14 11.12 9.87 21.22 20.84 30.55 32.41 3.07 4.19 7.3 7.95 8.48 13.19-1.17 3.7-5.65 3.57-8.74 4.28-5.16.59-10.36 2.6-15.56 1.46-4.11-1.06-6.72-4.63-9.46-7.58-9.19-10.35-20.34-18.81-32.27-25.76-2.56-1.38-4.45-3.61-6.14-5.91 4.42-5.54 11.02-8.44 16.83-12.23Z"/>
  <path fill="#00a900" stroke="#00a900" stroke-width=".094" d="M669.81 728.57c7.71-2.44 15.98-5.16 24-2.32 3.46 7.18 1.55 15.39 3.99 22.82 1.58 5.64 5.29 11.02 10.91 13.2 6.5 2.68 13.84 1.26 20.18-1.19 10.74-3.97 19.79-11.2 30.12-16 5.97-2.77 11.43-7.1 18.1-8.01 6.7.25 12.4 4.43 17.77 8.04 7.75 5.64 16.07 11.33 20.71 20-5.18 5.52-12.61 7.84-19.73 9.67-10.74 2.45-21.98 3.07-32.86 1.23-9.28-1.41-18.6-2.7-27.97-3.27-35.36-1.24-70.7 5.36-103.98 17.1-18.68 6.56-37.15 13.77-55.17 21.98-4.33 1.8-8.46 4.12-13 5.34-2.08.75-5.2-.67-5.06-3.12.38-3.41 2.37-6.33 4.07-9.2 8.14-12.82 19.03-23.64 30.56-33.42 22.88-18.81 49.01-34.03 77.36-42.85Z"/>
  <path fill="#00a900" stroke="#00a900" stroke-width=".094" d="M1204.71 739.81c21.21-5.37 43.7-4.42 64.87.71 42.32 10.25 81.16 34.31 109.22 67.61 3.79 5.04 8.2 9.84 10.63 15.73-.34 1.97-.95 3.87-1.52 5.79-2.22-.9-4.47-1.8-6.36-3.28-15.43-12.12-31.08-24.08-48.1-33.91-15.7-9.17-32.43-16.63-49.87-21.82-27.32-8.31-57.47-10.59-84.68-.7-7.36 2.43-13.87 6.66-20.64 10.29-6.47 3.41-13.96 1.35-20.33-1.18-9.41-3.79-19.02-7-28.57-10.39-4.5-1.87-9.5-3.63-12.57-7.63-2.24-3.35.31-7.21 2.22-10.04 1.81-2.72 5.01-5.96 8.57-4.55 5.5 2.18 10.13 6.05 15.55 8.41 6.5 3.23 14.13 4.22 21.19 2.48 5.4-1.24 9.16-5.67 14.11-7.86 8.49-3.9 17.23-7.31 26.28-9.66Z"/>
  <path fill="#ffd400" stroke="#ffd400" stroke-width=".094" d="M967.53 775.39c6.29-4.12 14.19-4.31 21.46-4.44 13.93-.01 27.91-.29 41.78 1.27 3.46.65 6.71 3.14 7.39 6.73.57 2.52-1.44 4.54-2.82 6.37-5.28 6.07-10.63 12.08-15.85 18.19-2.61 3.05-6.29 5.73-10.47 5.57-4.09.36-7.42-2.37-10.43-4.72-7.59-6.07-15.37-11.9-23.04-17.86-3.68-2.84-6.93-6.48-8.02-11.11Z"/>
  <path fill="#ffd400" stroke="#ffd400" stroke-width=".094" d="M905.29 773.22c10.97-1.05 22.44-.75 32.68 3.8 16.24 7.32 29.98 18.98 43.16 30.75 5.71 5.08 11.08 12.16 9.87 20.28-1.58 8.66-6.45 16.33-12.06 22.96-23.24 27.82-45.99 56.03-68.36 84.55-3.63 4.43-9.58 8.82-15.57 6.77-6.31-1.63-11.09-6.37-15.87-10.52-23.71-21.02-47.93-41.47-72.52-61.45-6.49-5.34-12.33-12.67-12.63-21.42.9-7.78 6.07-14.16 11.34-19.59 9.18-9.19 18.42-18.33 28-27.11 7.04-6.81 14.97-12.73 23.71-17.19 14.9-7.68 31.73-10.32 48.25-11.83Z"/>
  <path fill="#ffd400" stroke="#ffd400" stroke-width=".094" d="M1067.23 776.27c8.32-1.27 16.64.69 24.85 1.84 28.56 4.39 56.16 13.96 82.01 26.77 6.44 3.08 12.6 7.48 16.15 13.83 2.62 4.66 2.65 10.41.86 15.38-3.85 11.45-11.44 21.03-18.1 30.94-9.11 12.93-17.58 26.31-27.05 38.98-3.46 3.93-7.15 9.26-12.95 9.23-7.45-1.33-12.9-7.15-18.48-11.79-27.02-24.77-55.03-48.44-83.51-71.51-3.41-2.92-7.4-6.17-7.98-10.9 1.32-5.86 6.02-9.98 9.69-14.42 5.76-6.56 11.43-13.2 17.3-19.66 4.59-4.69 10.82-7.5 17.21-8.69Z"/>
  <path fill="#ffd400" stroke="#ffd400" stroke-width=".094" d="M824.37 787.16c1.71.43 3.39.87 5.1 1.36-1.05 2.16-1.94 4.5-3.81 6.12-7.49 7.19-15.01 14.34-22.5 21.52-7.4 6.25-13.43 13.95-20.97 20.04-3.51 2.47-8.08 4.71-12.42 3.29-5.33-1.43-9.53-5.2-13.84-8.42-2.93-2.14-4.97-6.06-3.55-9.64 1.7-5.81 7.34-8.93 12.32-11.6 11.09-5.95 22.67-10.9 34.33-15.61 8.19-3.17 16.52-6.31 25.34-7.06Z"/>
  <path fill="#ffd400" stroke="#ffd400" stroke-width=".094" d="M1001.75 840.68c2.35-2.65 5.04-5.18 8.38-6.51 4.18-.64 8.86-.37 12.19 2.57 30.17 24.31 59.81 49.32 88.22 75.68 4.57 4.79 10.28 8.87 12.82 15.22 2.29 5.38.54 11.5-2.56 16.17-8.65 13.37-17.35 26.69-25.89 40.13-1.85 3.1-5.28 5.58-9.03 5.17-3.62-.29-6.16-3.13-8.58-5.5-14.49-13.87-32.1-24.42-51.09-30.86-17.17-5.78-35.04-9.87-53.19-10.47-20.78-1.02-42.1 1.16-61.43 9.21 29.5-37.38 59.19-74.63 90.16-110.81Z"/>
  <path fill="#ffd400" stroke="#ffd400" stroke-width=".094" d="M727.22 837.26c8.15-1.74 15.82 2.88 22.22 7.38 4.21 3.06 8.76 7.64 7.8 13.34-1.26 5.89-5.67 10.37-9.71 14.56-20.58 21.1-40.04 43.27-60.89 64.1-7 6.72-14.72 13.76-24.63 15.46-7.17.92-15.38.06-20.77-5.26-4.14-3.94-8.91-8.79-8.26-15.01.72-7.35 5.67-13.2 10-18.82 17.85-22.59 37.77-43.64 60.08-61.87 7.27-5.78 15.02-11.54 24.16-13.88Z"/>
  <path fill="#ffd400" stroke="#ffd400" stroke-width=".094" d="M1216.16 842.21c7.66-.86 16.03-.05 22.73 4.01 26.21 20.56 49.31 44.91 69.65 71.24 2.56 3.21 4.03 8.16 1.81 11.89-3.67 4.02-9.73 3.11-14.53 2.36-21.26-4.11-42.54-8.17-63.77-12.48-10.73-.4-21.41 1.47-32.11 2.04-10.94.74-22.46 1.8-32.88-2.31-5.63-2.06-10.22-9.05-6.97-14.79 3.92-7.2 9.04-13.66 13.61-20.44 6.83-9.84 13.51-19.78 20.69-29.37 5.07-6.98 13.39-10.91 21.77-12.15Z"/>
  <path fill="#ffd400" stroke="#ffd400" stroke-width=".094" d="M773.45 869.59c9.38-1.98 18.36 3.1 25.62 8.52 24.41 19.75 48.44 39.99 71.95 60.8 4.66 4.37 9.81 8.24 14.13 12.96 3.7 4.34 1.18 10.39-1.92 14.29-3.86 4.5-8.75 7.97-12.97 12.13-6.75 6.65-12.89 13.94-18.14 21.84-6.63 9.78-11.29 20.69-17.24 30.87-7.68 14.55-17.08 28.07-26.6 41.44-5.66 8.23-11.29 16.5-17.54 24.29-2.8 3.26-6.12 6.73-10.61 7.28-4.02.6-8.18-1.74-9.77-5.46-2.8-6.1-2.4-12.97-2.5-19.5-.11-23.47-5.12-47.1-15.8-68.08-8.3-16.38-20.32-31.09-35.59-41.42-5.23-3.61-10.9-6.49-16.34-9.74-3.11-1.94-6.44-4.86-6.28-8.86-.02-4.45 3.17-8.01 5.91-11.19 14.9-16.72 30.12-33.15 45.57-49.36 4.64-4.76 9.66-9.12 14.59-13.57 3.94-3.29 8.4-6.25 13.53-7.24Z"/>
  <path fill="#959898" stroke="#959898" stroke-width=".094" d="M1221.43 932.68c6.49-1.78 13.24-.67 19.71.6 51.21 9.95 102.42 19.91 153.63 29.85 8.34 1.55 16.61 3.47 25.02 4.62 5.8 1.06 11.61 2.28 17.16 4.32 3.04 1.03 5.65 3.37 6.59 6.51 2.46 7.56 1.33 15.63 1.72 23.43.46 11.34-.69 22.65-.48 33.99.09 32.98-.24 65.96-.56 98.93-.79 11.67-.32 23.38-.43 35.07.15 7.48.1 15.44-3.6 22.17-3.34 4.64-9.74 4.26-14.77 3.64-68.07-8.12-136.13-16.27-204.19-24.41-4.3-.6-9.59-1.91-11.26-6.45-2.77-5.91-2.13-12.58-2.27-18.91.24-23.34-.15-46.7.66-70.03.04-39.67-.19-79.34.24-119 .45-5.86.06-12.17 3.09-17.44 2.01-3.62 5.77-5.95 9.74-6.89Z"/>
  <path fill="#464b4b" stroke="#464b4b" stroke-width=".094" d="M1171.54 936.48c9.55-1.85 19.34-1.69 29.03-1.9-4.65 10.19-3.75 21.6-3.91 32.49-.22 44.31-.41 88.61-.56 132.92-.83 21-.28 42.02-.44 63.04.05 54.64-.46 109.29-.55 163.94-.88 27.34-.26 54.69-.45 82.04.04 32.98-.35 65.96-.35 98.94.16 6.01-.05 12.12 1.32 18.02.95 4.16 2.89 8.01 4.93 11.74-10.2-1.38-21.03-.28-30.62-4.61-6.15-2.67-7.72-10.01-7.59-16.06.27-103.02.39-206.04.56-309.06.06-13.66-.2-27.33.45-40.98 0-68.34.01-136.67-.01-205 .12-6.36-.93-12.86.59-19.11.78-3.6 4.12-5.86 7.6-6.41Z"/>
  <path fill="#ffd400" stroke="#ffd400" stroke-width=".094" d="M1127.26 953.31c3.06-4.46 6.97-9.63 12.83-10 5.04-.16 8.56 4.33 9.92 8.74 2.94 9.34 2.11 19.28 1.99 28.93-.96 26.98-.51 53.99-.67 80.99-.06 49.67-.17 99.34-.25 149.02.05 2.33-.66 4.57-1.41 6.76-2.94 1.55-6.26 1.86-9.5 1.35-6.53-8.29-12.64-16.89-19.1-25.23-5.97-8.07-12.67-15.67-17.54-24.48-2.1-4.17-4.66-9.01-2.78-13.73 2.29-6.66 6.11-12.69 8.44-19.36 9.11-23.49 12.57-49.34 8.64-74.29-2.67-17.61-8.64-34.78-17.91-50.02-2.84-4.07-3.09-9.73-1.12-14.18 9.37-14.91 19.09-29.6 28.46-44.5Z"/>
  <path fill="#ffd400" stroke="#ffd400" stroke-width=".094" d="M614.71 955.99c.98-5.06 5.18-9.03 10.03-10.48 2.73 3.03 7.26 5.74 6.6 10.45-3.74 2.24-8.26 2.93-12.55 3.08-1.79-.05-4.72-.65-4.08-3.05Z"/>
  <path fill="#959898" stroke="#959898" stroke-width=".094" d="M323.45 950.51c12.48-3.8 26.69-4.81 38.57 1.44 5.39 2.69 9.51 7.89 10.21 13.96 3.22 20.04 5.95 40.15 9.08 60.2-11.4-6-24.82-7.65-37.46-5.61-11.94 2.4-23.8 7.32-32.32 16.28-2.63-18.19-5.45-36.36-7.88-54.58-.75-6.09-1.93-12.85 1.07-18.52 4.33-6.54 11.52-10.56 18.73-13.17Z"/>
  <path fill="#ededed" stroke="#ededed" stroke-width=".094" d="M944.15 954.18c7.2-1.17 14.51-.23 21.76-.34 35.66 2.04 69.1 23.38 87.21 53.98 21.16 34.69 22.74 80.01 4.87 116.39-12.89 27.26-36.33 49.48-64.55 60.26-23.06 8.89-49.12 10.15-72.74 2.71-30.88-9.18-56.78-32.79-69.73-62.17-16.87-37.02-13.28-82.25 8.64-116.44 18.3-29.42 50.01-50.31 84.54-54.39Z"/>
  <path fill="#959898" stroke="#959898" stroke-width=".094" d="M654.15 965.99c16.6-1.95 33.91-.01 48.74 8.1-7.52 2.94-15.06 5.81-22.56 8.81-7.66-7.12-16.5-12.93-26.18-16.91Z"/>
  <path fill="#959898" stroke="#959898" stroke-width=".094" d="M1029.22 965.81c16.73 6.95 32.14 17.11 44.68 30.24-4.66.72-9.3 1.46-13.95 2.16-8.25-12.49-18.67-23.53-30.73-32.4Z"/>
  <path stroke="#000" stroke-width=".094" d="M946.6 970.8c23.54-2.3 47.75 5.54 66.01 20.5 13.57 11.09 23.99 25.98 29.8 42.52 7.72 21.79 7.51 46.3-.51 67.97-6.85 18.62-19.54 35.03-35.86 46.31-14.36 9.98-31.61 15.67-49.06 16.41-20.92.72-41.99-6.09-58.61-18.82-16-12.06-27.86-29.4-33.68-48.55-10.97-34.62-.99-74.92 25.32-100.06 15.11-14.92 35.46-24.29 56.59-26.28Z"/>
  <path fill="#ededed" stroke="#ededed" stroke-width=".094" d="M619.18 972.24c20.34-2.72 41.16 5.76 55.38 20.21 14.21 14.4 22.75 33.63 26.45 53.34 6.95 37.64-2.37 78.15-25.37 108.79-12.73 16.68-30.2 30.54-50.81 35.77-18.25 4.97-38.47 1.56-54.09-9.08-14.37-9.86-25.17-24.45-31.52-40.6-14.25-36.13-10.36-78.04 7.18-112.33 10.43-20.03 26.08-37.97 46.41-48.3 8.23-4.14 17.25-6.62 26.37-7.8Z"/>
  <path stroke="#000" stroke-width=".094" d="M1222.3 981.22c3.73-1.83 7.92-.17 11.79.32 64.65 11.06 129.32 22.02 193.98 33.02 2.95.4 6.34 2.09 6.48 5.48.51 8.65-.06 17.34 0 26.01-.41 15.64.38 31.3-.57 46.93-.18 14.38-.28 28.76-.42 43.15-.1 2.23-.19 4.94-2.16 6.41-2.11 1.74-5.01 1.36-7.51 1.1-63.69-8.17-127.39-16.4-191.09-24.52-3.58-.61-7.46-.42-10.7-2.25-2.41-1.34-2.72-4.36-2.76-6.82.07-41.02.12-82.04.18-123.06 0-2.19.57-4.79 2.78-5.77Z"/>
  <path fill="#959898" stroke="#959898" stroke-width=".094" d="M710.98 983.02c1.63-.45 3.69-1.66 5.12-.12 13.48 10.72 23.34 25.49 30.01 41.26-12.67 1.54-25.3 3.42-37.99 4.82-4.25-13.43-10.72-26.19-19.55-37.21 7.47-2.91 14.95-5.81 22.41-8.75Z"/>
  <path stroke="#000" stroke-width=".094" d="M617.48 988.69c5.74-.95 11.52.64 17.1 1.88 18.62 4.85 32.72 20.4 39.92 37.74 5.18 11.9 7.18 24.84 7.91 37.72-.05 21.7-5.16 43.58-16.06 62.46-9.24 16.12-22.82 30.39-40.11 37.77-14.82 6.43-32.62 6.28-46.84-1.66-16.82-9.08-27.55-26.46-32.56-44.47-5.31-19.59-4.8-40.58.32-60.15 5.24-19.51 15.09-38.11 29.93-52 10.96-10.5 25.19-17.77 40.39-19.29Z"/>
  <path fill="#ededed" stroke="#ededed" stroke-width=".094" d="M962.46 992.68c6.83-2.08 14.78 3.03 15.33 10.22 1.08 6.85-4.78 13.81-11.73 13.79-6.45.37-12.47-5.24-12.62-11.67-.42-5.58 3.7-10.9 9.02-12.34Z"/>
  <path fill="#ededed" stroke="#ededed" stroke-width=".094" d="M920.46 995.74c6.87-2.88 16.06-.45 19.31 6.6 3.69 6.96.51 15.06-3.18 21.31-6.12 9.6-15.24 17.98-26.44 20.97-7.19 2.36-16.43-1.44-18.46-9.07-1.72-4.29-.43-8.9.99-13.06 4.85-12.34 15.27-22.38 27.78-26.75Z"/>
  <path fill="#464b4b" stroke="#464b4b" stroke-width=".094" d="M1457.22 995.21c10.76 1.18 21.63 1.84 32.3 3.63 2.2 3.14 2.85 7.07 3.92 10.7 2.49 8.99 2.6 18.45 1.78 27.68-1.13 7.02-3.13 14.21-7.38 20.02-3.23.6-6.51.13-9.73-.09-7.21-.7-14.46-.62-21.66-1.27-.04-20.23.33-40.45.77-60.67Z"/>
  <path fill="#959898" stroke="#959898" stroke-width=".094" d="M1066.16 1008.8c5.44-.82 10.86-1.79 16.32-2.57 11.32 14.8 19.05 32.2 22.96 50.4-8.29-.17-16.58-.32-24.86-.53-1.98-16.46-6.62-32.64-14.42-47.3Z"/>
  <path fill="#ededed" stroke="#ededed" stroke-width=".094" d="M601.47 1012.74c4.08-1.45 8.71-1.76 12.68.22 6.1 2.55 9.3 9.84 8.03 16.16-1.69 8.57-6.9 16.03-13.12 21.98-5.81 5.51-12.99 10.05-21.07 11.14-6.41.63-13.58-3.14-15.29-9.66-1.73-4.31-.44-8.94.99-13.11 4.85-12.34 15.27-22.37 27.78-26.73Z"/>
  <path fill="#959898" stroke="#959898" stroke-width=".094" d="M1505.72 1011.85c11.42 1.23 22.88 2.13 34.3 3.45 2.52 13 2.72 27.03-3.05 39.24-11.36-.4-22.69-1.16-34.05-1.47 4.75-13.18 5.62-27.53 2.8-41.22Z"/>
  <path fill="#ededed" stroke="#ededed" stroke-width=".094" d="M642.59 1020.65c7.63-3.06 17.09 3.08 16.95 11.41.31 5.55-3.92 9.96-8.6 12.22-4.02.55-8.4.19-11.51-2.69-4.63-3.66-5.51-10.76-2.67-15.76 1.26-2.38 3.65-3.77 5.83-5.18Z"/>
  <path fill="#464b4b" stroke="#464b4b" stroke-width=".094" d="M336.38 1034.54c9.35-2.75 19.41-4.29 29.03-2.02 5.86 1.28 11.78 3.7 15.85 8.28 3.34 3.67 4.38 9.31 2.25 13.85-3.24 7.51-10.63 11.97-17.75 15.25-1.49-6.64-2.38-14.93-9.13-18.44-5.82-3.67-14.11-.72-16.88 5.41-2.75 5.31-.84 11.39.25 16.88-7.79-1.07-16.13-3.13-21.6-9.18-3.73-3.95-4.35-10.19-1.81-14.93 3.99-7.64 11.93-12.27 19.79-15.1Z"/>
  <path fill="#959898" stroke="#959898" stroke-width=".094" d="M711.12 1040.07c13.03-1.47 26-3.47 39.03-4.98 5.28 17.5 7.77 35.99 6.45 54.24-14.32-2.36-28.63-4.69-42.95-6.99 1.43-14.12.11-28.37-2.53-42.27Z"/>
  <path fill="#ffd400" stroke="#ffd400" stroke-width=".094" d="M1545.8 1062.78c8.66 1.17 17.71-1.89 23.28-8.76 18.51 4.6 35.7 14.2 49.55 27.3 12.48 11.77 22.94 25.54 32 40.07 22.06 36.05 32.36 78.6 32.09 120.68-.74 25.27-4.47 50.53-11.95 74.73-11.38 37.33-30.55 71.96-54.02 103.01-33.63 44.73-77.14 81.8-126.16 108.7-4.95 2.46-9.75 6.34-15.6 5.77-6.39.45-9.29-6.97-9.29-12.27-.21-19.68.1-39.36.68-59.03.25-16.98.36-33.97.44-50.95 1.3-27.34.36-54.75 1.49-82.09.47-24.46.2-48.93 1.07-73.37.23-16.52.37-33.04.42-49.56.96-23.36.82-46.74 1.02-70.11.99-20.96.64-41.95 1.05-62.92-.3-2.91 2.54-4.71 5.09-4.95 4.38-.31 8.78-.03 13.16.41 3.21.33 5.23-2.7 7.08-4.83 11.29-.26 22.51 1.1 33.78 1.22 3.2.07 6.4.21 9.6.58 1.77-1.16 3.52-2.36 5.22-3.63Z"/>
  <path fill="#959898" stroke="#959898" stroke-width=".094" d="M1081.56 1067.42c8.57.21 17.15.36 25.73.52 2.47 23.24-1.12 47.04-10.34 68.52-8.95-4.11-17.86-8.32-26.79-12.48 7.78-17.8 11.07-37.21 11.4-56.56Z"/>
  <path fill="#ffd400" stroke="#ffd400" stroke-width=".094" d="M815.77 1080.75c1.53-2.16 3.61-4 6.19-4.77 1.97.11 3.66 2 3.05 4.02-1.62 18.03-1.15 36.42 3.69 53.96 8.68 33.44 30.8 63.06 60.29 81.04 10.85 6.68 22.63 11.8 34.88 15.3 6.25 1.97 13.4 2.24 18.38 7.03.79 5.94-2.61 11.29-5.95 15.87-1.71 2.54-5.33 2.74-7.81 1.29-6.95-3.74-13.59-8.22-21.17-10.61-6.27-1.93-12.7-3.9-19.33-3.6-7.18.2-15.13-1.43-19.81-7.36-10.54-13-19.69-27.05-29.56-40.55-12.32-17.28-24.88-34.37-37.58-51.36-5.21-7.42-8.6-16.99-6.13-26.02 1.25-7.82 6.59-13.88 10.92-20.18 3.32-4.68 6.56-9.42 9.94-14.06Z"/>
  <path fill="#959898" stroke="#959898" stroke-width=".094" d="M686.52 1158.21c13.62-19.12 22.25-41.53 26-64.65 14.42 2.42 28.86 4.72 43.29 7.12-3.35 28.85-13.86 56.98-31.05 80.46a4341.77 4341.77 0 0 1-38.24-22.93Z"/>
  <path fill="#ffd400" stroke="#ffd400" stroke-width=".094" d="M766.37 1117.98c2.59-.16 5.41 2.18 4.97 4.95-.04 2.47-1.36 4.63-2.66 6.64-2.81 4.1-5.4 8.68-9.92 11.13.43-4.95 2.34-9.57 3.46-14.37.77-3.01 1.26-6.56 4.15-8.35Z"/>
  <path fill="#959898" stroke="#959898" stroke-width=".094" d="M855.34 1166.91c-9.14-14.4-15.25-30.59-18.27-47.35 5.1 14.77 13.18 28.38 23.12 40.39-1.63 2.31-3.26 4.61-4.85 6.96Z"/>
  <path fill="#959898" stroke="#959898" stroke-width=".094" d="M1065.21 1134.21c8.92 4.25 17.91 8.33 26.84 12.56-15.33 29.08-40.77 52.56-70.88 65.72-4.55-7.42-9.11-14.82-13.65-22.23 24.46-12.08 44.78-32.05 57.69-56.05Z"/>
  <path fill="#ffd400" stroke="#ffd400" stroke-width=".094" d="M769.46 1147.47c4.31-6.94 16.01-9.47 21.26-2.28 21.74 28.76 42.73 58.09 63.36 87.66 2.56 3.51 4.18 8.32 2.12 12.47-3.89 7.7-11.39 12.59-16.8 19.12-4.3 4.44-6.93 10.29-11.81 14.19-15.53 12.98-20.68 35.95-14.02 54.79 1.7 5.86 5.73 10.71 7.29 16.62 4.65 15.94 13.65 31.03 27.48 40.62 5.29 3.86 12.78 9.41 10.23 16.94-8.3 17.64-16.84 35.18-25.41 52.7-4.53 9.17-8.02 19.14-15.04 26.81-3.69 4.03-9.55 6.12-14.9 4.53-6.24-1.92-11.5-6.2-15.61-11.16-4.93-5.92-8.77-12.61-12.91-19.08-7.57-12.07-15.23-24.09-23.04-36-3.36-5.39-7.52-10.42-9.47-16.55-1.12-3.24-1.5-6.65-2.16-9.98.76-4.5 2.18-9.07 5.68-12.21 21.26-20.64 30.02-52.25 25.47-81.18-2.61-16.95-9.67-33.58-21.83-45.89-5.58-5.7-12.38-9.98-19.49-13.47-5.88-3.42-12.48-8.59-12.25-16.11-.36-4.48 2.6-8.08 4.85-11.61 15.41-23.81 31.05-47.48 47-70.93Z"/>
  <path fill="#959898" stroke="#959898" stroke-width=".094" d="M632.06 1199.75c18.59-6.01 34.67-18 47.49-32.56 12.14 7.37 24.39 14.56 36.52 21.95 1.45.4.6 2.07-.09 2.75-15.57 17.41-36.18 31.03-59.36 35.46-8.32-9.09-16.31-18.46-24.56-27.6Z"/>
  <path fill="#959898" stroke="#959898" stroke-width=".094" d="M863.1 1176.97c1.14-3.17 3.15-5.9 4.98-8.68 13.72 13.36 30.56 23.38 48.78 29.26 1.71 6.81 3.41 13.62 5.11 20.43-17.2-5.78-33.3-14.97-46.6-27.36-4.27-4.36-9.15-8.35-12.27-13.65Z"/>
  <path fill="#ffd400" stroke="#ffd400" stroke-width=".094" d="M1088.39 1178.1c5.07-.32 9.56 3.1 12.45 7.02 11.44 14.94 23.08 29.76 33.78 45.25 10.55 15.4 15.26 34.15 15.63 52.67.8 13.61.23 27.27.41 40.91.4 11.8-1.89 23.45-3.79 35.04-3.63 20.41-11.25 39.81-18.91 58.99-16.47 40.84-32.51 81.86-47.95 123.11-2.06 4.85-3.16 11.1-8.59 13.38-5.06 2.96-12.25 1.3-14.92-4.08-29.81-56.85-60.3-113.4-93.41-168.42-5.25-8.61-11.29-17.55-11.39-28.02-.8-8.77 2.28-17.17 2.93-25.82 1.63-12.97-.15-26.28-4.25-38.64-2.86-7.54-5.14-15.43-5.43-23.52-.4-5.5 2.79-10.25 5.22-14.9 1.98-3.53 3.55-7.61 7.12-9.86 7.5-5.4 17.11-5.2 25.87-6.55 37.65-4.77 73.16-23.94 98.08-52.52 1.72-2.3 4.33-3.63 7.15-4.04Z"/>
  <path fill="#959898" stroke="#959898" stroke-width=".094" d="M1212.41 1186.39c5.85-4.15 13.45-2.43 20.11-2.13 66.17 7.87 132.34 15.77 198.49 23.74 6.98.58 11.88 7.29 12.07 13.98.96 16.25-.28 32.53-.27 48.79-11.64-1.03-23.2-2.74-34.79-4.13-6.9-.71-13.05 2.96-19.32 5.17-3.77 1.49-8.78 3.33-9 8.12-1.12 17.98-1.46 36-1.55 54.01-.37 3.33 1.95 6.37 5.03 7.44 4.78 1.63 9.89.8 14.85 1.12 11.27.51 22.57 1.35 33.87.92 4.43-1.03 7.31-5.09 10.64-7.91-.13 12.19-.14 24.39-.39 36.58-.6 7.76-.33 15.54-.35 23.32-6.88-.89-13.81-.98-20.69-1.8-7.64-.32-15.66-2.68-23.03.39-5.13 2.21-10.46 4.07-15.3 6.88-2.31 1.19-3.49 3.68-3.66 6.2-1.21 10.94-.21 22-1.33 32.96-.44 6.31-.32 12.65-.42 18.98-.11 2.57.65 5.4 2.84 6.99 2.19 1.74 5.12 1.65 7.79 1.73 13.62-.21 27.24.13 40.87-.11 5.54.2 8.85-5.02 12.64-8.21.09 16.2-.79 32.37-.73 48.56-.24 7.12.44 14.89-3.59 21.19-2.93 4.93-8.65 7.42-14.18 7.89-8.97.73-17.98.42-26.97.53-57.34.16-114.68.14-172.02.02-5.59.15-11.37-2.45-14.32-7.32-3.83-6.01-3.79-13.44-3.31-20.29-.23-54.65.28-109.31.43-163.97.17-13.01-.21-26.04.51-39.04.08-35.32-.08-70.65.11-105.97-.07-5.19.4-11.3 4.97-14.63Z"/>
  <path fill="#ffd400" stroke="#ffd400" stroke-width=".094" d="M548.07 1194.01c.45-2.88 2.85-5.42 5.84-5.57 2.99.86 5.15 3.26 7.28 5.4 5.34 5.68 9.96 12.01 15.42 17.59 15.1 15.64 29.45 31.99 43.49 48.58 5.06 6.24 10.87 12.08 14.42 19.38 2.25 4.94-.74 10-2.68 14.49-4.08 8.76-6.19 18.44-5.55 28.12-.1 8.55 3.89 16.52 3.82 25.05.06 4.85-2.57 9.14-4.66 13.36-8.39 15.74-17.24 31.25-26.74 46.36-3.38 4.81-6.41 10.15-11.17 13.76-3.62 2.44-7.09-1.43-8.74-4.35-5.16-8.94-7.02-19.26-10.46-28.89 6.56 2.07 13.98 2.32 20.29-.7 9.09-4.18 15.46-12.66 19.33-21.65 7.51-17.48 8.09-37.29 4.52-55.78-3.17-15.09-9.24-30.23-20.47-41.15-5.86-5.87-13.73-9.86-22.08-10.27-8.53-.01-16.45 4.41-22.08 10.62-1.13-13.43-1.24-26.91-1.58-40.37-.05-11.34-.21-22.78 1.8-33.98Z"/>
  <path fill="#959898" stroke="#959898" stroke-width=".094" d="M929.36 1200.64c22.53 4.48 46.26 2.32 67.73-5.82 4.46 7.3 8.9 14.61 13.39 21.9-24.31 8.27-50.85 10.37-75.97 4.64-1.68-6.92-3.42-13.82-5.15-20.72Z"/>
  <path fill="#959898" stroke="#959898" stroke-width=".094" d="M579.29 1198.09a79.29 79.29 0 0 0 39.98 4.68c3.93 2.93 6.63 7.28 10.08 10.77 4.48 5.04 8.88 10.14 13.43 15.12-17.79.3-35.48-5.97-49.38-17.01-5.22-3.97-9.7-8.76-14.11-13.56Z"/>
  <path fill="#ffd400" stroke="#ffd400" stroke-width=".094" d="M695.4 1223.45c2.95-.99 5.67.94 7.96 2.56-1.07 7.31-6.7 12.69-10.68 18.55-4.93 2.39-10.15 4.29-14.58 7.61-6.98 4.91-12.65 11.35-18.05 17.86-4.37 1.98-8.97 3.53-13.05 6.13-6.77-8.96-13.61-17.88-20.67-26.61-2.07-2.66-5.33-6.01-3.53-9.61 1.21-2.78 4.57-2.02 6.96-1.74 18.04 3.4 36.87-.24 53.31-8.06 4.28-1.93 7.83-5.28 12.33-6.69Z"/>
  <path stroke="#000" stroke-width=".094" d="M1055.62 1243.83c16.43-2.32 33.58 1.01 47.8 9.62 17.01 10.18 29.69 27.08 35.22 46.08 6.35 20.54 4.17 43.37-5.48 62.54-6.86 13.68-17.65 25.41-30.88 33.14-14.79 8.55-32.66 12.25-49.52 8.92-18.8-3.29-35.83-14.41-47.14-29.68-9.92-13.36-15.64-29.81-16.23-46.43-2.57-34.56 19.92-69.66 52.86-80.92 4.34-1.52 8.83-2.59 13.37-3.27Z"/>
  <path fill="#ededed" stroke="#ededed" stroke-width=".094" d="M875.26 1254.15c6.7-2.23 13.84-1.51 20.76-1.22 15.62 2.05 29.06 12.71 37.06 25.95 10.42 17.08 12.87 38.29 8.75 57.68-4.26 19.64-15.98 38.38-33.94 48.12-14.5 8.09-33.21 8.46-47.68.12-9.49-5.13-16.72-13.51-22.32-22.58 8.13 3.7 17.17 5.06 26.06 4.79 11.68-.13 23.96.73 34.84-4.33 16.48-7.59 26.61-25.81 26.17-43.7.47-20.4-12.33-41.16-31.96-47.85-13.65-4.78-28.23-2.38-42.34-2.56 7.17-6.32 15.26-11.89 24.6-14.42Z"/>
  <path stroke="#000" stroke-width=".094" d="M1243.61 1253.82c4.41-.8 8.93-.35 13.34.34 9.86 1.23 19.71 2.52 29.61 3.49 3.62.37 6.28 3.75 6 7.36-.13 11.01-.22 22.02-.28 33.03-.78 7.6-.59 15.24-.77 22.87.22 3.17-2.77 4.97-4.82 6.83-2.61 1.96-4.89 4.6-8 5.74-4.87.59-9.79.19-14.67.16-7.01-.4-14.06.01-21.03-.84-5.62-.61-11.32.2-16.89-.74-3.64-.62-7.24-3.27-7.58-7.16-.66-16.31 1.05-32.58.95-48.89.25-5.09-.95-12.1 4.64-14.81 6.25-3.02 12.9-5.26 19.5-7.38Z"/>
  <path fill="#ededed" stroke="#ededed" stroke-width=".094" d="M701.43 1254.66c13.66-3.47 28.4 1.94 38.33 11.53 14.2 13.51 20.99 33.54 20.96 52.87.52 18.08-4.71 36.49-15.51 51.1-6.38 8.53-14.94 15.7-25.07 19.27-6.87 2.62-14.4 2.72-21.6 1.82-13.5-2.5-24.68-11.91-32.01-23.18 8.5-.38 16.93 1.35 25.44.46 6.49-1.12 13.32.26 19.6-2.21 16.07-5.4 26.98-20.99 29.79-37.29 3.63-18.36-2.51-39.19-17.34-51.09-7.8-6.39-18.12-9.02-28.07-8.68-6.59.05-13.13-.8-19.7-.89 7.16-6.42 15.64-11.78 25.18-13.71Z"/>
  <path fill="#ededed" stroke="#ededed" stroke-width=".094" d="M1053.48 1255.72c19.25-4.26 40.15 1.91 54.58 15.2 11.7 10.7 19.35 25.57 21.83 41.19 2.3 15.88-.07 32.6-7.85 46.76-7.49 14.05-19.99 25.52-34.99 31.05-17.9 6.79-38.99 4.62-55.01-5.92-15.78-9.98-26.45-26.97-30-45.17-3.35-16.9-.13-34.81 7.71-50.04 9-16.56 25.16-29.27 43.73-33.07Z"/>
  <path stroke="#000" stroke-width=".094" d="M1324.9 1259.85c3.7-.61 7.46-.11 11.15.46 9.67 1.2 19.35 2.5 29.06 3.45 3.41.53 5.76 3.81 5.47 7.21-.16 10.68-.26 21.35-.35 32.03-.84 7.64-.51 15.33-.83 23-.02 2.76-2.72 4.28-4.42 6.05-2.75 2.23-5.23 5.14-8.72 6.18-5.91.5-11.86.17-17.74-.41-9.78-.5-19.6-.19-29.36-.89-4.49-.1-9.55-2.99-9.67-7.94-.1-8.66-.14-17.35.68-25.97.37-6.68.08-13.36.38-20.03.2-4.17-.18-8.49 1.28-12.48 1.63-3.03 5.16-4.16 8.13-5.43 4.97-1.76 9.77-4.07 14.94-5.23Z"/>
  <path fill="#ff002c" stroke="#ff002c" stroke-width=".094" d="M1253.67 1266.38c8.96 1.22 17.97 2.11 26.94 3.29.19 15.06-1.16 30.06-.91 45.11-8.82-.44-17.59-1.49-26.37-2.35.01-15.35.22-30.7.34-46.05Z"/>
  <path fill="#ededed" stroke="#ededed" stroke-width=".094" d="M564.06 1269.85c5.22-2.25 11.25-.75 15.82 2.29 6.01 4.01 10.47 9.95 13.84 16.27 5.54 10.35 8.42 21.95 9.57 33.6 1.01 14.35-.29 29.4-7.12 42.31-3.55 6.55-9.33 12.95-17.2 13.64-7.34.46-13.56-4.32-18.38-9.32 11.32-2.75 20.46-11.48 24.98-22.04 7.6-17.56 5.27-39.88-7.96-54.16-6.44-7.29-16.09-11.12-25.72-11.28 3.09-4.62 6.79-9.31 12.17-11.31Z"/>
  <path fill="#fe5400" stroke="#fe5400" stroke-width=".094" d="M1232.4 1271.23c2.81-1.02 5.63-2.01 8.48-2.94.87 14.32.18 28.69.37 43.04-.27.39-.79 1.17-1.06 1.56-3.2 1.02-6.35 2.16-9.54 3.2 1.11-7.98.56-16.05.83-24.06.02-6.96.93-13.86.92-20.8Z"/>
  <path fill="#ff002c" stroke="#ff002c" stroke-width=".094" d="M1333.51 1272.33c8.58 1.26 17.24 1.96 25.82 3.29-.44 14.68-1.11 29.35-.96 44.05-8.59-.41-17.13-1.51-25.68-2.31-.2-15.02.91-30.01.82-45.03Z"/>
  <path stroke="#000" stroke-width=".094" d="M1062.54 1275.62c8.19-.73 16.49-.19 24.57 1.36 10.29 2.26 19.31 9.15 25 17.94 10.76 16.31 10.75 38.92-.04 55.22-4.87 7.5-12.13 13.55-20.66 16.38-6.88 2.41-14.25 2.74-21.45 3.18-9.58-.87-19.74-1.33-28.16-6.54-13.99-8.43-21.95-25-21.54-41.12-.35-18.49 10.7-37.92 28.69-44.06 4.34-1.66 9.01-1.88 13.59-2.36Z"/>
  <path fill="#fe5400" stroke="#fe5400" stroke-width=".094" d="M1312.61 1277.52c2.9-1.21 5.82-2.35 8.76-3.47.1 14.4 0 28.8-.11 43.19-3.29 1.29-6.57 2.56-9.88 3.78.22-14.51 1.24-28.99 1.23-43.5Z"/>
  <path fill="#ff002c" stroke="#ff002c" stroke-width=".094" d="M847.39 1280.52c9.47-2.11 19.69.79 26.96 7.14 14.51 12.48 18.12 35.58 8.25 51.96-4.75 8.22-13.21 14.29-22.68 15.58-11.95 1.74-24-4.79-30.65-14.56-9.09-12.87-10.19-30.93-2.29-44.63 4.36-7.6 11.74-13.66 20.41-15.49Z"/>
  <path fill="#fe5400" stroke="#fe5400" stroke-width=".094" d="M882.17 1279.81c7.05 1.08 13.97 3.85 19.14 8.9 15.28 14.04 17.25 40.32 3.42 56.02-5.2 6.22-12.91 9.69-20.83 10.78 14.34-13.48 18.75-35.47 12.42-53.85-2.69-8.39-7.79-15.82-14.15-21.85Z"/>
  <path fill="#ff002c" stroke="#ff002c" stroke-width=".094" d="M1410.63 1279.21c8.27.78 16.53 1.72 24.73 3.06-.25 14.41-1.2 28.8-1.03 43.22-8.05-.86-16.11-1.62-24.17-2.2-.77-5.75.26-11.49.12-17.24-.07-8.95.35-17.9.35-26.84Z"/>
  <path fill="#ff002c" stroke="#ff002c" stroke-width=".094" d="M661.34 1281.58c5.09-1.37 10.6-1.4 15.53.65 10.59 3.93 17.48 14.27 20.13 24.88 3.71 14.56.17 31.47-10.83 42.08-6.47 6.31-16.23 9.71-25.09 7.07-9.94-2.58-17.36-11.04-20.95-20.38-5.75-14.97-3.45-33.28 7.25-45.5 3.73-4.12 8.49-7.5 13.96-8.8Z"/>
  <path fill="#fe5400" stroke="#fe5400" stroke-width=".094" d="M695.22 1281.2c9.2-1.86 18.95 1.39 25.28 8.28 13.48 14.66 14.28 38.76 2.82 54.82-6.23 9.05-17.72 14.72-28.7 12.16 13.24-13.75 18.07-34.72 12.78-52.97-2.06-8.36-6.65-15.8-12.18-22.29Z"/>
  <path fill="#fe5400" stroke="#fe5400" stroke-width=".094" d="M1390.68 1284.15c2.81-1.17 5.64-2.28 8.55-3.22.07 6.36-.26 12.71-.58 19.07.34 7.7 0 15.42-.01 23.13-3.11 1.19-6.2 2.4-9.29 3.62.35-14.21 1.3-28.39 1.33-42.6Z"/>
  <path fill="#ff002c" stroke="#ff002c" stroke-width=".094" d="M1073.41 1288.47c8.59-2.18 18.36.07 24.7 6.4 10.16 9.85 13.47 25.6 9.55 39.01-2.76 10.11-10.11 19.56-20.48 22.53-7.8 2.57-16.56.27-22.89-4.72-12.99-10.39-16.38-29.7-10.31-44.76 3.27-8.67 10.48-15.83 19.43-18.46Z"/>
  <path fill="#fe5400" stroke="#fe5400" stroke-width=".094" d="M1045.48 1292.46c2.23-1.52 4.68-2.7 7.1-3.91-16.74 18.61-16.72 49.67.56 67.92-15.73-5.52-24-23.54-21.63-39.39 1.19-9.55 5.7-19.25 13.97-24.62Z"/>
  <path fill="#ff002c" stroke="#ff002c" stroke-width=".094" d="M519.38 1293.46c3.42-1 7.12-1.22 10.53-.02 7.27 2.21 12.57 8.43 15.56 15.2 5.22 11.76 4.73 26.03-1.71 37.23-2.86 5.01-7.31 9.24-12.82 11.17-6 2.11-12.93.7-17.92-3.16-6.53-4.98-10.37-12.86-11.81-20.81-1.23-9.12-.46-18.81 3.89-27.05 2.96-5.75 7.86-10.89 14.28-12.56Z"/>
  <path fill="#fe5400" stroke="#fe5400" stroke-width=".094" d="M548.95 1293.38c6.87-1.49 14.36.03 19.37 5.18 13.01 12.91 14 35.46 3.41 50.14-4.93 6.98-14.05 11.12-22.47 8.48 14.54-18 14.17-45.87-.31-63.8Z"/>
  <path fill="#ffd400" stroke="#ffd400" stroke-width=".094" d="M638.46 1365.14c3.01-.97 6.42-.47 9.09 1.25 6.85 4.01 11.16 10.87 16.25 16.73 10.93 12.63 27.33 20.85 44.19 20.27 7.59-.68 15.23 2.75 20.3 8.35 6.23 6.65 10.64 14.73 15.72 22.25 13.01 19.49 25.5 39.33 37.63 59.38 4.8 8.08 9.98 16.1 12.77 25.16 2.73 8.98 1.96 18.75-1.35 27.48-3.37 8.7-7.41 17.12-11.31 25.6-5.12 10.98-9.73 22.2-14.95 33.14-3.53 7.06-7 14.65-13.35 19.66-5.77 4.59-13.8 4.83-20.63 2.88-12.49-3.32-22.39-12.01-32.27-19.86-24.95-20.79-46.66-45.33-65.29-71.88-12.34-17.29-21.18-36.79-28.29-56.73-3.54-10.58-6.6-21.59-6.36-32.84-.2-9.64 1.55-19.55 6.4-27.97 8.18-15.44 16.37-30.89 24.81-46.2 1.58-2.73 3.65-5.41 6.64-6.67Z"/>
  <path fill="#ffd400" stroke="#ffd400" stroke-width=".094" d="M926.06 1387.04c4.68-4.31 8.43-9.95 14.64-12.21 8.16 3.76 12.32 12.23 17.14 19.31 30.72 51.38 59.17 104.09 86.93 157.12 4.34 8.8 9.14 17.47 12.06 26.89 2.76 8.86 2.35 18.47-.55 27.24-7.49 22.7-15.54 45.21-23.02 67.91-2.73 8.67-9.77 15.5-18.1 18.87-6.63 3.01-14 3.04-21.11 3.62-23.66.74-47.38.26-70.91-2.32-9.81-1.41-19.09-6.49-25.47-14.09-5.62-6.52-9.17-14.46-13.08-22.05-15.18-30.46-30.95-60.64-47.54-90.36-4.6-8.58-9.98-16.84-13.06-26.14-6.11-17.21.27-35.47 7.67-51.18 10.5-22.99 21.48-45.76 32.52-68.49 2.96-5.67 5.88-12.14 11.87-15.18 5.67-2.46 12-1.89 17.97-3.03 12-1.76 23.34-7.48 32.04-15.91Z"/>
  <path stroke="#000" stroke-width=".094" d="M1237.96 1387.76c8.1-4.09 17.4-2.32 26.04-1.61 7.01.41 13.98 1.38 21.02 1.48 3.57.01 7.46 2.39 7.43 6.35.18 9-.3 18.01-.13 27.02.22 6.34-.83 12.64-.72 18.99-.16 4.08.29 8.23-.43 12.28-1.36 2.51-3.83 4.13-5.86 6.05-2.23 1.75-4.22 4.01-6.96 4.96-4.09.61-8.26.46-12.37.36-12.67.09-25.33-.01-37.99.03-3.9.07-8.8-2.26-8.8-6.7-.42-12.65.33-25.31.33-37.96.1-7.31 0-14.77 1.47-21.94 3.85-5.55 11.27-6.45 16.97-9.31Z"/>
  <path stroke="#000" stroke-width=".094" d="M1321.47 1389.62c3.64-1.4 7.63-1.39 11.48-1.15 9.71.71 19.38 2.08 29.13 2.26 2.75.06 5.92 1 7.21 3.69 1.72 3.98.48 8.38.48 12.56-.24 14.66-.12 29.35-.82 44 .36 4.14-3.33 6.49-5.94 9-2.85 2.48-5.83 5.57-9.93 5.38-14.36.23-28.72-.11-43.07.09-4.28.23-9.63-1.65-10.45-6.38-.84-14.69.93-29.36.84-44.05.35-4.93-.35-10.04 1.22-14.8 1.17-2.67 4.06-3.89 6.52-5.1 4.4-1.91 8.84-3.78 13.33-5.5Z"/>
  <path fill="#ff002c" stroke="#ff002c" stroke-width=".094" d="M1253.75 1398.19c8.97-.16 17.85 1.37 26.82 1.55.29 14.99-1.12 29.91-.87 44.9-8.78.07-17.48-1.26-26.25-1.24-.06-15.07.24-30.14.3-45.21Z"/>
  <path fill="#fe5400" stroke="#fe5400" stroke-width=".094" d="M1232.39 1403.56c2.96-1.27 5.95-2.47 8.98-3.59.13 14.49.04 28.98 0 43.48-3.36 1.52-6.77 2.92-10.18 4.31.32-6.23.38-12.46.4-18.68-.1-8.53 1.19-17 .8-25.52Z"/>
  <path fill="#ff002c" stroke="#ff002c" stroke-width=".094" d="M1333.32 1401.09c8.46.1 16.84 1.39 25.29 1.63.27 14.66-1.14 29.26-.92 43.91-8.42.01-16.77-1.26-25.19-1.22-.14-14.79.41-29.56.82-44.32Z"/>
  <path fill="#fe5400" stroke="#fe5400" stroke-width=".094" d="M1312.48 1406.51c2.89-1.26 5.8-2.46 8.76-3.56-.04 14.22.29 28.47-.7 42.67-2.95 1.7-6.21 2.75-9.33 4.07.3-5.58.44-11.15.43-16.73-.08-8.83 1.22-17.61.84-26.45Z"/>
  <path fill="#ff002c" stroke="#ff002c" stroke-width=".094" d="M1409.33 1448.36c.15-14.61-.14-29.26.86-43.84 8.05 1.06 16.17 1.33 24.26 2.16-.02 14.3-1.26 28.55-1.02 42.85-8.06-.1-16.05-1.27-24.1-1.17Z"/>
  <path fill="#fe5400" stroke="#fe5400" stroke-width=".094" d="M1390.35 1410.01c2.68-1.04 5.37-2.11 8.05-3.18.08 13.85-.1 27.69-.18 41.54-3.18 1.42-6.41 2.77-9.61 4.13.94-7.12.64-14.3.86-21.44.04-7.04 1.02-14.02.88-21.05Z"/>
  <path fill="#ffd400" stroke="#ffd400" stroke-width=".094" d="M1143.4 1415.16c1.73-.74 4.24-.8 5.44.93 1.59 1.87 1.62 4.52 1.81 6.87.05 27.02-.03 54.04-.1 81.06.07 9-.92 18.36 2.6 26.91 2.65 6.86 8.74 11.93 15.64 14.21 10.98 3.68 22.71 3.08 34.09 4.24 10.38-.04 20.74.81 31.12.56 8.65.11 17.36-.39 25.97.73 6.37.52 13.31.87 18.65 4.82 3.67 2.91 4.44 8.09 3.64 12.48-.99 7.05-5.54 12.88-10.05 18.12-9.22 10.29-20.62 18.26-31.45 26.72-31.71 24.59-68.03 42.65-105.65 56.25-5.69 1.88-12.55 2.27-17.69-1.24-4.19-2.83-6.01-7.72-8.17-12.04-7.65-15.63-15.32-31.24-23.06-46.82-2.01-4.1-4.39-8.07-5.72-12.45-2.31-10.01-1.99-20.75 1.7-30.39 17.76-48.09 36.3-95.89 55.51-143.42 1.2-2.95 2.88-5.91 5.72-7.54Z"/>
  <path fill="#ffd400" stroke="#ffd400" stroke-width=".094" d="M806.39 1554.22c2.98-1.01 6.45-.59 9.05 1.24 4.27 2.84 6.89 7.41 9.4 11.76 16.23 28.75 31.64 57.97 46.39 87.5 2.85 5.93 5.11 12.65 4.23 19.29-.68 7.2-9.27 11.27-15.7 9.23-21.12-5.23-41.92-11.83-62.11-19.98-5.91-2.55-12.26-4.44-17.36-8.52-5.75-4.52-10.51-11.15-10.64-18.71-.39-7.13 2.12-13.96 4.85-20.42 7.37-16.93 14.89-33.79 22.48-50.62 2.01-4.36 4.76-8.89 9.41-10.77Z"/>
  <path fill="#ffd400" stroke="#ffd400" stroke-width=".094" d="M1338.15 1567.04c6.49-1.56 13.16-2.35 19.85-2.23 8.01.17 16.16-.64 24.05 1.25.71 1.06 1.81 2.01 2.05 3.36-1.89 2.39-4.8 3.49-7.64 4.24-11.96 3.22-24.02 6.06-36.15 8.6-6.66 1.34-14.26 3.5-20.51-.28-.08-1.69.44-3.3 1.44-4.62 3.58-5.97 10.55-8.51 16.91-10.32Z"/>
  <path fill="#ffd400" stroke="#ffd400" stroke-width=".094" d="M1070.32 1614.38c2.43-1.27 5.07.63 6.55 2.53 5.83 8.03 9.45 17.34 14.11 26.05 3.45 7.28 7.36 14.37 10.26 21.92 1.54 4.03 2.02 9.53-1.79 12.5-8.12 6.31-18.73 7.46-28.47 9.59-6.8 1.1-13.82 3.33-20.7 1.66-2.96-.84-4.83-3.57-5.2-6.51-1.51-7.89 1.87-15.49 4.22-22.83 4.29-11.99 7.74-24.32 13.18-35.85 1.84-3.54 3.92-7.5 7.84-9.06Z"/>
</svg>
