<svg
  width="100%"
  height="100%"
  viewBox="0 0 2000 2000"
  version="1.1"
  xmlns="http://www.w3.org/2000/svg"
>
  <path
    fill="#ffd400"
    stroke="#ffd400"
    stroke-width="0.09375"
    opacity="1.00"
    d=" M 0.00 0.00 L 2000.00 0.00 L 2000.00 2000.00 L 0.00 2000.00 L 0.00 0.00 Z"
  />
  <path
    fill="#000000"
    stroke="#000000"
    stroke-width="0.09375"
    opacity="1.00"
    d=" M 976.41 272.39 C 984.64 269.77 993.62 272.64 1000.35 277.60 C 1009.19 284.38 1014.07 294.82 1018.11 304.91 C 1026.31 326.75 1032.04 349.42 1037.42 372.10 C 1038.46 375.87 1038.68 379.97 1040.54 383.47 C 1043.31 386.99 1048.82 385.39 1051.65 382.71 C 1085.21 353.01 1123.93 328.28 1166.91 314.83 C 1179.28 311.19 1191.99 307.61 1205.02 308.16 C 1212.03 308.08 1219.37 310.51 1224.23 315.73 C 1226.98 319.04 1229.48 323.42 1228.34 327.87 C 1226.99 335.21 1222.35 341.23 1217.88 346.97 C 1216.09 348.93 1216.33 351.54 1217.03 353.89 C 1222.01 355.95 1226.82 352.62 1231.61 351.54 C 1253.86 345.30 1276.70 339.30 1300.01 340.21 C 1309.61 340.07 1319.21 341.74 1328.31 344.78 C 1336.71 347.71 1345.00 352.49 1349.79 360.24 C 1353.40 365.83 1355.09 373.06 1352.55 379.42 C 1349.35 388.81 1340.85 394.76 1332.81 399.81 C 1327.94 403.09 1322.41 405.33 1317.73 408.86 C 1315.22 410.96 1317.94 415.50 1321.05 413.83 C 1343.44 407.80 1366.00 402.24 1388.91 398.59 C 1409.24 395.44 1430.07 393.77 1450.52 396.78 C 1460.04 398.40 1469.83 400.60 1477.98 406.05 C 1483.34 409.56 1487.16 415.64 1487.30 422.11 C 1486.59 428.95 1482.31 434.90 1476.85 438.86 C 1469.13 444.45 1460.13 447.84 1451.36 451.39 C 1413.19 465.98 1375.54 482.37 1340.36 503.27 C 1334.70 506.66 1328.95 509.91 1323.38 513.43 C 1321.19 514.50 1320.64 517.77 1322.67 519.30 C 1323.86 520.63 1325.92 519.74 1327.45 519.51 C 1346.57 514.49 1366.36 513.27 1385.99 511.92 C 1398.94 510.36 1412.01 511.36 1425.03 511.08 C 1435.75 511.71 1446.47 512.83 1457.03 514.91 C 1475.77 518.20 1494.78 522.21 1511.62 531.43 C 1520.27 536.39 1528.83 542.85 1532.82 552.30 C 1534.99 556.96 1535.45 562.53 1533.35 567.30 C 1530.62 574.80 1523.66 579.87 1516.33 582.36 C 1505.91 585.93 1494.78 586.43 1483.88 586.91 C 1474.90 587.65 1465.90 588.03 1456.96 589.08 C 1430.89 592.02 1405.45 598.83 1380.47 606.63 C 1375.16 608.62 1369.16 609.37 1364.70 613.13 C 1364.76 615.96 1365.37 619.76 1368.96 619.88 C 1406.04 626.19 1442.00 639.75 1473.34 660.66 C 1498.69 677.66 1522.00 698.47 1538.99 724.01 C 1545.35 733.81 1551.10 744.35 1553.27 755.96 C 1554.52 762.29 1553.06 769.06 1549.36 774.34 C 1545.64 779.51 1539.16 782.19 1532.91 782.14 C 1523.05 781.42 1514.62 775.65 1506.68 770.30 C 1493.04 760.69 1479.18 751.32 1464.41 743.54 C 1430.97 725.90 1393.80 715.02 1356.01 712.81 C 1338.35 712.22 1320.55 712.22 1303.09 715.18 C 1299.61 715.65 1299.73 719.47 1299.85 722.16 C 1306.83 725.29 1314.13 727.70 1321.03 731.05 C 1338.43 739.08 1354.80 749.31 1369.62 761.46 C 1383.33 772.65 1395.92 785.37 1405.89 800.04 C 1412.21 809.49 1417.63 819.81 1419.83 831.05 C 1422.84 842.73 1417.95 857.64 1405.62 861.57 C 1397.39 864.64 1388.56 861.44 1381.06 857.85 C 1368.23 851.25 1356.87 842.24 1344.90 834.26 C 1329.75 823.81 1313.76 814.55 1296.88 807.21 C 1288.19 803.47 1279.41 799.81 1270.16 797.71 C 1259.98 795.28 1249.60 792.22 1239.03 793.17 C 1236.16 793.83 1232.25 794.03 1231.03 797.22 C 1231.18 801.24 1233.30 805.01 1236.52 807.40 C 1264.94 826.69 1290.15 850.39 1312.99 875.97 C 1322.12 886.26 1330.47 897.20 1338.75 908.19 C 1347.29 920.23 1360.31 928.94 1374.72 932.18 C 1388.11 934.95 1401.55 937.43 1415.00 939.84 C 1425.58 941.83 1436.40 943.35 1446.38 947.59 C 1453.43 950.58 1460.15 955.02 1464.47 961.49 C 1467.92 966.38 1469.86 972.13 1471.08 977.94 C 1471.70 980.50 1472.49 983.66 1475.18 984.78 C 1482.05 987.20 1489.74 985.77 1496.54 988.51 C 1500.19 991.21 1500.94 996.09 1502.64 1000.05 C 1515.40 1001.09 1528.11 1002.59 1540.87 1003.66 C 1543.74 1004.02 1547.06 1004.49 1548.91 1007.01 C 1550.63 1009.45 1550.98 1012.51 1551.77 1015.34 C 1556.91 1016.93 1561.98 1019.33 1565.65 1023.39 C 1567.33 1024.90 1568.53 1027.37 1571.00 1027.71 C 1586.49 1030.82 1601.24 1037.12 1614.65 1045.40 C 1631.01 1055.56 1644.82 1069.35 1656.63 1084.46 C 1688.30 1124.21 1705.97 1174.40 1708.27 1225.01 C 1708.34 1235.01 1708.36 1245.02 1708.24 1255.03 C 1706.79 1277.80 1702.98 1300.46 1696.42 1322.34 C 1685.71 1358.34 1668.30 1392.11 1646.84 1422.84 C 1625.81 1452.88 1600.91 1480.23 1572.79 1503.78 C 1542.52 1529.23 1508.61 1550.22 1472.71 1566.76 C 1426.31 1588.29 1376.75 1602.50 1326.48 1611.56 C 1313.14 1613.91 1299.77 1616.77 1287.29 1622.19 C 1271.06 1629.20 1256.36 1639.17 1241.64 1648.85 C 1172.35 1693.91 1091.51 1720.60 1009.21 1727.22 C 919.39 1734.41 827.16 1717.08 747.38 1674.72 C 684.94 1641.67 630.42 1592.59 594.15 1531.69 C 584.02 1514.58 574.99 1496.78 567.84 1478.22 C 564.21 1468.44 560.65 1458.56 555.59 1449.40 C 546.96 1434.26 533.87 1422.42 521.13 1410.82 C 492.89 1385.31 466.91 1357.22 444.62 1326.35 C 419.29 1291.56 399.03 1253.31 382.19 1213.77 C 373.51 1193.46 365.85 1172.72 359.42 1151.60 C 353.69 1133.35 349.63 1114.62 343.65 1096.47 C 341.75 1089.77 335.57 1085.70 329.24 1083.77 C 320.65 1081.15 311.97 1076.74 307.08 1068.90 C 303.07 1062.31 302.20 1054.46 301.04 1047.00 C 298.02 1026.04 294.81 1005.11 291.80 984.16 C 291.13 979.10 289.38 974.05 290.41 968.91 C 291.76 958.53 299.47 950.42 307.79 944.77 C 311.67 941.78 316.70 939.10 318.01 934.02 C 318.64 925.90 317.25 917.80 316.15 909.78 C 314.66 899.19 313.25 888.60 311.71 878.02 C 310.92 872.20 312.45 864.95 318.35 862.35 C 323.95 859.04 331.61 861.85 334.59 867.40 C 336.00 869.97 336.43 872.91 336.96 875.76 C 339.17 891.43 341.21 907.13 343.52 922.79 C 344.13 926.63 344.91 931.10 348.41 933.43 C 352.49 935.78 357.20 936.64 361.44 938.63 C 368.56 941.52 375.33 945.91 379.63 952.41 C 381.91 956.20 383.31 960.48 384.17 964.81 C 387.74 988.90 391.30 1012.99 394.93 1037.07 C 395.75 1043.13 397.55 1049.43 395.65 1055.48 C 393.52 1063.30 388.02 1069.80 381.56 1074.50 C 378.75 1076.66 375.53 1078.44 373.37 1081.34 C 371.53 1083.92 371.90 1087.26 371.14 1090.23 C 372.30 1100.48 375.18 1110.40 377.73 1120.37 C 387.54 1158.11 401.32 1194.76 418.14 1229.93 C 431.47 1258.12 447.12 1285.25 465.39 1310.53 C 467.15 1312.96 469.30 1315.07 471.54 1317.08 C 473.26 1317.10 474.99 1317.10 476.73 1317.10 C 480.47 1313.15 480.78 1307.48 482.73 1302.65 C 486.77 1291.29 494.52 1281.09 505.06 1275.06 C 509.69 1272.24 515.63 1269.94 517.32 1264.24 C 518.85 1258.99 518.02 1253.39 517.83 1248.02 C 517.14 1226.01 517.75 1203.99 518.92 1182.01 C 518.31 1172.52 517.55 1163.00 515.59 1153.66 C 513.69 1142.23 509.53 1131.32 507.57 1119.90 C 502.38 1092.76 504.30 1064.28 513.38 1038.16 C 521.56 1014.31 535.94 992.59 554.90 975.94 C 565.53 966.57 576.71 957.45 584.71 945.60 C 603.92 914.40 626.51 885.24 652.47 859.36 C 663.93 847.45 676.82 837.08 689.51 826.55 C 694.84 822.24 700.74 818.04 703.89 811.77 C 704.58 808.02 701.74 804.76 698.71 802.97 C 686.58 801.98 674.68 804.94 662.99 807.78 C 643.88 812.53 625.47 819.66 607.40 827.42 C 592.46 833.60 578.27 842.19 562.17 845.13 C 554.32 846.64 545.82 845.34 539.10 840.88 C 530.48 835.00 526.65 823.54 528.78 813.50 C 530.98 803.69 536.00 794.80 541.67 786.60 C 550.18 774.68 560.49 764.12 571.70 754.72 C 586.30 742.20 603.28 732.88 620.39 724.30 C 622.57 722.97 625.26 721.80 626.27 719.28 C 627.27 717.00 625.97 714.20 623.75 713.22 C 619.78 711.28 615.22 712.03 610.97 711.99 C 591.45 713.93 571.99 717.00 553.05 722.19 C 520.71 731.17 489.94 745.91 462.92 765.85 C 453.55 772.44 444.28 780.07 432.84 782.62 C 424.49 784.81 414.78 781.04 410.44 773.50 C 406.67 767.06 405.67 759.19 407.34 751.95 C 410.21 737.35 417.51 724.02 425.90 711.89 C 436.88 696.14 450.56 682.49 465.08 670.02 C 480.77 656.54 498.54 645.49 517.61 637.47 C 550.94 623.61 586.97 616.90 622.96 615.62 C 638.28 615.61 653.61 615.70 668.93 615.59 C 673.14 615.66 677.98 613.45 678.55 608.82 C 679.51 603.51 674.67 599.94 670.90 597.22 C 641.33 577.20 608.76 562.21 576.10 548.01 C 555.97 539.27 535.51 531.27 514.65 524.44 C 495.25 518.51 475.49 513.77 455.51 510.23 C 444.95 507.97 433.75 505.82 425.02 499.04 C 419.25 494.35 415.43 485.93 418.67 478.72 C 421.82 469.72 430.38 464.26 438.62 460.42 C 454.13 453.48 471.26 451.22 488.10 450.41 C 532.53 448.86 576.23 458.78 619.19 468.94 C 659.87 478.79 700.13 491.91 736.95 512.08 C 743.98 515.79 750.53 520.34 757.58 524.01 C 758.52 523.50 759.47 523.00 760.42 522.50 C 759.96 521.02 759.70 519.44 758.75 518.20 C 726.32 476.58 685.98 441.08 640.41 414.48 C 623.61 404.54 605.45 397.32 587.76 389.20 C 577.61 384.27 567.15 379.01 559.56 370.43 C 554.54 364.34 550.88 355.77 553.79 347.94 C 555.69 341.22 561.15 336.07 567.54 333.54 C 577.45 329.20 588.51 330.09 599.05 330.43 C 621.49 332.62 643.32 338.60 664.98 344.64 C 696.95 353.38 728.48 364.10 758.32 378.61 C 760.71 379.85 763.25 380.77 765.87 381.42 C 765.93 379.31 766.28 376.94 764.66 375.28 C 755.26 363.18 743.28 352.20 738.77 337.09 C 736.21 329.75 738.43 321.26 743.72 315.69 C 748.54 310.86 755.27 308.51 761.89 307.52 C 778.74 305.76 795.29 310.71 811.10 315.94 C 837.83 325.33 863.29 339.44 883.73 359.25 C 887.15 362.27 889.50 366.49 893.52 368.82 C 896.25 369.60 899.14 368.90 901.70 367.79 C 907.45 356.67 913.74 345.84 919.90 334.93 C 928.41 320.41 937.02 305.79 948.03 292.98 C 955.79 284.21 964.70 275.37 976.41 272.39 Z"
  />
  <path
    fill="#00a900"
    stroke="#00a900"
    stroke-width="0.09375"
    opacity="1.00"
    d=" M 974.26 305.27 C 977.03 302.23 979.85 298.66 984.05 297.65 C 988.07 299.75 989.89 304.24 991.90 308.06 C 997.61 320.57 1001.01 333.95 1004.67 347.16 C 1011.15 370.97 1016.44 395.10 1020.40 419.46 C 1021.89 430.54 1016.63 441.02 1011.18 450.29 C 989.86 484.14 973.47 521.15 962.84 559.72 C 960.41 531.42 959.44 502.85 962.33 474.54 C 962.56 470.15 963.73 465.42 961.80 461.26 C 959.87 457.06 953.15 457.08 950.89 460.97 C 948.89 464.41 949.13 468.58 948.66 472.41 C 945.14 508.88 947.05 545.65 951.34 581.97 C 945.23 570.97 939.63 559.69 932.99 549.00 C 924.79 535.50 915.53 522.65 905.64 510.33 C 902.01 506.07 898.48 501.47 897.21 495.89 C 895.26 489.78 896.00 483.29 897.40 477.15 C 900.72 459.39 906.36 442.18 912.29 425.14 C 923.16 394.62 936.67 365.02 952.91 336.98 C 959.39 326.01 966.04 315.04 974.26 305.27 Z"
  />
  <path
    fill="#00a900"
    stroke="#00a900"
    stroke-width="0.09375"
    opacity="1.00"
    d=" M 774.90 334.77 C 780.25 335.49 785.70 335.77 790.96 337.08 C 824.22 346.20 853.66 365.93 878.17 389.80 C 883.77 395.22 889.01 401.00 893.83 407.12 C 896.99 411.03 899.08 415.92 899.08 421.01 C 899.18 425.61 897.68 430.03 896.30 434.36 C 892.53 445.88 888.99 457.50 886.59 469.39 C 885.93 471.82 885.60 474.83 883.18 476.21 C 880.04 478.14 875.77 477.41 873.34 474.68 C 862.52 464.11 850.79 454.53 838.94 445.15 C 827.00 435.48 820.96 420.97 814.57 407.45 C 804.74 387.97 793.41 369.19 780.20 351.80 C 777.23 347.71 773.21 344.07 771.93 339.02 C 772.81 337.53 773.89 336.18 774.90 334.77 Z"
  />
  <path
    fill="#00a900"
    stroke="#00a900"
    stroke-width="0.09375"
    opacity="1.00"
    d=" M 1182.85 339.54 C 1186.14 338.52 1189.57 339.08 1192.84 339.94 C 1191.53 342.21 1190.24 344.54 1188.44 346.48 C 1179.71 355.64 1172.09 365.83 1165.45 376.58 C 1161.38 383.24 1156.19 389.19 1150.26 394.25 C 1143.97 399.68 1136.22 402.90 1129.19 407.20 C 1099.42 424.31 1072.51 446.05 1048.20 470.23 C 1021.20 497.63 997.81 528.67 979.48 562.51 C 976.94 567.26 974.69 572.16 971.85 576.74 C 973.69 563.27 978.17 550.31 982.52 537.47 C 993.68 506.35 1007.93 476.12 1026.88 448.94 C 1050.43 415.35 1082.44 388.46 1117.46 367.47 C 1137.92 355.40 1159.81 345.50 1182.85 339.54 Z"
  />
  <path
    fill="#00a900"
    stroke="#00a900"
    stroke-width="0.09375"
    opacity="1.00"
    d=" M 611.95 364.82 C 614.63 364.42 617.39 364.02 620.06 364.79 C 657.61 373.16 694.62 384.19 730.34 398.53 C 788.56 422.04 843.27 456.64 884.75 504.24 C 911.03 533.86 932.45 567.78 947.68 604.34 C 950.22 610.23 952.20 616.58 951.83 623.07 C 951.22 633.67 947.62 643.75 945.42 654.06 C 944.19 658.99 943.51 664.04 942.34 668.99 C 941.80 673.70 934.02 673.51 932.94 669.18 C 922.77 643.70 911.92 618.42 898.79 594.29 C 883.17 565.05 863.95 537.82 842.37 512.68 C 840.07 510.33 837.72 506.85 834.00 507.24 C 830.33 507.15 828.34 511.90 830.18 514.80 C 832.33 518.50 835.68 521.28 838.34 524.59 C 856.25 546.23 872.67 569.20 886.19 593.85 C 899.42 617.50 910.45 642.30 920.53 667.43 C 921.86 670.88 923.72 674.23 924.16 677.97 C 924.22 680.20 921.66 680.42 920.00 680.65 C 917.13 680.71 914.59 679.18 912.25 677.75 C 898.48 668.59 883.34 661.63 867.76 656.15 C 862.94 654.45 858.05 652.21 854.80 648.11 C 850.72 643.36 850.64 636.78 848.97 631.04 C 841.19 602.38 829.40 574.90 814.95 548.98 C 798.10 518.79 776.80 491.16 752.39 466.69 C 711.53 426.16 664.18 391.77 611.66 367.97 C 611.73 367.18 611.87 365.61 611.95 364.82 Z"
  />
  <path
    fill="#00a900"
    stroke="#00a900"
    stroke-width="0.09375"
    opacity="1.00"
    d=" M 1273.03 370.01 C 1285.71 368.67 1298.51 367.82 1311.26 368.72 C 1314.59 368.89 1318.00 370.18 1320.04 372.96 C 1319.82 374.57 1319.41 376.16 1319.04 377.75 C 1287.00 392.80 1256.73 411.76 1229.78 434.77 C 1191.90 467.30 1161.70 509.04 1143.87 555.76 C 1141.54 561.75 1139.85 568.05 1136.51 573.60 C 1131.80 581.57 1125.80 588.84 1118.61 594.70 C 1105.72 604.62 1093.76 615.98 1084.16 629.16 C 1080.58 634.43 1077.61 640.56 1071.81 643.78 C 1064.88 647.85 1056.64 648.29 1048.94 649.81 C 1044.21 650.62 1037.79 650.62 1035.13 645.85 C 1033.22 640.85 1035.47 635.53 1036.89 630.71 C 1067.42 541.16 1132.50 463.32 1216.65 419.61 C 1221.14 417.08 1226.21 415.50 1230.30 412.29 C 1233.39 409.79 1232.94 404.46 1229.49 402.49 C 1225.57 400.02 1221.22 402.90 1217.60 404.55 C 1128.38 448.49 1058.87 529.24 1025.86 622.77 C 1023.12 630.00 1020.77 637.40 1017.50 644.42 C 1012.95 653.65 1006.52 662.19 997.84 667.90 C 984.83 676.59 972.85 686.79 962.12 698.17 C 960.12 700.12 958.03 702.65 954.97 702.65 C 952.70 702.41 951.93 699.99 951.92 698.06 C 951.26 687.25 953.38 676.55 955.37 665.98 C 963.03 626.84 977.36 589.02 997.80 554.77 C 1012.88 529.63 1030.69 506.13 1050.88 484.89 C 1075.59 459.16 1103.37 436.17 1134.30 418.26 C 1176.79 393.39 1223.98 375.78 1273.03 370.01 Z"
  />
  <path
    fill="#00a900"
    stroke="#00a900"
    stroke-width="0.09375"
    opacity="1.00"
    d=" M 1338.12 433.46 C 1368.14 425.63 1398.96 420.49 1430.01 419.72 C 1433.59 419.38 1436.84 420.96 1439.68 422.97 C 1437.93 426.12 1434.83 427.86 1431.44 428.74 C 1394.94 442.41 1359.26 458.58 1325.94 478.91 C 1297.49 496.32 1269.74 515.40 1246.06 539.06 C 1241.10 543.80 1236.10 548.62 1230.17 552.15 C 1221.21 557.53 1211.09 560.63 1200.92 562.75 C 1189.80 565.05 1178.77 567.77 1167.95 571.22 C 1163.82 572.51 1158.46 573.39 1155.29 569.70 C 1152.89 567.36 1153.88 563.80 1154.85 561.05 C 1158.19 552.21 1162.02 543.55 1166.21 535.08 C 1172.89 520.75 1182.53 507.78 1194.84 497.81 C 1206.90 487.11 1221.53 480.08 1235.79 472.85 C 1268.66 456.78 1302.68 442.77 1338.12 433.46 Z"
  />
  <path
    fill="#00a900"
    stroke="#00a900"
    stroke-width="0.09375"
    opacity="1.00"
    d=" M 475.97 480.00 C 489.62 479.31 503.30 479.31 516.97 479.40 C 551.18 480.97 585.19 486.55 618.12 495.97 C 655.37 506.61 692.15 519.56 726.55 537.51 C 749.93 549.69 771.76 564.91 790.82 583.15 C 803.32 595.02 815.28 607.59 825.55 621.47 C 830.27 628.85 835.21 637.10 834.27 646.22 C 817.51 643.22 800.79 639.99 783.92 637.71 C 774.21 636.13 763.99 635.65 755.18 630.84 C 748.29 627.39 743.23 621.43 737.34 616.64 C 712.41 595.62 685.41 577.17 657.43 560.47 C 625.59 541.54 592.35 524.92 557.85 511.39 C 532.28 501.48 506.08 492.86 479.00 488.23 C 476.38 487.43 472.09 487.37 471.60 483.98 C 471.85 481.80 473.70 479.90 475.97 480.00 Z"
  />
  <path
    fill="#00a900"
    stroke="#00a900"
    stroke-width="0.09375"
    opacity="1.00"
    d=" M 1264.66 563.25 C 1303.08 546.24 1344.90 536.51 1387.00 536.44 C 1415.84 536.63 1444.65 540.52 1472.60 547.60 C 1477.88 549.16 1483.43 550.14 1488.39 552.64 C 1490.40 553.63 1489.90 556.29 1490.52 558.10 C 1481.35 558.72 1472.17 558.97 1463.03 559.96 C 1441.48 562.11 1420.37 567.20 1399.43 572.56 C 1371.06 580.12 1343.13 589.81 1316.82 602.90 C 1312.74 598.65 1310.00 593.30 1305.85 589.09 C 1295.04 576.65 1280.48 567.73 1264.66 563.25 Z"
  />
  <path
    fill="#00a900"
    stroke="#00a900"
    stroke-width="0.09375"
    opacity="1.00"
    d=" M 1225.20 571.69 C 1243.94 570.69 1263.69 573.10 1280.01 582.99 C 1293.44 590.97 1303.30 603.71 1310.68 617.26 C 1314.36 624.19 1318.03 631.33 1319.48 639.12 C 1320.41 645.14 1320.29 652.16 1315.97 656.94 C 1313.21 660.12 1308.51 660.21 1304.77 659.10 C 1300.10 657.66 1296.37 654.33 1292.89 651.06 C 1284.33 642.92 1276.57 633.91 1267.17 626.68 C 1253.95 616.41 1239.19 608.02 1223.44 602.30 C 1207.48 596.72 1190.85 592.72 1173.93 591.75 C 1167.29 591.50 1160.64 591.64 1154.01 591.86 C 1153.63 591.33 1152.87 590.28 1152.49 589.75 C 1163.22 584.91 1174.85 582.50 1186.42 580.70 C 1203.28 578.13 1220.92 579.65 1236.74 586.23 C 1244.63 589.25 1251.72 593.90 1259.06 598.00 C 1261.68 599.48 1265.85 598.31 1266.36 595.06 C 1267.10 592.19 1264.84 589.84 1262.64 588.44 C 1251.18 580.86 1238.53 575.03 1225.20 571.69 Z"
  />
  <path
    fill="#00a28a"
    stroke="#00a28a"
    stroke-width="0.09375"
    opacity="1.00"
    d=" M 1133.44 609.68 C 1151.64 602.16 1171.95 602.79 1191.01 606.11 C 1206.55 609.15 1221.93 613.67 1236.01 621.04 C 1244.99 625.65 1253.44 631.24 1261.42 637.43 C 1238.65 643.84 1217.05 653.69 1195.71 663.77 C 1189.75 666.46 1183.93 671.02 1177.01 670.03 C 1173.13 669.67 1170.76 666.31 1168.67 663.43 C 1163.84 656.66 1156.81 651.61 1148.99 648.87 C 1140.05 645.70 1130.48 644.55 1121.03 644.59 C 1110.95 644.50 1100.86 644.64 1090.83 645.68 C 1101.95 630.65 1115.75 616.66 1133.44 609.68 Z"
  />
  <path
    fill="#00a900"
    stroke="#00a900"
    stroke-width="0.09375"
    opacity="1.00"
    d=" M 629.28 639.52 C 642.21 639.23 655.14 639.40 668.07 639.43 C 694.12 640.63 720.15 642.52 746.08 645.34 C 749.94 645.83 754.05 645.71 757.62 647.44 C 759.69 649.72 755.57 650.38 754.05 650.97 C 739.02 654.71 725.25 663.70 716.26 676.37 C 712.48 681.74 708.65 687.55 702.58 690.55 C 695.61 693.96 687.57 693.29 680.21 691.80 C 634.06 683.69 585.99 684.09 540.70 696.79 C 519.96 702.62 499.92 710.86 480.99 721.13 C 469.13 727.54 458.03 735.22 447.08 743.06 C 444.80 745.21 439.61 744.68 439.78 740.87 C 441.10 736.06 444.61 732.28 447.25 728.16 C 467.13 699.43 494.83 676.08 526.87 662.02 C 558.95 647.35 594.24 641.18 629.28 639.52 Z"
  />
  <path
    fill="#00a900"
    stroke="#00a900"
    stroke-width="0.09375"
    opacity="1.00"
    d=" M 1332.44 641.31 C 1355.49 641.61 1378.40 645.54 1400.63 651.51 C 1428.91 659.14 1454.76 674.18 1476.93 693.15 C 1491.46 705.55 1504.64 719.45 1516.98 734.01 C 1518.99 736.49 1521.30 738.90 1522.33 742.01 C 1523.07 744.27 1522.34 746.63 1522.18 748.93 C 1515.69 745.59 1510.12 740.83 1504.05 736.85 C 1474.35 716.57 1441.25 700.56 1405.84 693.35 C 1380.98 687.97 1355.38 686.77 1330.02 688.03 C 1310.75 689.15 1291.56 691.91 1272.84 696.64 C 1251.31 702.03 1230.12 709.22 1210.40 719.48 C 1204.83 722.32 1199.38 726.17 1192.90 726.38 C 1190.75 726.45 1187.99 726.31 1187.06 724.00 C 1184.59 719.06 1184.81 713.37 1184.04 708.02 C 1183.40 701.20 1181.42 693.62 1185.28 687.38 C 1190.05 680.56 1197.50 676.27 1204.90 672.83 C 1221.95 664.88 1239.17 657.15 1257.12 651.42 C 1263.99 648.86 1271.87 650.20 1277.99 654.05 C 1282.97 657.66 1286.87 662.55 1291.96 666.05 C 1298.31 670.70 1306.55 673.15 1314.36 671.42 C 1321.87 669.62 1327.72 663.38 1330.23 656.24 C 1332.06 651.49 1332.37 646.35 1332.44 641.31 Z"
  />
  <path
    fill="#00a900"
    stroke="#00a900"
    stroke-width="0.09375"
    opacity="1.00"
    d=" M 1123.18 659.99 C 1129.61 656.30 1137.33 657.80 1144.00 660.00 C 1150.24 662.02 1155.97 665.90 1159.60 671.44 C 1164.64 679.02 1167.38 687.85 1169.58 696.61 C 1172.28 708.31 1173.25 720.68 1170.49 732.46 C 1169.05 737.73 1166.49 744.06 1160.59 745.48 C 1152.93 746.79 1145.79 742.51 1139.91 738.11 C 1129.19 729.59 1120.47 718.87 1109.97 710.09 C 1086.63 690.48 1058.27 675.97 1027.74 672.35 C 1027.50 671.69 1027.01 670.36 1026.77 669.69 C 1035.47 665.00 1045.37 663.51 1055.00 661.96 C 1065.85 660.52 1076.86 658.78 1087.81 660.22 C 1098.71 661.84 1109.23 666.23 1118.04 672.85 C 1128.88 682.77 1136.05 696.09 1141.04 709.77 C 1142.27 712.81 1143.16 716.12 1145.30 718.69 C 1147.77 721.50 1152.87 720.93 1154.50 717.50 C 1155.91 715.37 1155.07 712.80 1154.38 710.58 C 1150.13 698.88 1145.20 687.28 1137.80 677.18 C 1133.60 670.89 1127.94 665.82 1123.18 659.99 Z"
  />
  <path
    fill="#00a900"
    stroke="#00a900"
    stroke-width="0.09375"
    opacity="1.00"
    d=" M 726.67 682.61 C 736.51 669.45 752.64 661.45 769.01 661.14 C 771.16 661.12 773.01 662.42 774.94 663.22 C 769.89 668.48 763.68 672.41 758.57 677.61 C 755.27 680.98 751.34 683.91 748.96 688.05 C 746.77 691.93 750.57 697.44 755.06 696.29 C 758.86 695.12 761.24 691.66 764.06 689.09 C 770.60 682.87 777.28 676.61 785.19 672.15 C 792.57 668.11 800.67 665.33 809.01 664.19 C 824.49 662.50 839.94 665.59 854.89 669.35 C 861.22 670.97 867.47 672.91 873.57 675.28 C 844.99 677.88 818.17 689.91 794.14 705.08 C 779.84 713.92 766.41 724.06 752.58 733.59 C 743.26 739.81 733.88 746.28 723.30 750.18 C 719.53 751.32 714.50 752.91 711.38 749.59 C 708.27 745.06 708.26 739.23 708.36 733.95 C 709.36 715.57 715.65 697.39 726.67 682.61 Z"
  />
  <path
    fill="#00a28a"
    stroke="#00a28a"
    stroke-width="0.09375"
    opacity="1.00"
    d=" M 1006.39 684.67 C 1015.20 682.65 1024.28 684.17 1033.07 685.49 C 1059.57 690.08 1083.82 703.57 1104.06 720.94 C 1108.61 725.11 1114.05 730.94 1111.81 737.67 C 1109.54 743.56 1105.61 748.77 1101.21 753.25 C 1095.31 758.87 1086.52 758.41 1078.98 758.07 C 1058.64 756.63 1038.34 754.67 1017.95 754.06 C 1008.27 754.20 998.62 753.44 988.97 752.92 C 982.24 752.23 974.47 750.44 970.80 744.14 C 966.86 737.38 962.63 730.12 962.73 722.06 C 963.01 714.91 969.37 710.51 973.95 705.88 C 983.55 697.27 993.57 687.95 1006.39 684.67 Z"
  />
  <path
    fill="#00a28a"
    stroke="#00a28a"
    stroke-width="0.09375"
    opacity="1.00"
    d=" M 860.40 689.55 C 874.01 687.64 888.33 688.32 901.05 693.92 C 918.79 701.20 931.55 716.43 942.16 731.84 C 944.83 735.94 947.71 739.98 949.69 744.49 C 950.66 746.98 951.05 750.79 948.21 752.22 C 944.08 754.09 939.40 753.94 934.97 754.09 C 920.92 754.08 906.86 755.93 892.82 754.60 C 887.48 754.12 882.03 752.58 878.03 748.86 C 872.39 743.79 868.39 737.26 863.70 731.37 C 858.41 724.28 852.44 717.65 848.02 709.97 C 845.76 706.01 844.59 700.91 846.54 696.62 C 849.28 691.68 855.32 690.54 860.40 689.55 Z"
  />
  <path
    fill="#00a28a"
    stroke="#00a28a"
    stroke-width="0.09375"
    opacity="1.00"
    d=" M 807.32 711.18 C 812.05 708.05 819.27 707.01 823.63 711.32 C 834.75 721.19 844.85 732.16 854.18 743.73 C 857.25 747.92 861.48 751.68 862.66 756.92 C 861.49 760.62 857.01 760.49 853.92 761.20 C 848.76 761.79 843.56 763.80 838.36 762.66 C 834.25 761.60 831.64 758.03 828.90 755.08 C 819.71 744.73 808.56 736.27 796.63 729.32 C 794.07 727.94 792.18 725.71 790.49 723.41 C 794.91 717.87 801.51 714.97 807.32 711.18 Z"
  />
  <path
    fill="#00a900"
    stroke="#00a900"
    stroke-width="0.09375"
    opacity="1.00"
    d=" M 669.81 728.57 C 677.52 726.13 685.79 723.41 693.81 726.25 C 697.27 733.43 695.36 741.64 697.80 749.07 C 699.38 754.71 703.09 760.09 708.71 762.27 C 715.21 764.95 722.55 763.53 728.89 761.08 C 739.63 757.11 748.68 749.88 759.01 745.08 C 764.98 742.31 770.44 737.98 777.11 737.07 C 783.81 737.32 789.51 741.50 794.88 745.11 C 802.63 750.75 810.95 756.44 815.59 765.11 C 810.41 770.63 802.98 772.95 795.86 774.78 C 785.12 777.23 773.88 777.85 763.00 776.01 C 753.72 774.60 744.40 773.31 735.03 772.74 C 699.67 771.50 664.33 778.10 631.05 789.84 C 612.37 796.40 593.90 803.61 575.88 811.82 C 571.55 813.62 567.42 815.94 562.88 817.16 C 560.80 817.91 557.68 816.49 557.82 814.04 C 558.20 810.63 560.19 807.71 561.89 804.84 C 570.03 792.02 580.92 781.20 592.45 771.42 C 615.33 752.61 641.46 737.39 669.81 728.57 Z"
  />
  <path
    fill="#00a900"
    stroke="#00a900"
    stroke-width="0.09375"
    opacity="1.00"
    d=" M 1204.71 739.81 C 1225.92 734.44 1248.41 735.39 1269.58 740.52 C 1311.90 750.77 1350.74 774.83 1378.80 808.13 C 1382.59 813.17 1387.00 817.97 1389.43 823.86 C 1389.09 825.83 1388.48 827.73 1387.91 829.65 C 1385.69 828.75 1383.44 827.85 1381.55 826.37 C 1366.12 814.25 1350.47 802.29 1333.45 792.46 C 1317.75 783.29 1301.02 775.83 1283.58 770.64 C 1256.26 762.33 1226.11 760.05 1198.90 769.94 C 1191.54 772.37 1185.03 776.60 1178.26 780.23 C 1171.79 783.64 1164.30 781.58 1157.93 779.05 C 1148.52 775.26 1138.91 772.05 1129.36 768.66 C 1124.86 766.79 1119.86 765.03 1116.79 761.03 C 1114.55 757.68 1117.10 753.82 1119.01 750.99 C 1120.82 748.27 1124.02 745.03 1127.58 746.44 C 1133.08 748.62 1137.71 752.49 1143.13 754.85 C 1149.63 758.08 1157.26 759.07 1164.32 757.33 C 1169.72 756.09 1173.48 751.66 1178.43 749.47 C 1186.92 745.57 1195.66 742.16 1204.71 739.81 Z"
  />
  <path
    fill="#ffd400"
    stroke="#ffd400"
    stroke-width="0.09375"
    opacity="1.00"
    d=" M 967.53 775.39 C 973.82 771.27 981.72 771.08 988.99 770.95 C 1002.92 770.94 1016.90 770.66 1030.77 772.22 C 1034.23 772.87 1037.48 775.36 1038.16 778.95 C 1038.73 781.47 1036.72 783.49 1035.34 785.32 C 1030.06 791.39 1024.71 797.40 1019.49 803.51 C 1016.88 806.56 1013.20 809.24 1009.02 809.08 C 1004.93 809.44 1001.60 806.71 998.59 804.36 C 991.00 798.29 983.22 792.46 975.55 786.50 C 971.87 783.66 968.62 780.02 967.53 775.39 Z"
  />
  <path
    fill="#ffd400"
    stroke="#ffd400"
    stroke-width="0.09375"
    opacity="1.00"
    d=" M 905.29 773.22 C 916.26 772.17 927.73 772.47 937.97 777.02 C 954.21 784.34 967.95 796.00 981.13 807.77 C 986.84 812.85 992.21 819.93 991.00 828.05 C 989.42 836.71 984.55 844.38 978.94 851.01 C 955.70 878.83 932.95 907.04 910.58 935.56 C 906.95 939.99 901.00 944.38 895.01 942.33 C 888.70 940.70 883.92 935.96 879.14 931.81 C 855.43 910.79 831.21 890.34 806.62 870.36 C 800.13 865.02 794.29 857.69 793.99 848.94 C 794.89 841.16 800.06 834.78 805.33 829.35 C 814.51 820.16 823.75 811.02 833.33 802.24 C 840.37 795.43 848.30 789.51 857.04 785.05 C 871.94 777.37 888.77 774.73 905.29 773.22 Z"
  />
  <path
    fill="#ffd400"
    stroke="#ffd400"
    stroke-width="0.09375"
    opacity="1.00"
    d=" M 1067.23 776.27 C 1075.55 775.00 1083.87 776.96 1092.08 778.11 C 1120.64 782.50 1148.24 792.07 1174.09 804.88 C 1180.53 807.96 1186.69 812.36 1190.24 818.71 C 1192.86 823.37 1192.89 829.12 1191.10 834.09 C 1187.25 845.54 1179.66 855.12 1173.00 865.03 C 1163.89 877.96 1155.42 891.34 1145.95 904.01 C 1142.49 907.94 1138.80 913.27 1133.00 913.24 C 1125.55 911.91 1120.10 906.09 1114.52 901.45 C 1087.50 876.68 1059.49 853.01 1031.01 829.94 C 1027.60 827.02 1023.61 823.77 1023.03 819.04 C 1024.35 813.18 1029.05 809.06 1032.72 804.62 C 1038.48 798.06 1044.15 791.42 1050.02 784.96 C 1054.61 780.27 1060.84 777.46 1067.23 776.27 Z"
  />
  <path
    fill="#ffd400"
    stroke="#ffd400"
    stroke-width="0.09375"
    opacity="1.00"
    d=" M 824.37 787.16 C 826.08 787.59 827.76 788.03 829.47 788.52 C 828.42 790.68 827.53 793.02 825.66 794.64 C 818.17 801.83 810.65 808.98 803.16 816.16 C 795.76 822.41 789.73 830.11 782.19 836.20 C 778.68 838.67 774.11 840.91 769.77 839.49 C 764.44 838.06 760.24 834.29 755.93 831.07 C 753.00 828.93 750.96 825.01 752.38 821.43 C 754.08 815.62 759.72 812.50 764.70 809.83 C 775.79 803.88 787.37 798.93 799.03 794.22 C 807.22 791.05 815.55 787.91 824.37 787.16 Z"
  />
  <path
    fill="#ffd400"
    stroke="#ffd400"
    stroke-width="0.09375"
    opacity="1.00"
    d=" M 1001.75 840.68 C 1004.10 838.03 1006.79 835.50 1010.13 834.17 C 1014.31 833.53 1018.99 833.80 1022.32 836.74 C 1052.49 861.05 1082.13 886.06 1110.54 912.42 C 1115.11 917.21 1120.82 921.29 1123.36 927.64 C 1125.65 933.02 1123.90 939.14 1120.80 943.81 C 1112.15 957.18 1103.45 970.50 1094.91 983.94 C 1093.06 987.04 1089.63 989.52 1085.88 989.11 C 1082.26 988.82 1079.72 985.98 1077.30 983.61 C 1062.81 969.74 1045.20 959.19 1026.21 952.75 C 1009.04 946.97 991.17 942.88 973.02 942.28 C 952.24 941.26 930.92 943.44 911.59 951.49 C 941.09 914.11 970.78 876.86 1001.75 840.68 Z"
  />
  <path
    fill="#ffd400"
    stroke="#ffd400"
    stroke-width="0.09375"
    opacity="1.00"
    d=" M 727.22 837.26 C 735.37 835.52 743.04 840.14 749.44 844.64 C 753.65 847.70 758.20 852.28 757.24 857.98 C 755.98 863.87 751.57 868.35 747.53 872.54 C 726.95 893.64 707.49 915.81 686.64 936.64 C 679.64 943.36 671.92 950.40 662.01 952.10 C 654.84 953.02 646.63 952.16 641.24 946.84 C 637.10 942.90 632.33 938.05 632.98 931.83 C 633.70 924.48 638.65 918.63 642.98 913.01 C 660.83 890.42 680.75 869.37 703.06 851.14 C 710.33 845.36 718.08 839.60 727.22 837.26 Z"
  />
  <path
    fill="#ffd400"
    stroke="#ffd400"
    stroke-width="0.09375"
    opacity="1.00"
    d=" M 1216.16 842.21 C 1223.82 841.35 1232.19 842.16 1238.89 846.22 C 1265.10 866.78 1288.20 891.13 1308.54 917.46 C 1311.10 920.67 1312.57 925.62 1310.35 929.35 C 1306.68 933.37 1300.62 932.46 1295.82 931.71 C 1274.56 927.60 1253.28 923.54 1232.05 919.23 C 1221.32 918.83 1210.64 920.70 1199.94 921.27 C 1189.00 922.01 1177.48 923.07 1167.06 918.96 C 1161.43 916.90 1156.84 909.91 1160.09 904.17 C 1164.01 896.97 1169.13 890.51 1173.70 883.73 C 1180.53 873.89 1187.21 863.95 1194.39 854.36 C 1199.46 847.38 1207.78 843.45 1216.16 842.21 Z"
  />
  <path
    fill="#ffd400"
    stroke="#ffd400"
    stroke-width="0.09375"
    opacity="1.00"
    d=" M 773.45 869.59 C 782.83 867.61 791.81 872.69 799.07 878.11 C 823.48 897.86 847.51 918.10 871.02 938.91 C 875.68 943.28 880.83 947.15 885.15 951.87 C 888.85 956.21 886.33 962.26 883.23 966.16 C 879.37 970.66 874.48 974.13 870.26 978.29 C 863.51 984.94 857.37 992.23 852.12 1000.13 C 845.49 1009.91 840.83 1020.82 834.88 1031.00 C 827.20 1045.55 817.80 1059.07 808.28 1072.44 C 802.62 1080.67 796.99 1088.94 790.74 1096.73 C 787.94 1099.99 784.62 1103.46 780.13 1104.01 C 776.11 1104.61 771.95 1102.27 770.36 1098.55 C 767.56 1092.45 767.96 1085.58 767.86 1079.05 C 767.75 1055.58 762.74 1031.95 752.06 1010.97 C 743.76 994.59 731.74 979.88 716.47 969.55 C 711.24 965.94 705.57 963.06 700.13 959.81 C 697.02 957.87 693.69 954.95 693.85 950.95 C 693.83 946.50 697.02 942.94 699.76 939.76 C 714.66 923.04 729.88 906.61 745.33 890.40 C 749.97 885.64 754.99 881.28 759.92 876.83 C 763.86 873.54 768.32 870.58 773.45 869.59 Z"
  />
  <path
    fill="#959898"
    stroke="#959898"
    stroke-width="0.09375"
    opacity="1.00"
    d=" M 1221.43 932.68 C 1227.92 930.90 1234.67 932.01 1241.14 933.28 C 1292.35 943.23 1343.56 953.19 1394.77 963.13 C 1403.11 964.68 1411.38 966.60 1419.79 967.75 C 1425.59 968.81 1431.40 970.03 1436.95 972.07 C 1439.99 973.10 1442.60 975.44 1443.54 978.58 C 1446.00 986.14 1444.87 994.21 1445.26 1002.01 C 1445.72 1013.35 1444.57 1024.66 1444.78 1036.00 C 1444.87 1068.98 1444.54 1101.96 1444.22 1134.93 C 1443.43 1146.60 1443.90 1158.31 1443.79 1170.00 C 1443.94 1177.48 1443.89 1185.44 1440.19 1192.17 C 1436.85 1196.81 1430.45 1196.43 1425.42 1195.81 C 1357.35 1187.69 1289.29 1179.54 1221.23 1171.40 C 1216.93 1170.80 1211.64 1169.49 1209.97 1164.95 C 1207.20 1159.04 1207.84 1152.37 1207.70 1146.04 C 1207.94 1122.70 1207.55 1099.34 1208.36 1076.01 C 1208.40 1036.34 1208.17 996.67 1208.60 957.01 C 1209.05 951.15 1208.66 944.84 1211.69 939.57 C 1213.70 935.95 1217.46 933.62 1221.43 932.68 Z"
  />
  <path
    fill="#464b4b"
    stroke="#464b4b"
    stroke-width="0.09375"
    opacity="1.00"
    d=" M 1171.54 936.48 C 1181.09 934.63 1190.88 934.79 1200.57 934.58 C 1195.92 944.77 1196.82 956.18 1196.66 967.07 C 1196.44 1011.38 1196.25 1055.68 1196.10 1099.99 C 1195.27 1120.99 1195.82 1142.01 1195.66 1163.03 C 1195.71 1217.67 1195.20 1272.32 1195.11 1326.97 C 1194.23 1354.31 1194.85 1381.66 1194.66 1409.01 C 1194.70 1441.99 1194.31 1474.97 1194.31 1507.95 C 1194.47 1513.96 1194.26 1520.07 1195.63 1525.97 C 1196.58 1530.13 1198.52 1533.98 1200.56 1537.71 C 1190.36 1536.33 1179.53 1537.43 1169.94 1533.10 C 1163.79 1530.43 1162.22 1523.09 1162.35 1517.04 C 1162.62 1414.02 1162.74 1311.00 1162.91 1207.98 C 1162.97 1194.32 1162.71 1180.65 1163.36 1167.00 C 1163.36 1098.66 1163.37 1030.33 1163.35 962.00 C 1163.47 955.64 1162.42 949.14 1163.94 942.89 C 1164.72 939.29 1168.06 937.03 1171.54 936.48 Z"
  />
  <path
    fill="#ffd400"
    stroke="#ffd400"
    stroke-width="0.09375"
    opacity="1.00"
    d=" M 1127.26 953.31 C 1130.32 948.85 1134.23 943.68 1140.09 943.31 C 1145.13 943.15 1148.65 947.64 1150.01 952.05 C 1152.95 961.39 1152.12 971.33 1152.00 980.98 C 1151.04 1007.96 1151.49 1034.97 1151.33 1061.97 C 1151.27 1111.64 1151.16 1161.31 1151.08 1210.99 C 1151.13 1213.32 1150.42 1215.56 1149.67 1217.75 C 1146.73 1219.30 1143.41 1219.61 1140.17 1219.10 C 1133.64 1210.81 1127.53 1202.21 1121.07 1193.87 C 1115.10 1185.80 1108.40 1178.20 1103.53 1169.39 C 1101.43 1165.22 1098.87 1160.38 1100.75 1155.66 C 1103.04 1149.00 1106.86 1142.97 1109.19 1136.30 C 1118.30 1112.81 1121.76 1086.96 1117.83 1062.01 C 1115.16 1044.40 1109.19 1027.23 1099.92 1011.99 C 1097.08 1007.92 1096.83 1002.26 1098.80 997.81 C 1108.17 982.90 1117.89 968.21 1127.26 953.31 Z"
  />
  <path
    fill="#ffd400"
    stroke="#ffd400"
    stroke-width="0.09375"
    opacity="1.00"
    d=" M 614.71 955.99 C 615.69 950.93 619.89 946.96 624.74 945.51 C 627.47 948.54 632.00 951.25 631.34 955.96 C 627.60 958.20 623.08 958.89 618.79 959.04 C 617.00 958.99 614.07 958.39 614.71 955.99 Z"
  />
  <path
    fill="#959898"
    stroke="#959898"
    stroke-width="0.09375"
    opacity="1.00"
    d=" M 323.45 950.51 C 335.93 946.71 350.14 945.70 362.02 951.95 C 367.41 954.64 371.53 959.84 372.23 965.91 C 375.45 985.95 378.18 1006.06 381.31 1026.11 C 369.91 1020.11 356.49 1018.46 343.85 1020.50 C 331.91 1022.90 320.05 1027.82 311.53 1036.78 C 308.90 1018.59 306.08 1000.42 303.65 982.20 C 302.90 976.11 301.72 969.35 304.72 963.68 C 309.05 957.14 316.24 953.12 323.45 950.51 Z"
  />
  <path
    fill="#ededed"
    stroke="#ededed"
    stroke-width="0.09375"
    opacity="1.00"
    d=" M 944.15 954.18 C 951.35 953.01 958.66 953.95 965.91 953.84 C 1001.57 955.88 1035.01 977.22 1053.12 1007.82 C 1074.28 1042.51 1075.86 1087.83 1057.99 1124.21 C 1045.10 1151.47 1021.66 1173.69 993.44 1184.47 C 970.38 1193.36 944.32 1194.62 920.70 1187.18 C 889.82 1178.00 863.92 1154.39 850.97 1125.01 C 834.10 1087.99 837.69 1042.76 859.61 1008.57 C 877.91 979.15 909.62 958.26 944.15 954.18 Z"
  />
  <path
    fill="#959898"
    stroke="#959898"
    stroke-width="0.09375"
    opacity="1.00"
    d=" M 654.15 965.99 C 670.75 964.04 688.06 965.98 702.89 974.09 C 695.37 977.03 687.83 979.90 680.33 982.90 C 672.67 975.78 663.83 969.97 654.15 965.99 Z"
  />
  <path
    fill="#959898"
    stroke="#959898"
    stroke-width="0.09375"
    opacity="1.00"
    d=" M 1029.22 965.81 C 1045.95 972.76 1061.36 982.92 1073.90 996.05 C 1069.24 996.77 1064.60 997.51 1059.95 998.21 C 1051.70 985.72 1041.28 974.68 1029.22 965.81 Z"
  />
  <path
    fill="#000000"
    stroke="#000000"
    stroke-width="0.09375"
    opacity="1.00"
    d=" M 946.60 970.80 C 970.14 968.50 994.35 976.34 1012.61 991.30 C 1026.18 1002.39 1036.60 1017.28 1042.41 1033.82 C 1050.13 1055.61 1049.92 1080.12 1041.90 1101.79 C 1035.05 1120.41 1022.36 1136.82 1006.04 1148.10 C 991.68 1158.08 974.43 1163.77 956.98 1164.51 C 936.06 1165.23 914.99 1158.42 898.37 1145.69 C 882.37 1133.63 870.51 1116.29 864.69 1097.14 C 853.72 1062.52 863.70 1022.22 890.01 997.08 C 905.12 982.16 925.47 972.79 946.60 970.80 Z"
  />
  <path
    fill="#ededed"
    stroke="#ededed"
    stroke-width="0.09375"
    opacity="1.00"
    d=" M 619.18 972.24 C 639.52 969.52 660.34 978.00 674.56 992.45 C 688.77 1006.85 697.31 1026.08 701.01 1045.79 C 707.96 1083.43 698.64 1123.94 675.64 1154.58 C 662.91 1171.26 645.44 1185.12 624.83 1190.35 C 606.58 1195.32 586.36 1191.91 570.74 1181.27 C 556.37 1171.41 545.57 1156.82 539.22 1140.67 C 524.97 1104.54 528.86 1062.63 546.40 1028.34 C 556.83 1008.31 572.48 990.37 592.81 980.04 C 601.04 975.90 610.06 973.42 619.18 972.24 Z"
  />
  <path
    fill="#000000"
    stroke="#000000"
    stroke-width="0.09375"
    opacity="1.00"
    d=" M 1222.30 981.22 C 1226.03 979.39 1230.22 981.05 1234.09 981.54 C 1298.74 992.60 1363.41 1003.56 1428.07 1014.56 C 1431.02 1014.96 1434.41 1016.65 1434.55 1020.04 C 1435.06 1028.69 1434.49 1037.38 1434.55 1046.05 C 1434.14 1061.69 1434.93 1077.35 1433.98 1092.98 C 1433.80 1107.36 1433.70 1121.74 1433.56 1136.13 C 1433.46 1138.36 1433.37 1141.07 1431.40 1142.54 C 1429.29 1144.28 1426.39 1143.90 1423.89 1143.64 C 1360.20 1135.47 1296.50 1127.24 1232.80 1119.12 C 1229.22 1118.51 1225.34 1118.70 1222.10 1116.87 C 1219.69 1115.53 1219.38 1112.51 1219.34 1110.05 C 1219.41 1069.03 1219.46 1028.01 1219.52 986.99 C 1219.52 984.80 1220.09 982.20 1222.30 981.22 Z"
  />
  <path
    fill="#959898"
    stroke="#959898"
    stroke-width="0.09375"
    opacity="1.00"
    d=" M 710.98 983.02 C 712.61 982.57 714.67 981.36 716.10 982.90 C 729.58 993.62 739.44 1008.39 746.11 1024.16 C 733.44 1025.70 720.81 1027.58 708.12 1028.98 C 703.87 1015.55 697.40 1002.79 688.57 991.77 C 696.04 988.86 703.52 985.96 710.98 983.02 Z"
  />
  <path
    fill="#000000"
    stroke="#000000"
    stroke-width="0.09375"
    opacity="1.00"
    d=" M 617.48 988.69 C 623.22 987.74 629.00 989.33 634.58 990.57 C 653.20 995.42 667.30 1010.97 674.50 1028.31 C 679.68 1040.21 681.68 1053.15 682.41 1066.03 C 682.36 1087.73 677.25 1109.61 666.35 1128.49 C 657.11 1144.61 643.53 1158.88 626.24 1166.26 C 611.42 1172.69 593.62 1172.54 579.40 1164.60 C 562.58 1155.52 551.85 1138.14 546.84 1120.13 C 541.53 1100.54 542.04 1079.55 547.16 1059.98 C 552.40 1040.47 562.25 1021.87 577.09 1007.98 C 588.05 997.48 602.28 990.21 617.48 988.69 Z"
  />
  <path
    fill="#ededed"
    stroke="#ededed"
    stroke-width="0.09375"
    opacity="1.00"
    d=" M 962.46 992.68 C 969.29 990.60 977.24 995.71 977.79 1002.90 C 978.87 1009.75 973.01 1016.71 966.06 1016.69 C 959.61 1017.06 953.59 1011.45 953.44 1005.02 C 953.02 999.44 957.14 994.12 962.46 992.68 Z"
  />
  <path
    fill="#ededed"
    stroke="#ededed"
    stroke-width="0.09375"
    opacity="1.00"
    d=" M 920.46 995.74 C 927.33 992.86 936.52 995.29 939.77 1002.34 C 943.46 1009.30 940.28 1017.40 936.59 1023.65 C 930.47 1033.25 921.35 1041.63 910.15 1044.62 C 902.96 1046.98 893.72 1043.18 891.69 1035.55 C 889.97 1031.26 891.26 1026.65 892.68 1022.49 C 897.53 1010.15 907.95 1000.11 920.46 995.74 Z"
  />
  <path
    fill="#464b4b"
    stroke="#464b4b"
    stroke-width="0.09375"
    opacity="1.00"
    d=" M 1457.22 995.21 C 1467.98 996.39 1478.85 997.05 1489.52 998.84 C 1491.72 1001.98 1492.37 1005.91 1493.44 1009.54 C 1495.93 1018.53 1496.04 1027.99 1495.22 1037.22 C 1494.09 1044.24 1492.09 1051.43 1487.84 1057.24 C 1484.61 1057.84 1481.33 1057.37 1478.11 1057.15 C 1470.90 1056.45 1463.65 1056.53 1456.45 1055.88 C 1456.41 1035.65 1456.78 1015.43 1457.22 995.21 Z"
  />
  <path
    fill="#959898"
    stroke="#959898"
    stroke-width="0.09375"
    opacity="1.00"
    d=" M 1066.16 1008.80 C 1071.60 1007.98 1077.02 1007.01 1082.48 1006.23 C 1093.80 1021.03 1101.53 1038.43 1105.44 1056.63 C 1097.15 1056.46 1088.86 1056.31 1080.58 1056.10 C 1078.60 1039.64 1073.96 1023.46 1066.16 1008.80 Z"
  />
  <path
    fill="#ededed"
    stroke="#ededed"
    stroke-width="0.09375"
    opacity="1.00"
    d=" M 601.47 1012.74 C 605.55 1011.29 610.18 1010.98 614.15 1012.96 C 620.25 1015.51 623.45 1022.80 622.18 1029.12 C 620.49 1037.69 615.28 1045.15 609.06 1051.10 C 603.25 1056.61 596.07 1061.15 587.99 1062.24 C 581.58 1062.87 574.41 1059.10 572.70 1052.58 C 570.97 1048.27 572.26 1043.64 573.69 1039.47 C 578.54 1027.13 588.96 1017.10 601.47 1012.74 Z"
  />
  <path
    fill="#959898"
    stroke="#959898"
    stroke-width="0.09375"
    opacity="1.00"
    d=" M 1505.72 1011.85 C 1517.14 1013.08 1528.60 1013.98 1540.02 1015.30 C 1542.54 1028.30 1542.74 1042.33 1536.97 1054.54 C 1525.61 1054.14 1514.28 1053.38 1502.92 1053.07 C 1507.67 1039.89 1508.54 1025.54 1505.72 1011.85 Z"
  />
  <path
    fill="#ededed"
    stroke="#ededed"
    stroke-width="0.09375"
    opacity="1.00"
    d=" M 642.59 1020.65 C 650.22 1017.59 659.68 1023.73 659.54 1032.06 C 659.85 1037.61 655.62 1042.02 650.94 1044.28 C 646.92 1044.83 642.54 1044.47 639.43 1041.59 C 634.80 1037.93 633.92 1030.83 636.76 1025.83 C 638.02 1023.45 640.41 1022.06 642.59 1020.65 Z"
  />
  <path
    fill="#464b4b"
    stroke="#464b4b"
    stroke-width="0.09375"
    opacity="1.00"
    d=" M 336.38 1034.54 C 345.73 1031.79 355.79 1030.25 365.41 1032.52 C 371.27 1033.80 377.19 1036.22 381.26 1040.80 C 384.60 1044.47 385.64 1050.11 383.51 1054.65 C 380.27 1062.16 372.88 1066.62 365.76 1069.90 C 364.27 1063.26 363.38 1054.97 356.63 1051.46 C 350.81 1047.79 342.52 1050.74 339.75 1056.87 C 337.00 1062.18 338.91 1068.26 340.00 1073.75 C 332.21 1072.68 323.87 1070.62 318.40 1064.57 C 314.67 1060.62 314.05 1054.38 316.59 1049.64 C 320.58 1042.00 328.52 1037.37 336.38 1034.54 Z"
  />
  <path
    fill="#959898"
    stroke="#959898"
    stroke-width="0.09375"
    opacity="1.00"
    d=" M 711.12 1040.07 C 724.15 1038.60 737.12 1036.60 750.15 1035.09 C 755.43 1052.59 757.92 1071.08 756.60 1089.33 C 742.28 1086.97 727.97 1084.64 713.65 1082.34 C 715.08 1068.22 713.76 1053.97 711.12 1040.07 Z"
  />
  <path
    fill="#ffd400"
    stroke="#ffd400"
    stroke-width="0.09375"
    opacity="1.00"
    d=" M 1545.80 1062.78 C 1554.46 1063.95 1563.51 1060.89 1569.08 1054.02 C 1587.59 1058.62 1604.78 1068.22 1618.63 1081.32 C 1631.11 1093.09 1641.57 1106.86 1650.63 1121.39 C 1672.69 1157.44 1682.99 1199.99 1682.72 1242.07 C 1681.98 1267.34 1678.25 1292.60 1670.77 1316.80 C 1659.39 1354.13 1640.22 1388.76 1616.75 1419.81 C 1583.12 1464.54 1539.61 1501.61 1490.59 1528.51 C 1485.64 1530.97 1480.84 1534.85 1474.99 1534.28 C 1468.60 1534.73 1465.70 1527.31 1465.70 1522.01 C 1465.49 1502.33 1465.80 1482.65 1466.38 1462.98 C 1466.63 1446.00 1466.74 1429.01 1466.82 1412.03 C 1468.12 1384.69 1467.18 1357.28 1468.31 1329.94 C 1468.78 1305.48 1468.51 1281.01 1469.38 1256.57 C 1469.61 1240.05 1469.75 1223.53 1469.80 1207.01 C 1470.76 1183.65 1470.62 1160.27 1470.82 1136.90 C 1471.81 1115.94 1471.46 1094.95 1471.87 1073.98 C 1471.57 1071.07 1474.41 1069.27 1476.96 1069.03 C 1481.34 1068.72 1485.74 1069.00 1490.12 1069.44 C 1493.33 1069.77 1495.35 1066.74 1497.20 1064.61 C 1508.49 1064.35 1519.71 1065.71 1530.98 1065.83 C 1534.18 1065.90 1537.38 1066.04 1540.58 1066.41 C 1542.35 1065.25 1544.10 1064.05 1545.80 1062.78 Z"
  />
  <path
    fill="#959898"
    stroke="#959898"
    stroke-width="0.09375"
    opacity="1.00"
    d=" M 1081.56 1067.42 C 1090.13 1067.63 1098.71 1067.78 1107.29 1067.94 C 1109.76 1091.18 1106.17 1114.98 1096.95 1136.46 C 1088.00 1132.35 1079.09 1128.14 1070.16 1123.98 C 1077.94 1106.18 1081.23 1086.77 1081.56 1067.42 Z"
  />
  <path
    fill="#ffd400"
    stroke="#ffd400"
    stroke-width="0.09375"
    opacity="1.00"
    d=" M 815.77 1080.75 C 817.30 1078.59 819.38 1076.75 821.96 1075.98 C 823.93 1076.09 825.62 1077.98 825.01 1080.00 C 823.39 1098.03 823.86 1116.42 828.70 1133.96 C 837.38 1167.40 859.50 1197.02 888.99 1215.00 C 899.84 1221.68 911.62 1226.80 923.87 1230.30 C 930.12 1232.27 937.27 1232.54 942.25 1237.33 C 943.04 1243.27 939.64 1248.62 936.30 1253.20 C 934.59 1255.74 930.97 1255.94 928.49 1254.49 C 921.54 1250.75 914.90 1246.27 907.32 1243.88 C 901.05 1241.95 894.62 1239.98 887.99 1240.28 C 880.81 1240.48 872.86 1238.85 868.18 1232.92 C 857.64 1219.92 848.49 1205.87 838.62 1192.37 C 826.30 1175.09 813.74 1158.00 801.04 1141.01 C 795.83 1133.59 792.44 1124.02 794.91 1114.99 C 796.16 1107.17 801.50 1101.11 805.83 1094.81 C 809.15 1090.13 812.39 1085.39 815.77 1080.75 Z"
  />
  <path
    fill="#959898"
    stroke="#959898"
    stroke-width="0.09375"
    opacity="1.00"
    d=" M 686.52 1158.21 C 700.14 1139.09 708.77 1116.68 712.52 1093.56 C 726.94 1095.98 741.38 1098.28 755.81 1100.68 C 752.46 1129.53 741.95 1157.66 724.76 1181.14 C 711.97 1173.57 699.23 1165.91 686.52 1158.21 Z"
  />
  <path
    fill="#ffd400"
    stroke="#ffd400"
    stroke-width="0.09375"
    opacity="1.00"
    d=" M 766.37 1117.98 C 768.96 1117.82 771.78 1120.16 771.34 1122.93 C 771.30 1125.40 769.98 1127.56 768.68 1129.57 C 765.87 1133.67 763.28 1138.25 758.76 1140.70 C 759.19 1135.75 761.10 1131.13 762.22 1126.33 C 762.99 1123.32 763.48 1119.77 766.37 1117.98 Z"
  />
  <path
    fill="#959898"
    stroke="#959898"
    stroke-width="0.09375"
    opacity="1.00"
    d=" M 855.34 1166.91 C 846.20 1152.51 840.09 1136.32 837.07 1119.56 C 842.17 1134.33 850.25 1147.94 860.19 1159.95 C 858.56 1162.26 856.93 1164.56 855.34 1166.91 Z"
  />
  <path
    fill="#959898"
    stroke="#959898"
    stroke-width="0.09375"
    opacity="1.00"
    d=" M 1065.21 1134.21 C 1074.13 1138.46 1083.12 1142.54 1092.05 1146.77 C 1076.72 1175.85 1051.28 1199.33 1021.17 1212.49 C 1016.62 1205.07 1012.06 1197.67 1007.52 1190.26 C 1031.98 1178.18 1052.30 1158.21 1065.21 1134.21 Z"
  />
  <path
    fill="#ffd400"
    stroke="#ffd400"
    stroke-width="0.09375"
    opacity="1.00"
    d=" M 769.46 1147.47 C 773.77 1140.53 785.47 1138.00 790.72 1145.19 C 812.46 1173.95 833.45 1203.28 854.08 1232.85 C 856.64 1236.36 858.26 1241.17 856.20 1245.32 C 852.31 1253.02 844.81 1257.91 839.40 1264.44 C 835.10 1268.88 832.47 1274.73 827.59 1278.63 C 812.06 1291.61 806.91 1314.58 813.57 1333.42 C 815.27 1339.28 819.30 1344.13 820.86 1350.04 C 825.51 1365.98 834.51 1381.07 848.34 1390.66 C 853.63 1394.52 861.12 1400.07 858.57 1407.60 C 850.27 1425.24 841.73 1442.78 833.16 1460.30 C 828.63 1469.47 825.14 1479.44 818.12 1487.11 C 814.43 1491.14 808.57 1493.23 803.22 1491.64 C 796.98 1489.72 791.72 1485.44 787.61 1480.48 C 782.68 1474.56 778.84 1467.87 774.70 1461.40 C 767.13 1449.33 759.47 1437.31 751.66 1425.40 C 748.30 1420.01 744.14 1414.98 742.19 1408.85 C 741.07 1405.61 740.69 1402.20 740.03 1398.87 C 740.79 1394.37 742.21 1389.80 745.71 1386.66 C 766.97 1366.02 775.73 1334.41 771.18 1305.48 C 768.57 1288.53 761.51 1271.90 749.35 1259.59 C 743.77 1253.89 736.97 1249.61 729.86 1246.12 C 723.98 1242.70 717.38 1237.53 717.61 1230.01 C 717.25 1225.53 720.21 1221.93 722.46 1218.40 C 737.87 1194.59 753.51 1170.92 769.46 1147.47 Z"
  />
  <path
    fill="#959898"
    stroke="#959898"
    stroke-width="0.09375"
    opacity="1.00"
    d=" M 632.06 1199.75 C 650.65 1193.74 666.73 1181.75 679.55 1167.19 C 691.69 1174.56 703.94 1181.75 716.07 1189.14 C 717.52 1189.54 716.67 1191.21 715.98 1191.89 C 700.41 1209.30 679.80 1222.92 656.62 1227.35 C 648.30 1218.26 640.31 1208.89 632.06 1199.75 Z"
  />
  <path
    fill="#959898"
    stroke="#959898"
    stroke-width="0.09375"
    opacity="1.00"
    d=" M 863.10 1176.97 C 864.24 1173.80 866.25 1171.07 868.08 1168.29 C 881.80 1181.65 898.64 1191.67 916.86 1197.55 C 918.57 1204.36 920.27 1211.17 921.97 1217.98 C 904.77 1212.20 888.67 1203.01 875.37 1190.62 C 871.10 1186.26 866.22 1182.27 863.10 1176.97 Z"
  />
  <path
    fill="#ffd400"
    stroke="#ffd400"
    stroke-width="0.09375"
    opacity="1.00"
    d=" M 1088.39 1178.10 C 1093.46 1177.78 1097.95 1181.20 1100.84 1185.12 C 1112.28 1200.06 1123.92 1214.88 1134.62 1230.37 C 1145.17 1245.77 1149.88 1264.52 1150.25 1283.04 C 1151.05 1296.65 1150.48 1310.31 1150.66 1323.95 C 1151.06 1335.75 1148.77 1347.40 1146.87 1358.99 C 1143.24 1379.40 1135.62 1398.80 1127.96 1417.98 C 1111.49 1458.82 1095.45 1499.84 1080.01 1541.09 C 1077.95 1545.94 1076.85 1552.19 1071.42 1554.47 C 1066.36 1557.43 1059.17 1555.77 1056.50 1550.39 C 1026.69 1493.54 996.20 1436.99 963.09 1381.97 C 957.84 1373.36 951.80 1364.42 951.70 1353.95 C 950.90 1345.18 953.98 1336.78 954.63 1328.13 C 956.26 1315.16 954.48 1301.85 950.38 1289.49 C 947.52 1281.95 945.24 1274.06 944.95 1265.97 C 944.55 1260.47 947.74 1255.72 950.17 1251.07 C 952.15 1247.54 953.72 1243.46 957.29 1241.21 C 964.79 1235.81 974.40 1236.01 983.16 1234.66 C 1020.81 1229.89 1056.32 1210.72 1081.24 1182.14 C 1082.96 1179.84 1085.57 1178.51 1088.39 1178.10 Z"
  />
  <path
    fill="#959898"
    stroke="#959898"
    stroke-width="0.09375"
    opacity="1.00"
    d=" M 1212.41 1186.39 C 1218.26 1182.24 1225.86 1183.96 1232.52 1184.26 C 1298.69 1192.13 1364.86 1200.03 1431.01 1208.00 C 1437.99 1208.58 1442.89 1215.29 1443.08 1221.98 C 1444.04 1238.23 1442.80 1254.51 1442.81 1270.77 C 1431.17 1269.74 1419.61 1268.03 1408.02 1266.64 C 1401.12 1265.93 1394.97 1269.60 1388.70 1271.81 C 1384.93 1273.30 1379.92 1275.14 1379.70 1279.93 C 1378.58 1297.91 1378.24 1315.93 1378.15 1333.94 C 1377.78 1337.27 1380.10 1340.31 1383.18 1341.38 C 1387.96 1343.01 1393.07 1342.18 1398.03 1342.50 C 1409.30 1343.01 1420.60 1343.85 1431.90 1343.42 C 1436.33 1342.39 1439.21 1338.33 1442.54 1335.51 C 1442.41 1347.70 1442.40 1359.90 1442.15 1372.09 C 1441.55 1379.85 1441.82 1387.63 1441.80 1395.41 C 1434.92 1394.52 1427.99 1394.43 1421.11 1393.61 C 1413.47 1393.29 1405.45 1390.93 1398.08 1394.00 C 1392.95 1396.21 1387.62 1398.07 1382.78 1400.88 C 1380.47 1402.07 1379.29 1404.56 1379.12 1407.08 C 1377.91 1418.02 1378.91 1429.08 1377.79 1440.04 C 1377.35 1446.35 1377.47 1452.69 1377.37 1459.02 C 1377.26 1461.59 1378.02 1464.42 1380.21 1466.01 C 1382.40 1467.75 1385.33 1467.66 1388.00 1467.74 C 1401.62 1467.53 1415.24 1467.87 1428.87 1467.63 C 1434.41 1467.83 1437.72 1462.61 1441.51 1459.42 C 1441.60 1475.62 1440.72 1491.79 1440.78 1507.98 C 1440.54 1515.10 1441.22 1522.87 1437.19 1529.17 C 1434.26 1534.10 1428.54 1536.59 1423.01 1537.06 C 1414.04 1537.79 1405.03 1537.48 1396.04 1537.59 C 1338.70 1537.75 1281.36 1537.73 1224.02 1537.61 C 1218.43 1537.76 1212.65 1535.16 1209.70 1530.29 C 1205.87 1524.28 1205.91 1516.85 1206.39 1510.00 C 1206.16 1455.35 1206.67 1400.69 1206.82 1346.03 C 1206.99 1333.02 1206.61 1319.99 1207.33 1306.99 C 1207.41 1271.67 1207.25 1236.34 1207.44 1201.02 C 1207.37 1195.83 1207.84 1189.72 1212.41 1186.39 Z"
  />
  <path
    fill="#ffd400"
    stroke="#ffd400"
    stroke-width="0.09375"
    opacity="1.00"
    d=" M 548.07 1194.01 C 548.52 1191.13 550.92 1188.59 553.91 1188.44 C 556.90 1189.30 559.06 1191.70 561.19 1193.84 C 566.53 1199.52 571.15 1205.85 576.61 1211.43 C 591.71 1227.07 606.06 1243.42 620.10 1260.01 C 625.16 1266.25 630.97 1272.09 634.52 1279.39 C 636.77 1284.33 633.78 1289.39 631.84 1293.88 C 627.76 1302.64 625.65 1312.32 626.29 1322.00 C 626.19 1330.55 630.18 1338.52 630.11 1347.05 C 630.17 1351.90 627.54 1356.19 625.45 1360.41 C 617.06 1376.15 608.21 1391.66 598.71 1406.77 C 595.33 1411.58 592.30 1416.92 587.54 1420.53 C 583.92 1422.97 580.45 1419.10 578.80 1416.18 C 573.64 1407.24 571.78 1396.92 568.34 1387.29 C 574.90 1389.36 582.32 1389.61 588.63 1386.59 C 597.72 1382.41 604.09 1373.93 607.96 1364.94 C 615.47 1347.46 616.05 1327.65 612.48 1309.16 C 609.31 1294.07 603.24 1278.93 592.01 1268.01 C 586.15 1262.14 578.28 1258.15 569.93 1257.74 C 561.40 1257.73 553.48 1262.15 547.85 1268.36 C 546.72 1254.93 546.61 1241.45 546.27 1227.99 C 546.22 1216.65 546.06 1205.21 548.07 1194.01 Z"
  />
  <path
    fill="#959898"
    stroke="#959898"
    stroke-width="0.09375"
    opacity="1.00"
    d=" M 929.36 1200.64 C 951.89 1205.12 975.62 1202.96 997.09 1194.82 C 1001.55 1202.12 1005.99 1209.43 1010.48 1216.72 C 986.17 1224.99 959.63 1227.09 934.51 1221.36 C 932.83 1214.44 931.09 1207.54 929.36 1200.64 Z"
  />
  <path
    fill="#959898"
    stroke="#959898"
    stroke-width="0.09375"
    opacity="1.00"
    d=" M 579.29 1198.09 C 591.96 1203.06 605.81 1204.68 619.27 1202.77 C 623.20 1205.70 625.90 1210.05 629.35 1213.54 C 633.83 1218.58 638.23 1223.68 642.78 1228.66 C 624.99 1228.96 607.30 1222.69 593.40 1211.65 C 588.18 1207.68 583.70 1202.89 579.29 1198.09 Z"
  />
  <path
    fill="#ffd400"
    stroke="#ffd400"
    stroke-width="0.09375"
    opacity="1.00"
    d=" M 695.40 1223.45 C 698.35 1222.46 701.07 1224.39 703.36 1226.01 C 702.29 1233.32 696.66 1238.70 692.68 1244.56 C 687.75 1246.95 682.53 1248.85 678.10 1252.17 C 671.12 1257.08 665.45 1263.52 660.05 1270.03 C 655.68 1272.01 651.08 1273.56 647.00 1276.16 C 640.23 1267.20 633.39 1258.28 626.33 1249.55 C 624.26 1246.89 621.00 1243.54 622.80 1239.94 C 624.01 1237.16 627.37 1237.92 629.76 1238.20 C 647.80 1241.60 666.63 1237.96 683.07 1230.14 C 687.35 1228.21 690.90 1224.86 695.40 1223.45 Z"
  />
  <path
    fill="#000000"
    stroke="#000000"
    stroke-width="0.09375"
    opacity="1.00"
    d=" M 1055.62 1243.83 C 1072.05 1241.51 1089.20 1244.84 1103.42 1253.45 C 1120.43 1263.63 1133.11 1280.53 1138.64 1299.53 C 1144.99 1320.07 1142.81 1342.90 1133.16 1362.07 C 1126.30 1375.75 1115.51 1387.48 1102.28 1395.21 C 1087.49 1403.76 1069.62 1407.46 1052.76 1404.13 C 1033.96 1400.84 1016.93 1389.72 1005.62 1374.45 C 995.70 1361.09 989.98 1344.64 989.39 1328.02 C 986.82 1293.46 1009.31 1258.36 1042.25 1247.10 C 1046.59 1245.58 1051.08 1244.51 1055.62 1243.83 Z"
  />
  <path
    fill="#ededed"
    stroke="#ededed"
    stroke-width="0.09375"
    opacity="1.00"
    d=" M 875.26 1254.15 C 881.96 1251.92 889.10 1252.64 896.02 1252.93 C 911.64 1254.98 925.08 1265.64 933.08 1278.88 C 943.50 1295.96 945.95 1317.17 941.83 1336.56 C 937.57 1356.20 925.85 1374.94 907.89 1384.68 C 893.39 1392.77 874.68 1393.14 860.21 1384.80 C 850.72 1379.67 843.49 1371.29 837.89 1362.22 C 846.02 1365.92 855.06 1367.28 863.95 1367.01 C 875.63 1366.88 887.91 1367.74 898.79 1362.68 C 915.27 1355.09 925.40 1336.87 924.96 1318.98 C 925.43 1298.58 912.63 1277.82 893.00 1271.13 C 879.35 1266.35 864.77 1268.75 850.66 1268.57 C 857.83 1262.25 865.92 1256.68 875.26 1254.15 Z"
  />
  <path
    fill="#000000"
    stroke="#000000"
    stroke-width="0.09375"
    opacity="1.00"
    d=" M 1243.61 1253.82 C 1248.02 1253.02 1252.54 1253.47 1256.95 1254.16 C 1266.81 1255.39 1276.66 1256.68 1286.56 1257.65 C 1290.18 1258.02 1292.84 1261.40 1292.56 1265.01 C 1292.43 1276.02 1292.34 1287.03 1292.28 1298.04 C 1291.50 1305.64 1291.69 1313.28 1291.51 1320.91 C 1291.73 1324.08 1288.74 1325.88 1286.69 1327.74 C 1284.08 1329.70 1281.80 1332.34 1278.69 1333.48 C 1273.82 1334.07 1268.90 1333.67 1264.02 1333.64 C 1257.01 1333.24 1249.96 1333.65 1242.99 1332.80 C 1237.37 1332.19 1231.67 1333.00 1226.10 1332.06 C 1222.46 1331.44 1218.86 1328.79 1218.52 1324.90 C 1217.86 1308.59 1219.57 1292.32 1219.47 1276.01 C 1219.72 1270.92 1218.52 1263.91 1224.11 1261.20 C 1230.36 1258.18 1237.01 1255.94 1243.61 1253.82 Z"
  />
  <path
    fill="#ededed"
    stroke="#ededed"
    stroke-width="0.09375"
    opacity="1.00"
    d=" M 701.43 1254.66 C 715.09 1251.19 729.83 1256.60 739.76 1266.19 C 753.96 1279.70 760.75 1299.73 760.72 1319.06 C 761.24 1337.14 756.01 1355.55 745.21 1370.16 C 738.83 1378.69 730.27 1385.86 720.14 1389.43 C 713.27 1392.05 705.74 1392.15 698.54 1391.25 C 685.04 1388.75 673.86 1379.34 666.53 1368.07 C 675.03 1367.69 683.46 1369.42 691.97 1368.53 C 698.46 1367.41 705.29 1368.79 711.57 1366.32 C 727.64 1360.92 738.55 1345.33 741.36 1329.03 C 744.99 1310.67 738.85 1289.84 724.02 1277.94 C 716.22 1271.55 705.90 1268.92 695.95 1269.26 C 689.36 1269.31 682.82 1268.46 676.25 1268.37 C 683.41 1261.95 691.89 1256.59 701.43 1254.66 Z"
  />
  <path
    fill="#ededed"
    stroke="#ededed"
    stroke-width="0.09375"
    opacity="1.00"
    d=" M 1053.48 1255.72 C 1072.73 1251.46 1093.63 1257.63 1108.06 1270.92 C 1119.76 1281.62 1127.41 1296.49 1129.89 1312.11 C 1132.19 1327.99 1129.82 1344.71 1122.04 1358.87 C 1114.55 1372.92 1102.05 1384.39 1087.05 1389.92 C 1069.15 1396.71 1048.06 1394.54 1032.04 1384.00 C 1016.26 1374.02 1005.59 1357.03 1002.04 1338.83 C 998.69 1321.93 1001.91 1304.02 1009.75 1288.79 C 1018.75 1272.23 1034.91 1259.52 1053.48 1255.72 Z"
  />
  <path
    fill="#000000"
    stroke="#000000"
    stroke-width="0.09375"
    opacity="1.00"
    d=" M 1324.90 1259.85 C 1328.60 1259.24 1332.36 1259.74 1336.05 1260.31 C 1345.72 1261.51 1355.40 1262.81 1365.11 1263.76 C 1368.52 1264.29 1370.87 1267.57 1370.58 1270.97 C 1370.42 1281.65 1370.32 1292.32 1370.23 1303.00 C 1369.39 1310.64 1369.72 1318.33 1369.40 1326.00 C 1369.38 1328.76 1366.68 1330.28 1364.98 1332.05 C 1362.23 1334.28 1359.75 1337.19 1356.26 1338.23 C 1350.35 1338.73 1344.40 1338.40 1338.52 1337.82 C 1328.74 1337.32 1318.92 1337.63 1309.16 1336.93 C 1304.67 1336.83 1299.61 1333.94 1299.49 1328.99 C 1299.39 1320.33 1299.35 1311.64 1300.17 1303.02 C 1300.54 1296.34 1300.25 1289.66 1300.55 1282.99 C 1300.75 1278.82 1300.37 1274.50 1301.83 1270.51 C 1303.46 1267.48 1306.99 1266.35 1309.96 1265.08 C 1314.93 1263.32 1319.73 1261.01 1324.90 1259.85 Z"
  />
  <path
    fill="#ff002c"
    stroke="#ff002c"
    stroke-width="0.09375"
    opacity="1.00"
    d=" M 1253.67 1266.38 C 1262.63 1267.60 1271.64 1268.49 1280.61 1269.67 C 1280.80 1284.73 1279.45 1299.73 1279.70 1314.78 C 1270.88 1314.34 1262.11 1313.29 1253.33 1312.43 C 1253.34 1297.08 1253.55 1281.73 1253.67 1266.38 Z"
  />
  <path
    fill="#ededed"
    stroke="#ededed"
    stroke-width="0.09375"
    opacity="1.00"
    d=" M 564.06 1269.85 C 569.28 1267.60 575.31 1269.10 579.88 1272.14 C 585.89 1276.15 590.35 1282.09 593.72 1288.41 C 599.26 1298.76 602.14 1310.36 603.29 1322.01 C 604.30 1336.36 603.00 1351.41 596.17 1364.32 C 592.62 1370.87 586.84 1377.27 578.97 1377.96 C 571.63 1378.42 565.41 1373.64 560.59 1368.64 C 571.91 1365.89 581.05 1357.16 585.57 1346.60 C 593.17 1329.04 590.84 1306.72 577.61 1292.44 C 571.17 1285.15 561.52 1281.32 551.89 1281.16 C 554.98 1276.54 558.68 1271.85 564.06 1269.85 Z"
  />
  <path
    fill="#fe5400"
    stroke="#fe5400"
    stroke-width="0.09375"
    opacity="1.00"
    d=" M 1232.40 1271.23 C 1235.21 1270.21 1238.03 1269.22 1240.88 1268.29 C 1241.75 1282.61 1241.06 1296.98 1241.25 1311.33 C 1240.98 1311.72 1240.46 1312.50 1240.19 1312.89 C 1236.99 1313.91 1233.84 1315.05 1230.65 1316.09 C 1231.76 1308.11 1231.21 1300.04 1231.48 1292.03 C 1231.50 1285.07 1232.41 1278.17 1232.40 1271.23 Z"
  />
  <path
    fill="#ff002c"
    stroke="#ff002c"
    stroke-width="0.09375"
    opacity="1.00"
    d=" M 1333.51 1272.33 C 1342.09 1273.59 1350.75 1274.29 1359.33 1275.62 C 1358.89 1290.30 1358.22 1304.97 1358.37 1319.67 C 1349.78 1319.26 1341.24 1318.16 1332.69 1317.36 C 1332.49 1302.34 1333.60 1287.35 1333.51 1272.33 Z"
  />
  <path
    fill="#000000"
    stroke="#000000"
    stroke-width="0.09375"
    opacity="1.00"
    d=" M 1062.54 1275.62 C 1070.73 1274.89 1079.03 1275.43 1087.11 1276.98 C 1097.40 1279.24 1106.42 1286.13 1112.11 1294.92 C 1122.87 1311.23 1122.86 1333.84 1112.07 1350.14 C 1107.20 1357.64 1099.94 1363.69 1091.41 1366.52 C 1084.53 1368.93 1077.16 1369.26 1069.96 1369.70 C 1060.38 1368.83 1050.22 1368.37 1041.80 1363.16 C 1027.81 1354.73 1019.85 1338.16 1020.26 1322.04 C 1019.91 1303.55 1030.96 1284.12 1048.95 1277.98 C 1053.29 1276.32 1057.96 1276.10 1062.54 1275.62 Z"
  />
  <path
    fill="#fe5400"
    stroke="#fe5400"
    stroke-width="0.09375"
    opacity="1.00"
    d=" M 1312.61 1277.52 C 1315.51 1276.31 1318.43 1275.17 1321.37 1274.05 C 1321.47 1288.45 1321.37 1302.85 1321.26 1317.24 C 1317.97 1318.53 1314.69 1319.80 1311.38 1321.02 C 1311.60 1306.51 1312.62 1292.03 1312.61 1277.52 Z"
  />
  <path
    fill="#ff002c"
    stroke="#ff002c"
    stroke-width="0.09375"
    opacity="1.00"
    d=" M 847.39 1280.52 C 856.86 1278.41 867.08 1281.31 874.35 1287.66 C 888.86 1300.14 892.47 1323.24 882.60 1339.62 C 877.85 1347.84 869.39 1353.91 859.92 1355.20 C 847.97 1356.94 835.92 1350.41 829.27 1340.64 C 820.18 1327.77 819.08 1309.71 826.98 1296.01 C 831.34 1288.41 838.72 1282.35 847.39 1280.52 Z"
  />
  <path
    fill="#fe5400"
    stroke="#fe5400"
    stroke-width="0.09375"
    opacity="1.00"
    d=" M 882.17 1279.81 C 889.22 1280.89 896.14 1283.66 901.31 1288.71 C 916.59 1302.75 918.56 1329.03 904.73 1344.73 C 899.53 1350.95 891.82 1354.42 883.90 1355.51 C 898.24 1342.03 902.65 1320.04 896.32 1301.66 C 893.63 1293.27 888.53 1285.84 882.17 1279.81 Z"
  />
  <path
    fill="#ff002c"
    stroke="#ff002c"
    stroke-width="0.09375"
    opacity="1.00"
    d=" M 1410.63 1279.21 C 1418.90 1279.99 1427.16 1280.93 1435.36 1282.27 C 1435.11 1296.68 1434.16 1311.07 1434.33 1325.49 C 1426.28 1324.63 1418.22 1323.87 1410.16 1323.29 C 1409.39 1317.54 1410.42 1311.80 1410.28 1306.05 C 1410.21 1297.10 1410.63 1288.15 1410.63 1279.21 Z"
  />
  <path
    fill="#ff002c"
    stroke="#ff002c"
    stroke-width="0.09375"
    opacity="1.00"
    d=" M 661.34 1281.58 C 666.43 1280.21 671.94 1280.18 676.87 1282.23 C 687.46 1286.16 694.35 1296.50 697.00 1307.11 C 700.71 1321.67 697.17 1338.58 686.17 1349.19 C 679.70 1355.50 669.94 1358.90 661.08 1356.26 C 651.14 1353.68 643.72 1345.22 640.13 1335.88 C 634.38 1320.91 636.68 1302.60 647.38 1290.38 C 651.11 1286.26 655.87 1282.88 661.34 1281.58 Z"
  />
  <path
    fill="#fe5400"
    stroke="#fe5400"
    stroke-width="0.09375"
    opacity="1.00"
    d=" M 695.22 1281.20 C 704.42 1279.34 714.17 1282.59 720.50 1289.48 C 733.98 1304.14 734.78 1328.24 723.32 1344.30 C 717.09 1353.35 705.60 1359.02 694.62 1356.46 C 707.86 1342.71 712.69 1321.74 707.40 1303.49 C 705.34 1295.13 700.75 1287.69 695.22 1281.20 Z"
  />
  <path
    fill="#fe5400"
    stroke="#fe5400"
    stroke-width="0.09375"
    opacity="1.00"
    d=" M 1390.68 1284.15 C 1393.49 1282.98 1396.32 1281.87 1399.23 1280.93 C 1399.30 1287.29 1398.97 1293.64 1398.65 1300.00 C 1398.99 1307.70 1398.65 1315.42 1398.64 1323.13 C 1395.53 1324.32 1392.44 1325.53 1389.35 1326.75 C 1389.70 1312.54 1390.65 1298.36 1390.68 1284.15 Z"
  />
  <path
    fill="#ff002c"
    stroke="#ff002c"
    stroke-width="0.09375"
    opacity="1.00"
    d=" M 1073.41 1288.47 C 1082.00 1286.29 1091.77 1288.54 1098.11 1294.87 C 1108.27 1304.72 1111.58 1320.47 1107.66 1333.88 C 1104.90 1343.99 1097.55 1353.44 1087.18 1356.41 C 1079.38 1358.98 1070.62 1356.68 1064.29 1351.69 C 1051.30 1341.30 1047.91 1321.99 1053.98 1306.93 C 1057.25 1298.26 1064.46 1291.10 1073.41 1288.47 Z"
  />
  <path
    fill="#fe5400"
    stroke="#fe5400"
    stroke-width="0.09375"
    opacity="1.00"
    d=" M 1045.48 1292.46 C 1047.71 1290.94 1050.16 1289.76 1052.58 1288.55 C 1035.84 1307.16 1035.86 1338.22 1053.14 1356.47 C 1037.41 1350.95 1029.14 1332.93 1031.51 1317.08 C 1032.70 1307.53 1037.21 1297.83 1045.48 1292.46 Z"
  />
  <path
    fill="#ff002c"
    stroke="#ff002c"
    stroke-width="0.09375"
    opacity="1.00"
    d=" M 519.38 1293.46 C 522.80 1292.46 526.50 1292.24 529.91 1293.44 C 537.18 1295.65 542.48 1301.87 545.47 1308.64 C 550.69 1320.40 550.20 1334.67 543.76 1345.87 C 540.90 1350.88 536.45 1355.11 530.94 1357.04 C 524.94 1359.15 518.01 1357.74 513.02 1353.88 C 506.49 1348.90 502.65 1341.02 501.21 1333.07 C 499.98 1323.95 500.75 1314.26 505.10 1306.02 C 508.06 1300.27 512.96 1295.13 519.38 1293.46 Z"
  />
  <path
    fill="#fe5400"
    stroke="#fe5400"
    stroke-width="0.09375"
    opacity="1.00"
    d=" M 548.95 1293.38 C 555.82 1291.89 563.31 1293.41 568.32 1298.56 C 581.33 1311.47 582.32 1334.02 571.73 1348.70 C 566.80 1355.68 557.68 1359.82 549.26 1357.18 C 563.80 1339.18 563.43 1311.31 548.95 1293.38 Z"
  />
  <path
    fill="#ffd400"
    stroke="#ffd400"
    stroke-width="0.09375"
    opacity="1.00"
    d=" M 638.46 1365.14 C 641.47 1364.17 644.88 1364.67 647.55 1366.39 C 654.40 1370.40 658.71 1377.26 663.80 1383.12 C 674.73 1395.75 691.13 1403.97 707.99 1403.39 C 715.58 1402.71 723.22 1406.14 728.29 1411.74 C 734.52 1418.39 738.93 1426.47 744.01 1433.99 C 757.02 1453.48 769.51 1473.32 781.64 1493.37 C 786.44 1501.45 791.62 1509.47 794.41 1518.53 C 797.14 1527.51 796.37 1537.28 793.06 1546.01 C 789.69 1554.71 785.65 1563.13 781.75 1571.61 C 776.63 1582.59 772.02 1593.81 766.80 1604.75 C 763.27 1611.81 759.80 1619.40 753.45 1624.41 C 747.68 1629.00 739.65 1629.24 732.82 1627.29 C 720.33 1623.97 710.43 1615.28 700.55 1607.43 C 675.60 1586.64 653.89 1562.10 635.26 1535.55 C 622.92 1518.26 614.08 1498.76 606.97 1478.82 C 603.43 1468.24 600.37 1457.23 600.61 1445.98 C 600.41 1436.34 602.16 1426.43 607.01 1418.01 C 615.19 1402.57 623.38 1387.12 631.82 1371.81 C 633.40 1369.08 635.47 1366.40 638.46 1365.14 Z"
  />
  <path
    fill="#ffd400"
    stroke="#ffd400"
    stroke-width="0.09375"
    opacity="1.00"
    d=" M 926.06 1387.04 C 930.74 1382.73 934.49 1377.09 940.70 1374.83 C 948.86 1378.59 953.02 1387.06 957.84 1394.14 C 988.56 1445.52 1017.01 1498.23 1044.77 1551.26 C 1049.11 1560.06 1053.91 1568.73 1056.83 1578.15 C 1059.59 1587.01 1059.18 1596.62 1056.28 1605.39 C 1048.79 1628.09 1040.74 1650.60 1033.26 1673.30 C 1030.53 1681.97 1023.49 1688.80 1015.16 1692.17 C 1008.53 1695.18 1001.16 1695.21 994.05 1695.79 C 970.39 1696.53 946.67 1696.05 923.14 1693.47 C 913.33 1692.06 904.05 1686.98 897.67 1679.38 C 892.05 1672.86 888.50 1664.92 884.59 1657.33 C 869.41 1626.87 853.64 1596.69 837.05 1566.97 C 832.45 1558.39 827.07 1550.13 823.99 1540.83 C 817.88 1523.62 824.26 1505.36 831.66 1489.65 C 842.16 1466.66 853.14 1443.89 864.18 1421.16 C 867.14 1415.49 870.06 1409.02 876.05 1405.98 C 881.72 1403.52 888.05 1404.09 894.02 1402.95 C 906.02 1401.19 917.36 1395.47 926.06 1387.04 Z"
  />
  <path
    fill="#000000"
    stroke="#000000"
    stroke-width="0.09375"
    opacity="1.00"
    d=" M 1237.96 1387.76 C 1246.06 1383.67 1255.36 1385.44 1264.00 1386.15 C 1271.01 1386.56 1277.98 1387.53 1285.02 1387.63 C 1288.59 1387.64 1292.48 1390.02 1292.45 1393.98 C 1292.63 1402.98 1292.15 1411.99 1292.32 1421.00 C 1292.54 1427.34 1291.49 1433.64 1291.60 1439.99 C 1291.44 1444.07 1291.89 1448.22 1291.17 1452.27 C 1289.81 1454.78 1287.34 1456.40 1285.31 1458.32 C 1283.08 1460.07 1281.09 1462.33 1278.35 1463.28 C 1274.26 1463.89 1270.09 1463.74 1265.98 1463.64 C 1253.31 1463.73 1240.65 1463.63 1227.99 1463.67 C 1224.09 1463.74 1219.19 1461.41 1219.19 1456.97 C 1218.77 1444.32 1219.52 1431.66 1219.52 1419.01 C 1219.62 1411.70 1219.52 1404.24 1220.99 1397.07 C 1224.84 1391.52 1232.26 1390.62 1237.96 1387.76 Z"
  />
  <path
    fill="#000000"
    stroke="#000000"
    stroke-width="0.09375"
    opacity="1.00"
    d=" M 1321.47 1389.62 C 1325.11 1388.22 1329.10 1388.23 1332.95 1388.47 C 1342.66 1389.18 1352.33 1390.55 1362.08 1390.73 C 1364.83 1390.79 1368.00 1391.73 1369.29 1394.42 C 1371.01 1398.40 1369.77 1402.80 1369.77 1406.98 C 1369.53 1421.64 1369.65 1436.33 1368.95 1450.98 C 1369.31 1455.12 1365.62 1457.47 1363.01 1459.98 C 1360.16 1462.46 1357.18 1465.55 1353.08 1465.36 C 1338.72 1465.59 1324.36 1465.25 1310.01 1465.45 C 1305.73 1465.68 1300.38 1463.80 1299.56 1459.07 C 1298.72 1444.38 1300.49 1429.71 1300.40 1415.02 C 1300.75 1410.09 1300.05 1404.98 1301.62 1400.22 C 1302.79 1397.55 1305.68 1396.33 1308.14 1395.12 C 1312.54 1393.21 1316.98 1391.34 1321.47 1389.62 Z"
  />
  <path
    fill="#ff002c"
    stroke="#ff002c"
    stroke-width="0.09375"
    opacity="1.00"
    d=" M 1253.75 1398.19 C 1262.72 1398.03 1271.60 1399.56 1280.57 1399.74 C 1280.86 1414.73 1279.45 1429.65 1279.70 1444.64 C 1270.92 1444.71 1262.22 1443.38 1253.45 1443.40 C 1253.39 1428.33 1253.69 1413.26 1253.75 1398.19 Z"
  />
  <path
    fill="#fe5400"
    stroke="#fe5400"
    stroke-width="0.09375"
    opacity="1.00"
    d=" M 1232.39 1403.56 C 1235.35 1402.29 1238.34 1401.09 1241.37 1399.97 C 1241.50 1414.46 1241.41 1428.95 1241.37 1443.45 C 1238.01 1444.97 1234.60 1446.37 1231.19 1447.76 C 1231.51 1441.53 1231.57 1435.30 1231.59 1429.08 C 1231.49 1420.55 1232.78 1412.08 1232.39 1403.56 Z"
  />
  <path
    fill="#ff002c"
    stroke="#ff002c"
    stroke-width="0.09375"
    opacity="1.00"
    d=" M 1333.32 1401.09 C 1341.78 1401.19 1350.16 1402.48 1358.61 1402.72 C 1358.88 1417.38 1357.47 1431.98 1357.69 1446.63 C 1349.27 1446.64 1340.92 1445.37 1332.50 1445.41 C 1332.36 1430.62 1332.91 1415.85 1333.32 1401.09 Z"
  />
  <path
    fill="#fe5400"
    stroke="#fe5400"
    stroke-width="0.09375"
    opacity="1.00"
    d=" M 1312.48 1406.51 C 1315.37 1405.25 1318.28 1404.05 1321.24 1402.95 C 1321.20 1417.17 1321.53 1431.42 1320.54 1445.62 C 1317.59 1447.32 1314.33 1448.37 1311.21 1449.69 C 1311.51 1444.11 1311.65 1438.54 1311.64 1432.96 C 1311.56 1424.13 1312.86 1415.35 1312.48 1406.51 Z"
  />
  <path
    fill="#ff002c"
    stroke="#ff002c"
    stroke-width="0.09375"
    opacity="1.00"
    d=" M 1409.33 1448.36 C 1409.48 1433.75 1409.19 1419.10 1410.19 1404.52 C 1418.24 1405.58 1426.36 1405.85 1434.45 1406.68 C 1434.43 1420.98 1433.19 1435.23 1433.43 1449.53 C 1425.37 1449.43 1417.38 1448.26 1409.33 1448.36 Z"
  />
  <path
    fill="#fe5400"
    stroke="#fe5400"
    stroke-width="0.09375"
    opacity="1.00"
    d=" M 1390.35 1410.01 C 1393.03 1408.97 1395.72 1407.90 1398.40 1406.83 C 1398.48 1420.68 1398.30 1434.52 1398.22 1448.37 C 1395.04 1449.79 1391.81 1451.14 1388.61 1452.50 C 1389.55 1445.38 1389.25 1438.20 1389.47 1431.06 C 1389.51 1424.02 1390.49 1417.04 1390.35 1410.01 Z"
  />
  <path
    fill="#ffd400"
    stroke="#ffd400"
    stroke-width="0.09375"
    opacity="1.00"
    d=" M 1143.40 1415.16 C 1145.13 1414.42 1147.64 1414.36 1148.84 1416.09 C 1150.43 1417.96 1150.46 1420.61 1150.65 1422.96 C 1150.70 1449.98 1150.62 1477.00 1150.55 1504.02 C 1150.62 1513.02 1149.63 1522.38 1153.15 1530.93 C 1155.80 1537.79 1161.89 1542.86 1168.79 1545.14 C 1179.77 1548.82 1191.50 1548.22 1202.88 1549.38 C 1213.26 1549.34 1223.62 1550.19 1234.00 1549.94 C 1242.65 1550.05 1251.36 1549.55 1259.97 1550.67 C 1266.34 1551.19 1273.28 1551.54 1278.62 1555.49 C 1282.29 1558.40 1283.06 1563.58 1282.26 1567.97 C 1281.27 1575.02 1276.72 1580.85 1272.21 1586.09 C 1262.99 1596.38 1251.59 1604.35 1240.76 1612.81 C 1209.05 1637.40 1172.73 1655.46 1135.11 1669.06 C 1129.42 1670.94 1122.56 1671.33 1117.42 1667.82 C 1113.23 1664.99 1111.41 1660.10 1109.25 1655.78 C 1101.60 1640.15 1093.93 1624.54 1086.19 1608.96 C 1084.18 1604.86 1081.80 1600.89 1080.47 1596.51 C 1078.16 1586.50 1078.48 1575.76 1082.17 1566.12 C 1099.93 1518.03 1118.47 1470.23 1137.68 1422.70 C 1138.88 1419.75 1140.56 1416.79 1143.40 1415.16 Z"
  />
  <path
    fill="#ffd400"
    stroke="#ffd400"
    stroke-width="0.09375"
    opacity="1.00"
    d=" M 806.39 1554.22 C 809.37 1553.21 812.84 1553.63 815.44 1555.46 C 819.71 1558.30 822.33 1562.87 824.84 1567.22 C 841.07 1595.97 856.48 1625.19 871.23 1654.72 C 874.08 1660.65 876.34 1667.37 875.46 1674.01 C 874.78 1681.21 866.19 1685.28 859.76 1683.24 C 838.64 1678.01 817.84 1671.41 797.65 1663.26 C 791.74 1660.71 785.39 1658.82 780.29 1654.74 C 774.54 1650.22 769.78 1643.59 769.65 1636.03 C 769.26 1628.90 771.77 1622.07 774.50 1615.61 C 781.87 1598.68 789.39 1581.82 796.98 1564.99 C 798.99 1560.63 801.74 1556.10 806.39 1554.22 Z"
  />
  <path
    fill="#ffd400"
    stroke="#ffd400"
    stroke-width="0.09375"
    opacity="1.00"
    d=" M 1338.15 1567.04 C 1344.64 1565.48 1351.31 1564.69 1358.00 1564.81 C 1366.01 1564.98 1374.16 1564.17 1382.05 1566.06 C 1382.76 1567.12 1383.86 1568.07 1384.10 1569.42 C 1382.21 1571.81 1379.30 1572.91 1376.46 1573.66 C 1364.50 1576.88 1352.44 1579.72 1340.31 1582.26 C 1333.65 1583.60 1326.05 1585.76 1319.80 1581.98 C 1319.72 1580.29 1320.24 1578.68 1321.24 1577.36 C 1324.82 1571.39 1331.79 1568.85 1338.15 1567.04 Z"
  />
  <path
    fill="#ffd400"
    stroke="#ffd400"
    stroke-width="0.09375"
    opacity="1.00"
    d=" M 1070.32 1614.38 C 1072.75 1613.11 1075.39 1615.01 1076.87 1616.91 C 1082.70 1624.94 1086.32 1634.25 1090.98 1642.96 C 1094.43 1650.24 1098.34 1657.33 1101.24 1664.88 C 1102.78 1668.91 1103.26 1674.41 1099.45 1677.38 C 1091.33 1683.69 1080.72 1684.84 1070.98 1686.97 C 1064.18 1688.07 1057.16 1690.30 1050.28 1688.63 C 1047.32 1687.79 1045.45 1685.06 1045.08 1682.12 C 1043.57 1674.23 1046.95 1666.63 1049.30 1659.29 C 1053.59 1647.30 1057.04 1634.97 1062.48 1623.44 C 1064.32 1619.90 1066.40 1615.94 1070.32 1614.38 Z"
  />
</svg>
